<svg width="54" height="55" viewBox="0 0 54 55" fill="none" xmlns="http://www.w3.org/2000/svg">
<path d="M53.6667 11.2533L41.4 0.959976L37.96 5.03998L50.2267 15.3333L53.6667 11.2533ZM16.0134 5.03998L12.6 0.959976L0.333374 11.2266L3.77337 15.3066L16.0134 5.03998ZM27 6.66664C13.7467 6.66664 3.00004 17.4133 3.00004 30.6666C3.00004 43.92 13.72 54.6666 27 54.6666C40.2534 54.6666 51 43.92 51 30.6666C51 17.4133 40.2534 6.66664 27 6.66664ZM27 49.3333C16.68 49.3333 8.33337 40.9866 8.33337 30.6666C8.33337 20.3466 16.68 12 27 12C37.32 12 45.6667 20.3466 45.6667 30.6666C45.6667 40.9866 37.32 49.3333 27 49.3333ZM23.1067 34.7466L17.4267 29.0666L14.6 31.8933L23.08 40.3733L39.08 24.3733L36.2534 21.5466L23.1067 34.7466Z" fill="#000091"/>
</svg>
