<svg width="56" height="56" viewBox="0 0 56 56" fill="none" xmlns="http://www.w3.org/2000/svg">
<path style="fill:#000091;" d="M55.538 8.07797C55.538 6.18655 53.8482 4.6476 51.7714 4.6476C51.2609 4.6476 50.7745 4.74117 50.3302 4.9095C49.9628 3.36628 48.4527 2.20673 46.6498 2.20673C46.1169 2.20673 45.6098 2.30842 45.1495 2.49128C44.7001 1.05487 43.2472 0 41.5278 0C39.8089 0 38.356 1.05487 37.9061 2.49128C37.4464 2.30842 36.9393 2.20673 36.4063 2.20673C34.3295 2.20673 32.6401 3.74525 32.6401 5.63668V14.2303C31.7821 13.4023 30.4985 12.9738 29.1915 13.1836C28.1716 13.3476 27.2873 13.8663 26.7018 14.6443C26.639 14.7277 26.5813 14.8135 26.5273 14.9007C26.0183 14.6507 25.4366 14.5089 24.8192 14.5089C24.359 14.5089 23.9194 14.5888 23.5141 14.7319C23.1313 13.2883 21.7018 12.212 20.0007 12.212C19.518 12.212 19.0573 12.2996 18.636 12.4568C18.18 11.1144 16.8041 10.1364 15.1823 10.1364C13.5605 10.1364 12.1845 11.1144 11.7285 12.4568C11.3072 12.2996 10.8465 12.212 10.3638 12.212C8.37046 12.212 6.74913 13.689 6.74913 15.504V23.4315C5.92956 22.7121 4.75719 22.3493 3.56325 22.5407C2.58511 22.698 1.73645 23.1957 1.1749 23.9421C0.613343 24.6885 0.409739 25.5887 0.601615 26.4765L1.86546 32.3132C2.36837 34.6361 3.60735 36.7476 5.44823 38.419L7.70476 40.468V43.9672H6.43294C5.76958 43.9672 5.23196 44.4568 5.23196 45.061V54.9064C5.23196 55.5106 5.76958 56.0002 6.43294 56.0002C7.09582 56.0002 7.63392 55.5106 7.63392 54.9064V46.1547H23.3105V54.9064C23.3105 55.5106 23.8481 56.0002 24.5114 56.0002C25.1748 56.0002 25.7124 55.5106 25.7124 54.9064V45.061C25.7124 44.4568 25.1748 43.9672 24.5114 43.9672H23.2715V40.468L24.6053 39.2572C27.0743 37.015 28.4339 34.0311 28.4339 30.8558V26.2762C29.1141 27.6331 30.0571 28.8742 31.2351 29.9441L33.6558 32.1423V36.422H32.2287C31.5653 36.422 31.0277 36.9116 31.0277 37.5158V54.9064C31.0277 55.5106 31.5653 56.0002 32.2287 56.0002C32.8916 56.0002 33.4297 55.5106 33.4297 54.9064V42.9845H39.2418C39.9051 42.9845 40.4427 42.4949 40.4427 41.8908C40.4427 41.2866 39.9051 40.797 39.2418 40.797H33.4297V38.6095H50.2434V54.9064C50.2434 55.5106 50.781 56.0002 51.4444 56.0002C52.1073 56.0002 52.6454 55.5106 52.6454 54.9064V37.5158C52.6454 36.9116 52.1073 36.422 51.4444 36.422H50.0506V32.1423L51.4903 30.8353C54.1001 28.4649 55.5376 25.3106 55.5376 21.9541V20.8181C55.5376 20.2139 54.9999 19.7243 54.3366 19.7243C53.6737 19.7243 53.1356 20.2139 53.1356 20.8181V21.9541C53.1356 24.7252 51.9492 27.3293 49.7944 29.2861L48.0019 30.9139C47.7758 31.119 47.6486 31.398 47.6486 31.6885V36.422H36.0577V31.6885C36.0577 31.3976 35.9306 31.119 35.7045 30.9139L32.931 28.3953C31.3247 26.9363 30.2433 25.0935 29.8047 23.0667L28.4611 16.8626C28.3865 16.5187 28.4653 16.17 28.683 15.8808C28.9007 15.592 29.2295 15.3989 29.6086 15.3382C30.3437 15.2198 31.0577 15.6445 31.2351 16.3042L31.9294 18.8826C32.1222 19.6 32.8465 20.0563 33.652 19.9678C34.4575 19.8794 35.0421 19.2787 35.0421 18.54V5.63668C35.0421 4.95137 35.6538 4.39424 36.4063 4.39424C37.1072 4.39424 37.6856 4.87789 37.7616 5.49825V12.6884C37.7616 12.732 37.7649 12.7747 37.7706 12.817V13.5194C37.7706 14.1235 38.3082 14.6132 38.9715 14.6132C39.6349 14.6132 40.1725 14.1235 40.1725 13.5194V5.63668C40.1725 5.56106 40.1688 5.48586 40.1636 5.41109V3.42994C40.1636 2.74507 40.7758 2.18751 41.5278 2.18751C42.2803 2.18751 42.8921 2.74507 42.8921 3.42994V5.41109C42.8869 5.48586 42.8832 5.56106 42.8832 5.63668V12.6884C42.8832 12.732 42.8869 12.7747 42.8921 12.817V13.5194C42.8921 14.1235 43.4302 14.6132 44.0931 14.6132C44.7564 14.6132 45.294 14.1235 45.294 13.5194V5.49825C45.37 4.87789 45.9485 4.39424 46.6494 4.39424C47.4019 4.39424 48.0136 4.95137 48.0136 5.63668V7.85238C48.0084 7.92715 48.0047 8.00192 48.0047 8.07797V12.6884C48.0047 12.732 48.0084 12.7747 48.0136 12.817V13.5194C48.0136 14.1235 48.5517 14.6132 49.2146 14.6132C49.8779 14.6132 50.4156 14.1235 50.4156 13.5194V7.93912C50.4916 7.31918 51.0705 6.83511 51.7709 6.83511C52.5234 6.83511 53.1356 7.39267 53.1356 8.07797V12.0676C53.1356 12.6717 53.6732 13.1614 54.3366 13.1614C54.9995 13.1614 55.5376 12.6717 55.5376 12.0676L55.538 8.07797ZM26.0319 30.8558C26.0319 33.4458 24.9229 35.8794 22.9094 37.708L21.2228 39.2397C20.9967 39.4448 20.8696 39.7233 20.8696 40.0143V43.9672H10.1067V40.0143C10.1067 39.7233 9.97958 39.4448 9.75346 39.2397L7.14461 36.8702C5.64292 35.5064 4.63241 33.7846 4.22238 31.8898L2.95854 26.0531C2.89239 25.7468 2.96229 25.4362 3.15651 25.1786C3.35026 24.9209 3.643 24.7492 3.98031 24.6949C4.63569 24.5902 5.27136 24.9684 5.42946 25.5558L6.08249 27.9817C6.27296 28.6888 6.98651 29.1383 7.78123 29.0511C8.575 28.964 9.15109 28.3722 9.15109 27.6438V15.504C9.15109 14.8951 9.69529 14.3995 10.3638 14.3995C10.9854 14.3995 11.4991 14.8285 11.5676 15.3784V22.1383C11.5676 22.181 11.5709 22.2224 11.576 22.2634V22.9206C11.576 23.5247 12.1141 24.0143 12.777 24.0143C13.4404 24.0143 13.978 23.5247 13.978 22.9206V15.504C13.978 15.4322 13.9747 15.3613 13.9696 15.2903V13.428C13.9696 12.8191 14.5138 12.324 15.1823 12.324C15.8513 12.324 16.395 12.8191 16.395 13.428V15.2891C16.3898 15.3604 16.3865 15.4318 16.3865 15.504V22.1383C16.3865 22.181 16.3898 22.2229 16.395 22.2643V22.9206C16.395 23.5243 16.9326 24.0143 17.596 24.0143C18.2593 24.0143 18.7969 23.5243 18.7969 22.9206V15.3775C18.8659 14.8281 19.3791 14.3995 20.0007 14.3995C20.6697 14.3995 21.2134 14.8951 21.2134 15.504V17.5859C21.2083 17.6569 21.205 17.7286 21.205 17.8008V22.1383C21.205 22.181 21.2083 22.2229 21.2134 22.2643V22.9206C21.2134 23.5243 21.7515 24.0143 22.4144 24.0143C23.0778 24.0143 23.6154 23.5243 23.6154 22.9206V17.6744C23.6848 17.1249 24.1981 16.6964 24.8197 16.6964C25.4882 16.6964 26.0319 17.192 26.0319 17.8008V30.8558Z" fill="black"/>
</svg>
