<svg width="38" height="54" viewBox="0 0 38 54" fill="none" xmlns="http://www.w3.org/2000/svg">
<path d="M11 51C11 52.3333 12.0667 53.6667 13.6667 53.6667H24.3334C25.9334 53.6667 27 52.3333 27 51V48.3333H11V51ZM19 0.333344C8.60004 0.333344 0.333374 8.60001 0.333374 19C0.333374 25.4 3.53337 31 8.33337 34.2V40.3333C8.33337 41.6667 9.40004 43 11 43H27C28.6 43 29.6667 41.6667 29.6667 40.3333V34.2C34.4667 30.7333 37.6667 25.1333 37.6667 19C37.6667 8.60001 29.4 0.333344 19 0.333344Z" fill="#000091"/>
</svg>
