<svg width="15" height="12" viewBox="0 0 15 12" fill="none" xmlns="http://www.w3.org/2000/svg">
<path d="M14.9689 0.015564H2.11094C2.11094 0.015564 2.13426 0.0194475 2.23143 0.0699329C2.33638 0.124302 2.47242 0.198088 2.55405 0.240807C2.72119 0.326244 2.88055 0.434981 2.9855 0.601972C3.03214 0.667991 3.09822 0.803913 3.05546 0.893234C3.00882 1.00586 2.9855 1.18838 2.87278 1.2311C2.73673 1.301 2.55793 1.301 2.39857 1.2777C2.30917 1.2777 2.21977 1.2544 2.12649 1.2311C2.46465 1.36702 2.78338 1.52624 3.00882 1.84081C3.03214 1.88741 3.12154 1.90683 3.21094 1.90683C3.23426 1.90683 3.23426 1.95343 3.23426 1.97285C3.18762 2.01945 3.14486 2.04275 3.16818 2.10877H3.23426C3.34698 2.06217 3.32366 1.83692 3.48302 1.90683C3.59574 1.97285 3.64239 2.13207 3.57242 2.24469C3.48302 2.33401 3.39362 2.40391 3.30034 2.46993C3.27702 2.51653 3.27702 2.58255 3.30034 2.62916C3.36642 2.71848 3.38974 2.8078 3.41306 2.901C3.48302 3.06022 3.50246 3.23886 3.57242 3.39809C3.66182 3.73595 3.75122 4.07382 3.73179 4.41556C3.73179 4.5942 3.64239 4.75343 3.70846 4.93595C3.75511 5.11459 3.86783 5.25052 3.95723 5.40974C4.04663 5.54566 4.13603 5.63498 4.20599 5.7709C4.34203 5.99615 4.5908 6.22139 4.47808 6.49323C4.412 6.65246 4.16324 6.62916 4.00387 6.71848C3.86783 6.8311 3.98055 7.01362 4.05051 7.12624C4.16324 7.32819 3.91447 7.46411 3.75511 7.53401C3.80175 7.60391 3.89115 7.58061 3.91447 7.62333C3.93779 7.73595 4.05051 7.80197 3.98055 7.91848C3.89115 8.0544 3.61907 8.12042 3.75511 8.32624C3.84451 8.48547 3.7862 8.66022 3.73179 8.82333C3.66571 9.02527 3.48302 9.11459 3.32366 9.16119C3.18762 9.2078 3.02825 9.2078 2.8961 9.1845C2.84945 9.16119 2.8067 9.13789 2.76006 9.13789C2.37525 9.09129 1.99044 8.98255 1.60952 8.98255C1.4968 9.00586 1.38408 9.02527 1.29468 9.07187C1.19362 9.14566 1.10034 9.22721 1.0226 9.31265C1.0226 9.31265 1.0226 9.31265 1.01871 9.31653C1.00316 9.33595 0.98373 9.35149 0.968182 9.3709C0.960408 9.38255 0.948748 9.39421 0.940974 9.40586C0.9332 9.41362 0.929313 9.42139 0.921539 9.42916C0.855461 9.51071 0.797157 9.60003 0.74274 9.68935C0.738854 9.69712 0.734967 9.701 0.73108 9.70488C0.727193 9.71653 0.719419 9.7243 0.711645 9.73595C0.637793 9.87187 0.583376 10.0117 0.54062 10.1515C0.385143 10.668 0.455108 11.1107 0.563942 11.2194C0.595037 11.2505 1.31023 11.4719 1.80776 11.6932C2.04097 11.7981 2.20422 11.8758 2.34027 11.9612H14.965V0.015564H14.9689Z" fill="#E1000F"/>
</svg>
