<svg width="16" height="12" viewBox="0 0 16 12" fill="none" xmlns="http://www.w3.org/2000/svg">
<path fill-rule="evenodd" clip-rule="evenodd" d="M13.6898 10.5476C13.818 10.4194 13.9463 10.2835 14.0746 10.1437H14.0707C14.3117 9.87184 14.5449 9.61165 14.8247 9.37476C14.9102 9.29709 14.9919 9.23107 15.0696 9.1767C15.081 9.16529 15.0869 9.1483 15.0926 9.13164C15.0985 9.11428 15.1044 9.09729 15.1163 9.08738C15.0608 9.10838 15.0167 9.14158 14.9723 9.17499C14.9264 9.20953 14.8801 9.2443 14.8208 9.26602C14.7975 9.26602 14.7742 9.24272 14.7975 9.21942C14.8792 9.16117 14.9608 9.09903 15.0385 9.03689H15.023C14.9996 9.03689 14.9996 9.01359 14.9996 8.99029C14.7103 8.94464 14.488 9.14121 14.2891 9.31717L14.2767 9.32816C14.2457 9.34363 14.2165 9.32828 14.1935 9.31622C14.1818 9.31012 14.1718 9.30485 14.164 9.30485C13.9879 9.36348 13.8361 9.47155 13.6833 9.58034L13.6833 9.58035C13.5426 9.68055 13.401 9.78135 13.2389 9.84466V9.79806C13.1838 9.81692 13.1294 9.8415 13.0748 9.86615C12.9946 9.9024 12.914 9.93879 12.8307 9.95728C12.6786 9.99236 12.5375 9.98783 12.4008 9.98345C12.3558 9.98201 12.3114 9.98058 12.2671 9.98058C12.0182 10.0051 11.7724 10.0581 11.5269 10.111L11.5269 10.111L11.447 10.1282C11.4431 10.1301 11.4392 10.1311 11.4353 10.132L11.4297 10.1336C11.4277 10.1342 11.4257 10.1349 11.4237 10.1359C11.276 10.1748 11.1399 10.2291 11.0039 10.3068L10.9883 10.3146C10.983 10.3217 10.9777 10.328 10.9727 10.3338L10.9727 10.3339C10.9668 10.3408 10.9615 10.3471 10.9572 10.3534C10.9106 10.4078 10.8678 10.4544 10.8018 10.4893C10.7042 10.5381 10.6198 10.6133 10.5368 10.6872C10.5008 10.7193 10.4651 10.7512 10.4286 10.7806C10.4208 10.7883 10.4053 10.7922 10.3936 10.7922L10.3936 10.7923C10.2731 10.9088 10.1526 11.0253 10.0283 11.1379C10.0205 11.1456 9.98551 11.1495 9.9583 11.1456C9.9583 11.1456 9.96219 11.1456 9.96219 11.1417L9.97385 11.1184L10.0322 11.0252C10.0438 11.0078 10.0545 10.9903 10.0652 10.9728L10.0652 10.9728L10.0652 10.9728C10.0759 10.9553 10.0866 10.9379 10.0982 10.9204L10.0982 10.9204L10.0982 10.9204L10.0983 10.9204L10.0983 10.9204L10.0983 10.9204L10.0983 10.9204C10.1294 10.8738 10.1604 10.8272 10.1954 10.7845C10.2032 10.7728 10.2032 10.7612 10.1954 10.7534C10.1876 10.7456 10.176 10.7417 10.1643 10.7417C10.277 10.633 10.4092 10.5398 10.5452 10.4583V10.4544C10.5297 10.4583 10.5064 10.4466 10.518 10.4311C10.5294 10.4168 10.5387 10.4005 10.5475 10.3851L10.5569 10.3689C10.5588 10.365 10.5598 10.3621 10.5608 10.3592C10.5617 10.3563 10.5627 10.3534 10.5647 10.3495C10.5627 10.3456 10.5598 10.3427 10.5569 10.3398C10.554 10.3369 10.5511 10.334 10.5491 10.3301L10.5255 10.3455C10.4974 10.3639 10.4684 10.3827 10.4442 10.4039C10.427 10.4186 10.411 10.4387 10.3946 10.4593C10.3589 10.5041 10.3213 10.5515 10.2654 10.5515C10.2615 10.5515 10.242 10.5515 10.2304 10.5476C10.2187 10.5476 10.211 10.5437 10.2071 10.5398L10.2071 10.538C10.2071 10.5372 10.2072 10.5367 10.2076 10.5364C10.208 10.5359 10.209 10.5359 10.211 10.5359C10.211 10.5359 10.2148 10.532 10.2148 10.5282C10.2148 10.5282 10.2148 10.5243 10.2187 10.5243C10.2207 10.5204 10.2226 10.5175 10.2246 10.5146C10.2265 10.5117 10.2284 10.5087 10.2304 10.5049C10.2323 10.501 10.2343 10.4981 10.2362 10.4951L10.2384 10.4919C10.2396 10.49 10.2408 10.4879 10.242 10.4854C10.244 10.4835 10.245 10.4806 10.2459 10.4777C10.2469 10.4748 10.2479 10.4718 10.2498 10.4699L10.2542 10.4619C10.2581 10.4551 10.2627 10.447 10.2654 10.4388C10.2673 10.435 10.2693 10.432 10.2712 10.4291C10.2731 10.4262 10.2751 10.4233 10.277 10.4194C10.2829 10.4116 10.2877 10.4029 10.2926 10.3942C10.2974 10.3854 10.3023 10.3767 10.3081 10.3689C10.312 10.3612 10.3159 10.3534 10.3237 10.3456C10.3276 10.3379 10.3314 10.3311 10.3353 10.3243L10.3353 10.3243L10.3354 10.3242C10.3392 10.3175 10.3431 10.3107 10.347 10.3029C10.3587 10.2835 10.347 10.268 10.3314 10.2641C10.3742 10.2097 10.4247 10.1631 10.4869 10.1282H10.4792C10.533 10.1013 10.5883 10.0698 10.6433 10.0385L10.6433 10.0385C10.6757 10.0201 10.7079 10.0017 10.7396 9.98447C10.7512 9.97282 10.7629 9.96116 10.7784 9.9534C10.6502 9.99612 10.5336 10.0544 10.4208 10.132C10.4208 10.132 10.3898 10.1437 10.382 10.1515C10.382 10.1515 10.3587 10.1592 10.3276 10.132C10.3237 10.1282 10.3237 10.1243 10.3237 10.1165C10.3372 10.0895 10.365 10.0716 10.3952 10.0523C10.417 10.0383 10.4401 10.0235 10.4597 10.0039C10.483 10.0039 10.5025 10.0039 10.5025 10.0272C10.9501 9.67851 11.5021 9.59785 12.056 9.51691C12.3966 9.46713 12.7379 9.41725 13.0562 9.30485C13.0892 9.28156 13.1232 9.25924 13.1572 9.23692L13.1572 9.23689C13.1913 9.21456 13.2253 9.19223 13.2583 9.16893C13.315 9.14549 13.3658 9.10536 13.4196 9.06285L13.4196 9.06284C13.4728 9.02083 13.5288 8.9765 13.5965 8.94369C13.7753 8.80777 13.9113 8.65243 13.9813 8.4233C13.9813 8.4 13.958 8.3767 13.958 8.3767C13.6625 8.69126 13.3244 8.93981 12.9629 9.12233C12.6182 9.30299 12.2489 9.32976 11.8833 9.35627C11.7459 9.36622 11.609 9.37614 11.4742 9.39417C11.4975 9.34757 11.5442 9.34757 11.5869 9.34757C11.5869 9.29243 11.6135 9.2687 11.6477 9.23827C11.6568 9.23012 11.6665 9.22149 11.6763 9.21165H11.7424C11.7541 9.21165 11.7599 9.2 11.7657 9.18835C11.7716 9.1767 11.7774 9.16505 11.789 9.16505C11.8357 9.16505 11.9018 9.14175 11.8784 9.14175C11.8428 9.09623 11.791 9.11425 11.7338 9.13413C11.6788 9.15327 11.6189 9.17412 11.5636 9.14175C11.5842 9.11935 11.5903 9.09246 11.596 9.06799C11.602 9.04155 11.6075 9.01793 11.6297 9.00583H11.7191C11.7191 8.95922 11.7657 8.9165 11.7657 8.9165C11.9685 8.79542 12.1643 8.6897 12.3564 8.58593L12.3564 8.58593L12.3564 8.58593L12.3564 8.58592L12.3565 8.58589L12.3565 8.58586L12.3566 8.58583L12.3566 8.58581L12.3567 8.58578C12.4849 8.51654 12.6115 8.44818 12.7375 8.3767C12.712 8.3767 12.6893 8.38711 12.6674 8.39722C12.6325 8.4133 12.5992 8.42862 12.5587 8.4C12.582 8.4 12.582 8.3835 12.582 8.36699C12.582 8.35048 12.582 8.33398 12.6053 8.33398C12.7511 8.29528 12.8809 8.23256 13.0135 8.16851L13.0135 8.1685C13.1071 8.12328 13.202 8.0774 13.3049 8.03883C13.2744 8.03883 13.2461 8.047 13.2185 8.05496C13.1655 8.07029 13.115 8.08484 13.0562 8.03883C13.0716 8.03112 13.0841 8.02127 13.0964 8.01156C13.1212 7.99193 13.1454 7.97282 13.1922 7.97282V7.9068C13.1922 7.88349 13.2155 7.8835 13.2389 7.8835C13.2155 7.8835 13.1922 7.86019 13.1922 7.86019C13.2046 7.83552 13.2289 7.83044 13.256 7.82479C13.2801 7.81976 13.3063 7.81428 13.3283 7.79417C13.3049 7.79417 13.2622 7.79418 13.2622 7.77087C13.3283 7.68155 13.441 7.65825 13.5537 7.63495C13.542 7.61165 13.5197 7.61165 13.5003 7.61165C13.4808 7.61165 13.4643 7.61165 13.4643 7.58835C13.4643 7.56505 13.4876 7.56505 13.511 7.56505H13.4643C13.4277 7.54676 13.4342 7.51413 13.4387 7.49154C13.4399 7.48535 13.441 7.47991 13.441 7.47573C13.5323 7.36886 13.5623 7.24275 13.5922 7.11735L13.5922 7.11735C13.6068 7.05592 13.6214 6.99466 13.6431 6.93592C13.6198 6.93592 13.5965 6.93592 13.5965 6.91262C13.3779 7.15357 13.0315 7.24488 12.7024 7.33162L12.6714 7.33981H12.5587C12.4459 7.38641 12.2866 7.38641 12.1739 7.3165C12.1203 7.28856 12.082 7.25364 12.0407 7.21593C12.0132 7.19074 11.9842 7.1643 11.9484 7.13786C11.7657 7.02524 11.5869 6.93592 11.3848 6.86602C10.8212 6.68738 10.2343 6.59417 9.64735 6.61748C9.81125 6.52792 9.98527 6.49231 10.1616 6.45623L10.1617 6.45622L10.1617 6.45622L10.1617 6.45622L10.1617 6.45622L10.1617 6.45621C10.253 6.43753 10.3449 6.41872 10.4364 6.39223C10.4941 6.37534 10.5513 6.35791 10.6082 6.34059C10.9306 6.24241 11.2433 6.14718 11.5869 6.16699C11.5419 6.15113 11.4844 6.15686 11.4313 6.16214C11.4065 6.16461 11.3826 6.16699 11.3615 6.16699C11.1017 6.14776 10.8392 6.20523 10.5654 6.26519C10.5074 6.27788 10.4489 6.2907 10.3898 6.30291C10.2825 6.32508 10.1805 6.35692 10.0784 6.38881C9.96583 6.42396 9.85309 6.45916 9.73286 6.48155C9.68072 6.49942 9.63885 6.52983 9.59807 6.55946C9.53246 6.60713 9.46966 6.65275 9.37138 6.64078V6.57087C9.59682 6.29903 9.8689 6.03107 10.2304 6.00777C10.5798 5.95124 10.9093 5.99151 11.253 6.0335L11.253 6.03351L11.2531 6.03353C11.3108 6.04057 11.3689 6.04767 11.4276 6.05437C11.7093 6.07689 11.9729 6.13932 12.257 6.20659L12.2866 6.21359C12.3488 6.21359 12.3837 6.26797 12.4176 6.32064C12.4451 6.36343 12.4719 6.40509 12.512 6.41553C12.5674 6.43449 12.6227 6.43802 12.678 6.44156C12.7587 6.44671 12.8394 6.45187 12.9201 6.50485C12.9201 6.48918 12.9175 6.47394 12.9149 6.45885L12.9149 6.45884C12.9097 6.42907 12.9047 6.39985 12.9201 6.36893C12.9703 6.31883 13.0278 6.33227 13.0844 6.3455C13.1287 6.35586 13.1724 6.36609 13.2117 6.34563C13.3349 6.26965 13.2193 6.153 13.1036 6.03625L13.1036 6.03624C13.0478 5.97995 12.992 5.92364 12.9629 5.87184C12.9629 5.84854 12.9862 5.82524 12.9862 5.82524C13.0373 5.8707 13.0848 5.91774 13.132 5.96437C13.25 6.08108 13.3654 6.19526 13.5265 6.27573C13.6392 6.32233 13.9113 6.38835 13.8647 6.25243C13.7848 6.07639 13.6484 5.92373 13.5108 5.76961L13.5107 5.76961C13.454 5.70613 13.3971 5.64241 13.3438 5.5767V5.48738C13.3084 5.48738 13.2999 5.47393 13.2893 5.45726C13.286 5.45198 13.2824 5.44638 13.2777 5.44078V5.35146C13.2208 5.32175 13.208 5.2747 13.1952 5.22738C13.1878 5.20046 13.1805 5.17345 13.165 5.14951C13.1261 5.0868 13.1233 5.00963 13.1204 4.93008C13.1181 4.86678 13.1157 4.80198 13.0951 4.74175C13.0484 4.60582 13.029 4.4932 13.0057 4.35728C12.9804 4.21827 12.9525 4.08535 12.9253 3.95522L12.9252 3.95514L12.9252 3.95509L12.9252 3.95507L12.9252 3.95506L12.9252 3.95504L12.9252 3.95503C12.8771 3.72532 12.8308 3.5043 12.8035 3.27379C12.7676 2.94429 12.9351 2.66562 13.1063 2.38075L13.1063 2.38072L13.1064 2.3807C13.1571 2.29626 13.2082 2.21128 13.2544 2.12427C13.4138 1.85243 13.5926 1.58447 13.888 1.40194C13.9524 1.1368 14.1278 0.915998 14.3023 0.696285L14.3155 0.679612C14.4878 0.466394 14.7754 0.336047 14.9874 0.239983L15.0113 0.229126C15.3261 0.0893204 15.6099 0 15.6138 0H0V11.9573H11.0777C11.374 11.7439 11.6684 11.6093 12.0189 11.4491L12.019 11.4491C12.1789 11.376 12.3505 11.2976 12.5392 11.2039C12.5792 11.1839 12.6267 11.1607 12.6795 11.1349C12.9959 10.9803 13.4999 10.734 13.6898 10.5476ZM10.2148 8.93204C10.2034 8.93204 10.1894 8.93344 10.1751 8.93486C10.1312 8.93926 10.0845 8.94392 10.1021 8.90874C10.1184 8.82989 10.1996 8.80624 10.2788 8.78316C10.3127 8.77327 10.3462 8.76349 10.3742 8.74951C10.3812 8.74603 10.3886 8.74211 10.3963 8.73802L10.3963 8.73801C10.4402 8.71481 10.4939 8.6864 10.5336 8.70291C10.5603 8.74076 10.5934 8.75053 10.6256 8.76002C10.6496 8.76709 10.673 8.774 10.6929 8.79223C10.6088 8.87625 10.5107 8.88453 10.4112 8.89293C10.3451 8.89851 10.2784 8.90414 10.2148 8.93204ZM6.73604 8.38835C6.73604 8.41165 6.75936 8.43495 6.75936 8.43495C7.30353 7.82524 7.79717 7.30485 8.49682 6.87379C8.51555 6.86599 8.50858 6.87573 8.49932 6.88866C8.48553 6.90794 8.46664 6.93433 8.52014 6.92039C8.75177 6.86793 8.85579 6.67083 8.957 6.47907L8.95701 6.47906C8.98318 6.42948 9.00915 6.38025 9.0371 6.33398C9.14325 6.1625 9.294 6.05263 9.44592 5.94192C9.55546 5.86208 9.66561 5.78181 9.76007 5.67767C9.76007 5.70097 9.76007 5.72427 9.73675 5.74757C9.76007 5.77087 9.78339 5.77087 9.80671 5.77087C9.84772 5.74015 9.89248 5.72743 9.93538 5.71524C9.99008 5.6997 10.0418 5.68501 10.0788 5.63495C9.9 5.56505 9.67067 5.54175 9.49187 5.61165C9.01767 5.83689 8.61343 6.19806 8.22862 6.60582C7.99541 6.85049 7.75442 7.07961 7.45901 7.23883C7.25689 7.64272 7.03145 8.00388 6.73604 8.38835ZM8.63286 6.94369C8.62067 6.96805 8.60848 6.98074 8.59684 6.99285L8.59684 6.99285L8.59682 6.99287C8.58621 7.00391 8.57606 7.01449 8.56678 7.03301C8.54346 7.07961 8.52014 7.09903 8.47739 7.12233C8.45406 7.12233 8.43074 7.12233 8.43074 7.09903C8.45406 7.00971 8.52014 6.92039 8.60954 6.89709C8.63286 6.90097 8.63286 6.92427 8.63286 6.94369ZM9.62791 10.3922C9.64735 10.3728 9.67067 10.3495 9.68233 10.3262C9.70177 10.2796 9.58127 10.2913 9.56184 10.3029C9.5442 10.317 9.53297 10.3311 9.51942 10.3481L9.51519 10.3534C9.49898 10.3719 9.48 10.389 9.46074 10.4064L9.46073 10.4065C9.44767 10.4182 9.43447 10.4302 9.42191 10.4427C9.36749 10.4971 9.31307 10.5515 9.25477 10.6019C9.2159 10.6369 9.34028 10.6524 9.36749 10.6291C9.39859 10.6058 9.42579 10.5786 9.453 10.5515C9.46337 10.5515 9.47373 10.5497 9.48064 10.5486C9.4841 10.548 9.48669 10.5476 9.48799 10.5476C9.55242 10.5261 9.60037 10.4816 9.64702 10.4383L9.65901 10.4272C9.67456 10.4117 9.65512 10.3961 9.62791 10.3922ZM9.27809 10.1398C9.27421 10.1398 9.27421 10.1398 9.27421 10.1437C9.25037 10.1599 9.22684 10.1765 9.20336 10.193L9.20334 10.193C9.14258 10.2357 9.08215 10.2782 9.01767 10.3146C8.95602 10.3491 8.8928 10.3789 8.82901 10.4089L8.82899 10.4089C8.79224 10.4263 8.75531 10.4437 8.71838 10.4621C8.71838 10.4621 8.71838 10.4583 8.71449 10.4583C8.70671 10.4466 8.69117 10.4427 8.67562 10.4505C8.59011 10.4971 8.51625 10.5592 8.45018 10.6252C8.43852 10.633 8.42686 10.6447 8.41908 10.6563L8.38799 10.6874L8.3841 10.6913V10.6951C8.36855 10.7107 8.353 10.7262 8.33357 10.7495C8.32953 10.7536 8.32642 10.7576 8.32343 10.7615C8.31781 10.7688 8.31263 10.7755 8.30247 10.7806C8.28693 10.7883 8.24806 10.7883 8.25194 10.765V10.7612C8.24028 10.7689 8.22474 10.7767 8.21307 10.7806C8.20724 10.7845 8.20142 10.7874 8.19559 10.7903L8.19558 10.7903C8.18975 10.7932 8.18392 10.7961 8.17809 10.8C8.1742 10.7961 8.16643 10.7961 8.16254 10.7961C8.15866 10.7961 8.15088 10.7961 8.147 10.8C8.13793 10.8078 8.12886 10.8151 8.11979 10.8224C8.10165 10.8371 8.08351 10.8518 8.06537 10.8699C8.01873 10.9126 7.97597 10.9592 7.93322 11.0097C7.93322 11.0097 7.93322 11.0136 7.92933 11.0136C7.92933 11.0155 7.92836 11.0165 7.92739 11.0175C7.92641 11.0184 7.92544 11.0194 7.92544 11.0214L7.91767 11.0291C7.91618 11.0306 7.91527 11.0321 7.91448 11.0334C7.91321 11.0354 7.9123 11.0369 7.90989 11.0369L7.90601 11.0408C7.90212 11.0485 7.89823 11.0563 7.89046 11.0641C7.88657 11.068 7.8788 11.0718 7.87103 11.0718C7.86714 11.068 7.86325 11.0641 7.86325 11.0602C7.86131 11.0583 7.86034 11.0563 7.85936 11.0544C7.85839 11.0524 7.85742 11.0505 7.85548 11.0485C7.85159 11.0427 7.84867 11.0369 7.84576 11.0311C7.84284 11.0252 7.83993 11.0194 7.83604 11.0136V11.0097C7.83604 11.0078 7.83507 11.0058 7.8341 11.0039C7.83313 11.0019 7.83216 11 7.83216 10.9981L7.90212 10.9165L7.90601 10.9126C7.90989 10.9087 7.91378 10.9039 7.91767 10.899C7.92155 10.8942 7.92544 10.8893 7.92933 10.8854C7.93515 10.8777 7.94195 10.8699 7.94875 10.8622L7.94876 10.8621C7.95557 10.8544 7.96237 10.8466 7.9682 10.8388C7.97014 10.835 7.97208 10.832 7.97403 10.8291C7.97597 10.8262 7.97792 10.8233 7.97986 10.8194C8.00318 10.7883 8.0265 10.7573 8.04982 10.7223V10.7184C8.05371 10.7146 8.0576 10.7107 8.0576 10.7029C8.06926 10.6874 8.08092 10.6718 8.08869 10.6563L8.11201 10.6097V10.6058L8.1159 10.6019C8.1159 10.6 8.11687 10.599 8.11784 10.5981C8.11882 10.5971 8.11979 10.5961 8.11979 10.5942C8.12367 10.5845 8.12756 10.5757 8.13144 10.567C8.13533 10.5583 8.13922 10.5495 8.14311 10.5398V10.5359L8.147 10.5204C8.14894 10.5165 8.14991 10.5126 8.15088 10.5087C8.15186 10.5049 8.15283 10.501 8.15477 10.4971V10.4932C8.15671 10.4874 8.15769 10.4816 8.15866 10.4757C8.15963 10.4699 8.1606 10.4641 8.16254 10.4583C8.16254 10.4544 8.16254 10.4466 8.15866 10.4427C8.18198 10.4 8.21307 10.3612 8.24806 10.3223C8.24611 10.3223 8.24417 10.3233 8.24223 10.3243C8.24028 10.3252 8.23834 10.3262 8.2364 10.3262C8.2191 10.337 8.20421 10.3514 8.18905 10.3661L8.18904 10.3661C8.17694 10.3778 8.16468 10.3897 8.15088 10.4C8.12756 10.4194 8.08092 10.3883 8.11201 10.365C8.13145 10.3495 8.147 10.334 8.16254 10.3184C8.16254 10.3184 8.16254 10.3146 8.16643 10.3146C8.18193 10.3006 8.1968 10.2848 8.2118 10.2689L8.21182 10.2689L8.21183 10.2689C8.23445 10.2449 8.25734 10.2206 8.28304 10.2019C8.31025 10.1825 8.32968 10.167 8.353 10.1476C8.35689 10.1437 8.36078 10.1398 8.36466 10.1398C8.38021 10.1204 8.39576 10.101 8.41519 10.0816C8.41519 10.0816 8.41908 10.0816 8.41908 10.0777C8.55256 9.94907 8.74013 9.90371 8.93158 9.85742L8.93159 9.85741C9.05233 9.82821 9.17462 9.79864 9.28587 9.74757C9.3487 9.7216 9.41878 9.73182 9.48802 9.74192C9.543 9.74994 9.59746 9.75789 9.64735 9.74757C9.71343 9.74757 9.78339 9.74757 9.84947 9.79417C9.69577 9.87547 9.54908 9.96844 9.40397 10.0604C9.36192 10.0871 9.32001 10.1136 9.27809 10.1398ZM9.76051 8.55735C9.74232 8.55943 9.73053 8.56078 9.74064 8.57087C9.80671 8.63689 9.94276 8.61359 10.036 8.56311C10.1021 8.51651 10.1721 8.5165 10.2615 8.5165C10.2848 8.5165 10.2848 8.47379 10.2848 8.45049C10.3509 8.47379 10.3975 8.47379 10.4636 8.47379C11.0039 8.36117 11.5247 8.24854 12.0223 8C11.5189 7.61362 10.8982 7.4415 10.2903 7.27292C10.1895 7.24496 10.089 7.21708 9.9894 7.18835C10.0113 7.18835 10.0332 7.19559 10.0552 7.20288C10.0997 7.2176 10.1447 7.2325 10.1915 7.18835C10.1298 7.13948 10.0612 7.13014 9.99319 7.12088C9.93691 7.11322 9.88108 7.10563 9.83004 7.07573C9.83536 7.07573 9.8417 7.07694 9.84858 7.07826C9.87187 7.08272 9.90144 7.08839 9.91943 7.05243C9.80136 6.99344 9.6833 6.97341 9.56411 6.95319C9.5028 6.94279 9.4412 6.93233 9.37915 6.9165C9.49187 6.8932 9.56184 6.80388 9.56184 6.69126C9.56184 6.66796 9.51519 6.66796 9.49187 6.66796C9.22367 6.80388 9.04099 7.05243 8.92827 7.34369C9.02989 7.40312 9.13942 7.39623 9.24677 7.38948C9.30776 7.38564 9.36805 7.38185 9.4258 7.39029C9.37483 7.43838 9.30117 7.45144 9.23037 7.464C9.20398 7.46868 9.17799 7.47328 9.15371 7.47961C9.08375 7.49515 9.01767 7.54563 9.04099 7.59223C9.05654 7.61165 9.07209 7.61942 9.09152 7.6233C9.04099 7.63883 8.99435 7.66214 8.95159 7.70485C9.01558 7.75489 9.08156 7.74523 9.14669 7.7357C9.17254 7.73192 9.19827 7.72816 9.22367 7.72816C9.22367 7.75636 9.24231 7.76594 9.26169 7.7759C9.27166 7.78103 9.28183 7.78626 9.28975 7.79417C9.17703 7.83689 9.08763 7.9301 9.06431 7.99612C9.03645 8.06339 8.98501 8.10711 8.93402 8.15044C8.89965 8.17966 8.86548 8.20869 8.83887 8.24466V8.31456C8.76378 8.38069 8.6866 8.43973 8.61049 8.49797C8.45413 8.61759 8.30223 8.73381 8.18198 8.90097C8.2053 8.90097 8.2053 8.92427 8.2053 8.94757C8.18379 8.9798 8.1532 9.00213 8.12418 9.0233C8.09026 9.04804 8.05851 9.07122 8.04594 9.1068C8.04594 9.1301 8.04594 9.1534 8.06926 9.1534C8.21189 9.10657 8.3353 9.02773 8.45628 8.95044C8.56607 8.8803 8.67387 8.81143 8.79223 8.76893C8.88895 8.74582 8.97316 8.70226 9.05532 8.65975C9.12504 8.62368 9.19328 8.58838 9.26643 8.56699C9.32279 8.55534 9.38499 8.53883 9.44718 8.52233C9.50937 8.50582 9.57156 8.48932 9.62792 8.47767C9.62792 8.50097 9.62792 8.52427 9.65124 8.52427H9.83004C9.81902 8.55068 9.7843 8.55464 9.76051 8.55735Z" fill="#000091"/>
</svg>
