<svg width="121" height="231" viewBox="0 0 121 231" fill="none" xmlns="http://www.w3.org/2000/svg">
<path d="M14.5318 39.0123C14.6147 38.0538 15.4682 37.3501 16.452 37.3501H19.7127L19.8337 37.3571C20.3497 37.417 20.7502 37.8555 20.7502 38.3876L20.7432 38.5086C20.6833 39.0246 20.2448 39.4251 19.7127 39.4251H16.6002V43.5751H19.7127L19.8337 43.5821C20.3497 43.642 20.7502 44.0805 20.7502 44.6126C20.7502 45.1856 20.2857 45.6501 19.7127 45.6501H16.452L16.2978 45.6443C15.3295 45.5715 14.5252 44.8185 14.5252 43.8345V39.1657L14.5318 39.0123Z" fill="#6B48F4"/>
<path d="M29.0436 39.0123C28.9607 38.0538 28.1072 37.3501 27.1234 37.3501H23.8627L23.7417 37.3571C23.2257 37.417 22.8252 37.8555 22.8252 38.3876L22.8322 38.5086C22.8921 39.0246 23.3306 39.4251 23.8627 39.4251H26.9752V43.5751H23.8627L23.7417 43.5821C23.2257 43.642 22.8252 44.0805 22.8252 44.6126C22.8252 45.1856 23.2897 45.6501 23.8627 45.6501H27.1234L27.2776 45.6443C28.2459 45.5715 29.0502 44.8185 29.0502 43.8345V39.1657L29.0436 39.0123Z" fill="#6B48F4"/>
<path d="M66.5484 37.3501C67.5322 37.3501 68.3857 38.0538 68.4686 39.0123L68.4752 39.1657V43.8345C68.4752 44.8185 67.6709 45.5715 66.7026 45.6443L66.5484 45.6501H63.2877C62.7147 45.6501 62.2502 45.1856 62.2502 44.6126C62.2502 44.0805 62.6507 43.642 63.1667 43.5821L63.2877 43.5751H66.4002V39.4251H63.2877C62.7556 39.4251 62.3171 39.0246 62.2572 38.5086L62.2502 38.3876C62.2502 37.8555 62.6507 37.417 63.1667 37.3571L63.2877 37.3501H66.5484Z" fill="#6B48F4"/>
<path d="M53.9568 39.0123C54.0397 38.0538 54.8932 37.3501 55.877 37.3501H59.1377L59.2587 37.3571C59.7747 37.417 60.1752 37.8555 60.1752 38.3876L60.1682 38.5086C60.1083 39.0246 59.6698 39.4251 59.1377 39.4251H56.0252V43.5751H59.1377L59.2587 43.5821C59.7747 43.642 60.1752 44.0805 60.1752 44.6126C60.1752 45.1856 59.7107 45.6501 59.1377 45.6501H55.877L55.7228 45.6443C54.7545 45.5715 53.9502 44.8185 53.9502 43.8345V39.1657L53.9568 39.0123Z" fill="#6B48F4"/>
<path fill-rule="evenodd" clip-rule="evenodd" d="M14.5252 49.8001C13.3792 49.8001 12.4502 50.7291 12.4502 51.8751V58.1001C12.4502 59.2461 13.3792 60.1751 14.5252 60.1751H18.6752C19.8212 60.1751 20.7502 59.2461 20.7502 58.1001V51.8751C20.7502 50.7291 19.8212 49.8001 18.6752 49.8001H14.5252ZM18.6752 58.1001V51.8751H14.5252V58.1001H18.6752Z" fill="#6B48F4"/>
<path fill-rule="evenodd" clip-rule="evenodd" d="M24.9002 49.8001C23.7542 49.8001 22.8252 50.7291 22.8252 51.8751V58.1001C22.8252 59.2461 23.7542 60.1751 24.9002 60.1751H29.0502C30.1962 60.1751 31.1252 59.2461 31.1252 58.1001V51.8751C31.1252 50.7291 30.1962 49.8001 29.0502 49.8001H24.9002ZM29.0502 58.1001V51.8751H24.9002V58.1001H29.0502Z" fill="#6B48F4"/>
<path fill-rule="evenodd" clip-rule="evenodd" d="M53.9502 49.8001C52.8042 49.8001 51.8752 50.7291 51.8752 51.8751V58.1001C51.8752 59.2461 52.8042 60.1751 53.9502 60.1751H58.1002C59.2462 60.1751 60.1752 59.2461 60.1752 58.1001V51.8751C60.1752 50.7291 59.2462 49.8001 58.1002 49.8001H53.9502ZM58.1002 58.1001V51.8751H53.9502V58.1001H58.1002Z" fill="#6B48F4"/>
<path fill-rule="evenodd" clip-rule="evenodd" d="M64.3252 49.8001C63.1792 49.8001 62.2502 50.7291 62.2502 51.8751V58.1001C62.2502 59.2461 63.1792 60.1751 64.3252 60.1751H68.4752C69.6212 60.1751 70.5502 59.2461 70.5502 58.1001V51.8751C70.5502 50.7291 69.6212 49.8001 68.4752 49.8001H64.3252ZM68.4752 58.1001V51.8751H64.3252V58.1001H68.4752Z" fill="#6B48F4"/>
<path d="M37.0459 12.7538C36.6408 12.3487 35.9838 12.3487 35.5787 12.7538L21.0537 27.2788L20.9674 27.3766C20.6509 27.7836 20.6797 28.3721 21.0537 28.7461C21.4588 29.1512 22.1158 29.1512 22.5209 28.7461L37.0459 14.2211L37.1322 14.1233C37.4487 13.7163 37.4199 13.1278 37.0459 12.7538Z" fill="#6B48F4"/>
<path d="M42.1066 14.7208C41.7091 14.4336 41.1549 14.4623 40.7887 14.8069L29.6911 25.2517L29.6019 25.3468C29.2733 25.7441 29.2842 26.3332 29.6467 26.7183L29.7418 26.8075C30.139 27.1362 30.7281 27.1253 31.1133 26.7628L41.4988 16.9869L58.1266 32.636L58.2594 32.7507C58.6248 33.0406 59.0789 33.1999 59.5487 33.1999H69.5123L69.6333 33.193C70.1493 33.133 70.5498 32.6945 70.5498 32.1624C70.5498 31.5895 70.0853 31.1249 69.5123 31.1249H59.5487L42.2109 14.8069L42.1066 14.7208Z" fill="#6B48F4"/>
<path d="M73.6623 31.1249C73.1302 31.1249 72.6917 31.5255 72.6318 32.0415L72.6248 32.1624V66.3999H63.2873C62.7552 66.3999 62.3167 66.8005 62.2568 67.3164L62.2498 67.4374C62.2498 67.9695 62.6503 68.408 63.1663 68.468L63.2873 68.4749H73.6623C74.1944 68.4749 74.6329 68.0744 74.6928 67.5584L74.6998 67.4374V32.1624C74.6998 31.5895 74.2353 31.1249 73.6623 31.1249Z" fill="#6B48F4"/>
<path d="M21.7873 66.3999C22.3603 66.3999 22.8248 66.8645 22.8248 67.4374C22.8248 67.9695 22.4243 68.408 21.9083 68.468L21.7873 68.4749H13.4873C12.9143 68.4749 12.4498 68.0104 12.4498 67.4374C12.4498 66.9054 12.8503 66.4669 13.3663 66.4069L13.4873 66.3999H21.7873Z" fill="#6B48F4"/>
<path d="M10.3748 67.4374C10.3748 68.0104 9.9103 68.4749 9.3373 68.4749C8.76431 68.4749 8.2998 68.0104 8.2998 67.4374C8.2998 66.8645 8.76431 66.3999 9.3373 66.3999C9.9103 66.3999 10.3748 66.8645 10.3748 67.4374Z" fill="#6B48F4"/>
<path fill-rule="evenodd" clip-rule="evenodd" d="M53.9498 63.2874C53.9498 62.7145 53.4853 62.2499 52.9123 62.2499H49.7998V46.6874L49.7928 46.5665C49.7329 46.0505 49.2944 45.6499 48.7623 45.6499H34.2373L34.1163 45.6569C33.6003 45.7169 33.1998 46.1554 33.1998 46.6874V62.2499H30.0873L29.9663 62.2569C29.4503 62.3169 29.0498 62.7554 29.0498 63.2874C29.0498 63.8604 29.5143 64.3249 30.0873 64.3249H52.9123L53.0333 64.318C53.5493 64.258 53.9498 63.8195 53.9498 63.2874ZM42.5373 52.9124V62.2499H47.7248V47.7239H35.2748V62.2499H40.4623V52.9124C40.4623 52.3395 40.9268 51.8749 41.4998 51.8749C42.0319 51.8749 42.4704 52.2755 42.5303 52.7915L42.5373 52.9124Z" fill="#6B48F4"/>
<path d="M42.5373 31.1249C43.1103 31.1249 43.5748 31.5895 43.5748 32.1624C43.5748 32.6945 43.1743 33.133 42.6583 33.193L42.5373 33.1999H40.4623C39.9302 33.1999 39.4917 32.7994 39.4318 32.2834C39.4272 32.2438 39.4248 32.2034 39.4248 32.1624V30.0874C39.4248 29.5145 39.8893 29.0499 40.4623 29.0499C40.9944 29.0499 41.4329 29.4505 41.4928 29.9665L41.4998 30.0874V31.1249H42.5373Z" fill="#6B48F4"/>
<path fill-rule="evenodd" clip-rule="evenodd" d="M35.2748 31.1249C35.2748 27.687 38.0618 24.9 41.4998 24.9C44.9378 24.9 47.7248 27.687 47.7248 31.1249C47.7248 34.5629 44.9378 37.3499 41.4998 37.3499C38.0618 37.3499 35.2748 34.5629 35.2748 31.1249ZM41.4998 26.9749C43.7918 26.9749 45.6498 28.833 45.6498 31.1249C45.6498 33.4169 43.7918 35.2749 41.4998 35.2749C39.2078 35.2749 37.3498 33.4169 37.3498 31.1249C37.3498 28.833 39.2078 26.9749 41.4998 26.9749Z" fill="#6B48F4"/>
<path d="M47.7248 42.5374C47.7248 41.9645 47.2603 41.4999 46.6873 41.4999H36.3123L36.1913 41.5069C35.6753 41.5669 35.2748 42.0054 35.2748 42.5374C35.2748 43.1104 35.7393 43.5749 36.3123 43.5749H46.6873L46.8083 43.568C47.3243 43.508 47.7248 43.0695 47.7248 42.5374Z" fill="#6B48F4"/>
<path d="M58.0998 67.4374C58.0998 66.8645 57.6353 66.3999 57.0623 66.3999H25.9373L25.8163 66.4069C25.3003 66.4669 24.8998 66.9054 24.8998 67.4374C24.8998 68.0104 25.3643 68.4749 25.9373 68.4749H57.0623L57.1833 68.468C57.6993 68.408 58.0998 67.9695 58.0998 67.4374Z" fill="#6B48F4"/>
<path d="M25.2037 29.3538C25.6088 28.9487 26.2658 28.9487 26.6709 29.3538C27.0449 29.7278 27.0737 30.3163 26.7572 30.7233L26.6709 30.8211L24.5959 32.8961C24.4338 33.0582 24.2235 33.1611 23.9987 33.191L23.8623 33.1999H10.3748V63.2874C10.3748 63.8195 9.97429 64.258 9.4583 64.318L9.3373 64.3249C8.80524 64.3249 8.36672 63.9244 8.30678 63.4084L8.2998 63.2874V32.1624C8.2998 31.6304 8.70032 31.1919 9.21631 31.1319L9.3373 31.1249H23.4307L25.2037 29.3538Z" fill="#6B48F4"/>
<path d="M69.5123 26.9749C70.0853 26.9749 70.5498 27.4395 70.5498 28.0124C70.5498 28.5445 70.1493 28.983 69.6333 29.043L69.5123 29.0499H61.2123C60.6393 29.0499 60.1748 28.5854 60.1748 28.0124C60.1748 27.4804 60.5753 27.0419 61.0913 26.9819L61.2123 26.9749H69.5123Z" fill="#6B48F4"/>
<path d="M73.6623 29.0499C74.2353 29.0499 74.6998 28.5854 74.6998 28.0124C74.6998 27.4395 74.2353 26.9749 73.6623 26.9749C73.0893 26.9749 72.6248 27.4395 72.6248 28.0124C72.6248 28.5854 73.0893 29.0499 73.6623 29.0499Z" fill="#6B48F4"/>
<path fill-rule="evenodd" clip-rule="evenodd" d="M55.8689 192.815L59.8684 183.102C60.3043 182.044 61.5094 181.542 62.5601 181.981C63.0619 182.191 63.4611 182.592 63.6708 183.097L67.7057 192.811C67.9372 193.368 67.9161 193.999 67.6479 194.54L66.0841 197.691C66.033 197.794 65.974 197.891 65.9082 197.982V201.782L67.915 207.847C67.9508 207.955 67.9686 208.069 67.9678 208.183L67.9607 208.296L66.5046 220.746C66.4482 221.229 66.0694 221.601 65.6007 221.656L65.4818 221.663H58.096C57.614 221.663 57.2025 221.327 57.0939 220.865L57.0733 220.746L56.5955 216.661C56.5289 216.092 56.9328 215.577 57.4977 215.51C58.0222 215.447 58.501 215.794 58.62 216.299L58.6409 216.418L59.0115 219.588H64.5653L65.8876 208.282L64.1359 202.988H59.4409L57.6168 208.503C57.4498 209.008 56.935 209.297 56.4303 209.191L56.3142 209.159C55.8132 208.991 55.5259 208.472 55.6315 207.964L55.6629 207.847L57.6697 201.782V197.982C57.6038 197.891 57.5449 197.794 57.4937 197.691L55.9291 194.538C55.6619 194 55.6399 193.371 55.8689 192.815ZM59.7293 198.838V200.913H63.8485V198.838H59.7293ZM60.7591 186.354L57.7713 193.61L59.3359 196.763H64.2419L65.8057 193.612L62.8187 186.42V191.575C62.8187 192.148 62.3577 192.613 61.7889 192.613C61.2608 192.613 60.8255 192.212 60.766 191.696L60.7591 191.575V186.354Z" fill="#6B48F4"/>
<path d="M48.4013 202.988C50.3432 202.988 51.4908 204.144 51.4908 206.1C51.4908 206.185 51.4804 206.269 51.46 206.352C50.9396 208.449 48.6256 209.812 44.4965 210.563L43.8295 210.677C43.6021 210.713 43.3697 210.748 43.1322 210.781L42.4048 210.874C42.281 210.889 42.156 210.903 42.0297 210.917L41.2569 210.996L40.4539 211.065L39.6206 211.125L38.757 211.175C38.6105 211.183 38.4628 211.19 38.3138 211.197L37.4047 211.233L36.4653 211.26L35.4955 211.278L33.9839 211.288C33.4152 211.288 32.9541 210.823 32.9541 210.25C32.9541 209.677 33.4152 209.213 33.9839 209.213L34.9622 209.208C35.1227 209.207 35.2818 209.205 35.4395 209.202L36.3704 209.185L37.2696 209.158L38.1372 209.123L38.973 209.08L39.7771 209.028L40.5495 208.968L41.2901 208.9C41.4108 208.888 41.5303 208.876 41.6484 208.863L42.3413 208.784C42.6798 208.742 43.0063 208.697 43.3209 208.649L43.9342 208.551L44.5156 208.445L45.065 208.331C47.5547 207.785 49.0011 207.006 49.3939 206.055L49.428 205.96L49.4212 205.838C49.3735 205.279 49.1446 205.088 48.5373 205.065L48.4013 205.063C47.3316 205.063 46.205 205.63 45.0103 206.834C44.3897 207.459 43.3478 207.063 43.2584 206.218L43.2522 206.1C43.2522 205.29 43.0268 205.063 42.2224 205.063C41.1527 205.063 40.0261 205.63 38.8314 206.834C38.4292 207.239 37.7772 207.239 37.375 206.834C36.9728 206.429 36.9728 205.772 37.375 205.366C38.9265 203.803 40.546 202.988 42.2224 202.988C43.4014 202.988 44.2876 203.414 44.802 204.186L44.8423 204.252L45.0437 204.111C46.05 203.427 47.0821 203.048 48.1371 202.994L48.4013 202.988Z" fill="#6B48F4"/>
<path d="M57.6622 160.329C57.6027 159.813 57.1675 159.413 56.6393 159.413H17.5064L17.3863 159.42C16.8741 159.48 16.4766 159.918 16.4766 160.45V216.475L16.4835 216.596C16.543 217.112 16.9783 217.513 17.5064 217.513H50.4605L50.5806 217.506C51.0927 217.446 51.4903 217.007 51.4903 216.475L51.4833 216.354C51.4238 215.838 50.9886 215.438 50.4605 215.438H18.5362V161.488H55.6095V181.2L55.6165 181.321C55.6759 181.837 56.1112 182.238 56.6393 182.238C57.2081 182.238 57.6692 181.773 57.6692 181.2V160.45L57.6622 160.329Z" fill="#6B48F4"/>
<path d="M41.1921 166.675C41.1921 166.102 40.7311 165.638 40.1623 165.638H23.6853L23.5652 165.645C23.053 165.705 22.6555 166.143 22.6555 166.675C22.6555 167.248 23.1165 167.713 23.6853 167.713H40.1623L40.2824 167.706C40.7946 167.646 41.1921 167.207 41.1921 166.675Z" fill="#6B48F4"/>
<path d="M50.4605 171.863C51.0292 171.863 51.4903 172.327 51.4903 172.9C51.4903 173.432 51.0927 173.871 50.5806 173.931L50.4605 173.938H23.6853C23.1165 173.938 22.6555 173.473 22.6555 172.9C22.6555 172.368 23.053 171.93 23.5652 171.87L23.6853 171.863H50.4605Z" fill="#6B48F4"/>
<path d="M45.3114 179.125C45.3114 178.552 44.8503 178.088 44.2816 178.088H23.6853L23.5652 178.095C23.053 178.155 22.6555 178.593 22.6555 179.125C22.6555 179.698 23.1165 180.163 23.6853 180.163H44.2816L44.4017 180.156C44.9138 180.096 45.3114 179.657 45.3114 179.125Z" fill="#6B48F4"/>
<path d="M50.4605 184.313C51.0292 184.313 51.4903 184.777 51.4903 185.35C51.4903 185.882 51.0927 186.321 50.5806 186.381L50.4605 186.388H23.6853C23.1165 186.388 22.6555 185.923 22.6555 185.35C22.6555 184.818 23.053 184.38 23.5652 184.32L23.6853 184.313H50.4605Z" fill="#6B48F4"/>
<path d="M61.7815 168.629C61.722 168.113 61.2867 167.713 60.7586 167.713C60.1899 167.713 59.7288 168.177 59.7288 168.75V177.05L59.7357 177.171C59.7952 177.687 60.2305 178.088 60.7586 178.088C61.3274 178.088 61.7884 177.623 61.7884 177.05V168.75L61.7815 168.629Z" fill="#6B48F4"/>
<path d="M52.5201 219.588C53.0888 219.588 53.5499 220.052 53.5499 220.625C53.5499 221.157 53.1523 221.596 52.6402 221.656L52.5201 221.663H25.7449C25.1761 221.663 24.7151 221.198 24.7151 220.625C24.7151 220.093 25.1126 219.655 25.6248 219.595L25.7449 219.588H52.5201Z" fill="#6B48F4"/>
<path d="M45.3114 191.575C45.3114 191.002 44.8503 190.538 44.2816 190.538H23.6853L23.5652 190.545C23.053 190.605 22.6555 191.043 22.6555 191.575C22.6555 192.148 23.1165 192.613 23.6853 192.613H44.2816L44.4017 192.606C44.9138 192.546 45.3114 192.107 45.3114 191.575Z" fill="#6B48F4"/>
<path d="M108 7L108 223.768" stroke="#6B48F4" stroke-width="2" stroke-linecap="round"/>
<path d="M96 215.352L107.75 225L119.5 215.352" stroke="#6B48F4" stroke-width="2" stroke-linecap="round"/>
</svg>
