<svg width="286" height="88" viewBox="0 0 286 88" fill="none" xmlns="http://www.w3.org/2000/svg">
<path fill-rule="evenodd" clip-rule="evenodd" d="M280.75 5.25C281.716 5.25 282.5 6.0335 282.5 7V31.5C282.5 32.4665 281.716 33.25 280.75 33.25H255.296L247.5 39.375V7C247.5 6.0335 248.284 5.25 249.25 5.25H280.75ZM271.188 13.7883L263.763 21.2118L259.431 16.8805L256.957 19.3567L263.763 26.1625L273.663 16.2628L271.188 13.7883Z" fill="#BCABFF"/>
<path fill-rule="evenodd" clip-rule="evenodd" d="M280.75 51.25C281.716 51.25 282.5 52.0335 282.5 53V77.5C282.5 78.4665 281.716 79.25 280.75 79.25H255.296L247.5 85.375V53C247.5 52.0335 248.284 51.25 249.25 51.25H280.75ZM271.188 59.7883L263.763 67.2118L259.431 62.8805L256.957 65.3567L263.763 72.1625L273.663 62.2628L271.188 59.7883Z" fill="#BCABFF"/>
<path fill-rule="evenodd" clip-rule="evenodd" d="M219.75 5.25C220.716 5.25 221.5 6.0335 221.5 7V31.5C221.5 32.4665 220.716 33.25 219.75 33.25H194.296L186.5 39.375V7C186.5 6.0335 187.284 5.25 188.25 5.25H219.75ZM199.669 12.4425L197.194 14.9187L201.526 19.25L197.192 23.5813L199.667 26.0557L204 21.7245L208.331 26.0557L210.806 23.5813L206.474 19.25H206.476L210.806 14.9187L208.331 12.4443L204 16.7755L199.669 12.4425Z" fill="#6B48F4"/>
<path fill-rule="evenodd" clip-rule="evenodd" d="M158.75 5.25C159.716 5.25 160.5 6.0335 160.5 7V31.5C160.5 32.4665 159.716 33.25 158.75 33.25H133.296L125.5 39.375V7C125.5 6.0335 126.284 5.25 127.25 5.25H158.75ZM138.669 12.4425L136.194 14.9187L140.526 19.25L136.192 23.5813L138.667 26.0557L143 21.7245L147.331 26.0557L149.806 23.5813L145.474 19.25H145.476L149.806 14.9187L147.331 12.4443L143 16.7755L138.669 12.4425Z" fill="#6B48F4"/>
<path fill-rule="evenodd" clip-rule="evenodd" d="M97.75 5.25C98.7165 5.25 99.5 6.0335 99.5 7V31.5C99.5 32.4665 98.7165 33.25 97.75 33.25H72.2962L64.5 39.375V7C64.5 6.0335 65.2835 5.25 66.25 5.25H97.75ZM77.6687 12.4425L75.1943 14.9187L79.5255 19.25L75.1925 23.5813L77.667 26.0557L82 21.7245L86.3313 26.0557L88.8057 23.5813L84.4745 19.25H84.4762L88.8057 14.9187L86.3313 12.4443L82 16.7755L77.6687 12.4425Z" fill="#6B48F4"/>
<path fill-rule="evenodd" clip-rule="evenodd" d="M36.75 5.25C37.7165 5.25 38.5 6.0335 38.5 7V31.5C38.5 32.4665 37.7165 33.25 36.75 33.25H11.2962L3.5 39.375V7C3.5 6.0335 4.2835 5.25 5.25 5.25H36.75ZM16.6687 12.4425L14.1943 14.9187L18.5255 19.25L14.1925 23.5813L16.667 26.0557L21 21.7245L25.3313 26.0557L27.8057 23.5813L23.4745 19.25H23.4762L27.8057 14.9187L25.3313 12.4443L21 16.7755L16.6687 12.4425Z" fill="#6B48F4"/>
<path fill-rule="evenodd" clip-rule="evenodd" d="M219.75 51.25C220.716 51.25 221.5 52.0335 221.5 53V77.5C221.5 78.4665 220.716 79.25 219.75 79.25H194.296L186.5 85.375V53C186.5 52.0335 187.284 51.25 188.25 51.25H219.75ZM199.669 58.4425L197.194 60.9187L201.526 65.25L197.192 69.5813L199.667 72.0557L204 67.7245L208.331 72.0557L210.806 69.5813L206.474 65.25H206.476L210.806 60.9187L208.331 58.4443L204 62.7755L199.669 58.4425Z" fill="#6B48F4"/>
<path fill-rule="evenodd" clip-rule="evenodd" d="M158.75 51.25C159.716 51.25 160.5 52.0335 160.5 53V77.5C160.5 78.4665 159.716 79.25 158.75 79.25H133.296L125.5 85.375V53C125.5 52.0335 126.284 51.25 127.25 51.25H158.75ZM138.669 58.4425L136.194 60.9187L140.526 65.25L136.192 69.5813L138.667 72.0557L143 67.7245L147.331 72.0557L149.806 69.5813L145.474 65.25H145.476L149.806 60.9187L147.331 58.4443L143 62.7755L138.669 58.4425Z" fill="#6B48F4"/>
<path fill-rule="evenodd" clip-rule="evenodd" d="M97.75 51.25C98.7165 51.25 99.5 52.0335 99.5 53V77.5C99.5 78.4665 98.7165 79.25 97.75 79.25H72.2962L64.5 85.375V53C64.5 52.0335 65.2835 51.25 66.25 51.25H97.75ZM77.6687 58.4425L75.1943 60.9187L79.5255 65.25L75.1925 69.5813L77.667 72.0557L82 67.7245L86.3313 72.0557L88.8057 69.5813L84.4745 65.25H84.4762L88.8057 60.9187L86.3313 58.4443L82 62.7755L77.6687 58.4425Z" fill="#6B48F4"/>
<path fill-rule="evenodd" clip-rule="evenodd" d="M36.75 51.25C37.7165 51.25 38.5 52.0335 38.5 53V77.5C38.5 78.4665 37.7165 79.25 36.75 79.25H11.2962L3.5 85.375V53C3.5 52.0335 4.2835 51.25 5.25 51.25H36.75ZM16.6687 58.4425L14.1943 60.9187L18.5255 65.25L14.1925 69.5813L16.667 72.0557L21 67.7245L25.3313 72.0557L27.8057 69.5813L23.4745 65.25H23.4762L27.8057 60.9187L25.3313 58.4443L21 62.7755L16.6687 58.4425Z" fill="#6B48F4"/>
</svg>
