<svg width="214" height="69" viewBox="0 0 214 69" fill="none" xmlns="http://www.w3.org/2000/svg">
<path fill-rule="evenodd" clip-rule="evenodd" d="M34.5 5.75C50.37 5.75 63.25 18.63 63.25 34.5C63.25 50.37 50.37 63.25 34.5 63.25C18.63 63.25 5.75 50.37 5.75 34.5C5.75 18.63 18.63 5.75 34.5 5.75ZM17.3161 44.321C21.5366 50.6173 27.8731 54.625 34.96 54.625C42.044 54.625 48.3834 50.6201 52.601 44.321C47.8162 39.8492 41.5091 37.3658 34.96 37.375C28.4099 37.3651 22.1016 39.8485 17.3161 44.321ZM34.5 31.625C39.2635 31.625 43.125 27.7635 43.125 23C43.125 18.2365 39.2635 14.375 34.5 14.375C29.7365 14.375 25.875 18.2365 25.875 23C25.875 27.7635 29.7365 31.625 34.5 31.625Z" fill="#F45800"/>
<path fill-rule="evenodd" clip-rule="evenodd" d="M107 5.75C122.64 5.75 135.334 18.63 135.334 34.5C135.334 50.37 122.64 63.25 107 63.25C91.3603 63.25 78.667 50.37 78.667 34.5C78.667 18.63 91.3603 5.75 107 5.75ZM90.0655 44.321C94.2248 50.6173 100.469 54.625 107.454 54.625C114.435 54.625 120.682 50.6201 124.839 44.321C120.124 39.8492 113.908 37.3658 107.454 37.375C100.999 37.3651 94.7816 39.8485 90.0655 44.321ZM107 31.625C111.695 31.625 115.5 27.7635 115.5 23C115.5 18.2365 111.695 14.375 107 14.375C102.306 14.375 98.5003 18.2365 98.5003 23C98.5003 27.7635 102.306 31.625 107 31.625Z" fill="#F45800"/>
<path fill-rule="evenodd" clip-rule="evenodd" d="M179.5 5.75C195.37 5.75 208.25 18.63 208.25 34.5C208.25 50.37 195.37 63.25 179.5 63.25C163.63 63.25 150.75 50.37 150.75 34.5C150.75 18.63 163.63 5.75 179.5 5.75ZM162.316 44.321C166.537 50.6173 172.873 54.625 179.96 54.625C187.044 54.625 193.383 50.6201 197.601 44.321C192.816 39.8492 186.509 37.3658 179.96 37.375C173.41 37.3651 167.102 39.8485 162.316 44.321ZM179.5 31.625C184.263 31.625 188.125 27.7635 188.125 23C188.125 18.2365 184.263 14.375 179.5 14.375C174.737 14.375 170.875 18.2365 170.875 23C170.875 27.7635 174.737 31.625 179.5 31.625Z" fill="#FFB648"/>
</svg>
