<svg width="456" height="145" viewBox="0 0 456 145" fill="none" xmlns="http://www.w3.org/2000/svg">
<circle cx="79.5" cy="20.5" r="20.5" fill="#6B48F4"/>
<circle cx="79.5" cy="72.5" r="20.5" fill="#6B48F4"/>
<circle cx="139.5" cy="20.5" r="20.5" fill="#6B48F4"/>
<circle cx="138.5" cy="72.5" r="20.5" fill="#6B48F4"/>
<circle cx="198.5" cy="20.5" r="20.5" fill="#6B48F4"/>
<circle cx="197.5" cy="72.5" r="20.5" fill="#6B48F4"/>
<ellipse cx="258" cy="20.5" rx="21" ry="20.5" fill="#6B48F4"/>
<ellipse cx="257" cy="72.5" rx="21" ry="20.5" fill="#6B48F4"/>
<circle cx="317.5" cy="20.5" r="20.5" fill="#6B48F4"/>
<circle cx="316.5" cy="72.5" r="20.5" fill="#6B48F4"/>
<circle cx="79.5" cy="124.5" r="20.5" fill="#6B48F4"/>
<circle cx="435.5" cy="20.5" r="20.5" transform="rotate(90 435.5 20.5)" fill="#6B48F4"/>
<circle cx="138.5" cy="124.5" r="20.5" fill="#6B48F4"/>
<circle cx="435.5" cy="72.5" r="20.5" transform="rotate(90 435.5 72.5)" fill="#6B48F4"/>
<circle cx="197.5" cy="124.5" r="20.5" fill="#6B48F4"/>
<circle cx="375.5" cy="124.5" r="20.5" fill="#6B48F4"/>
<ellipse cx="257" cy="124.5" rx="21" ry="20.5" fill="#6B48F4"/>
<ellipse cx="376" cy="72.5" rx="21" ry="20.5" fill="#6B48F4"/>
<circle cx="316.5" cy="124.5" r="20.5" fill="#6B48F4"/>
<circle cx="376.5" cy="20.5" r="20.5" fill="#6B48F4"/>
<ellipse cx="21" cy="20.5" rx="21" ry="20.5" fill="#BCABFF"/>
<circle cx="20.5" cy="124.5" r="20.5" fill="#BCABFF"/>
<circle cx="20.5" cy="72.5" r="20.5" fill="#BCABFF"/>
<path d="M77.512 26H79.108V21.688H82.412V20.33H79.108V17.558H82.972V16.2H77.512V26Z" fill="white"/>
<path d="M136.512 26H138.108V21.688H141.412V20.33H138.108V17.558H141.972V16.2H136.512V26Z" fill="white"/>
<path d="M195.512 26H197.108V21.688H200.412V20.33H197.108V17.558H200.972V16.2H195.512V26Z" fill="white"/>
<path d="M255.512 26H257.108V21.688H260.412V20.33H257.108V17.558H260.972V16.2H255.512V26Z" fill="white"/>
<path d="M314.512 26H316.108V21.688H319.412V20.33H316.108V17.558H319.972V16.2H314.512V26Z" fill="white"/>
<path d="M373.512 26H375.108V21.688H378.412V20.33H375.108V17.558H378.972V16.2H373.512V26Z" fill="white"/>
<path d="M433.512 26H435.108V21.688H438.412V20.33H435.108V17.558H438.972V16.2H433.512V26Z" fill="white"/>
<path d="M77.512 78H79.108V73.688H82.412V72.33H79.108V69.558H82.972V68.2H77.512V78Z" fill="white"/>
<path d="M136.512 78H138.108V73.688H141.412V72.33H138.108V69.558H141.972V68.2H136.512V78Z" fill="white"/>
<path d="M195.512 78H197.108V73.688H200.412V72.33H197.108V69.558H200.972V68.2H195.512V78Z" fill="white"/>
<path d="M255.512 78H257.108V73.688H260.412V72.33H257.108V69.558H260.972V68.2H255.512V78Z" fill="white"/>
<path d="M314.512 78H316.108V73.688H319.412V72.33H316.108V69.558H319.972V68.2H314.512V78Z" fill="white"/>
<path d="M373.512 78H375.108V73.688H378.412V72.33H375.108V69.558H378.972V68.2H373.512V78Z" fill="white"/>
<path d="M432.512 78H434.108V73.688H437.412V72.33H434.108V69.558H437.972V68.2H432.512V78Z" fill="white"/>
<path d="M77.512 129H79.108V124.688H82.412V123.33H79.108V120.558H82.972V119.2H77.512V129Z" fill="white"/>
<path d="M136.512 129H138.108V124.688H141.412V123.33H138.108V120.558H141.972V119.2H136.512V129Z" fill="white"/>
<path d="M195.512 129H197.108V124.688H200.412V123.33H197.108V120.558H200.972V119.2H195.512V129Z" fill="white"/>
<path d="M255.512 129H257.108V124.688H260.412V123.33H257.108V120.558H260.972V119.2H255.512V129Z" fill="white"/>
<path d="M314.512 129H316.108V124.688H319.412V123.33H316.108V120.558H319.972V119.2H314.512V129Z" fill="white"/>
<path d="M372.512 129H374.108V124.688H377.412V123.33H374.108V120.558H377.972V119.2H372.512V129Z" fill="white"/>
<path d="M16.512 26H18.108V21.744H23.624L23.624 26H25.234L25.234 16.2H23.624V20.274H18.108V16.2H16.512L16.512 26Z" fill="black"/>
<path d="M16.512 78H18.108V73.744H23.624L23.624 78H25.234L25.234 68.2H23.624V72.274H18.108V68.2H16.512L16.512 78Z" fill="black"/>
<path d="M16.512 130H18.108V125.744H23.624L23.624 130H25.234L25.234 120.2H23.624V124.274H18.108V120.2H16.512L16.512 130Z" fill="black"/>
</svg>
