<svg width="374" height="236" viewBox="0 0 374 236" fill="none" xmlns="http://www.w3.org/2000/svg">
<path fill-rule="evenodd" clip-rule="evenodd" d="M160.806 47.3729C182.326 18.6136 216.662 -4.2094e-05 255.345 -3.87122e-05C320.514 -3.30149e-05 373.345 52.8304 373.345 118C373.345 183.17 320.514 236 255.345 236C216.333 236 181.742 217.068 160.26 187.891L160.316 188.123C156.84 182.251 141.968 170.3 127.345 178.5C126.797 178.807 126.298 179.075 125.848 179.304C112.838 188.514 96.9487 193.926 79.7955 193.926C35.7259 193.926 0.000393644 158.201 0.000397497 114.131C0.00040135 70.0615 35.7259 34.336 79.7955 34.336C97.919 34.336 114.631 40.3781 128.028 50.5577L128 50.5C128.061 50.5596 128.124 50.6195 128.188 50.6795C128.877 51.2061 129.558 51.7436 130.229 52.2919C136.431 56.4927 148.846 59.8453 158.727 49.4087C159.553 48.5351 160.243 47.8614 160.806 47.3729Z" fill="url(#paint0_radial_2562_24028)"/>
<path d="M233.867 96H235.309V91.24C235.687 90.624 236.247 90.022 237.213 90.022C238.221 90.022 238.837 90.694 238.837 91.814V96H240.293V91.758C240.293 89.714 239.117 88.664 237.549 88.664C236.541 88.664 235.841 89.07 235.309 89.63V85.5H233.867V96ZM245.811 88.664C243.529 88.664 241.975 90.386 241.975 92.472C241.975 94.558 243.529 96.28 245.811 96.28C248.107 96.28 249.647 94.558 249.647 92.472C249.647 90.386 248.107 88.664 245.811 88.664ZM245.825 94.922C244.467 94.922 243.487 93.83 243.487 92.472C243.487 91.114 244.467 90.022 245.825 90.022C247.155 90.022 248.135 91.1 248.135 92.472C248.135 93.816 247.155 94.922 245.825 94.922ZM251.449 96H252.891V91.24C253.227 90.638 253.759 90.022 254.655 90.022C255.579 90.022 256.139 90.638 256.139 91.674V96H257.595V91.618C257.595 91.478 257.595 91.352 257.581 91.226C257.959 90.554 258.505 90.022 259.345 90.022C260.255 90.022 260.829 90.638 260.829 91.674V96H262.285V91.618C262.285 89.672 261.151 88.664 259.681 88.664C258.463 88.664 257.763 89.238 257.217 89.938C256.769 89.098 255.957 88.664 254.991 88.664C254.053 88.664 253.395 89.056 252.891 89.602V88.944H251.449V96ZM264.52 96H265.962V91.24C266.298 90.638 266.83 90.022 267.726 90.022C268.65 90.022 269.21 90.638 269.21 91.674V96H270.666V91.618C270.666 91.478 270.666 91.352 270.652 91.226C271.03 90.554 271.576 90.022 272.416 90.022C273.326 90.022 273.9 90.638 273.9 91.674V96H275.356V91.618C275.356 89.672 274.222 88.664 272.752 88.664C271.534 88.664 270.834 89.238 270.288 89.938C269.84 89.098 269.028 88.664 268.062 88.664C267.124 88.664 266.466 89.056 265.962 89.602V88.944H264.52V96ZM283.96 94.852L282.91 94.012C282.476 94.6 281.762 94.978 280.908 94.978C279.55 94.978 278.612 94.18 278.514 92.64H283.722C283.778 92.43 283.82 92.108 283.82 91.786C283.82 89.994 282.56 88.664 280.614 88.664C278.374 88.664 277.03 90.358 277.03 92.472C277.03 94.53 278.472 96.28 280.908 96.28C282.224 96.28 283.302 95.734 283.96 94.852ZM280.586 89.868C281.72 89.868 282.35 90.68 282.378 91.562H278.584C278.808 90.47 279.536 89.868 280.586 89.868ZM236.514 118.982H238.476V106.382H236.55L232.5 108.668L233.508 110.072L236.514 108.398V118.982ZM240.987 115.49H247.071V119H249.033V115.49H250.419V113.708H249.033V106.4H246.693L240.987 113.708V115.49ZM243.057 113.708L247.071 108.578V113.708H243.057ZM256.601 106.04C253.379 106.04 251.813 108.938 251.813 112.7C251.813 116.462 253.379 119.36 256.601 119.36C259.823 119.36 261.371 116.462 261.371 112.7C261.371 108.938 259.823 106.04 256.601 106.04ZM256.601 107.876C258.419 107.876 259.337 109.874 259.337 112.7C259.337 115.508 258.419 117.524 256.601 117.524C254.765 117.524 253.847 115.526 253.847 112.7C253.847 109.892 254.765 107.876 256.601 107.876ZM267.535 106.04C264.313 106.04 262.747 108.938 262.747 112.7C262.747 116.462 264.313 119.36 267.535 119.36C270.757 119.36 272.305 116.462 272.305 112.7C272.305 108.938 270.757 106.04 267.535 106.04ZM267.535 107.876C269.353 107.876 270.271 109.874 270.271 112.7C270.271 115.508 269.353 117.524 267.535 117.524C265.699 117.524 264.781 115.526 264.781 112.7C264.781 109.892 265.699 107.876 267.535 107.876ZM273.306 114.932H274.944C275.43 117.902 277.032 119.36 279.498 119.36C281.19 119.36 282.414 118.64 283.242 117.524L281.748 116.39C281.262 117.092 280.56 117.614 279.534 117.614C278.238 117.614 277.32 116.93 276.96 114.932H281.694V113.366H276.798C276.78 113.15 276.78 112.916 276.78 112.682C276.78 112.466 276.78 112.268 276.798 112.07H281.694V110.486H276.942C277.302 108.47 278.22 107.768 279.534 107.768C280.578 107.768 281.244 108.272 281.748 109.01L283.242 107.858C282.396 106.76 281.19 106.022 279.498 106.022C277.014 106.022 275.412 107.48 274.926 110.486H273.306V112.07H274.782C274.764 112.268 274.764 112.466 274.764 112.682C274.764 112.916 274.764 113.15 274.782 113.366H273.306V114.932ZM232.5 140.444H233.942V136.272C234.544 136.916 235.3 137.28 236.322 137.28C238.534 137.28 239.92 135.53 239.92 133.472C239.92 131.414 238.534 129.664 236.322 129.664C235.3 129.664 234.544 130.028 233.942 130.672V129.944H232.5V140.444ZM236.14 131.022C237.498 131.022 238.408 132.086 238.408 133.472C238.408 134.858 237.498 135.922 236.14 135.922C235.23 135.922 234.46 135.502 233.942 134.718V132.226C234.446 131.456 235.216 131.022 236.14 131.022ZM243.511 137.21C244.379 137.21 245.261 136.818 245.765 136.202V137H247.207V132.338C247.207 130.784 246.157 129.664 244.253 129.664C242.993 129.664 241.985 130.196 241.355 131.036L242.433 131.862C242.839 131.288 243.441 130.938 244.211 130.938C245.121 130.938 245.765 131.47 245.765 132.338V132.702L243.483 133.08C241.985 133.332 241.159 134.102 241.159 135.166C241.159 136.412 242.111 137.21 243.511 137.21ZM242.615 135.11C242.615 134.578 242.979 134.2 243.861 134.046L245.765 133.724V134.942C245.345 135.614 244.659 136.034 243.777 136.034C243.049 136.034 242.615 135.656 242.615 135.11ZM249.467 137H250.909V132.296C251.273 131.694 251.861 131.218 252.757 131.218C253.051 131.218 253.275 131.26 253.499 131.316V129.902C253.317 129.846 253.107 129.804 252.883 129.804C252.015 129.804 251.399 130.196 250.909 130.742V129.944H249.467V137ZM258.86 137H260.302V132.24C260.638 131.638 261.17 131.022 262.066 131.022C262.99 131.022 263.55 131.638 263.55 132.674V137H265.006V132.618C265.006 132.478 265.006 132.352 264.992 132.226C265.37 131.554 265.916 131.022 266.756 131.022C267.666 131.022 268.24 131.638 268.24 132.674V137H269.696V132.618C269.696 130.672 268.562 129.664 267.092 129.664C265.874 129.664 265.174 130.238 264.628 130.938C264.18 130.098 263.368 129.664 262.402 129.664C261.464 129.664 260.806 130.056 260.302 130.602V129.944H258.86V137ZM275.206 129.664C272.924 129.664 271.37 131.386 271.37 133.472C271.37 135.558 272.924 137.28 275.206 137.28C277.502 137.28 279.042 135.558 279.042 133.472C279.042 131.386 277.502 129.664 275.206 129.664ZM275.22 135.922C273.862 135.922 272.882 134.83 272.882 133.472C272.882 132.114 273.862 131.022 275.22 131.022C276.55 131.022 277.53 132.1 277.53 133.472C277.53 134.816 276.55 135.922 275.22 135.922ZM281.572 128.376C282.104 128.376 282.552 127.928 282.552 127.396C282.552 126.864 282.104 126.416 281.572 126.416C281.04 126.416 280.592 126.864 280.592 127.396C280.592 127.928 281.04 128.376 281.572 128.376ZM280.844 137H282.286V129.944H280.844V137ZM283.863 136.006C284.521 136.804 285.403 137.28 286.593 137.28C287.909 137.28 289.029 136.454 289.043 135.068C289.043 132.646 285.585 133.122 285.585 131.708C285.585 131.232 285.921 130.84 286.593 130.84C287.181 130.84 287.671 131.19 288.049 131.694L289.029 130.84C288.525 130.168 287.615 129.664 286.579 129.664C285.165 129.664 284.185 130.588 284.185 131.75C284.185 134.242 287.643 133.724 287.643 135.152C287.643 135.684 287.265 136.104 286.579 136.104C285.879 136.104 285.319 135.726 284.857 135.138L283.863 136.006Z" fill="white"/>
<path d="M50.0902 90.944V92.246H51.4202V98H52.8762V92.246H55.2142V90.944H52.8762V90.09C52.8762 89.292 53.3522 88.802 54.0662 88.802C54.4582 88.802 54.7662 88.928 55.0042 89.11L55.6202 87.892C55.2142 87.668 54.6822 87.5 54.0382 87.5C52.4002 87.5 51.4202 88.634 51.4202 90.132V90.944H50.0902ZM62.5655 96.852L61.5155 96.012C61.0815 96.6 60.3675 96.978 59.5135 96.978C58.1555 96.978 57.2175 96.18 57.1195 94.64H62.3275C62.3835 94.43 62.4255 94.108 62.4255 93.786C62.4255 91.994 61.1655 90.664 59.2195 90.664C56.9795 90.664 55.6355 92.358 55.6355 94.472C55.6355 96.53 57.0775 98.28 59.5135 98.28C60.8295 98.28 61.9075 97.734 62.5655 96.852ZM59.1915 91.868C60.3255 91.868 60.9555 92.68 60.9835 93.562H57.1895C57.4135 92.47 58.1415 91.868 59.1915 91.868ZM64.3166 98H65.7586V93.24C66.0946 92.638 66.6266 92.022 67.5226 92.022C68.4466 92.022 69.0066 92.638 69.0066 93.674V98H70.4626V93.618C70.4626 93.478 70.4626 93.352 70.4486 93.226C70.8266 92.554 71.3726 92.022 72.2126 92.022C73.1226 92.022 73.6966 92.638 73.6966 93.674V98H75.1526V93.618C75.1526 91.672 74.0186 90.664 72.5486 90.664C71.3306 90.664 70.6306 91.238 70.0846 91.938C69.6366 91.098 68.8246 90.664 67.8586 90.664C66.9206 90.664 66.2626 91.056 65.7586 91.602V90.944H64.3166V98ZM77.3869 98H78.8289V93.24C79.1649 92.638 79.6969 92.022 80.5929 92.022C81.5169 92.022 82.0769 92.638 82.0769 93.674V98H83.5329V93.618C83.5329 93.478 83.5329 93.352 83.5189 93.226C83.8969 92.554 84.4429 92.022 85.2829 92.022C86.1929 92.022 86.7669 92.638 86.7669 93.674V98H88.2229V93.618C88.2229 91.672 87.0889 90.664 85.6189 90.664C84.4009 90.664 83.7009 91.238 83.1549 91.938C82.7069 91.098 81.8949 90.664 80.9289 90.664C79.9909 90.664 79.3329 91.056 78.8289 91.602V90.944H77.3869V98ZM96.8273 96.852L95.7773 96.012C95.3433 96.6 94.6293 96.978 93.7753 96.978C92.4173 96.978 91.4793 96.18 91.3813 94.64H96.5893C96.6453 94.43 96.6873 94.108 96.6873 93.786C96.6873 91.994 95.4273 90.664 93.4813 90.664C91.2413 90.664 89.8973 92.358 89.8973 94.472C89.8973 96.53 91.3392 98.28 93.7753 98.28C95.0913 98.28 96.1693 97.734 96.8273 96.852ZM93.4533 91.868C94.5873 91.868 95.2173 92.68 95.2453 93.562H91.4513C91.6753 92.47 92.4033 91.868 93.4533 91.868ZM53.7022 120.982H55.6642V108.382H53.7382L49.6882 110.668L50.6962 112.072L53.7022 110.398V120.982ZM63.3307 108.04C60.1087 108.04 58.5427 110.938 58.5427 114.7C58.5427 118.462 60.1087 121.36 63.3307 121.36C66.5527 121.36 68.1007 118.462 68.1007 114.7C68.1007 110.938 66.5527 108.04 63.3307 108.04ZM63.3307 109.876C65.1487 109.876 66.0667 111.874 66.0667 114.7C66.0667 117.508 65.1487 119.524 63.3307 119.524C61.4947 119.524 60.5767 117.526 60.5767 114.7C60.5767 111.892 61.4947 109.876 63.3307 109.876ZM74.2643 108.04C71.0423 108.04 69.4763 110.938 69.4763 114.7C69.4763 118.462 71.0423 121.36 74.2643 121.36C77.4863 121.36 79.0343 118.462 79.0343 114.7C79.0343 110.938 77.4863 108.04 74.2643 108.04ZM74.2643 109.876C76.0823 109.876 77.0003 111.874 77.0003 114.7C77.0003 117.508 76.0823 119.524 74.2643 119.524C72.4283 119.524 71.5103 117.526 71.5103 114.7C71.5103 111.892 72.4283 109.876 74.2643 109.876ZM85.1979 108.04C81.9759 108.04 80.4099 110.938 80.4099 114.7C80.4099 118.462 81.9759 121.36 85.1979 121.36C88.4199 121.36 89.9679 118.462 89.9679 114.7C89.9679 110.938 88.4199 108.04 85.1979 108.04ZM85.1979 109.876C87.0159 109.876 87.9339 111.874 87.9339 114.7C87.9339 117.508 87.0159 119.524 85.1979 119.524C83.3619 119.524 82.4439 117.526 82.4439 114.7C82.4439 111.892 83.3619 109.876 85.1979 109.876ZM90.9688 116.932H92.6068C93.0928 119.902 94.6948 121.36 97.1608 121.36C98.8528 121.36 100.077 120.64 100.905 119.524L99.4108 118.39C98.9248 119.092 98.2228 119.614 97.1968 119.614C95.9008 119.614 94.9828 118.93 94.6228 116.932H99.3568V115.366H94.4608C94.4428 115.15 94.4428 114.916 94.4428 114.682C94.4428 114.466 94.4428 114.268 94.4608 114.07H99.3568V112.486H94.6048C94.9648 110.47 95.8828 109.768 97.1968 109.768C98.2408 109.768 98.9068 110.272 99.4108 111.01L100.905 109.858C100.059 108.76 98.8528 108.022 97.1608 108.022C94.6768 108.022 93.0748 109.48 92.5888 112.486H90.9688V114.07H92.4448C92.4268 114.268 92.4268 114.466 92.4268 114.682C92.4268 114.916 92.4268 115.15 92.4448 115.366H90.9688V116.932ZM47.5002 142.444H48.9422V138.272C49.5442 138.916 50.3002 139.28 51.3222 139.28C53.5342 139.28 54.9202 137.53 54.9202 135.472C54.9202 133.414 53.5342 131.664 51.3222 131.664C50.3002 131.664 49.5442 132.028 48.9422 132.672V131.944H47.5002V142.444ZM51.1402 133.022C52.4982 133.022 53.4082 134.086 53.4082 135.472C53.4082 136.858 52.4982 137.922 51.1402 137.922C50.2302 137.922 49.4602 137.502 48.9422 136.718V134.226C49.4462 133.456 50.2162 133.022 51.1402 133.022ZM58.5107 139.21C59.3787 139.21 60.2607 138.818 60.7647 138.202V139H62.2067V134.338C62.2067 132.784 61.1567 131.664 59.2527 131.664C57.9927 131.664 56.9847 132.196 56.3547 133.036L57.4327 133.862C57.8387 133.288 58.4407 132.938 59.2107 132.938C60.1207 132.938 60.7647 133.47 60.7647 134.338V134.702L58.4827 135.08C56.9847 135.332 56.1587 136.102 56.1587 137.166C56.1587 138.412 57.1107 139.21 58.5107 139.21ZM57.6147 137.11C57.6147 136.578 57.9787 136.2 58.8607 136.046L60.7647 135.724V136.942C60.3447 137.614 59.6587 138.034 58.7767 138.034C58.0487 138.034 57.6147 137.656 57.6147 137.11ZM64.467 139H65.909V134.296C66.273 133.694 66.861 133.218 67.757 133.218C68.051 133.218 68.275 133.26 68.499 133.316V131.902C68.317 131.846 68.107 131.804 67.883 131.804C67.015 131.804 66.399 132.196 65.909 132.742V131.944H64.467V139ZM73.8596 139H75.3016V134.24C75.6376 133.638 76.1696 133.022 77.0656 133.022C77.9896 133.022 78.5496 133.638 78.5496 134.674V139H80.0056V134.618C80.0056 134.478 80.0056 134.352 79.9916 134.226C80.3696 133.554 80.9156 133.022 81.7556 133.022C82.6656 133.022 83.2396 133.638 83.2396 134.674V139H84.6956V134.618C84.6956 132.672 83.5616 131.664 82.0916 131.664C80.8736 131.664 80.1736 132.238 79.6276 132.938C79.1796 132.098 78.3676 131.664 77.4016 131.664C76.4636 131.664 75.8056 132.056 75.3016 132.602V131.944H73.8596V139ZM90.2059 131.664C87.9239 131.664 86.3699 133.386 86.3699 135.472C86.3699 137.558 87.9239 139.28 90.2059 139.28C92.5019 139.28 94.0419 137.558 94.0419 135.472C94.0419 133.386 92.5019 131.664 90.2059 131.664ZM90.2199 137.922C88.8619 137.922 87.8819 136.83 87.8819 135.472C87.8819 134.114 88.8619 133.022 90.2199 133.022C91.5499 133.022 92.5299 134.1 92.5299 135.472C92.5299 136.816 91.5499 137.922 90.2199 137.922ZM96.572 130.376C97.104 130.376 97.552 129.928 97.552 129.396C97.552 128.864 97.104 128.416 96.572 128.416C96.04 128.416 95.592 128.864 95.592 129.396C95.592 129.928 96.04 130.376 96.572 130.376ZM95.844 139H97.286V131.944H95.844V139ZM98.8627 138.006C99.5207 138.804 100.403 139.28 101.593 139.28C102.909 139.28 104.029 138.454 104.043 137.068C104.043 134.646 100.585 135.122 100.585 133.708C100.585 133.232 100.921 132.84 101.593 132.84C102.181 132.84 102.671 133.19 103.049 133.694L104.029 132.84C103.525 132.168 102.615 131.664 101.579 131.664C100.165 131.664 99.1847 132.588 99.1847 133.75C99.1847 136.242 102.643 135.724 102.643 137.152C102.643 137.684 102.265 138.104 101.579 138.104C100.879 138.104 100.319 137.726 99.8567 137.138L98.8627 138.006Z" fill="black"/>
<defs>
<radialGradient id="paint0_radial_2562_24028" cx="0" cy="0" r="1" gradientUnits="userSpaceOnUse" gradientTransform="translate(11.0004 105) scale(243 370.973)">
<stop stop-color="#FFB648"/>
<stop offset="1" stop-color="#F45800"/>
</radialGradient>
</defs>
</svg>
