<svg width="489" height="269" viewBox="0 0 489 269" fill="none" xmlns="http://www.w3.org/2000/svg">
<path fill-rule="evenodd" clip-rule="evenodd" d="M20.1242 23.4564C20.3307 23.4521 20.5394 23.45 20.7502 23.45L21.0648 23.4516C21.1692 23.4527 21.273 23.4543 21.3762 23.4564L21.9887 23.4759L22.586 23.5083C22.8806 23.5277 23.169 23.552 23.4504 23.5811L24.0033 23.6458C26.9898 24.0369 29.0502 25.013 29.0502 26.5625V32.7875C29.0502 33.3604 28.5857 33.825 28.0127 33.825C27.4806 33.825 27.0421 33.4244 26.9822 32.9084L26.9752 32.7875V28.7683C26.1648 29.0914 25.1526 29.3286 24.0033 29.4791L23.4504 29.5438C23.169 29.5729 22.8806 29.5972 22.586 29.6166L21.9887 29.649L21.3762 29.6685C21.1697 29.6728 20.961 29.675 20.7502 29.675C20.5394 29.675 20.3307 29.6728 20.1242 29.6685L19.5117 29.649L18.9144 29.6166C18.6198 29.5972 18.3313 29.5729 18.05 29.5438L17.4971 29.4791C14.5106 29.088 12.4502 28.1119 12.4502 26.5625C12.4502 25.013 14.5106 24.0369 17.4971 23.6458L18.05 23.5811C18.3313 23.552 18.6198 23.5277 18.9144 23.5083L19.5117 23.4759L20.1242 23.4564ZM26.9752 26.5625L26.9525 26.5479C26.717 26.4144 26.3845 26.2792 25.9726 26.1543L25.7601 26.0928C24.4656 25.7347 22.6733 25.525 20.7507 25.525C18.8282 25.525 17.0358 25.7347 15.7413 26.0928C15.3034 26.2139 14.9421 26.3474 14.6747 26.4811L14.5252 26.5625L14.7017 26.6572C14.9206 26.7641 15.1993 26.8706 15.5288 26.9706L15.7413 27.0321C17.0358 27.3902 18.8282 27.6 20.7507 27.6C22.6733 27.6 24.4656 27.3902 25.7601 27.0321C26.198 26.911 26.5594 26.7775 26.8268 26.6438L26.9752 26.5625Z" fill="#BCABFF"/>
<path d="M61.9718 62.6715C60.8727 61.4839 59.3688 60.8 57.7631 60.8C55.1954 60.8 53.0179 62.5349 52.2104 64.95H50.8377L50.7167 64.9569C50.2007 65.0169 49.8002 65.4554 49.8002 65.9875C49.8002 66.5604 50.2647 67.025 50.8377 67.025H51.8752C51.8752 67.3783 51.9031 67.725 51.9567 68.0625H50.8377L50.7167 68.0694C50.2007 68.1294 49.8002 68.5679 49.8002 69.1C49.8002 69.6729 50.2647 70.1375 50.8377 70.1375H52.663C53.6801 71.9965 55.5806 73.25 57.7631 73.25C59.228 73.25 60.6108 72.681 61.6808 71.6721C62.0904 71.2859 62.1195 70.6297 61.7457 70.2064C61.372 69.7831 60.7369 69.7531 60.3273 70.1393C59.6225 70.8038 58.7205 71.175 57.7631 71.175C56.7809 71.175 55.8818 70.7836 55.197 70.1375H57.0627L57.1837 70.1305C57.6997 70.0705 58.1002 69.632 58.1002 69.1C58.1002 68.527 57.6357 68.0625 57.0627 68.0625H54.0054C53.9257 67.731 53.8833 67.3834 53.8833 67.025H57.0627L57.1837 67.018C57.6997 66.958 58.1002 66.5195 58.1002 65.9875C58.1002 65.4145 57.6357 64.95 57.0627 64.95H54.4022C55.074 63.7079 56.3301 62.875 57.7631 62.875C58.8127 62.875 59.795 63.3217 60.5205 64.1057C60.9038 64.5198 61.5393 64.5344 61.9401 64.1384C62.3408 63.7424 62.355 63.0856 61.9718 62.6715Z" fill="#BCABFF"/>
<path d="M13.4877 31.75C14.0198 31.75 14.4583 32.1141 14.5182 32.5831L14.5252 32.6931V51.5568C14.5252 52.0777 14.0607 52.5 13.4877 52.5C12.9556 52.5 12.5171 52.1358 12.4572 51.6668L12.4502 51.5568V32.6931C12.4502 32.1722 12.9147 31.75 13.4877 31.75Z" fill="#BCABFF"/>
<path d="M13.4877 56.65C14.0607 56.65 14.5252 56.1854 14.5252 55.6125C14.5252 55.0395 14.0607 54.575 13.4877 54.575C12.9147 54.575 12.4502 55.0395 12.4502 55.6125C12.4502 56.1854 12.9147 56.65 13.4877 56.65Z" fill="#BCABFF"/>
<path fill-rule="evenodd" clip-rule="evenodd" d="M62.2502 40.05C62.0394 40.05 61.8307 40.0521 61.6242 40.0564L61.0117 40.0759L60.4144 40.1083C60.1198 40.1277 59.8314 40.152 59.55 40.1811L58.9971 40.2458C56.0106 40.6369 53.9502 41.613 53.9502 43.1625C53.9502 44.7119 56.0106 45.688 58.9971 46.0791L59.55 46.1438C59.8314 46.1729 60.1198 46.1972 60.4144 46.2166L61.0117 46.249L61.6242 46.2685C61.8307 46.2728 62.0394 46.275 62.2502 46.275C62.461 46.275 62.6697 46.2728 62.8762 46.2685L63.4887 46.249L64.086 46.2166C64.3806 46.1972 64.669 46.1729 64.9504 46.1438L65.5033 46.0791C66.6526 45.9286 67.6648 45.6914 68.4752 45.3683V49.3875L68.4822 49.5084C68.5421 50.0244 68.9806 50.425 69.5127 50.425C70.0857 50.425 70.5502 49.9604 70.5502 49.3875V43.1625C70.5502 41.613 68.4898 40.6369 65.5033 40.2458L64.9504 40.1811C64.669 40.152 64.3806 40.1277 64.086 40.1083L63.4887 40.0759L62.8762 40.0564C62.773 40.0543 62.6692 40.0527 62.5648 40.0516L62.2502 40.05ZM68.3268 43.2438L68.4752 43.1625L68.4525 43.1479C68.217 43.0144 67.8845 42.8792 67.4726 42.7543L67.2601 42.6928C65.9656 42.3347 64.1733 42.125 62.2507 42.125C60.3282 42.125 58.5358 42.3347 57.2413 42.6928C56.8034 42.8139 56.4421 42.9474 56.1747 43.0811L56.0252 43.1625L56.2017 43.2572C56.4206 43.3641 56.6993 43.4706 57.0288 43.5706L57.2413 43.6321C58.5358 43.9902 60.3282 44.2 62.2507 44.2C64.1733 44.2 65.9656 43.9902 67.2601 43.6321C67.698 43.511 68.0594 43.3775 68.3268 43.2438Z" fill="#BCABFF"/>
<path d="M56.0182 47.1915C55.9583 46.6755 55.5198 46.275 54.9877 46.275C54.4147 46.275 53.9502 46.7395 53.9502 47.3125V51.4625L53.9572 51.5834C54.0171 52.0994 54.4556 52.5 54.9877 52.5C55.5607 52.5 56.0252 52.0354 56.0252 51.4625V47.3125L56.0182 47.1915Z" fill="#BCABFF"/>
<path fill-rule="evenodd" clip-rule="evenodd" d="M38.037 33.825L37.3439 33.8374C37.2294 33.8405 37.1154 33.8442 37.0019 33.8483L36.3275 33.8792L35.6669 33.9223C35.3403 33.9469 35.0193 33.9759 34.7046 34.0095L34.0837 34.0824C33.9817 34.0955 33.8805 34.1091 33.78 34.1232L33.1865 34.2136C29.4888 34.8229 26.9752 36.1251 26.9752 37.9742V42.718L26.9802 42.8718C26.9827 42.9095 26.9861 42.9469 26.9904 42.9842C26.9804 43.0421 26.9752 43.1017 26.9752 43.1625V47.9055L26.9802 48.0593C26.9827 48.097 26.9861 48.1344 26.9904 48.1717C26.9804 48.2296 26.9752 48.2892 26.9752 48.35V53.093L26.9802 53.2468C26.9827 53.2843 26.9861 53.3216 26.9904 53.3587C26.9804 53.4165 26.9752 53.4759 26.9752 53.5366V58.2796L26.9802 58.4334C26.9899 58.5788 27.0131 58.7213 27.0494 58.8607C26.8955 58.8469 26.7401 58.8341 26.5835 58.8223L25.9229 58.7792L25.2485 58.7483C25.135 58.7441 25.021 58.7405 24.9064 58.7374L24.2134 58.7249H23.512L22.8189 58.7374C22.7044 58.7405 22.5904 58.7441 22.4769 58.7483L21.8025 58.7792L21.1419 58.8223C20.8153 58.8469 20.4943 58.8759 20.1796 58.9095L19.5587 58.9824C19.4567 58.9955 19.3555 59.0091 19.255 59.0232L18.6615 59.1136C14.9638 59.7229 12.4502 61.0251 12.4502 62.8742V67.6174L12.4552 67.7712C12.4577 67.8089 12.4611 67.8464 12.4655 67.8837C12.4554 67.9417 12.4502 68.0012 12.4502 68.0621V72.8051L12.4552 72.9589C12.5897 74.9949 15.3946 76.4513 19.3508 77.0697L19.9526 77.1561C20.156 77.1828 20.3621 77.2074 20.5706 77.2298L21.2036 77.2905C22.0571 77.3627 22.9475 77.3999 23.8627 77.3999C24.7779 77.3999 25.6683 77.3627 26.5218 77.2905L27.1548 77.2298C27.3633 77.2074 27.5694 77.1828 27.7728 77.1561L28.3746 77.0697C32.2526 76.4636 35.0243 75.0521 35.259 73.0789C36.2487 73.1918 37.2821 73.2499 38.3357 73.2499C40.9193 73.2499 44.0842 72.9197 45.8411 72.4238C47.8521 76.596 52.1212 79.4749 57.0627 79.4749C63.9386 79.4749 69.5127 73.9007 69.5127 67.0245C69.5127 60.1483 63.9386 54.5741 57.0627 54.5741C54.3524 54.5741 51.8443 55.4402 49.8002 56.9107V53.5366L49.7932 53.4156C49.7921 53.4059 49.7908 53.3963 49.7895 53.3867C49.7881 53.3773 49.7866 53.368 49.785 53.3587C49.7951 53.2712 49.8002 53.1827 49.8002 53.093V48.35L49.7932 48.229C49.791 48.2097 49.7882 48.1906 49.7849 48.1717C49.7951 48.0841 49.8002 47.9953 49.8002 47.9055V43.1625L49.7932 43.0415C49.791 43.0222 49.7882 43.0031 49.7849 42.9842C49.7951 42.8966 49.8002 42.8078 49.8002 42.718V37.975C49.8002 36.1745 47.4171 34.8918 43.8783 34.2632L43.2945 34.167C43.0967 34.1368 42.8957 34.1086 42.6916 34.0824L42.0708 34.0095C41.7561 33.9759 41.4351 33.9469 41.1085 33.9223L40.4479 33.8792L39.7735 33.8483C39.66 33.8442 39.546 33.8405 39.4314 33.8374L38.7384 33.825H38.037ZM45.7126 61.9005C44.8695 62.1682 43.9231 62.3842 42.8996 62.5442L42.2978 62.6306C42.0944 62.6573 41.8883 62.6819 41.6798 62.7043L41.0468 62.765C40.1933 62.8372 39.3029 62.8744 38.3877 62.8744C37.4725 62.8744 36.5821 62.8372 35.7286 62.765L35.2694 62.721C35.2732 62.7716 35.2752 62.8227 35.2752 62.8742V65.5652C36.2647 65.6883 37.3087 65.7522 38.3774 65.7522C40.489 65.7522 43.0057 65.5098 44.7548 65.1372C44.9277 64.0005 45.2542 62.9143 45.7126 61.9005ZM44.622 67.51C42.7815 67.8527 40.4113 68.0624 38.3774 68.0624C37.3095 68.0624 36.2624 68.0028 35.2605 67.887L35.2637 67.9069L35.2665 67.927L35.2682 67.9411L35.2752 68.0621V70.7653C36.2523 70.8853 37.2819 70.9474 38.3357 70.9474C40.6195 70.9474 43.4174 70.6692 45.0397 70.2691C44.8015 69.3845 44.6585 68.4609 44.622 67.51ZM29.0502 42.718V40.5122C30.0494 41.0183 31.3649 41.413 32.8971 41.6852L33.4809 41.7814C33.6787 41.8115 33.8797 41.8397 34.0837 41.866L34.7046 41.9389C35.0193 41.9724 35.3403 42.0015 35.6669 42.026L36.3275 42.0691L37.0019 42.1C37.1154 42.1042 37.2294 42.1078 37.3439 42.1109L38.037 42.1234C38.1534 42.1244 38.2704 42.125 38.3877 42.125L38.7384 42.1234L39.4314 42.1109C39.546 42.1078 39.66 42.1042 39.7735 42.1L40.4479 42.0691L41.1085 42.026C41.4351 42.0015 41.7561 41.9724 42.0708 41.9389L42.6916 41.866C42.7937 41.8528 42.8949 41.8392 42.9954 41.8251L43.5889 41.7347C45.245 41.4618 46.6636 41.0499 47.7252 40.5122V42.718L47.7179 42.7814C47.6357 43.154 46.8551 43.7487 45.3874 44.2519C43.5704 44.8749 41.0686 45.2377 38.3877 45.2377C35.7068 45.2377 33.205 44.8749 31.3879 44.2519C29.834 43.7191 29.0502 43.0837 29.0502 42.718ZM29.8519 38.6721C29.337 38.4293 29.0502 38.1869 29.0502 37.9753C29.0502 37.7638 29.337 37.5214 29.8519 37.2786L30.128 37.1573C30.2263 37.117 30.3305 37.0768 30.4406 37.0368L30.7879 36.918C30.9093 36.8787 31.0362 36.8399 31.1684 36.8016L31.5804 36.6886C31.6516 36.67 31.724 36.6517 31.7977 36.6335L32.2538 36.5271C32.4105 36.4924 32.5718 36.4587 32.7374 36.4261L33.2468 36.3313L33.7803 36.2437C33.8712 36.2298 33.9629 36.2162 34.0556 36.2029L34.6224 36.1276L35.2092 36.0616L35.8145 36.0056C36.0191 35.9888 36.2266 35.9737 36.4366 35.9607L37.0739 35.9275L37.7248 35.907C37.8344 35.9047 37.9444 35.9029 38.0549 35.9017L38.3877 35.9C38.6105 35.9 38.8315 35.9023 39.0505 35.907L39.7014 35.9275L40.3388 35.9607C40.5488 35.9737 40.7562 35.9888 40.9609 36.0056L41.5662 36.0616L42.153 36.1276L42.7198 36.2029L43.2648 36.2866C43.3537 36.3012 43.4417 36.3161 43.5286 36.3313L44.038 36.4261C44.1208 36.4424 44.2025 36.459 44.2831 36.4758L44.7532 36.5797C44.9053 36.6152 45.0526 36.6515 45.195 36.6886L45.607 36.8016C45.6731 36.8207 45.7378 36.84 45.8013 36.8594L46.1654 36.9772C46.3391 37.0366 46.5 37.0968 46.6473 37.1573L46.9235 37.2786C47.4384 37.5214 47.7252 37.7638 47.7252 37.9753C47.7252 38.1869 47.4384 38.4293 46.9235 38.6721L46.6473 38.7934C46.5491 38.8337 46.4448 38.8739 46.3348 38.9138L45.9874 39.0327C45.8661 39.072 45.7391 39.1108 45.607 39.1491L45.195 39.2621C45.1238 39.2806 45.0514 39.299 44.9777 39.3171L44.5216 39.4236C44.3649 39.4582 44.2036 39.492 44.038 39.5246L43.5286 39.6194L42.9951 39.7069C42.9042 39.7209 42.8125 39.7345 42.7198 39.7478L42.153 39.8231L41.5662 39.8891L40.9609 39.945C40.7562 39.9619 40.5488 39.9769 40.3388 39.99L39.7014 40.0232L39.0505 40.0437C38.8315 40.0483 38.6105 40.0507 38.3877 40.0507C38.1649 40.0507 37.9439 40.0483 37.7248 40.0437L37.0739 40.0232L36.4366 39.99C36.2266 39.9769 36.0191 39.9619 35.8145 39.945L35.2092 39.8891L34.6224 39.8231L34.0556 39.7478L33.5106 39.6641C33.4217 39.6495 33.3337 39.6346 33.2468 39.6194L32.7374 39.5246C32.6546 39.5083 32.5729 39.4917 32.4923 39.4749L32.0222 39.371C31.8701 39.3355 31.7228 39.2992 31.5804 39.2621L31.1684 39.1491C31.1023 39.1299 31.0376 39.1107 30.9741 39.0913L30.61 38.9735C30.4363 38.9141 30.2754 38.8539 30.128 38.7934L29.8519 38.6721ZM29.0502 47.9055V45.4903C30.2586 46.1704 31.9276 46.6781 33.8758 46.9826L34.4776 47.0691C34.681 47.0958 34.8871 47.1203 35.0956 47.1427L35.7286 47.2034C36.5821 47.2757 37.4725 47.3128 38.3877 47.3128C39.3029 47.3128 40.1933 47.2757 41.0468 47.2034L41.6798 47.1427C41.8883 47.1203 42.0944 47.0958 42.2978 47.0691L42.8996 46.9826C44.8478 46.6781 46.5168 46.1704 47.7252 45.4903V47.9055L47.7179 47.9689C47.6357 48.3415 46.8551 48.9362 45.3874 49.4394C43.5704 50.0624 41.0686 50.4252 38.3877 50.4252C35.7068 50.4252 33.205 50.0624 31.3879 49.4394C29.834 48.9066 29.0502 48.2712 29.0502 47.9055ZM33.2002 70.3897C31.9918 71.0698 30.3228 71.5775 28.3746 71.882L27.7728 71.9685C27.5694 71.9951 27.3633 72.0197 27.1548 72.0421L26.5218 72.1028C25.6683 72.1751 24.7779 72.2122 23.8627 72.2122C22.9475 72.2122 22.0571 72.1751 21.2036 72.1028L20.5706 72.0421C20.3621 72.0197 20.156 71.9951 19.9526 71.9685L19.3508 71.882C17.4026 71.5775 15.7336 71.0698 14.5252 70.3897V72.8051C14.5252 73.1708 15.309 73.8062 16.8629 74.339C18.68 74.962 21.1818 75.3248 23.8627 75.3248C26.5436 75.3248 29.0454 74.962 30.8624 74.339C32.3301 73.8358 33.1107 73.2411 33.1929 72.8685L33.2002 72.8051V70.3897ZM29.0502 50.6778C30.2586 51.3579 31.9276 51.8656 33.8758 52.1701L34.4776 52.2566C34.681 52.2833 34.8871 52.3078 35.0956 52.3302L35.7286 52.3909C36.5821 52.4632 37.4725 52.5003 38.3877 52.5003C39.3029 52.5003 40.1933 52.4632 41.0468 52.3909L41.6798 52.3302C41.8883 52.3078 42.0944 52.2833 42.2978 52.2566L42.8996 52.1701C44.8478 51.8656 46.5168 51.3579 47.7252 50.6778V53.093L47.7179 53.1564C47.6357 53.529 46.8551 54.1237 45.3874 54.6269C43.5704 55.2499 41.0686 55.6127 38.3877 55.6127C35.7068 55.6127 33.205 55.2499 31.3879 54.6269C29.834 54.0941 29.0502 53.4587 29.0502 53.093V50.6778ZM47.7252 58.2796V55.8653C46.5168 56.5454 44.8478 57.0531 42.8996 57.3576L42.2978 57.4441C42.0944 57.4708 41.8883 57.4953 41.6798 57.5177L41.0468 57.5784C40.1933 57.6507 39.3029 57.6878 38.3877 57.6878C37.4725 57.6878 36.5821 57.6507 35.7286 57.5784L35.0956 57.5177C34.8871 57.4953 34.681 57.4708 34.4776 57.4441L33.8758 57.3576C31.9276 57.0531 30.2586 56.5454 29.0502 55.8653V58.2796C29.0502 58.541 29.4507 58.9403 30.2468 59.3413C31.343 59.5853 32.3023 59.8988 33.081 60.277C34.6332 60.6126 36.4644 60.7993 38.3877 60.7993C41.0686 60.7993 43.5704 60.4365 45.3874 59.8135C46.8551 59.3103 47.6357 58.7156 47.7179 58.343L47.7252 58.2796ZM32.6802 62.3243C31.52 62.0766 30.4886 61.7492 29.6328 61.35C29.5931 61.342 29.5532 61.334 29.513 61.3261L29.0036 61.2313C28.9167 61.2161 28.8287 61.2012 28.7398 61.1866L28.1948 61.1029L27.628 61.0276L27.0412 60.9616L26.4359 60.9056C26.2312 60.8888 26.0238 60.8737 25.8138 60.8607L25.1764 60.8275L24.5255 60.807C24.3065 60.8023 24.0855 60.7999 23.8627 60.7999L23.5299 60.8017C23.4194 60.8029 23.3094 60.8047 23.1998 60.807L22.5489 60.8275L21.9116 60.8607C21.7016 60.8737 21.4942 60.8888 21.2895 60.9056L20.6842 60.9616L20.0974 61.0276L19.5306 61.1029C19.4379 61.1162 19.3462 61.1298 19.2553 61.1437L18.7218 61.2313L18.2124 61.3261C18.0468 61.3587 17.8855 61.3924 17.7288 61.4271L17.2727 61.5335C17.199 61.5517 17.1266 61.57 17.0554 61.5886L16.6434 61.7016C16.5112 61.7399 16.3843 61.7787 16.2629 61.818L15.9156 61.9368C15.8055 61.9768 15.7013 62.017 15.603 62.0573L15.3269 62.1786C14.812 62.4214 14.5252 62.6638 14.5252 62.8753C14.5252 63.0869 14.812 63.3293 15.3269 63.5721L15.603 63.6934C15.7504 63.7539 15.9113 63.8141 16.085 63.8735L16.4491 63.9913C16.5126 64.0107 16.5773 64.0299 16.6434 64.0491L17.0554 64.1621C17.1978 64.1992 17.3451 64.2355 17.4972 64.271L17.9673 64.3748C18.0479 64.3917 18.1296 64.4083 18.2124 64.4246L18.7218 64.5194C18.8087 64.5346 18.8967 64.5495 18.9856 64.5641L19.5306 64.6478L20.0974 64.7231L20.6842 64.7891L21.2895 64.845C21.4942 64.8619 21.7016 64.8769 21.9116 64.89L22.5489 64.9232L23.1998 64.9437C23.4189 64.9483 23.6399 64.9507 23.8627 64.9507C24.0855 64.9507 24.3065 64.9483 24.5255 64.9437L25.1764 64.9232L25.8138 64.89C26.0238 64.8769 26.2312 64.8619 26.4359 64.845L27.0412 64.7891L27.628 64.7231L28.1948 64.6478C28.2875 64.6345 28.3792 64.6209 28.4701 64.6069L29.0036 64.5194L29.513 64.4246C29.6786 64.392 29.8399 64.3582 29.9966 64.3236L30.4527 64.2171C30.5264 64.199 30.5988 64.1806 30.67 64.1621L31.082 64.0491C31.2141 64.0108 31.3411 63.972 31.4624 63.9327L31.8098 63.8138C31.9198 63.7739 32.0241 63.7337 32.1223 63.6934L32.3985 63.5721C32.9134 63.3293 33.2002 63.0869 33.2002 62.8753C33.2002 62.7062 33.0169 62.5173 32.6802 62.3243ZM33.2002 67.6174V65.4122C32.1386 65.9499 30.72 66.3618 29.0639 66.6347L28.4704 66.7251C28.3699 66.7392 28.2687 66.7528 28.1666 66.766L27.5458 66.8389C27.2311 66.8724 26.9101 66.9015 26.5835 66.926L25.9229 66.9691L25.2485 67C25.135 67.0042 25.021 67.0078 24.9064 67.0109L24.2134 67.0234L23.8627 67.0249C23.7454 67.0249 23.6284 67.0244 23.512 67.0234L22.8189 67.0109C22.7044 67.0078 22.5904 67.0042 22.4769 67L21.8025 66.9691L21.1419 66.926C20.8153 66.9015 20.4943 66.8724 20.1796 66.8389L19.5587 66.766C19.3547 66.7397 19.1537 66.7115 18.9559 66.6813L18.3721 66.5852C16.8399 66.313 15.5244 65.9183 14.5252 65.4122V67.6174C14.5252 67.9831 15.309 68.6185 16.8629 69.1513C18.68 69.7743 21.1818 70.1371 23.8627 70.1371C26.5436 70.1371 29.0454 69.7743 30.8624 69.1513C32.3301 68.6481 33.1107 68.0534 33.1929 67.6808L33.2002 67.6174ZM57.0627 56.6492C62.7927 56.6492 67.4377 61.2944 67.4377 67.0245C67.4377 72.7547 62.7927 77.3999 57.0627 77.3999C51.3327 77.3999 46.6877 72.7547 46.6877 67.0245C46.6877 61.2944 51.3327 56.6492 57.0627 56.6492Z" fill="#BCABFF"/>
<path d="M63.7249 52.5967C63.2052 52.3554 62.5883 52.581 62.347 53.1007C62.1056 53.6205 62.3313 54.2374 62.851 54.4788C67.5036 56.6394 70.5504 61.1682 70.5504 65.9882C70.5504 66.5612 71.015 67.0257 71.5879 67.0257C72.1609 67.0257 72.6254 66.5612 72.6254 65.9882C72.6254 60.3403 69.093 55.0896 63.7249 52.5967Z" fill="#BCABFF"/>
<rect x="106" y="178" width="214" height="39" rx="19.5" fill="#6B48F4"/>
<rect x="106" y="56" width="383" height="41" rx="20.5" fill="#BCABFF"/>
<rect x="106" y="223" width="145" height="39" rx="19.5" fill="#BCABFF"/>
<path d="M33.4884 183.427C32.2733 183.025 31.0192 183.36 29.7754 184.323L29.7116 184.374L29.5238 184.363C27.7684 184.281 26.3597 184.67 25.3439 185.573L25.1687 185.737C24.051 186.847 23.922 188.408 24.6396 190.29L24.7523 190.568L24.2128 191.638L24.0485 191.65C21.3525 191.864 19.7754 193.183 19.6795 195.518L19.6748 195.748C19.6748 198.072 21.0729 199.445 23.5408 199.79L23.8248 199.824V200.9C23.8248 201.432 24.2253 201.871 24.7413 201.931L24.8623 201.938C25.3944 201.938 25.8329 201.537 25.8928 201.021L25.8998 200.9V198.839C25.8998 198.266 25.4353 197.802 24.8623 197.802C22.6135 197.802 21.7498 197.158 21.7498 195.748C21.7498 194.337 22.6135 193.694 24.8623 193.694C25.2107 193.694 25.5327 193.519 25.7237 193.235L25.789 193.123L26.8265 191.062C26.9707 190.775 26.9743 190.438 26.8363 190.149C26.116 188.638 26.116 187.721 26.6309 187.209C27.2688 186.576 28.3473 186.308 29.942 186.475C30.2316 186.505 30.5206 186.412 30.7384 186.219C31.615 185.441 32.2917 185.217 32.8362 185.397C33.4842 185.612 33.9525 186.077 34.2778 186.868C34.4957 187.398 35.102 187.651 35.6319 187.433C36.1618 187.215 36.4148 186.609 36.1968 186.079C35.65 184.749 34.735 183.84 33.4884 183.427Z" fill="#6B48F4"/>
<path d="M21.7567 233.687C21.8396 232.729 22.693 232.025 23.6769 232.025H26.9376L27.0586 232.032C27.5746 232.092 27.9751 232.531 27.9751 233.063L27.9681 233.184C27.9082 233.7 27.4696 234.1 26.9376 234.1H23.8251V238.25H26.9376L27.0586 238.257C27.5746 238.317 27.9751 238.756 27.9751 239.288C27.9751 239.861 27.5106 240.325 26.9376 240.325H23.6769L23.5227 240.319C22.5544 240.247 21.7501 239.494 21.7501 238.509V233.841L21.7567 233.687Z" fill="#6B48F4"/>
<path d="M40.4185 233.687C40.3356 232.729 39.4821 232.025 38.4983 232.025H35.2376L35.1166 232.032C34.6006 232.092 34.2001 232.531 34.2001 233.063L34.2071 233.184C34.267 233.7 34.7055 234.1 35.2376 234.1H38.3501V238.25H35.2376L35.1166 238.257C34.6006 238.317 34.2001 238.756 34.2001 239.288C34.2001 239.861 34.6646 240.325 35.2376 240.325H38.4983L38.6525 240.319C39.6208 240.247 40.4251 239.494 40.4251 238.509V233.841L40.4185 233.687Z" fill="#6B48F4"/>
<path d="M45.7967 185.258C46.2811 183.932 47.6986 183.263 49.7628 183.263L50.0004 183.267C52.1098 183.341 53.4449 184.413 53.8106 186.289L53.8257 186.375H54.9503L55.2514 186.378C59.0219 186.446 61.1753 187.808 61.1753 190.525L61.1709 190.737C61.0698 193.105 59.2561 194.388 56.1139 194.632L55.8384 194.65L55.8039 194.755C55.3195 196.08 53.9021 196.75 51.8378 196.75L51.5771 196.748C50.5496 196.735 49.7065 196.638 49.0635 196.417L48.9459 196.602C47.9787 198.059 46.4944 198.825 44.5753 198.825L44.3163 198.82C42.6932 198.76 41.3972 198.132 40.4793 196.978L40.4085 197.085C39.6192 198.217 38.5865 198.825 37.3128 198.825L37.0098 198.82C36.2122 198.793 35.4996 198.657 34.8791 198.406L34.8591 198.397L34.1693 201.152L34.1332 201.267C33.9499 201.753 33.4274 202.036 32.9112 201.907C32.3553 201.768 32.0173 201.204 32.1563 200.648L33.1938 196.498L33.231 196.379C33.4908 195.69 34.3937 195.476 34.9339 196.016L35.049 196.122C35.5307 196.53 36.2705 196.75 37.3128 196.75C38.169 196.75 38.8756 196.044 39.4411 194.347C39.7564 193.401 41.0943 193.401 41.4096 194.347C41.9625 196.006 42.955 196.75 44.5753 196.75C46.1956 196.75 47.1882 196.006 47.7411 194.347L47.7857 194.233C48.1797 193.36 49.4354 193.492 49.7096 194.329L49.7379 194.433L49.7978 194.457L49.9578 194.507C50.3621 194.614 50.9957 194.675 51.8378 194.675C53.4075 194.675 53.9128 194.338 53.9128 193.638C53.9128 193.065 54.3773 192.6 54.9503 192.6C57.9102 192.6 59.1003 191.886 59.1003 190.525C59.1003 189.164 57.9102 188.45 54.9503 188.45H52.8753L52.7543 188.443C52.2383 188.383 51.8378 187.945 51.8378 187.413C51.8378 185.911 51.2648 185.338 49.7628 185.338C48.1931 185.338 47.6878 185.674 47.6878 186.375L47.6808 186.496C47.6209 187.012 47.1824 187.413 46.6503 187.413C45.0806 187.413 44.5753 187.749 44.5753 188.45L44.5683 188.571C44.5084 189.087 44.0699 189.488 43.5378 189.488C42.9648 189.488 42.5003 189.023 42.5003 188.45L42.5055 188.247C42.5922 186.582 43.756 185.626 45.6734 185.393L45.756 185.384L45.7967 185.258Z" fill="#6B48F4"/>
<path fill-rule="evenodd" clip-rule="evenodd" d="M35.2375 199.863H22.7875C22.2145 199.863 21.75 200.327 21.75 200.9V204.013C21.75 205.156 22.6756 206.084 23.8186 206.088L21.8589 223.725H15.525C14.4311 223.725 13.5349 224.572 13.4557 225.645L13.45 225.8V227.875C13.45 228.969 14.2965 229.865 15.3701 229.944L15.525 229.95V246.55H12.4125L12.2915 246.557C11.7755 246.617 11.375 247.055 11.375 247.588C11.375 248.161 11.8395 248.625 12.4125 248.625H51.8375L51.9585 248.618C52.4745 248.558 52.875 248.12 52.875 247.588C52.875 247.015 52.4105 246.55 51.8375 246.55H46.65V219.575H65.325V223.725H55.9875L55.8665 223.732C55.3505 223.792 54.95 224.23 54.95 224.763C54.95 225.336 55.4145 225.8 55.9875 225.8H65.325V228.913L65.332 229.034C65.3919 229.55 65.8304 229.95 66.3625 229.95C66.9355 229.95 67.4 229.486 67.4 228.913V219.575H69.475C70.621 219.575 71.55 218.646 71.55 217.5V215.425C71.55 214.279 70.621 213.35 69.475 213.35H67.2962C66.83 211.053 64.8465 209.308 62.4375 209.205L62.2125 209.2H49.7625C47.2528 209.2 45.1594 210.982 44.6788 213.35H42.5C41.354 213.35 40.425 214.279 40.425 215.425V217.5C40.425 218.646 41.354 219.575 42.5 219.575H44.575V223.725H23.9467L25.8937 206.202L25.8997 206.088H32.1249C32.125 206.125 32.1271 206.164 32.1313 206.202L32.4645 209.2H29.0125L28.8915 209.207C28.3755 209.267 27.975 209.705 27.975 210.238C27.975 210.811 28.4395 211.275 29.0125 211.275H32.695L32.9256 213.35H31.0875L30.9665 213.357C30.4505 213.417 30.05 213.855 30.05 214.388C30.05 214.961 30.5145 215.425 31.0875 215.425H33.1561L33.7442 220.718L33.7645 220.837C33.8811 221.344 34.3611 221.693 34.8899 221.635C35.4594 221.571 35.8698 221.058 35.8065 220.489L34.2064 206.088C35.3494 206.084 36.275 205.156 36.275 204.013V200.9C36.275 200.327 35.8105 199.863 35.2375 199.863ZM62.2125 211.275C63.5677 211.275 64.7206 212.141 65.1479 213.35H46.8271C47.235 212.196 48.3043 211.354 49.5796 211.28L49.7625 211.275H62.2125ZM42.5 215.425V217.5H69.475V215.425H42.5ZM22.775 225.8C22.7842 225.8 22.7934 225.8 22.8025 225.8H44.575V242.4H43.5375L43.4165 242.407C42.9005 242.467 42.5 242.905 42.5 243.438C42.5 244.011 42.9645 244.475 43.5375 244.475H44.575V246.55H17.6V244.475H39.3875L39.5085 244.468C40.0245 244.408 40.425 243.97 40.425 243.438C40.425 242.865 39.9605 242.4 39.3875 242.4H17.6V229.95H39.3875C39.9605 229.95 40.425 229.486 40.425 228.913C40.425 228.38 40.0245 227.942 39.5085 227.882L39.3875 227.875H15.525V225.8H22.775ZM34.2 201.938H23.825V204.013H34.2V201.938Z" fill="#6B48F4"/>
<path d="M73.625 247.588C73.625 247.015 73.1605 246.55 72.5875 246.55H67.4V233.063L67.393 232.942C67.3331 232.426 66.8946 232.025 66.3625 232.025C65.7895 232.025 65.325 232.49 65.325 233.063V236.175H55.9875L55.8665 236.182C55.3505 236.242 54.95 236.68 54.95 237.213C54.95 237.786 55.4145 238.25 55.9875 238.25H65.325V246.55H58.0625L57.9415 246.557C57.4255 246.617 57.025 247.055 57.025 247.588C57.025 248.161 57.4895 248.625 58.0625 248.625H72.5875L72.7085 248.618C73.2245 248.558 73.625 248.12 73.625 247.588Z" fill="#6B48F4"/>
<path d="M62.2125 250.7C62.7855 250.7 63.25 251.165 63.25 251.738C63.25 252.27 62.8495 252.708 62.3335 252.768L62.2125 252.775H20.7125C20.1395 252.775 19.675 252.311 19.675 251.738C19.675 251.205 20.0755 250.767 20.5915 250.707L20.7125 250.7H62.2125Z" fill="#6B48F4"/>
<path d="M57.025 228.913C57.025 228.34 56.5605 227.875 55.9875 227.875H49.7625L49.6415 227.882C49.1255 227.942 48.725 228.38 48.725 228.913C48.725 229.486 49.1895 229.95 49.7625 229.95H55.9875L56.1085 229.943C56.6245 229.883 57.025 229.445 57.025 228.913Z" fill="#6B48F4"/>
<rect x="106" y="10" width="273" height="41" rx="20.5" fill="#6B48F4"/>
<path d="M131.4 69.04C128.754 69.04 127.296 70.588 127.296 72.388C127.296 73.594 127.908 74.584 129.078 75.124C127.548 75.718 126.72 76.924 126.72 78.49C126.72 80.686 128.43 82.36 131.4 82.36C134.388 82.36 136.08 80.686 136.08 78.49C136.08 76.924 135.252 75.718 133.74 75.124C134.892 74.584 135.504 73.594 135.504 72.388C135.504 70.588 134.064 69.04 131.4 69.04ZM131.436 74.386C130.158 74.386 129.33 73.666 129.33 72.568C129.33 71.488 130.14 70.75 131.436 70.75C132.642 70.75 133.47 71.488 133.47 72.568C133.47 73.666 132.642 74.386 131.436 74.386ZM131.418 80.632C129.798 80.632 128.754 79.75 128.754 78.4C128.754 77.032 129.798 76.078 131.418 76.078C133.002 76.078 134.046 77.032 134.046 78.4C134.046 79.732 133.002 80.632 131.418 80.632ZM140.167 82L146.521 71.182V69.4H137.629V71.182H144.415L137.899 82H140.167ZM155.794 69.004C153.958 69.004 152.734 70.354 152.734 72.01C152.734 73.666 153.958 75.016 155.794 75.016C157.594 75.016 158.836 73.666 158.836 72.01C158.836 70.354 157.594 69.004 155.794 69.004ZM153.94 81.982H155.866L165.1 69.382H163.174L153.94 81.982ZM155.794 73.738C154.84 73.738 154.156 73 154.156 72.01C154.156 71.02 154.84 70.282 155.794 70.282C156.73 70.282 157.414 71.02 157.414 72.01C157.414 72.982 156.73 73.738 155.794 73.738ZM163.282 76.33C161.446 76.33 160.222 77.68 160.222 79.336C160.222 80.992 161.446 82.342 163.282 82.342C165.082 82.342 166.324 80.992 166.324 79.336C166.324 77.68 165.082 76.33 163.282 76.33ZM163.282 81.064C162.328 81.064 161.644 80.326 161.644 79.336C161.644 78.346 162.328 77.608 163.282 77.608C164.218 77.608 164.902 78.346 164.902 79.336C164.902 80.308 164.218 81.064 163.282 81.064ZM172.442 78.472C172.442 80.53 173.828 82.28 176.054 82.28C177.062 82.28 177.818 81.916 178.406 81.286V82H179.876V71.5H178.406V75.658C177.818 75.028 177.062 74.664 176.054 74.664C173.828 74.664 172.442 76.414 172.442 78.472ZM173.968 78.472C173.968 77.086 174.878 76.022 176.236 76.022C177.118 76.022 177.888 76.428 178.406 77.198V79.746C177.93 80.488 177.146 80.922 176.236 80.922C174.878 80.922 173.968 79.858 173.968 78.472ZM188.573 80.852L187.523 80.012C187.089 80.6 186.375 80.978 185.521 80.978C184.163 80.978 183.225 80.18 183.127 78.64H188.335C188.391 78.43 188.433 78.108 188.433 77.786C188.433 75.994 187.173 74.664 185.227 74.664C182.987 74.664 181.643 76.358 181.643 78.472C181.643 80.53 183.085 82.28 185.521 82.28C186.837 82.28 187.915 81.734 188.573 80.852ZM185.199 75.868C186.333 75.868 186.963 76.68 186.991 77.562H183.197C183.421 76.47 184.149 75.868 185.199 75.868ZM189.542 81.006C190.2 81.804 191.082 82.28 192.272 82.28C193.588 82.28 194.708 81.454 194.722 80.068C194.722 77.646 191.264 78.122 191.264 76.708C191.264 76.232 191.6 75.84 192.272 75.84C192.86 75.84 193.35 76.19 193.728 76.694L194.708 75.84C194.204 75.168 193.294 74.664 192.258 74.664C190.844 74.664 189.864 75.588 189.864 76.75C189.864 79.242 193.322 78.724 193.322 80.152C193.322 80.684 192.944 81.104 192.258 81.104C191.558 81.104 190.998 80.726 190.536 80.138L189.542 81.006ZM200.305 82H201.747V77.24C202.125 76.624 202.685 76.022 203.651 76.022C204.659 76.022 205.275 76.694 205.275 77.814V82H206.731V77.758C206.731 75.714 205.555 74.664 203.987 74.664C202.979 74.664 202.279 75.07 201.747 75.63V71.5H200.305V82ZM212.249 74.664C209.967 74.664 208.413 76.386 208.413 78.472C208.413 80.558 209.967 82.28 212.249 82.28C214.545 82.28 216.085 80.558 216.085 78.472C216.085 76.386 214.545 74.664 212.249 74.664ZM212.263 80.922C210.905 80.922 209.925 79.83 209.925 78.472C209.925 77.114 210.905 76.022 212.263 76.022C213.593 76.022 214.573 77.1 214.573 78.472C214.573 79.816 213.593 80.922 212.263 80.922ZM217.887 82H219.329V77.24C219.665 76.638 220.197 76.022 221.093 76.022C222.017 76.022 222.577 76.638 222.577 77.674V82H224.033V77.618C224.033 77.478 224.033 77.352 224.019 77.226C224.397 76.554 224.943 76.022 225.783 76.022C226.693 76.022 227.267 76.638 227.267 77.674V82H228.723V77.618C228.723 75.672 227.589 74.664 226.119 74.664C224.901 74.664 224.201 75.238 223.655 75.938C223.207 75.098 222.395 74.664 221.429 74.664C220.491 74.664 219.833 75.056 219.329 75.602V74.944H217.887V82ZM230.957 82H232.399V77.24C232.735 76.638 233.267 76.022 234.163 76.022C235.087 76.022 235.647 76.638 235.647 77.674V82L237.103 82V77.618C237.103 77.478 237.103 77.352 237.089 77.226C237.467 76.554 238.013 76.022 238.853 76.022C239.763 76.022 240.337 76.638 240.337 77.674V82H241.793V77.618C241.793 75.672 240.659 74.664 239.189 74.664C237.971 74.664 237.271 75.238 236.725 75.938C236.277 75.098 235.465 74.664 234.499 74.664C233.561 74.664 232.903 75.056 232.399 75.602V74.944H230.957V82ZM250.398 80.852L249.348 80.012C248.914 80.6 248.2 80.978 247.346 80.978C245.988 80.978 245.05 80.18 244.952 78.64H250.16C250.216 78.43 250.258 78.108 250.258 77.786C250.258 75.994 248.998 74.664 247.052 74.664C244.812 74.664 243.468 76.358 243.468 78.472C243.468 80.53 244.91 82.28 247.346 82.28C248.662 82.28 249.74 81.734 250.398 80.852ZM247.024 75.868C248.158 75.868 248.788 76.68 248.816 77.562L245.022 77.562C245.246 76.47 245.974 75.868 247.024 75.868ZM251.367 81.006C252.025 81.804 252.907 82.28 254.097 82.28C255.413 82.28 256.533 81.454 256.547 80.068C256.547 77.646 253.089 78.122 253.089 76.708C253.089 76.232 253.425 75.84 254.097 75.84C254.685 75.84 255.175 76.19 255.553 76.694L256.533 75.84C256.029 75.168 255.119 74.664 254.083 74.664C252.669 74.664 251.689 75.588 251.689 76.75C251.689 79.242 255.147 78.724 255.147 80.152C255.147 80.684 254.769 81.104 254.083 81.104C253.383 81.104 252.823 80.726 252.361 80.138L251.367 81.006Z" fill="black"/>
<path d="M122.152 248H130.702V246.218H124.546L127.84 242.96C129.244 241.538 130.36 240.242 130.36 238.532C130.36 236.426 128.65 235.04 126.508 235.04C124.438 235.04 122.962 236.048 121.918 237.686L123.538 238.676C124.24 237.506 125.05 236.804 126.328 236.804C127.48 236.804 128.344 237.488 128.344 238.694C128.344 239.882 127.696 240.584 126.436 241.88L122.152 246.218V248ZM131.58 244.49H137.664V248H139.626V244.49H141.012V242.708H139.626V235.4H137.286L131.58 242.708V244.49ZM133.65 242.708L137.664 237.578V242.708H133.65ZM150.231 235.004C148.395 235.004 147.171 236.354 147.171 238.01C147.171 239.666 148.395 241.016 150.231 241.016C152.031 241.016 153.273 239.666 153.273 238.01C153.273 236.354 152.031 235.004 150.231 235.004ZM148.377 247.982H150.303L159.537 235.382H157.611L148.377 247.982ZM150.231 239.738C149.277 239.738 148.593 239 148.593 238.01C148.593 237.02 149.277 236.282 150.231 236.282C151.167 236.282 151.851 237.02 151.851 238.01C151.851 238.982 151.167 239.738 150.231 239.738ZM157.719 242.33C155.883 242.33 154.659 243.68 154.659 245.336C154.659 246.992 155.883 248.342 157.719 248.342C159.519 248.342 160.761 246.992 160.761 245.336C160.761 243.68 159.519 242.33 157.719 242.33ZM157.719 247.064C156.765 247.064 156.081 246.326 156.081 245.336C156.081 244.346 156.765 243.608 157.719 243.608C158.655 243.608 159.339 244.346 159.339 245.336C159.339 246.308 158.655 247.064 157.719 247.064ZM166.88 244.472C166.88 246.53 168.266 248.28 170.492 248.28C171.5 248.28 172.256 247.916 172.844 247.286V248H174.314V237.5H172.844V241.658C172.256 241.028 171.5 240.664 170.492 240.664C168.266 240.664 166.88 242.414 166.88 244.472ZM168.406 244.472C168.406 243.086 169.316 242.022 170.674 242.022C171.556 242.022 172.326 242.428 172.844 243.198V245.746C172.368 246.488 171.584 246.922 170.674 246.922C169.316 246.922 168.406 245.858 168.406 244.472ZM183.011 246.852L181.961 246.012C181.527 246.6 180.813 246.978 179.959 246.978C178.601 246.978 177.663 246.18 177.565 244.64H182.773C182.829 244.43 182.871 244.108 182.871 243.786C182.871 241.994 181.611 240.664 179.665 240.664C177.425 240.664 176.081 242.358 176.081 244.472C176.081 246.53 177.523 248.28 179.959 248.28C181.275 248.28 182.353 247.734 183.011 246.852ZM179.637 241.868C180.771 241.868 181.401 242.68 181.429 243.562H177.635C177.859 242.47 178.587 241.868 179.637 241.868ZM183.98 247.006C184.638 247.804 185.52 248.28 186.71 248.28C188.026 248.28 189.146 247.454 189.16 246.068C189.16 243.646 185.702 244.122 185.702 242.708C185.702 242.232 186.038 241.84 186.71 241.84C187.298 241.84 187.788 242.19 188.166 242.694L189.146 241.84C188.642 241.168 187.732 240.664 186.696 240.664C185.282 240.664 184.302 241.588 184.302 242.75C184.302 245.242 187.76 244.724 187.76 246.152C187.76 246.684 187.382 247.104 186.696 247.104C185.996 247.104 185.436 246.726 184.974 246.138L183.98 247.006ZM195.078 248H196.674V243.744H202.19V248H203.8V238.2H202.19V242.274H196.674V238.2H195.078V248Z" fill="black"/>
<path d="M132.03 23.04C128.322 23.04 126.702 25.83 126.702 29.844C126.702 34.128 128.538 36.36 131.634 36.36C134.424 36.36 136.08 34.398 136.08 32.076C136.08 29.826 134.478 28.044 132.048 28.044C130.716 28.044 129.6 28.494 128.754 29.322C128.862 26.478 129.942 24.84 132.012 24.84C133.11 24.84 133.902 25.38 134.604 26.37L136.152 25.146C135.306 23.94 134.028 23.04 132.03 23.04ZM131.724 29.808C133.074 29.808 134.046 30.816 134.046 32.148C134.046 33.516 133.128 34.56 131.598 34.56C130.158 34.56 129.096 33.66 128.808 31.284C129.51 30.294 130.554 29.808 131.724 29.808ZM142.718 23.04C139.01 23.04 137.39 25.83 137.39 29.844C137.39 34.128 139.226 36.36 142.322 36.36C145.112 36.36 146.768 34.398 146.768 32.076C146.768 29.826 145.166 28.044 142.736 28.044C141.404 28.044 140.288 28.494 139.442 29.322C139.55 26.478 140.63 24.84 142.7 24.84C143.798 24.84 144.59 25.38 145.292 26.37L146.84 25.146C145.994 23.94 144.716 23.04 142.718 23.04ZM142.412 29.808C143.762 29.808 144.734 30.816 144.734 32.148C144.734 33.516 143.816 34.56 142.286 34.56C140.846 34.56 139.784 33.66 139.496 31.284C140.198 30.294 141.242 29.808 142.412 29.808ZM156.022 23.004C154.186 23.004 152.962 24.354 152.962 26.01C152.962 27.666 154.186 29.016 156.022 29.016C157.822 29.016 159.064 27.666 159.064 26.01C159.064 24.354 157.822 23.004 156.022 23.004ZM154.168 35.982H156.094L165.328 23.382H163.402L154.168 35.982ZM156.022 27.738C155.068 27.738 154.384 27 154.384 26.01C154.384 25.02 155.068 24.282 156.022 24.282C156.958 24.282 157.642 25.02 157.642 26.01C157.642 26.982 156.958 27.738 156.022 27.738ZM163.51 30.33C161.674 30.33 160.45 31.68 160.45 33.336C160.45 34.992 161.674 36.342 163.51 36.342C165.31 36.342 166.552 34.992 166.552 33.336C166.552 31.68 165.31 30.33 163.51 30.33ZM163.51 35.064C162.556 35.064 161.872 34.326 161.872 33.336C161.872 32.346 162.556 31.608 163.51 31.608C164.446 31.608 165.13 32.346 165.13 33.336C165.13 34.308 164.446 35.064 163.51 35.064ZM172.671 32.472C172.671 34.53 174.057 36.28 176.283 36.28C177.291 36.28 178.047 35.916 178.635 35.286V36H180.105V25.5H178.635V29.658C178.047 29.028 177.291 28.664 176.283 28.664C174.057 28.664 172.671 30.414 172.671 32.472ZM174.197 32.472C174.197 31.086 175.107 30.022 176.465 30.022C177.347 30.022 178.117 30.428 178.635 31.198V33.746C178.159 34.488 177.375 34.922 176.465 34.922C175.107 34.922 174.197 33.858 174.197 32.472ZM188.802 34.852L187.752 34.012C187.318 34.6 186.604 34.978 185.75 34.978C184.392 34.978 183.454 34.18 183.356 32.64H188.564C188.62 32.43 188.662 32.108 188.662 31.786C188.662 29.994 187.402 28.664 185.456 28.664C183.216 28.664 181.872 30.358 181.872 32.472C181.872 34.53 183.314 36.28 185.75 36.28C187.066 36.28 188.144 35.734 188.802 34.852ZM185.428 29.868C186.562 29.868 187.192 30.68 187.22 31.562H183.426C183.65 30.47 184.378 29.868 185.428 29.868ZM189.771 35.006C190.429 35.804 191.311 36.28 192.501 36.28C193.817 36.28 194.937 35.454 194.951 34.068C194.951 31.646 191.493 32.122 191.493 30.708C191.493 30.232 191.829 29.84 192.501 29.84C193.089 29.84 193.579 30.19 193.957 30.694L194.937 29.84C194.433 29.168 193.523 28.664 192.487 28.664C191.073 28.664 190.093 29.588 190.093 30.75C190.093 33.242 193.551 32.724 193.551 34.152C193.551 34.684 193.173 35.104 192.487 35.104C191.787 35.104 191.227 34.726 190.765 34.138L189.771 35.006ZM199.623 28.944V30.246H200.953V36H202.409V30.246L204.747 30.246V28.944L202.409 28.944V28.09C202.409 27.292 202.885 26.802 203.599 26.802C203.991 26.802 204.299 26.928 204.537 27.11L205.153 25.892C204.747 25.668 204.215 25.5 203.571 25.5C201.933 25.5 200.953 26.634 200.953 28.132V28.944H199.623ZM212.099 34.852L211.049 34.012C210.615 34.6 209.901 34.978 209.047 34.978C207.689 34.978 206.751 34.18 206.653 32.64H211.861C211.917 32.43 211.959 32.108 211.959 31.786C211.959 29.994 210.699 28.664 208.753 28.664C206.513 28.664 205.169 30.358 205.169 32.472C205.169 34.53 206.611 36.28 209.047 36.28C210.363 36.28 211.441 35.734 212.099 34.852ZM208.725 29.868C209.859 29.868 210.489 30.68 210.517 31.562H206.723C206.947 30.47 207.675 29.868 208.725 29.868ZM213.85 36H215.292V31.24C215.628 30.638 216.16 30.022 217.056 30.022C217.98 30.022 218.54 30.638 218.54 31.674V36H219.996V31.618C219.996 31.478 219.996 31.352 219.982 31.226C220.36 30.554 220.906 30.022 221.746 30.022C222.656 30.022 223.23 30.638 223.23 31.674V36H224.686V31.618C224.686 29.672 223.552 28.664 222.082 28.664C220.864 28.664 220.164 29.238 219.618 29.938C219.17 29.098 218.358 28.664 217.392 28.664C216.454 28.664 215.796 29.056 215.292 29.602V28.944H213.85V36ZM226.92 36H228.362V31.24C228.698 30.638 229.23 30.022 230.126 30.022C231.05 30.022 231.61 30.638 231.61 31.674V36H233.066V31.618C233.066 31.478 233.066 31.352 233.052 31.226C233.43 30.554 233.976 30.022 234.816 30.022C235.726 30.022 236.3 30.638 236.3 31.674V36L237.756 36V31.618C237.756 29.672 236.622 28.664 235.152 28.664C233.934 28.664 233.234 29.238 232.688 29.938C232.24 29.098 231.428 28.664 230.462 28.664C229.524 28.664 228.866 29.056 228.362 29.602V28.944H226.92V36ZM246.36 34.852L245.31 34.012C244.876 34.6 244.162 34.978 243.308 34.978C241.95 34.978 241.012 34.18 240.914 32.64H246.122C246.178 32.43 246.22 32.108 246.22 31.786C246.22 29.994 244.96 28.664 243.014 28.664C240.774 28.664 239.43 30.358 239.43 32.472C239.43 34.53 240.872 36.28 243.308 36.28C244.624 36.28 245.702 35.734 246.36 34.852ZM242.986 29.868C244.12 29.868 244.75 30.68 244.778 31.562H240.984C241.208 30.47 241.936 29.868 242.986 29.868ZM247.33 35.006C247.988 35.804 248.87 36.28 250.06 36.28C251.376 36.28 252.496 35.454 252.51 34.068C252.51 31.646 249.052 32.122 249.052 30.708C249.052 30.232 249.388 29.84 250.06 29.84C250.648 29.84 251.138 30.19 251.516 30.694L252.496 29.84C251.992 29.168 251.082 28.664 250.046 28.664C248.632 28.664 247.652 29.588 247.652 30.75C247.652 33.242 251.11 32.724 251.11 34.152C251.11 34.684 250.732 35.104 250.046 35.104C249.346 35.104 248.786 34.726 248.324 34.138L247.33 35.006Z" fill="white"/>
<path d="M124.684 199.49H130.768V203H132.73V199.49H134.116V197.708H132.73V190.4H130.39L124.684 197.708V199.49ZM126.754 197.708L130.768 192.578V197.708H126.754ZM140.298 190.04C137.076 190.04 135.51 192.938 135.51 196.7C135.51 200.462 137.076 203.36 140.298 203.36C143.52 203.36 145.068 200.462 145.068 196.7C145.068 192.938 143.52 190.04 140.298 190.04ZM140.298 191.876C142.116 191.876 143.034 193.874 143.034 196.7C143.034 199.508 142.116 201.524 140.298 201.524C138.462 201.524 137.544 199.526 137.544 196.7C137.544 193.892 138.462 191.876 140.298 191.876ZM154.233 190.004C152.397 190.004 151.173 191.354 151.173 193.01C151.173 194.666 152.397 196.016 154.233 196.016C156.033 196.016 157.275 194.666 157.275 193.01C157.275 191.354 156.033 190.004 154.233 190.004ZM152.379 202.982H154.305L163.539 190.382H161.613L152.379 202.982ZM154.233 194.738C153.279 194.738 152.595 194 152.595 193.01C152.595 192.02 153.279 191.282 154.233 191.282C155.169 191.282 155.853 192.02 155.853 193.01C155.853 193.982 155.169 194.738 154.233 194.738ZM161.721 197.33C159.885 197.33 158.661 198.68 158.661 200.336C158.661 201.992 159.885 203.342 161.721 203.342C163.521 203.342 164.763 201.992 164.763 200.336C164.763 198.68 163.521 197.33 161.721 197.33ZM161.721 202.064C160.767 202.064 160.083 201.326 160.083 200.336C160.083 199.346 160.767 198.608 161.721 198.608C162.657 198.608 163.341 199.346 163.341 200.336C163.341 201.308 162.657 202.064 161.721 202.064ZM170.882 199.472C170.882 201.53 172.268 203.28 174.494 203.28C175.502 203.28 176.258 202.916 176.846 202.286V203H178.316V192.5H176.846V196.658C176.258 196.028 175.502 195.664 174.494 195.664C172.268 195.664 170.882 197.414 170.882 199.472ZM172.408 199.472C172.408 198.086 173.318 197.022 174.676 197.022C175.558 197.022 176.328 197.428 176.846 198.198V200.746C176.37 201.488 175.586 201.922 174.676 201.922C173.318 201.922 172.408 200.858 172.408 199.472ZM187.013 201.852L185.963 201.012C185.529 201.6 184.815 201.978 183.961 201.978C182.603 201.978 181.665 201.18 181.567 199.64H186.775C186.831 199.43 186.873 199.108 186.873 198.786C186.873 196.994 185.613 195.664 183.667 195.664C181.427 195.664 180.083 197.358 180.083 199.472C180.083 201.53 181.525 203.28 183.961 203.28C185.277 203.28 186.355 202.734 187.013 201.852ZM183.639 196.868C184.773 196.868 185.403 197.68 185.431 198.562H181.637C181.861 197.47 182.589 196.868 183.639 196.868ZM187.982 202.006C188.64 202.804 189.522 203.28 190.712 203.28C192.028 203.28 193.148 202.454 193.162 201.068C193.162 198.646 189.704 199.122 189.704 197.708C189.704 197.232 190.04 196.84 190.712 196.84C191.3 196.84 191.79 197.19 192.168 197.694L193.148 196.84C192.644 196.168 191.734 195.664 190.698 195.664C189.284 195.664 188.304 196.588 188.304 197.75C188.304 200.242 191.762 199.724 191.762 201.152C191.762 201.684 191.384 202.104 190.698 202.104C189.998 202.104 189.438 201.726 188.976 201.138L187.982 202.006ZM199.08 203H200.676V198.688H203.98V197.33H200.676V194.558H204.54V193.2H199.08V203Z" fill="white"/>
</svg>
