<svg width="392" height="95" viewBox="0 0 392 95" fill="none" xmlns="http://www.w3.org/2000/svg">
<circle cx="371.5" cy="74.5" r="20.5" transform="rotate(-180 371.5 74.5)" fill="#FFB648"/>
<circle cx="371.5" cy="20.5" r="20.5" transform="rotate(-180 371.5 20.5)" fill="#F45800"/>
<circle cx="312.5" cy="74.5" r="20.5" transform="rotate(-180 312.5 74.5)" fill="#FFB648"/>
<circle cx="312.5" cy="20.5" r="20.5" transform="rotate(-180 312.5 20.5)" fill="#F45800"/>
<circle cx="253.5" cy="74.5" r="20.5" transform="rotate(-180 253.5 74.5)" fill="#FFB648"/>
<circle cx="253.5" cy="20.5" r="20.5" transform="rotate(-180 253.5 20.5)" fill="#F45800"/>
<ellipse cx="194" cy="74.5" rx="21" ry="20.5" transform="rotate(-180 194 74.5)" fill="#FFB648"/>
<ellipse cx="194" cy="20.5" rx="21" ry="20.5" transform="rotate(-180 194 20.5)" fill="#FFB648"/>
<circle cx="134.5" cy="74.5" r="20.5" transform="rotate(-180 134.5 74.5)" fill="#FFB648"/>
<circle cx="134.5" cy="20.5" r="20.5" transform="rotate(-180 134.5 20.5)" fill="#FFB648"/>
<path fill-rule="evenodd" clip-rule="evenodd" d="M20.1242 22.4564C20.3307 22.4521 20.5394 22.45 20.7502 22.45L21.0648 22.4516C21.1692 22.4527 21.273 22.4543 21.3762 22.4564L21.9887 22.4759L22.586 22.5083C22.8806 22.5277 23.169 22.552 23.4504 22.5811L24.0033 22.6458C26.9898 23.0369 29.0502 24.013 29.0502 25.5625V31.7875C29.0502 32.3604 28.5857 32.825 28.0127 32.825C27.4806 32.825 27.0421 32.4244 26.9822 31.9084L26.9752 31.7875V27.7683C26.1648 28.0914 25.1526 28.3286 24.0033 28.4791L23.4504 28.5438C23.169 28.5729 22.8806 28.5972 22.586 28.6166L21.9887 28.649L21.3762 28.6685C21.1697 28.6728 20.961 28.675 20.7502 28.675C20.5394 28.675 20.3307 28.6728 20.1242 28.6685L19.5117 28.649L18.9144 28.6166C18.6198 28.5972 18.3313 28.5729 18.05 28.5438L17.4971 28.4791C14.5106 28.088 12.4502 27.1119 12.4502 25.5625C12.4502 24.013 14.5106 23.0369 17.4971 22.6458L18.05 22.5811C18.3313 22.552 18.6198 22.5277 18.9144 22.5083L19.5117 22.4759L20.1242 22.4564ZM26.9752 25.5625L26.9525 25.5479C26.717 25.4144 26.3845 25.2792 25.9726 25.1543L25.7601 25.0928C24.4656 24.7347 22.6733 24.525 20.7507 24.525C18.8282 24.525 17.0358 24.7347 15.7413 25.0928C15.3034 25.2139 14.9421 25.3474 14.6747 25.4811L14.5252 25.5625L14.7017 25.6572C14.9206 25.7641 15.1993 25.8706 15.5288 25.9706L15.7413 26.0321C17.0358 26.3902 18.8282 26.6 20.7507 26.6C22.6733 26.6 24.4656 26.3902 25.7601 26.0321C26.198 25.911 26.5594 25.7775 26.8268 25.6438L26.9752 25.5625Z" fill="#FFB648"/>
<path d="M61.9718 61.6715C60.8727 60.4839 59.3688 59.8 57.7631 59.8C55.1954 59.8 53.0179 61.5349 52.2104 63.95H50.8377L50.7167 63.9569C50.2007 64.0169 49.8002 64.4554 49.8002 64.9875C49.8002 65.5604 50.2647 66.025 50.8377 66.025H51.8752C51.8752 66.3783 51.9031 66.725 51.9567 67.0625H50.8377L50.7167 67.0694C50.2007 67.1294 49.8002 67.5679 49.8002 68.1C49.8002 68.6729 50.2647 69.1375 50.8377 69.1375H52.663C53.6801 70.9965 55.5806 72.25 57.7631 72.25C59.228 72.25 60.6108 71.681 61.6808 70.6721C62.0904 70.2859 62.1195 69.6297 61.7457 69.2064C61.372 68.7831 60.7369 68.7531 60.3273 69.1393C59.6225 69.8038 58.7205 70.175 57.7631 70.175C56.7809 70.175 55.8818 69.7836 55.197 69.1375H57.0627L57.1837 69.1305C57.6997 69.0705 58.1002 68.632 58.1002 68.1C58.1002 67.527 57.6357 67.0625 57.0627 67.0625H54.0054C53.9257 66.731 53.8833 66.3834 53.8833 66.025H57.0627L57.1837 66.018C57.6997 65.958 58.1002 65.5195 58.1002 64.9875C58.1002 64.4145 57.6357 63.95 57.0627 63.95H54.4022C55.074 62.7079 56.3301 61.875 57.7631 61.875C58.8127 61.875 59.795 62.3217 60.5205 63.1057C60.9038 63.5198 61.5393 63.5344 61.9401 63.1384C62.3408 62.7424 62.355 62.0856 61.9718 61.6715Z" fill="#FFB648"/>
<path d="M13.4877 30.75C14.0198 30.75 14.4583 31.1141 14.5182 31.5831L14.5252 31.6931V50.5568C14.5252 51.0777 14.0607 51.5 13.4877 51.5C12.9556 51.5 12.5171 51.1358 12.4572 50.6668L12.4502 50.5568V31.6931C12.4502 31.1722 12.9147 30.75 13.4877 30.75Z" fill="#FFB648"/>
<path d="M13.4877 55.65C14.0607 55.65 14.5252 55.1854 14.5252 54.6125C14.5252 54.0395 14.0607 53.575 13.4877 53.575C12.9147 53.575 12.4502 54.0395 12.4502 54.6125C12.4502 55.1854 12.9147 55.65 13.4877 55.65Z" fill="#FFB648"/>
<path fill-rule="evenodd" clip-rule="evenodd" d="M62.2502 39.05C62.0394 39.05 61.8307 39.0521 61.6242 39.0564L61.0117 39.0759L60.4144 39.1083C60.1198 39.1277 59.8314 39.152 59.55 39.1811L58.9971 39.2458C56.0106 39.6369 53.9502 40.613 53.9502 42.1625C53.9502 43.7119 56.0106 44.688 58.9971 45.0791L59.55 45.1438C59.8314 45.1729 60.1198 45.1972 60.4144 45.2166L61.0117 45.249L61.6242 45.2685C61.8307 45.2728 62.0394 45.275 62.2502 45.275C62.461 45.275 62.6697 45.2728 62.8762 45.2685L63.4887 45.249L64.086 45.2166C64.3806 45.1972 64.669 45.1729 64.9504 45.1438L65.5033 45.0791C66.6526 44.9286 67.6648 44.6914 68.4752 44.3683V48.3875L68.4822 48.5084C68.5421 49.0244 68.9806 49.425 69.5127 49.425C70.0857 49.425 70.5502 48.9604 70.5502 48.3875V42.1625C70.5502 40.613 68.4898 39.6369 65.5033 39.2458L64.9504 39.1811C64.669 39.152 64.3806 39.1277 64.086 39.1083L63.4887 39.0759L62.8762 39.0564C62.773 39.0543 62.6692 39.0527 62.5648 39.0516L62.2502 39.05ZM68.3268 42.2438L68.4752 42.1625L68.4525 42.1479C68.217 42.0144 67.8845 41.8792 67.4726 41.7543L67.2601 41.6928C65.9656 41.3347 64.1733 41.125 62.2507 41.125C60.3282 41.125 58.5358 41.3347 57.2413 41.6928C56.8034 41.8139 56.4421 41.9474 56.1747 42.0811L56.0252 42.1625L56.2017 42.2572C56.4206 42.3641 56.6993 42.4706 57.0288 42.5706L57.2413 42.6321C58.5358 42.9902 60.3282 43.2 62.2507 43.2C64.1733 43.2 65.9656 42.9902 67.2601 42.6321C67.698 42.511 68.0594 42.3775 68.3268 42.2438Z" fill="#FFB648"/>
<path d="M56.0182 46.1915C55.9583 45.6755 55.5198 45.275 54.9877 45.275C54.4147 45.275 53.9502 45.7395 53.9502 46.3125V50.4625L53.9572 50.5834C54.0171 51.0994 54.4556 51.5 54.9877 51.5C55.5607 51.5 56.0252 51.0354 56.0252 50.4625V46.3125L56.0182 46.1915Z" fill="#FFB648"/>
<path fill-rule="evenodd" clip-rule="evenodd" d="M38.037 32.825L37.3439 32.8374C37.2294 32.8405 37.1154 32.8442 37.0019 32.8483L36.3275 32.8792L35.6669 32.9223C35.3403 32.9469 35.0193 32.9759 34.7046 33.0095L34.0837 33.0824C33.9817 33.0955 33.8805 33.1091 33.78 33.1232L33.1865 33.2136C29.4888 33.8229 26.9752 35.1251 26.9752 36.9742V41.718L26.9802 41.8718C26.9827 41.9095 26.9861 41.9469 26.9904 41.9842C26.9804 42.0421 26.9752 42.1017 26.9752 42.1625V46.9055L26.9802 47.0593C26.9827 47.097 26.9861 47.1344 26.9904 47.1717C26.9804 47.2296 26.9752 47.2892 26.9752 47.35V52.093L26.9802 52.2468C26.9827 52.2843 26.9861 52.3216 26.9904 52.3587C26.9804 52.4165 26.9752 52.4759 26.9752 52.5366V57.2796L26.9802 57.4334C26.9899 57.5788 27.0131 57.7213 27.0494 57.8607C26.8955 57.8469 26.7401 57.8341 26.5835 57.8223L25.9229 57.7792L25.2485 57.7483C25.135 57.7441 25.021 57.7405 24.9064 57.7374L24.2134 57.7249H23.512L22.8189 57.7374C22.7044 57.7405 22.5904 57.7441 22.4769 57.7483L21.8025 57.7792L21.1419 57.8223C20.8153 57.8469 20.4943 57.8759 20.1796 57.9095L19.5587 57.9824C19.4567 57.9955 19.3555 58.0091 19.255 58.0232L18.6615 58.1136C14.9638 58.7229 12.4502 60.0251 12.4502 61.8742V66.6174L12.4552 66.7712C12.4577 66.8089 12.4611 66.8464 12.4655 66.8837C12.4554 66.9417 12.4502 67.0012 12.4502 67.0621V71.8051L12.4552 71.9589C12.5897 73.9949 15.3946 75.4513 19.3508 76.0697L19.9526 76.1561C20.156 76.1828 20.3621 76.2074 20.5706 76.2298L21.2036 76.2905C22.0571 76.3627 22.9475 76.3999 23.8627 76.3999C24.7779 76.3999 25.6683 76.3627 26.5218 76.2905L27.1548 76.2298C27.3633 76.2074 27.5694 76.1828 27.7728 76.1561L28.3746 76.0697C32.2526 75.4636 35.0243 74.0521 35.259 72.0789C36.2487 72.1918 37.2821 72.2499 38.3357 72.2499C40.9193 72.2499 44.0842 71.9197 45.8411 71.4238C47.8521 75.596 52.1212 78.4749 57.0627 78.4749C63.9386 78.4749 69.5127 72.9007 69.5127 66.0245C69.5127 59.1483 63.9386 53.5741 57.0627 53.5741C54.3524 53.5741 51.8443 54.4402 49.8002 55.9107V52.5366L49.7932 52.4156C49.7921 52.4059 49.7908 52.3963 49.7895 52.3867C49.7881 52.3773 49.7866 52.368 49.785 52.3587C49.7951 52.2712 49.8002 52.1827 49.8002 52.093V47.35L49.7932 47.229C49.791 47.2097 49.7882 47.1906 49.7849 47.1717C49.7951 47.0841 49.8002 46.9953 49.8002 46.9055V42.1625L49.7932 42.0415C49.791 42.0222 49.7882 42.0031 49.7849 41.9842C49.7951 41.8966 49.8002 41.8078 49.8002 41.718V36.975C49.8002 35.1745 47.4171 33.8918 43.8783 33.2632L43.2945 33.167C43.0967 33.1368 42.8957 33.1086 42.6916 33.0824L42.0708 33.0095C41.7561 32.9759 41.4351 32.9469 41.1085 32.9223L40.4479 32.8792L39.7735 32.8483C39.66 32.8442 39.546 32.8405 39.4314 32.8374L38.7384 32.825H38.037ZM45.7126 60.9005C44.8695 61.1682 43.9231 61.3842 42.8996 61.5442L42.2978 61.6306C42.0944 61.6573 41.8883 61.6819 41.6798 61.7043L41.0468 61.765C40.1933 61.8372 39.3029 61.8744 38.3877 61.8744C37.4725 61.8744 36.5821 61.8372 35.7286 61.765L35.2694 61.721C35.2732 61.7716 35.2752 61.8227 35.2752 61.8742V64.5652C36.2647 64.6883 37.3087 64.7522 38.3774 64.7522C40.489 64.7522 43.0057 64.5098 44.7548 64.1372C44.9277 63.0005 45.2542 61.9143 45.7126 60.9005ZM44.622 66.51C42.7815 66.8527 40.4113 67.0624 38.3774 67.0624C37.3095 67.0624 36.2624 67.0028 35.2605 66.887L35.2637 66.9069L35.2665 66.927L35.2682 66.9411L35.2752 67.0621V69.7653C36.2523 69.8853 37.2819 69.9474 38.3357 69.9474C40.6195 69.9474 43.4174 69.6692 45.0397 69.2691C44.8015 68.3845 44.6585 67.4609 44.622 66.51ZM29.0502 41.718V39.5122C30.0494 40.0183 31.3649 40.413 32.8971 40.6852L33.4809 40.7814C33.6787 40.8115 33.8797 40.8397 34.0837 40.866L34.7046 40.9389C35.0193 40.9724 35.3403 41.0015 35.6669 41.026L36.3275 41.0691L37.0019 41.1C37.1154 41.1042 37.2294 41.1078 37.3439 41.1109L38.037 41.1234C38.1534 41.1244 38.2704 41.125 38.3877 41.125L38.7384 41.1234L39.4314 41.1109C39.546 41.1078 39.66 41.1042 39.7735 41.1L40.4479 41.0691L41.1085 41.026C41.4351 41.0015 41.7561 40.9724 42.0708 40.9389L42.6916 40.866C42.7937 40.8528 42.8949 40.8392 42.9954 40.8251L43.5889 40.7347C45.245 40.4618 46.6636 40.0499 47.7252 39.5122V41.718L47.7179 41.7814C47.6357 42.154 46.8551 42.7487 45.3874 43.2519C43.5704 43.8749 41.0686 44.2377 38.3877 44.2377C35.7068 44.2377 33.205 43.8749 31.3879 43.2519C29.834 42.7191 29.0502 42.0837 29.0502 41.718ZM29.8519 37.6721C29.337 37.4293 29.0502 37.1869 29.0502 36.9753C29.0502 36.7638 29.337 36.5214 29.8519 36.2786L30.128 36.1573C30.2263 36.117 30.3305 36.0768 30.4406 36.0368L30.7879 35.918C30.9093 35.8787 31.0362 35.8399 31.1684 35.8016L31.5804 35.6886C31.6516 35.67 31.724 35.6517 31.7977 35.6335L32.2538 35.5271C32.4105 35.4924 32.5718 35.4587 32.7374 35.4261L33.2468 35.3313L33.7803 35.2437C33.8712 35.2298 33.9629 35.2162 34.0556 35.2029L34.6224 35.1276L35.2092 35.0616L35.8145 35.0056C36.0191 34.9888 36.2266 34.9737 36.4366 34.9607L37.0739 34.9275L37.7248 34.907C37.8344 34.9047 37.9444 34.9029 38.0549 34.9017L38.3877 34.9C38.6105 34.9 38.8315 34.9023 39.0505 34.907L39.7014 34.9275L40.3388 34.9607C40.5488 34.9737 40.7562 34.9888 40.9609 35.0056L41.5662 35.0616L42.153 35.1276L42.7198 35.2029L43.2648 35.2866C43.3537 35.3012 43.4417 35.3161 43.5286 35.3313L44.038 35.4261C44.1208 35.4424 44.2025 35.459 44.2831 35.4758L44.7532 35.5797C44.9053 35.6152 45.0526 35.6515 45.195 35.6886L45.607 35.8016C45.6731 35.8207 45.7378 35.84 45.8013 35.8594L46.1654 35.9772C46.3391 36.0366 46.5 36.0968 46.6473 36.1573L46.9235 36.2786C47.4384 36.5214 47.7252 36.7638 47.7252 36.9753C47.7252 37.1869 47.4384 37.4293 46.9235 37.6721L46.6473 37.7934C46.5491 37.8337 46.4448 37.8739 46.3348 37.9138L45.9874 38.0327C45.8661 38.072 45.7391 38.1108 45.607 38.1491L45.195 38.2621C45.1238 38.2806 45.0514 38.299 44.9777 38.3171L44.5216 38.4236C44.3649 38.4582 44.2036 38.492 44.038 38.5246L43.5286 38.6194L42.9951 38.7069C42.9042 38.7209 42.8125 38.7345 42.7198 38.7478L42.153 38.8231L41.5662 38.8891L40.9609 38.945C40.7562 38.9619 40.5488 38.9769 40.3388 38.99L39.7014 39.0232L39.0505 39.0437C38.8315 39.0483 38.6105 39.0507 38.3877 39.0507C38.1649 39.0507 37.9439 39.0483 37.7248 39.0437L37.0739 39.0232L36.4366 38.99C36.2266 38.9769 36.0191 38.9619 35.8145 38.945L35.2092 38.8891L34.6224 38.8231L34.0556 38.7478L33.5106 38.6641C33.4217 38.6495 33.3337 38.6346 33.2468 38.6194L32.7374 38.5246C32.6546 38.5083 32.5729 38.4917 32.4923 38.4749L32.0222 38.371C31.8701 38.3355 31.7228 38.2992 31.5804 38.2621L31.1684 38.1491C31.1023 38.1299 31.0376 38.1107 30.9741 38.0913L30.61 37.9735C30.4363 37.9141 30.2754 37.8539 30.128 37.7934L29.8519 37.6721ZM29.0502 46.9055V44.4903C30.2586 45.1704 31.9276 45.6781 33.8758 45.9826L34.4776 46.0691C34.681 46.0958 34.8871 46.1203 35.0956 46.1427L35.7286 46.2034C36.5821 46.2757 37.4725 46.3128 38.3877 46.3128C39.3029 46.3128 40.1933 46.2757 41.0468 46.2034L41.6798 46.1427C41.8883 46.1203 42.0944 46.0958 42.2978 46.0691L42.8996 45.9826C44.8478 45.6781 46.5168 45.1704 47.7252 44.4903V46.9055L47.7179 46.9689C47.6357 47.3415 46.8551 47.9362 45.3874 48.4394C43.5704 49.0624 41.0686 49.4252 38.3877 49.4252C35.7068 49.4252 33.205 49.0624 31.3879 48.4394C29.834 47.9066 29.0502 47.2712 29.0502 46.9055ZM33.2002 69.3897C31.9918 70.0698 30.3228 70.5775 28.3746 70.882L27.7728 70.9685C27.5694 70.9951 27.3633 71.0197 27.1548 71.0421L26.5218 71.1028C25.6683 71.1751 24.7779 71.2122 23.8627 71.2122C22.9475 71.2122 22.0571 71.1751 21.2036 71.1028L20.5706 71.0421C20.3621 71.0197 20.156 70.9951 19.9526 70.9685L19.3508 70.882C17.4026 70.5775 15.7336 70.0698 14.5252 69.3897V71.8051C14.5252 72.1708 15.309 72.8062 16.8629 73.339C18.68 73.962 21.1818 74.3248 23.8627 74.3248C26.5436 74.3248 29.0454 73.962 30.8624 73.339C32.3301 72.8358 33.1107 72.2411 33.1929 71.8685L33.2002 71.8051V69.3897ZM29.0502 49.6778C30.2586 50.3579 31.9276 50.8656 33.8758 51.1701L34.4776 51.2566C34.681 51.2833 34.8871 51.3078 35.0956 51.3302L35.7286 51.3909C36.5821 51.4632 37.4725 51.5003 38.3877 51.5003C39.3029 51.5003 40.1933 51.4632 41.0468 51.3909L41.6798 51.3302C41.8883 51.3078 42.0944 51.2833 42.2978 51.2566L42.8996 51.1701C44.8478 50.8656 46.5168 50.3579 47.7252 49.6778V52.093L47.7179 52.1564C47.6357 52.529 46.8551 53.1237 45.3874 53.6269C43.5704 54.2499 41.0686 54.6127 38.3877 54.6127C35.7068 54.6127 33.205 54.2499 31.3879 53.6269C29.834 53.0941 29.0502 52.4587 29.0502 52.093V49.6778ZM47.7252 57.2796V54.8653C46.5168 55.5454 44.8478 56.0531 42.8996 56.3576L42.2978 56.4441C42.0944 56.4708 41.8883 56.4953 41.6798 56.5177L41.0468 56.5784C40.1933 56.6507 39.3029 56.6878 38.3877 56.6878C37.4725 56.6878 36.5821 56.6507 35.7286 56.5784L35.0956 56.5177C34.8871 56.4953 34.681 56.4708 34.4776 56.4441L33.8758 56.3576C31.9276 56.0531 30.2586 55.5454 29.0502 54.8653V57.2796C29.0502 57.541 29.4507 57.9403 30.2468 58.3413C31.343 58.5853 32.3023 58.8988 33.081 59.277C34.6332 59.6126 36.4644 59.7993 38.3877 59.7993C41.0686 59.7993 43.5704 59.4365 45.3874 58.8135C46.8551 58.3103 47.6357 57.7156 47.7179 57.343L47.7252 57.2796ZM32.6802 61.3243C31.52 61.0766 30.4886 60.7492 29.6328 60.35C29.5931 60.342 29.5532 60.334 29.513 60.3261L29.0036 60.2313C28.9167 60.2161 28.8287 60.2012 28.7398 60.1866L28.1948 60.1029L27.628 60.0276L27.0412 59.9616L26.4359 59.9056C26.2312 59.8888 26.0238 59.8737 25.8138 59.8607L25.1764 59.8275L24.5255 59.807C24.3065 59.8023 24.0855 59.7999 23.8627 59.7999L23.5299 59.8017C23.4194 59.8029 23.3094 59.8047 23.1998 59.807L22.5489 59.8275L21.9116 59.8607C21.7016 59.8737 21.4942 59.8888 21.2895 59.9056L20.6842 59.9616L20.0974 60.0276L19.5306 60.1029C19.4379 60.1162 19.3462 60.1298 19.2553 60.1437L18.7218 60.2313L18.2124 60.3261C18.0468 60.3587 17.8855 60.3924 17.7288 60.4271L17.2727 60.5335C17.199 60.5517 17.1266 60.57 17.0554 60.5886L16.6434 60.7016C16.5112 60.7399 16.3843 60.7787 16.2629 60.818L15.9156 60.9368C15.8055 60.9768 15.7013 61.017 15.603 61.0573L15.3269 61.1786C14.812 61.4214 14.5252 61.6638 14.5252 61.8753C14.5252 62.0869 14.812 62.3293 15.3269 62.5721L15.603 62.6934C15.7504 62.7539 15.9113 62.8141 16.085 62.8735L16.4491 62.9913C16.5126 63.0107 16.5773 63.0299 16.6434 63.0491L17.0554 63.1621C17.1978 63.1992 17.3451 63.2355 17.4972 63.271L17.9673 63.3748C18.0479 63.3917 18.1296 63.4083 18.2124 63.4246L18.7218 63.5194C18.8087 63.5346 18.8967 63.5495 18.9856 63.5641L19.5306 63.6478L20.0974 63.7231L20.6842 63.7891L21.2895 63.845C21.4942 63.8619 21.7016 63.8769 21.9116 63.89L22.5489 63.9232L23.1998 63.9437C23.4189 63.9483 23.6399 63.9507 23.8627 63.9507C24.0855 63.9507 24.3065 63.9483 24.5255 63.9437L25.1764 63.9232L25.8138 63.89C26.0238 63.8769 26.2312 63.8619 26.4359 63.845L27.0412 63.7891L27.628 63.7231L28.1948 63.6478C28.2875 63.6345 28.3792 63.6209 28.4701 63.6069L29.0036 63.5194L29.513 63.4246C29.6786 63.392 29.8399 63.3582 29.9966 63.3236L30.4527 63.2171C30.5264 63.199 30.5988 63.1806 30.67 63.1621L31.082 63.0491C31.2141 63.0108 31.3411 62.972 31.4624 62.9327L31.8098 62.8138C31.9198 62.7739 32.0241 62.7337 32.1223 62.6934L32.3985 62.5721C32.9134 62.3293 33.2002 62.0869 33.2002 61.8753C33.2002 61.7062 33.0169 61.5173 32.6802 61.3243ZM33.2002 66.6174V64.4122C32.1386 64.9499 30.72 65.3618 29.0639 65.6347L28.4704 65.7251C28.3699 65.7392 28.2687 65.7528 28.1666 65.766L27.5458 65.8389C27.2311 65.8724 26.9101 65.9015 26.5835 65.926L25.9229 65.9691L25.2485 66C25.135 66.0042 25.021 66.0078 24.9064 66.0109L24.2134 66.0234L23.8627 66.0249C23.7454 66.0249 23.6284 66.0244 23.512 66.0234L22.8189 66.0109C22.7044 66.0078 22.5904 66.0042 22.4769 66L21.8025 65.9691L21.1419 65.926C20.8153 65.9015 20.4943 65.8724 20.1796 65.8389L19.5587 65.766C19.3547 65.7397 19.1537 65.7115 18.9559 65.6813L18.3721 65.5852C16.8399 65.313 15.5244 64.9183 14.5252 64.4122V66.6174C14.5252 66.9831 15.309 67.6185 16.8629 68.1513C18.68 68.7743 21.1818 69.1371 23.8627 69.1371C26.5436 69.1371 29.0454 68.7743 30.8624 68.1513C32.3301 67.6481 33.1107 67.0534 33.1929 66.6808L33.2002 66.6174ZM57.0627 55.6492C62.7927 55.6492 67.4377 60.2944 67.4377 66.0245C67.4377 71.7547 62.7927 76.3999 57.0627 76.3999C51.3327 76.3999 46.6877 71.7547 46.6877 66.0245C46.6877 60.2944 51.3327 55.6492 57.0627 55.6492Z" fill="#FFB648"/>
<path d="M63.7249 51.5967C63.2052 51.3554 62.5883 51.581 62.347 52.1007C62.1056 52.6205 62.3313 53.2374 62.851 53.4788C67.5036 55.6394 70.5504 60.1682 70.5504 64.9882C70.5504 65.5612 71.015 66.0257 71.5879 66.0257C72.1609 66.0257 72.6254 65.5612 72.6254 64.9882C72.6254 59.3403 69.093 54.0896 63.7249 51.5967Z" fill="#FFB648"/>
</svg>
