<svg width="278" height="92" viewBox="0 0 278 92" fill="none" xmlns="http://www.w3.org/2000/svg">
<circle cx="257.5" cy="71.5" r="20.5" transform="rotate(-180 257.5 71.5)" fill="#6B48F4"/>
<circle cx="257.5" cy="20.5" r="20.5" transform="rotate(-180 257.5 20.5)" fill="#6B48F4"/>
<circle cx="198.5" cy="71.5" r="20.5" transform="rotate(-180 198.5 71.5)" fill="#6B48F4"/>
<circle cx="198.5" cy="20.5" r="20.5" transform="rotate(-180 198.5 20.5)" fill="#6B48F4"/>
<circle cx="139.5" cy="71.5" r="20.5" transform="rotate(-180 139.5 71.5)" fill="#BCABFF"/>
<circle cx="139.5" cy="20.5" r="20.5" transform="rotate(-180 139.5 20.5)" fill="#BCABFF"/>
<ellipse cx="80" cy="71.5" rx="21" ry="20.5" transform="rotate(-180 80 71.5)" fill="#BCABFF"/>
<ellipse cx="80" cy="20.5" rx="21" ry="20.5" transform="rotate(-180 80 20.5)" fill="#BCABFF"/>
<circle cx="20.5" cy="71.5" r="20.5" transform="rotate(-180 20.5 71.5)" fill="#BCABFF"/>
<circle cx="20.5" cy="20.5" r="20.5" transform="rotate(-180 20.5 20.5)" fill="#BCABFF"/>
</svg>
