<svg width="101" height="101" viewBox="0 0 101 101" fill="none" xmlns="http://www.w3.org/2000/svg">
<path d="M49 52V2C62.2608 2 74.9785 7.26785 84.3553 16.6447C93.7321 26.0215 99 38.7392 99 52H49Z" fill="#F45800"/>
<path d="M49.5 51.5V2C39.7098 2 30.1395 4.90313 21.9993 10.3423C13.859 15.7814 7.51451 23.5122 3.76797 32.5572C0.0214387 41.6021 -0.958814 51.5549 0.951153 61.157C2.86112 70.759 7.57553 79.5791 14.4982 86.5018C21.4209 93.4245 30.241 98.1389 39.843 100.049C49.4451 101.959 59.3979 100.979 68.4428 97.232C77.4878 93.4855 85.2186 87.1409 90.6577 79.0007C96.0969 70.8605 99 61.2902 99 51.5H49.5Z" fill="#FFB648"/>
<path d="M68.512 35H70.108V30.688H73.412V29.33H70.108V26.558H73.972V25.2H68.512V35Z" fill="white"/>
</svg>
