<svg width="486" height="61" viewBox="0 0 486 61" fill="none" xmlns="http://www.w3.org/2000/svg">
<rect x="133" y="1" width="353" height="60" rx="30" fill="#BCABFF"/>
<rect x="33" y="1" width="161" height="60" rx="30" fill="#6B48F4"/>
<rect y="1" width="91" height="60" rx="30" fill="#383838"/>
<path d="M108.977 27.944V29.246H110.307V35H111.763V29.246H114.101V27.944H111.763V27.09C111.763 26.292 112.239 25.802 112.953 25.802C113.345 25.802 113.653 25.928 113.891 26.11L114.507 24.892C114.101 24.668 113.569 24.5 112.925 24.5C111.287 24.5 110.307 25.634 110.307 27.132V27.944H108.977ZM121.452 33.852L120.402 33.012C119.968 33.6 119.254 33.978 118.4 33.978C117.042 33.978 116.104 33.18 116.006 31.64H121.214C121.27 31.43 121.312 31.108 121.312 30.786C121.312 28.994 120.052 27.664 118.106 27.664C115.866 27.664 114.522 29.358 114.522 31.472C114.522 33.53 115.964 35.28 118.4 35.28C119.716 35.28 120.794 34.734 121.452 33.852ZM118.078 28.868C119.212 28.868 119.842 29.68 119.87 30.562H116.076C116.3 29.47 117.028 28.868 118.078 28.868ZM123.203 35H124.645V30.24C124.981 29.638 125.513 29.022 126.409 29.022C127.333 29.022 127.893 29.638 127.893 30.674V35H129.349V30.618C129.349 30.478 129.349 30.352 129.335 30.226C129.713 29.554 130.259 29.022 131.099 29.022C132.009 29.022 132.583 29.638 132.583 30.674V35H134.039V30.618C134.039 28.672 132.905 27.664 131.435 27.664C130.217 27.664 129.517 28.238 128.971 28.938C128.523 28.098 127.711 27.664 126.745 27.664C125.807 27.664 125.149 28.056 124.645 28.602V27.944H123.203V35ZM136.274 35H137.716V30.24C138.052 29.638 138.584 29.022 139.48 29.022C140.404 29.022 140.964 29.638 140.964 30.674V35H142.42V30.618C142.42 30.478 142.42 30.352 142.406 30.226C142.784 29.554 143.33 29.022 144.17 29.022C145.08 29.022 145.654 29.638 145.654 30.674V35H147.11V30.618C147.11 28.672 145.976 27.664 144.506 27.664C143.288 27.664 142.588 28.238 142.042 28.938C141.594 28.098 140.782 27.664 139.816 27.664C138.878 27.664 138.22 28.056 137.716 28.602V27.944H136.274V35ZM155.714 33.852L154.664 33.012C154.23 33.6 153.516 33.978 152.662 33.978C151.304 33.978 150.366 33.18 150.268 31.64H155.476C155.532 31.43 155.574 31.108 155.574 30.786C155.574 28.994 154.314 27.664 152.368 27.664C150.128 27.664 148.784 29.358 148.784 31.472C148.784 33.53 150.226 35.28 152.662 35.28C153.978 35.28 155.056 34.734 155.714 33.852ZM152.34 28.868C153.474 28.868 154.104 29.68 154.132 30.562H150.338C150.562 29.47 151.29 28.868 152.34 28.868Z" fill="white"/>
<path d="M26.5217 35H27.9637V30.24C28.2997 29.638 28.8317 29.022 29.7277 29.022C30.6517 29.022 31.2117 29.638 31.2117 30.674V35H32.6677V30.618C32.6677 30.478 32.6677 30.352 32.6537 30.226C33.0317 29.554 33.5777 29.022 34.4177 29.022C35.3277 29.022 35.9017 29.638 35.9017 30.674V35H37.3577V30.618C37.3577 28.672 36.2237 27.664 34.7537 27.664C33.5357 27.664 32.8357 28.238 32.2897 28.938C31.8417 28.098 31.0297 27.664 30.0637 27.664C29.1257 27.664 28.4677 28.056 27.9637 28.602V27.944H26.5217V35ZM40.32 26.376C40.852 26.376 41.3 25.928 41.3 25.396C41.3 24.864 40.852 24.416 40.32 24.416C39.788 24.416 39.34 24.864 39.34 25.396C39.34 25.928 39.788 26.376 40.32 26.376ZM39.592 35H41.034V27.944H39.592V35ZM44.2048 35L46.0248 32.34L47.8588 35H49.5108L46.9628 31.36L49.3568 27.944H47.6908L46.0248 30.366L44.3588 27.944H42.6928L45.0728 31.36L42.5248 35H44.2048ZM51.3323 32.55C51.3323 34.272 52.2003 35.14 53.8523 35.14C54.3983 35.14 54.7903 35.07 55.1263 34.93V33.656C54.8743 33.754 54.5523 33.81 54.0763 33.81C53.2923 33.81 52.7883 33.502 52.7883 32.55V29.246H55.1263V27.944H52.7883V26.18H51.3323V27.944H50.0023V29.246H51.3323V32.55ZM63.0792 33.852L62.0292 33.012C61.5952 33.6 60.8812 33.978 60.0272 33.978C58.6692 33.978 57.7312 33.18 57.6332 31.64H62.8412C62.8972 31.43 62.9392 31.108 62.9392 30.786C62.9392 28.994 61.6792 27.664 59.7332 27.664C57.4932 27.664 56.1492 29.358 56.1492 31.472C56.1492 33.53 57.5912 35.28 60.0272 35.28C61.3432 35.28 62.4212 34.734 63.0792 33.852ZM59.7052 28.868C60.8392 28.868 61.4692 29.68 61.4972 30.562H57.7032C57.9272 29.47 58.6552 28.868 59.7052 28.868Z" fill="white"/>
<path d="M291.754 35H293.196V30.24C293.574 29.624 294.134 29.022 295.1 29.022C296.108 29.022 296.724 29.694 296.724 30.814V35H298.18V30.758C298.18 28.714 297.004 27.664 295.436 27.664C294.428 27.664 293.728 28.07 293.196 28.63V24.5H291.754V35ZM303.698 27.664C301.416 27.664 299.862 29.386 299.862 31.472C299.862 33.558 301.416 35.28 303.698 35.28C305.994 35.28 307.534 33.558 307.534 31.472C307.534 29.386 305.994 27.664 303.698 27.664ZM303.712 33.922C302.354 33.922 301.374 32.83 301.374 31.472C301.374 30.114 302.354 29.022 303.712 29.022C305.042 29.022 306.022 30.1 306.022 31.472C306.022 32.816 305.042 33.922 303.712 33.922ZM309.336 35H310.778V30.24C311.114 29.638 311.646 29.022 312.542 29.022C313.466 29.022 314.026 29.638 314.026 30.674V35H315.482V30.618C315.482 30.478 315.482 30.352 315.468 30.226C315.846 29.554 316.392 29.022 317.232 29.022C318.142 29.022 318.716 29.638 318.716 30.674V35H320.172V30.618C320.172 28.672 319.038 27.664 317.568 27.664C316.35 27.664 315.65 28.238 315.104 28.938C314.656 28.098 313.844 27.664 312.878 27.664C311.94 27.664 311.282 28.056 310.778 28.602V27.944H309.336V35ZM322.406 35H323.848V30.24C324.184 29.638 324.716 29.022 325.612 29.022C326.536 29.022 327.096 29.638 327.096 30.674V35H328.552V30.618C328.552 30.478 328.552 30.352 328.538 30.226C328.916 29.554 329.462 29.022 330.302 29.022C331.212 29.022 331.786 29.638 331.786 30.674V35H333.242V30.618C333.242 28.672 332.108 27.664 330.638 27.664C329.42 27.664 328.72 28.238 328.174 28.938C327.726 28.098 326.914 27.664 325.948 27.664C325.01 27.664 324.352 28.056 323.848 28.602V27.944H322.406V35ZM341.847 33.852L340.797 33.012C340.363 33.6 339.649 33.978 338.795 33.978C337.437 33.978 336.499 33.18 336.401 31.64H341.609C341.665 31.43 341.707 31.108 341.707 30.786C341.707 28.994 340.447 27.664 338.501 27.664C336.261 27.664 334.917 29.358 334.917 31.472C334.917 33.53 336.359 35.28 338.795 35.28C340.111 35.28 341.189 34.734 341.847 33.852ZM338.473 28.868C339.607 28.868 340.237 29.68 340.265 30.562H336.471C336.695 29.47 337.423 28.868 338.473 28.868Z" fill="black"/>
</svg>
