<svg width="181" height="94" viewBox="0 0 181 94" fill="none" xmlns="http://www.w3.org/2000/svg">
<path d="M46.6807 17.2539C46.6208 16.7379 46.1823 16.3374 45.6502 16.3374C45.0772 16.3374 44.6127 16.8019 44.6127 17.3749V21.5249L44.6197 21.6459C44.6796 22.1619 45.1181 22.5624 45.6502 22.5624C46.2232 22.5624 46.6877 22.0979 46.6877 21.5249V17.3749L46.6807 17.2539Z" fill="#FFB648"/>
<path d="M20.7502 43.3124C20.7502 42.7394 20.2857 42.2749 19.7127 42.2749H13.4877L13.3667 42.2819C12.8507 42.3418 12.4502 42.7803 12.4502 43.3124C12.4502 43.8854 12.9147 44.3499 13.4877 44.3499H19.7127L19.8337 44.3429C20.3497 44.283 20.7502 43.8445 20.7502 43.3124Z" fill="#FFB648"/>
<path fill-rule="evenodd" clip-rule="evenodd" d="M41.5002 42.2749C39.7812 42.2749 38.3877 43.6684 38.3877 45.3874C38.3877 47.1064 39.7812 48.4999 41.5002 48.4999C43.2192 48.4999 44.6127 47.1064 44.6127 45.3874C44.6127 43.6684 43.2192 42.2749 41.5002 42.2749ZM41.5002 44.3499C42.0732 44.3499 42.5377 44.8144 42.5377 45.3874C42.5377 45.9604 42.0732 46.4249 41.5002 46.4249C40.9272 46.4249 40.4627 45.9604 40.4627 45.3874C40.4627 44.8144 40.9272 44.3499 41.5002 44.3499Z" fill="#FFB648"/>
<path d="M19.7127 46.4249C20.2857 46.4249 20.7502 46.8894 20.7502 47.4624C20.7502 47.9945 20.3497 48.433 19.8337 48.4929L19.7127 48.4999H13.4877C12.9147 48.4999 12.4502 48.0354 12.4502 47.4624C12.4502 46.9303 12.8507 46.4918 13.3667 46.4319L13.4877 46.4249H19.7127Z" fill="#FFB648"/>
<path d="M33.2002 43.3124C33.2002 42.7394 32.7357 42.2749 32.1627 42.2749H25.9377L25.8167 42.2819C25.3007 42.3418 24.9002 42.7803 24.9002 43.3124C24.9002 43.8854 25.3647 44.3499 25.9377 44.3499H32.1627L32.2837 44.3429C32.7997 44.283 33.2002 43.8445 33.2002 43.3124Z" fill="#FFB648"/>
<path d="M32.1627 46.4249C32.7357 46.4249 33.2002 46.8894 33.2002 47.4624C33.2002 47.9945 32.7997 48.433 32.2837 48.4929L32.1627 48.4999H25.9377C25.3647 48.4999 24.9002 48.0354 24.9002 47.4624C24.9002 46.9303 25.3007 46.4918 25.8167 46.4319L25.9377 46.4249H32.1627Z" fill="#FFB648"/>
<path d="M58.1002 43.3124C58.1002 42.7394 57.6357 42.2749 57.0627 42.2749H50.8377L50.7167 42.2819C50.2007 42.3418 49.8002 42.7803 49.8002 43.3124C49.8002 43.8854 50.2647 44.3499 50.8377 44.3499H57.0627L57.1837 44.3429C57.6997 44.283 58.1002 43.8445 58.1002 43.3124Z" fill="#FFB648"/>
<path d="M57.0627 46.4249C57.6357 46.4249 58.1002 46.8894 58.1002 47.4624C58.1002 47.9945 57.6997 48.433 57.1837 48.4929L57.0627 48.4999H50.8377C50.2647 48.4999 49.8002 48.0354 49.8002 47.4624C49.8002 46.9303 50.2007 46.4918 50.7167 46.4319L50.8377 46.4249H57.0627Z" fill="#FFB648"/>
<path d="M70.5502 43.3124C70.5502 42.7394 70.0857 42.2749 69.5127 42.2749H63.2877L63.1667 42.2819C62.6507 42.3418 62.2502 42.7803 62.2502 43.3124C62.2502 43.8854 62.7147 44.3499 63.2877 44.3499H69.5127L69.6337 44.3429C70.1497 44.283 70.5502 43.8445 70.5502 43.3124Z" fill="#FFB648"/>
<path d="M69.5127 46.4249C70.0857 46.4249 70.5502 46.8894 70.5502 47.4624C70.5502 47.9945 70.1497 48.433 69.6337 48.4929L69.5127 48.4999H63.2877C62.7147 48.4999 62.2502 48.0354 62.2502 47.4624C62.2502 46.9303 62.6507 46.4918 63.1667 46.4319L63.2877 46.4249H69.5127Z" fill="#FFB648"/>
<path d="M42.5307 17.2539C42.4708 16.7379 42.0323 16.3374 41.5002 16.3374C40.9272 16.3374 40.4627 16.8019 40.4627 17.3749V21.5249L40.4697 21.6459C40.5296 22.1619 40.9681 22.5624 41.5002 22.5624C42.0732 22.5624 42.5377 22.0979 42.5377 21.5249V17.3749L42.5307 17.2539Z" fill="#FFB648"/>
<path d="M42.5307 24.5164C42.4708 24.0004 42.0323 23.5999 41.5002 23.5999C40.9272 23.5999 40.4627 24.0644 40.4627 24.6374V27.7499H17.6377L17.5167 27.7569C17.0007 27.8168 16.6002 28.2553 16.6002 28.7874V33.9749H3.1127L2.9917 33.9819C2.47571 34.0418 2.0752 34.4803 2.0752 35.0124C2.0752 35.5854 2.5397 36.0499 3.1127 36.0499H79.8877L80.0087 36.0429C80.5247 35.983 80.9252 35.5445 80.9252 35.0124C80.9252 34.4394 80.4607 33.9749 79.8877 33.9749H66.4002V28.7874L66.3932 28.6664C66.3333 28.1504 65.8948 27.7499 65.3627 27.7499C64.7897 27.7499 64.3252 28.2144 64.3252 28.7874V33.9749H18.6752V29.8249H54.9877L55.1087 29.8179C55.6247 29.758 56.0252 29.3195 56.0252 28.7874C56.0252 28.2144 55.5607 27.7499 54.9877 27.7499H42.5377V24.6374L42.5307 24.5164Z" fill="#FFB648"/>
<path d="M25.9377 52.6499C26.4698 52.6499 26.9083 53.0504 26.9682 53.5664L26.9752 53.6874V74.4374C26.9752 75.0104 26.5107 75.4749 25.9377 75.4749C25.4056 75.4749 24.9671 75.0744 24.9072 74.5584L24.9002 74.4374V53.6874C24.9002 53.1144 25.3647 52.6499 25.9377 52.6499Z" fill="#FFB648"/>
<path d="M22.8182 57.7164C22.7583 57.2004 22.3198 56.7999 21.7877 56.7999C21.2147 56.7999 20.7502 57.2644 20.7502 57.8374V77.5499H12.4502V57.8374L12.4432 57.7164C12.3833 57.2004 11.9448 56.7999 11.4127 56.7999C10.8397 56.7999 10.3752 57.2644 10.3752 57.8374V77.5499H7.2627L7.1417 77.5569C6.62571 77.6168 6.2252 78.0553 6.2252 78.5874C6.2252 79.1604 6.6897 79.6249 7.2627 79.6249H21.7877C21.8593 79.6249 21.9292 79.6176 21.9968 79.6038C22.4696 79.5071 22.8252 79.0888 22.8252 78.5874V57.8374L22.8182 57.7164Z" fill="#FFB648"/>
<path d="M15.5627 52.6499C16.0948 52.6499 16.5333 53.0504 16.5932 53.5664L16.6002 53.6874V70.2874C16.6002 70.8604 16.1357 71.3249 15.5627 71.3249C15.0306 71.3249 14.5921 70.9244 14.5322 70.4084L14.5252 70.2874V53.6874C14.5252 53.1144 14.9897 52.6499 15.5627 52.6499Z" fill="#FFB648"/>
<path d="M61.2127 27.7499C61.7857 27.7499 62.2502 28.2144 62.2502 28.7874C62.2502 29.3195 61.8497 29.758 61.3337 29.8179L61.2127 29.8249H59.1377C58.5647 29.8249 58.1002 29.3604 58.1002 28.7874C58.1002 28.2553 58.5007 27.8168 59.0167 27.7569L59.1377 27.7499H61.2127Z" fill="#FFB648"/>
<path d="M7.2627 38.1249C7.79476 38.1249 8.23328 38.5254 8.29322 39.0414L8.3002 39.1624V74.4374C8.3002 75.0104 7.83569 75.4749 7.2627 75.4749C6.73063 75.4749 6.29211 75.0744 6.23218 74.5584L6.2252 74.4374V39.1624C6.2252 38.5894 6.6897 38.1249 7.2627 38.1249Z" fill="#FFB648"/>
<path fill-rule="evenodd" clip-rule="evenodd" d="M49.7932 57.7164C49.7333 57.2004 49.2948 56.7999 48.7627 56.7999H34.2377L34.1167 56.8069C33.6007 56.8668 33.2002 57.3053 33.2002 57.8374V73.3999H30.0877L29.9667 73.4069C29.4507 73.4668 29.0502 73.9053 29.0502 74.4374C29.0502 75.0104 29.5147 75.4749 30.0877 75.4749H52.9127L53.0337 75.4679C53.5497 75.408 53.9502 74.9695 53.9502 74.4374C53.9502 73.8644 53.4857 73.3999 52.9127 73.3999H49.8002V57.8374L49.7932 57.7164ZM40.4627 73.3999H35.2752V58.8739H47.7252V73.3999H42.5377V64.0624L42.5307 63.9414C42.4708 63.4254 42.0323 63.0249 41.5002 63.0249C40.9272 63.0249 40.4627 63.4894 40.4627 64.0624V73.3999Z" fill="#FFB648"/>
<path d="M46.6877 52.6499C47.2607 52.6499 47.7252 53.1144 47.7252 53.6874C47.7252 54.2195 47.3247 54.658 46.8087 54.7179L46.6877 54.7249H36.3127C35.7397 54.7249 35.2752 54.2604 35.2752 53.6874C35.2752 53.1553 35.6757 52.7168 36.1917 52.6569L36.3127 52.6499H46.6877Z" fill="#FFB648"/>
<path d="M57.0627 52.6499C56.5306 52.6499 56.0921 53.0504 56.0322 53.5664L56.0252 53.6874V74.4374C56.0252 75.0104 56.4897 75.4749 57.0627 75.4749C57.5948 75.4749 58.0333 75.0744 58.0932 74.5584L58.1002 74.4374V53.6874C58.1002 53.1144 57.6357 52.6499 57.0627 52.6499Z" fill="#FFB648"/>
<path d="M60.1822 57.7164C60.2421 57.2004 60.6806 56.7999 61.2127 56.7999C61.7857 56.7999 62.2502 57.2644 62.2502 57.8374V70.2874L62.2432 70.4084C62.1833 70.9244 61.7448 71.3249 61.2127 71.3249C60.6397 71.3249 60.1752 70.8604 60.1752 70.2874V57.8374L60.1822 57.7164Z" fill="#FFB648"/>
<path d="M67.4377 52.6499C66.9056 52.6499 66.4671 53.0504 66.4072 53.5664L66.4002 53.6874V74.4374C66.4002 75.0104 66.8647 75.4749 67.4377 75.4749C67.9698 75.4749 68.4083 75.0744 68.4682 74.5584L68.4752 74.4374V53.6874C68.4752 53.1144 68.0107 52.6499 67.4377 52.6499Z" fill="#FFB648"/>
<path d="M70.5572 57.7164C70.6171 57.2004 71.0556 56.7999 71.5877 56.7999C72.1607 56.7999 72.6252 57.2644 72.6252 57.8374V78.5874C72.6252 78.6283 72.6228 78.6687 72.6182 78.7084C72.5629 79.1847 72.185 79.5626 71.7088 79.6179C71.669 79.6225 71.6286 79.6249 71.5877 79.6249H25.9377C25.3647 79.6249 24.9002 79.1604 24.9002 78.5874C24.9002 78.0553 25.3007 77.6168 25.8167 77.5569L25.9377 77.5499H70.5502V57.8374L70.5572 57.7164Z" fill="#FFB648"/>
<path d="M75.7377 38.1249C76.2698 38.1249 76.7083 38.5254 76.7682 39.0414L76.7752 39.1624V78.5874C76.7752 79.1604 76.3107 79.6249 75.7377 79.6249C75.2056 79.6249 74.7671 79.2244 74.7072 78.7084L74.7002 78.5874V39.1624C74.7002 38.5894 75.1647 38.1249 75.7377 38.1249Z" fill="#FFB648"/>
<path d="M135 50V5C147.2 5 158.9 9.74106 167.527 18.1802C176.154 26.6193 181 38.0653 181 50H135Z" fill="#F45800"/>
<path d="M136.5 49.5V5C127.699 5 119.095 7.60988 111.777 12.4996C104.459 17.3893 98.7555 24.3393 95.3874 32.4706C92.0193 40.6019 91.138 49.5494 92.8551 58.1815C94.5721 66.8137 98.8103 74.7428 105.034 80.9662C111.257 87.1897 119.186 91.4279 127.818 93.1449C136.451 94.862 145.398 93.9807 153.529 90.6126C161.661 87.2445 168.611 81.5409 173.5 74.2229C178.39 66.9049 181 58.3013 181 49.5H136.5Z" fill="#FFB648"/>
<path d="M153.512 35H155.108V30.688H158.412V29.33H155.108V26.558H158.972V25.2H153.512V35Z" fill="white"/>
</svg>
