<svg width="385" height="92" viewBox="0 0 385 92" fill="none" xmlns="http://www.w3.org/2000/svg">
<path d="M46.6807 10.254C46.6208 9.73804 46.1823 9.33752 45.6502 9.33752C45.0772 9.33752 44.6127 9.80203 44.6127 10.375V14.525L44.6197 14.646C44.6796 15.162 45.1181 15.5625 45.6502 15.5625C46.2232 15.5625 46.6877 15.098 46.6877 14.525V10.375L46.6807 10.254Z" fill="#BCABFF"/>
<path d="M20.7502 36.3125C20.7502 35.7395 20.2857 35.275 19.7127 35.275H13.4877L13.3667 35.282C12.8507 35.3419 12.4502 35.7805 12.4502 36.3125C12.4502 36.8855 12.9147 37.35 13.4877 37.35H19.7127L19.8337 37.343C20.3497 37.2831 20.7502 36.8446 20.7502 36.3125Z" fill="#BCABFF"/>
<path fill-rule="evenodd" clip-rule="evenodd" d="M41.5002 35.275C39.7812 35.275 38.3877 36.6685 38.3877 38.3875C38.3877 40.1065 39.7812 41.5 41.5002 41.5C43.2192 41.5 44.6127 40.1065 44.6127 38.3875C44.6127 36.6685 43.2192 35.275 41.5002 35.275ZM41.5002 37.35C42.0732 37.35 42.5377 37.8145 42.5377 38.3875C42.5377 38.9605 42.0732 39.425 41.5002 39.425C40.9272 39.425 40.4627 38.9605 40.4627 38.3875C40.4627 37.8145 40.9272 37.35 41.5002 37.35Z" fill="#BCABFF"/>
<path d="M19.7127 39.425C20.2857 39.425 20.7502 39.8895 20.7502 40.4625C20.7502 40.9946 20.3497 41.4331 19.8337 41.493L19.7127 41.5H13.4877C12.9147 41.5 12.4502 41.0355 12.4502 40.4625C12.4502 39.9305 12.8507 39.4919 13.3667 39.432L13.4877 39.425H19.7127Z" fill="#BCABFF"/>
<path d="M33.2002 36.3125C33.2002 35.7395 32.7357 35.275 32.1627 35.275H25.9377L25.8167 35.282C25.3007 35.3419 24.9002 35.7805 24.9002 36.3125C24.9002 36.8855 25.3647 37.35 25.9377 37.35H32.1627L32.2837 37.343C32.7997 37.2831 33.2002 36.8446 33.2002 36.3125Z" fill="#BCABFF"/>
<path d="M32.1627 39.425C32.7357 39.425 33.2002 39.8895 33.2002 40.4625C33.2002 40.9946 32.7997 41.4331 32.2837 41.493L32.1627 41.5H25.9377C25.3647 41.5 24.9002 41.0355 24.9002 40.4625C24.9002 39.9305 25.3007 39.4919 25.8167 39.432L25.9377 39.425H32.1627Z" fill="#BCABFF"/>
<path d="M58.1002 36.3125C58.1002 35.7395 57.6357 35.275 57.0627 35.275H50.8377L50.7167 35.282C50.2007 35.3419 49.8002 35.7805 49.8002 36.3125C49.8002 36.8855 50.2647 37.35 50.8377 37.35H57.0627L57.1837 37.343C57.6997 37.2831 58.1002 36.8446 58.1002 36.3125Z" fill="#BCABFF"/>
<path d="M57.0627 39.425C57.6357 39.425 58.1002 39.8895 58.1002 40.4625C58.1002 40.9946 57.6997 41.4331 57.1837 41.493L57.0627 41.5H50.8377C50.2647 41.5 49.8002 41.0355 49.8002 40.4625C49.8002 39.9305 50.2007 39.4919 50.7167 39.432L50.8377 39.425H57.0627Z" fill="#BCABFF"/>
<path d="M70.5502 36.3125C70.5502 35.7395 70.0857 35.275 69.5127 35.275H63.2877L63.1667 35.282C62.6507 35.3419 62.2502 35.7805 62.2502 36.3125C62.2502 36.8855 62.7147 37.35 63.2877 37.35H69.5127L69.6337 37.343C70.1497 37.2831 70.5502 36.8446 70.5502 36.3125Z" fill="#BCABFF"/>
<path d="M69.5127 39.425C70.0857 39.425 70.5502 39.8895 70.5502 40.4625C70.5502 40.9946 70.1497 41.4331 69.6337 41.493L69.5127 41.5H63.2877C62.7147 41.5 62.2502 41.0355 62.2502 40.4625C62.2502 39.9305 62.6507 39.4919 63.1667 39.432L63.2877 39.425H69.5127Z" fill="#BCABFF"/>
<path d="M42.5307 10.254C42.4708 9.73804 42.0323 9.33752 41.5002 9.33752C40.9272 9.33752 40.4627 9.80203 40.4627 10.375V14.525L40.4697 14.646C40.5296 15.162 40.9681 15.5625 41.5002 15.5625C42.0732 15.5625 42.5377 15.098 42.5377 14.525V10.375L42.5307 10.254Z" fill="#BCABFF"/>
<path d="M42.5307 17.5165C42.4708 17.0005 42.0323 16.6 41.5002 16.6C40.9272 16.6 40.4627 17.0645 40.4627 17.6375V20.75H17.6377L17.5167 20.757C17.0007 20.8169 16.6002 21.2555 16.6002 21.7875V26.975H3.1127L2.9917 26.982C2.47571 27.0419 2.0752 27.4805 2.0752 28.0125C2.0752 28.5855 2.5397 29.05 3.1127 29.05H79.8877L80.0087 29.043C80.5247 28.9831 80.9252 28.5446 80.9252 28.0125C80.9252 27.4395 80.4607 26.975 79.8877 26.975H66.4002V21.7875L66.3932 21.6665C66.3333 21.1505 65.8948 20.75 65.3627 20.75C64.7897 20.75 64.3252 21.2145 64.3252 21.7875V26.975H18.6752V22.825H54.9877L55.1087 22.818C55.6247 22.7581 56.0252 22.3196 56.0252 21.7875C56.0252 21.2145 55.5607 20.75 54.9877 20.75H42.5377V17.6375L42.5307 17.5165Z" fill="#BCABFF"/>
<path d="M25.9377 45.65C26.4698 45.65 26.9083 46.0505 26.9682 46.5665L26.9752 46.6875V67.4375C26.9752 68.0105 26.5107 68.475 25.9377 68.475C25.4056 68.475 24.9671 68.0745 24.9072 67.5585L24.9002 67.4375V46.6875C24.9002 46.1145 25.3647 45.65 25.9377 45.65Z" fill="#BCABFF"/>
<path d="M22.8182 50.7165C22.7583 50.2005 22.3198 49.8 21.7877 49.8C21.2147 49.8 20.7502 50.2645 20.7502 50.8375V70.55H12.4502V50.8375L12.4432 50.7165C12.3833 50.2005 11.9448 49.8 11.4127 49.8C10.8397 49.8 10.3752 50.2645 10.3752 50.8375V70.55H7.2627L7.1417 70.557C6.62571 70.6169 6.2252 71.0555 6.2252 71.5875C6.2252 72.1605 6.6897 72.625 7.2627 72.625H21.7877C21.8593 72.625 21.9292 72.6178 21.9968 72.6039C22.4696 72.5072 22.8252 72.0889 22.8252 71.5875V50.8375L22.8182 50.7165Z" fill="#BCABFF"/>
<path d="M15.5627 45.65C16.0948 45.65 16.5333 46.0505 16.5932 46.5665L16.6002 46.6875V63.2875C16.6002 63.8605 16.1357 64.325 15.5627 64.325C15.0306 64.325 14.5921 63.9245 14.5322 63.4085L14.5252 63.2875V46.6875C14.5252 46.1145 14.9897 45.65 15.5627 45.65Z" fill="#BCABFF"/>
<path d="M61.2127 20.75C61.7857 20.75 62.2502 21.2145 62.2502 21.7875C62.2502 22.3196 61.8497 22.7581 61.3337 22.818L61.2127 22.825H59.1377C58.5647 22.825 58.1002 22.3605 58.1002 21.7875C58.1002 21.2555 58.5007 20.8169 59.0167 20.757L59.1377 20.75H61.2127Z" fill="#BCABFF"/>
<path d="M7.2627 31.125C7.79476 31.125 8.23328 31.5255 8.29322 32.0415L8.3002 32.1625V67.4375C8.3002 68.0105 7.83569 68.475 7.2627 68.475C6.73063 68.475 6.29211 68.0745 6.23218 67.5585L6.2252 67.4375V32.1625C6.2252 31.5895 6.6897 31.125 7.2627 31.125Z" fill="#BCABFF"/>
<path fill-rule="evenodd" clip-rule="evenodd" d="M49.7932 50.7165C49.7333 50.2005 49.2948 49.8 48.7627 49.8H34.2377L34.1167 49.807C33.6007 49.8669 33.2002 50.3055 33.2002 50.8375V66.4H30.0877L29.9667 66.407C29.4507 66.4669 29.0502 66.9055 29.0502 67.4375C29.0502 68.0105 29.5147 68.475 30.0877 68.475H52.9127L53.0337 68.468C53.5497 68.4081 53.9502 67.9696 53.9502 67.4375C53.9502 66.8645 53.4857 66.4 52.9127 66.4H49.8002V50.8375L49.7932 50.7165ZM40.4627 66.4H35.2752V51.874H47.7252V66.4H42.5377V57.0625L42.5307 56.9415C42.4708 56.4255 42.0323 56.025 41.5002 56.025C40.9272 56.025 40.4627 56.4895 40.4627 57.0625V66.4Z" fill="#BCABFF"/>
<path d="M46.6877 45.65C47.2607 45.65 47.7252 46.1145 47.7252 46.6875C47.7252 47.2196 47.3247 47.6581 46.8087 47.718L46.6877 47.725H36.3127C35.7397 47.725 35.2752 47.2605 35.2752 46.6875C35.2752 46.1555 35.6757 45.7169 36.1917 45.657L36.3127 45.65H46.6877Z" fill="#BCABFF"/>
<path d="M57.0627 45.65C56.5306 45.65 56.0921 46.0505 56.0322 46.5665L56.0252 46.6875V67.4375C56.0252 68.0105 56.4897 68.475 57.0627 68.475C57.5948 68.475 58.0333 68.0745 58.0932 67.5585L58.1002 67.4375V46.6875C58.1002 46.1145 57.6357 45.65 57.0627 45.65Z" fill="#BCABFF"/>
<path d="M60.1822 50.7165C60.2421 50.2005 60.6806 49.8 61.2127 49.8C61.7857 49.8 62.2502 50.2645 62.2502 50.8375V63.2875L62.2432 63.4085C62.1833 63.9245 61.7448 64.325 61.2127 64.325C60.6397 64.325 60.1752 63.8605 60.1752 63.2875V50.8375L60.1822 50.7165Z" fill="#BCABFF"/>
<path d="M67.4377 45.65C66.9056 45.65 66.4671 46.0505 66.4072 46.5665L66.4002 46.6875V67.4375C66.4002 68.0105 66.8647 68.475 67.4377 68.475C67.9698 68.475 68.4083 68.0745 68.4682 67.5585L68.4752 67.4375V46.6875C68.4752 46.1145 68.0107 45.65 67.4377 45.65Z" fill="#BCABFF"/>
<path d="M70.5572 50.7165C70.6171 50.2005 71.0556 49.8 71.5877 49.8C72.1607 49.8 72.6252 50.2645 72.6252 50.8375V71.5875C72.6252 71.6285 72.6228 71.6688 72.6182 71.7085C72.5629 72.1848 72.185 72.5627 71.7088 72.618C71.669 72.6227 71.6286 72.625 71.5877 72.625H25.9377C25.3647 72.625 24.9002 72.1605 24.9002 71.5875C24.9002 71.0555 25.3007 70.6169 25.8167 70.557L25.9377 70.55H70.5502V50.8375L70.5572 50.7165Z" fill="#BCABFF"/>
<path d="M75.7377 31.125C76.2698 31.125 76.7083 31.5255 76.7682 32.0415L76.7752 32.1625V71.5875C76.7752 72.1605 76.3107 72.625 75.7377 72.625C75.2056 72.625 74.7671 72.2245 74.7072 71.7085L74.7002 71.5875V32.1625C74.7002 31.5895 75.1647 31.125 75.7377 31.125Z" fill="#BCABFF"/>
<circle cx="364.5" cy="71.5" r="20.5" transform="rotate(-180 364.5 71.5)" fill="#6B48F4"/>
<circle cx="364.5" cy="20.5" r="20.5" transform="rotate(-180 364.5 20.5)" fill="#6B48F4"/>
<circle cx="305.5" cy="71.5" r="20.5" transform="rotate(-180 305.5 71.5)" fill="#6B48F4"/>
<circle cx="305.5" cy="20.5" r="20.5" transform="rotate(-180 305.5 20.5)" fill="#BCABFF"/>
<circle cx="246.5" cy="71.5" r="20.5" transform="rotate(-180 246.5 71.5)" fill="#BCABFF"/>
<circle cx="246.5" cy="20.5" r="20.5" transform="rotate(-180 246.5 20.5)" fill="#BCABFF"/>
<ellipse cx="187" cy="71.5" rx="21" ry="20.5" transform="rotate(-180 187 71.5)" fill="#BCABFF"/>
<ellipse cx="187" cy="20.5" rx="21" ry="20.5" transform="rotate(-180 187 20.5)" fill="#BCABFF"/>
<circle cx="127.5" cy="71.5" r="20.5" transform="rotate(-180 127.5 71.5)" fill="#BCABFF"/>
<circle cx="127.5" cy="20.5" r="20.5" transform="rotate(-180 127.5 20.5)" fill="#BCABFF"/>
</svg>
