<svg width="24" height="24" viewBox="0 0 24 24" fill="none" xmlns="http://www.w3.org/2000/svg">
<path d="M23.4776 6.74125C23.2024 5.70354 22.5988 4.82521 21.5647 4.54896C19.6906 4.04604 12 4 12 4C12 4 4.30941 4.04604 2.43529 4.54896C1.40118 4.82521 0.801177 5.70354 0.522353 6.74125C0.0211765 8.62187 0 12.5 0 12.5C0 12.5 0.0211765 16.3781 0.522353 18.2587C0.797647 19.2965 1.40118 20.1748 2.43529 20.451C4.30941 20.954 12 21 12 21C12 21 19.6906 20.954 21.5647 20.451C22.5988 20.1748 23.2024 19.2965 23.4776 18.2587C23.9788 16.3781 24 12.5 24 12.5C24 12.5 23.9788 8.62187 23.4776 6.74125Z" fill="#6A6A6A"/>
<path d="M16 12.5L10 9V16" fill="white"/>
</svg>
