<svg width="60" height="60" viewBox="0 0 60 60" fill="none" xmlns="http://www.w3.org/2000/svg">
<path fill-rule="evenodd" clip-rule="evenodd" d="M44.25 57C43.8364 57 43.5 56.6636 43.5 56.25C43.5 55.8364 43.8364 55.5 44.25 55.5C44.6636 55.5 45 55.8364 45 56.25C45 56.6636 44.6636 57 44.25 57Z" fill="black"/>
<path fill-rule="evenodd" clip-rule="evenodd" d="M50.25 6C49.8364 6 49.5 5.66355 49.5 5.25C49.5 4.83641 49.8364 4.5 50.25 4.5C50.6636 4.5 51 4.83641 51 5.25C51 5.66355 50.6636 6 50.25 6Z" fill="black"/>
<path fill-rule="evenodd" clip-rule="evenodd" d="M6 10.5C5.58645 10.5 5.25 10.1636 5.25 9.75C5.25 9.33641 5.58645 9 6 9C6.41355 9 6.75 9.33641 6.75 9.75C6.75 10.1636 6.41355 10.5 6 10.5Z" fill="black"/>
<path d="M23.25 24C23.25 23.5858 22.9142 23.25 22.5 23.25C22.0858 23.25 21.75 23.5858 21.75 24C21.75 24.4142 22.0858 24.75 22.5 24.75C22.9142 24.75 23.25 24.4142 23.25 24Z" fill="black"/>
<path d="M19.263 24.9527C18.9538 24.6616 18.4537 24.684 18.1738 25.0199L14.4238 29.5199L14.373 29.588C14.0489 30.0742 14.393 30.75 15 30.75H19.5L19.5875 30.745C19.9605 30.7016 20.25 30.3846 20.25 30L20.245 29.9125C20.2016 29.5395 19.8846 29.25 19.5 29.25H16.6013L18.75 26.6715L20.0697 28.2552L20.1344 28.3237C20.4067 28.5782 20.8323 28.596 21.126 28.3512C21.4442 28.086 21.4872 27.6131 21.222 27.2949L19.3262 25.0199L19.263 24.9527Z" fill="black"/>
<path d="M25.916 47.376C25.7928 47.2938 25.6481 47.25 25.5 47.25H10.5L10.4125 47.255C10.0395 47.2984 9.75 47.6154 9.75 48L9.75505 48.0875C9.79837 48.4605 10.1154 48.75 10.5 48.75H25.2787L25.3538 48.7989C26.8843 49.7617 28.4361 50.25 30 50.25L30.2759 50.2449C31.7464 50.1909 33.2057 49.7051 34.6462 48.7989L34.7205 48.75H49.5L49.5875 48.745C49.9605 48.7016 50.25 48.3846 50.25 48C50.25 47.5858 49.9142 47.25 49.5 47.25H34.5L34.4117 47.2552C34.2949 47.2691 34.1825 47.3103 34.084 47.376C32.7018 48.2974 31.3441 48.75 30 48.75C28.6559 48.75 27.2982 48.2974 25.916 47.376Z" fill="black"/>
<path d="M23.4697 27.9697C23.74 27.6993 24.1655 27.6785 24.4597 27.9073L24.5303 27.9697L26.0303 29.4697C26.3232 29.7626 26.3232 30.2374 26.0303 30.5303C25.76 30.8007 25.3345 30.8215 25.0403 30.5927L24.9697 30.5303L24 29.5612L23.0303 30.5303C22.76 30.8007 22.3345 30.8215 22.0403 30.5927L21.9697 30.5303C21.6993 30.26 21.6785 29.8345 21.9073 29.5403L21.9697 29.4697L23.4697 27.9697Z" fill="black"/>
<path d="M44.25 18C44.25 17.5858 43.9142 17.25 43.5 17.25C42.713 17.25 41.7853 17.3232 40.7157 17.4694L40.1181 17.5563C39.8123 17.6035 39.4959 17.656 39.1689 17.7139L38.5007 17.8371L37.8042 17.9747L37.0794 18.1267L36.3261 18.2931C36.1981 18.3221 36.069 18.3516 35.9387 18.3818L35.1427 18.5699L34.3181 18.7724C33.9163 18.8729 33.6719 19.2801 33.7724 19.6819C33.8729 20.0837 34.2801 20.3281 34.6819 20.2276C34.818 20.1936 34.9528 20.1602 35.0865 20.1273L35.8743 19.9374L36.6335 19.7616C36.7577 19.7334 36.8806 19.7059 37.0024 19.6789L37.7187 19.5243L38.4064 19.3837L39.0653 19.2572L39.6955 19.1448C39.7981 19.1273 39.8996 19.1103 39.9998 19.0939L40.5867 19.0026C40.7775 18.9745 40.9636 18.9488 41.1448 18.9254L41.6739 18.8622C42.36 18.7874 42.9689 18.75 43.5 18.75C43.9142 18.75 44.25 18.4142 44.25 18Z" fill="black"/>
<path d="M43.5 21.75C43.9142 21.75 44.25 22.0858 44.25 22.5C44.25 22.9142 43.9142 23.25 43.5 23.25C42.9689 23.25 42.36 23.2874 41.6739 23.3622L41.1448 23.4254C40.9636 23.4488 40.7775 23.4745 40.5867 23.5026L39.9998 23.5939C39.8996 23.6103 39.7981 23.6273 39.6955 23.6448L39.0653 23.7572L38.4064 23.8837L37.7187 24.0243L37.0024 24.1789C36.8806 24.2059 36.7577 24.2334 36.6335 24.2616L35.8743 24.4374L35.0865 24.6273C34.9528 24.6602 34.818 24.6936 34.6819 24.7276C34.2801 24.8281 33.8729 24.5837 33.7724 24.1819C33.6719 23.7801 33.9163 23.3729 34.3181 23.2724L35.1427 23.0699L35.9387 22.8818C36.069 22.8516 36.1981 22.8221 36.3261 22.7931L37.0794 22.6267L37.8042 22.4747L38.5007 22.3371L39.1689 22.2139C39.4959 22.156 39.8123 22.1035 40.1181 22.0563L40.7157 21.9694C41.7853 21.8232 42.713 21.75 43.5 21.75Z" fill="black"/>
<path d="M44.25 27C44.25 26.5858 43.9142 26.25 43.5 26.25C42.713 26.25 41.7853 26.3232 40.7157 26.4694L40.1181 26.5563C39.8123 26.6035 39.4959 26.656 39.1689 26.7139L38.5007 26.8371L37.8042 26.9746L37.0794 27.1267L36.3261 27.2931C36.1981 27.3221 36.069 27.3516 35.9387 27.3818L35.1427 27.5699L34.3181 27.7724C33.9163 27.8729 33.6719 28.2801 33.7724 28.6819C33.8729 29.0837 34.2801 29.3281 34.6819 29.2276C34.818 29.1936 34.9528 29.1602 35.0865 29.1273L35.8743 28.9374L36.6335 28.7616C36.7577 28.7334 36.8806 28.7059 37.0024 28.6789L37.7187 28.5243L38.4064 28.3837L39.0653 28.2572L39.6955 28.1448C39.7981 28.1273 39.8996 28.1103 39.9998 28.0939L40.5867 28.0026C40.7775 27.9745 40.9636 27.9488 41.1448 27.9254L41.6739 27.8622C42.36 27.7874 42.9689 27.75 43.5 27.75C43.9142 27.75 44.25 27.4142 44.25 27Z" fill="black"/>
<path fill-rule="evenodd" clip-rule="evenodd" d="M27.5303 45.5303C28.3912 44.6695 29.2035 44.2587 29.9752 44.2501C29.98 44.2503 29.9849 44.2504 29.9897 44.2505C29.9932 44.2505 29.9966 44.2505 30.0001 44.2505H30.0028C30.0101 44.2505 30.0174 44.2504 30.0247 44.2501C30.7964 44.2587 31.6088 44.6694 32.4697 45.5303C32.6103 45.671 32.8011 45.75 33 45.75H40.5L40.5875 45.7449C40.9605 45.7016 41.25 45.3846 41.25 45L41.245 44.9125C41.2016 44.5395 40.8846 44.25 40.5 44.25H33.3015L33.1719 44.1309C32.9845 43.964 32.7958 43.8118 32.6059 43.6746L32.6506 43.667L33.1404 43.5877L33.6545 43.512L34.1928 43.4398L34.7552 43.3712L35.3418 43.3061L35.9525 43.2446L36.5874 43.1867L37.2463 43.1324L37.9294 43.0816L38.6365 43.0344L39.7423 42.9704L40.9021 42.9145L41.7054 42.8818L42.5326 42.8527L43.3839 42.8271L44.7056 42.7957L46.0812 42.7724L47.5106 42.7573L48.9937 42.7505C49.1615 42.7501 49.3302 42.75 49.5 42.75C49.9142 42.75 50.25 42.4142 50.25 42V14.1373L51.7508 16.0125L51.75 30C51.75 30.3846 52.0396 30.7016 52.4126 30.7449L52.5 30.75C52.8847 30.75 53.2017 30.4605 53.245 30.0875L53.25 30V15.75C53.25 15.6138 53.2129 15.4808 53.1436 15.3649L53.0857 15.2815L50.0989 11.548C49.9711 11.3786 49.7728 11.2648 49.5459 11.2509C41.4834 10.7567 34.9674 11.7162 30 14.1491C25.0326 11.7162 18.5166 10.7567 10.4541 11.2509C10.2269 11.2648 10.0285 11.3789 9.90066 11.5486L6.91435 15.2815L6.8564 15.3649C6.78709 15.4808 6.75 15.6138 6.75 15.75V19.5L6.75505 19.5875C6.79837 19.9605 7.11537 20.25 7.5 20.25L7.58747 20.2449C7.96047 20.2016 8.25 19.8846 8.25 19.5L8.24925 16.0125L9.75 14.1374V42C9.75 42.4142 10.0858 42.75 10.5 42.75C10.6698 42.75 10.8385 42.7501 11.0063 42.7505L12.4894 42.7573L13.9188 42.7724L15.2944 42.7957L16.6162 42.8271L17.4674 42.8527L18.2946 42.8818L19.0979 42.9145L20.2577 42.9704L21.3635 43.0344L22.0706 43.0816L22.7537 43.1324L23.4126 43.1867L24.0475 43.2446L24.6582 43.3061L25.2448 43.3712L25.8072 43.4398L26.3455 43.512L26.8596 43.5877L27.3494 43.667L27.3941 43.6746C27.2042 43.8118 27.0155 43.964 26.8281 44.1309L26.6978 44.25H8.25V42L8.24495 41.9125C8.20163 41.5395 7.88463 41.25 7.5 41.25C7.08579 41.25 6.75 41.5858 6.75 42V45L6.75505 45.0875C6.79837 45.4605 7.11537 45.75 7.5 45.75H27L27.0986 45.7435C27.2611 45.7219 27.4131 45.6475 27.5303 45.5303ZM29.25 42.5205V15.4522L29.017 15.3412C24.5654 13.2519 18.7613 12.3633 11.6031 12.6914L11.25 12.7087V41.2507L12.0343 41.2542L13.5335 41.2672L14.9763 41.289L15.9067 41.3084L16.812 41.3317L18.123 41.374L18.9657 41.4071L19.7834 41.4442L20.5761 41.4851L21.3438 41.5301L22.0865 41.5789L22.8042 41.6318L23.4971 41.6886L24.165 41.7493L24.808 41.814L25.4261 41.8828L26.0193 41.9554L26.5877 42.0321C26.6804 42.0452 26.772 42.0585 26.8626 42.072L27.3938 42.1546L27.9002 42.2413L28.3817 42.332L28.8385 42.4267L29.25 42.5205ZM31.1615 42.4267L30.75 42.5205V15.4522L30.983 15.3412C35.4346 13.2519 41.2387 12.3633 48.3969 12.6914L48.75 12.7087V41.2507L47.9657 41.2542L46.4665 41.2672L45.0238 41.289L44.0933 41.3084L43.188 41.3317L41.877 41.374L41.0343 41.4071L40.2166 41.4442L39.4239 41.4851L38.6562 41.5301L37.9135 41.5789L37.1958 41.6318L36.5029 41.6886L35.835 41.7493L35.192 41.814L34.5739 41.8828L33.9807 41.9554L33.4123 42.0321C33.3196 42.0452 33.228 42.0585 33.1374 42.072L32.6062 42.1546L32.0998 42.2413L31.6183 42.332L31.1615 42.4267Z" fill="black"/>
<path d="M53.245 34.4125C53.2016 34.0395 52.8846 33.75 52.5 33.75L52.4125 33.755C52.0395 33.7984 51.75 34.1154 51.75 34.5V44.25H46.5L46.4125 44.255C46.0395 44.2984 45.75 44.6154 45.75 45C45.75 45.4142 46.0858 45.75 46.5 45.75H52.5L52.5875 45.7449C52.9605 45.7016 53.25 45.3846 53.25 45V34.5L53.245 34.4125Z" fill="black"/>
<path d="M7.5 23.25C7.88463 23.25 8.20163 23.5395 8.24495 23.9125L8.25 24V37.5C8.25 37.9142 7.91421 38.25 7.5 38.25C7.11537 38.25 6.79837 37.9605 6.75505 37.5875L6.75 37.5V24C6.75 23.5858 7.08579 23.25 7.5 23.25Z" fill="black"/>
</svg>
