<svg width="60" height="60" viewBox="0 0 60 60" fill="none" xmlns="http://www.w3.org/2000/svg">
<path fill-rule="evenodd" clip-rule="evenodd" d="M44.25 57C43.8364 57 43.5 56.6636 43.5 56.25C43.5 55.8364 43.8364 55.5 44.25 55.5C44.6636 55.5 45 55.8364 45 56.25C45 56.6636 44.6636 57 44.25 57Z" fill="black"/>
<path fill-rule="evenodd" clip-rule="evenodd" d="M50.25 9C49.8364 9 49.5 8.66355 49.5 8.25C49.5 7.83641 49.8364 7.5 50.25 7.5C50.6636 7.5 51 7.83641 51 8.25C51 8.66355 50.6636 9 50.25 9Z" fill="black"/>
<path fill-rule="evenodd" clip-rule="evenodd" d="M6.75 12C6.33645 12 6 11.6636 6 11.25C6 10.8364 6.33645 10.5 6.75 10.5C7.16355 10.5 7.5 10.8364 7.5 11.25C7.5 11.6636 7.16355 12 6.75 12Z" fill="black"/>
<path d="M27.75 17.25C27.75 16.8358 27.4142 16.5 27 16.5H18L17.9125 16.505C17.5395 16.5484 17.25 16.8654 17.25 17.25C17.25 17.6642 17.5858 18 18 18H27L27.0875 17.995C27.4605 17.9516 27.75 17.6346 27.75 17.25Z" fill="black"/>
<path d="M29.25 30C28.4216 30 27.75 30.6716 27.75 31.5C27.75 33.3653 28.5065 34.5 30 34.5C30.4142 34.5 30.75 34.1642 30.75 33.75C30.75 33.3358 30.4142 33 30 33L29.9294 32.9975C29.8399 32.9908 29.7594 32.9709 29.6879 32.9351C30.3027 32.7477 30.75 32.1761 30.75 31.5C30.75 30.6716 30.0784 30 29.25 30Z" fill="black"/>
<path d="M32.25 31.5C32.25 30.6716 32.9216 30 33.75 30C34.5784 30 35.25 30.6716 35.25 31.5C35.25 32.1761 34.8027 32.7477 34.1879 32.9351C34.2594 32.9709 34.3399 32.9908 34.4294 32.9975L34.5 33C34.9142 33 35.25 33.3358 35.25 33.75C35.25 34.1642 34.9142 34.5 34.5 34.5C33.0065 34.5 32.25 33.3653 32.25 31.5Z" fill="black"/>
<path d="M25.5 19.5C25.9142 19.5 26.25 19.8358 26.25 20.25C26.25 20.6346 25.9605 20.9516 25.5875 20.995L25.5 21H18C17.5858 21 17.25 20.6642 17.25 20.25C17.25 19.8654 17.5395 19.5484 17.9125 19.505L18 19.5H25.5Z" fill="black"/>
<path d="M23.25 23.25C23.25 22.8358 22.9142 22.5 22.5 22.5H18L17.9125 22.505C17.5395 22.5484 17.25 22.8654 17.25 23.25C17.25 23.6642 17.5858 24 18 24H22.5L22.5875 23.995C22.9605 23.9516 23.25 23.6346 23.25 23.25Z" fill="black"/>
<path d="M42 37.5C42.4142 37.5 42.75 37.8358 42.75 38.25C42.75 38.6346 42.4605 38.9516 42.0875 38.995L42 39H28.5C28.0858 39 27.75 38.6642 27.75 38.25C27.75 37.8654 28.0395 37.5484 28.4125 37.505L28.5 37.5H42Z" fill="black"/>
<path d="M39.75 41.25C39.75 40.8358 39.4142 40.5 39 40.5H28.5L28.4125 40.505C28.0395 40.5484 27.75 40.8654 27.75 41.25C27.75 41.6642 28.0858 42 28.5 42H39L39.0875 41.995C39.4605 41.9516 39.75 41.6346 39.75 41.25Z" fill="black"/>
<path d="M24 9C29.1405 9 33.216 12.0428 35.1959 16.9704C35.3504 17.3547 35.164 17.7915 34.7796 17.9459C34.3953 18.1004 33.9585 17.914 33.8041 17.5296C32.0429 13.1465 28.4983 10.5 24 10.5C17.7868 10.5 12.75 15.5368 12.75 21.75C12.75 24.1619 13.51 26.4572 14.8993 28.3651C15.0754 28.6069 15.0894 28.9272 14.9428 29.1811L14.8881 29.2631L12.0202 33H16.5C16.8846 33 17.2016 33.2895 17.245 33.6625L17.25 33.75C17.25 34.1346 16.9605 34.4516 16.5875 34.495L16.5 34.5H10.5C9.90643 34.5 9.55897 33.8502 9.85784 33.362L9.90497 33.2934L13.365 28.7835L13.3226 28.7208C12.0381 26.7576 11.3146 24.4718 11.2541 22.0772L11.25 21.75C11.25 14.7084 16.9584 9 24 9Z" fill="black"/>
<path d="M35.25 21C43.5343 21 50.25 27.7157 50.25 36C50.25 38.348 49.7095 40.6203 48.6853 42.6774C48.5007 43.0482 48.0504 43.1991 47.6796 43.0145C47.3088 42.8298 47.1579 42.3796 47.3425 42.0088C48.2639 40.1583 48.75 38.1147 48.75 36C48.75 28.5442 42.7058 22.5 35.25 22.5C27.7942 22.5 21.75 28.5442 21.75 36C21.75 43.373 27.6606 49.3655 35.002 49.4978L35.25 49.5H48.0983L45.876 46.166C45.6626 45.846 45.7277 45.4216 46.014 45.1787L46.084 45.126C46.404 44.9126 46.8284 44.9777 47.0713 45.264L47.124 45.334L50.124 49.834C50.4405 50.3087 50.1315 50.9368 49.5839 50.9955L49.5 51H35.25C26.9657 51 20.25 44.2843 20.25 36C20.25 27.7157 26.9657 21 35.25 21Z" fill="black"/>
<path d="M41.25 14.25C41.25 14.6636 41.5864 15 42 15C42.4136 15 42.75 14.6636 42.75 14.25C42.75 13.8364 42.4136 13.5 42 13.5C41.5864 13.5 41.25 13.8364 41.25 14.25Z" fill="black"/>
<path d="M45 15C44.5864 15 44.25 14.6636 44.25 14.25C44.25 13.8364 44.5864 13.5 45 13.5C45.4136 13.5 45.75 13.8364 45.75 14.25C45.75 14.6636 45.4136 15 45 15Z" fill="black"/>
<path d="M47.25 14.25C47.25 14.6636 47.5864 15 48 15C48.4136 15 48.75 14.6636 48.75 14.25C48.75 13.8364 48.4136 13.5 48 13.5C47.5864 13.5 47.25 13.8364 47.25 14.25Z" fill="black"/>
<path fill-rule="evenodd" clip-rule="evenodd" d="M51 10.5H39C38.5858 10.5 38.25 10.8358 38.25 11.25V17.25L38.255 17.3375C38.2984 17.7105 38.6154 18 39 18H44.6888L47.4697 20.7803L47.5331 20.8374C48.0109 21.2231 48.75 20.8891 48.75 20.25V18H51C51.4142 18 51.75 17.6642 51.75 17.25V11.25C51.75 10.8358 51.4142 10.5 51 10.5ZM50.25 12V16.5H48L47.9125 16.505C47.5395 16.5484 47.25 16.8654 47.25 17.25V18.4388L45.5303 16.7197L45.456 16.6546C45.3259 16.5549 45.1658 16.5 45 16.5H39.75V12H50.25Z" fill="black"/>
<path d="M12 43.5C12.4142 43.5 12.75 43.8358 12.75 44.25C12.75 44.6346 12.4605 44.9516 12.0875 44.995L12 45H9C8.58579 45 8.25 44.6642 8.25 44.25C8.25 43.8654 8.53953 43.5484 8.91253 43.505L9 43.5H12Z" fill="black"/>
<path d="M14.25 44.25C14.25 44.6636 14.5864 45 15 45C15.4136 45 15.75 44.6636 15.75 44.25C15.75 43.8364 15.4136 43.5 15 43.5C14.5864 43.5 14.25 43.8364 14.25 44.25Z" fill="black"/>
<path d="M18 45C17.5864 45 17.25 44.6636 17.25 44.25C17.25 43.8364 17.5864 43.5 18 43.5C18.4136 43.5 18.75 43.8364 18.75 44.25C18.75 44.6636 18.4136 45 18 45Z" fill="black"/>
</svg>
