<svg width="20" height="19" viewBox="0 0 20 19" fill="none" xmlns="http://www.w3.org/2000/svg">
<path d="M18.1684 0H1.81683C0.813034 0 0 0.772955 0 1.72727V17.2727C0 18.227 0.813034 19 1.81683 19H10.901V11.2273H8.17576V8.63636H10.901V7.24505C10.901 4.61095 12.2509 3.45455 14.5538 3.45455C15.6566 3.45455 16.2398 3.53227 16.5159 3.56768V6.04545H14.9453C13.9678 6.04545 13.6263 6.536 13.6263 7.52918V8.63636H16.4914L16.1026 11.2273H13.6263V19H18.1684C19.1722 19 19.9852 18.227 19.9852 17.2727V1.72727C19.9852 0.772955 19.1712 0 18.1684 0Z" fill="black"/>
</svg>
