<svg width="21" height="21" viewBox="0 0 21 21" fill="none" xmlns="http://www.w3.org/2000/svg">
<path d="M10.5 1.75C12.8774 1.75 13.174 1.75875 14.1067 1.8025C15.0386 1.84625 15.673 1.99238 16.2312 2.20938C16.8087 2.43163 17.2953 2.73262 17.7817 3.21825C18.2267 3.65566 18.571 4.18477 18.7906 4.76875C19.0068 5.32612 19.1538 5.96137 19.1975 6.89325C19.2386 7.826 19.25 8.12262 19.25 10.5C19.25 12.8774 19.2413 13.174 19.1975 14.1067C19.1538 15.0386 19.0068 15.673 18.7906 16.2312C18.5716 16.8156 18.2272 17.3448 17.7817 17.7817C17.3442 18.2265 16.8151 18.5708 16.2312 18.7906C15.6739 19.0068 15.0386 19.1538 14.1067 19.1975C13.174 19.2386 12.8774 19.25 10.5 19.25C8.12262 19.25 7.826 19.2413 6.89325 19.1975C5.96137 19.1538 5.327 19.0068 4.76875 18.7906C4.18454 18.5714 3.65534 18.2271 3.21825 17.7817C2.77323 17.3444 2.42894 16.8153 2.20938 16.2312C1.99238 15.6739 1.84625 15.0386 1.8025 14.1067C1.76137 13.174 1.75 12.8774 1.75 10.5C1.75 8.12262 1.75875 7.826 1.8025 6.89325C1.84625 5.9605 1.99238 5.327 2.20938 4.76875C2.42833 4.18441 2.7727 3.65516 3.21825 3.21825C3.65546 2.77308 4.18462 2.42876 4.76875 2.20938C5.327 1.99238 5.9605 1.84625 6.89325 1.8025C7.826 1.76137 8.12262 1.75 10.5 1.75ZM10.5 6.125C9.33968 6.125 8.22688 6.58594 7.40641 7.40641C6.58594 8.22688 6.125 9.33968 6.125 10.5C6.125 11.6603 6.58594 12.7731 7.40641 13.5936C8.22688 14.4141 9.33968 14.875 10.5 14.875C11.6603 14.875 12.7731 14.4141 13.5936 13.5936C14.4141 12.7731 14.875 11.6603 14.875 10.5C14.875 9.33968 14.4141 8.22688 13.5936 7.40641C12.7731 6.58594 11.6603 6.125 10.5 6.125ZM16.1875 5.90625C16.1875 5.61617 16.0723 5.33797 15.8671 5.13285C15.662 4.92773 15.3838 4.8125 15.0938 4.8125C14.8037 4.8125 14.5255 4.92773 14.3204 5.13285C14.1152 5.33797 14 5.61617 14 5.90625C14 6.19633 14.1152 6.47453 14.3204 6.67965C14.5255 6.88477 14.8037 7 15.0938 7C15.3838 7 15.662 6.88477 15.8671 6.67965C16.0723 6.47453 16.1875 6.19633 16.1875 5.90625ZM10.5 7.875C11.1962 7.875 11.8639 8.15156 12.3562 8.64384C12.8484 9.13613 13.125 9.80381 13.125 10.5C13.125 11.1962 12.8484 11.8639 12.3562 12.3562C11.8639 12.8484 11.1962 13.125 10.5 13.125C9.80381 13.125 9.13613 12.8484 8.64384 12.3562C8.15156 11.8639 7.875 11.1962 7.875 10.5C7.875 9.80381 8.15156 9.13613 8.64384 8.64384C9.13613 8.15156 9.80381 7.875 10.5 7.875Z" fill="white"/>
</svg>
