<svg width="16" height="16" viewBox="0 0 16 16" fill="none" xmlns="http://www.w3.org/2000/svg">
<path fill-rule="evenodd" clip-rule="evenodd" d="M12.1286 10.2428L11.1859 9.29882L12.1286 8.35616C12.9768 7.51532 13.3104 6.28492 13.0029 5.13081C12.6955 3.97669 11.794 3.07526 10.6399 2.76783C9.48582 2.46039 8.25541 2.79392 7.41458 3.64216L6.47191 4.58549L5.52858 3.64282L6.47258 2.70016C8.29512 0.877617 11.25 0.877617 13.0726 2.70016C14.8951 4.5227 14.8951 7.47762 13.0726 9.30016L12.1292 10.2428H12.1286ZM10.2432 12.1282L9.29991 13.0708C7.47737 14.8934 4.52245 14.8934 2.69991 13.0708C0.877373 11.2483 0.877373 8.29336 2.69991 6.47082L3.64325 5.52816L4.58591 6.47216L3.64325 7.41482C2.79501 8.25566 2.46148 9.48606 2.76891 10.6402C3.07635 11.7943 3.97778 12.6957 5.13189 13.0032C6.28601 13.3106 7.51641 12.9771 8.35725 12.1288L9.29991 11.1862L10.2432 12.1288V12.1282ZM9.77125 5.05682L10.7146 6.00016L6.00058 10.7135L5.05725 9.77082L9.77125 5.05749V5.05682Z" fill="#6B48F4"/>
</svg>
