<svg width="17" height="17" viewBox="0 0 17 17" fill="none" xmlns="http://www.w3.org/2000/svg">
<path d="M13.0078 12.2995L8.5 16.8074L3.99217 12.2995C3.10062 11.408 2.49347 10.272 2.24749 9.03542C2.00152 7.79879 2.12777 6.517 2.61028 5.35212C3.09279 4.18725 3.90989 3.19161 4.95825 2.49112C6.00661 1.79063 7.23915 1.41675 8.5 1.41675C9.76086 1.41675 10.9934 1.79063 12.0418 2.49112C13.0901 3.19161 13.9072 4.18725 14.3897 5.35212C14.8722 6.517 14.9985 7.79879 14.7525 9.03542C14.5065 10.272 13.8994 11.408 13.0078 12.2995ZM8.5 9.20836C8.87573 9.20836 9.23606 9.0591 9.50174 8.79343C9.76741 8.52775 9.91667 8.16742 9.91667 7.79169C9.91667 7.41597 9.76741 7.05563 9.50174 6.78996C9.23606 6.52428 8.87573 6.37503 8.5 6.37503C8.12428 6.37503 7.76394 6.52428 7.49827 6.78996C7.23259 7.05563 7.08334 7.41597 7.08334 7.79169C7.08334 8.16742 7.23259 8.52775 7.49827 8.79343C7.76394 9.0591 8.12428 9.20836 8.5 9.20836Z" fill="#F45800"/>
</svg>
