<svg width="199" height="155" viewBox="0 0 199 155" fill="none" xmlns="http://www.w3.org/2000/svg">
<rect width="199" height="155" fill="white"/>
<path fill-rule="evenodd" clip-rule="evenodd" d="M71.96 121.7L70.1 123.4H69.62L70.72 121.46H71.96V121.7ZM70.62 128.28H70.22C69.72 128.88 69.16 129.36 68.62 129.36C68.06 129.36 67.78 129.02 67.78 128.28C67.78 127.98 67.82 127.66 67.88 127.38L71.14 126.3C71.78 124.78 71.02 124.12 70.12 124.12C68.58 124.12 66.82 126.82 66.82 128.98C66.82 130 67.3 130.56 68.06 130.56C68.94 130.54 69.86 129.68 70.62 128.28ZM69.5 125C69.94 125 70.32 125.34 70.12 126.12L68.1 126.66C68.42 125.7 69.02 125 69.5 125ZM63.14 125.04H64.22L62.5 129.76C62.34 130.16 62.56 130.56 62.98 130.56C64.2 130.56 65.66 129.52 66.22 128.04H65.92C65.48 128.66 64.52 129.34 63.8 129.46L65.38 125.04H67L67.2 124.36H65.62L66.22 122.66H65.6L64.48 124.36L63.14 124.54V125.04ZM61.64 124.14C61.86 124.14 62.16 124.38 62.02 124.82L60.08 129.52C60.58 129.44 61.1 128.96 61.4 128.52H61.72C61.26 129.7 60.22 130.56 59.32 130.56C59.1 130.56 58.78 130.32 58.94 129.88L60.74 125.18C60.24 125.26 59.72 125.74 59.42 126.18H59.12C59.58 124.98 60.7 124.14 61.64 124.14ZM62.2 122.94C62.6 122.94 62.94 122.62 62.94 122.2C62.94 121.8 62.6 121.46 62.2 121.46C61.78 121.46 61.46 121.8 61.46 122.2C61.46 122.6 61.8 122.94 62.2 122.94ZM53.46 126.84C53.9 125.88 53.74 125.44 53.46 125.44C53.22 125.44 52.94 125.7 52.66 126.18H52.36C52.82 125.16 53.42 124.14 54.08 124.14C54.64 124.14 54.84 124.7 54.84 125.32V126.2C54.931 126.094 55.0195 125.99 55.106 125.889L55.1061 125.889C55.951 124.897 56.5961 124.14 57.34 124.14C57.92 124.14 58.22 124.5 58.22 125.04C58.22 125.36 58.12 125.76 57.9 126.18L56.24 129.52C56.74 129.44 57.26 128.96 57.56 128.52H57.86C57.4 129.72 56.28 130.56 55.34 130.56C54.92 130.56 54.68 130.12 54.86 129.76L56.78 126.06C57 125.64 57.04 125.36 56.7 125.36C56.24 125.36 55.16 126.12 54.58 126.82L53.32 130.14C53.18 130.48 53.04 130.56 52.72 130.56C52.2 130.56 51.94 130.22 52.18 129.68L53.46 126.84ZM52.16 125.56C52.38 124.8 52.26 124.12 51.68 124.12C50.9567 124.12 50.7302 124.598 50.0292 126.076L49.98 126.18V125.3C49.98 124.68 49.78 124.12 49.22 124.12C48.56 124.12 47.96 125.14 47.5 126.16H47.8C48.12 125.7 48.42 125.42 48.66 125.42C48.94 125.42 49.1 125.86 48.66 126.82L47.38 129.66C47.14 130.2 47.4 130.54 47.92 130.54C48.24 130.54 48.38 130.46 48.52 130.12L49.78 126.8C50.14 126.36 50.46 125.98 50.86 125.56H52.16ZM45.84 126.12C46.04 125.34 45.66 125 45.22 125C44.74 125 44.14 125.7 43.82 126.66L45.84 126.12ZM46.34 128.28H45.94C45.44 128.88 44.88 129.36 44.34 129.36C43.78 129.36 43.5 129.02 43.5 128.28C43.5 127.98 43.54 127.66 43.6 127.38L46.86 126.3C47.5 124.78 46.74 124.12 45.84 124.12C44.3 124.12 42.54 126.82 42.54 128.98C42.54 130 43.02 130.56 43.78 130.56C44.66 130.54 45.58 129.68 46.34 128.28ZM39.94 125.04H38.86V124.54L40.2 124.36L41.32 122.66H41.94L41.34 124.36H42.92L42.72 125.04H41.1L39.52 129.46C40.24 129.34 41.2 128.66 41.64 128.04H41.94C41.38 129.52 39.92 130.56 38.7 130.56C38.28 130.56 38.06 130.16 38.22 129.76L39.94 125.04ZM33.14 128.7C33.14 127.24 34.76 125.28 35.66 125.28C35.86 125.28 36.06 125.3 36.22 125.36L35.28 127.88C34.74 128.54 33.9 129.34 33.5 129.34C33.28 129.34 33.14 129.14 33.14 128.7ZM37.6 123.82L38.1 123.86L36.36 127.86C35.94 128.82 36.12 129.26 36.36 129.26C36.6 129.26 36.9 128.98 37.22 128.52H37.52C37.06 129.54 36.46 130.56 35.8 130.56C35.24 130.56 34.9 129.96 35 128.88L35.04 128.5L34.9311 128.652C34.2147 129.654 33.5664 130.56 32.9 130.56C32.32 130.56 32.02 130.2 32.02 129.66C32.02 127.34 34.56 124.38 36.94 124.38H37.04L37.6 123.82ZM33.02 125.56C33.24 124.8 33.12 124.12 32.54 124.12C31.8167 124.12 31.5902 124.598 30.8892 126.076L30.84 126.18V125.3C30.84 124.68 30.64 124.12 30.08 124.12C29.42 124.12 28.82 125.14 28.36 126.16H28.66C28.98 125.7 29.28 125.42 29.5 125.42C29.78 125.42 29.94 125.86 29.5 126.82L28.22 129.68C27.98 130.22 28.24 130.56 28.76 130.56C29.08 130.56 29.22 130.48 29.36 130.14L30.62 126.82C30.98 126.38 31.3 126 31.7 125.58H33.02V125.56ZM24.78 129.96L24.66 130.32H20L20.12 129.94C21.56 129.68 21.8 129.56 22.4 127.94L23.7 124.46C24.28 122.84 24.16 122.72 22.9 122.46L23.02 122.1H29.08L28.72 124.04H28.28C28.28 122.88 28.16 122.58 27.06 122.58H26.78C25.7 122.58 25.56 122.74 25.26 123.58L24.4 125.92H25.66C26.5 125.92 26.82 125.4 27.2 124.72H27.64L26.6 127.56H26.16C26.26 126.7 26.26 126.36 25.48 126.36H24.22L23.64 127.96C23.013 129.625 23.1922 129.659 24.6851 129.942C24.7162 129.948 24.7478 129.954 24.78 129.96Z" fill="#1E1E1E"/>
<path fill-rule="evenodd" clip-rule="evenodd" d="M28.74 106.4L26.88 107.74V107.76H26.4L27.5 106.16H28.74V106.4ZM41.74 115.78L44.72 107.86L44.62 107.74L42.56 107.98V108.22L42.96 108.52C43.3015 108.786 43.2111 109.033 42.9277 109.809L42.88 109.94L40.6 116.02C40.42 116.38 40.66 116.82 41.08 116.82C42.02 116.82 43.02 115.96 43.48 114.78H43.18C42.86 115.22 42.22 115.7 41.74 115.78ZM55.4 109.68L57.26 107.98V107.74H56.02L54.92 109.68H55.4ZM55.52 114.54H55.92C55.18 115.96 54.26 116.82 53.38 116.82C52.62 116.82 52.14 116.26 52.14 115.24C52.14 113.08 53.9 110.38 55.44 110.38C56.32 110.38 57.1 111.04 56.46 112.56L53.18 113.64C53.12 113.92 53.08 114.24 53.08 114.54C53.08 115.28 53.36 115.62 53.92 115.62C54.46 115.62 55.02 115.14 55.52 114.54ZM55.42 112.38C55.62 111.62 55.24 111.28 54.8 111.28C54.34 111.28 53.74 111.98 53.4 112.92L55.42 112.38ZM49.54 111.32H48.46V110.82L49.8 110.64L50.92 108.94H51.54L50.94 110.64H52.52L52.32 111.32H50.7L49.12 115.74C49.84 115.62 50.8 114.94 51.24 114.32H51.54C50.98 115.8 49.52 116.84 48.3 116.84C47.88 116.84 47.66 116.44 47.82 116.04L49.54 111.32ZM47.34 111.08C47.46 110.64 47.18 110.4 46.94 110.4C46 110.4 44.88 111.26 44.42 112.44H44.72C45.02 112 45.54 111.52 46.04 111.44L44.24 116.14C44.08 116.58 44.4 116.82 44.62 116.82C45.52 116.82 46.56 115.96 47.02 114.78H46.72C46.42 115.22 45.9 115.7 45.4 115.78L47.34 111.08ZM48.26 108.48C48.26 108.88 47.92 109.22 47.52 109.22C47.12 109.22 46.78 108.88 46.78 108.48C46.78 108.08 47.1 107.74 47.52 107.74C47.92 107.74 48.26 108.08 48.26 108.48ZM38.16 111.56C37.26 111.56 35.64 113.52 35.64 114.98C35.64 115.42 35.78 115.62 36.02 115.62C36.4 115.62 37.24 114.82 37.78 114.16L38.72 111.64C38.54 111.58 38.36 111.56 38.16 111.56ZM40.6 110.14L40.1 110.1L39.54 110.66H39.44C37.06 110.66 34.52 113.62 34.52 115.94C34.52 116.48 34.82 116.84 35.4 116.84C36.0664 116.84 36.7147 115.934 37.4311 114.932L37.54 114.78L37.5 115.16C37.4 116.24 37.74 116.84 38.3 116.84C38.96 116.84 39.56 115.82 40.02 114.8H39.72C39.4 115.26 39.1 115.54 38.86 115.54C38.62 115.54 38.44 115.1 38.86 114.14L40.6 110.14ZM30.52 116.62C29.66 116.96 29.06 117.36 29.06 117.98C29.06 118.56 29.6 118.8 30.72 118.8C32.22 118.8 33.04 118.36 33.04 117.78C33.04 117.52 32.7 117.4 31.8 117.1C31.22 116.92 30.8 116.76 30.52 116.62ZM31.52 114.16C31.12 114.16 30.98 113.82 30.98 113.46C30.98 112.3 31.54 110.86 32.44 110.86C32.84 110.86 32.98 111.2 32.98 111.56C32.96 112.74 32.4 114.16 31.52 114.16ZM32.28 116.04C33.38 116.38 34.06 116.64 34.06 117.4C34.06 118.38 32.26 119.54 30.08 119.52C28.82 119.52 27.74 119.18 27.74 118.36C27.74 117.58 28.46 116.94 30.22 116.42C29.98 116.26 29.88 116.06 29.88 115.78C29.88 115.3 30.32 114.92 31.08 114.56C30.34 114.46 29.86 113.9 29.86 113.08C29.86 111.82 30.9 110.38 32.54 110.38C32.88 110.38 33.18 110.46 33.42 110.62H35.22L35.02 111.3H33.96C34.02 111.48 34.06 111.68 34.06 111.9C34.06 113.12 33.08 114.52 31.52 114.6C31.12 114.82 30.92 115.12 30.92 115.36C30.92 115.642 31.2472 115.738 31.9702 115.949L31.9705 115.949C32.0666 115.977 32.1697 116.007 32.28 116.04ZM25.94 112.62C26.72 112.62 26.74 112.96 26.62 113.82H27.06L28.1 110.98H27.66C27.28 111.66 26.96 112.18 26.12 112.18H24.4L25.24 109.84C25.54 109 25.68 108.84 26.76 108.84H27.52C28.62 108.84 28.74 109.14 28.74 110.3H29.18L29.54 108.36H23.02L22.9 108.72C24.16 108.98 24.28 109.1 23.7 110.72L22.4 114.22C21.8 115.84 21.56 115.96 20.1 116.22L20 116.6H27.24L28.54 114.54H28.04C27.2 115.36 26.36 116.12 24.72 116.12C22.9161 116.12 22.9483 116.032 23.4895 114.545C23.5243 114.449 23.5613 114.348 23.6 114.24L24.2 112.64H25.94V112.62Z" fill="#1E1E1E"/>
<path fill-rule="evenodd" clip-rule="evenodd" d="M31.92 95.48C32.32 95.48 32.66 95.14 32.66 94.74C32.66 94.34 32.32 94 31.92 94C31.5 94 31.18 94.34 31.18 94.74C31.18 95.16 31.5 95.48 31.92 95.48ZM33.66 103.08C35.22 103.1 37.84 100.22 37.84 98C37.84 97.04 37.6 96.68 36.92 96.68C36.08 96.68 35.3 97.58 34.52 98.66L36.2 94.16L36.1 94.02L34.04 94.26V94.5L34.44 94.8C34.7883 95.0709 34.6873 95.3418 34.3906 96.1378L34.36 96.22L32.54 100.98C32.38 101.38 32.2 101.86 32.2 101.98C32.2 102.54 32.96 103.08 33.66 103.08ZM55.18 95.96L57.04 94.26V94.02H55.8L54.7 95.96H55.18ZM55.3 100.82H55.7C54.94 102.24 54.02 103.1 53.14 103.08C52.38 103.08 51.9 102.54 51.9 101.52C51.9 99.36 53.66 96.66 55.2 96.66C56.08 96.66 56.86 97.32 56.22 98.84L52.96 99.92C52.9 100.2 52.86 100.52 52.86 100.82C52.86 101.56 53.14 101.9 53.7 101.9C54.24 101.9 54.8 101.42 55.3 100.82ZM55.2 98.66C55.4 97.9 55.02 97.56 54.58 97.56C54.1 97.56 53.5 98.26 53.18 99.2L55.2 98.66ZM49.3 97.6H48.22V97.1L49.56 96.92L50.68 95.22H51.3L50.7 96.92H52.28L52.08 97.6H50.46L48.88 102.02C49.6 101.9 50.56 101.22 51 100.6H51.3C50.74 102.08 49.28 103.12 48.06 103.12C47.64 103.12 47.42 102.72 47.58 102.32L49.3 97.6ZM47.66 98.12C47.88 97.36 47.76 96.68 47.18 96.68C46.4567 96.68 46.2302 97.1577 45.5292 98.6362L45.48 98.74V97.86C45.48 97.24 45.28 96.68 44.72 96.68C44.06 96.68 43.46 97.7 43 98.72H43.3C43.62 98.26 43.92 97.98 44.14 97.98C44.42 97.98 44.58 98.42 44.14 99.38L42.86 102.22C42.62 102.76 42.88 103.1 43.4 103.1C43.72 103.1 43.86 103.02 44 102.68L45.26 99.36C45.62 98.92 45.94 98.54 46.34 98.12H47.66ZM41.32 98.66C41.52 97.9 41.14 97.56 40.7 97.56C40.22 97.56 39.64 98.26 39.3 99.2L41.32 98.66ZM41.82 100.82H41.42C40.92 101.42 40.36 101.9 39.82 101.9C39.26 101.9 38.98 101.56 38.98 100.82C38.98 100.52 39.02 100.2 39.08 99.92L42.34 98.84C42.98 97.32 42.22 96.66 41.32 96.66C39.78 96.66 38.02 99.36 38.02 101.52C38.02 102.54 38.5 103.08 39.26 103.08C40.14 103.1 41.06 102.24 41.82 100.82ZM33.42 101.58C33.42 101.84 33.88 102.14 34.2 102.14C35.5 102.14 36.72 99.8 36.7 98.5C36.7 98.06 36.48 97.88 36.18 97.88C35.7 97.88 34.82 98.6 34.26 99.28L33.74 100.68C33.56 101.14 33.42 101.5 33.42 101.58ZM31.32 96.68C31.56 96.68 31.84 96.92 31.72 97.36L29.8 102.06C30.3 101.98 30.82 101.5 31.12 101.06H31.42C30.96 102.24 29.92 103.1 29.02 103.1C28.78 103.1 28.46 102.86 28.62 102.42L30.42 97.72C29.92 97.8 29.4 98.28 29.1 98.72H28.8C29.26 97.54 30.38 96.68 31.32 96.68ZM23.02 94.6H27.32L27.2 94.98C25.74 95.24 25.5 95.36 24.9 96.98L23.62 100.5C23 102.18 23.16 102.38 24.26 102.38C25.619 102.38 26.5102 101.392 27.2883 100.53C27.3461 100.466 27.4033 100.402 27.46 100.34H27.96L26.54 102.86H20L20.12 102.5C21.56 102.24 21.8 102.12 22.4 100.5L23.7 96.96C24.28 95.34 24.16 95.22 22.9 94.96L23.02 94.6Z" fill="#1E1E1E"/>
<path d="M22.06 64H24.9V54.04L28.02 59.2H30.02L33.14 54.04V64H35.98V50H32.4L29.02 55.76L25.64 50H22.06V64ZM40.1873 64H43.0273V50H40.1873V64ZM47.2405 64H50.0805V53.94L56.3405 64H59.9805V50H57.1405V60.02L50.8805 50H47.2405V64ZM64.1959 64H67.0359V50H64.1959V64ZM69.9891 62.06C70.5891 62.8 71.3291 63.38 72.1691 63.78C73.0091 64.2 74.0091 64.4 75.1891 64.4C75.8291 64.4 76.4291 64.32 76.9891 64.12C77.5491 63.92 78.0291 63.64 78.4491 63.28C78.8491 62.92 79.1891 62.48 79.4291 61.96C79.6691 61.44 79.8091 60.86 79.8291 60.2C79.8291 59.04 79.4891 58.14 78.8291 57.52C78.1491 56.92 77.4291 56.42 76.6291 56.04C75.8291 55.66 75.0891 55.3 74.4291 54.98C73.7491 54.66 73.4291 54.18 73.4291 53.54C73.4291 53.14 73.5691 52.78 73.8691 52.5C74.1491 52.22 74.5491 52.08 75.0491 52.08C75.5691 52.08 76.0691 52.24 76.5291 52.56C76.9891 52.88 77.4291 53.3 77.8491 53.82L79.9291 51.96C79.3291 51.26 78.6291 50.7 77.8091 50.26C76.9891 49.82 76.0691 49.6 75.0291 49.6C74.3491 49.6 73.7491 49.72 73.2091 49.92C72.6491 50.14 72.1891 50.44 71.7891 50.8C71.3891 51.16 71.0891 51.6 70.8691 52.1C70.6491 52.6 70.5491 53.12 70.5491 53.66C70.5491 54.82 70.8691 55.7 71.5491 56.3C72.2091 56.9 72.9491 57.4 73.7491 57.78C74.5491 58.16 75.2691 58.52 75.9491 58.84C76.6091 59.16 76.9491 59.64 76.9491 60.26C76.9491 60.78 76.7891 61.18 76.4691 61.46C76.1491 61.74 75.7091 61.88 75.1491 61.88C74.5691 61.88 74.0091 61.74 73.4691 61.42C72.9291 61.12 72.4491 60.7 72.0491 60.16L69.9891 62.06ZM81.5692 52.58H85.8892V64H88.7292V52.58H93.0492V50H81.5692V52.58ZM98.6636 48.8H101.264L99.0036 46.1H96.0836L98.6636 48.8ZM95.8436 64H104.004V61.58H98.6836V58.08H103.204V55.66H98.6836V52.42H104.004V50H95.8436V64ZM107.604 64H110.444V58.34H111.904L115.624 64H119.024L114.624 57.8C115.324 57.48 115.864 57 116.264 56.38C116.664 55.76 116.864 55.02 116.864 54.18C116.864 52.9 116.404 51.88 115.524 51.12C114.624 50.38 113.404 50 111.884 50H107.604V64ZM112.044 52.42C112.644 52.42 113.104 52.58 113.444 52.88C113.764 53.2 113.944 53.62 113.944 54.14C113.944 54.72 113.764 55.16 113.444 55.46C113.104 55.78 112.644 55.92 112.044 55.92H110.444V52.42H112.044ZM121.083 64H129.243V61.58H123.923V58.08H128.443V55.66H123.923V52.42H129.243V50H121.083V64ZM22.06 85H27.56C28.66 85 29.68 84.82 30.6 84.44C31.52 84.08 32.3 83.56 32.94 82.92C33.58 82.28 34.1 81.54 34.46 80.7C34.82 79.86 35 78.96 35 78C35 77.06 34.82 76.16 34.46 75.32C34.1 74.48 33.58 73.72 32.94 73.08C32.3 72.44 31.52 71.94 30.6 71.56C29.68 71.2 28.66 71 27.56 71H22.06V85ZM27.6 73.58C28.24 73.58 28.84 73.7 29.4 73.92C29.94 74.16 30.4 74.46 30.8 74.86C31.2 75.26 31.5 75.72 31.74 76.26C31.96 76.8 32.08 77.38 32.08 78C32.08 78.62 31.96 79.2 31.74 79.74C31.5 80.28 31.2 80.74 30.8 81.14C30.4 81.54 29.94 81.86 29.4 82.08C28.84 82.32 28.24 82.42 27.6 82.42H24.9V73.58H27.6ZM38.0389 85H46.1989V82.58H40.8789V79.08H45.3989V76.66H40.8789V73.42H46.1989V71H38.0389V85ZM55.2897 85H63.4497V82.42H58.1297V71H55.2897V85ZM65.0945 85H68.1145L69.4545 81.36H75.0545L76.3945 85H79.4145L74.1145 71H70.3945L65.0945 85ZM70.3345 78.94L72.2545 73.68L74.1745 78.94H70.3345ZM93.607 82.74C92.947 82.74 92.347 82.62 91.787 82.38C91.227 82.14 90.747 81.8 90.347 81.38C89.947 80.96 89.647 80.46 89.427 79.88C89.187 79.3 89.087 78.68 89.087 78C89.087 77.34 89.187 76.72 89.427 76.14C89.647 75.56 89.947 75.06 90.347 74.64C90.747 74.22 91.227 73.88 91.787 73.64C92.347 73.4 92.947 73.26 93.607 73.26C94.407 73.26 95.107 73.44 95.727 73.8C96.347 74.16 96.867 74.62 97.267 75.18L99.507 73.44C98.867 72.6 98.027 71.92 97.027 71.4C96.007 70.88 94.867 70.6 93.607 70.6C92.507 70.6 91.507 70.8 90.587 71.2C89.667 71.6 88.867 72.14 88.227 72.8C87.567 73.48 87.067 74.26 86.707 75.16C86.347 76.06 86.167 77 86.167 78C86.167 79 86.347 79.96 86.707 80.86C87.067 81.76 87.567 82.54 88.227 83.2C88.867 83.88 89.667 84.4 90.587 84.8C91.507 85.2 92.507 85.4 93.607 85.4C94.867 85.4 96.007 85.14 97.027 84.62C98.027 84.1 98.867 83.42 99.507 82.54L97.267 80.82C96.867 81.4 96.347 81.86 95.727 82.22C95.107 82.58 94.407 82.74 93.607 82.74ZM110.372 79.76C110.372 80.7 110.112 81.44 109.612 81.96C109.092 82.48 108.412 82.74 107.552 82.74C106.672 82.74 105.972 82.48 105.472 81.96C104.952 81.44 104.712 80.7 104.712 79.76V71H101.872V79.52C101.872 81.36 102.372 82.8 103.392 83.84C104.392 84.88 105.772 85.4 107.532 85.4C109.272 85.4 110.652 84.88 111.672 83.84C112.692 82.8 113.212 81.36 113.212 79.52V71H110.372V79.76ZM117.04 85H125.2V82.42H119.88V71H117.04V85ZM124.918 73.58H129.238V85H132.078V73.58H136.398V71H124.918V73.58ZM147.449 79.76C147.449 80.7 147.189 81.44 146.689 81.96C146.169 82.48 145.489 82.74 144.629 82.74C143.749 82.74 143.049 82.48 142.549 81.96C142.029 81.44 141.789 80.7 141.789 79.76V71H138.949V79.52C138.949 81.36 139.449 82.8 140.469 83.84C141.469 84.88 142.849 85.4 144.609 85.4C146.349 85.4 147.729 84.88 148.749 83.84C149.769 82.8 150.289 81.36 150.289 79.52V71H147.449V79.76ZM154.117 85H156.957V79.34H158.417L162.137 85H165.537L161.137 78.8C161.837 78.48 162.377 78 162.777 77.38C163.177 76.76 163.377 76.02 163.377 75.18C163.377 73.9 162.917 72.88 162.037 72.12C161.137 71.38 159.917 71 158.397 71H154.117V85ZM158.557 73.42C159.157 73.42 159.617 73.58 159.957 73.88C160.277 74.2 160.457 74.62 160.457 75.14C160.457 75.72 160.277 76.16 159.957 76.46C159.617 76.78 159.157 76.92 158.557 76.92H156.957V73.42H158.557ZM167.596 85H175.756V82.58H170.436V79.08H174.956V76.66H170.436V73.42H175.756V71H167.596V85Z" fill="#212121"/>
<path d="M37.8216 37.4757C37.828 37.4757 37.8345 37.4693 37.8345 37.4693C37.8863 37.4434 37.9382 37.411 37.9835 37.3722C37.977 37.3722 37.9706 37.3722 37.9641 37.3657C37.9187 37.3981 37.8669 37.4369 37.8216 37.4757Z" fill="#1F356C"/>
<path d="M45.146 35.0491L45.076 35.1091C45.116 35.0991 45.146 35.0891 45.146 35.0491Z" fill="#1F356C"/>
<path fill-rule="evenodd" clip-rule="evenodd" d="M42.8163 37.5858C43.03 37.3722 43.2438 37.1456 43.4576 36.9126H43.4511C43.8528 36.4595 44.2415 36.0259 44.7079 35.6311C44.8504 35.5016 44.9865 35.3916 45.116 35.301C45.135 35.282 45.1448 35.2536 45.1543 35.2259C45.1642 35.1969 45.1739 35.1686 45.1938 35.1521C45.1014 35.1871 45.0278 35.2424 44.9538 35.2981C44.8773 35.3557 44.8002 35.4136 44.7014 35.4498C44.6625 35.4498 44.6237 35.411 44.6625 35.3722C44.7986 35.2751 44.9346 35.1715 45.0642 35.068H45.0383C44.9994 35.068 44.9994 35.0291 44.9994 34.9903C44.5171 34.9142 44.1467 35.2418 43.8152 35.5351L43.7945 35.5534C43.7428 35.5792 43.6941 35.5536 43.6558 35.5335C43.6364 35.5233 43.6197 35.5146 43.6066 35.5146C43.3132 35.6123 43.0602 35.7924 42.8056 35.9737C42.571 36.1407 42.335 36.3087 42.0648 36.4142V36.3366C41.973 36.368 41.8823 36.409 41.7914 36.45L41.7914 36.45C41.6576 36.5105 41.5234 36.5711 41.3846 36.6019C41.131 36.6604 40.8958 36.6529 40.6679 36.6456H40.6679H40.6678H40.6678H40.6677C40.5929 36.6432 40.5189 36.6408 40.4452 36.6408C40.0303 36.6816 39.6207 36.7699 39.2116 36.8581L39.2116 36.8581L39.2116 36.8581L39.2115 36.8581L39.2115 36.8581L39.2115 36.8581L39.0783 36.8867C39.0718 36.89 39.0654 36.8916 39.0589 36.8932C39.0524 36.8948 39.0459 36.8964 39.0395 36.8997C38.7933 36.9644 38.5665 37.055 38.3398 37.1845L38.3139 37.1974C38.305 37.2093 38.2961 37.2198 38.2878 37.2296C38.278 37.2411 38.2691 37.2516 38.2621 37.2621C38.1843 37.3527 38.1131 37.4304 38.0029 37.4887C37.8403 37.5699 37.6997 37.6952 37.5614 37.8185L37.5614 37.8185L37.5614 37.8186C37.5014 37.8721 37.4418 37.9252 37.381 37.9741C37.3681 37.9871 37.3422 37.9935 37.3227 37.9935L37.3226 37.9936L37.3225 37.9937L37.3225 37.9938L37.3224 37.9939L37.3223 37.994L37.3222 37.994C37.1215 38.188 36.9209 38.382 36.7138 38.5696C36.7008 38.5825 36.6425 38.589 36.5972 38.5825C36.5972 38.5825 36.6037 38.5825 36.6037 38.576L36.6231 38.5372L36.7203 38.3819C36.7397 38.3528 36.7575 38.3237 36.7753 38.2946L36.7753 38.2945L36.7754 38.2944C36.7932 38.2653 36.811 38.2362 36.8304 38.2071L36.8304 38.207C36.8822 38.1294 36.9341 38.0518 36.9923 37.9806C37.0053 37.9612 37.0053 37.9417 36.9923 37.9288C36.9794 37.9159 36.96 37.9094 36.9405 37.9094C37.1284 37.7282 37.3486 37.5728 37.5754 37.4369V37.4304C37.5495 37.4369 37.5106 37.4175 37.53 37.3916C37.549 37.3678 37.5646 37.3406 37.5792 37.315C37.5845 37.3057 37.5896 37.2966 37.5948 37.288C37.5968 37.284 37.5982 37.2806 37.5994 37.2774L37.6013 37.2718L37.6013 37.2718C37.6029 37.267 37.6045 37.2621 37.6078 37.2557C37.6045 37.2492 37.5997 37.2443 37.5948 37.2395C37.59 37.2346 37.5851 37.2298 37.5819 37.2233C37.5692 37.2318 37.5561 37.2402 37.543 37.2488L37.5426 37.2491L37.5425 37.2491L37.5425 37.2491L37.5425 37.2491C37.4956 37.2796 37.4473 37.311 37.4069 37.3463C37.3783 37.3708 37.3517 37.4043 37.3243 37.4387C37.2649 37.5134 37.2021 37.5922 37.109 37.5922C37.1025 37.5922 37.0701 37.5922 37.0506 37.5858C37.0312 37.5858 37.0183 37.5793 37.0118 37.5728C37.0118 37.5663 37.0118 37.5663 37.0183 37.5663C37.0183 37.5663 37.0247 37.5599 37.0247 37.5534C37.0247 37.5534 37.0247 37.5469 37.0312 37.5469C37.0344 37.5405 37.0377 37.5356 37.0409 37.5308L37.0409 37.5307C37.0442 37.5259 37.0474 37.521 37.0506 37.5146C37.0539 37.5081 37.0571 37.5032 37.0604 37.4984L37.0604 37.4984C37.0636 37.4935 37.0668 37.4887 37.0701 37.4822C37.0709 37.4814 37.0716 37.4805 37.0722 37.4795L37.0739 37.4763L37.0754 37.4727L37.0765 37.4693L37.0766 37.4693C37.0782 37.4644 37.0798 37.4595 37.083 37.4563L37.0863 37.4502L37.0903 37.4429C37.0968 37.4316 37.1044 37.4181 37.109 37.4045C37.1122 37.3981 37.1154 37.3932 37.1187 37.3883C37.1211 37.3847 37.1236 37.381 37.126 37.3766L37.1284 37.3722C37.1381 37.3592 37.1462 37.3447 37.1543 37.3301C37.1624 37.3155 37.1705 37.301 37.1802 37.288C37.1867 37.2751 37.1932 37.2621 37.2061 37.2492C37.2126 37.2362 37.2191 37.2249 37.2256 37.2136L37.2329 37.2006C37.237 37.1934 37.241 37.186 37.245 37.178C37.2644 37.1456 37.245 37.1197 37.2191 37.1133C37.2903 37.0227 37.3746 36.945 37.4782 36.8867H37.4653C37.555 36.8419 37.6472 36.7894 37.7389 36.7373L37.7391 36.7371L37.7399 36.7367L37.7403 36.7364L37.7406 36.7363C37.7939 36.7059 37.847 36.6757 37.8993 36.6472C37.9187 36.6278 37.9382 36.6084 37.9641 36.5955C37.7503 36.6667 37.5559 36.7638 37.3681 36.8932C37.3681 36.8932 37.3163 36.9126 37.3033 36.9256C37.3033 36.9256 37.2644 36.9385 37.2126 36.8932C37.2061 36.8867 37.2061 36.8803 37.2061 36.8673C37.2286 36.8223 37.2751 36.7925 37.3253 36.7603C37.3617 36.7369 37.4002 36.7123 37.4329 36.6796C37.4717 36.6796 37.5041 36.6796 37.5041 36.7184C38.2502 36.1373 39.1702 36.0029 40.0933 35.868C40.661 35.785 41.2299 35.7019 41.7603 35.5146C41.8154 35.4757 41.872 35.4385 41.9287 35.4013L41.9287 35.4013L41.9288 35.4013C41.9855 35.364 42.0421 35.3268 42.0972 35.288C42.1917 35.249 42.2763 35.1821 42.366 35.1112C42.4546 35.0412 42.5481 34.9673 42.6608 34.9126C42.9588 34.6861 43.1855 34.4272 43.3021 34.0453C43.3021 34.0065 43.2633 33.9676 43.2633 33.9676C42.7709 34.4919 42.2073 34.9061 41.6048 35.2104C41.0303 35.5115 40.4148 35.5561 39.8054 35.6002L39.8054 35.6002L39.8054 35.6003L39.8054 35.6003L39.8053 35.6003L39.8053 35.6003C39.5764 35.6169 39.3483 35.6334 39.1237 35.6634C39.1625 35.5858 39.2403 35.5858 39.3115 35.5858C39.3115 35.4939 39.3559 35.4543 39.4128 35.4036L39.4128 35.4036L39.4129 35.4035L39.4129 35.4035L39.413 35.4034C39.4281 35.3899 39.4442 35.3756 39.4605 35.3592H39.5707C39.5901 35.3592 39.5998 35.3398 39.6095 35.3204C39.6193 35.301 39.629 35.2816 39.6484 35.2816C39.7261 35.2816 39.8363 35.2427 39.7974 35.2427C39.738 35.1668 39.6516 35.1969 39.5564 35.23C39.4647 35.2619 39.3648 35.2967 39.2727 35.2427C39.3069 35.2054 39.3172 35.1606 39.3266 35.1198C39.3367 35.0757 39.3458 35.0363 39.3828 35.0162H39.5318C39.5318 34.9385 39.6095 34.8673 39.6095 34.8673C39.9475 34.6655 40.2738 34.4893 40.594 34.3163C40.8079 34.2009 41.019 34.0868 41.2291 33.9676C41.1866 33.9676 41.1489 33.985 41.1123 34.0018C41.0541 34.0286 40.9987 34.0542 40.9311 34.0065C40.97 34.0065 40.97 33.979 40.97 33.9515C40.97 33.9239 40.97 33.8964 41.0088 33.8964C41.2519 33.8319 41.4682 33.7274 41.6891 33.6206C41.8451 33.5453 42.0033 33.4688 42.1749 33.4045C42.124 33.4045 42.0768 33.4181 42.0309 33.4314C41.9424 33.4569 41.8584 33.4812 41.7603 33.4045C41.786 33.3917 41.8068 33.3753 41.8273 33.3591C41.8687 33.3263 41.909 33.2945 41.987 33.2945V33.1845C41.987 33.1456 42.0259 33.1456 42.0648 33.1456C42.0259 33.1456 41.987 33.1068 41.987 33.1068C42.0076 33.0657 42.0482 33.0572 42.0933 33.0478C42.1334 33.0394 42.1772 33.0303 42.2138 32.9968C42.1749 32.9968 42.1037 32.9968 42.1037 32.9579C42.2138 32.8091 42.4016 32.7702 42.5895 32.7314C42.5701 32.6926 42.5328 32.6926 42.5004 32.6926C42.4681 32.6926 42.4405 32.6926 42.4405 32.6537C42.4405 32.6149 42.4794 32.6149 42.5183 32.6149H42.4405C42.3795 32.5844 42.3903 32.53 42.3978 32.4924L42.3998 32.4822L42.4004 32.4784L42.4012 32.4727C42.4015 32.4703 42.4016 32.4681 42.4016 32.466C42.5538 32.2879 42.6039 32.0777 42.6536 31.8687C42.678 31.7663 42.7023 31.6642 42.7385 31.5663C42.6996 31.5663 42.6608 31.5663 42.6608 31.5275C42.2965 31.9291 41.7192 32.0813 41.1707 32.2258L41.119 32.2395H40.9311C40.7432 32.3171 40.4776 32.3171 40.2898 32.2006C40.2004 32.1541 40.1367 32.0959 40.0679 32.033L40.0679 32.033C40.0219 31.991 39.9737 31.947 39.914 31.9029C39.6095 31.7152 39.3115 31.5663 38.9747 31.4498C38.0353 31.1521 37.0571 30.9968 36.0789 31.0356C36.3521 30.8863 36.6421 30.827 36.9361 30.7668C37.0883 30.7357 37.2415 30.7044 37.394 30.6602C37.4902 30.632 37.5856 30.603 37.6804 30.5741C38.2177 30.4105 38.7389 30.2518 39.3115 30.2848C39.2366 30.2584 39.1406 30.2679 39.0522 30.2767C39.0108 30.2808 38.971 30.2848 38.9358 30.2848C38.5028 30.2527 38.0653 30.3485 37.6089 30.4484C37.5123 30.4696 37.4148 30.491 37.3163 30.5113C37.1375 30.5483 36.9675 30.6013 36.7973 30.6545C36.6097 30.7131 36.4218 30.7717 36.2214 30.8091C36.1345 30.8388 36.0647 30.8895 35.9968 30.9389C35.8874 31.0183 35.7828 31.0944 35.619 31.0744V30.9579C35.9947 30.5049 36.4482 30.0582 37.0506 30.0194C37.633 29.9252 38.1821 29.9923 38.755 30.0623L38.755 30.0623C38.8512 30.0741 38.9481 30.0859 39.0459 30.0971C39.5155 30.1346 39.9549 30.2387 40.4283 30.3508L40.4776 30.3625C40.5813 30.3625 40.6396 30.4531 40.696 30.5409C40.7419 30.6122 40.7866 30.6816 40.8534 30.699C40.9456 30.7306 41.0378 30.7365 41.1301 30.7424C41.2646 30.751 41.3991 30.7596 41.5336 30.8479C41.5336 30.8218 41.5292 30.7964 41.5248 30.7712C41.5162 30.7216 41.5078 30.6729 41.5336 30.6214C41.6172 30.5378 41.713 30.5603 41.8073 30.5823C41.8811 30.5996 41.954 30.6166 42.0194 30.5825C42.2249 30.4559 42.0322 30.2615 41.8393 30.0669C41.7463 29.9731 41.6533 29.8792 41.6048 29.7929C41.6048 29.754 41.6437 29.7152 41.6437 29.7152C41.7288 29.791 41.808 29.8694 41.8866 29.9471C42.0833 30.1416 42.2757 30.3319 42.5442 30.466C42.732 30.5437 43.1855 30.6537 43.1078 30.4272C42.9747 30.1338 42.7474 29.8793 42.5179 29.6225C42.4234 29.5167 42.3285 29.4105 42.2397 29.301V29.1521C42.1806 29.1521 42.1664 29.1297 42.1488 29.1019C42.1433 29.0931 42.1374 29.0838 42.1296 29.0744V28.9256C42.0346 28.8761 42.0133 28.7976 41.9919 28.7188C41.9797 28.6739 41.9675 28.6289 41.9417 28.589C41.8768 28.4845 41.8721 28.3559 41.8673 28.2233C41.8635 28.1178 41.8595 28.0098 41.8251 27.9094C41.7474 27.6828 41.715 27.4951 41.6761 27.2686C41.6339 27.0368 41.5875 26.8152 41.5421 26.5983L41.5421 26.5982L41.542 26.5982L41.542 26.5982L41.542 26.598L41.542 26.5978C41.4618 26.2151 41.3847 25.8469 41.3392 25.4628C41.2793 24.9136 41.5585 24.4492 41.8439 23.9744C41.9285 23.8336 42.0137 23.692 42.0907 23.5469C42.3563 23.0938 42.6543 22.6472 43.1466 22.343C43.2541 21.9011 43.5463 21.5331 43.8372 21.1669L43.8592 21.1392C44.1463 20.7838 44.6257 20.5665 44.9789 20.4064L45.0188 20.3883C45.5436 20.1553 46.0165 20.0065 46.023 20.0065H20V39.9353H38.4629C38.9567 39.5797 39.4474 39.3554 40.0315 39.0884L40.0316 39.0883C40.2981 38.9665 40.5841 38.8358 40.8987 38.6796C40.9651 38.6465 41.0439 38.6079 41.1313 38.5652L41.1322 38.5648L41.1325 38.5646L41.1325 38.5646C41.6598 38.3069 42.4998 37.8964 42.8163 37.5858ZM37.0247 34.8932C37.0057 34.8932 36.9824 34.8955 36.9586 34.8979C36.8853 34.9052 36.8075 34.913 36.8369 34.8544C36.8641 34.7229 36.9993 34.6835 37.1313 34.6451C37.1878 34.6286 37.2437 34.6123 37.2903 34.589L37.3035 34.5823L37.3272 34.5698C37.4004 34.5311 37.4899 34.4838 37.5559 34.5113C37.6005 34.5744 37.6557 34.5907 37.7094 34.6065C37.7493 34.6183 37.7884 34.6298 37.8216 34.6602C37.6814 34.8002 37.5179 34.814 37.352 34.828C37.2419 34.8373 37.1307 34.8467 37.0247 34.8932ZM31.2267 33.9871C31.2267 34.0259 31.2656 34.0647 31.2656 34.0647C32.1726 33.0485 32.9953 32.1812 34.1614 31.4628C34.1926 31.4498 34.181 31.466 34.1655 31.4876C34.1425 31.5197 34.1111 31.5637 34.2002 31.5405C34.5863 31.453 34.7597 31.1245 34.9283 30.8049C34.9719 30.7223 35.0153 30.6402 35.0618 30.5631C35.2387 30.2773 35.49 30.0942 35.7432 29.9097L35.7432 29.9097L35.7432 29.9097L35.7432 29.9096L35.7432 29.9096C35.9258 29.7766 36.1094 29.6428 36.2668 29.4693C36.2668 29.5081 36.2668 29.5469 36.2279 29.5858C36.2668 29.6246 36.3057 29.6246 36.3445 29.6246C36.4129 29.5734 36.4875 29.5522 36.559 29.5319C36.6501 29.506 36.7363 29.4815 36.798 29.3981C36.5 29.2816 36.1178 29.2427 35.8198 29.3592C35.0294 29.7346 34.3557 30.3366 33.7144 31.0162C33.3257 31.4239 32.924 31.8058 32.4317 32.0712C32.0948 32.7443 31.7191 33.3463 31.2267 33.9871ZM34.3881 31.5793C34.3678 31.6199 34.3475 31.641 34.3281 31.6612C34.3104 31.6796 34.2934 31.6973 34.278 31.7282C34.2391 31.8058 34.2002 31.8382 34.129 31.877C34.0901 31.877 34.0512 31.877 34.0512 31.8382C34.0901 31.6893 34.2002 31.5405 34.3492 31.5016C34.3881 31.5081 34.3881 31.5469 34.3881 31.5793ZM36.0465 37.3269C36.0789 37.2945 36.1178 37.2557 36.1372 37.2168C36.1696 37.1392 35.9688 37.1586 35.9364 37.178C35.907 37.2015 35.8883 37.225 35.8657 37.2533L35.8587 37.2621C35.8316 37.293 35.8 37.3215 35.7679 37.3505L35.7679 37.3505L35.7679 37.3505L35.7679 37.3506L35.7678 37.3506C35.7461 37.3703 35.7241 37.3901 35.7032 37.411L35.7032 37.411L35.7031 37.411L35.7031 37.4111C35.6124 37.5016 35.5218 37.5922 35.4246 37.6764C35.3598 37.7346 35.5671 37.7605 35.6125 37.7217C35.6643 37.6828 35.7097 37.6375 35.755 37.5922C35.7723 37.5922 35.7896 37.5894 35.8011 37.5874L35.8037 37.587C35.8081 37.5863 35.8115 37.5858 35.8133 37.5858C35.9207 37.55 36.0006 37.4758 36.0783 37.4036L36.0984 37.3851C36.1243 37.3592 36.0919 37.3333 36.0465 37.3269ZM35.4635 36.9061C35.4602 36.9061 35.4586 36.9061 35.4578 36.907C35.457 36.9078 35.457 36.9094 35.457 36.9126C35.4173 36.9397 35.378 36.9673 35.3389 36.9948L35.3389 36.9948C35.2376 37.0659 35.1369 37.1367 35.0294 37.1974C34.9267 37.2549 34.8213 37.3046 34.715 37.3547L34.7149 37.3547C34.6537 37.3836 34.5922 37.4126 34.5306 37.4434C34.5306 37.4434 34.5306 37.4369 34.5241 37.4369C34.5112 37.4175 34.4853 37.411 34.4594 37.4239C34.3168 37.5016 34.1938 37.6052 34.0836 37.7152C34.0642 37.7282 34.0448 37.7476 34.0318 37.767L33.98 37.8188L33.9735 37.8252V37.8317L33.9735 37.8317C33.9476 37.8576 33.9217 37.8835 33.8893 37.9223C33.8826 37.9291 33.8774 37.9358 33.8724 37.9422L33.8724 37.9423C33.863 37.9544 33.8544 37.9657 33.8375 37.9741C33.8115 37.9871 33.7468 37.9871 33.7532 37.9482V37.9417C33.7338 37.9547 33.7079 37.9676 33.6885 37.9741C33.6787 37.9806 33.669 37.9854 33.6593 37.9903C33.6496 37.9951 33.6399 38 33.6302 38.0065C33.6237 38 33.6107 38 33.6042 38C33.5978 38 33.5848 38 33.5783 38.0065C33.5632 38.0194 33.5481 38.0316 33.533 38.0439C33.5027 38.0683 33.4725 38.0928 33.4423 38.123C33.3645 38.1942 33.2933 38.2718 33.222 38.356C33.222 38.356 33.222 38.3625 33.2155 38.3625C33.2155 38.3657 33.2139 38.3673 33.2123 38.3689C33.2107 38.3705 33.2091 38.3722 33.2091 38.3754L33.1961 38.3883C33.1936 38.3908 33.1921 38.3933 33.1908 38.3954C33.1887 38.3988 33.1872 38.4013 33.1832 38.4013L33.1767 38.4078C33.1702 38.4207 33.1637 38.4337 33.1508 38.4466C33.1443 38.4531 33.1313 38.4595 33.1184 38.4595C33.1119 38.4531 33.1054 38.4466 33.1054 38.4401C33.1022 38.4369 33.1006 38.4337 33.0989 38.4304C33.0973 38.4272 33.0957 38.4239 33.0925 38.4207C33.086 38.411 33.0811 38.4013 33.0763 38.3916C33.0714 38.3819 33.0666 38.3722 33.0601 38.3625V38.356C33.0601 38.3544 33.0597 38.3528 33.0591 38.3512C33.0585 38.3496 33.0577 38.3479 33.0568 38.3463C33.0561 38.3448 33.0554 38.3433 33.0548 38.3419C33.0541 38.3401 33.0536 38.3383 33.0536 38.3366L33.1702 38.2006L33.1767 38.1942C33.1832 38.1877 33.1896 38.1796 33.1961 38.1715L33.1961 38.1715C33.2026 38.1634 33.2091 38.1553 33.2155 38.1489C33.2253 38.1359 33.2366 38.123 33.2479 38.11C33.2593 38.0971 33.2706 38.0841 33.2803 38.0712C33.2836 38.0647 33.2868 38.0599 33.29 38.055C33.2933 38.0502 33.2965 38.0453 33.2998 38.0388C33.3386 37.9871 33.3775 37.9353 33.4164 37.877V37.8705C33.4229 37.8641 33.4293 37.8576 33.4293 37.8447C33.4488 37.8188 33.4682 37.7929 33.4812 37.767L33.52 37.6893V37.6828L33.5265 37.6764C33.5265 37.6731 33.5281 37.6715 33.5297 37.6699C33.5314 37.6683 33.533 37.6667 33.533 37.6634C33.5395 37.6472 33.5459 37.6327 33.5524 37.6181C33.5589 37.6036 33.5654 37.589 33.5718 37.5728V37.5663L33.5783 37.5405C33.5816 37.534 33.5832 37.5275 33.5848 37.521C33.5864 37.5146 33.588 37.5081 33.5913 37.5016V37.4951C33.5945 37.4854 33.5961 37.4757 33.5978 37.466C33.5994 37.4563 33.601 37.4466 33.6042 37.4369C33.6042 37.4304 33.6042 37.4175 33.5978 37.411C33.6366 37.3398 33.6885 37.2751 33.7468 37.2104C33.7435 37.2104 33.7403 37.212 33.737 37.2136C33.7338 37.2152 33.7306 37.2168 33.7273 37.2168C33.6985 37.2348 33.6737 37.2588 33.6484 37.2833C33.6282 37.3028 33.6078 37.3226 33.5848 37.3398C33.5459 37.3722 33.4682 37.3204 33.52 37.2816C33.5524 37.2557 33.5783 37.2298 33.6042 37.2039L33.6042 37.2039C33.6042 37.2039 33.6042 37.1974 33.6107 37.1974C33.6366 37.1742 33.6614 37.1479 33.6864 37.1213C33.7241 37.0813 33.7622 37.0408 33.8051 37.0097C33.8504 36.9773 33.8828 36.9515 33.9217 36.9191C33.9282 36.9126 33.9346 36.9061 33.9411 36.9061C33.967 36.8738 33.9929 36.8414 34.0253 36.8091C34.0253 36.8091 34.0318 36.8091 34.0318 36.8026C34.2543 36.5883 34.5669 36.5127 34.886 36.4355L34.886 36.4355C35.0872 36.3868 35.291 36.3375 35.4764 36.2524C35.5812 36.2091 35.698 36.2262 35.8134 36.243C35.905 36.2564 35.9958 36.2696 36.0789 36.2524C36.189 36.2524 36.3057 36.2524 36.4158 36.3301C36.1596 36.4656 35.9151 36.6206 35.6733 36.7738L35.6729 36.774C35.603 36.8184 35.5332 36.8626 35.4635 36.9061ZM36.2675 34.2687C36.2372 34.2722 36.2175 34.2744 36.2344 34.2913C36.3445 34.4013 36.5713 34.3625 36.7267 34.2783C36.8369 34.2006 36.9535 34.2006 37.1025 34.2006C37.1413 34.2006 37.1413 34.1294 37.1413 34.0906C37.2515 34.1294 37.3292 34.1294 37.4393 34.1294C38.3398 33.9417 39.2079 33.754 40.0371 33.3398C39.1981 32.6958 38.1637 32.409 37.1505 32.128C36.9824 32.0814 36.8149 32.0349 36.649 31.9871C36.6855 31.9871 36.7219 31.9991 36.7587 32.0113C36.8328 32.0358 36.9079 32.0606 36.9859 31.9871C36.8831 31.9056 36.7686 31.89 36.6553 31.8746C36.5615 31.8618 36.4685 31.8492 36.3834 31.7993C36.3923 31.7993 36.4028 31.8014 36.4143 31.8036C36.4531 31.811 36.5024 31.8205 36.5324 31.7605C36.3356 31.6622 36.1388 31.6288 35.9402 31.5951C35.838 31.5778 35.7353 31.5604 35.6319 31.534C35.8198 31.4951 35.9364 31.3463 35.9364 31.1586C35.9364 31.1197 35.8587 31.1197 35.8198 31.1197C35.3728 31.3463 35.0683 31.7605 34.8804 32.246C35.0498 32.345 35.2324 32.3335 35.4113 32.3223C35.5129 32.3159 35.6134 32.3096 35.7097 32.3236C35.6247 32.4038 35.502 32.4255 35.384 32.4465C35.34 32.4543 35.2966 32.4619 35.2562 32.4725C35.1396 32.4984 35.0294 32.5825 35.0683 32.6602C35.0942 32.6926 35.1201 32.7055 35.1525 32.712C35.0683 32.7379 34.9906 32.7767 34.9193 32.8479C35.026 32.9313 35.1359 32.9152 35.2445 32.8993C35.2876 32.893 35.3304 32.8867 35.3728 32.8867C35.3728 32.9337 35.4039 32.9497 35.4362 32.9663C35.4528 32.9749 35.4697 32.9836 35.4829 32.9968C35.2951 33.068 35.1461 33.2233 35.1072 33.3333C35.0607 33.4455 34.975 33.5183 34.89 33.5905C34.8327 33.6392 34.7758 33.6876 34.7314 33.7476V33.8641C34.6063 33.9743 34.4777 34.0727 34.3508 34.1697C34.0902 34.3691 33.8371 34.5628 33.6366 34.8414C33.6755 34.8414 33.6755 34.8803 33.6755 34.9191C33.6397 34.9728 33.5887 35.01 33.5403 35.0453C33.4838 35.0865 33.4308 35.1252 33.4099 35.1845C33.4099 35.2233 33.4099 35.2621 33.4488 35.2621C33.6865 35.1841 33.8922 35.0527 34.0938 34.9239C34.2768 34.807 34.4565 34.6922 34.6537 34.6214C34.8149 34.5828 34.9553 34.5102 35.0922 34.4394C35.2084 34.3793 35.3221 34.3204 35.4441 34.2848C35.538 34.2654 35.6416 34.2379 35.7453 34.2104C35.8489 34.1828 35.9526 34.1553 36.0465 34.1359C36.0465 34.1748 36.0465 34.2136 36.0854 34.2136H36.3834C36.365 34.2576 36.3072 34.2642 36.2675 34.2687Z" fill="#000091"/>
<path d="M74.9482 20.0324H53.5183C53.5183 20.0324 53.5571 20.0388 53.7191 20.123C53.894 20.2136 54.1207 20.3366 54.2568 20.4078C54.5353 20.5502 54.8009 20.7314 54.9759 21.0097C55.0536 21.1197 55.1637 21.3463 55.0925 21.4951C55.0147 21.6828 54.9759 21.9871 54.788 22.0582C54.5612 22.1748 54.2633 22.1748 53.9976 22.1359C53.8486 22.1359 53.6996 22.0971 53.5442 22.0582C54.1078 22.2848 54.639 22.5502 55.0147 23.0744C55.0536 23.1521 55.2026 23.1845 55.3516 23.1845C55.3905 23.1845 55.3905 23.2621 55.3905 23.2945C55.3127 23.3722 55.2415 23.411 55.2803 23.521H55.3905C55.5783 23.4434 55.5395 23.068 55.8051 23.1845C55.9929 23.2945 56.0707 23.5599 55.9541 23.7476C55.8051 23.8964 55.6561 24.0129 55.5006 24.123C55.4617 24.2006 55.4617 24.3107 55.5006 24.3883C55.6107 24.5372 55.6496 24.6861 55.6885 24.8414C55.8051 25.1068 55.8375 25.4045 55.9541 25.6699C56.1031 26.233 56.2521 26.7961 56.2197 27.3657C56.2197 27.6634 56.0707 27.9288 56.1808 28.233C56.2585 28.5307 56.4464 28.7573 56.5954 29.0227C56.7444 29.2492 56.8934 29.3981 57.01 29.6246C57.2367 30 57.6514 30.3754 57.4635 30.8285C57.3534 31.0938 56.9388 31.055 56.6731 31.2039C56.4464 31.3916 56.6343 31.6958 56.7509 31.8835C56.9388 32.2201 56.5241 32.4466 56.2585 32.5631C56.3363 32.6796 56.4853 32.6408 56.5241 32.712C56.563 32.8997 56.7509 33.0097 56.6343 33.2039C56.4853 33.4304 56.0318 33.5405 56.2585 33.8835C56.4075 34.1489 56.3104 34.4401 56.2197 34.712C56.1095 35.0485 55.8051 35.1974 55.5395 35.2751C55.3127 35.3527 55.0471 35.3527 54.8269 35.3139C54.7491 35.2751 54.6779 35.2362 54.6001 35.2362C53.9588 35.1586 53.3174 34.9773 52.6826 34.9773C52.4947 35.0162 52.3068 35.0485 52.1578 35.1262C51.9894 35.2492 51.8339 35.3851 51.7044 35.5275C51.7044 35.5275 51.7044 35.5275 51.6979 35.534C51.672 35.5663 51.6396 35.5922 51.6137 35.6246C51.6007 35.644 51.5813 35.6634 51.5683 35.6828C51.5554 35.6958 51.5489 35.7087 51.5359 35.7217C51.4258 35.8576 51.3286 36.0065 51.2379 36.1553C51.2314 36.1683 51.225 36.1748 51.2185 36.1812C51.212 36.2006 51.1991 36.2136 51.1861 36.233C51.063 36.4595 50.9723 36.6926 50.9011 36.9256C50.6419 37.7864 50.7585 38.5243 50.9399 38.7055C50.9918 38.7573 52.1837 39.1262 53.013 39.4951C53.4016 39.6699 53.6737 39.7994 53.9005 39.9417H74.9417V20.0324H74.9482Z" fill="#E1000F"/>
<path d="M54.7945 27.288C54.9435 27.3269 55.1702 27.3269 55.1702 27.4045C55.0925 27.7023 54.6455 27.7799 54.4187 28.0841H54.3021C54.192 28.1618 54.2244 28.3495 54.1143 28.3495C54.0041 28.3107 53.8875 28.3495 53.7774 28.3883C53.9264 28.5372 54.1143 28.6537 54.341 28.6149C54.3799 28.6149 54.4511 28.6926 54.4511 28.7638C54.4511 28.7638 54.49 28.7638 54.5289 28.7249C54.5677 28.7249 54.6066 28.7249 54.6066 28.7638V28.9126C54.4965 29.0615 54.3021 28.9903 54.1531 29.0226C54.4576 29.1003 54.7556 29.1003 55.0212 29.0226C55.2479 28.945 55.0212 28.5696 55.1702 28.3819C55.0925 28.3819 55.1702 28.2654 55.0925 28.2654C55.1702 28.1877 55.2415 28.0777 55.3192 28.0388C55.3969 28.0388 55.5071 28 55.5459 27.9223C55.5459 27.8447 55.3969 27.8123 55.4293 27.7346C55.6561 27.5858 55.8439 27.3592 55.7662 27.1327C55.7273 27.0162 55.4293 27.0162 55.2415 26.945C55.0536 26.8738 54.8269 26.945 54.6001 26.9838C54.4122 26.9838 54.2244 27.1003 54.0365 27.1327C53.7709 27.2104 53.5442 27.3592 53.3239 27.5081C53.5895 27.3981 53.8486 27.3592 54.1531 27.2815C54.3799 27.288 54.5677 27.2362 54.7945 27.288Z" fill="#808080"/>
</svg>
