<svg width="60" height="60" viewBox="0 0 60 60" fill="none" xmlns="http://www.w3.org/2000/svg">
<path fill-rule="evenodd" clip-rule="evenodd" d="M52.5 51.75C52.0864 51.75 51.75 51.4136 51.75 51C51.75 50.5864 52.0864 50.25 52.5 50.25C52.9136 50.25 53.25 50.5864 53.25 51C53.25 51.4136 52.9136 51.75 52.5 51.75Z" fill="black"/>
<path fill-rule="evenodd" clip-rule="evenodd" d="M51 9.75C50.5864 9.75 50.25 9.41355 50.25 9C50.25 8.58641 50.5864 8.25 51 8.25C51.4136 8.25 51.75 8.58641 51.75 9C51.75 9.41355 51.4136 9.75 51 9.75Z" fill="black"/>
<path fill-rule="evenodd" clip-rule="evenodd" d="M10.5 51.75C10.0864 51.75 9.75 51.4136 9.75 51C9.75 50.5864 10.0864 50.25 10.5 50.25C10.9136 50.25 11.25 50.5864 11.25 51C11.25 51.4136 10.9136 51.75 10.5 51.75Z" fill="black"/>
<path fill-rule="evenodd" clip-rule="evenodd" d="M14.5474 9.00469C14.6967 9.00156 14.8476 9 15 9L15.2274 9.00117C15.3029 9.00195 15.3779 9.00313 15.4526 9.00469L15.8953 9.01874L16.3271 9.04215C16.5401 9.0562 16.7486 9.07375 16.9519 9.09479L17.3516 9.14155C19.5105 9.42433 21 10.1299 21 11.25V15.75C21 16.1642 20.6642 16.5 20.25 16.5C19.8654 16.5 19.5484 16.2105 19.505 15.8375L19.5 15.75V12.8446C18.9142 13.0782 18.1825 13.2496 17.3516 13.3585L16.9519 13.4052C16.7486 13.4263 16.5401 13.4438 16.3271 13.4578L15.8953 13.4813L15.4526 13.4953C15.3033 13.4984 15.1524 13.5 15 13.5C14.8476 13.5 14.6967 13.4984 14.5474 13.4953L14.1047 13.4813L13.6729 13.4578C13.4599 13.4438 13.2514 13.4263 13.0481 13.4052L12.6484 13.3585C10.4895 13.0757 9 12.3701 9 11.25C9 10.1299 10.4895 9.42433 12.6484 9.14155L13.0481 9.09479C13.2514 9.07375 13.4599 9.0562 13.6729 9.04215L14.1047 9.01874L14.5474 9.00469ZM19.5 11.25L19.4836 11.2395C19.3133 11.143 19.073 11.0453 18.7752 10.955L18.6216 10.9105C17.6858 10.6516 16.3902 10.5 15.0004 10.5C13.6106 10.5 12.3149 10.6516 11.3791 10.9105C11.0626 10.9981 10.8013 11.0945 10.6081 11.1912L10.5 11.25L10.6276 11.3185C10.7859 11.3958 10.9873 11.4728 11.2255 11.545L11.3791 11.5895C12.3149 11.8484 13.6106 12 15.0004 12C16.3902 12 17.6858 11.8484 18.6216 11.5895C18.9382 11.5019 19.1994 11.4055 19.3927 11.3088L19.5 11.25Z" fill="black"/>
<path d="M44.7987 37.3529C44.0042 36.4944 42.917 36 41.7563 36C39.9001 36 38.3261 37.2542 37.7423 39H36.75L36.6625 39.005C36.2895 39.0484 36 39.3654 36 39.75C36 40.1642 36.3358 40.5 36.75 40.5H37.5C37.5 40.7555 37.5202 41.006 37.5589 41.25H36.75L36.6625 41.255C36.2895 41.2984 36 41.6154 36 42C36 42.4142 36.3358 42.75 36.75 42.75H38.0695C38.8047 44.0939 40.1786 45 41.7563 45C42.8153 45 43.8149 44.5887 44.5884 43.8594C44.8845 43.5802 44.9055 43.1058 44.6353 42.7998C44.3651 42.4939 43.9061 42.4722 43.61 42.7514C43.1005 43.2317 42.4484 43.5 41.7563 43.5C41.0463 43.5 40.3964 43.2171 39.9013 42.75H41.25L41.3375 42.745C41.7105 42.7016 42 42.3846 42 42C42 41.5858 41.6642 41.25 41.25 41.25H39.0399C38.9823 41.0104 38.9516 40.7591 38.9516 40.5H41.25L41.3375 40.495C41.7105 40.4516 42 40.1346 42 39.75C42 39.3358 41.6642 39 41.25 39H39.3267C39.8124 38.1022 40.7204 37.5 41.7563 37.5C42.515 37.5 43.2252 37.8229 43.7496 38.3897C44.0267 38.689 44.4861 38.6996 44.7758 38.4133C45.0655 38.1271 45.0758 37.6523 44.7987 37.3529Z" fill="black"/>
<path d="M9.75 15C10.1346 15 10.4516 15.2632 10.495 15.6023L10.5 15.6818V29.3182C10.5 29.6947 10.1642 30 9.75 30C9.36537 30 9.04837 29.7368 9.00505 29.3977L9 29.3182V15.6818C9 15.3053 9.33579 15 9.75 15Z" fill="black"/>
<path d="M9.75 33C10.1642 33 10.5 32.6642 10.5 32.25C10.5 31.8358 10.1642 31.5 9.75 31.5C9.33579 31.5 9 31.8358 9 32.25C9 32.6642 9.33579 33 9.75 33Z" fill="black"/>
<path fill-rule="evenodd" clip-rule="evenodd" d="M45 21C44.8476 21 44.6967 21.0016 44.5474 21.0047L44.1047 21.0187L43.6729 21.0422C43.4599 21.0562 43.2514 21.0737 43.0481 21.0948L42.6484 21.1415C40.4895 21.4243 39 22.1299 39 23.25C39 24.3701 40.4895 25.0757 42.6484 25.3585L43.0481 25.4052C43.2514 25.4263 43.4599 25.4438 43.6729 25.4578L44.1047 25.4813L44.5474 25.4953C44.6967 25.4984 44.8476 25.5 45 25.5C45.1524 25.5 45.3033 25.4984 45.4526 25.4953L45.8953 25.4813L46.3271 25.4578C46.5401 25.4438 46.7486 25.4263 46.9519 25.4052L47.3516 25.3585C48.1825 25.2496 48.9142 25.0782 49.5 24.8446V27.75L49.505 27.8375C49.5484 28.2105 49.8654 28.5 50.25 28.5C50.6642 28.5 51 28.1642 51 27.75V23.25C51 22.1299 49.5105 21.4243 47.3516 21.1415L46.9519 21.0948C46.7486 21.0737 46.5401 21.0562 46.3271 21.0422L45.8953 21.0187L45.4526 21.0047C45.3779 21.0031 45.3029 21.002 45.2274 21.0012L45 21ZM49.3927 23.3088L49.5 23.25L49.4836 23.2395C49.3133 23.143 49.073 23.0453 48.7752 22.955L48.6216 22.9105C47.6858 22.6516 46.3902 22.5 45.0004 22.5C43.6106 22.5 42.3149 22.6516 41.3791 22.9105C41.0626 22.9981 40.8013 23.0945 40.6081 23.1912L40.5 23.25L40.6276 23.3185C40.7859 23.3958 40.9873 23.4728 41.2255 23.545L41.3791 23.5895C42.3149 23.8484 43.6106 24 45.0004 24C46.3902 24 47.6858 23.8484 48.6216 23.5895C48.9382 23.5019 49.1994 23.4055 49.3927 23.3088Z" fill="black"/>
<path d="M40.495 26.1625C40.4516 25.7895 40.1346 25.5 39.75 25.5C39.3358 25.5 39 25.8358 39 26.25V29.25L39.005 29.3375C39.0484 29.7105 39.3654 30 39.75 30C40.1642 30 40.5 29.6642 40.5 29.25V26.25L40.495 26.1625Z" fill="black"/>
<path fill-rule="evenodd" clip-rule="evenodd" d="M27.4965 16.5L26.9955 16.509C26.9127 16.5113 26.8303 16.5139 26.7482 16.5169L26.2607 16.5392L25.7832 16.5704C25.547 16.5881 25.315 16.6092 25.0875 16.6334L24.6387 16.6861C24.565 16.6956 24.4918 16.7054 24.4191 16.7156L23.9901 16.781C21.3171 17.2214 19.5 18.1627 19.5 19.4994V22.9287L19.5037 23.0399C19.5055 23.0671 19.5079 23.0942 19.511 23.1212C19.5038 23.163 19.5 23.2061 19.5 23.25V26.6787L19.5037 26.7899C19.5055 26.8171 19.5079 26.8442 19.511 26.8712C19.5038 26.913 19.5 26.9561 19.5 27V30.4287L19.5037 30.5399C19.5054 30.567 19.5079 30.5939 19.511 30.6208C19.5038 30.6625 19.5 30.7055 19.5 30.7494V34.178L19.5037 34.2892C19.5106 34.3944 19.5274 34.4974 19.5536 34.5982C19.4424 34.5882 19.3301 34.5789 19.2168 34.5704L18.7393 34.5392L18.2518 34.5169C18.1697 34.5139 18.0873 34.5113 18.0045 34.509L17.5035 34.5H16.9965L16.4955 34.509C16.4127 34.5113 16.3303 34.5139 16.2482 34.5169L15.7607 34.5392L15.2832 34.5704C15.047 34.5881 14.815 34.6092 14.5875 34.6334L14.1387 34.6861C14.065 34.6956 13.9918 34.7054 13.9191 34.7156L13.4901 34.781C10.8171 35.2214 9 36.1627 9 37.4994V40.9283L9.00365 41.0394C9.00545 41.0667 9.00792 41.0938 9.01104 41.1208C9.00378 41.1627 9 41.2058 9 41.2497V44.6784L9.00365 44.7896C9.10086 46.2614 11.1285 47.3143 13.9884 47.7613L14.4235 47.8237C14.5705 47.843 14.7194 47.8608 14.8702 47.877L15.3278 47.9209C15.9447 47.9731 16.5884 47.9999 17.25 47.9999C17.9116 47.9999 18.5553 47.9731 19.1722 47.9209L19.6298 47.877C19.7806 47.8608 19.9295 47.843 20.0765 47.8237L20.5116 47.7613C23.315 47.3231 25.3186 46.3028 25.4883 44.8764C26.2038 44.958 26.9507 45 27.7124 45C29.5801 45 31.868 44.7612 33.138 44.4028C34.5917 47.4188 37.6778 49.5 41.25 49.5C46.2206 49.5 50.25 45.4704 50.25 40.4997C50.25 35.529 46.2206 31.4994 41.25 31.4994C39.2907 31.4994 37.4777 32.1255 36 33.1885V30.7494L35.995 30.6619C35.9941 30.6549 35.9932 30.648 35.9922 30.641C35.9913 30.6342 35.9902 30.6275 35.989 30.6208C35.9963 30.5575 36 30.4935 36 30.4287V27L35.995 26.9126C35.9933 26.8986 35.9913 26.8848 35.989 26.8712C35.9963 26.8078 36 26.7437 36 26.6787V23.25L35.995 23.1626C35.9933 23.1486 35.9913 23.1348 35.989 23.1212C35.9963 23.0578 36 22.9937 36 22.9287V19.5C36 18.1985 34.2773 17.2713 31.7191 16.8168L31.2971 16.7473C31.1541 16.7255 31.0088 16.7051 30.8613 16.6861L30.4125 16.6334C30.185 16.6092 29.953 16.5881 29.7168 16.5704L29.2393 16.5392L28.7518 16.5169C28.6697 16.5139 28.5873 16.5113 28.5045 16.509L28.0035 16.5H27.4965ZM33.0451 36.7956C32.4357 36.9891 31.7515 37.1453 31.0116 37.2609L30.5765 37.3234C30.4295 37.3427 30.2806 37.3604 30.1298 37.3766L29.6722 37.4205C29.0553 37.4727 28.4116 37.4996 27.75 37.4996C27.0884 37.4996 26.4447 37.4727 25.8278 37.4205L25.4958 37.3887C25.4986 37.4253 25.5 37.4622 25.5 37.4994V39.4447C26.2153 39.5338 26.97 39.58 27.7425 39.58C29.269 39.58 31.0883 39.4047 32.3527 39.1353C32.4777 38.3136 32.7138 37.5284 33.0451 36.7956ZM32.2567 40.8507C30.9263 41.0984 29.2128 41.25 27.7425 41.25C26.9706 41.25 26.2137 41.2069 25.4893 41.1231L25.4917 41.1376L25.4937 41.1521L25.495 41.1622L25.5 41.2497V43.2039C26.2063 43.2906 26.9507 43.3355 27.7124 43.3355C29.3633 43.3355 31.386 43.1344 32.5586 42.8451C32.3865 42.2057 32.2831 41.5381 32.2567 40.8507ZM21 22.9287V21.3342C21.7223 21.7 22.6733 21.9853 23.7809 22.1821L24.2029 22.2516C24.3459 22.2734 24.4912 22.2938 24.6387 22.3128L25.0875 22.3655C25.315 22.3897 25.547 22.4107 25.7832 22.4285L26.2607 22.4596L26.7482 22.482C26.8303 22.485 26.9127 22.4876 26.9955 22.4899L27.4965 22.4989C27.5807 22.4996 27.6652 22.5 27.75 22.5L28.0035 22.4989L28.5045 22.4899C28.5873 22.4876 28.6697 22.485 28.7518 22.482L29.2393 22.4596L29.7168 22.4285C29.953 22.4107 30.185 22.3897 30.4125 22.3655L30.8613 22.3128C30.935 22.3033 31.0082 22.2934 31.0809 22.2833L31.5099 22.2179C32.7071 22.0206 33.7326 21.7229 34.5 21.3342V22.9287L34.4948 22.9745C34.4353 23.2439 33.871 23.6738 32.8101 24.0376C31.4965 24.4879 29.688 24.7502 27.75 24.7502C25.812 24.7502 24.0035 24.4879 22.6899 24.0376C21.5666 23.6524 21 23.1931 21 22.9287ZM21.5795 20.0039C21.2073 19.8284 21 19.6532 21 19.5003C21 19.3474 21.2073 19.1721 21.5795 18.9966L21.7792 18.9089C21.8502 18.8798 21.9256 18.8507 22.0051 18.8218L22.2562 18.7359C22.344 18.7075 22.4357 18.6795 22.5312 18.6518L22.829 18.5701C22.8805 18.5567 22.9329 18.5434 22.9861 18.5303L23.3159 18.4533C23.4291 18.4283 23.5457 18.4039 23.6654 18.3803L24.0337 18.3118L24.4194 18.2485C24.485 18.2384 24.5514 18.2286 24.6184 18.219L25.0281 18.1646L25.4523 18.1168L25.8899 18.0764C26.0378 18.0642 26.1878 18.0533 26.3396 18.0439L26.8003 18.0199L27.2708 18.0051C27.35 18.0034 27.4295 18.0021 27.5094 18.0013L27.75 18C27.911 18 28.0708 18.0017 28.2292 18.0051L28.6997 18.0199L29.1604 18.0439C29.3122 18.0533 29.4622 18.0642 29.6101 18.0764L30.0477 18.1168L30.4719 18.1646L30.8816 18.219L31.2756 18.2795C31.3399 18.2901 31.4035 18.3008 31.4663 18.3118L31.8346 18.3803C31.8944 18.3921 31.9535 18.4041 32.0118 18.4163L32.3516 18.4914C32.4615 18.517 32.568 18.5433 32.671 18.5701L32.9688 18.6518C33.0165 18.6656 33.0634 18.6796 33.1092 18.6936L33.3724 18.7787C33.498 18.8217 33.6143 18.8652 33.7208 18.9089L33.9205 18.9966C34.2927 19.1721 34.5 19.3474 34.5 19.5003C34.5 19.6532 34.2927 19.8284 33.9205 20.0039L33.7208 20.0916C33.6498 20.1208 33.5744 20.1498 33.4949 20.1787L33.2438 20.2646C33.156 20.293 33.0643 20.3211 32.9688 20.3488L32.671 20.4305C32.6195 20.4439 32.5671 20.4571 32.5139 20.4703L32.1841 20.5472C32.0709 20.5723 31.9543 20.5966 31.8346 20.6202L31.4663 20.6887L31.0806 20.752C31.015 20.7621 30.9486 20.772 30.8816 20.7816L30.4719 20.836L30.0477 20.8837L29.6101 20.9242C29.4622 20.9363 29.3122 20.9472 29.1604 20.9567L28.6997 20.9806L28.2292 20.9955C28.0708 20.9988 27.911 21.0006 27.75 21.0006C27.589 21.0006 27.4292 20.9988 27.2708 20.9955L26.8003 20.9806L26.3396 20.9567C26.1878 20.9472 26.0378 20.9363 25.8899 20.9242L25.4523 20.8837L25.0281 20.836L24.6184 20.7816L24.2244 20.7211C24.1601 20.7105 24.0965 20.6997 24.0337 20.6887L23.6654 20.6202C23.6056 20.6084 23.5465 20.5964 23.4882 20.5843L23.1484 20.5092C23.0385 20.4835 22.932 20.4573 22.829 20.4305L22.5312 20.3488C22.4835 20.3349 22.4366 20.321 22.3908 20.307L22.1276 20.2219C22.002 20.1789 21.8857 20.1354 21.7792 20.0916L21.5795 20.0039ZM21 26.6787V24.9328C21.8735 25.4244 23.08 25.7914 24.4884 26.0116L24.9235 26.0741C25.0705 26.0934 25.2194 26.1111 25.3702 26.1273L25.8278 26.1712C26.4447 26.2234 27.0884 26.2503 27.75 26.2503C28.4116 26.2503 29.0553 26.2234 29.6722 26.1712L30.1298 26.1273C30.2806 26.1111 30.4295 26.0934 30.5765 26.0741L31.0116 26.0116C32.42 25.7914 33.6265 25.4244 34.5 24.9328V26.6787L34.4948 26.7245C34.4353 26.9939 33.871 27.4238 32.8101 27.7876C31.4965 28.2379 29.688 28.5002 27.75 28.5002C25.812 28.5002 24.0035 28.2379 22.6899 27.7876C21.5666 27.4024 21 26.9431 21 26.6787ZM24 42.9323C23.1265 43.424 21.92 43.791 20.5116 44.0111L20.0765 44.0736C19.9295 44.0929 19.7806 44.1107 19.6298 44.1269L19.1722 44.1708C18.5553 44.223 17.9116 44.2498 17.25 44.2498C16.5884 44.2498 15.9447 44.223 15.3278 44.1708L14.8702 44.1269C14.7194 44.1107 14.5705 44.0929 14.4235 44.0736L13.9884 44.0111C12.58 43.791 11.3735 43.424 10.5 42.9323V44.6784C10.5 44.9428 11.0666 45.4021 12.1899 45.7873C13.5035 46.2376 15.312 46.4999 17.25 46.4999C19.188 46.4999 20.9965 46.2376 22.3101 45.7873C23.371 45.4235 23.9353 44.9936 23.9948 44.7242L24 44.6784V42.9323ZM21 28.6828C21.8735 29.1744 23.08 29.5414 24.4884 29.7616L24.9235 29.8241C25.0705 29.8434 25.2194 29.8611 25.3702 29.8773L25.8278 29.9212C26.4447 29.9734 27.0884 30.0003 27.75 30.0003C28.4116 30.0003 29.0553 29.9734 29.6722 29.9212L30.1298 29.8773C30.2806 29.8611 30.4295 29.8434 30.5765 29.8241L31.0116 29.7616C32.42 29.5414 33.6265 29.1744 34.5 28.6828V30.4287L34.4948 30.4745C34.4353 30.7439 33.871 31.1738 32.8101 31.5376C31.4965 31.9879 29.688 32.2502 27.75 32.2502C25.812 32.2502 24.0035 31.9879 22.6899 31.5376C21.5666 31.1524 21 30.6931 21 30.4287V28.6828ZM34.5 34.178V32.4328C33.6265 32.9244 32.42 33.2914 31.0116 33.5116L30.5765 33.5741C30.4295 33.5934 30.2806 33.6111 30.1298 33.6273L29.6722 33.6712C29.0553 33.7234 28.4116 33.7503 27.75 33.7503C27.0884 33.7503 26.4447 33.7234 25.8278 33.6712L25.3702 33.6273C25.2194 33.6111 25.0705 33.5934 24.9235 33.5741L24.4884 33.5116C23.08 33.2914 21.8735 32.9244 21 32.4328V34.178C21 34.367 21.2895 34.6556 21.865 34.9456C22.6574 35.1219 23.3509 35.3485 23.9138 35.622C25.0359 35.8645 26.3596 35.9995 27.75 35.9995C29.688 35.9995 31.4965 35.7373 32.8101 35.2869C33.871 34.9231 34.4353 34.4932 34.4948 34.2239L34.5 34.178ZM23.6241 37.1019C22.7854 36.9229 22.0398 36.6862 21.4211 36.3976C21.3925 36.3918 21.3636 36.386 21.3346 36.3803L20.9663 36.3118C20.9035 36.3008 20.8399 36.2901 20.7756 36.2795L20.3816 36.219L19.9719 36.1646L19.5477 36.1168L19.1101 36.0764C18.9622 36.0642 18.8122 36.0533 18.6604 36.0439L18.1997 36.0199L17.7292 36.0051C17.5708 36.0017 17.411 36 17.25 36L17.0094 36.0013C16.9295 36.0021 16.85 36.0034 16.7708 36.0051L16.3003 36.0199L15.8396 36.0439C15.6878 36.0533 15.5378 36.0642 15.3899 36.0764L14.9523 36.1168L14.5281 36.1646L14.1184 36.219C14.0514 36.2286 13.985 36.2384 13.9194 36.2485L13.5337 36.3118L13.1654 36.3803C13.0457 36.4039 12.9291 36.4283 12.8159 36.4533L12.4861 36.5303C12.4329 36.5434 12.3805 36.5567 12.329 36.5701L12.0312 36.6518C11.9357 36.6795 11.844 36.7076 11.7562 36.7359L11.5051 36.8218C11.4256 36.8507 11.3502 36.8798 11.2792 36.9089L11.0795 36.9966C10.7073 37.1721 10.5 37.3474 10.5 37.5003C10.5 37.6532 10.7073 37.8284 11.0795 38.0039L11.2792 38.0916C11.3857 38.1354 11.502 38.1789 11.6276 38.2219L11.8908 38.307C11.9366 38.321 11.9835 38.3349 12.0312 38.3488L12.329 38.4305C12.432 38.4573 12.5385 38.4835 12.6484 38.5092L12.9882 38.5843C13.0465 38.5964 13.1056 38.6084 13.1654 38.6202L13.5337 38.6887C13.5965 38.6997 13.6601 38.7105 13.7244 38.7211L14.1184 38.7816L14.5281 38.836L14.9523 38.8837L15.3899 38.9242C15.5378 38.9363 15.6878 38.9472 15.8396 38.9567L16.3003 38.9806L16.7708 38.9955C16.9292 38.9988 17.089 39.0006 17.25 39.0006C17.411 39.0006 17.5708 38.9988 17.7292 38.9955L18.1997 38.9806L18.6604 38.9567C18.8122 38.9472 18.9622 38.9363 19.1101 38.9242L19.5477 38.8837L19.9719 38.836L20.3816 38.7816C20.4486 38.772 20.515 38.7621 20.5806 38.752L20.9663 38.6887L21.3346 38.6202C21.4543 38.5966 21.5709 38.5723 21.6841 38.5472L22.0139 38.4703C22.0671 38.4571 22.1195 38.4439 22.171 38.4305L22.4688 38.3488C22.5643 38.3211 22.656 38.293 22.7438 38.2646L22.9949 38.1787C23.0744 38.1498 23.1498 38.1208 23.2208 38.0916L23.4205 38.0039C23.7927 37.8284 24 37.6532 24 37.5003C24 37.378 23.8675 37.2415 23.6241 37.1019ZM24 40.9283V39.3342C23.2326 39.7229 22.2071 40.0206 21.0099 40.2179L20.5809 40.2833C20.5082 40.2934 20.435 40.3033 20.3613 40.3128L19.9125 40.3655C19.685 40.3897 19.453 40.4107 19.2168 40.4285L18.7393 40.4596L18.2518 40.482C18.1697 40.485 18.0873 40.4876 18.0045 40.4899L17.5035 40.4989L17.25 40.5C17.1652 40.5 17.0807 40.4996 16.9965 40.4989L16.4955 40.4899C16.4127 40.4876 16.3303 40.485 16.2482 40.482L15.7607 40.4596L15.2832 40.4285C15.047 40.4107 14.815 40.3897 14.5875 40.3655L14.1387 40.3128C13.9912 40.2938 13.8459 40.2734 13.7029 40.2516L13.2809 40.1821C12.1733 39.9853 11.2224 39.7 10.5 39.3342V40.9283C10.5 41.1927 11.0666 41.652 12.1899 42.0371C13.5035 42.4875 15.312 42.7498 17.25 42.7498C19.188 42.7498 20.9965 42.4875 22.3101 42.0371C23.371 41.6734 23.9353 41.2435 23.9948 40.9741L24 40.9283ZM41.25 32.9994C45.3921 32.9994 48.75 36.3574 48.75 40.4997C48.75 44.642 45.3921 47.9999 41.25 47.9999C37.1079 47.9999 33.75 44.642 33.75 40.4997C33.75 36.3574 37.1079 32.9994 41.25 32.9994Z" fill="black"/>
<path d="M46.0661 30.07C45.6904 29.8955 45.2444 30.0586 45.07 30.4343C44.8955 30.81 45.0586 31.256 45.4343 31.4305C48.7976 32.9924 51.0002 36.2662 51.0002 39.7505C51.0002 40.1647 51.336 40.5005 51.7502 40.5005C52.1644 40.5005 52.5002 40.1647 52.5002 39.7505C52.5002 35.6677 49.9466 31.8721 46.0661 30.07Z" fill="black"/>
</svg>
