<svg width="46" height="46" viewBox="0 0 46 46" fill="none" xmlns="http://www.w3.org/2000/svg">
<path fill-rule="evenodd" clip-rule="evenodd" d="M18.8495 22.6251H29.5V24.3751H18.8495L23.543 29.0686L22.3057 30.3058L15.5 23.5001L22.3057 16.6943L23.543 17.9316L18.8495 22.6251Z" fill="black"/>
<path d="M0 23C0 10.2975 10.2975 0 23 0C35.7025 0 46 10.2975 46 23C46 35.7025 35.7025 46 23 46C10.2975 46 0 35.7025 0 23Z" fill="#151515"/>
<path fill-rule="evenodd" clip-rule="evenodd" d="M18.8495 22.6251H29.5V24.3751H18.8495L23.543 29.0686L22.3057 30.3058L15.5 23.5001L22.3057 16.6943L23.543 17.9316L18.8495 22.6251Z" fill="white"/>
</svg>
