<svg width="118" height="118" viewBox="0 0 118 118" fill="none" xmlns="http://www.w3.org/2000/svg">
<path fill-rule="evenodd" clip-rule="evenodd" d="M85.5492 7.37505C84.7359 7.37505 84.0742 6.71336 84.0742 5.90005C84.0742 5.08666 84.7359 4.42505 85.5492 4.42505C86.3625 4.42505 87.0242 5.08666 87.0242 5.90005C87.0242 6.71336 86.3625 7.37505 85.5492 7.37505Z" fill="#ECECFE"/>
<path fill-rule="evenodd" clip-rule="evenodd" d="M32.4496 113.575C31.6363 113.575 30.9746 112.913 30.9746 112.1C30.9746 111.287 31.6363 110.625 32.4496 110.625C33.2629 110.625 33.9246 111.287 33.9246 112.1C33.9246 112.913 33.2629 113.575 32.4496 113.575Z" fill="#ECECFE"/>
<path fill-rule="evenodd" clip-rule="evenodd" d="M17.6996 19.1751C16.8863 19.1751 16.2246 18.5134 16.2246 17.7001C16.2246 16.8867 16.8863 16.2251 17.6996 16.2251C18.5129 16.2251 19.1746 16.8867 19.1746 17.7001C19.1746 18.5134 18.5129 19.1751 17.6996 19.1751Z" fill="#ECECFE"/>
<path d="M60.4752 19.175C61.2898 19.175 61.9502 19.8354 61.9502 20.65C61.9502 21.4647 61.2898 22.125 60.4752 22.125C50.6998 22.125 42.7752 30.0496 42.7752 39.825C42.7752 49.6005 50.6998 57.5251 60.4752 57.5251C70.2506 57.5251 78.1752 49.6005 78.1752 39.825C78.1752 36.8407 77.437 33.9665 76.0469 31.4023C75.6587 30.6862 75.9245 29.7909 76.6406 29.4027C77.3568 29.0144 78.2521 29.2802 78.6403 29.9964C80.263 32.9895 81.1252 36.3466 81.1252 39.825C81.1252 51.2297 71.8799 60.475 60.4752 60.475C49.0705 60.475 39.8252 51.2297 39.8252 39.825C39.8252 28.4204 49.0705 19.175 60.4752 19.175Z" fill="#6B48F4"/>
<path fill-rule="evenodd" clip-rule="evenodd" d="M50.0273 40.844L50.1531 40.7448L65.787 29.6425C66.856 28.8834 68.31 29.7919 68.0963 31.0855L64.9711 50.0041C64.7581 51.2936 63.0974 51.6895 62.3255 50.6348L57.9829 44.701L50.7459 43.3991C49.5133 43.1774 49.1201 41.6379 50.0273 40.844ZM62.6326 46.0585L64.6088 34.0974L54.7246 41.117L58.102 41.725L59.1361 40.0702C59.5677 39.3793 60.4777 39.1692 61.1686 39.6009C61.8101 40.0018 62.037 40.815 61.7205 41.4823L61.6378 41.6334L60.6042 43.2876L62.6326 46.0585Z" fill="#6B48F4"/>
<path d="M98.8248 97.3501C99.6394 97.3501 100.3 98.0105 100.3 98.8251C100.3 99.5815 99.7304 100.205 98.9968 100.29L98.8248 100.3H87.0248C86.2102 100.3 85.5498 99.6397 85.5498 98.8251C85.5498 98.0687 86.1192 97.4452 86.8528 97.36L87.0248 97.3501H98.8248Z" fill="#BCABFF"/>
<path d="M47.2987 68.0127C47.9015 67.4647 48.8344 67.5091 49.3823 68.1119C49.8882 68.6683 49.8892 69.506 49.4123 70.0626L49.2831 70.1955L14.267 99.9165C13.6642 100.464 12.7314 100.42 12.1834 99.8172C11.6776 99.2608 11.6765 98.4232 12.1534 97.8666L12.2826 97.7336L47.2987 68.0127Z" fill="#BCABFF"/>
<path d="M104.725 38.3501C105.481 38.3501 106.105 38.9195 106.19 39.6531L106.2 39.8251V92.9251C106.2 93.7397 105.539 94.4001 104.725 94.4001C103.968 94.4001 103.345 93.8307 103.26 93.0971L103.25 92.9251V41.3001H87.0248C86.2684 41.3001 85.6449 40.7307 85.5597 39.9971L85.5498 39.8251C85.5498 39.0687 86.1192 38.4452 86.8528 38.36L87.0248 38.3501H104.725Z" fill="#BCABFF"/>
<path d="M33.9248 38.3501C34.7394 38.3501 35.3998 39.0105 35.3998 39.8251C35.3998 40.5815 34.8304 41.205 34.0968 41.2902L33.9248 41.3001H14.7498V97.3501H69.3248C70.0812 97.3501 70.7047 97.9195 70.7899 98.6531L70.7998 98.8251C70.7998 99.5815 70.2304 100.205 69.4968 100.29L69.3248 100.3H13.2748C12.5184 100.3 11.8949 99.7307 11.8097 98.9971L11.7998 98.8251V39.8251C11.7998 39.0687 12.3692 38.4452 13.1028 38.36L13.2748 38.3501H33.9248Z" fill="#BCABFF"/>
<path d="M103.25 98.8251C103.25 98.0105 103.91 97.3501 104.725 97.3501C105.539 97.3501 106.2 98.0105 106.2 98.8251C106.2 99.6397 105.539 100.3 104.725 100.3C103.91 100.3 103.25 99.6397 103.25 98.8251Z" fill="#BCABFF"/>
<path d="M103.759 38.7105C104.374 38.177 105.306 38.2435 105.84 38.8591C106.332 39.4274 106.313 40.2648 105.823 40.8099L105.691 40.9398L61.4409 79.2898C60.9491 79.716 60.2436 79.7653 59.7019 79.4315L59.5447 79.3199L12.3447 40.9699C11.7125 40.4562 11.6164 39.5273 12.1301 38.895C12.6043 38.3114 13.4323 38.1846 14.0541 38.5726L14.205 38.6804L60.4439 76.2488L103.759 38.7105Z" fill="#BCABFF"/>
<path d="M73.2548 68.2227C72.6459 67.6815 71.7136 67.7363 71.1724 68.3452C70.6728 68.9072 70.6811 69.7448 71.1642 70.296L71.2949 70.4275L97.8449 94.0275C98.4537 94.5687 99.386 94.5139 99.9273 93.905C100.427 93.343 100.419 92.5054 99.9354 91.9542L99.8048 91.8227L73.2548 68.2227Z" fill="#BCABFF"/>
</svg>
