<svg width="282" height="421" viewBox="0 0 282 421" fill="none" xmlns="http://www.w3.org/2000/svg">
<rect width="282" height="421" rx="15.6254" fill="white"/>
<path d="M40.7436 58H46.9836V56.32H42.5676V46.8H40.7436V58ZM56.1084 56.688L54.9084 55.728C54.4124 56.4 53.5964 56.832 52.6204 56.832C51.0684 56.832 49.9964 55.92 49.8844 54.16H55.8364C55.9004 53.92 55.9484 53.552 55.9484 53.184C55.9484 51.136 54.5084 49.616 52.2844 49.616C49.7244 49.616 48.1884 51.552 48.1884 53.968C48.1884 56.32 49.8364 58.32 52.6204 58.32C54.1244 58.32 55.3564 57.696 56.1084 56.688ZM52.2524 50.992C53.5484 50.992 54.2684 51.92 54.3004 52.928H49.9644C50.2204 51.68 51.0524 50.992 52.2524 50.992ZM57.2159 56.864C57.9679 57.776 58.9759 58.32 60.3359 58.32C61.8399 58.32 63.1199 57.376 63.1359 55.792C63.1359 53.024 59.1839 53.568 59.1839 51.952C59.1839 51.408 59.5679 50.96 60.3359 50.96C61.0079 50.96 61.5679 51.36 61.9999 51.936L63.1199 50.96C62.5439 50.192 61.5039 49.616 60.3199 49.616C58.7039 49.616 57.5839 50.672 57.5839 52C57.5839 54.848 61.5359 54.256 61.5359 55.888C61.5359 56.496 61.1039 56.976 60.3199 56.976C59.5199 56.976 58.8799 56.544 58.3519 55.872L57.2159 56.864ZM68.4759 49.936V51.424H69.9959V58H71.6599V51.424H74.3319V49.936H71.6599V48.96C71.6599 48.048 72.2039 47.488 73.0199 47.488C73.4679 47.488 73.8199 47.632 74.0919 47.84L74.7959 46.448C74.3319 46.192 73.7239 46 72.9879 46C71.1159 46 69.9959 47.296 69.9959 49.008V49.936H68.4759ZM82.7334 56.688L81.5334 55.728C81.0374 56.4 80.2214 56.832 79.2454 56.832C77.6934 56.832 76.6214 55.92 76.5094 54.16H82.4614C82.5254 53.92 82.5734 53.552 82.5734 53.184C82.5734 51.136 81.1334 49.616 78.9094 49.616C76.3494 49.616 74.8134 51.552 74.8134 53.968C74.8134 56.32 76.4614 58.32 79.2454 58.32C80.7494 58.32 81.9814 57.696 82.7334 56.688ZM78.8774 50.992C80.1734 50.992 80.8934 51.92 80.9254 52.928H76.5894C76.8454 51.68 77.6774 50.992 78.8774 50.992ZM84.7346 58H86.3826V52.56C86.7666 51.872 87.3746 51.168 88.3986 51.168C89.4546 51.168 90.0946 51.872 90.0946 53.056V58H91.7586V52.992C91.7586 52.832 91.7586 52.688 91.7426 52.544C92.1746 51.776 92.7986 51.168 93.7586 51.168C94.7986 51.168 95.4546 51.872 95.4546 53.056V58H97.1186V52.992C97.1186 50.768 95.8226 49.616 94.1426 49.616C92.7506 49.616 91.9506 50.272 91.3266 51.072C90.8146 50.112 89.8866 49.616 88.7826 49.616C87.7106 49.616 86.9586 50.064 86.3826 50.688V49.936H84.7346V58ZM99.6721 58H101.32V52.56C101.704 51.872 102.312 51.168 103.336 51.168C104.392 51.168 105.032 51.872 105.032 53.056V58H106.696V52.992C106.696 52.832 106.696 52.688 106.68 52.544C107.112 51.776 107.736 51.168 108.696 51.168C109.736 51.168 110.392 51.872 110.392 53.056V58H112.056V52.992C112.056 50.768 110.76 49.616 109.08 49.616C107.688 49.616 106.888 50.272 106.264 51.072C105.752 50.112 104.824 49.616 103.72 49.616C102.648 49.616 101.896 50.064 101.32 50.688V49.936H99.6721V58ZM121.89 56.688L120.69 55.728C120.194 56.4 119.378 56.832 118.402 56.832C116.85 56.832 115.778 55.92 115.666 54.16H121.618C121.682 53.92 121.73 53.552 121.73 53.184C121.73 51.136 120.29 49.616 118.066 49.616C115.506 49.616 113.97 51.552 113.97 53.968C113.97 56.32 115.618 58.32 118.402 58.32C119.906 58.32 121.138 57.696 121.89 56.688ZM118.034 50.992C119.33 50.992 120.05 51.92 120.082 52.928H115.746C116.002 51.68 116.834 50.992 118.034 50.992ZM122.997 56.864C123.749 57.776 124.757 58.32 126.117 58.32C127.621 58.32 128.901 57.376 128.917 55.792C128.917 53.024 124.965 53.568 124.965 51.952C124.965 51.408 125.349 50.96 126.117 50.96C126.789 50.96 127.349 51.36 127.781 51.936L128.901 50.96C128.325 50.192 127.285 49.616 126.101 49.616C124.485 49.616 123.365 50.672 123.365 52C123.365 54.848 127.317 54.256 127.317 55.888C127.317 56.496 126.885 56.976 126.101 56.976C125.301 56.976 124.661 56.544 124.133 55.872L122.997 56.864ZM135.297 61.936H136.945V57.168C137.633 57.904 138.497 58.32 139.665 58.32C142.193 58.32 143.777 56.32 143.777 53.968C143.777 51.616 142.193 49.616 139.665 49.616C138.497 49.616 137.633 50.032 136.945 50.768V49.936H135.297V61.936ZM139.457 51.168C141.009 51.168 142.049 52.384 142.049 53.968C142.049 55.552 141.009 56.768 139.457 56.768C138.417 56.768 137.537 56.288 136.945 55.392V52.544C137.521 51.664 138.401 51.168 139.457 51.168ZM145.828 58H147.476V52.56C147.908 51.856 148.548 51.168 149.652 51.168C150.804 51.168 151.508 51.936 151.508 53.216V58H153.172V53.152C153.172 50.816 151.828 49.616 150.036 49.616C148.884 49.616 148.084 50.08 147.476 50.72V46H145.828V58ZM159.479 49.616C156.871 49.616 155.095 51.584 155.095 53.968C155.095 56.352 156.871 58.32 159.479 58.32C162.103 58.32 163.863 56.352 163.863 53.968C163.863 51.584 162.103 49.616 159.479 49.616ZM159.495 56.768C157.943 56.768 156.823 55.52 156.823 53.968C156.823 52.416 157.943 51.168 159.495 51.168C161.015 51.168 162.135 52.4 162.135 53.968C162.135 55.504 161.015 56.768 159.495 56.768ZM166.293 55.2C166.293 57.168 167.285 58.16 169.173 58.16C169.797 58.16 170.245 58.08 170.629 57.92V56.464C170.341 56.576 169.973 56.64 169.429 56.64C168.533 56.64 167.957 56.288 167.957 55.2V51.424H170.629V49.936H167.957V47.92H166.293V49.936H164.773V51.424H166.293V55.2ZM176.182 49.616C173.574 49.616 171.798 51.584 171.798 53.968C171.798 56.352 173.574 58.32 176.182 58.32C178.806 58.32 180.566 56.352 180.566 53.968C180.566 51.584 178.806 49.616 176.182 49.616ZM176.198 56.768C174.646 56.768 173.526 55.52 173.526 53.968C173.526 52.416 174.646 51.168 176.198 51.168C177.718 51.168 178.838 52.4 178.838 53.968C178.838 55.504 177.718 56.768 176.198 56.768ZM181.668 59.44C181.668 61.088 183.204 62 185.684 62C188.132 62 189.828 60.688 189.828 58.944C189.828 57.488 188.788 56.416 186.708 56.416H184.516C184.084 56.416 183.908 56.224 183.908 55.888C183.908 55.648 184.052 55.408 184.308 55.2C184.612 55.264 184.932 55.312 185.284 55.312C187.284 55.312 188.484 54.016 188.484 52.448C188.484 52.064 188.404 51.68 188.26 51.344H189.844V49.936H186.868C186.42 49.728 185.891 49.616 185.284 49.616C183.316 49.616 182.116 50.896 182.116 52.448C182.116 53.344 182.516 54.16 183.22 54.688C182.596 55.12 182.292 55.632 182.292 56.272C182.292 56.688 182.468 57.12 182.82 57.424C182.068 57.984 181.668 58.624 181.668 59.44ZM185.299 54.048C184.26 54.048 183.652 53.36 183.652 52.448C183.652 51.552 184.26 50.88 185.299 50.88C186.34 50.88 186.948 51.552 186.948 52.448C186.948 53.36 186.34 54.048 185.299 54.048ZM183.236 59.216C183.236 58.64 183.539 58.208 183.988 57.856H186.548C187.78 57.856 188.18 58.4 188.18 59.088C188.18 60.032 187.252 60.656 185.652 60.656C184.132 60.656 183.236 60.112 183.236 59.216ZM191.438 58H193.086V52.624C193.502 51.936 194.174 51.392 195.198 51.392C195.534 51.392 195.79 51.44 196.046 51.504V49.888C195.838 49.824 195.598 49.776 195.342 49.776C194.35 49.776 193.646 50.224 193.086 50.848V49.936H191.438V58ZM199.709 58.24C200.701 58.24 201.709 57.792 202.285 57.088V58H203.933V52.672C203.933 50.896 202.733 49.616 200.557 49.616C199.117 49.616 197.965 50.224 197.245 51.184L198.477 52.128C198.941 51.472 199.629 51.072 200.509 51.072C201.549 51.072 202.285 51.68 202.285 52.672V53.088L199.677 53.52C197.965 53.808 197.021 54.688 197.021 55.904C197.021 57.328 198.109 58.24 199.709 58.24ZM198.685 55.84C198.685 55.232 199.101 54.8 200.109 54.624L202.285 54.256V55.648C201.805 56.416 201.021 56.896 200.013 56.896C199.181 56.896 198.685 56.464 198.685 55.84ZM206.516 61.936H208.164V57.168C208.852 57.904 209.716 58.32 210.884 58.32C213.412 58.32 214.996 56.32 214.996 53.968C214.996 51.616 213.412 49.616 210.884 49.616C209.716 49.616 208.852 50.032 208.164 50.768V49.936H206.516V61.936ZM210.676 51.168C212.228 51.168 213.268 52.384 213.268 53.968C213.268 55.552 212.228 56.768 210.676 56.768C209.636 56.768 208.756 56.288 208.164 55.392V52.544C208.74 51.664 209.62 51.168 210.676 51.168ZM217.047 58H218.695V52.56C219.127 51.856 219.767 51.168 220.871 51.168C222.023 51.168 222.727 51.936 222.727 53.216V58H224.391V53.152C224.391 50.816 223.047 49.616 221.255 49.616C220.103 49.616 219.303 50.08 218.695 50.72V46H217.047V58ZM234.233 56.688L233.033 55.728C232.537 56.4 231.721 56.832 230.745 56.832C229.193 56.832 228.121 55.92 228.009 54.16H233.961C234.025 53.92 234.073 53.552 234.073 53.184C234.073 51.136 232.633 49.616 230.409 49.616C227.849 49.616 226.313 51.552 226.313 53.968C226.313 56.32 227.961 58.32 230.745 58.32C232.249 58.32 233.481 57.696 234.233 56.688ZM230.377 50.992C231.673 50.992 232.393 51.92 232.425 52.928H228.089C228.345 51.68 229.177 50.992 230.377 50.992ZM235.341 56.864C236.093 57.776 237.101 58.32 238.461 58.32C239.965 58.32 241.245 57.376 241.261 55.792C241.261 53.024 237.309 53.568 237.309 51.952C237.309 51.408 237.693 50.96 238.461 50.96C239.133 50.96 239.693 51.36 240.125 51.936L241.245 50.96C240.669 50.192 239.629 49.616 238.445 49.616C236.829 49.616 235.709 50.672 235.709 52C235.709 54.848 239.661 54.256 239.661 55.888C239.661 56.496 239.229 56.976 238.445 56.976C237.645 56.976 237.005 56.544 236.477 55.872L235.341 56.864ZM58.9334 71.936L61.9734 80H64.1654L67.2214 71.936H65.4294L63.0774 78.208L60.7094 71.936H58.9334ZM69.5432 70.144C70.1512 70.144 70.6632 69.632 70.6632 69.024C70.6632 68.416 70.1512 67.904 69.5432 67.904C68.9352 67.904 68.4232 68.416 68.4232 69.024C68.4232 69.632 68.9352 70.144 69.5432 70.144ZM68.7112 80H70.3592V71.936H68.7112V80ZM71.8709 71.936L74.9109 80H77.1029L80.1589 71.936H78.3669L76.0149 78.208L73.6469 71.936H71.8709ZM88.8193 78.688L87.6193 77.728C87.1233 78.4 86.3073 78.832 85.3313 78.832C83.7793 78.832 82.7073 77.92 82.5953 76.16H88.5473C88.6113 75.92 88.6593 75.552 88.6593 75.184C88.6593 73.136 87.2193 71.616 84.9953 71.616C82.4353 71.616 80.8993 73.552 80.8993 75.968C80.8993 78.32 82.5473 80.32 85.3313 80.32C86.8353 80.32 88.0673 79.696 88.8193 78.688ZM84.9633 72.992C86.2593 72.992 86.9793 73.92 87.0113 74.928H82.6753C82.9313 73.68 83.7633 72.992 84.9633 72.992ZM90.8206 80H92.4686V74.56C92.8846 73.856 93.5406 73.168 94.6446 73.168C95.7966 73.168 96.5006 73.936 96.5006 75.216V80H98.1646V75.152C98.1646 72.816 96.8046 71.616 95.0286 71.616C93.8766 71.616 93.0766 72.08 92.4686 72.72V71.936H90.8206V80ZM101.207 77.2C101.207 79.168 102.199 80.16 104.087 80.16C104.711 80.16 105.159 80.08 105.543 79.92V78.464C105.255 78.576 104.887 78.64 104.343 78.64C103.447 78.64 102.871 78.288 102.871 77.2V73.424H105.543V71.936H102.871V69.92H101.207V71.936H99.6868V73.424H101.207V77.2ZM111.821 80H113.469V74.56C113.853 73.872 114.461 73.168 115.485 73.168C116.541 73.168 117.181 73.872 117.181 75.056V80H118.845V74.992C118.845 74.832 118.845 74.688 118.829 74.544C119.261 73.776 119.885 73.168 120.845 73.168C121.885 73.168 122.541 73.872 122.541 75.056V80H124.205V74.992C124.205 72.768 122.909 71.616 121.229 71.616C119.837 71.616 119.037 72.272 118.413 73.072C117.901 72.112 116.973 71.616 115.869 71.616C114.797 71.616 114.045 72.064 113.469 72.688V71.936H111.821V80ZM130.502 71.616C127.894 71.616 126.118 73.584 126.118 75.968C126.118 78.352 127.894 80.32 130.502 80.32C133.126 80.32 134.886 78.352 134.886 75.968C134.886 73.584 133.126 71.616 130.502 71.616ZM130.518 78.768C128.966 78.768 127.846 77.52 127.846 75.968C127.846 74.416 128.966 73.168 130.518 73.168C132.038 73.168 133.158 74.4 133.158 75.968C133.158 77.504 132.038 78.768 130.518 78.768ZM137.778 70.144C138.386 70.144 138.898 69.632 138.898 69.024C138.898 68.416 138.386 67.904 137.778 67.904C137.17 67.904 136.658 68.416 136.658 69.024C136.658 69.632 137.17 70.144 137.778 70.144ZM136.946 80H138.594V71.936H136.946V80ZM141.289 80H142.937V74.56C143.353 73.856 144.009 73.168 145.113 73.168C146.265 73.168 146.969 73.936 146.969 75.216V80H148.633V75.152C148.633 72.816 147.273 71.616 145.497 71.616C144.345 71.616 143.545 72.08 142.937 72.72V71.936H141.289V80ZM150.396 78.864C151.148 79.776 152.156 80.32 153.516 80.32C155.02 80.32 156.3 79.376 156.316 77.792C156.316 75.024 152.364 75.568 152.364 73.952C152.364 73.408 152.748 72.96 153.516 72.96C154.188 72.96 154.748 73.36 155.18 73.936L156.3 72.96C155.724 72.192 154.684 71.616 153.5 71.616C151.884 71.616 150.764 72.672 150.764 74C150.764 76.848 154.716 76.256 154.716 77.888C154.716 78.496 154.284 78.976 153.5 78.976C152.7 78.976 152.06 78.544 151.532 77.872L150.396 78.864ZM162.056 75.968C162.056 78.32 163.64 80.32 166.184 80.32C167.336 80.32 168.2 79.904 168.872 79.184V80H170.552V68H168.872V72.752C168.2 72.032 167.336 71.616 166.184 71.616C163.64 71.616 162.056 73.616 162.056 75.968ZM163.8 75.968C163.8 74.384 164.84 73.168 166.392 73.168C167.4 73.168 168.28 73.632 168.872 74.512V77.424C168.328 78.272 167.432 78.768 166.392 78.768C164.84 78.768 163.8 77.552 163.8 75.968ZM180.491 78.688L179.291 77.728C178.795 78.4 177.979 78.832 177.003 78.832C175.451 78.832 174.379 77.92 174.267 76.16H180.219C180.283 75.92 180.331 75.552 180.331 75.184C180.331 73.136 178.891 71.616 176.667 71.616C174.107 71.616 172.571 73.552 172.571 75.968C172.571 78.32 174.219 80.32 177.003 80.32C178.507 80.32 179.739 79.696 180.491 78.688ZM176.635 72.992C177.931 72.992 178.651 73.92 178.683 74.928H174.347C174.603 73.68 175.435 72.992 176.635 72.992ZM186.805 80H188.453V68H186.805V80ZM198.429 78.688L197.229 77.728C196.733 78.4 195.917 78.832 194.941 78.832C193.389 78.832 192.317 77.92 192.205 76.16H198.157C198.221 75.92 198.269 75.552 198.269 75.184C198.269 73.136 196.829 71.616 194.605 71.616C192.045 71.616 190.509 73.552 190.509 75.968C190.509 78.32 192.157 80.32 194.941 80.32C196.445 80.32 197.677 79.696 198.429 78.688ZM194.573 72.992C195.869 72.992 196.589 73.92 196.621 74.928H192.285C192.541 73.68 193.373 72.992 194.573 72.992ZM205.793 76.544C205.793 77.936 205.041 78.768 203.809 78.768C202.545 78.768 201.809 77.936 201.809 76.544V71.936H200.145V76.464C200.145 78.88 201.537 80.32 203.809 80.32C206.065 80.32 207.457 78.88 207.457 76.464V71.936H205.793V76.544ZM209.961 80H211.609V74.624C212.025 73.936 212.697 73.392 213.721 73.392C214.057 73.392 214.313 73.44 214.569 73.504V71.888C214.361 71.824 214.121 71.776 213.865 71.776C212.873 71.776 212.169 72.224 211.609 72.848V71.936H209.961V80ZM215.583 78.864C216.335 79.776 217.343 80.32 218.703 80.32C220.207 80.32 221.487 79.376 221.503 77.792C221.503 75.024 217.551 75.568 217.551 73.952C217.551 73.408 217.935 72.96 218.703 72.96C219.375 72.96 219.935 73.36 220.367 73.936L221.487 72.96C220.911 72.192 219.871 71.616 218.687 71.616C217.071 71.616 215.951 72.672 215.951 74C215.951 76.848 219.903 76.256 219.903 77.888C219.903 78.496 219.471 78.976 218.687 78.976C217.887 78.976 217.247 78.544 216.719 77.872L215.583 78.864ZM46.8414 102.24C47.8334 102.24 48.8414 101.792 49.4174 101.088V102H51.0654V96.672C51.0654 94.896 49.8654 93.616 47.6894 93.616C46.2494 93.616 45.0974 94.224 44.3774 95.184L45.6094 96.128C46.0734 95.472 46.7614 95.072 47.6414 95.072C48.6814 95.072 49.4174 95.68 49.4174 96.672V97.088L46.8094 97.52C45.0974 97.808 44.1534 98.688 44.1534 99.904C44.1534 101.328 45.2414 102.24 46.8414 102.24ZM45.8174 99.84C45.8174 99.232 46.2334 98.8 47.2414 98.624L49.4174 98.256V99.648C48.9374 100.416 48.1534 100.896 47.1454 100.896C46.3134 100.896 45.8174 100.464 45.8174 99.84ZM57.4247 100.768C55.8567 100.768 54.7367 99.568 54.7367 97.968C54.7367 96.384 55.8567 95.168 57.4087 95.168C58.3367 95.168 59.0727 95.616 59.5207 96.24L60.8167 95.248C60.0807 94.256 58.8807 93.616 57.4087 93.616C54.7047 93.616 53.0087 95.616 53.0087 97.968C53.0087 100.32 54.7047 102.32 57.4087 102.32C58.8967 102.32 60.0807 101.68 60.8167 100.688L59.5207 99.696C59.0727 100.32 58.3367 100.768 57.4247 100.768ZM63.0349 99.2C63.0349 101.168 64.0269 102.16 65.9149 102.16C66.5389 102.16 66.9869 102.08 67.3709 101.92V100.464C67.0829 100.576 66.7149 100.64 66.1709 100.64C65.2749 100.64 64.6989 100.288 64.6989 99.2V95.424H67.3709V93.936H64.6989V91.92H63.0349V93.936H61.5149V95.424H63.0349V99.2ZM70.1682 92.144C70.7762 92.144 71.2882 91.632 71.2882 91.024C71.2882 90.416 70.7762 89.904 70.1682 89.904C69.5602 89.904 69.0482 90.416 69.0482 91.024C69.0482 91.632 69.5602 92.144 70.1682 92.144ZM69.3362 102H70.9842V93.936H69.3362V102ZM72.4959 93.936L75.5359 102H77.7279L80.7839 93.936H78.9919L76.6399 100.208L74.2719 93.936H72.4959ZM83.1057 92.144C83.7137 92.144 84.2257 91.632 84.2257 91.024C84.2257 90.416 83.7137 89.904 83.1057 89.904C82.4977 89.904 81.9857 90.416 81.9857 91.024C81.9857 91.632 82.4977 92.144 83.1057 92.144ZM82.2737 102H83.9217V93.936H82.2737V102ZM87.0974 99.2C87.0974 101.168 88.0894 102.16 89.9774 102.16C90.6014 102.16 91.0494 102.08 91.4334 101.92V100.464C91.1454 100.576 90.7774 100.64 90.2334 100.64C89.3374 100.64 88.7614 100.288 88.7614 99.2V95.424H91.4334V93.936H88.7614V91.92H87.0974V93.936H85.5774V95.424H87.0974V99.2ZM97.5944 92.656L99.4824 90H97.6584L95.9944 92.656H97.5944ZM100.522 100.688L99.3224 99.728C98.8264 100.4 98.0104 100.832 97.0344 100.832C95.4824 100.832 94.4104 99.92 94.2984 98.16H100.25C100.314 97.92 100.362 97.552 100.362 97.184C100.362 95.136 98.9224 93.616 96.6984 93.616C94.1384 93.616 92.6024 95.552 92.6024 97.968C92.6024 100.32 94.2504 102.32 97.0344 102.32C98.5384 102.32 99.7704 101.696 100.522 100.688ZM96.6664 94.992C97.9624 94.992 98.6824 95.92 98.7144 96.928H94.3784C94.6344 95.68 95.4664 94.992 96.6664 94.992ZM101.63 100.864C102.382 101.776 103.39 102.32 104.75 102.32C106.254 102.32 107.534 101.376 107.55 99.792C107.55 97.024 103.598 97.568 103.598 95.952C103.598 95.408 103.982 94.96 104.75 94.96C105.422 94.96 105.982 95.36 106.414 95.936L107.534 94.96C106.958 94.192 105.918 93.616 104.734 93.616C103.118 93.616 101.998 94.672 101.998 96C101.998 98.848 105.95 98.256 105.95 99.888C105.95 100.496 105.518 100.976 104.734 100.976C103.934 100.976 103.294 100.544 102.766 99.872L101.63 100.864ZM113.29 97.968C113.29 100.32 114.874 102.32 117.402 102.32C118.57 102.32 119.434 101.904 120.106 101.168V105.936H121.786V93.936H120.106V94.768C119.434 94.032 118.57 93.616 117.402 93.616C114.874 93.616 113.29 95.616 113.29 97.968ZM115.018 97.968C115.018 96.384 116.058 95.168 117.61 95.168C118.634 95.168 119.514 95.632 120.106 96.512V99.424C119.562 100.272 118.666 100.768 117.61 100.768C116.058 100.768 115.018 99.552 115.018 97.968ZM129.933 98.544C129.933 99.936 129.181 100.768 127.949 100.768C126.685 100.768 125.949 99.936 125.949 98.544V93.936H124.285V98.464C124.285 100.88 125.677 102.32 127.949 102.32C130.205 102.32 131.597 100.88 131.597 98.464V93.936H129.933V98.544ZM141.382 100.688L140.182 99.728C139.686 100.4 138.87 100.832 137.894 100.832C136.342 100.832 135.27 99.92 135.158 98.16H141.11C141.174 97.92 141.222 97.552 141.222 97.184C141.222 95.136 139.782 93.616 137.558 93.616C134.998 93.616 133.462 95.552 133.462 97.968C133.462 100.32 135.11 102.32 137.894 102.32C139.398 102.32 140.63 101.696 141.382 100.688ZM137.526 94.992C138.822 94.992 139.542 95.92 139.574 96.928H135.238C135.494 95.68 136.326 94.992 137.526 94.992ZM147.696 102H149.344V90H147.696V102ZM159.319 100.688L158.119 99.728C157.623 100.4 156.807 100.832 155.831 100.832C154.279 100.832 153.207 99.92 153.095 98.16H159.047C159.111 97.92 159.159 97.552 159.159 97.184C159.159 95.136 157.719 93.616 155.495 93.616C152.935 93.616 151.399 95.552 151.399 97.968C151.399 100.32 153.047 102.32 155.831 102.32C157.335 102.32 158.567 101.696 159.319 100.688ZM155.463 94.992C156.759 94.992 157.479 95.92 157.511 96.928H153.175C153.431 95.68 154.263 94.992 155.463 94.992ZM160.427 100.864C161.179 101.776 162.187 102.32 163.547 102.32C165.051 102.32 166.331 101.376 166.347 99.792C166.347 97.024 162.395 97.568 162.395 95.952C162.395 95.408 162.779 94.96 163.547 94.96C164.219 94.96 164.779 95.36 165.211 95.936L166.331 94.96C165.755 94.192 164.715 93.616 163.531 93.616C161.915 93.616 160.795 94.672 160.795 96C160.795 98.848 164.747 98.256 164.747 99.888C164.747 100.496 164.315 100.976 163.531 100.976C162.731 100.976 162.091 100.544 161.563 99.872L160.427 100.864ZM172.727 102H174.375V96.56C174.807 95.856 175.447 95.168 176.551 95.168C177.703 95.168 178.407 95.936 178.407 97.216V102H180.071V97.152C180.071 94.816 178.727 93.616 176.935 93.616C175.783 93.616 174.983 94.08 174.375 94.72V90H172.727V102ZM186.377 93.616C183.769 93.616 181.993 95.584 181.993 97.968C181.993 100.352 183.769 102.32 186.377 102.32C189.001 102.32 190.761 100.352 190.761 97.968C190.761 95.584 189.001 93.616 186.377 93.616ZM186.393 100.768C184.841 100.768 183.721 99.52 183.721 97.968C183.721 96.416 184.841 95.168 186.393 95.168C187.913 95.168 189.033 96.4 189.033 97.968C189.033 99.504 187.913 100.768 186.393 100.768ZM192.821 102H194.469V96.56C194.853 95.872 195.461 95.168 196.485 95.168C197.541 95.168 198.181 95.872 198.181 97.056V102H199.845V96.992C199.845 96.832 199.845 96.688 199.829 96.544C200.261 95.776 200.885 95.168 201.845 95.168C202.885 95.168 203.541 95.872 203.541 97.056V102H205.205V96.992C205.205 94.768 203.909 93.616 202.229 93.616C200.837 93.616 200.037 94.272 199.413 95.072C198.901 94.112 197.973 93.616 196.869 93.616C195.797 93.616 195.045 94.064 194.469 94.688V93.936H192.821V102ZM207.758 102H209.406V96.56C209.79 95.872 210.398 95.168 211.422 95.168C212.478 95.168 213.118 95.872 213.118 97.056V102H214.782V96.992C214.782 96.832 214.782 96.688 214.766 96.544C215.198 95.776 215.822 95.168 216.782 95.168C217.822 95.168 218.478 95.872 218.478 97.056V102H220.142V96.992C220.142 94.768 218.846 93.616 217.166 93.616C215.774 93.616 214.974 94.272 214.35 95.072C213.838 94.112 212.91 93.616 211.806 93.616C210.734 93.616 209.982 94.064 209.406 94.688V93.936H207.758V102ZM229.976 100.688L228.776 99.728C228.28 100.4 227.464 100.832 226.488 100.832C224.936 100.832 223.864 99.92 223.752 98.16H229.704C229.768 97.92 229.816 97.552 229.816 97.184C229.816 95.136 228.376 93.616 226.152 93.616C223.592 93.616 222.056 95.552 222.056 97.968C222.056 100.32 223.704 102.32 226.488 102.32C227.992 102.32 229.224 101.696 229.976 100.688ZM226.12 94.992C227.416 94.992 228.136 95.92 228.168 96.928H223.832C224.088 95.68 224.92 94.992 226.12 94.992ZM231.083 100.864C231.835 101.776 232.843 102.32 234.203 102.32C235.707 102.32 236.987 101.376 237.003 99.792C237.003 97.024 233.051 97.568 233.051 95.952C233.051 95.408 233.435 94.96 234.203 94.96C234.875 94.96 235.435 95.36 235.867 95.936L236.987 94.96C236.411 94.192 235.371 93.616 234.187 93.616C232.571 93.616 231.451 94.672 231.451 96C231.451 98.848 235.403 98.256 235.403 99.888C235.403 100.496 234.971 100.976 234.187 100.976C233.387 100.976 232.747 100.544 232.219 99.872L231.083 100.864Z" fill="black"/>
<path fill-rule="evenodd" clip-rule="evenodd" d="M131.025 129.586C131.118 129.584 131.211 129.583 131.306 129.583L131.447 129.584C131.494 129.585 131.54 129.585 131.586 129.586L131.861 129.595L132.129 129.61C132.261 129.618 132.39 129.629 132.517 129.642L132.765 129.671C134.104 129.847 135.028 130.284 135.028 130.979V133.771C135.028 134.028 134.82 134.236 134.563 134.236C134.324 134.236 134.127 134.057 134.101 133.825L134.097 133.771V131.968C133.734 132.113 133.28 132.22 132.765 132.287L132.517 132.316C132.39 132.329 132.261 132.34 132.129 132.349L131.861 132.363L131.586 132.372C131.494 132.374 131.4 132.375 131.306 132.375C131.211 132.375 131.118 132.374 131.025 132.372L130.75 132.363L130.482 132.349C130.35 132.34 130.221 132.329 130.095 132.316L129.847 132.287C128.508 132.112 127.583 131.674 127.583 130.979C127.583 130.284 128.508 129.847 129.847 129.671L130.095 129.642C130.221 129.629 130.35 129.618 130.482 129.61L130.75 129.595L131.025 129.586ZM134.097 130.979L134.087 130.973C133.982 130.913 133.832 130.852 133.648 130.796L133.552 130.769C132.972 130.608 132.168 130.514 131.306 130.514C130.444 130.514 129.64 130.608 129.059 130.769C128.863 130.823 128.701 130.883 128.581 130.943L128.514 130.979L128.593 131.022C128.691 131.07 128.816 131.117 128.964 131.162L129.059 131.19C129.64 131.35 130.444 131.444 131.306 131.444C132.168 131.444 132.972 131.35 133.552 131.19C133.749 131.136 133.911 131.076 134.031 131.016L134.097 130.979Z" fill="#BEBDBD"/>
<path d="M149.792 147.173C149.299 146.64 148.625 146.333 147.905 146.333C146.753 146.333 145.777 147.111 145.414 148.194H144.799L144.745 148.198C144.513 148.224 144.333 148.421 144.333 148.66C144.333 148.917 144.542 149.125 144.799 149.125H145.264C145.264 149.284 145.277 149.439 145.301 149.59H144.799L144.745 149.593C144.513 149.62 144.333 149.817 144.333 150.056C144.333 150.313 144.542 150.521 144.799 150.521H145.617C146.073 151.355 146.926 151.917 147.905 151.917C148.561 151.917 149.182 151.662 149.661 151.209C149.845 151.036 149.858 150.742 149.691 150.552C149.523 150.362 149.238 150.349 149.054 150.522C148.738 150.82 148.334 150.986 147.905 150.986C147.464 150.986 147.061 150.811 146.754 150.521H147.59L147.645 150.518C147.876 150.491 148.056 150.294 148.056 150.056C148.056 149.799 147.847 149.59 147.59 149.59H146.219C146.184 149.442 146.165 149.286 146.165 149.125H147.59L147.645 149.122C147.876 149.095 148.056 148.898 148.056 148.66C148.056 148.403 147.847 148.194 147.59 148.194H146.397C146.699 147.637 147.262 147.264 147.905 147.264C148.375 147.264 148.816 147.464 149.141 147.816C149.313 148.002 149.598 148.008 149.778 147.831C149.957 147.653 149.964 147.358 149.792 147.173Z" fill="#BEBDBD"/>
<path d="M128.049 133.306C128.287 133.306 128.484 133.469 128.511 133.679L128.514 133.729V142.188C128.514 142.422 128.306 142.611 128.049 142.611C127.81 142.611 127.614 142.448 127.587 142.238L127.583 142.188V133.729C127.583 133.495 127.792 133.306 128.049 133.306Z" fill="#BEBDBD"/>
<path d="M128.049 144.472C128.306 144.472 128.514 144.264 128.514 144.007C128.514 143.75 128.306 143.542 128.049 143.542C127.792 143.542 127.583 143.75 127.583 144.007C127.583 144.264 127.792 144.472 128.049 144.472Z" fill="#BEBDBD"/>
<path fill-rule="evenodd" clip-rule="evenodd" d="M149.917 137.028C149.822 137.028 149.729 137.029 149.636 137.031L149.361 137.039L149.094 137.054C148.961 137.063 148.832 137.074 148.706 137.087L148.458 137.116C147.119 137.291 146.195 137.729 146.195 138.424C146.195 139.119 147.119 139.556 148.458 139.732L148.706 139.761C148.832 139.774 148.961 139.785 149.094 139.793L149.361 139.808L149.636 139.817C149.729 139.819 149.822 139.819 149.917 139.819C150.011 139.819 150.105 139.819 150.198 139.817L150.472 139.808L150.74 139.793C150.872 139.785 151.002 139.774 151.128 139.761L151.376 139.732C151.891 139.664 152.345 139.558 152.708 139.413V141.215L152.712 141.27C152.739 141.501 152.935 141.681 153.174 141.681C153.431 141.681 153.639 141.472 153.639 141.215V138.424C153.639 137.729 152.715 137.291 151.376 137.116L151.128 137.087C151.002 137.074 150.872 137.063 150.74 137.054L150.472 137.039L150.198 137.031C150.151 137.03 150.105 137.029 150.058 137.029L149.917 137.028ZM152.642 138.46L152.708 138.424L152.698 138.417C152.593 138.357 152.444 138.297 152.259 138.241L152.164 138.213C151.583 138.052 150.779 137.958 149.917 137.958C149.055 137.958 148.251 138.052 147.671 138.213C147.474 138.267 147.312 138.327 147.192 138.387L147.125 138.424L147.204 138.466C147.303 138.514 147.427 138.562 147.575 138.607L147.671 138.634C148.251 138.795 149.055 138.889 149.917 138.889C150.779 138.889 151.583 138.795 152.164 138.634C152.36 138.58 152.522 138.52 152.642 138.46Z" fill="#BEBDBD"/>
<path d="M147.122 140.231C147.095 139.999 146.898 139.819 146.66 139.819C146.403 139.819 146.195 140.028 146.195 140.285V142.146L146.198 142.2C146.225 142.432 146.421 142.611 146.66 142.611C146.917 142.611 147.125 142.403 147.125 142.146V140.285L147.122 140.231Z" fill="#BEBDBD"/>
<path fill-rule="evenodd" clip-rule="evenodd" d="M139.058 134.236L138.747 134.242C138.696 134.243 138.645 134.245 138.594 134.247L138.292 134.26L137.995 134.28C137.849 134.291 137.705 134.304 137.564 134.319L137.285 134.352C137.24 134.357 137.194 134.364 137.149 134.37L136.883 134.41C135.225 134.684 134.097 135.268 134.097 136.097V138.224L134.1 138.293C134.101 138.31 134.102 138.327 134.104 138.344C134.1 138.37 134.097 138.396 134.097 138.424V140.551L134.1 140.62C134.101 140.637 134.102 140.653 134.104 140.67C134.1 140.696 134.097 140.723 134.097 140.75V142.877L134.1 142.946C134.101 142.963 134.102 142.98 134.104 142.996C134.1 143.022 134.097 143.049 134.097 143.076V145.203L134.1 145.272C134.104 145.337 134.114 145.401 134.131 145.464C134.062 145.457 133.992 145.452 133.922 145.446L133.625 145.427L133.323 145.413C133.272 145.411 133.221 145.41 133.17 145.408L132.859 145.403H132.544L132.233 145.408C132.182 145.41 132.131 145.411 132.08 145.413L131.778 145.427L131.481 145.446C131.335 145.457 131.191 145.47 131.05 145.485L130.771 145.518C130.726 145.524 130.68 145.53 130.635 145.537L130.369 145.577C128.711 145.85 127.583 146.434 127.583 147.264V149.391L127.586 149.46C127.587 149.477 127.588 149.493 127.59 149.51C127.586 149.536 127.583 149.563 127.583 149.59V151.717L127.586 151.786C127.646 152.699 128.904 153.352 130.678 153.63L130.948 153.668C131.039 153.68 131.132 153.691 131.225 153.701L131.509 153.729C131.892 153.761 132.291 153.778 132.702 153.778C133.112 153.778 133.511 153.761 133.894 153.729L134.178 153.701C134.271 153.691 134.364 153.68 134.455 153.668L134.725 153.63C136.464 153.358 137.707 152.725 137.812 151.84C138.256 151.891 138.72 151.917 139.192 151.917C140.351 151.917 141.77 151.769 142.558 151.546C143.46 153.417 145.374 154.708 147.59 154.708C150.674 154.708 153.174 152.208 153.174 149.125C153.174 146.041 150.674 143.541 147.59 143.541C146.375 143.541 145.25 143.93 144.333 144.589V143.076L144.33 143.022C144.33 143.017 144.329 143.013 144.329 143.009C144.328 143.005 144.327 143 144.327 142.996C144.331 142.957 144.333 142.917 144.333 142.877V140.75L144.33 140.696C144.329 140.687 144.328 140.679 144.327 140.67C144.331 140.631 144.333 140.591 144.333 140.551V138.424L144.33 138.369C144.329 138.361 144.328 138.352 144.327 138.344C144.331 138.304 144.333 138.265 144.333 138.224V136.097C144.333 135.29 143.265 134.715 141.678 134.433L141.416 134.389C141.327 134.376 141.237 134.363 141.146 134.352L140.867 134.319C140.726 134.304 140.582 134.291 140.436 134.28L140.139 134.26L139.837 134.247C139.786 134.245 139.735 134.243 139.684 134.242L139.373 134.236H139.058ZM142.5 146.827C142.122 146.947 141.698 147.044 141.239 147.116L140.969 147.154C140.878 147.166 140.785 147.177 140.692 147.187L140.408 147.215C140.025 147.247 139.626 147.264 139.215 147.264C138.805 147.264 138.406 147.247 138.023 147.215L137.817 147.195C137.819 147.218 137.82 147.24 137.82 147.264V148.47C138.263 148.526 138.732 148.554 139.211 148.554C140.158 148.554 141.286 148.446 142.071 148.278C142.148 147.769 142.295 147.282 142.5 146.827ZM142.011 149.343C141.186 149.496 140.123 149.59 139.211 149.59C138.732 149.59 138.262 149.563 137.813 149.512L137.814 149.521L137.816 149.53L137.816 149.536L137.82 149.59V150.802C138.258 150.856 138.72 150.884 139.192 150.884C140.216 150.884 141.471 150.759 142.199 150.58C142.092 150.183 142.028 149.769 142.011 149.343ZM135.028 138.224V137.235C135.476 137.462 136.066 137.639 136.753 137.761L137.015 137.804C137.104 137.818 137.194 137.83 137.285 137.842L137.564 137.875C137.705 137.89 137.849 137.903 137.995 137.914L138.292 137.933L138.594 137.947C138.645 137.949 138.696 137.951 138.747 137.952L139.058 137.958C139.11 137.958 139.163 137.958 139.215 137.958L139.373 137.958L139.684 137.952C139.735 137.951 139.786 137.949 139.837 137.947L140.139 137.933L140.436 137.914C140.582 137.903 140.726 137.89 140.867 137.875L141.146 137.842C141.191 137.836 141.237 137.83 141.282 137.824L141.548 137.783C142.291 137.661 142.927 137.476 143.403 137.235V138.224L143.4 138.253C143.363 138.42 143.013 138.687 142.355 138.912C141.54 139.192 140.418 139.354 139.215 139.354C138.013 139.354 136.891 139.192 136.076 138.912C135.379 138.673 135.028 138.388 135.028 138.224ZM135.387 136.41C135.157 136.301 135.028 136.192 135.028 136.097C135.028 136.002 135.157 135.894 135.387 135.785L135.511 135.731C135.555 135.712 135.602 135.694 135.651 135.676L135.807 135.623C135.862 135.606 135.919 135.588 135.978 135.571L136.163 135.52C136.195 135.512 136.227 135.504 136.26 135.496L136.465 135.448C136.535 135.432 136.607 135.417 136.682 135.403L136.91 135.36L137.149 135.321C137.19 135.315 137.231 135.308 137.273 135.302L137.527 135.269L137.79 135.239L138.061 135.214C138.153 135.206 138.246 135.2 138.34 135.194L138.626 135.179L138.918 135.17C138.967 135.169 139.017 135.168 139.066 135.167L139.215 135.167C139.315 135.167 139.414 135.168 139.513 135.17L139.805 135.179L140.09 135.194C140.185 135.2 140.278 135.206 140.369 135.214L140.641 135.239L140.904 135.269L141.158 135.302L141.403 135.34C141.443 135.347 141.482 135.353 141.521 135.36L141.749 135.403C141.787 135.41 141.823 135.417 141.859 135.425L142.07 135.471C142.138 135.487 142.204 135.504 142.268 135.52L142.453 135.571C142.483 135.58 142.512 135.588 142.54 135.597L142.703 135.65C142.781 135.676 142.853 135.703 142.92 135.731L143.043 135.785C143.274 135.894 143.403 136.002 143.403 136.097C143.403 136.192 143.274 136.301 143.043 136.41L142.92 136.464C142.876 136.482 142.829 136.5 142.779 136.518L142.624 136.572C142.569 136.589 142.512 136.607 142.453 136.624L142.268 136.674C142.236 136.683 142.204 136.691 142.171 136.699L141.966 136.747C141.896 136.762 141.824 136.778 141.749 136.792L141.521 136.835L141.282 136.874C141.241 136.88 141.2 136.886 141.158 136.892L140.904 136.926L140.641 136.956L140.369 136.981C140.278 136.988 140.185 136.995 140.09 137.001L139.805 137.016L139.513 137.025C139.414 137.027 139.315 137.028 139.215 137.028C139.116 137.028 139.016 137.027 138.918 137.025L138.626 137.016L138.34 137.001C138.246 136.995 138.153 136.988 138.061 136.981L137.79 136.956L137.527 136.926L137.273 136.892L137.028 136.855C136.988 136.848 136.949 136.841 136.91 136.835L136.682 136.792C136.644 136.785 136.608 136.777 136.572 136.77L136.361 136.723C136.293 136.707 136.226 136.691 136.163 136.674L135.978 136.624C135.948 136.615 135.919 136.607 135.891 136.598L135.727 136.545C135.65 136.518 135.577 136.491 135.511 136.464L135.387 136.41ZM135.028 140.551V139.468C135.57 139.773 136.318 140 137.192 140.137L137.462 140.176C137.553 140.188 137.646 140.199 137.739 140.209L138.023 140.236C138.406 140.268 138.805 140.285 139.215 140.285C139.626 140.285 140.025 140.268 140.408 140.236L140.692 140.209C140.785 140.199 140.878 140.188 140.969 140.176L141.239 140.137C142.113 140 142.861 139.773 143.403 139.468V140.551L143.4 140.579C143.363 140.746 143.013 141.013 142.355 141.239C141.54 141.518 140.418 141.681 139.215 141.681C138.013 141.681 136.891 141.518 136.076 141.239C135.379 141 135.028 140.715 135.028 140.551ZM136.889 150.634C136.347 150.939 135.599 151.167 134.725 151.303L134.455 151.342C134.364 151.354 134.271 151.365 134.178 151.375L133.894 151.402C133.511 151.435 133.112 151.451 132.702 151.451C132.291 151.451 131.892 151.435 131.509 151.402L131.225 151.375C131.132 151.365 131.039 151.354 130.948 151.342L130.678 151.303C129.804 151.167 129.056 150.939 128.514 150.634V151.717C128.514 151.881 128.866 152.166 129.562 152.405C130.377 152.684 131.499 152.847 132.702 152.847C133.904 152.847 135.026 152.684 135.841 152.405C136.499 152.179 136.849 151.913 136.886 151.746L136.889 151.717V150.634ZM135.028 141.794C135.57 142.099 136.318 142.327 137.192 142.463L137.462 142.502C137.553 142.514 137.646 142.525 137.739 142.535L138.023 142.562C138.406 142.595 138.805 142.611 139.215 142.611C139.626 142.611 140.025 142.595 140.408 142.562L140.692 142.535C140.785 142.525 140.878 142.514 140.969 142.502L141.239 142.463C142.113 142.327 142.861 142.099 143.403 141.794V142.877L143.4 142.905C143.363 143.073 143.013 143.339 142.355 143.565C141.54 143.844 140.418 144.007 139.215 144.007C138.013 144.007 136.891 143.844 136.076 143.565C135.379 143.326 135.028 143.041 135.028 142.877V141.794ZM143.403 145.203V144.12C142.861 144.425 142.113 144.653 141.239 144.79L140.969 144.828C140.878 144.84 140.785 144.851 140.692 144.861L140.408 144.889C140.025 144.921 139.626 144.938 139.215 144.938C138.805 144.938 138.406 144.921 138.023 144.889L137.739 144.861C137.646 144.851 137.553 144.84 137.462 144.828L137.192 144.79C136.318 144.653 135.57 144.425 135.028 144.12V145.203C135.028 145.32 135.208 145.499 135.565 145.679C136.056 145.789 136.486 145.929 136.836 146.099C137.532 146.249 138.353 146.333 139.215 146.333C140.418 146.333 141.54 146.17 142.355 145.891C143.013 145.665 143.363 145.399 143.4 145.231L143.403 145.203ZM136.656 147.017C136.136 146.906 135.673 146.759 135.289 146.58C135.271 146.576 135.254 146.573 135.235 146.569L135.007 146.527C134.968 146.52 134.929 146.513 134.889 146.507L134.644 146.469L134.39 146.435L134.127 146.406L133.856 146.381C133.764 146.373 133.671 146.366 133.577 146.361L133.291 146.346L132.999 146.336C132.901 146.334 132.801 146.333 132.702 146.333L132.552 146.334C132.503 146.335 132.453 146.335 132.404 146.336L132.112 146.346L131.827 146.361C131.732 146.366 131.639 146.373 131.548 146.381L131.276 146.406L131.013 146.435L130.759 146.469C130.717 146.475 130.676 146.481 130.635 146.487L130.396 146.527L130.168 146.569C130.093 146.584 130.021 146.599 129.951 146.615L129.746 146.662C129.713 146.67 129.681 146.679 129.649 146.687L129.464 146.738C129.405 146.755 129.348 146.772 129.293 146.79L129.138 146.843C129.088 146.861 129.041 146.879 128.997 146.897L128.874 146.952C128.643 147.06 128.514 147.169 128.514 147.264C128.514 147.359 128.643 147.468 128.874 147.576L128.997 147.631C129.063 147.658 129.136 147.685 129.214 147.712L129.377 147.764C129.405 147.773 129.434 147.782 129.464 147.79L129.649 147.841C129.713 147.858 129.779 147.874 129.847 147.89L130.058 147.937C130.094 147.944 130.13 147.952 130.168 147.959L130.396 148.001C130.435 148.008 130.474 148.015 130.514 148.021L130.759 148.059L131.013 148.093L131.276 148.122L131.548 148.147C131.639 148.155 131.732 148.162 131.827 148.168L132.112 148.182L132.404 148.192C132.503 148.194 132.602 148.195 132.702 148.195C132.801 148.195 132.901 148.194 132.999 148.192L133.291 148.182L133.577 148.168C133.671 148.162 133.764 148.155 133.856 148.147L134.127 148.122L134.39 148.093L134.644 148.059C134.686 148.053 134.727 148.047 134.768 148.041L135.007 148.001L135.235 147.959C135.31 147.944 135.382 147.929 135.452 147.914L135.657 147.866C135.69 147.858 135.722 147.849 135.754 147.841L135.939 147.79C135.998 147.773 136.055 147.756 136.11 147.738L136.266 147.685C136.315 147.667 136.362 147.649 136.406 147.631L136.53 147.576C136.76 147.468 136.889 147.359 136.889 147.264C136.889 147.188 136.807 147.103 136.656 147.017ZM136.889 149.391V148.402C136.413 148.643 135.777 148.828 135.034 148.95L134.768 148.991C134.723 148.997 134.677 149.003 134.632 149.009L134.353 149.042C134.212 149.057 134.068 149.07 133.922 149.081L133.625 149.1L133.323 149.114C133.272 149.116 133.221 149.117 133.17 149.119L132.859 149.124L132.702 149.125C132.649 149.125 132.596 149.125 132.544 149.124L132.233 149.119C132.182 149.117 132.131 149.116 132.08 149.114L131.778 149.1L131.481 149.081C131.335 149.07 131.191 149.057 131.05 149.042L130.771 149.009C130.68 148.997 130.59 148.984 130.501 148.971L130.239 148.928C129.552 148.806 128.962 148.629 128.514 148.402V149.391C128.514 149.555 128.866 149.84 129.562 150.079C130.377 150.358 131.499 150.521 132.702 150.521C133.904 150.521 135.026 150.358 135.841 150.079C136.499 149.853 136.849 149.586 136.886 149.419L136.889 149.391ZM147.59 144.472C150.16 144.472 152.243 146.555 152.243 149.125C152.243 151.695 150.16 153.778 147.59 153.778C145.021 153.778 142.938 151.695 142.938 149.125C142.938 146.555 145.021 144.472 147.59 144.472Z" fill="#BEBDBD"/>
<path d="M150.578 142.654C150.345 142.546 150.068 142.647 149.96 142.881C149.852 143.114 149.953 143.39 150.186 143.498C152.273 144.467 153.639 146.498 153.639 148.66C153.639 148.917 153.847 149.125 154.104 149.125C154.361 149.125 154.57 148.917 154.57 148.66C154.57 146.127 152.986 143.772 150.578 142.654Z" fill="#BEBDBD"/>
<rect x="72" y="294.292" width="138.653" height="27.9167" rx="13.9583" fill="black"/>
<rect x="19" y="194.722" width="244.736" height="27.9167" rx="13.9583" fill="#D1D1D1"/>
<rect x="94" y="326.861" width="93.9861" height="27.9167" rx="13.9583" fill="#D1D1D1"/>
<path d="M59.7541 238.339C59.7541 239.981 60.8819 241.376 62.6462 241.376C63.4837 241.376 64.1426 241.053 64.6451 240.483V241.153H65.5942V232.778H64.6451V236.195C64.1426 235.626 63.4837 235.302 62.6462 235.302C60.8819 235.302 59.7541 236.698 59.7541 238.339ZM60.7591 238.339C60.7591 237.144 61.5631 236.195 62.7579 236.195C63.5284 236.195 64.2096 236.564 64.6451 237.234V239.445C64.2319 240.103 63.5396 240.483 62.7579 240.483C61.5631 240.483 60.7591 239.534 60.7591 238.339ZM70.4538 234.632L71.7603 232.778H70.6883L69.5269 234.632H70.4538ZM72.5978 240.226L71.8943 239.679C71.5258 240.182 70.9116 240.517 70.1858 240.517C68.9798 240.517 68.1199 239.701 68.0864 238.35H72.4079C72.4414 238.194 72.4749 237.982 72.4749 237.758C72.4749 236.374 71.4811 235.302 69.9513 235.302C68.2093 235.302 67.1149 236.631 67.1149 238.339C67.1149 239.981 68.2874 241.376 70.1858 241.376C71.2354 241.376 72.0729 240.93 72.5978 240.226ZM69.9289 236.106C70.9228 236.106 71.4923 236.798 71.5258 237.624H68.1534C68.3544 236.653 69.0021 236.106 69.9289 236.106ZM76.6524 240.483C75.4352 240.483 74.5754 239.545 74.5754 238.339C74.5754 237.144 75.4352 236.195 76.6412 236.195C77.3447 236.195 77.9142 236.53 78.2604 237.021L79.0086 236.452C78.4837 235.76 77.6574 235.302 76.6412 235.302C74.7764 235.302 73.5816 236.698 73.5816 238.339C73.5816 239.981 74.7764 241.376 76.6412 241.376C77.6686 241.376 78.4837 240.93 79.0086 240.226L78.2604 239.657C77.9142 240.148 77.3447 240.483 76.6524 240.483ZM80.3103 241.153H81.2594V232.778H80.3103V241.153ZM84.7953 241.309C85.5212 241.309 86.2582 240.986 86.6825 240.438V241.153H87.6317V237.379C87.6317 236.139 86.783 235.302 85.3537 235.302C84.371 235.302 83.5782 235.715 83.0868 236.385L83.8015 236.932C84.1477 236.452 84.6725 236.15 85.3202 236.15C86.1242 236.15 86.6825 236.597 86.6825 237.379V237.77L84.7842 238.082C83.5893 238.283 82.9417 238.886 82.9417 239.735C82.9417 240.695 83.6898 241.309 84.7953 241.309ZM83.902 239.701C83.902 239.221 84.2482 238.875 85.0187 238.741L86.6825 238.462V239.567C86.314 240.17 85.6998 240.528 84.9517 240.528C84.2928 240.528 83.902 240.182 83.902 239.701ZM89.5358 241.153H90.485V237.289C90.8312 236.72 91.3113 236.34 92.0483 236.34C92.2717 236.34 92.4392 236.363 92.6067 236.407V235.48C92.4727 235.436 92.3052 235.413 92.1265 235.413C91.4118 235.413 90.8982 235.737 90.485 236.229V235.525H89.5358V241.153ZM98.6388 240.226L97.9353 239.679C97.5668 240.182 96.9526 240.517 96.2268 240.517C95.0208 240.517 94.1609 239.701 94.1274 238.35H98.4489C98.4824 238.194 98.5159 237.982 98.5159 237.758C98.5159 236.374 97.5221 235.302 95.9923 235.302C94.2503 235.302 93.1559 236.631 93.1559 238.339C93.1559 239.981 94.3284 241.376 96.2268 241.376C97.2764 241.376 98.1139 240.93 98.6388 240.226ZM95.9699 236.106C96.9638 236.106 97.5333 236.798 97.5668 237.624H94.1944C94.3954 236.653 95.0431 236.106 95.9699 236.106ZM100.125 241.153H101.074V237.256C101.431 236.664 101.945 236.195 102.76 236.195C103.631 236.195 104.2 236.776 104.2 237.781V241.153H105.15V237.747C105.15 236.15 104.212 235.302 102.95 235.302C102.112 235.302 101.532 235.659 101.074 236.162V235.525H100.125V241.153ZM107.384 239.266C107.384 240.639 108.087 241.265 109.338 241.265C109.74 241.265 110.042 241.22 110.31 241.108V240.26C110.097 240.349 109.841 240.394 109.472 240.394C108.791 240.394 108.344 240.148 108.344 239.266V236.385H110.298V235.525H108.344V234.118H107.384V235.525H106.323V236.385H107.384V239.266ZM113.91 235.525L116.11 241.153H117.361L119.561 235.525H118.533L116.735 240.159L114.938 235.525H113.91ZM121.204 234.062C121.573 234.062 121.863 233.761 121.863 233.392C121.863 233.035 121.573 232.733 121.204 232.733C120.836 232.733 120.534 233.035 120.534 233.392C120.534 233.761 120.836 234.062 121.204 234.062ZM120.724 241.153H121.673V235.525H120.724V241.153ZM122.831 235.525L125.03 241.153H126.281L128.481 235.525H127.454L125.656 240.159L123.858 235.525H122.831ZM129.644 241.153H130.593V237.289C130.94 236.72 131.42 236.34 132.157 236.34C132.38 236.34 132.548 236.363 132.715 236.407V235.48C132.581 235.436 132.414 235.413 132.235 235.413C131.52 235.413 131.007 235.737 130.593 236.229V235.525H129.644V241.153ZM138.747 240.226L138.044 239.679C137.675 240.182 137.061 240.517 136.335 240.517C135.129 240.517 134.269 239.701 134.236 238.35H138.557C138.591 238.194 138.624 237.982 138.624 237.758C138.624 236.374 137.631 235.302 136.101 235.302C134.359 235.302 133.264 236.631 133.264 238.339C133.264 239.981 134.437 241.376 136.335 241.376C137.385 241.376 138.222 240.93 138.747 240.226ZM136.078 236.106C137.072 236.106 137.642 236.798 137.675 237.624H134.303C134.504 236.653 135.152 236.106 136.078 236.106ZM142.763 238.339C142.763 239.981 143.89 241.376 145.655 241.376C146.492 241.376 147.151 241.053 147.654 240.483V241.153H148.603V232.778H147.654V236.195C147.151 235.626 146.492 235.302 145.655 235.302C143.89 235.302 142.763 236.698 142.763 238.339ZM143.768 238.339C143.768 237.144 144.572 236.195 145.766 236.195C146.537 236.195 147.218 236.564 147.654 237.234V239.445C147.24 240.103 146.548 240.483 145.766 240.483C144.572 240.483 143.768 239.534 143.768 238.339ZM155.606 240.226L154.903 239.679C154.534 240.182 153.92 240.517 153.194 240.517C151.988 240.517 151.128 239.701 151.095 238.35H155.416C155.45 238.194 155.483 237.982 155.483 237.758C155.483 236.374 154.49 235.302 152.96 235.302C151.218 235.302 150.123 236.631 150.123 238.339C150.123 239.981 151.296 241.376 153.194 241.376C154.244 241.376 155.081 240.93 155.606 240.226ZM152.937 236.106C153.931 236.106 154.501 236.798 154.534 237.624H151.162C151.363 236.653 152.011 236.106 152.937 236.106ZM160.102 241.153H161.051V232.778H160.102V241.153ZM168.06 240.226L167.356 239.679C166.988 240.182 166.374 240.517 165.648 240.517C164.442 240.517 163.582 239.701 163.548 238.35H167.87C167.903 238.194 167.937 237.982 167.937 237.758C167.937 236.374 166.943 235.302 165.413 235.302C163.671 235.302 162.577 236.631 162.577 238.339C162.577 239.981 163.749 241.376 165.648 241.376C166.697 241.376 167.535 240.93 168.06 240.226ZM165.391 236.106C166.385 236.106 166.954 236.798 166.988 237.624H163.615C163.816 236.653 164.464 236.106 165.391 236.106ZM173.378 238.741C173.378 239.847 172.775 240.483 171.837 240.483C170.876 240.483 170.285 239.847 170.285 238.741V235.525H169.335V238.708C169.335 240.394 170.307 241.376 171.826 241.376C173.355 241.376 174.327 240.394 174.327 238.708V235.525H173.378V238.741ZM176.197 241.153H177.147V237.289C177.493 236.72 177.973 236.34 178.71 236.34C178.933 236.34 179.101 236.363 179.268 236.407V235.48C179.134 235.436 178.967 235.413 178.788 235.413C178.073 235.413 177.56 235.737 177.147 236.229V235.525H176.197V241.153ZM185.175 241.309C185.901 241.309 186.638 240.986 187.063 240.438V241.153H188.012V237.379C188.012 236.139 187.163 235.302 185.734 235.302C184.751 235.302 183.958 235.715 183.467 236.385L184.182 236.932C184.528 236.452 185.053 236.15 185.7 236.15C186.504 236.15 187.063 236.597 187.063 237.379V237.77L185.164 238.082C183.969 238.283 183.322 238.886 183.322 239.735C183.322 240.695 184.07 241.309 185.175 241.309ZM184.282 239.701C184.282 239.221 184.628 238.875 185.399 238.741L187.063 238.462V239.567C186.694 240.17 186.08 240.528 185.332 240.528C184.673 240.528 184.282 240.182 184.282 239.701ZM192.507 240.483C191.289 240.483 190.43 239.545 190.43 238.339C190.43 237.144 191.289 236.195 192.495 236.195C193.199 236.195 193.768 236.53 194.115 237.021L194.863 236.452C194.338 235.76 193.512 235.302 192.495 235.302C190.631 235.302 189.436 236.698 189.436 238.339C189.436 239.981 190.631 241.376 192.495 241.376C193.523 241.376 194.338 240.93 194.863 240.226L194.115 239.657C193.768 240.148 193.199 240.483 192.507 240.483ZM196.466 239.266C196.466 240.639 197.17 241.265 198.421 241.265C198.823 241.265 199.124 241.22 199.392 241.108V240.26C199.18 240.349 198.923 240.394 198.555 240.394C197.873 240.394 197.427 240.148 197.427 239.266V236.385H199.381V235.525H197.427V234.118H196.466V235.525H195.406V236.385H196.466V239.266ZM201.312 234.062C201.68 234.062 201.971 233.761 201.971 233.392C201.971 233.035 201.68 232.733 201.312 232.733C200.943 232.733 200.642 233.035 200.642 233.392C200.642 233.761 200.943 234.062 201.312 234.062ZM200.832 241.153H201.781V235.525H200.832V241.153ZM202.938 235.525L205.138 241.153H206.389L208.589 235.525H207.561L205.763 240.159L203.966 235.525H202.938ZM210.232 234.062C210.601 234.062 210.891 233.761 210.891 233.392C210.891 233.035 210.601 232.733 210.232 232.733C209.864 232.733 209.562 233.035 209.562 233.392C209.562 233.761 209.864 234.062 210.232 234.062ZM209.752 241.153H210.701V235.525H209.752V241.153ZM213.031 239.266C213.031 240.639 213.735 241.265 214.985 241.265C215.387 241.265 215.689 241.22 215.957 241.108V240.26C215.745 240.349 215.488 240.394 215.119 240.394C214.438 240.394 213.991 240.148 213.991 239.266V236.385H215.946V235.525H213.991V234.118H213.031V235.525H211.97V236.385H213.031V239.266ZM220.146 234.632L221.452 232.778H220.38L219.219 234.632H220.146ZM222.29 240.226L221.586 239.679C221.218 240.182 220.604 240.517 219.878 240.517C218.672 240.517 217.812 239.701 217.779 238.35H222.1C222.134 238.194 222.167 237.982 222.167 237.758C222.167 236.374 221.173 235.302 219.643 235.302C217.901 235.302 216.807 236.631 216.807 238.339C216.807 239.981 217.98 241.376 219.878 241.376C220.928 241.376 221.765 240.93 222.29 240.226ZM219.621 236.106C220.615 236.106 221.184 236.798 221.218 237.624H217.846C218.047 236.653 218.694 236.106 219.621 236.106Z" fill="black"/>
<path d="M91.8806 366.107C90.0605 366.107 88.8321 367.503 88.8321 369.144C88.8321 370.786 90.0605 372.182 91.8806 372.182C93.6896 372.182 94.9291 370.786 94.9291 369.144C94.9291 367.503 93.6896 366.107 91.8806 366.107ZM91.8918 371.288C90.6858 371.288 89.826 370.317 89.826 369.144C89.826 367.972 90.6858 367 91.8918 367C93.0643 367 93.9241 367.972 93.9241 369.144C93.9241 370.306 93.0643 371.288 91.8918 371.288ZM96.455 371.958H97.4042V368.061C97.7615 367.469 98.2752 367 99.0904 367C99.9614 367 100.531 367.581 100.531 368.586V371.958H101.48V368.552C101.48 366.956 100.542 366.107 99.2802 366.107C98.4427 366.107 97.862 366.464 97.4042 366.967V366.33H96.455V371.958ZM103.714 370.071C103.714 371.445 104.418 372.07 105.669 372.07C106.071 372.07 106.372 372.025 106.64 371.914V371.065C106.428 371.154 106.171 371.199 105.803 371.199C105.121 371.199 104.675 370.953 104.675 370.071V367.19H106.629V366.33H104.675V364.923H103.714V366.33H102.654V367.19H103.714V370.071ZM115.009 369.546C115.009 370.652 114.406 371.288 113.468 371.288C112.508 371.288 111.916 370.652 111.916 369.546V366.33H110.967V369.513C110.967 371.199 111.938 372.182 113.457 372.182C114.987 372.182 115.958 371.199 115.958 369.513V366.33H115.009V369.546ZM117.829 371.958H118.778V368.061C119.135 367.469 119.649 367 120.464 367C121.335 367 121.905 367.581 121.905 368.586V371.958H122.854V368.552C122.854 366.956 121.916 366.107 120.654 366.107C119.816 366.107 119.236 366.464 118.778 366.967V366.33H117.829V371.958ZM129.304 372.115C130.03 372.115 130.767 371.791 131.191 371.244V371.958H132.14V368.184C132.14 366.944 131.292 366.107 129.862 366.107C128.88 366.107 128.087 366.52 127.595 367.19L128.31 367.737C128.656 367.257 129.181 366.956 129.829 366.956C130.633 366.956 131.191 367.402 131.191 368.184V368.575L129.293 368.887C128.098 369.088 127.45 369.691 127.45 370.54C127.45 371.5 128.198 372.115 129.304 372.115ZM128.411 370.507C128.411 370.026 128.757 369.68 129.527 369.546L131.191 369.267V370.373C130.823 370.976 130.208 371.333 129.46 371.333C128.801 371.333 128.411 370.987 128.411 370.507ZM137.964 369.546C137.964 370.652 137.361 371.288 136.423 371.288C135.463 371.288 134.871 370.652 134.871 369.546V366.33H133.922V369.513C133.922 371.199 134.893 372.182 136.412 372.182C137.942 372.182 138.913 371.199 138.913 369.513V366.33H137.964V369.546ZM141.151 370.071C141.151 371.445 141.855 372.07 143.105 372.07C143.507 372.07 143.809 372.025 144.077 371.914V371.065C143.865 371.154 143.608 371.199 143.239 371.199C142.558 371.199 142.111 370.953 142.111 370.071V367.19H144.066V366.33H142.111V364.923H141.151V366.33H140.09V367.19H141.151V370.071ZM145.516 371.958H146.466V368.095C146.812 367.525 147.292 367.145 148.029 367.145C148.252 367.145 148.42 367.168 148.587 367.212V366.286C148.453 366.241 148.286 366.219 148.107 366.219C147.392 366.219 146.879 366.542 146.466 367.034V366.33H145.516V371.958ZM154.619 371.031L153.916 370.484C153.547 370.987 152.933 371.322 152.207 371.322C151.001 371.322 150.141 370.507 150.108 369.155H154.429C154.463 368.999 154.496 368.787 154.496 368.564C154.496 367.179 153.503 366.107 151.973 366.107C150.231 366.107 149.136 367.436 149.136 369.144C149.136 370.786 150.309 372.182 152.207 372.182C153.257 372.182 154.094 371.735 154.619 371.031ZM151.95 366.911C152.944 366.911 153.514 367.603 153.547 368.43H150.175C150.376 367.458 151.024 366.911 151.95 366.911ZM159.115 371.958H160.064V368.061C160.388 367.48 160.868 367 161.639 367C162.454 367 162.967 367.536 162.967 368.474V371.958H163.917V368.441C163.917 368.307 163.905 368.184 163.894 368.061C164.263 367.402 164.765 367 165.48 367C166.284 367 166.809 367.536 166.809 368.474V371.958H167.758V368.441C167.758 366.911 166.876 366.107 165.67 366.107C164.698 366.107 164.106 366.576 163.66 367.19C163.314 366.475 162.644 366.107 161.828 366.107C161.047 366.107 160.488 366.453 160.064 366.944V366.33H159.115V371.958ZM172.53 365.437L173.836 363.583H172.764L171.603 365.437H172.53ZM174.674 371.031L173.97 370.484C173.602 370.987 172.987 371.322 172.262 371.322C171.056 371.322 170.196 370.507 170.162 369.155H174.484C174.517 368.999 174.551 368.787 174.551 368.564C174.551 367.179 173.557 366.107 172.027 366.107C170.285 366.107 169.191 367.436 169.191 369.144C169.191 370.786 170.363 372.182 172.262 372.182C173.311 372.182 174.149 371.735 174.674 371.031ZM172.005 366.911C172.999 366.911 173.568 367.603 173.602 368.43H170.229C170.43 367.458 171.078 366.911 172.005 366.911ZM176.45 370.071C176.45 371.445 177.154 372.07 178.405 372.07C178.807 372.07 179.108 372.025 179.376 371.914V371.065C179.164 371.154 178.907 371.199 178.539 371.199C177.857 371.199 177.411 370.953 177.411 370.071V367.19H179.365V366.33H177.411V364.923H176.45V366.33H175.39V367.19H176.45V370.071ZM181.296 364.867C181.664 364.867 181.955 364.566 181.955 364.197C181.955 363.84 181.664 363.539 181.296 363.539C180.927 363.539 180.626 363.84 180.626 364.197C180.626 364.566 180.927 364.867 181.296 364.867ZM180.816 371.958H181.765V366.33H180.816V371.958ZM188.774 371.031L188.07 370.484C187.702 370.987 187.087 371.322 186.362 371.322C185.156 371.322 184.296 370.507 184.262 369.155H188.584C188.617 368.999 188.651 368.787 188.651 368.564C188.651 367.179 187.657 366.107 186.127 366.107C184.385 366.107 183.291 367.436 183.291 369.144C183.291 370.786 184.463 372.182 186.362 372.182C187.411 372.182 188.249 371.735 188.774 371.031ZM186.105 366.911C187.099 366.911 187.668 367.603 187.702 368.43H184.329C184.53 367.458 185.178 366.911 186.105 366.911ZM190.259 371.958H191.209V368.095C191.555 367.525 192.035 367.145 192.772 367.145C192.995 367.145 193.163 367.168 193.33 367.212V366.286C193.196 366.241 193.029 366.219 192.85 366.219C192.135 366.219 191.622 366.542 191.209 367.034V366.33H190.259V371.958Z" fill="black"/>
<path d="M136.57 256.679C136.025 256.498 135.463 256.648 134.905 257.08L134.876 257.103L134.792 257.098C134.005 257.061 133.373 257.236 132.917 257.641L132.839 257.714C132.338 258.212 132.28 258.912 132.602 259.756L132.652 259.881L132.41 260.361L132.336 260.366C131.127 260.462 130.42 261.053 130.377 262.101L130.375 262.204C130.375 263.246 131.002 263.862 132.109 264.017L132.236 264.032V264.514C132.236 264.753 132.416 264.95 132.647 264.977L132.701 264.98C132.94 264.98 133.137 264.8 133.164 264.569L133.167 264.514V263.59C133.167 263.333 132.958 263.125 132.701 263.125C131.693 263.125 131.306 262.836 131.306 262.204C131.306 261.571 131.693 261.283 132.701 261.283C132.858 261.283 133.002 261.204 133.088 261.077L133.117 261.027L133.582 260.102C133.647 259.974 133.649 259.823 133.587 259.693C133.264 259.015 133.264 258.604 133.495 258.375C133.781 258.091 134.264 257.97 134.979 258.045C135.109 258.059 135.239 258.017 135.337 257.93C135.73 257.582 136.033 257.481 136.277 257.562C136.568 257.658 136.778 257.867 136.924 258.222C137.022 258.459 137.293 258.573 137.531 258.475C137.769 258.377 137.882 258.105 137.784 257.868C137.539 257.271 137.129 256.864 136.57 256.679Z" fill="black"/>
<path d="M131.309 279.218C131.346 278.788 131.729 278.473 132.17 278.473H133.632L133.686 278.476C133.918 278.503 134.097 278.699 134.097 278.938L134.094 278.992C134.067 279.224 133.871 279.403 133.632 279.403H132.236V281.264H133.632L133.686 281.268C133.918 281.294 134.097 281.491 134.097 281.73C134.097 281.987 133.889 282.195 133.632 282.195H132.17L132.101 282.192C131.666 282.16 131.306 281.822 131.306 281.381V279.287L131.309 279.218Z" fill="black"/>
<path d="M139.678 279.218C139.641 278.788 139.258 278.473 138.817 278.473H137.354L137.3 278.476C137.069 278.503 136.889 278.699 136.889 278.938L136.892 278.992C136.919 279.224 137.116 279.403 137.354 279.403H138.75V281.264H137.354L137.3 281.268C137.069 281.294 136.889 281.491 136.889 281.73C136.889 281.987 137.097 282.195 137.354 282.195H138.817L138.886 282.192C139.32 282.16 139.681 281.822 139.681 281.381V279.287L139.678 279.218Z" fill="black"/>
<path d="M142.09 257.5C142.307 256.905 142.943 256.605 143.868 256.605L143.975 256.607C144.921 256.64 145.52 257.121 145.684 257.962L145.69 258.001H146.195L146.33 258.002C148.021 258.032 148.986 258.643 148.986 259.862L148.984 259.957C148.939 261.018 148.126 261.594 146.716 261.703L146.593 261.712L146.577 261.758C146.36 262.353 145.725 262.653 144.799 262.653L144.682 262.653C144.221 262.646 143.843 262.603 143.555 262.504L143.502 262.587C143.068 263.24 142.403 263.584 141.542 263.584L141.426 263.582C140.698 263.555 140.117 263.273 139.705 262.756L139.673 262.803C139.319 263.311 138.856 263.584 138.285 263.584L138.149 263.582C137.791 263.569 137.472 263.508 137.194 263.396L137.185 263.392L136.875 264.627L136.859 264.679C136.777 264.897 136.542 265.024 136.311 264.966C136.062 264.903 135.91 264.651 135.972 264.402L136.438 262.54L136.454 262.487C136.571 262.178 136.976 262.082 137.218 262.324L137.27 262.372C137.486 262.555 137.818 262.653 138.285 262.653C138.669 262.653 138.986 262.336 139.239 261.576C139.381 261.151 139.981 261.151 140.122 261.576C140.37 262.319 140.815 262.653 141.542 262.653C142.269 262.653 142.714 262.319 142.962 261.576L142.982 261.524C143.158 261.133 143.721 261.192 143.844 261.567L143.857 261.614L143.884 261.625L143.956 261.647C144.137 261.695 144.421 261.723 144.799 261.723C145.503 261.723 145.729 261.572 145.729 261.257C145.729 261.001 145.938 260.792 146.195 260.792C147.522 260.792 148.056 260.472 148.056 259.862C148.056 259.251 147.522 258.931 146.195 258.931H145.264L145.21 258.928C144.978 258.901 144.799 258.704 144.799 258.466C144.799 257.792 144.542 257.535 143.868 257.535C143.164 257.535 142.938 257.686 142.938 258.001L142.935 258.055C142.908 258.286 142.711 258.466 142.472 258.466C141.769 258.466 141.542 258.617 141.542 258.931L141.539 258.985C141.512 259.217 141.315 259.396 141.077 259.396C140.82 259.396 140.611 259.188 140.611 258.931L140.614 258.84C140.653 258.093 141.174 257.664 142.034 257.56L142.071 257.556L142.09 257.5Z" fill="black"/>
<path fill-rule="evenodd" clip-rule="evenodd" d="M137.354 264.049H131.771C131.514 264.049 131.306 264.258 131.306 264.514V265.91C131.306 266.423 131.721 266.839 132.233 266.841L131.354 274.751H128.514C128.023 274.751 127.621 275.13 127.586 275.612L127.583 275.681V276.612C127.583 277.102 127.963 277.504 128.444 277.54L128.514 277.542V284.987H127.118L127.064 284.99C126.832 285.017 126.653 285.213 126.653 285.452C126.653 285.709 126.861 285.917 127.118 285.917H144.799L144.853 285.914C145.084 285.887 145.264 285.691 145.264 285.452C145.264 285.195 145.056 284.987 144.799 284.987H142.472V272.889H150.847V274.751H146.66L146.606 274.754C146.374 274.781 146.194 274.977 146.194 275.216C146.194 275.473 146.403 275.681 146.66 275.681H150.847V277.077L150.85 277.131C150.877 277.363 151.074 277.542 151.313 277.542C151.57 277.542 151.778 277.334 151.778 277.077V272.889H152.708C153.222 272.889 153.639 272.473 153.639 271.959V271.028C153.639 270.514 153.222 270.098 152.708 270.098H151.731C151.522 269.068 150.633 268.285 149.552 268.239L149.451 268.237H143.868C142.743 268.237 141.804 269.036 141.588 270.098H140.611C140.097 270.098 139.681 270.514 139.681 271.028V271.959C139.681 272.473 140.097 272.889 140.611 272.889H141.542V274.751H132.291L133.164 266.892L133.167 266.841H135.958C135.958 266.858 135.959 266.875 135.961 266.892L136.111 268.237H134.563L134.508 268.24C134.277 268.267 134.097 268.463 134.097 268.702C134.097 268.959 134.306 269.167 134.563 269.167H136.214L136.317 270.098H135.493L135.439 270.101C135.207 270.128 135.028 270.324 135.028 270.563C135.028 270.82 135.236 271.028 135.493 271.028H136.421L136.685 273.402L136.694 273.456C136.746 273.683 136.961 273.839 137.198 273.813C137.454 273.785 137.638 273.555 137.609 273.299L136.892 266.841C137.404 266.839 137.819 266.423 137.819 265.91V264.514C137.819 264.258 137.611 264.049 137.354 264.049ZM149.451 269.167C150.059 269.167 150.576 269.556 150.768 270.098H142.552C142.735 269.58 143.214 269.203 143.786 269.17L143.868 269.167H149.451ZM140.611 271.028V271.959H152.708V271.028H140.611ZM131.765 275.681C131.769 275.681 131.774 275.681 131.778 275.681H141.542V283.126H141.076L141.022 283.129C140.791 283.156 140.611 283.352 140.611 283.591C140.611 283.848 140.819 284.056 141.076 284.056H141.542V284.987H129.444V284.056H139.215L139.27 284.053C139.501 284.026 139.681 283.829 139.681 283.591C139.681 283.334 139.472 283.126 139.215 283.126H129.444V277.542H139.215C139.472 277.542 139.681 277.334 139.681 277.077C139.681 276.838 139.501 276.642 139.27 276.615L139.215 276.612H128.514V275.681H131.765ZM136.889 264.98H132.236V265.91H136.889V264.98Z" fill="black"/>
<path d="M154.569 285.452C154.569 285.195 154.361 284.987 154.104 284.987H151.778V278.938L151.775 278.884C151.748 278.652 151.551 278.473 151.313 278.473C151.056 278.473 150.847 278.681 150.847 278.938V280.334H146.66L146.606 280.337C146.374 280.364 146.194 280.561 146.194 280.799C146.194 281.056 146.403 281.264 146.66 281.264H150.847V284.987H147.59L147.536 284.99C147.305 285.017 147.125 285.213 147.125 285.452C147.125 285.709 147.333 285.917 147.59 285.917H154.104L154.158 285.914C154.39 285.887 154.569 285.691 154.569 285.452Z" fill="black"/>
<path d="M149.451 286.848C149.708 286.848 149.917 287.056 149.917 287.313C149.917 287.552 149.737 287.748 149.506 287.775L149.451 287.778H130.84C130.583 287.778 130.375 287.57 130.375 287.313C130.375 287.074 130.555 286.878 130.786 286.851L130.84 286.848H149.451Z" fill="black"/>
<path d="M147.125 277.077C147.125 276.82 146.917 276.612 146.66 276.612H143.868L143.814 276.615C143.582 276.642 143.403 276.838 143.403 277.077C143.403 277.334 143.611 277.542 143.868 277.542H146.66L146.714 277.539C146.945 277.512 147.125 277.316 147.125 277.077Z" fill="black"/>
<rect x="53" y="162.153" width="176.806" height="27.9167" rx="13.9583" fill="black"/>
<path d="M96.5887 204.724C94.9472 204.724 94.0427 205.684 94.0427 206.801C94.0427 207.549 94.4223 208.163 95.1482 208.498C94.199 208.867 93.6853 209.615 93.6853 210.587C93.6853 211.949 94.7462 212.987 96.5887 212.987C98.4423 212.987 99.492 211.949 99.492 210.587C99.492 209.615 98.9783 208.867 98.0403 208.498C98.755 208.163 99.1347 207.549 99.1347 206.801C99.1347 205.684 98.2413 204.724 96.5887 204.724ZM96.611 208.041C95.8182 208.041 95.3045 207.594 95.3045 206.913C95.3045 206.243 95.807 205.785 96.611 205.785C97.3592 205.785 97.8728 206.243 97.8728 206.913C97.8728 207.594 97.3592 208.041 96.611 208.041ZM96.5998 211.915C95.5948 211.915 94.9472 211.368 94.9472 210.531C94.9472 209.682 95.5948 209.09 96.5998 209.09C97.5825 209.09 98.2302 209.682 98.2302 210.531C98.2302 211.357 97.5825 211.915 96.5998 211.915ZM102.027 212.764L105.969 206.053V204.947H100.453V206.053H104.663L100.62 212.764H102.027ZM111.722 204.702C110.583 204.702 109.823 205.539 109.823 206.567C109.823 207.594 110.583 208.431 111.722 208.431C112.838 208.431 113.609 207.594 113.609 206.567C113.609 205.539 112.838 204.702 111.722 204.702ZM110.572 212.753H111.766L117.495 204.936H116.3L110.572 212.753ZM111.722 207.639C111.13 207.639 110.706 207.181 110.706 206.567C110.706 205.952 111.13 205.495 111.722 205.495C112.302 205.495 112.727 205.952 112.727 206.567C112.727 207.17 112.302 207.639 111.722 207.639ZM116.367 209.247C115.228 209.247 114.469 210.084 114.469 211.111C114.469 212.139 115.228 212.976 116.367 212.976C117.484 212.976 118.254 212.139 118.254 211.111C118.254 210.084 117.484 209.247 116.367 209.247ZM116.367 212.183C115.775 212.183 115.351 211.726 115.351 211.111C115.351 210.497 115.775 210.039 116.367 210.039C116.948 210.039 117.372 210.497 117.372 211.111C117.372 211.714 116.948 212.183 116.367 212.183ZM122.159 209.95C122.159 211.592 123.265 212.987 125.04 212.987C125.844 212.987 126.447 212.697 126.916 212.195V212.764H128.089V204.389H126.916V207.706C126.447 207.203 125.844 206.913 125.04 206.913C123.265 206.913 122.159 208.309 122.159 209.95ZM123.376 209.95C123.376 208.845 124.102 207.996 125.185 207.996C125.889 207.996 126.503 208.32 126.916 208.934V210.966C126.537 211.558 125.911 211.904 125.185 211.904C124.102 211.904 123.376 211.056 123.376 209.95ZM135.026 211.848L134.188 211.178C133.842 211.647 133.273 211.949 132.591 211.949C131.508 211.949 130.76 211.312 130.682 210.084H134.836C134.881 209.917 134.914 209.66 134.914 209.403C134.914 207.974 133.909 206.913 132.357 206.913C130.57 206.913 129.498 208.264 129.498 209.95C129.498 211.592 130.648 212.987 132.591 212.987C133.641 212.987 134.501 212.552 135.026 211.848ZM132.335 207.873C133.239 207.873 133.742 208.521 133.764 209.224H130.738C130.916 208.353 131.497 207.873 132.335 207.873ZM135.799 211.971C136.324 212.608 137.027 212.987 137.976 212.987C139.026 212.987 139.919 212.329 139.93 211.223C139.93 209.291 137.172 209.671 137.172 208.543C137.172 208.163 137.44 207.851 137.976 207.851C138.445 207.851 138.836 208.13 139.138 208.532L139.919 207.851C139.517 207.315 138.791 206.913 137.965 206.913C136.837 206.913 136.056 207.65 136.056 208.577C136.056 210.564 138.814 210.151 138.814 211.29C138.814 211.714 138.512 212.049 137.965 212.049C137.407 212.049 136.96 211.748 136.592 211.279L135.799 211.971ZM144.383 212.764H145.533V208.967C145.835 208.476 146.281 207.996 147.052 207.996C147.856 207.996 148.347 208.532 148.347 209.425V212.764H149.509V209.381C149.509 207.75 148.571 206.913 147.32 206.913C146.516 206.913 145.958 207.237 145.533 207.683V204.389H144.383V212.764ZM153.91 206.913C152.09 206.913 150.85 208.286 150.85 209.95C150.85 211.614 152.09 212.987 153.91 212.987C155.741 212.987 156.969 211.614 156.969 209.95C156.969 208.286 155.741 206.913 153.91 206.913ZM153.921 211.904C152.838 211.904 152.056 211.033 152.056 209.95C152.056 208.867 152.838 207.996 153.921 207.996C154.982 207.996 155.763 208.856 155.763 209.95C155.763 211.022 154.982 211.904 153.921 211.904ZM158.407 212.764H159.557V208.967C159.825 208.487 160.249 207.996 160.964 207.996C161.701 207.996 162.148 208.487 162.148 209.314V212.764H163.309V209.269C163.309 209.157 163.309 209.057 163.298 208.956C163.599 208.42 164.035 207.996 164.705 207.996C165.431 207.996 165.888 208.487 165.888 209.314V212.764H167.05V209.269C167.05 207.717 166.145 206.913 164.973 206.913C164.001 206.913 163.443 207.371 163.007 207.929C162.65 207.259 162.002 206.913 161.232 206.913C160.484 206.913 159.959 207.225 159.557 207.661V207.136H158.407V212.764ZM168.832 212.764H169.982V208.967C170.25 208.487 170.674 207.996 171.389 207.996C172.126 207.996 172.573 208.487 172.573 209.314V212.764H173.734V209.269C173.734 209.157 173.734 209.057 173.723 208.956C174.024 208.42 174.46 207.996 175.13 207.996C175.856 207.996 176.314 208.487 176.314 209.314V212.764H177.475V209.269C177.475 207.717 176.57 206.913 175.398 206.913C174.426 206.913 173.868 207.371 173.433 207.929C173.075 207.259 172.428 206.913 171.657 206.913C170.909 206.913 170.384 207.225 169.982 207.661V207.136H168.832V212.764ZM184.338 211.848L183.5 211.178C183.154 211.647 182.585 211.949 181.904 211.949C180.82 211.949 180.072 211.312 179.994 210.084H184.148C184.193 209.917 184.226 209.66 184.226 209.403C184.226 207.974 183.221 206.913 181.669 206.913C179.882 206.913 178.81 208.264 178.81 209.95C178.81 211.592 179.961 212.987 181.904 212.987C182.953 212.987 183.813 212.552 184.338 211.848ZM181.647 207.873C182.551 207.873 183.054 208.521 183.076 209.224H180.05C180.229 208.353 180.809 207.873 181.647 207.873ZM185.111 211.971C185.636 212.608 186.339 212.987 187.288 212.987C188.338 212.987 189.231 212.329 189.243 211.223C189.243 209.291 186.484 209.671 186.484 208.543C186.484 208.163 186.752 207.851 187.288 207.851C187.757 207.851 188.148 208.13 188.45 208.532L189.231 207.851C188.829 207.315 188.104 206.913 187.277 206.913C186.149 206.913 185.368 207.65 185.368 208.577C185.368 210.564 188.126 210.151 188.126 211.29C188.126 211.714 187.824 212.049 187.277 212.049C186.719 212.049 186.272 211.748 185.904 211.279L185.111 211.971Z" fill="black"/>
<path d="M112.601 344.903H117.905V343.798H114.086L116.129 341.776C117 340.894 117.693 340.09 117.693 339.029C117.693 337.723 116.632 336.863 115.303 336.863C114.019 336.863 113.103 337.488 112.456 338.505L113.461 339.119C113.896 338.393 114.399 337.957 115.191 337.957C115.906 337.957 116.442 338.382 116.442 339.13C116.442 339.867 116.04 340.302 115.258 341.106L112.601 343.798V344.903ZM118.45 342.726H122.224V344.903H123.441V342.726H124.301V341.62H123.441V337.086H121.99L118.45 341.62V342.726ZM119.734 341.62L122.224 338.438V341.62H119.734ZM130.02 336.841C128.881 336.841 128.122 337.678 128.122 338.706C128.122 339.733 128.881 340.57 130.02 340.57C131.137 340.57 131.907 339.733 131.907 338.706C131.907 337.678 131.137 336.841 130.02 336.841ZM128.87 344.892H130.065L135.793 337.075H134.599L128.87 344.892ZM130.02 339.778C129.428 339.778 129.004 339.32 129.004 338.706C129.004 338.091 129.428 337.634 130.02 337.634C130.601 337.634 131.025 338.091 131.025 338.706C131.025 339.309 130.601 339.778 130.02 339.778ZM134.666 341.386C133.527 341.386 132.767 342.223 132.767 343.25C132.767 344.278 133.527 345.115 134.666 345.115C135.782 345.115 136.553 344.278 136.553 343.25C136.553 342.223 135.782 341.386 134.666 341.386ZM134.666 344.322C134.074 344.322 133.649 343.865 133.649 343.25C133.649 342.636 134.074 342.178 134.666 342.178C135.246 342.178 135.671 342.636 135.671 343.25C135.671 343.853 135.246 344.322 134.666 344.322ZM140.458 342.089C140.458 343.731 141.563 345.126 143.339 345.126C144.143 345.126 144.746 344.836 145.215 344.334V344.903H146.387V336.528H145.215V339.845C144.746 339.342 144.143 339.052 143.339 339.052C141.563 339.052 140.458 340.448 140.458 342.089ZM141.675 342.089C141.675 340.984 142.401 340.135 143.484 340.135C144.187 340.135 144.802 340.459 145.215 341.073V343.105C144.835 343.697 144.21 344.043 143.484 344.043C142.401 344.043 141.675 343.195 141.675 342.089ZM153.324 343.987L152.487 343.317C152.141 343.786 151.571 344.088 150.89 344.088C149.807 344.088 149.059 343.451 148.98 342.223H153.134C153.179 342.056 153.213 341.799 153.213 341.542C153.213 340.113 152.208 339.052 150.655 339.052C148.869 339.052 147.797 340.403 147.797 342.089C147.797 343.731 148.947 345.126 150.89 345.126C151.94 345.126 152.799 344.691 153.324 343.987ZM150.633 340.012C151.538 340.012 152.04 340.66 152.062 341.363H149.036C149.215 340.492 149.796 340.012 150.633 340.012ZM154.097 344.11C154.622 344.747 155.326 345.126 156.275 345.126C157.324 345.126 158.218 344.468 158.229 343.362C158.229 341.43 155.471 341.81 155.471 340.682C155.471 340.302 155.739 339.99 156.275 339.99C156.744 339.99 157.135 340.269 157.436 340.671L158.218 339.99C157.816 339.454 157.09 339.052 156.264 339.052C155.136 339.052 154.354 339.789 154.354 340.716C154.354 342.703 157.112 342.29 157.112 343.429C157.112 343.853 156.811 344.188 156.264 344.188C155.705 344.188 155.259 343.887 154.89 343.418L154.097 344.11ZM162.95 344.903H164.223V341.508H168.622V344.903H169.906V337.086H168.622V340.336H164.223V337.086H162.95V344.903Z" fill="black"/>
<path d="M98.3528 171.155C96.0525 171.155 95.0475 172.886 95.0475 175.376C95.0475 178.033 96.1865 179.418 98.1072 179.418C99.838 179.418 100.865 178.201 100.865 176.76C100.865 175.365 99.8715 174.259 98.364 174.259C97.5377 174.259 96.8453 174.538 96.3205 175.052C96.3875 173.288 97.0575 172.271 98.3417 172.271C99.0228 172.271 99.5142 172.606 99.9497 173.221L100.91 172.461C100.385 171.713 99.5923 171.155 98.3528 171.155ZM98.163 175.353C99.0005 175.353 99.6035 175.979 99.6035 176.805C99.6035 177.654 99.034 178.301 98.0848 178.301C97.1915 178.301 96.5327 177.743 96.354 176.269C96.7895 175.655 97.4372 175.353 98.163 175.353ZM104.983 171.155C102.683 171.155 101.678 172.886 101.678 175.376C101.678 178.033 102.817 179.418 104.737 179.418C106.468 179.418 107.496 178.201 107.496 176.76C107.496 175.365 106.502 174.259 104.994 174.259C104.168 174.259 103.476 174.538 102.951 175.052C103.018 173.288 103.688 172.271 104.972 172.271C105.653 172.271 106.144 172.606 106.58 173.221L107.54 172.461C107.015 171.713 106.223 171.155 104.983 171.155ZM104.793 175.353C105.631 175.353 106.234 175.979 106.234 176.805C106.234 177.654 105.664 178.301 104.715 178.301C103.822 178.301 103.163 177.743 102.984 176.269C103.42 175.655 104.067 175.353 104.793 175.353ZM113.237 171.132C112.098 171.132 111.338 171.97 111.338 172.997C111.338 174.025 112.098 174.862 113.237 174.862C114.353 174.862 115.124 174.025 115.124 172.997C115.124 171.97 114.353 171.132 113.237 171.132ZM112.087 179.184H113.281L119.01 171.367H117.815L112.087 179.184ZM113.237 174.069C112.645 174.069 112.221 173.611 112.221 172.997C112.221 172.383 112.645 171.925 113.237 171.925C113.817 171.925 114.242 172.383 114.242 172.997C114.242 173.6 113.817 174.069 113.237 174.069ZM117.882 175.677C116.743 175.677 115.984 176.515 115.984 177.542C115.984 178.569 116.743 179.407 117.882 179.407C118.999 179.407 119.769 178.569 119.769 177.542C119.769 176.515 118.999 175.677 117.882 175.677ZM117.882 178.614C117.29 178.614 116.866 178.156 116.866 177.542C116.866 176.928 117.29 176.47 117.882 176.47C118.463 176.47 118.887 176.928 118.887 177.542C118.887 178.145 118.463 178.614 117.882 178.614ZM123.674 176.381C123.674 178.022 124.78 179.418 126.555 179.418C127.359 179.418 127.962 179.128 128.431 178.625V179.195H129.604V170.82H128.431V174.136C127.962 173.634 127.359 173.343 126.555 173.343C124.78 173.343 123.674 174.739 123.674 176.381ZM124.891 176.381C124.891 175.275 125.617 174.427 126.7 174.427C127.404 174.427 128.018 174.75 128.431 175.365V177.397C128.052 177.989 127.426 178.335 126.7 178.335C125.617 178.335 124.891 177.486 124.891 176.381ZM136.541 178.279L135.703 177.609C135.357 178.078 134.788 178.38 134.106 178.38C133.023 178.38 132.275 177.743 132.197 176.515H136.351C136.396 176.347 136.429 176.09 136.429 175.834C136.429 174.404 135.424 173.343 133.872 173.343C132.085 173.343 131.013 174.695 131.013 176.381C131.013 178.022 132.163 179.418 134.106 179.418C135.156 179.418 136.016 178.983 136.541 178.279ZM133.85 174.304C134.754 174.304 135.257 174.951 135.279 175.655H132.253C132.431 174.784 133.012 174.304 133.85 174.304ZM137.314 178.402C137.839 179.038 138.542 179.418 139.491 179.418C140.541 179.418 141.434 178.759 141.445 177.654C141.445 175.722 138.687 176.102 138.687 174.974C138.687 174.594 138.955 174.281 139.491 174.281C139.96 174.281 140.351 174.561 140.653 174.963L141.434 174.281C141.032 173.745 140.306 173.343 139.48 173.343C138.352 173.343 137.571 174.08 137.571 175.007C137.571 176.995 140.329 176.582 140.329 177.721C140.329 178.145 140.027 178.48 139.48 178.48C138.922 178.48 138.475 178.179 138.107 177.71L137.314 178.402ZM145.172 173.567V174.605H146.233V179.195H147.394V174.605H149.259V173.567H147.394V172.886C147.394 172.249 147.774 171.858 148.344 171.858C148.656 171.858 148.902 171.959 149.092 172.104L149.583 171.132C149.259 170.954 148.835 170.82 148.321 170.82C147.015 170.82 146.233 171.724 146.233 172.919V173.567H145.172ZM155.123 178.279L154.285 177.609C153.939 178.078 153.37 178.38 152.689 178.38C151.605 178.38 150.857 177.743 150.779 176.515H154.933C154.978 176.347 155.011 176.09 155.011 175.834C155.011 174.404 154.006 173.343 152.454 173.343C150.667 173.343 149.595 174.695 149.595 176.381C149.595 178.022 150.746 179.418 152.689 179.418C153.738 179.418 154.598 178.983 155.123 178.279ZM152.432 174.304C153.336 174.304 153.839 174.951 153.861 175.655H150.835C151.014 174.784 151.594 174.304 152.432 174.304ZM156.52 179.195H157.67V175.398C157.938 174.918 158.362 174.427 159.077 174.427C159.814 174.427 160.26 174.918 160.26 175.744V179.195H161.422V175.7C161.422 175.588 161.422 175.487 161.411 175.387C161.712 174.851 162.148 174.427 162.818 174.427C163.543 174.427 164.001 174.918 164.001 175.744V179.195H165.163V175.7C165.163 174.147 164.258 173.343 163.086 173.343C162.114 173.343 161.556 173.801 161.12 174.36C160.763 173.69 160.115 173.343 159.345 173.343C158.597 173.343 158.072 173.656 157.67 174.092V173.567H156.52V179.195ZM166.945 179.195H168.095V175.398C168.363 174.918 168.787 174.427 169.502 174.427C170.239 174.427 170.686 174.918 170.686 175.744V179.195H171.847V175.7C171.847 175.588 171.847 175.487 171.836 175.387C172.137 174.851 172.573 174.427 173.243 174.427C173.969 174.427 174.426 174.918 174.426 175.744V179.195H175.588V175.7C175.588 174.147 174.683 173.343 173.511 173.343C172.539 173.343 171.981 173.801 171.545 174.36C171.188 173.69 170.54 173.343 169.77 173.343C169.022 173.343 168.497 173.656 168.095 174.092V173.567H166.945V179.195ZM182.451 178.279L181.613 177.609C181.267 178.078 180.697 178.38 180.016 178.38C178.933 178.38 178.185 177.743 178.107 176.515H182.261C182.305 176.347 182.339 176.09 182.339 175.834C182.339 174.404 181.334 173.343 179.782 173.343C177.995 173.343 176.923 174.695 176.923 176.381C176.923 178.022 178.073 179.418 180.016 179.418C181.066 179.418 181.926 178.983 182.451 178.279ZM179.759 174.304C180.664 174.304 181.166 174.951 181.189 175.655H178.163C178.341 174.784 178.922 174.304 179.759 174.304ZM183.224 178.402C183.748 179.038 184.452 179.418 185.401 179.418C186.451 179.418 187.344 178.759 187.355 177.654C187.355 175.722 184.597 176.102 184.597 174.974C184.597 174.594 184.865 174.281 185.401 174.281C185.87 174.281 186.261 174.561 186.562 174.963L187.344 174.281C186.942 173.745 186.216 173.343 185.39 173.343C184.262 173.343 183.48 174.08 183.48 175.007C183.48 176.995 186.239 176.582 186.239 177.721C186.239 178.145 185.937 178.48 185.39 178.48C184.832 178.48 184.385 178.179 184.016 177.71L183.224 178.402Z" fill="white"/>
<path d="M113.449 309.156H117.224V311.333H118.441V309.156H119.301V308.05H118.441V303.517H116.989L113.449 308.05V309.156ZM114.734 308.05L117.224 304.868V308.05H114.734ZM123.136 303.293C121.137 303.293 120.166 305.091 120.166 307.425C120.166 309.759 121.137 311.557 123.136 311.557C125.135 311.557 126.095 309.759 126.095 307.425C126.095 305.091 125.135 303.293 123.136 303.293ZM123.136 304.432C124.264 304.432 124.833 305.672 124.833 307.425C124.833 309.167 124.264 310.418 123.136 310.418C121.997 310.418 121.428 309.178 121.428 307.425C121.428 305.683 121.997 304.432 123.136 304.432ZM131.781 303.271C130.642 303.271 129.882 304.108 129.882 305.136C129.882 306.163 130.642 307.001 131.781 307.001C132.897 307.001 133.668 306.163 133.668 305.136C133.668 304.108 132.897 303.271 131.781 303.271ZM130.63 311.322H131.825L137.554 303.505H136.359L130.63 311.322ZM131.781 306.208C131.189 306.208 130.764 305.75 130.764 305.136C130.764 304.522 131.189 304.064 131.781 304.064C132.361 304.064 132.786 304.522 132.786 305.136C132.786 305.739 132.361 306.208 131.781 306.208ZM136.426 307.816C135.287 307.816 134.528 308.653 134.528 309.681C134.528 310.708 135.287 311.545 136.426 311.545C137.543 311.545 138.313 310.708 138.313 309.681C138.313 308.653 137.543 307.816 136.426 307.816ZM136.426 310.753C135.834 310.753 135.41 310.295 135.41 309.681C135.41 309.066 135.834 308.609 136.426 308.609C137.007 308.609 137.431 309.066 137.431 309.681C137.431 310.284 137.007 310.753 136.426 310.753ZM142.218 308.519C142.218 310.161 143.324 311.557 145.099 311.557C145.903 311.557 146.506 311.266 146.975 310.764V311.333H148.148V302.958H146.975V306.275C146.506 305.772 145.903 305.482 145.099 305.482C143.324 305.482 142.218 306.878 142.218 308.519ZM143.435 308.519C143.435 307.414 144.161 306.565 145.244 306.565C145.948 306.565 146.562 306.889 146.975 307.503V309.535C146.595 310.127 145.97 310.473 145.244 310.473C144.161 310.473 143.435 309.625 143.435 308.519ZM155.085 310.418L154.247 309.748C153.901 310.217 153.332 310.518 152.65 310.518C151.567 310.518 150.819 309.882 150.741 308.653H154.895C154.94 308.486 154.973 308.229 154.973 307.972C154.973 306.543 153.968 305.482 152.416 305.482C150.629 305.482 149.557 306.833 149.557 308.519C149.557 310.161 150.707 311.557 152.65 311.557C153.7 311.557 154.56 311.121 155.085 310.418ZM152.394 306.442C153.298 306.442 153.801 307.09 153.823 307.793H150.797C150.975 306.922 151.556 306.442 152.394 306.442ZM155.858 310.54C156.382 311.177 157.086 311.557 158.035 311.557C159.085 311.557 159.978 310.898 159.989 309.792C159.989 307.86 157.231 308.24 157.231 307.112C157.231 306.733 157.499 306.42 158.035 306.42C158.504 306.42 158.895 306.699 159.196 307.101L159.978 306.42C159.576 305.884 158.85 305.482 158.024 305.482C156.896 305.482 156.114 306.219 156.114 307.146C156.114 309.133 158.873 308.72 158.873 309.859C158.873 310.284 158.571 310.619 158.024 310.619C157.466 310.619 157.019 310.317 156.65 309.848L155.858 310.54ZM164.71 311.333H165.983V307.894H168.618V306.811H165.983V304.6H169.065V303.517H164.71V311.333Z" fill="white"/>
</svg>
