<svg width="282" height="421" viewBox="0 0 282 421" fill="none" xmlns="http://www.w3.org/2000/svg">
<rect width="282" height="421" rx="15.6254" fill="white"/>
<path d="M85.6499 71H91.8899V69.32H87.4739V59.8H85.6499V71ZM101.015 69.688L99.8146 68.728C99.3186 69.4 98.5026 69.832 97.5266 69.832C95.9746 69.832 94.9026 68.92 94.7906 67.16H100.743C100.807 66.92 100.855 66.552 100.855 66.184C100.855 64.136 99.4146 62.616 97.1906 62.616C94.6306 62.616 93.0946 64.552 93.0946 66.968C93.0946 69.32 94.7426 71.32 97.5266 71.32C99.0306 71.32 100.263 70.696 101.015 69.688ZM97.1586 63.992C98.4546 63.992 99.1746 64.92 99.2066 65.928H94.8706C95.1266 64.68 95.9586 63.992 97.1586 63.992ZM102.122 69.864C102.874 70.776 103.882 71.32 105.242 71.32C106.746 71.32 108.026 70.376 108.042 68.792C108.042 66.024 104.09 66.568 104.09 64.952C104.09 64.408 104.474 63.96 105.242 63.96C105.914 63.96 106.474 64.36 106.906 64.936L108.026 63.96C107.45 63.192 106.41 62.616 105.226 62.616C103.61 62.616 102.49 63.672 102.49 65C102.49 67.848 106.442 67.256 106.442 68.888C106.442 69.496 106.01 69.976 105.226 69.976C104.426 69.976 103.786 69.544 103.258 68.872L102.122 69.864ZM118.198 69.768C116.63 69.768 115.51 68.568 115.51 66.968C115.51 65.384 116.63 64.168 118.182 64.168C119.11 64.168 119.846 64.616 120.294 65.24L121.59 64.248C120.854 63.256 119.654 62.616 118.182 62.616C115.478 62.616 113.782 64.616 113.782 66.968C113.782 69.32 115.478 71.32 118.182 71.32C119.67 71.32 120.854 70.68 121.59 69.688L120.294 68.696C119.846 69.32 119.11 69.768 118.198 69.768ZM126.744 62.616C124.136 62.616 122.36 64.584 122.36 66.968C122.36 69.352 124.136 71.32 126.744 71.32C129.368 71.32 131.128 69.352 131.128 66.968C131.128 64.584 129.368 62.616 126.744 62.616ZM126.76 69.768C125.208 69.768 124.088 68.52 124.088 66.968C124.088 65.416 125.208 64.168 126.76 64.168C128.28 64.168 129.4 65.4 129.4 66.968C129.4 68.504 128.28 69.768 126.76 69.768ZM133.188 71H134.836V59H133.188V71ZM137.532 71H139.18V59H137.532V71ZM149.155 69.688L147.955 68.728C147.459 69.4 146.643 69.832 145.667 69.832C144.115 69.832 143.043 68.92 142.931 67.16H148.883C148.947 66.92 148.995 66.552 148.995 66.184C148.995 64.136 147.555 62.616 145.331 62.616C142.771 62.616 141.235 64.552 141.235 66.968C141.235 69.32 142.883 71.32 145.667 71.32C147.171 71.32 148.403 70.696 149.155 69.688ZM145.299 63.992C146.595 63.992 147.315 64.92 147.347 65.928H143.011C143.267 64.68 144.099 63.992 145.299 63.992ZM154.886 69.768C153.318 69.768 152.198 68.568 152.198 66.968C152.198 65.384 153.318 64.168 154.87 64.168C155.798 64.168 156.534 64.616 156.982 65.24L158.278 64.248C157.542 63.256 156.342 62.616 154.87 62.616C152.166 62.616 150.47 64.616 150.47 66.968C150.47 69.32 152.166 71.32 154.87 71.32C156.358 71.32 157.542 70.68 158.278 69.688L156.982 68.696C156.534 69.32 155.798 69.768 154.886 69.768ZM160.496 68.2C160.496 70.168 161.488 71.16 163.376 71.16C164 71.16 164.448 71.08 164.832 70.92V69.464C164.544 69.576 164.176 69.64 163.632 69.64C162.736 69.64 162.16 69.288 162.16 68.2V64.424H164.832V62.936H162.16V60.92H160.496V62.936H158.976V64.424H160.496V68.2ZM167.629 61.144C168.237 61.144 168.749 60.632 168.749 60.024C168.749 59.416 168.237 58.904 167.629 58.904C167.021 58.904 166.509 59.416 166.509 60.024C166.509 60.632 167.021 61.144 167.629 61.144ZM166.797 71H168.445V62.936H166.797V71ZM174.885 62.616C172.277 62.616 170.501 64.584 170.501 66.968C170.501 69.352 172.277 71.32 174.885 71.32C177.509 71.32 179.269 69.352 179.269 66.968C179.269 64.584 177.509 62.616 174.885 62.616ZM174.901 69.768C173.349 69.768 172.229 68.52 172.229 66.968C172.229 65.416 173.349 64.168 174.901 64.168C176.421 64.168 177.541 65.4 177.541 66.968C177.541 68.504 176.421 69.768 174.901 69.768ZM181.328 71H182.976V65.56C183.392 64.856 184.048 64.168 185.152 64.168C186.304 64.168 187.008 64.936 187.008 66.216V71H188.672V66.152C188.672 63.816 187.312 62.616 185.536 62.616C184.384 62.616 183.584 63.08 182.976 63.72V62.936H181.328V71ZM190.435 69.864C191.187 70.776 192.195 71.32 193.555 71.32C195.059 71.32 196.339 70.376 196.355 68.792C196.355 66.024 192.403 66.568 192.403 64.952C192.403 64.408 192.787 63.96 193.555 63.96C194.227 63.96 194.787 64.36 195.219 64.936L196.339 63.96C195.763 63.192 194.723 62.616 193.539 62.616C191.923 62.616 190.803 63.672 190.803 65C190.803 67.848 194.755 67.256 194.755 68.888C194.755 69.496 194.323 69.976 193.539 69.976C192.739 69.976 192.099 69.544 191.571 68.872L190.435 69.864ZM56.4143 96.936H58.0623V92.168C58.7503 92.904 59.6143 93.32 60.7823 93.32C63.3103 93.32 64.8943 91.32 64.8943 88.968C64.8943 86.616 63.3103 84.616 60.7823 84.616C59.6143 84.616 58.7503 85.032 58.0623 85.768V84.936H56.4143V96.936ZM60.5743 86.168C62.1263 86.168 63.1663 87.384 63.1663 88.968C63.1663 90.552 62.1263 91.768 60.5743 91.768C59.5343 91.768 58.6543 91.288 58.0623 90.392V87.544C58.6383 86.664 59.5183 86.168 60.5743 86.168ZM66.9456 93H68.5936V87.56C69.0256 86.856 69.6656 86.168 70.7696 86.168C71.9216 86.168 72.6256 86.936 72.6256 88.216V93H74.2896V88.152C74.2896 85.816 72.9456 84.616 71.1536 84.616C70.0016 84.616 69.2016 85.08 68.5936 85.72V81H66.9456V93ZM80.5958 84.616C77.9878 84.616 76.2118 86.584 76.2118 88.968C76.2118 91.352 77.9878 93.32 80.5958 93.32C83.2198 93.32 84.9798 91.352 84.9798 88.968C84.9798 86.584 83.2198 84.616 80.5958 84.616ZM80.6118 91.768C79.0598 91.768 77.9398 90.52 77.9398 88.968C77.9398 87.416 79.0598 86.168 80.6118 86.168C82.1318 86.168 83.2518 87.4 83.2518 88.968C83.2518 90.504 82.1318 91.768 80.6118 91.768ZM87.4099 90.2C87.4099 92.168 88.4019 93.16 90.2899 93.16C90.9139 93.16 91.3619 93.08 91.7459 92.92V91.464C91.4579 91.576 91.0899 91.64 90.5459 91.64C89.6499 91.64 89.0739 91.288 89.0739 90.2V86.424H91.7459V84.936H89.0739V82.92H87.4099V84.936H85.8899V86.424H87.4099V90.2ZM97.2989 84.616C94.6909 84.616 92.9149 86.584 92.9149 88.968C92.9149 91.352 94.6909 93.32 97.2989 93.32C99.9229 93.32 101.683 91.352 101.683 88.968C101.683 86.584 99.9229 84.616 97.2989 84.616ZM97.3149 91.768C95.7629 91.768 94.6429 90.52 94.6429 88.968C94.6429 87.416 95.7629 86.168 97.3149 86.168C98.8349 86.168 99.9549 87.4 99.9549 88.968C99.9549 90.504 98.8349 91.768 97.3149 91.768ZM102.785 94.44C102.785 96.088 104.321 97 106.801 97C109.249 97 110.945 95.688 110.945 93.944C110.945 92.488 109.905 91.416 107.825 91.416H105.633C105.201 91.416 105.025 91.224 105.025 90.888C105.025 90.648 105.169 90.408 105.425 90.2C105.729 90.264 106.049 90.312 106.401 90.312C108.401 90.312 109.601 89.016 109.601 87.448C109.601 87.064 109.521 86.68 109.377 86.344H110.961V84.936H107.985C107.537 84.728 107.009 84.616 106.401 84.616C104.433 84.616 103.233 85.896 103.233 87.448C103.233 88.344 103.633 89.16 104.337 89.688C103.713 90.12 103.409 90.632 103.409 91.272C103.409 91.688 103.585 92.12 103.937 92.424C103.185 92.984 102.785 93.624 102.785 94.44ZM106.417 89.048C105.377 89.048 104.769 88.36 104.769 87.448C104.769 86.552 105.377 85.88 106.417 85.88C107.457 85.88 108.065 86.552 108.065 87.448C108.065 88.36 107.457 89.048 106.417 89.048ZM104.353 94.216C104.353 93.64 104.657 93.208 105.105 92.856H107.665C108.897 92.856 109.297 93.4 109.297 94.088C109.297 95.032 108.369 95.656 106.769 95.656C105.249 95.656 104.353 95.112 104.353 94.216ZM112.555 93H114.203V87.624C114.619 86.936 115.291 86.392 116.315 86.392C116.651 86.392 116.907 86.44 117.163 86.504V84.888C116.955 84.824 116.715 84.776 116.459 84.776C115.467 84.776 114.763 85.224 114.203 85.848V84.936H112.555V93ZM120.826 93.24C121.818 93.24 122.826 92.792 123.402 92.088V93H125.05V87.672C125.05 85.896 123.85 84.616 121.674 84.616C120.234 84.616 119.082 85.224 118.362 86.184L119.594 87.128C120.058 86.472 120.746 86.072 121.626 86.072C122.666 86.072 123.402 86.68 123.402 87.672V88.088L120.794 88.52C119.082 88.808 118.138 89.688 118.138 90.904C118.138 92.328 119.226 93.24 120.826 93.24ZM119.802 90.84C119.802 90.232 120.218 89.8 121.226 89.624L123.402 89.256V90.648C122.922 91.416 122.138 91.896 121.13 91.896C120.298 91.896 119.802 91.464 119.802 90.84ZM127.633 96.936H129.281V92.168C129.969 92.904 130.833 93.32 132.001 93.32C134.529 93.32 136.113 91.32 136.113 88.968C136.113 86.616 134.529 84.616 132.001 84.616C130.833 84.616 129.969 85.032 129.281 85.768V84.936H127.633V96.936ZM131.793 86.168C133.345 86.168 134.385 87.384 134.385 88.968C134.385 90.552 133.345 91.768 131.793 91.768C130.753 91.768 129.873 91.288 129.281 90.392V87.544C129.857 86.664 130.737 86.168 131.793 86.168ZM138.164 93H139.812V87.56C140.244 86.856 140.884 86.168 141.988 86.168C143.14 86.168 143.844 86.936 143.844 88.216V93H145.508V88.152C145.508 85.816 144.164 84.616 142.372 84.616C141.22 84.616 140.42 85.08 139.812 85.72V81H138.164V93ZM148.903 83.144C149.511 83.144 150.023 82.632 150.023 82.024C150.023 81.416 149.511 80.904 148.903 80.904C148.295 80.904 147.783 81.416 147.783 82.024C147.783 82.632 148.295 83.144 148.903 83.144ZM148.071 93H149.719V84.936H148.071V93ZM151.774 88.968C151.774 91.32 153.358 93.32 155.886 93.32C157.054 93.32 157.918 92.904 158.59 92.168V96.936H160.27V84.936H158.59V85.768C157.918 85.032 157.054 84.616 155.886 84.616C153.358 84.616 151.774 86.616 151.774 88.968ZM153.502 88.968C153.502 87.384 154.542 86.168 156.094 86.168C157.118 86.168 157.998 86.632 158.59 87.512V90.424C158.046 91.272 157.15 91.768 156.094 91.768C154.542 91.768 153.502 90.552 153.502 88.968ZM168.418 89.544C168.418 90.936 167.666 91.768 166.434 91.768C165.17 91.768 164.434 90.936 164.434 89.544V84.936H162.77V89.464C162.77 91.88 164.162 93.32 166.434 93.32C168.69 93.32 170.082 91.88 170.082 89.464V84.936H168.418V89.544ZM179.866 91.688L178.666 90.728C178.17 91.4 177.354 91.832 176.378 91.832C174.826 91.832 173.754 90.92 173.642 89.16H179.594C179.658 88.92 179.706 88.552 179.706 88.184C179.706 86.136 178.266 84.616 176.042 84.616C173.482 84.616 171.946 86.552 171.946 88.968C171.946 91.32 173.594 93.32 176.378 93.32C177.882 93.32 179.114 92.696 179.866 91.688ZM176.01 85.992C177.306 85.992 178.026 86.92 178.058 87.928H173.722C173.978 86.68 174.81 85.992 176.01 85.992ZM180.974 91.864C181.726 92.776 182.734 93.32 184.094 93.32C185.598 93.32 186.878 92.376 186.894 90.792C186.894 88.024 182.942 88.568 182.942 86.952C182.942 86.408 183.326 85.96 184.094 85.96C184.766 85.96 185.326 86.36 185.758 86.936L186.878 85.96C186.302 85.192 185.262 84.616 184.078 84.616C182.462 84.616 181.342 85.672 181.342 87C181.342 89.848 185.294 89.256 185.294 90.888C185.294 91.496 184.862 91.976 184.078 91.976C183.278 91.976 182.638 91.544 182.11 90.872L180.974 91.864ZM192.474 91.864C193.226 92.776 194.234 93.32 195.594 93.32C197.098 93.32 198.378 92.376 198.394 90.792C198.394 88.024 194.442 88.568 194.442 86.952C194.442 86.408 194.826 85.96 195.594 85.96C196.266 85.96 196.826 86.36 197.258 86.936L198.378 85.96C197.802 85.192 196.762 84.616 195.578 84.616C193.962 84.616 192.842 85.672 192.842 87C192.842 89.848 196.794 89.256 196.794 90.888C196.794 91.496 196.362 91.976 195.578 91.976C194.778 91.976 194.138 91.544 193.61 90.872L192.474 91.864ZM204.143 84.616C201.535 84.616 199.759 86.584 199.759 88.968C199.759 91.352 201.535 93.32 204.143 93.32C206.767 93.32 208.527 91.352 208.527 88.968C208.527 86.584 206.767 84.616 204.143 84.616ZM204.159 91.768C202.607 91.768 201.487 90.52 201.487 88.968C201.487 87.416 202.607 86.168 204.159 86.168C205.679 86.168 206.799 87.4 206.799 88.968C206.799 90.504 205.679 91.768 204.159 91.768ZM210.586 93H212.234V87.56C212.65 86.856 213.306 86.168 214.41 86.168C215.562 86.168 216.266 86.936 216.266 88.216V93H217.93V88.152C217.93 85.816 216.57 84.616 214.794 84.616C213.642 84.616 212.842 85.08 212.234 85.72V84.936H210.586V93ZM220.972 90.2C220.972 92.168 221.964 93.16 223.852 93.16C224.476 93.16 224.924 93.08 225.308 92.92V91.464C225.02 91.576 224.652 91.64 224.108 91.64C223.212 91.64 222.636 91.288 222.636 90.2V86.424H225.308V84.936H222.636V82.92H220.972V84.936H219.452V86.424H220.972V90.2ZM81.1709 113.688L79.9709 112.728C79.4749 113.4 78.6589 113.832 77.6829 113.832C76.1309 113.832 75.0589 112.92 74.9469 111.16H80.8989C80.9629 110.92 81.0109 110.552 81.0109 110.184C81.0109 108.136 79.5709 106.616 77.3469 106.616C74.7869 106.616 73.2509 108.552 73.2509 110.968C73.2509 113.32 74.8989 115.32 77.6829 115.32C79.1869 115.32 80.4189 114.696 81.1709 113.688ZM77.3149 107.992C78.6109 107.992 79.3309 108.92 79.3629 109.928H75.0269C75.2829 108.68 76.1149 107.992 77.3149 107.992ZM83.1721 115H84.8201V109.56C85.2361 108.856 85.8921 108.168 86.9961 108.168C88.1481 108.168 88.8521 108.936 88.8521 110.216V115H90.5161V110.152C90.5161 107.816 89.1561 106.616 87.3801 106.616C86.2281 106.616 85.4281 107.08 84.8201 107.72V106.936H83.1721V115ZM96.8544 113.768C95.2864 113.768 94.1664 112.568 94.1664 110.968C94.1664 109.384 95.2864 108.168 96.8384 108.168C97.7664 108.168 98.5024 108.616 98.9504 109.24L100.246 108.248C99.5104 107.256 98.3104 106.616 96.8384 106.616C94.1344 106.616 92.4384 108.616 92.4384 110.968C92.4384 113.32 94.1344 115.32 96.8384 115.32C98.3264 115.32 99.5104 114.68 100.246 113.688L98.9504 112.696C98.5024 113.32 97.7664 113.768 96.8544 113.768ZM105.401 106.616C102.793 106.616 101.017 108.584 101.017 110.968C101.017 113.352 102.793 115.32 105.401 115.32C108.025 115.32 109.785 113.352 109.785 110.968C109.785 108.584 108.025 106.616 105.401 106.616ZM105.417 113.768C103.865 113.768 102.745 112.52 102.745 110.968C102.745 109.416 103.865 108.168 105.417 108.168C106.937 108.168 108.057 109.4 108.057 110.968C108.057 112.504 106.937 113.768 105.417 113.768ZM111.844 115H113.492V109.624C113.908 108.936 114.58 108.392 115.604 108.392C115.94 108.392 116.196 108.44 116.452 108.504V106.888C116.244 106.824 116.004 106.776 115.748 106.776C114.756 106.776 114.052 107.224 113.492 107.848V106.936H111.844V115ZM125.124 113.688L123.924 112.728C123.428 113.4 122.612 113.832 121.636 113.832C120.084 113.832 119.012 112.92 118.9 111.16H124.852C124.916 110.92 124.964 110.552 124.964 110.184C124.964 108.136 123.524 106.616 121.3 106.616C118.74 106.616 117.204 108.552 117.204 110.968C117.204 113.32 118.852 115.32 121.636 115.32C123.14 115.32 124.372 114.696 125.124 113.688ZM121.268 107.992C122.564 107.992 123.284 108.92 123.316 109.928H118.98C119.236 108.68 120.068 107.992 121.268 107.992ZM131.438 115H133.086V103H131.438V115ZM138.006 115.24C138.998 115.24 140.006 114.792 140.582 114.088V115H142.23V109.672C142.23 107.896 141.03 106.616 138.854 106.616C137.414 106.616 136.262 107.224 135.542 108.184L136.774 109.128C137.238 108.472 137.926 108.072 138.806 108.072C139.846 108.072 140.582 108.68 140.582 109.672V110.088L137.974 110.52C136.262 110.808 135.318 111.688 135.318 112.904C135.318 114.328 136.406 115.24 138.006 115.24ZM136.982 112.84C136.982 112.232 137.398 111.8 138.406 111.624L140.582 111.256V112.648C140.102 113.416 139.318 113.896 138.31 113.896C137.478 113.896 136.982 113.464 136.982 112.84ZM144.813 115H146.461V109.624C146.877 108.936 147.549 108.392 148.573 108.392C148.909 108.392 149.165 108.44 149.421 108.504V106.888C149.213 106.824 148.973 106.776 148.717 106.776C147.725 106.776 147.021 107.224 146.461 107.848V106.936H144.813V115ZM150.214 116.44C150.214 118.088 151.75 119 154.23 119C156.678 119 158.374 117.688 158.374 115.944C158.374 114.488 157.334 113.416 155.254 113.416H153.062C152.63 113.416 152.454 113.224 152.454 112.888C152.454 112.648 152.598 112.408 152.854 112.2C153.158 112.264 153.478 112.312 153.83 112.312C155.83 112.312 157.03 111.016 157.03 109.448C157.03 109.064 156.95 108.68 156.806 108.344H158.39V106.936H155.414C154.966 106.728 154.438 106.616 153.83 106.616C151.862 106.616 150.662 107.896 150.662 109.448C150.662 110.344 151.062 111.16 151.766 111.688C151.142 112.12 150.838 112.632 150.838 113.272C150.838 113.688 151.014 114.12 151.366 114.424C150.614 114.984 150.214 115.624 150.214 116.44ZM153.846 111.048C152.806 111.048 152.198 110.36 152.198 109.448C152.198 108.552 152.806 107.88 153.846 107.88C154.886 107.88 155.494 108.552 155.494 109.448C155.494 110.36 154.886 111.048 153.846 111.048ZM151.782 116.216C151.782 115.64 152.086 115.208 152.534 114.856H155.094C156.326 114.856 156.726 115.4 156.726 116.088C156.726 117.032 155.798 117.656 154.198 117.656C152.678 117.656 151.782 117.112 151.782 116.216ZM166.89 113.688L165.69 112.728C165.194 113.4 164.378 113.832 163.402 113.832C161.85 113.832 160.778 112.92 160.666 111.16H166.618C166.682 110.92 166.73 110.552 166.73 110.184C166.73 108.136 165.29 106.616 163.066 106.616C160.506 106.616 158.97 108.552 158.97 110.968C158.97 113.32 160.618 115.32 163.402 115.32C164.906 115.32 166.138 114.696 166.89 113.688ZM163.034 107.992C164.33 107.992 165.05 108.92 165.082 109.928H160.746C161.002 108.68 161.834 107.992 163.034 107.992ZM168.891 115H170.539V109.56C170.923 108.872 171.531 108.168 172.555 108.168C173.611 108.168 174.251 108.872 174.251 110.056V115H175.915V109.992C175.915 109.832 175.915 109.688 175.899 109.544C176.331 108.776 176.955 108.168 177.915 108.168C178.955 108.168 179.611 108.872 179.611 110.056V115H181.275V109.992C181.275 107.768 179.979 106.616 178.299 106.616C176.907 106.616 176.107 107.272 175.483 108.072C174.971 107.112 174.043 106.616 172.939 106.616C171.867 106.616 171.115 107.064 170.539 107.688V106.936H168.891V115ZM191.108 113.688L189.908 112.728C189.412 113.4 188.596 113.832 187.62 113.832C186.068 113.832 184.996 112.92 184.884 111.16H190.836C190.9 110.92 190.948 110.552 190.948 110.184C190.948 108.136 189.508 106.616 187.284 106.616C184.724 106.616 183.188 108.552 183.188 110.968C183.188 113.32 184.836 115.32 187.62 115.32C189.124 115.32 190.356 114.696 191.108 113.688ZM187.252 107.992C188.548 107.992 189.268 108.92 189.3 109.928H184.964C185.22 108.68 186.052 107.992 187.252 107.992ZM193.11 115H194.758V109.56C195.174 108.856 195.83 108.168 196.934 108.168C198.086 108.168 198.79 108.936 198.79 110.216V115H200.454V110.152C200.454 107.816 199.094 106.616 197.318 106.616C196.166 106.616 195.366 107.08 194.758 107.72V106.936H193.11V115ZM203.496 112.2C203.496 114.168 204.488 115.16 206.376 115.16C207 115.16 207.448 115.08 207.832 114.92V113.464C207.544 113.576 207.176 113.64 206.632 113.64C205.736 113.64 205.16 113.288 205.16 112.2V108.424H207.832V106.936H205.16V104.92H203.496V106.936H201.976V108.424H203.496V112.2ZM56.4403 135.768C54.8723 135.768 53.7523 134.568 53.7523 132.968C53.7523 131.384 54.8723 130.168 56.4243 130.168C57.3523 130.168 58.0883 130.616 58.5363 131.24L59.8323 130.248C59.0963 129.256 57.8963 128.616 56.4243 128.616C53.7203 128.616 52.0243 130.616 52.0243 132.968C52.0243 135.32 53.7203 137.32 56.4243 137.32C57.9123 137.32 59.0963 136.68 59.8323 135.688L58.5363 134.696C58.0883 135.32 57.3523 135.768 56.4403 135.768ZM64.9864 128.616C62.3784 128.616 60.6024 130.584 60.6024 132.968C60.6024 135.352 62.3784 137.32 64.9864 137.32C67.6104 137.32 69.3704 135.352 69.3704 132.968C69.3704 130.584 67.6104 128.616 64.9864 128.616ZM65.0024 135.768C63.4504 135.768 62.3304 134.52 62.3304 132.968C62.3304 131.416 63.4504 130.168 65.0024 130.168C66.5224 130.168 67.6424 131.4 67.6424 132.968C67.6424 134.504 66.5224 135.768 65.0024 135.768ZM71.4299 137H73.0779V131.56C73.4939 130.856 74.1499 130.168 75.2539 130.168C76.4059 130.168 77.1099 130.936 77.1099 132.216V137H78.7739V132.152C78.7739 129.816 77.4139 128.616 75.6379 128.616C74.4859 128.616 73.6859 129.08 73.0779 129.72V128.936H71.4299V137ZM80.5362 135.864C81.2882 136.776 82.2962 137.32 83.6562 137.32C85.1602 137.32 86.4402 136.376 86.4562 134.792C86.4562 132.024 82.5042 132.568 82.5042 130.952C82.5042 130.408 82.8882 129.96 83.6562 129.96C84.3282 129.96 84.8882 130.36 85.3202 130.936L86.4402 129.96C85.8642 129.192 84.8242 128.616 83.6402 128.616C82.0242 128.616 80.9042 129.672 80.9042 131C80.9042 133.848 84.8562 133.256 84.8562 134.888C84.8562 135.496 84.4242 135.976 83.6402 135.976C82.8402 135.976 82.2002 135.544 81.6722 134.872L80.5362 135.864ZM90.7008 137.24C91.6928 137.24 92.7008 136.792 93.2768 136.088V137H94.9248V131.672C94.9248 129.896 93.7248 128.616 91.5488 128.616C90.1088 128.616 88.9568 129.224 88.2368 130.184L89.4688 131.128C89.9328 130.472 90.6208 130.072 91.5008 130.072C92.5408 130.072 93.2768 130.68 93.2768 131.672V132.088L90.6688 132.52C88.9568 132.808 88.0128 133.688 88.0128 134.904C88.0128 136.328 89.1008 137.24 90.7008 137.24ZM89.6768 134.84C89.6768 134.232 90.0928 133.8 91.1008 133.624L93.2768 133.256V134.648C92.7968 135.416 92.0128 135.896 91.0048 135.896C90.1728 135.896 89.6768 135.464 89.6768 134.84ZM101.284 135.768C99.7161 135.768 98.5961 134.568 98.5961 132.968C98.5961 131.384 99.7161 130.168 101.268 130.168C102.196 130.168 102.932 130.616 103.38 131.24L104.676 130.248C103.94 129.256 102.74 128.616 101.268 128.616C98.5641 128.616 96.8681 130.616 96.8681 132.968C96.8681 135.32 98.5641 137.32 101.268 137.32C102.756 137.32 103.94 136.68 104.676 135.688L103.38 134.696C102.932 135.32 102.196 135.768 101.284 135.768ZM106.399 137H108.047V131.624C108.463 130.936 109.135 130.392 110.159 130.392C110.495 130.392 110.751 130.44 111.007 130.504V128.888C110.799 128.824 110.559 128.776 110.303 128.776C109.311 128.776 108.607 129.224 108.047 129.848V128.936H106.399V137ZM116.751 127.656L118.639 125H116.815L115.151 127.656H116.751ZM119.679 135.688L118.479 134.728C117.983 135.4 117.167 135.832 116.191 135.832C114.639 135.832 113.567 134.92 113.455 133.16H119.407C119.471 132.92 119.519 132.552 119.519 132.184C119.519 130.136 118.079 128.616 115.855 128.616C113.295 128.616 111.759 130.552 111.759 132.968C111.759 135.32 113.407 137.32 116.191 137.32C117.695 137.32 118.927 136.696 119.679 135.688ZM115.823 129.992C117.119 129.992 117.839 130.92 117.871 131.928H113.535C113.791 130.68 114.623 129.992 115.823 129.992ZM128.913 135.688L127.713 134.728C127.217 135.4 126.401 135.832 125.425 135.832C123.873 135.832 122.801 134.92 122.689 133.16H128.641C128.705 132.92 128.753 132.552 128.753 132.184C128.753 130.136 127.313 128.616 125.089 128.616C122.529 128.616 120.993 130.552 120.993 132.968C120.993 135.32 122.641 137.32 125.425 137.32C126.929 137.32 128.161 136.696 128.913 135.688ZM125.057 129.992C126.353 129.992 127.073 130.92 127.105 131.928H122.769C123.025 130.68 123.857 129.992 125.057 129.992ZM130.021 135.864C130.773 136.776 131.781 137.32 133.141 137.32C134.645 137.32 135.925 136.376 135.941 134.792C135.941 132.024 131.989 132.568 131.989 130.952C131.989 130.408 132.373 129.96 133.141 129.96C133.813 129.96 134.373 130.36 134.805 130.936L135.925 129.96C135.349 129.192 134.309 128.616 133.125 128.616C131.509 128.616 130.389 129.672 130.389 131C130.389 133.848 134.341 133.256 134.341 134.888C134.341 135.496 133.909 135.976 133.125 135.976C132.325 135.976 131.685 135.544 131.157 134.872L130.021 135.864ZM144.545 137.24C145.537 137.24 146.545 136.792 147.121 136.088V137H148.769V131.672C148.769 129.896 147.569 128.616 145.393 128.616C143.953 128.616 142.801 129.224 142.081 130.184L143.313 131.128C143.777 130.472 144.465 130.072 145.345 130.072C146.385 130.072 147.121 130.68 147.121 131.672V132.088L144.513 132.52C142.801 132.808 141.857 133.688 141.857 134.904C141.857 136.328 142.945 137.24 144.545 137.24ZM143.521 134.84C143.521 134.232 143.937 133.8 144.945 133.624L147.121 133.256V134.648C146.641 135.416 145.857 135.896 144.849 135.896C144.017 135.896 143.521 135.464 143.521 134.84ZM156.824 133.544C156.824 134.936 156.072 135.768 154.84 135.768C153.576 135.768 152.84 134.936 152.84 133.544V128.936H151.176V133.464C151.176 135.88 152.568 137.32 154.84 137.32C157.096 137.32 158.488 135.88 158.488 133.464V128.936H156.824V133.544ZM161.749 137L163.829 133.96L165.925 137H167.813L164.901 132.84L167.637 128.936H165.733L163.829 131.704L161.925 128.936H160.021L162.741 132.84L159.829 137H161.749ZM176.045 137.24C177.037 137.24 178.045 136.792 178.621 136.088V137H180.269V131.672C180.269 129.896 179.069 128.616 176.893 128.616C175.453 128.616 174.301 129.224 173.581 130.184L174.813 131.128C175.277 130.472 175.965 130.072 176.845 130.072C177.885 130.072 178.621 130.68 178.621 131.672V132.088L176.013 132.52C174.301 132.808 173.357 133.688 173.357 134.904C173.357 136.328 174.445 137.24 176.045 137.24ZM175.021 134.84C175.021 134.232 175.437 133.8 176.445 133.624L178.621 133.256V134.648C178.141 135.416 177.357 135.896 176.349 135.896C175.517 135.896 175.021 135.464 175.021 134.84ZM182.852 137H184.5V131.624C184.916 130.936 185.588 130.392 186.612 130.392C186.948 130.392 187.204 130.44 187.46 130.504V128.888C187.252 128.824 187.012 128.776 186.756 128.776C185.764 128.776 185.06 129.224 184.5 129.848V128.936H182.852V137ZM190.191 134.2C190.191 136.168 191.183 137.16 193.071 137.16C193.695 137.16 194.143 137.08 194.527 136.92V135.464C194.239 135.576 193.871 135.64 193.327 135.64C192.431 135.64 191.855 135.288 191.855 134.2V130.424H194.527V128.936H191.855V126.92H190.191V128.936H188.671V130.424H190.191V134.2ZM197.324 127.144C197.932 127.144 198.444 126.632 198.444 126.024C198.444 125.416 197.932 124.904 197.324 124.904C196.716 124.904 196.204 125.416 196.204 126.024C196.204 126.632 196.716 127.144 197.324 127.144ZM196.492 137H198.14V128.936H196.492V137ZM199.942 135.864C200.694 136.776 201.702 137.32 203.062 137.32C204.566 137.32 205.846 136.376 205.862 134.792C205.862 132.024 201.91 132.568 201.91 130.952C201.91 130.408 202.294 129.96 203.062 129.96C203.734 129.96 204.294 130.36 204.726 130.936L205.846 129.96C205.27 129.192 204.23 128.616 203.046 128.616C201.43 128.616 200.31 129.672 200.31 131C200.31 133.848 204.262 133.256 204.262 134.888C204.262 135.496 203.83 135.976 203.046 135.976C202.246 135.976 201.606 135.544 201.078 134.872L199.942 135.864ZM208.504 134.2C208.504 136.168 209.496 137.16 211.384 137.16C212.008 137.16 212.456 137.08 212.84 136.92V135.464C212.552 135.576 212.184 135.64 211.64 135.64C210.744 135.64 210.168 135.288 210.168 134.2V130.424H212.84V128.936H210.168V126.92H208.504V128.936H206.984V130.424H208.504V134.2ZM221.929 135.688L220.729 134.728C220.233 135.4 219.417 135.832 218.441 135.832C216.889 135.832 215.817 134.92 215.705 133.16H221.657C221.721 132.92 221.769 132.552 221.769 132.184C221.769 130.136 220.329 128.616 218.105 128.616C215.545 128.616 214.009 130.552 214.009 132.968C214.009 135.32 215.657 137.32 218.441 137.32C219.945 137.32 221.177 136.696 221.929 135.688ZM218.073 129.992C219.369 129.992 220.089 130.92 220.121 131.928H215.785C216.041 130.68 216.873 129.992 218.073 129.992ZM223.036 135.864C223.788 136.776 224.796 137.32 226.156 137.32C227.66 137.32 228.94 136.376 228.956 134.792C228.956 132.024 225.004 132.568 225.004 130.952C225.004 130.408 225.388 129.96 226.156 129.96C226.828 129.96 227.388 130.36 227.82 130.936L228.94 129.96C228.364 129.192 227.324 128.616 226.14 128.616C224.524 128.616 223.404 129.672 223.404 131C223.404 133.848 227.356 133.256 227.356 134.888C227.356 135.496 226.924 135.976 226.14 135.976C225.34 135.976 224.7 135.544 224.172 134.872L223.036 135.864ZM108.672 159H110.32V153.56C110.752 152.856 111.392 152.168 112.496 152.168C113.648 152.168 114.352 152.936 114.352 154.216V159H116.016V154.152C116.016 151.816 114.672 150.616 112.88 150.616C111.728 150.616 110.928 151.08 110.32 151.72V147H108.672V159ZM122.322 150.616C119.714 150.616 117.938 152.584 117.938 154.968C117.938 157.352 119.714 159.32 122.322 159.32C124.946 159.32 126.706 157.352 126.706 154.968C126.706 152.584 124.946 150.616 122.322 150.616ZM122.338 157.768C120.786 157.768 119.666 156.52 119.666 154.968C119.666 153.416 120.786 152.168 122.338 152.168C123.858 152.168 124.978 153.4 124.978 154.968C124.978 156.504 123.858 157.768 122.338 157.768ZM128.766 159H130.414V153.56C130.798 152.872 131.406 152.168 132.43 152.168C133.486 152.168 134.126 152.872 134.126 154.056V159H135.79V153.992C135.79 153.832 135.79 153.688 135.774 153.544C136.206 152.776 136.83 152.168 137.79 152.168C138.83 152.168 139.486 152.872 139.486 154.056V159H141.15V153.992C141.15 151.768 139.854 150.616 138.174 150.616C136.782 150.616 135.982 151.272 135.358 152.072C134.846 151.112 133.918 150.616 132.814 150.616C131.742 150.616 130.99 151.064 130.414 151.688V150.936H128.766V159ZM143.703 159H145.351V153.56C145.735 152.872 146.343 152.168 147.367 152.168C148.423 152.168 149.063 152.872 149.063 154.056V159H150.727V153.992C150.727 153.832 150.727 153.688 150.711 153.544C151.143 152.776 151.767 152.168 152.727 152.168C153.767 152.168 154.423 152.872 154.423 154.056V159H156.087V153.992C156.087 151.768 154.791 150.616 153.111 150.616C151.719 150.616 150.919 151.272 150.295 152.072C149.783 151.112 148.855 150.616 147.751 150.616C146.679 150.616 145.927 151.064 145.351 151.688V150.936H143.703V159ZM165.921 157.688L164.721 156.728C164.225 157.4 163.409 157.832 162.433 157.832C160.881 157.832 159.809 156.92 159.697 155.16H165.649C165.713 154.92 165.761 154.552 165.761 154.184C165.761 152.136 164.321 150.616 162.097 150.616C159.537 150.616 158.001 152.552 158.001 154.968C158.001 157.32 159.649 159.32 162.433 159.32C163.937 159.32 165.169 158.696 165.921 157.688ZM162.065 151.992C163.361 151.992 164.081 152.92 164.113 153.928H159.777C160.033 152.68 160.865 151.992 162.065 151.992ZM167.028 157.864C167.78 158.776 168.788 159.32 170.148 159.32C171.652 159.32 172.932 158.376 172.948 156.792C172.948 154.024 168.996 154.568 168.996 152.952C168.996 152.408 169.38 151.96 170.148 151.96C170.82 151.96 171.38 152.36 171.812 152.936L172.932 151.96C172.356 151.192 171.316 150.616 170.132 150.616C168.516 150.616 167.396 151.672 167.396 153C167.396 155.848 171.348 155.256 171.348 156.888C171.348 157.496 170.916 157.976 170.132 157.976C169.332 157.976 168.692 157.544 168.164 156.872L167.028 157.864Z" fill="black"/>
<path d="M68.4899 287.724C69.3005 288.734 70.3103 289.252 71.6789 289.252C73.3265 289.252 74.5622 288.229 74.5622 286.622C74.5622 283.526 70.1641 284.004 70.1641 281.918C70.1641 281.121 70.7488 280.549 71.6656 280.549C72.4628 280.549 73.1139 280.988 73.6587 281.772L74.6021 280.948C73.9111 280.031 72.9544 279.433 71.6523 279.433C70.0313 279.433 68.8886 280.563 68.8886 281.944C68.8886 285.014 73.2999 284.562 73.2999 286.661C73.2999 287.512 72.702 288.136 71.6656 288.136C70.8019 288.136 70.0578 287.698 69.42 286.874L68.4899 287.724ZM82.6014 287.897L81.7643 287.246C81.3258 287.844 80.595 288.243 79.7313 288.243C78.2963 288.243 77.2732 287.273 77.2333 285.665H82.3755C82.4153 285.479 82.4552 285.226 82.4552 284.961C82.4552 283.313 81.2726 282.038 79.4523 282.038C77.3795 282.038 76.0773 283.619 76.0773 285.652C76.0773 287.605 77.4725 289.266 79.7313 289.266C80.9803 289.266 81.9769 288.734 82.6014 287.897ZM79.4257 282.994C80.6083 282.994 81.2859 283.818 81.3258 284.801H77.3131C77.5522 283.645 78.3229 282.994 79.4257 282.994ZM88.9293 286.13C88.9293 287.445 88.2118 288.203 87.0957 288.203C85.953 288.203 85.2487 287.445 85.2487 286.13V282.303H84.1193V286.09C84.1193 288.096 85.2753 289.266 87.0824 289.266C88.9027 289.266 90.0587 288.096 90.0587 286.09V282.303H88.9293V286.13ZM92.2845 289H93.4139V279.035H92.2845V289ZM99.276 289L99.3291 288.787L100.552 288.256L101.734 281.559L99.5018 282.689L99.5949 282.224L102.771 280.23H103.036L101.615 288.256L102.545 288.787L102.505 289H99.276ZM104.033 290.594L108.723 279.035H109.401L104.71 290.594H104.033ZM111.516 289L111.968 286.436H108.5L108.54 286.17L113.868 280.23H114.133L113.177 285.638H114.678L114.545 286.436H113.031L112.579 289H111.516ZM109.789 285.638H112.114L112.698 282.303L109.789 285.638ZM119.455 285.652C119.455 287.605 120.797 289.266 122.897 289.266C123.893 289.266 124.677 288.88 125.275 288.203V289H126.405V279.035H125.275V283.1C124.677 282.423 123.893 282.038 122.897 282.038C120.797 282.038 119.455 283.698 119.455 285.652ZM120.651 285.652C120.651 284.23 121.608 283.1 123.03 283.1C123.946 283.1 124.757 283.539 125.275 284.336V286.967C124.784 287.751 123.96 288.203 123.03 288.203C121.608 288.203 120.651 287.073 120.651 285.652ZM134.738 287.897L133.901 287.246C133.462 287.844 132.732 288.243 131.868 288.243C130.433 288.243 129.41 287.273 129.37 285.665H134.512C134.552 285.479 134.592 285.226 134.592 284.961C134.592 283.313 133.409 282.038 131.589 282.038C129.516 282.038 128.214 283.619 128.214 285.652C128.214 287.605 129.609 289.266 131.868 289.266C133.117 289.266 134.114 288.734 134.738 287.897ZM131.562 282.994C132.745 282.994 133.423 283.818 133.462 284.801H129.45C129.689 283.645 130.46 282.994 131.562 282.994ZM135.737 288.083C136.348 288.841 137.185 289.266 138.248 289.266C139.497 289.266 140.493 288.482 140.507 287.233C140.507 284.947 137.145 285.426 137.145 283.924C137.145 283.406 137.53 282.981 138.248 282.981C138.832 282.981 139.337 283.3 139.696 283.805L140.48 283.14C140.015 282.489 139.191 282.038 138.235 282.038C136.946 282.038 136.055 282.901 136.055 283.951C136.055 286.316 139.404 285.784 139.404 287.286C139.404 287.871 138.979 288.322 138.235 288.322C137.557 288.322 136.999 287.99 136.534 287.406L135.737 288.083ZM149.009 288.203C147.561 288.203 146.538 287.087 146.538 285.652C146.538 284.23 147.561 283.1 148.996 283.1C149.833 283.1 150.51 283.499 150.922 284.084L151.813 283.406C151.188 282.582 150.205 282.038 148.996 282.038C146.777 282.038 145.355 283.698 145.355 285.652C145.355 287.605 146.777 289.266 148.996 289.266C150.218 289.266 151.188 288.734 151.813 287.897L150.922 287.22C150.51 287.804 149.833 288.203 149.009 288.203ZM156.158 282.038C153.992 282.038 152.531 283.698 152.531 285.652C152.531 287.605 153.992 289.266 156.158 289.266C158.311 289.266 159.785 287.605 159.785 285.652C159.785 283.698 158.311 282.038 156.158 282.038ZM156.171 288.203C154.736 288.203 153.713 287.047 153.713 285.652C153.713 284.256 154.736 283.1 156.171 283.1C157.566 283.1 158.59 284.256 158.59 285.652C158.59 287.033 157.566 288.203 156.171 288.203ZM161.601 289H162.731V279.035H161.601V289ZM165.118 289H166.247V279.035H165.118V289ZM174.587 287.897L173.75 287.246C173.311 287.844 172.58 288.243 171.717 288.243C170.282 288.243 169.258 287.273 169.219 285.665H174.361C174.401 285.479 174.44 285.226 174.44 284.961C174.44 283.313 173.258 282.038 171.438 282.038C169.365 282.038 168.063 283.619 168.063 285.652C168.063 287.605 169.458 289.266 171.717 289.266C172.966 289.266 173.962 288.734 174.587 287.897ZM171.411 282.994C172.594 282.994 173.271 283.818 173.311 284.801H169.298C169.538 283.645 170.308 282.994 171.411 282.994ZM179.411 288.203C177.963 288.203 176.94 287.087 176.94 285.652C176.94 284.23 177.963 283.1 179.398 283.1C180.235 283.1 180.913 283.499 181.325 284.084L182.215 283.406C181.59 282.582 180.607 282.038 179.398 282.038C177.179 282.038 175.757 283.698 175.757 285.652C175.757 287.605 177.179 289.266 179.398 289.266C180.62 289.266 181.59 288.734 182.215 287.897L181.325 287.22C180.913 287.804 180.235 288.203 179.411 288.203ZM184.123 286.754C184.123 288.389 184.96 289.133 186.448 289.133C186.927 289.133 187.285 289.08 187.604 288.947V287.937C187.352 288.043 187.046 288.096 186.608 288.096C185.797 288.096 185.266 287.804 185.266 286.754V283.326H187.591V282.303H185.266V280.629H184.123V282.303H182.861V283.326H184.123V286.754ZM189.889 280.563C190.327 280.563 190.673 280.204 190.673 279.765C190.673 279.34 190.327 278.981 189.889 278.981C189.45 278.981 189.092 279.34 189.092 279.765C189.092 280.204 189.45 280.563 189.889 280.563ZM189.317 289H190.447V282.303H189.317V289ZM195.89 282.038C193.724 282.038 192.262 283.698 192.262 285.652C192.262 287.605 193.724 289.266 195.89 289.266C198.042 289.266 199.517 287.605 199.517 285.652C199.517 283.698 198.042 282.038 195.89 282.038ZM195.903 288.203C194.468 288.203 193.445 287.047 193.445 285.652C193.445 284.256 194.468 283.1 195.903 283.1C197.298 283.1 198.321 284.256 198.321 285.652C198.321 287.033 197.298 288.203 195.903 288.203ZM201.333 289H202.462V284.363C202.888 283.659 203.499 283.1 204.469 283.1C205.505 283.1 206.183 283.791 206.183 284.987V289H207.312V284.947C207.312 283.047 206.196 282.038 204.695 282.038C203.698 282.038 203.007 282.463 202.462 283.061V282.303H201.333V289ZM208.868 288.083C209.479 288.841 210.316 289.266 211.379 289.266C212.628 289.266 213.625 288.482 213.638 287.233C213.638 284.947 210.276 285.426 210.276 283.924C210.276 283.406 210.662 282.981 211.379 282.981C211.964 282.981 212.469 283.3 212.828 283.805L213.612 283.14C213.147 282.489 212.323 282.038 211.366 282.038C210.077 282.038 209.187 282.901 209.187 283.951C209.187 286.316 212.535 285.784 212.535 287.286C212.535 287.871 212.11 288.322 211.366 288.322C210.688 288.322 210.13 287.99 209.665 287.406L208.868 288.083ZM34.2049 312.269H35.3343V308.203C35.9323 308.88 36.7162 309.266 37.7127 309.266C39.8121 309.266 41.1541 307.605 41.1541 305.652C41.1541 303.698 39.8121 302.038 37.7127 302.038C36.7162 302.038 35.9323 302.423 35.3343 303.1V302.303H34.2049V312.269ZM37.5799 303.1C39.0016 303.1 39.9716 304.23 39.9716 305.652C39.9716 307.073 39.0016 308.203 37.5799 308.203C36.6631 308.203 35.8525 307.764 35.3343 306.954V304.349C35.8393 303.552 36.6498 303.1 37.5799 303.1ZM42.9766 309H44.106V304.363C44.5312 303.672 45.1291 303.1 46.1123 303.1C47.162 303.1 47.8264 303.791 47.8264 304.987V309H48.9558V304.947C48.9558 303.047 47.8397 302.038 46.3382 302.038C45.3417 302.038 44.6507 302.463 44.106 303.061V299.035H42.9766V309ZM54.2852 302.038C52.1194 302.038 50.6578 303.698 50.6578 305.652C50.6578 307.605 52.1194 309.266 54.2852 309.266C56.4377 309.266 57.9126 307.605 57.9126 305.652C57.9126 303.698 56.4377 302.038 54.2852 302.038ZM54.2985 308.203C52.8635 308.203 51.8404 307.047 51.8404 305.652C51.8404 304.256 52.8635 303.1 54.2985 303.1C55.6936 303.1 56.7168 304.256 56.7168 305.652C56.7168 307.033 55.6936 308.203 54.2985 308.203ZM60.0098 306.754C60.0098 308.389 60.8469 309.133 62.3351 309.133C62.8134 309.133 63.1722 309.08 63.4911 308.947V307.937C63.2386 308.043 62.933 308.096 62.4945 308.096C61.684 308.096 61.1525 307.804 61.1525 306.754V303.326H63.4778V302.303H61.1525V300.629H60.0098V302.303H58.7475V303.326H60.0098V306.754ZM68.1304 302.038C65.9645 302.038 64.503 303.698 64.503 305.652C64.503 307.605 65.9645 309.266 68.1304 309.266C70.2829 309.266 71.7578 307.605 71.7578 305.652C71.7578 303.698 70.2829 302.038 68.1304 302.038ZM68.1436 308.203C66.7086 308.203 65.6855 307.047 65.6855 305.652C65.6855 304.256 66.7086 303.1 68.1436 303.1C69.5388 303.1 70.5619 304.256 70.5619 305.652C70.5619 307.033 69.5388 308.203 68.1436 308.203ZM72.7509 310.209C72.7509 311.551 74.053 312.322 76.0328 312.322C78.0392 312.322 79.4476 311.272 79.4476 309.864C79.4476 308.668 78.6238 307.804 76.8566 307.804H74.9433C74.5314 307.804 74.3852 307.605 74.3852 307.326C74.3852 307.073 74.5447 306.834 74.8237 306.635C75.1027 306.715 75.4216 306.768 75.7538 306.768C77.3615 306.768 78.3581 305.678 78.3581 304.403C78.3581 304.004 78.2651 303.619 78.079 303.287H79.5274V302.303H77.0426C76.6839 302.131 76.2454 302.024 75.7538 302.024C74.1593 302.024 73.1495 303.114 73.1495 304.403C73.1495 305.147 73.495 305.824 74.0796 306.263C73.5614 306.595 73.2824 307.033 73.2824 307.565C73.2824 307.924 73.4418 308.282 73.7474 308.522C73.0831 308.987 72.7509 309.531 72.7509 310.209ZM75.7671 305.878C74.7705 305.878 74.2258 305.226 74.2258 304.403C74.2258 303.579 74.7705 302.914 75.7671 302.914C76.737 302.914 77.2951 303.579 77.2951 304.403C77.2951 305.213 76.737 305.878 75.7671 305.878ZM73.8537 310.076C73.8537 309.545 74.1328 309.146 74.5978 308.801H76.7636C77.9595 308.801 78.3182 309.306 78.3182 309.943C78.3182 310.82 77.428 311.378 76.0195 311.378C74.6908 311.378 73.8537 310.887 73.8537 310.076ZM80.9048 309H82.0342V304.403C82.4461 303.725 83.0174 303.273 83.8944 303.273C84.1601 303.273 84.3594 303.3 84.5587 303.353V302.25C84.3993 302.197 84.2 302.17 83.9874 302.17C83.137 302.17 82.5258 302.556 82.0342 303.14V302.303H80.9048V309ZM87.7078 309.186C88.5715 309.186 89.4484 308.801 89.9533 308.15V309H91.0828V304.509C91.0828 303.034 90.0729 302.038 88.3722 302.038C87.2029 302.038 86.2595 302.529 85.6749 303.326L86.5252 303.977C86.9371 303.406 87.5616 303.047 88.3323 303.047C89.289 303.047 89.9533 303.579 89.9533 304.509V304.974L87.6945 305.346C86.2728 305.585 85.5021 306.303 85.5021 307.313C85.5021 308.455 86.3924 309.186 87.7078 309.186ZM86.6448 307.273C86.6448 306.701 87.0567 306.289 87.9735 306.13L89.9533 305.798V307.113C89.5149 307.831 88.7841 308.256 87.8938 308.256C87.1099 308.256 86.6448 307.844 86.6448 307.273ZM93.3485 312.269H94.4779V308.203C95.0759 308.88 95.8598 309.266 96.8563 309.266C98.9557 309.266 100.298 307.605 100.298 305.652C100.298 303.698 98.9557 302.038 96.8563 302.038C95.8598 302.038 95.0759 302.423 94.4779 303.1V302.303H93.3485V312.269ZM96.7235 303.1C98.1452 303.1 99.1152 304.23 99.1152 305.652C99.1152 307.073 98.1452 308.203 96.7235 308.203C95.8067 308.203 94.9961 307.764 94.4779 306.954V304.349C94.9829 303.552 95.7934 303.1 96.7235 303.1ZM102.12 309H103.25V304.363C103.675 303.672 104.273 303.1 105.256 303.1C106.306 303.1 106.97 303.791 106.97 304.987V309H108.099V304.947C108.099 303.047 106.983 302.038 105.482 302.038C104.485 302.038 103.794 302.463 103.25 303.061V299.035H102.12V309ZM110.944 300.563C111.383 300.563 111.728 300.204 111.728 299.765C111.728 299.34 111.383 298.981 110.944 298.981C110.506 298.981 110.147 299.34 110.147 299.765C110.147 300.204 110.506 300.563 110.944 300.563ZM110.373 309H111.502V302.303H110.373V309ZM113.318 305.652C113.318 307.605 114.66 309.266 116.759 309.266C117.756 309.266 118.54 308.88 119.138 308.189V312.269H120.267V302.303H119.138V303.114C118.54 302.423 117.756 302.038 116.759 302.038C114.66 302.038 113.318 303.698 113.318 305.652ZM114.5 305.652C114.5 304.23 115.47 303.1 116.879 303.1C117.809 303.1 118.619 303.539 119.138 304.349V306.954C118.633 307.751 117.822 308.203 116.879 308.203C115.47 308.203 114.5 307.073 114.5 305.652ZM127.325 306.13C127.325 307.445 126.607 308.203 125.491 308.203C124.348 308.203 123.644 307.445 123.644 306.13V302.303H122.515V306.09C122.515 308.096 123.671 309.266 125.478 309.266C127.298 309.266 128.454 308.096 128.454 306.09V302.303H127.325V306.13ZM136.633 307.897L135.795 307.246C135.357 307.844 134.626 308.243 133.762 308.243C132.327 308.243 131.304 307.273 131.264 305.665H136.407C136.446 305.479 136.486 305.226 136.486 304.961C136.486 303.313 135.304 302.038 133.483 302.038C131.411 302.038 130.108 303.619 130.108 305.652C130.108 307.605 131.504 309.266 133.762 309.266C135.011 309.266 136.008 308.734 136.633 307.897ZM133.457 302.994C134.639 302.994 135.317 303.818 135.357 304.801H131.344C131.583 303.645 132.354 302.994 133.457 302.994ZM137.631 308.083C138.242 308.841 139.079 309.266 140.142 309.266C141.391 309.266 142.388 308.482 142.401 307.233C142.401 304.947 139.039 305.426 139.039 303.924C139.039 303.406 139.425 302.981 140.142 302.981C140.727 302.981 141.232 303.3 141.591 303.805L142.375 303.14C141.909 302.489 141.086 302.038 140.129 302.038C138.84 302.038 137.95 302.901 137.95 303.951C137.95 306.316 141.298 305.784 141.298 307.286C141.298 307.871 140.873 308.322 140.129 308.322C139.451 308.322 138.893 307.99 138.428 307.406L137.631 308.083ZM147.249 305.652C147.249 307.605 148.592 309.266 150.691 309.266C151.687 309.266 152.471 308.88 153.069 308.203V309H154.199V299.035H153.069V303.1C152.471 302.423 151.687 302.038 150.691 302.038C148.592 302.038 147.249 303.698 147.249 305.652ZM148.445 305.652C148.445 304.23 149.402 303.1 150.824 303.1C151.741 303.1 152.551 303.539 153.069 304.336V306.967C152.578 307.751 151.754 308.203 150.824 308.203C149.402 308.203 148.445 307.073 148.445 305.652ZM161.243 306.13C161.243 307.445 160.526 308.203 159.41 308.203C158.267 308.203 157.563 307.445 157.563 306.13V302.303H156.433V306.09C156.433 308.096 157.589 309.266 159.396 309.266C161.217 309.266 162.373 308.096 162.373 306.09V302.303H161.243V306.13ZM172.551 308.096C170.452 308.096 168.95 306.422 168.95 304.349C168.95 302.277 170.452 300.602 172.551 300.602C173.8 300.602 174.823 301.214 175.448 302.117L176.444 301.347C175.594 300.204 174.226 299.433 172.551 299.433C169.641 299.433 167.662 301.692 167.662 304.349C167.662 307.007 169.641 309.266 172.551 309.266C174.226 309.266 175.594 308.508 176.444 307.352L175.448 306.582C174.823 307.485 173.8 308.096 172.551 308.096ZM178.515 309H179.764V301.227L185.026 309H186.66V299.699H185.411V307.472L180.149 299.699H178.515V309ZM188.493 309H189.822L190.898 306.263H195.177L196.253 309H197.582L193.875 299.699H192.2L188.493 309ZM191.31 305.187L193.037 300.789L194.765 305.187H191.31ZM199.419 309H200.668V304.921H202.143C204.003 304.921 205.159 303.911 205.159 302.317C205.159 300.722 204.003 299.699 202.143 299.699H199.419V309ZM202.17 300.762C203.233 300.762 203.87 301.347 203.87 302.29C203.87 303.287 203.233 303.858 202.17 303.858H200.668V300.762H202.17ZM209.142 309L209.208 308.668C210.13 307.773 210.891 307.016 211.494 306.396C212.105 305.767 212.592 305.24 212.955 304.815C213.319 304.389 213.589 304.026 213.766 303.725C213.952 303.424 214.072 303.154 214.125 302.914C214.187 302.666 214.218 302.41 214.218 302.144C214.218 301.701 214.076 301.355 213.793 301.107C213.509 300.851 213.195 300.722 212.849 300.722C212.406 300.722 212.07 300.846 211.839 301.094C211.609 301.333 211.45 301.696 211.361 302.184L211.281 302.635L211.162 302.768H210.683C210.515 302.768 210.391 302.755 210.311 302.728C210.232 302.702 210.214 302.565 210.258 302.317C210.302 302.086 210.382 301.847 210.497 301.599C210.612 301.342 210.825 301.116 211.135 300.921C211.383 300.762 211.613 300.62 211.826 300.496C212.039 300.372 212.26 300.275 212.49 300.204C212.73 300.133 213.017 300.098 213.354 300.098C213.735 300.098 214.072 300.186 214.364 300.363C214.665 300.532 214.9 300.766 215.068 301.068C215.245 301.36 215.334 301.688 215.334 302.051C215.334 302.325 215.294 302.596 215.214 302.861C215.143 303.118 215.011 303.397 214.816 303.698C214.621 303.991 214.346 304.336 213.992 304.735C213.638 305.125 213.186 305.59 212.637 306.13C212.087 306.661 211.419 307.295 210.63 308.03H213.686L214.523 306.622H214.736L214.191 309H209.142ZM218.709 309L219.161 306.436H215.693L215.732 306.17L221.061 300.23H221.326L220.37 305.638H221.871L221.738 306.436H220.224L219.772 309H218.709ZM216.981 305.638H219.307L219.891 302.303L216.981 305.638ZM224.529 304.416C224.077 304.416 223.731 304.252 223.492 303.924C223.253 303.588 223.133 303.131 223.133 302.556C223.133 301.953 223.231 301.382 223.426 300.842C223.621 300.301 223.891 299.867 224.236 299.54C224.582 299.203 224.989 299.035 225.459 299.035C225.919 299.035 226.269 299.203 226.508 299.54C226.748 299.867 226.867 300.323 226.867 300.908C226.867 301.51 226.77 302.082 226.575 302.622C226.38 303.154 226.105 303.588 225.751 303.924C225.406 304.252 224.998 304.416 224.529 304.416ZM224.183 302.808C224.183 303.189 224.219 303.49 224.289 303.712C224.369 303.933 224.502 304.044 224.688 304.044C224.874 304.044 225.038 303.938 225.18 303.725C225.33 303.512 225.45 303.238 225.538 302.901C225.636 302.556 225.707 302.184 225.751 301.785C225.804 301.386 225.831 301.001 225.831 300.629C225.831 300.248 225.791 299.951 225.711 299.739C225.64 299.517 225.507 299.407 225.313 299.407C225.126 299.407 224.963 299.513 224.821 299.726C224.679 299.938 224.56 300.213 224.462 300.549C224.374 300.886 224.303 301.254 224.25 301.652C224.205 302.051 224.183 302.436 224.183 302.808ZM223.173 308.801L231.132 299.035L231.557 299.367L223.598 309.133L223.173 308.801ZM229.272 309.133C228.82 309.133 228.475 308.969 228.236 308.641C227.997 308.305 227.877 307.848 227.877 307.273C227.877 306.67 227.974 306.099 228.169 305.559C228.364 305.018 228.634 304.584 228.98 304.256C229.325 303.92 229.733 303.752 230.202 303.752C230.663 303.752 231.013 303.92 231.252 304.256C231.491 304.584 231.611 305.04 231.611 305.625C231.611 306.227 231.513 306.799 231.318 307.339C231.123 307.871 230.849 308.305 230.495 308.641C230.149 308.969 229.742 309.133 229.272 309.133ZM228.927 307.525C228.927 307.906 228.962 308.207 229.033 308.429C229.113 308.65 229.246 308.761 229.432 308.761C229.618 308.761 229.781 308.655 229.923 308.442C230.074 308.229 230.193 307.955 230.282 307.618C230.379 307.273 230.45 306.901 230.495 306.502C230.548 306.103 230.574 305.718 230.574 305.346C230.574 304.965 230.534 304.668 230.455 304.456C230.384 304.234 230.251 304.124 230.056 304.124C229.87 304.124 229.706 304.23 229.564 304.442C229.423 304.655 229.303 304.93 229.206 305.266C229.117 305.603 229.046 305.971 228.993 306.369C228.949 306.768 228.927 307.153 228.927 307.525ZM242.878 307.897L242.041 307.246C241.603 307.844 240.872 308.243 240.008 308.243C238.573 308.243 237.55 307.273 237.51 305.665H242.652C242.692 305.479 242.732 305.226 242.732 304.961C242.732 303.313 241.549 302.038 239.729 302.038C237.656 302.038 236.354 303.619 236.354 305.652C236.354 307.605 237.749 309.266 240.008 309.266C241.257 309.266 242.254 308.734 242.878 307.897ZM239.703 302.994C240.885 302.994 241.563 303.818 241.603 304.801H237.59C237.829 303.645 238.6 302.994 239.703 302.994ZM244.993 306.754C244.993 308.389 245.83 309.133 247.318 309.133C247.796 309.133 248.155 309.08 248.474 308.947V307.937C248.221 308.043 247.916 308.096 247.477 308.096C246.667 308.096 246.135 307.804 246.135 306.754V303.326H248.46V302.303H246.135V300.629H244.993V302.303H243.73V303.326H244.993V306.754ZM30.8373 325.652C30.8373 327.605 32.1793 329.266 34.2787 329.266C35.2752 329.266 36.0592 328.88 36.6571 328.203V329H37.7865V319.035H36.6571V323.1C36.0592 322.423 35.2752 322.038 34.2787 322.038C32.1793 322.038 30.8373 323.698 30.8373 325.652ZM32.0331 325.652C32.0331 324.23 32.9898 323.1 34.4116 323.1C35.3284 323.1 36.1389 323.539 36.6571 324.336V326.967C36.1655 327.751 35.3417 328.203 34.4116 328.203C32.9898 328.203 32.0331 327.073 32.0331 325.652ZM44.8311 326.13C44.8311 327.445 44.1136 328.203 42.9975 328.203C41.8548 328.203 41.1506 327.445 41.1506 326.13V322.303H40.0211V326.09C40.0211 328.096 41.1771 329.266 42.9842 329.266C44.8045 329.266 45.9605 328.096 45.9605 326.09V322.303H44.8311V326.13ZM56.1391 328.096C54.0398 328.096 52.5383 326.422 52.5383 324.349C52.5383 322.277 54.0398 320.602 56.1391 320.602C57.3881 320.602 58.4112 321.214 59.0357 322.117L60.0323 321.347C59.1819 320.204 57.8133 319.433 56.1391 319.433C53.2292 319.433 51.2494 321.692 51.2494 324.349C51.2494 327.007 53.2292 329.266 56.1391 329.266C57.8133 329.266 59.1819 328.508 60.0323 327.352L59.0357 326.582C58.4112 327.485 57.3881 328.096 56.1391 328.096ZM67.6468 327.897L66.8097 327.246C66.3712 327.844 65.6404 328.243 64.7767 328.243C63.3417 328.243 62.3186 327.273 62.2788 325.665H67.4209C67.4608 325.479 67.5006 325.226 67.5006 324.961C67.5006 323.313 66.3181 322.038 64.4977 322.038C62.4249 322.038 61.1228 323.619 61.1228 325.652C61.1228 327.605 62.5179 329.266 64.7767 329.266C66.0257 329.266 67.0223 328.734 67.6468 327.897ZM64.4711 322.994C65.6537 322.994 66.3313 323.818 66.3712 324.801H62.3585C62.5976 323.645 63.3683 322.994 64.4711 322.994ZM69.4147 329H70.5441V324.363C70.9693 323.659 71.5805 323.1 72.5505 323.1C73.5869 323.1 74.2645 323.791 74.2645 324.987V329H75.3939V324.947C75.3939 323.047 74.2778 322.038 72.7764 322.038C71.7798 322.038 71.0889 322.463 70.5441 323.061V322.303H69.4147V329ZM78.0526 326.754C78.0526 328.389 78.8897 329.133 80.3779 329.133C80.8562 329.133 81.215 329.08 81.5339 328.947V327.937C81.2814 328.043 80.9758 328.096 80.5373 328.096C79.7268 328.096 79.1953 327.804 79.1953 326.754V323.326H81.5206V322.303H79.1953V320.629H78.0526V322.303H76.7903V323.326H78.0526V326.754ZM83.2469 329H84.3763V324.403C84.7882 323.725 85.3595 323.273 86.2365 323.273C86.5022 323.273 86.7016 323.3 86.9009 323.353V322.25C86.7414 322.197 86.5421 322.17 86.3295 322.17C85.4791 322.17 84.8679 322.556 84.3763 323.14V322.303H83.2469V329ZM94.0784 327.897L93.2414 327.246C92.8029 327.844 92.0721 328.243 91.2084 328.243C89.7734 328.243 88.7503 327.273 88.7104 325.665H93.8526C93.8924 325.479 93.9323 325.226 93.9323 324.961C93.9323 323.313 92.7497 322.038 90.9294 322.038C88.8566 322.038 87.5544 323.619 87.5544 325.652C87.5544 327.605 88.9496 329.266 91.2084 329.266C92.4574 329.266 93.4539 328.734 94.0784 327.897ZM90.9028 322.994C92.0854 322.994 92.763 323.818 92.8029 324.801H88.7901C89.0293 323.645 89.8 322.994 90.9028 322.994ZM99.7067 329H100.956V324.921H102.431C104.291 324.921 105.447 323.911 105.447 322.317C105.447 320.722 104.291 319.699 102.431 319.699H99.7067V329ZM102.457 320.762C103.52 320.762 104.158 321.347 104.158 322.29C104.158 323.287 103.52 323.858 102.457 323.858H100.956V320.762H102.457ZM109.711 322.038C107.545 322.038 106.084 323.698 106.084 325.652C106.084 327.605 107.545 329.266 109.711 329.266C111.864 329.266 113.339 327.605 113.339 325.652C113.339 323.698 111.864 322.038 109.711 322.038ZM109.725 328.203C108.29 328.203 107.266 327.047 107.266 325.652C107.266 324.256 108.29 323.1 109.725 323.1C111.12 323.1 112.143 324.256 112.143 325.652C112.143 327.033 111.12 328.203 109.725 328.203ZM115.154 329H116.284V324.363C116.669 323.672 117.24 323.1 118.157 323.1C119.127 323.1 119.738 323.738 119.738 324.854V329H120.868V324.815C120.868 324.655 120.855 324.509 120.841 324.363C121.28 323.579 121.878 323.1 122.728 323.1C123.685 323.1 124.309 323.738 124.309 324.854V329H125.439V324.815C125.439 322.994 124.389 322.038 122.954 322.038C121.798 322.038 121.094 322.596 120.562 323.326C120.15 322.476 119.353 322.038 118.383 322.038C117.453 322.038 116.789 322.449 116.284 323.034V322.303H115.154V329ZM127.715 332.269H128.844V328.203C129.442 328.88 130.226 329.266 131.223 329.266C133.322 329.266 134.664 327.605 134.664 325.652C134.664 323.698 133.322 322.038 131.223 322.038C130.226 322.038 129.442 322.423 128.844 323.1V322.303H127.715V332.269ZM131.09 323.1C132.512 323.1 133.482 324.23 133.482 325.652C133.482 327.073 132.512 328.203 131.09 328.203C130.173 328.203 129.362 327.764 128.844 326.954V324.349C129.349 323.552 130.16 323.1 131.09 323.1ZM137.058 320.563C137.496 320.563 137.842 320.204 137.842 319.765C137.842 319.34 137.496 318.981 137.058 318.981C136.619 318.981 136.261 319.34 136.261 319.765C136.261 320.204 136.619 320.563 137.058 320.563ZM136.487 329H137.616V322.303H136.487V329ZM139.432 325.652C139.432 327.605 140.774 329.266 142.873 329.266C143.87 329.266 144.653 328.88 145.251 328.203V329H146.381V319.035H145.251V323.1C144.653 322.423 143.87 322.038 142.873 322.038C140.774 322.038 139.432 323.698 139.432 325.652ZM140.627 325.652C140.627 324.23 141.584 323.1 143.006 323.1C143.923 323.1 144.733 323.539 145.251 324.336V326.967C144.76 327.751 143.936 328.203 143.006 328.203C141.584 328.203 140.627 327.073 140.627 325.652ZM151.818 322.038C149.652 322.038 148.19 323.698 148.19 325.652C148.19 327.605 149.652 329.266 151.818 329.266C153.97 329.266 155.445 327.605 155.445 325.652C155.445 323.698 153.97 322.038 151.818 322.038ZM151.831 328.203C150.396 328.203 149.373 327.047 149.373 325.652C149.373 324.256 150.396 323.1 151.831 323.1C153.226 323.1 154.249 324.256 154.249 325.652C154.249 327.033 153.226 328.203 151.831 328.203ZM161.925 326.13C161.925 327.445 161.207 328.203 160.091 328.203C158.948 328.203 158.244 327.445 158.244 326.13V322.303H157.115V326.09C157.115 328.096 158.271 329.266 160.078 329.266C161.898 329.266 163.054 328.096 163.054 326.09V322.303H161.925V326.13ZM167.652 329L167.718 328.668C168.64 327.773 169.401 327.016 170.004 326.396C170.615 325.767 171.102 325.24 171.465 324.815C171.829 324.389 172.099 324.026 172.276 323.725C172.462 323.424 172.581 323.154 172.635 322.914C172.697 322.666 172.728 322.41 172.728 322.144C172.728 321.701 172.586 321.355 172.302 321.107C172.019 320.851 171.705 320.722 171.359 320.722C170.916 320.722 170.58 320.846 170.349 321.094C170.119 321.333 169.959 321.696 169.871 322.184L169.791 322.635L169.672 322.768H169.193C169.025 322.768 168.901 322.755 168.821 322.728C168.741 322.702 168.724 322.565 168.768 322.317C168.812 322.086 168.892 321.847 169.007 321.599C169.122 321.342 169.335 321.116 169.645 320.921C169.893 320.762 170.123 320.62 170.336 320.496C170.549 320.372 170.77 320.275 171 320.204C171.239 320.133 171.527 320.098 171.864 320.098C172.245 320.098 172.581 320.186 172.874 320.363C173.175 320.532 173.41 320.766 173.578 321.068C173.755 321.36 173.844 321.688 173.844 322.051C173.844 322.325 173.804 322.596 173.724 322.861C173.653 323.118 173.52 323.397 173.326 323.698C173.131 323.991 172.856 324.336 172.502 324.735C172.147 325.125 171.696 325.59 171.146 326.13C170.597 326.661 169.928 327.295 169.14 328.03H172.196L173.033 326.622H173.246L172.701 329H167.652ZM176.993 329.133C176.55 329.133 176.138 329.058 175.757 328.907C175.385 328.748 175.088 328.526 174.867 328.243C174.645 327.95 174.535 327.614 174.535 327.233C174.535 326.701 174.734 326.219 175.133 325.784C175.54 325.35 176.129 324.934 176.9 324.536C176.421 324.181 176.085 323.858 175.89 323.566C175.695 323.264 175.598 322.919 175.598 322.529C175.598 322.095 175.726 321.692 175.983 321.32C176.24 320.948 176.577 320.651 176.993 320.43C177.418 320.208 177.879 320.098 178.375 320.098C178.791 320.098 179.159 320.186 179.478 320.363C179.805 320.532 180.058 320.762 180.235 321.054C180.421 321.347 180.514 321.67 180.514 322.024C180.514 322.423 180.354 322.808 180.036 323.18C179.726 323.543 179.181 323.929 178.401 324.336C178.818 324.629 179.137 324.903 179.358 325.16C179.579 325.417 179.73 325.674 179.81 325.931C179.898 326.179 179.943 326.444 179.943 326.728C179.943 327.144 179.81 327.534 179.544 327.897C179.287 328.26 178.933 328.557 178.481 328.787C178.038 329.018 177.542 329.133 176.993 329.133ZM176.674 322.117C176.674 322.454 176.758 322.773 176.926 323.074C177.095 323.375 177.445 323.698 177.976 324.044C178.525 323.743 178.911 323.455 179.132 323.18C179.354 322.906 179.464 322.551 179.464 322.117C179.464 321.639 179.349 321.276 179.119 321.028C178.888 320.78 178.556 320.656 178.122 320.656C177.635 320.656 177.272 320.797 177.033 321.081C176.794 321.364 176.674 321.71 176.674 322.117ZM175.611 327.02C175.611 327.525 175.748 327.915 176.023 328.189C176.297 328.455 176.687 328.588 177.192 328.588C177.741 328.588 178.167 328.433 178.468 328.123C178.778 327.804 178.933 327.401 178.933 326.914C178.933 326.444 178.787 326.064 178.494 325.771C178.211 325.47 177.803 325.142 177.272 324.788C176.811 325.089 176.461 325.35 176.222 325.572C175.983 325.793 175.819 326.015 175.731 326.236C175.651 326.458 175.611 326.719 175.611 327.02ZM183.039 324.416C182.587 324.416 182.241 324.252 182.002 323.924C181.763 323.588 181.643 323.131 181.643 322.556C181.643 321.953 181.741 321.382 181.936 320.842C182.131 320.301 182.401 319.867 182.746 319.54C183.092 319.203 183.499 319.035 183.969 319.035C184.429 319.035 184.779 319.203 185.018 319.54C185.257 319.867 185.377 320.323 185.377 320.908C185.377 321.51 185.28 322.082 185.085 322.622C184.89 323.154 184.615 323.588 184.261 323.924C183.915 324.252 183.508 324.416 183.039 324.416ZM182.693 322.808C182.693 323.189 182.728 323.49 182.799 323.712C182.879 323.933 183.012 324.044 183.198 324.044C183.384 324.044 183.548 323.938 183.69 323.725C183.84 323.512 183.96 323.238 184.048 322.901C184.146 322.556 184.217 322.184 184.261 321.785C184.314 321.386 184.341 321.001 184.341 320.629C184.341 320.248 184.301 319.951 184.221 319.739C184.15 319.517 184.017 319.407 183.822 319.407C183.636 319.407 183.473 319.513 183.331 319.726C183.189 319.938 183.07 320.213 182.972 320.549C182.883 320.886 182.813 321.254 182.759 321.652C182.715 322.051 182.693 322.436 182.693 322.808ZM181.683 328.801L189.642 319.035L190.067 319.367L182.108 329.133L181.683 328.801ZM187.782 329.133C187.33 329.133 186.985 328.969 186.746 328.641C186.506 328.305 186.387 327.848 186.387 327.273C186.387 326.67 186.484 326.099 186.679 325.559C186.874 325.018 187.144 324.584 187.49 324.256C187.835 323.92 188.243 323.752 188.712 323.752C189.173 323.752 189.523 323.92 189.762 324.256C190.001 324.584 190.121 325.04 190.121 325.625C190.121 326.227 190.023 326.799 189.828 327.339C189.633 327.871 189.359 328.305 189.004 328.641C188.659 328.969 188.252 329.133 187.782 329.133ZM187.437 327.525C187.437 327.906 187.472 328.207 187.543 328.429C187.623 328.65 187.755 328.761 187.941 328.761C188.128 328.761 188.291 328.655 188.433 328.442C188.584 328.229 188.703 327.955 188.792 327.618C188.889 327.273 188.96 326.901 189.004 326.502C189.058 326.103 189.084 325.718 189.084 325.346C189.084 324.965 189.044 324.668 188.965 324.456C188.894 324.234 188.761 324.124 188.566 324.124C188.38 324.124 188.216 324.23 188.074 324.442C187.933 324.655 187.813 324.93 187.716 325.266C187.627 325.603 187.556 325.971 187.503 326.369C187.459 326.768 187.437 327.153 187.437 327.525ZM198.837 321.24L200.392 319.035H199.116L197.734 321.24H198.837ZM201.388 327.897L200.551 327.246C200.113 327.844 199.382 328.243 198.518 328.243C197.083 328.243 196.06 327.273 196.02 325.665H201.162C201.202 325.479 201.242 325.226 201.242 324.961C201.242 323.313 200.059 322.038 198.239 322.038C196.166 322.038 194.864 323.619 194.864 325.652C194.864 327.605 196.259 329.266 198.518 329.266C199.767 329.266 200.764 328.734 201.388 327.897ZM198.212 322.994C199.395 322.994 200.073 323.818 200.113 324.801H196.1C196.339 323.645 197.11 322.994 198.212 322.994ZM203.156 329H204.285V324.363C204.671 323.672 205.242 323.1 206.159 323.1C207.129 323.1 207.74 323.738 207.74 324.854V329H208.87V324.815C208.87 324.655 208.856 324.509 208.843 324.363C209.281 323.579 209.879 323.1 210.73 323.1C211.686 323.1 212.311 323.738 212.311 324.854V329H213.44V324.815C213.44 322.994 212.391 322.038 210.956 322.038C209.8 322.038 209.095 322.596 208.564 323.326C208.152 322.476 207.355 322.038 206.385 322.038C205.455 322.038 204.79 322.449 204.285 323.034V322.303H203.156V329ZM217.537 329.186C218.401 329.186 219.278 328.801 219.782 328.15V329H220.912V324.509C220.912 323.034 219.902 322.038 218.201 322.038C217.032 322.038 216.089 322.529 215.504 323.326L216.354 323.977C216.766 323.406 217.391 323.047 218.161 323.047C219.118 323.047 219.782 323.579 219.782 324.509V324.974L217.524 325.346C216.102 325.585 215.331 326.303 215.331 327.313C215.331 328.455 216.222 329.186 217.537 329.186ZM216.474 327.273C216.474 326.701 216.886 326.289 217.803 326.13L219.782 325.798V327.113C219.344 327.831 218.613 328.256 217.723 328.256C216.939 328.256 216.474 327.844 216.474 327.273ZM223.178 329H224.307V324.363C224.732 323.659 225.344 323.1 226.313 323.1C227.35 323.1 228.028 323.791 228.028 324.987V329H229.157V324.947C229.157 323.047 228.041 322.038 226.539 322.038C225.543 322.038 224.852 322.463 224.307 323.061V322.303H223.178V329ZM237.383 327.897L236.546 327.246C236.107 327.844 235.377 328.243 234.513 328.243C233.078 328.243 232.055 327.273 232.015 325.665H237.157C237.197 325.479 237.237 325.226 237.237 324.961C237.237 323.313 236.054 322.038 234.234 322.038C232.161 322.038 230.859 323.619 230.859 325.652C230.859 327.605 232.254 329.266 234.513 329.266C235.762 329.266 236.758 328.734 237.383 327.897ZM234.207 322.994C235.39 322.994 236.068 323.818 236.107 324.801H232.095C232.334 323.645 233.104 322.994 234.207 322.994ZM239.151 329H240.28V324.363C240.705 323.659 241.317 323.1 242.287 323.1C243.323 323.1 244.001 323.791 244.001 324.987V329H245.13V324.947C245.13 323.047 244.014 322.038 242.513 322.038C241.516 322.038 240.825 322.463 240.28 323.061V322.303H239.151V329ZM247.789 326.754C247.789 328.389 248.626 329.133 250.114 329.133C250.592 329.133 250.951 329.08 251.27 328.947V327.937C251.018 328.043 250.712 328.096 250.274 328.096C249.463 328.096 248.932 327.804 248.932 326.754V323.326H251.257V322.303H248.932V320.629H247.789V322.303H246.527V323.326H247.789V326.754ZM83.0389 345.652C83.0389 347.605 84.3809 349.266 86.4802 349.266C87.4768 349.266 88.2607 348.88 88.8586 348.203V349H89.9881V339.035H88.8586V343.1C88.2607 342.423 87.4768 342.038 86.4802 342.038C84.3809 342.038 83.0389 343.698 83.0389 345.652ZM84.2347 345.652C84.2347 344.23 85.1914 343.1 86.6131 343.1C87.5299 343.1 88.3404 343.539 88.8586 344.336V346.967C88.367 347.751 87.5432 348.203 86.6131 348.203C85.1914 348.203 84.2347 347.073 84.2347 345.652ZM92.8592 343.26L94.2278 339.699H92.939L91.8096 343.26H92.8592ZM97.2904 349.186C98.1541 349.186 99.031 348.801 99.5359 348.15V349H100.665V344.509C100.665 343.034 99.6555 342.038 97.9548 342.038C96.7855 342.038 95.8421 342.529 95.2575 343.326L96.1078 343.977C96.5198 343.406 97.1443 343.047 97.9149 343.047C98.8716 343.047 99.5359 343.579 99.5359 344.509V344.974L97.2771 345.346C95.8554 345.585 95.0847 346.303 95.0847 347.313C95.0847 348.455 95.975 349.186 97.2904 349.186ZM96.2274 347.273C96.2274 346.701 96.6393 346.289 97.5562 346.13L99.5359 345.798V347.113C99.0975 347.831 98.3667 348.256 97.4764 348.256C96.6925 348.256 96.2274 347.844 96.2274 347.273ZM102.931 349H104.061V344.403C104.472 343.725 105.044 343.273 105.921 343.273C106.187 343.273 106.386 343.3 106.585 343.353V342.25C106.426 342.197 106.226 342.17 106.014 342.17C105.163 342.17 104.552 342.556 104.061 343.14V342.303H102.931V349ZM108.909 346.754C108.909 348.389 109.746 349.133 111.234 349.133C111.713 349.133 112.071 349.08 112.39 348.947V347.937C112.138 348.043 111.832 348.096 111.394 348.096C110.583 348.096 110.052 347.804 110.052 346.754V343.326H112.377V342.303H110.052V340.629H108.909V342.303H107.647V343.326H108.909V346.754ZM114.675 340.563C115.113 340.563 115.459 340.204 115.459 339.765C115.459 339.34 115.113 338.981 114.675 338.981C114.236 338.981 113.877 339.34 113.877 339.765C113.877 340.204 114.236 340.563 114.675 340.563ZM114.103 349H115.233V342.303H114.103V349ZM116.85 348.083C117.462 348.841 118.299 349.266 119.362 349.266C120.611 349.266 121.607 348.482 121.62 347.233C121.62 344.947 118.259 345.426 118.259 343.924C118.259 343.406 118.644 342.981 119.362 342.981C119.946 342.981 120.451 343.3 120.81 343.805L121.594 343.14C121.129 342.489 120.305 342.038 119.348 342.038C118.059 342.038 117.169 342.901 117.169 343.951C117.169 346.316 120.518 345.784 120.518 347.286C120.518 347.871 120.092 348.322 119.348 348.322C118.671 348.322 118.113 347.99 117.648 347.406L116.85 348.083ZM123.896 346.754C123.896 348.389 124.733 349.133 126.221 349.133C126.7 349.133 127.058 349.08 127.377 348.947V347.937C127.125 348.043 126.819 348.096 126.381 348.096C125.57 348.096 125.039 347.804 125.039 346.754V343.326H127.364V342.303H125.039V340.629H123.896V342.303H122.634V343.326H123.896V346.754ZM134.913 347.897L134.076 347.246C133.638 347.844 132.907 348.243 132.043 348.243C130.608 348.243 129.585 347.273 129.545 345.665H134.687C134.727 345.479 134.767 345.226 134.767 344.961C134.767 343.313 133.585 342.038 131.764 342.038C129.691 342.038 128.389 343.619 128.389 345.652C128.389 347.605 129.784 349.266 132.043 349.266C133.292 349.266 134.289 348.734 134.913 347.897ZM131.738 342.994C132.92 342.994 133.598 343.818 133.638 344.801H129.625C129.864 343.645 130.635 342.994 131.738 342.994ZM135.912 348.083C136.523 348.841 137.36 349.266 138.423 349.266C139.672 349.266 140.669 348.482 140.682 347.233C140.682 344.947 137.32 345.426 137.32 343.924C137.32 343.406 137.706 342.981 138.423 342.981C139.008 342.981 139.513 343.3 139.871 343.805L140.655 343.14C140.19 342.489 139.366 342.038 138.41 342.038C137.121 342.038 136.231 342.901 136.231 343.951C136.231 346.316 139.579 345.784 139.579 347.286C139.579 347.871 139.154 348.322 138.41 348.322C137.732 348.322 137.174 347.99 136.709 347.406L135.912 348.083ZM145.225 342.303V343.326H146.487V349H147.63V343.326H149.955V342.303H147.63V341.453C147.63 340.576 148.134 340.058 148.892 340.058C149.277 340.058 149.583 340.177 149.835 340.363L150.34 339.42C149.968 339.207 149.477 339.035 148.865 339.035C147.404 339.035 146.487 340.058 146.487 341.479V342.303H145.225ZM156.907 347.897L156.07 347.246C155.632 347.844 154.901 348.243 154.037 348.243C152.602 348.243 151.579 347.273 151.539 345.665H156.681C156.721 345.479 156.761 345.226 156.761 344.961C156.761 343.313 155.578 342.038 153.758 342.038C151.685 342.038 150.383 343.619 150.383 345.652C150.383 347.605 151.778 349.266 154.037 349.266C155.286 349.266 156.283 348.734 156.907 347.897ZM153.732 342.994C154.914 342.994 155.592 343.818 155.632 344.801H151.619C151.858 343.645 152.629 342.994 153.732 342.994ZM158.675 349H159.804V344.363C160.19 343.672 160.761 343.1 161.678 343.1C162.648 343.1 163.259 343.738 163.259 344.854V349H164.389V344.815C164.389 344.655 164.375 344.509 164.362 344.363C164.8 343.579 165.398 343.1 166.249 343.1C167.205 343.1 167.83 343.738 167.83 344.854V349H168.959V344.815C168.959 342.994 167.91 342.038 166.475 342.038C165.319 342.038 164.614 342.596 164.083 343.326C163.671 342.476 162.874 342.038 161.904 342.038C160.974 342.038 160.309 342.449 159.804 343.034V342.303H158.675V349ZM171.236 349H172.365V344.363C172.75 343.672 173.322 343.1 174.239 343.1C175.209 343.1 175.82 343.738 175.82 344.854V349H176.949V344.815C176.949 344.655 176.936 344.509 176.923 344.363C177.361 343.579 177.959 343.1 178.809 343.1C179.766 343.1 180.391 343.738 180.391 344.854V349H181.52V344.815C181.52 342.994 180.47 342.038 179.035 342.038C177.879 342.038 177.175 342.596 176.644 343.326C176.232 342.476 175.434 342.038 174.464 342.038C173.534 342.038 172.87 342.449 172.365 343.034V342.303H171.236V349ZM189.749 347.897L188.912 347.246C188.473 347.844 187.742 348.243 186.879 348.243C185.444 348.243 184.421 347.273 184.381 345.665H189.523C189.563 345.479 189.603 345.226 189.603 344.961C189.603 343.313 188.42 342.038 186.6 342.038C184.527 342.038 183.225 343.619 183.225 345.652C183.225 347.605 184.62 349.266 186.879 349.266C188.128 349.266 189.124 348.734 189.749 347.897ZM186.573 342.994C187.756 342.994 188.433 343.818 188.473 344.801H184.461C184.7 343.645 185.47 342.994 186.573 342.994ZM190.747 348.083C191.359 348.841 192.196 349.266 193.259 349.266C194.508 349.266 195.504 348.482 195.517 347.233C195.517 344.947 192.156 345.426 192.156 343.924C192.156 343.406 192.541 342.981 193.259 342.981C193.843 342.981 194.348 343.3 194.707 343.805L195.491 343.14C195.026 342.489 194.202 342.038 193.245 342.038C191.957 342.038 191.066 342.901 191.066 343.951C191.066 346.316 194.415 345.784 194.415 347.286C194.415 347.871 193.989 348.322 193.245 348.322C192.568 348.322 192.01 347.99 191.545 347.406L190.747 348.083ZM197.811 349.146C198.29 349.146 198.662 348.774 198.662 348.309C198.662 347.844 198.29 347.459 197.811 347.459C197.333 347.459 196.948 347.844 196.948 348.309C196.948 348.774 197.333 349.146 197.811 349.146Z" fill="black"/>
<path d="M178.781 219.913V181.95C188.849 181.95 198.505 185.95 205.625 193.069C212.744 200.189 216.744 209.845 216.744 219.913H178.781Z" fill="black"/>
<path d="M179.256 219.439V181.95C171.842 181.95 164.594 184.149 158.429 188.268C152.263 192.387 147.458 198.242 144.621 205.093C141.784 211.943 141.041 219.48 142.488 226.753C143.934 234.025 147.505 240.705 152.748 245.948C157.99 251.19 164.67 254.761 171.942 256.207C179.215 257.654 186.752 256.912 193.603 254.074C200.453 251.237 206.308 246.432 210.427 240.267C214.546 234.102 216.745 226.853 216.745 219.439H179.256Z" fill="#D1D1D1"/>
<path d="M193.503 209H195.017V204.908H198.153V203.619H195.017V200.988H198.685V199.699H193.503V209Z" fill="white"/>
<path d="M93.5982 201.974C93.5662 201.699 93.3322 201.485 93.0483 201.485C92.7425 201.485 92.4947 201.733 92.4947 202.038V204.253L92.4984 204.318C92.5304 204.593 92.7644 204.807 93.0483 204.807C93.3541 204.807 93.6019 204.559 93.6019 204.253V202.038L93.5982 201.974Z" fill="#ABAAA8"/>
<path d="M79.7611 215.879C79.7611 215.574 79.5132 215.326 79.2075 215.326H75.8857L75.8211 215.329C75.5458 215.361 75.332 215.595 75.332 215.879C75.332 216.185 75.5799 216.433 75.8857 216.433H79.2075L79.272 216.429C79.5474 216.397 79.7611 216.163 79.7611 215.879Z" fill="#ABAAA8"/>
<path fill-rule="evenodd" clip-rule="evenodd" d="M90.8338 215.326C89.9165 215.326 89.1729 216.069 89.1729 216.987C89.1729 217.904 89.9165 218.647 90.8338 218.647C91.7511 218.647 92.4947 217.904 92.4947 216.987C92.4947 216.069 91.7511 215.326 90.8338 215.326ZM90.8338 216.433C91.1395 216.433 91.3874 216.681 91.3874 216.987C91.3874 217.292 91.1395 217.54 90.8338 217.54C90.528 217.54 90.2801 217.292 90.2801 216.987C90.2801 216.681 90.528 216.433 90.8338 216.433Z" fill="#ABAAA8"/>
<path d="M79.2075 217.54C79.5132 217.54 79.7611 217.788 79.7611 218.094C79.7611 218.378 79.5474 218.612 79.272 218.644L79.2075 218.647H75.8857C75.5799 218.647 75.332 218.4 75.332 218.094C75.332 217.81 75.5458 217.576 75.8211 217.544L75.8857 217.54H79.2075Z" fill="#ABAAA8"/>
<path d="M86.4047 215.879C86.4047 215.574 86.1568 215.326 85.8511 215.326H82.5293L82.4647 215.329C82.1894 215.361 81.9756 215.595 81.9756 215.879C81.9756 216.185 82.2235 216.433 82.5293 216.433H85.8511L85.9156 216.429C86.191 216.397 86.4047 216.163 86.4047 215.879Z" fill="#ABAAA8"/>
<path d="M85.8511 217.54C86.1568 217.54 86.4047 217.788 86.4047 218.094C86.4047 218.378 86.191 218.612 85.9156 218.644L85.8511 218.647H82.5293C82.2235 218.647 81.9756 218.4 81.9756 218.094C81.9756 217.81 82.1894 217.576 82.4647 217.544L82.5293 217.54H85.8511Z" fill="#ABAAA8"/>
<path d="M99.6919 215.879C99.6919 215.574 99.444 215.326 99.1383 215.326H95.8165L95.7519 215.329C95.4766 215.361 95.2628 215.595 95.2628 215.879C95.2628 216.185 95.5107 216.433 95.8165 216.433H99.1383L99.2028 216.429C99.4782 216.397 99.6919 216.163 99.6919 215.879Z" fill="#ABAAA8"/>
<path d="M99.1383 217.54C99.444 217.54 99.6919 217.788 99.6919 218.094C99.6919 218.378 99.4782 218.612 99.2028 218.644L99.1383 218.647H95.8165C95.5107 218.647 95.2628 218.4 95.2628 218.094C95.2628 217.81 95.4766 217.576 95.7519 217.544L95.8165 217.54H99.1383Z" fill="#ABAAA8"/>
<path d="M106.335 215.879C106.335 215.574 106.088 215.326 105.782 215.326H102.46L102.395 215.329C102.12 215.361 101.906 215.595 101.906 215.879C101.906 216.185 102.154 216.433 102.46 216.433H105.782L105.846 216.429C106.122 216.397 106.335 216.163 106.335 215.879Z" fill="#ABAAA8"/>
<path d="M105.782 217.54C106.088 217.54 106.335 217.788 106.335 218.094C106.335 218.378 106.122 218.612 105.846 218.644L105.782 218.647H102.46C102.154 218.647 101.906 218.4 101.906 218.094C101.906 217.81 102.12 217.576 102.395 217.544L102.46 217.54H105.782Z" fill="#ABAAA8"/>
<path d="M91.3836 201.974C91.3516 201.699 91.1176 201.485 90.8337 201.485C90.528 201.485 90.2801 201.733 90.2801 202.038V204.253L90.2838 204.318C90.3158 204.593 90.5498 204.807 90.8337 204.807C91.1395 204.807 91.3873 204.559 91.3873 204.253V202.038L91.3836 201.974Z" fill="#ABAAA8"/>
<path d="M91.3836 205.849C91.3516 205.574 91.1176 205.36 90.8337 205.36C90.528 205.36 90.2801 205.608 90.2801 205.914V207.575H78.1002L78.0356 207.578C77.7602 207.61 77.5465 207.844 77.5465 208.128V210.897H70.3493L70.2847 210.9C70.0094 210.932 69.7957 211.166 69.7957 211.45C69.7957 211.756 70.0435 212.004 70.3493 212.004H111.318L111.383 212C111.658 211.968 111.872 211.734 111.872 211.45C111.872 211.144 111.624 210.897 111.318 210.897H104.121V208.128L104.117 208.064C104.085 207.788 103.851 207.575 103.567 207.575C103.262 207.575 103.014 207.823 103.014 208.128V210.897H78.6538V208.682H98.0309L98.0955 208.678C98.3709 208.646 98.5846 208.412 98.5846 208.128C98.5846 207.823 98.3367 207.575 98.0309 207.575H91.3873V205.914L91.3836 205.849Z" fill="#ABAAA8"/>
<path d="M82.5292 220.862C82.8131 220.862 83.0471 221.076 83.0791 221.351L83.0829 221.416V232.488C83.0829 232.794 82.835 233.042 82.5292 233.042C82.2453 233.042 82.0113 232.828 81.9793 232.553L81.9756 232.488V221.416C81.9756 221.11 82.2235 220.862 82.5292 220.862Z" fill="#ABAAA8"/>
<path d="M80.8646 223.566C80.8326 223.29 80.5986 223.076 80.3147 223.076C80.0089 223.076 79.7611 223.324 79.7611 223.63V234.149H75.332V223.63L75.3283 223.566C75.2963 223.29 75.0623 223.076 74.7784 223.076C74.4726 223.076 74.2247 223.324 74.2247 223.63V234.149H72.5638L72.4993 234.153C72.2239 234.185 72.0102 234.419 72.0102 234.703C72.0102 235.009 72.2581 235.256 72.5638 235.256H80.3147C80.3529 235.256 80.3902 235.253 80.4263 235.245C80.6785 235.194 80.8683 234.97 80.8683 234.703V223.63L80.8646 223.566Z" fill="#ABAAA8"/>
<path d="M76.9929 220.862C77.2768 220.862 77.5108 221.076 77.5428 221.351L77.5465 221.416V230.274C77.5465 230.579 77.2986 230.827 76.9929 230.827C76.709 230.827 76.475 230.614 76.443 230.338L76.4393 230.274V221.416C76.4393 221.11 76.6871 220.862 76.9929 220.862Z" fill="#ABAAA8"/>
<path d="M101.353 207.575C101.659 207.575 101.906 207.823 101.906 208.128C101.906 208.412 101.693 208.646 101.417 208.678L101.353 208.682H100.245C99.9397 208.682 99.6918 208.434 99.6918 208.128C99.6918 207.844 99.9056 207.61 100.181 207.578L100.245 207.575H101.353Z" fill="#ABAAA8"/>
<path d="M72.5638 213.111C72.8477 213.111 73.0817 213.325 73.1137 213.6L73.1175 213.665V232.488C73.1175 232.794 72.8696 233.042 72.5638 233.042C72.2799 233.042 72.0459 232.828 72.0139 232.553L72.0102 232.488V213.665C72.0102 213.359 72.2581 213.111 72.5638 213.111Z" fill="#ABAAA8"/>
<path fill-rule="evenodd" clip-rule="evenodd" d="M95.2591 223.566C95.2271 223.29 94.9931 223.076 94.7091 223.076H86.9583L86.8937 223.08C86.6184 223.112 86.4047 223.346 86.4047 223.63V231.935H84.7438L84.6792 231.938C84.4038 231.97 84.1901 232.204 84.1901 232.488C84.1901 232.794 84.438 233.042 84.7438 233.042H96.9237L96.9882 233.038C97.2636 233.006 97.4773 232.772 97.4773 232.488C97.4773 232.182 97.2294 231.935 96.9237 231.935H95.2628V223.63L95.2591 223.566ZM90.2801 231.935H87.5119V224.183H94.1555V231.935H91.3873V226.952L91.3836 226.887C91.3516 226.612 91.1176 226.398 90.8337 226.398C90.528 226.398 90.2801 226.646 90.2801 226.952V231.935Z" fill="#ABAAA8"/>
<path d="M93.6019 220.862C93.9076 220.862 94.1555 221.11 94.1555 221.416C94.1555 221.7 93.9418 221.934 93.6664 221.966L93.6019 221.969H88.0656C87.7598 221.969 87.5119 221.721 87.5119 221.416C87.5119 221.132 87.7256 220.898 88.001 220.866L88.0656 220.862H93.6019Z" fill="#ABAAA8"/>
<path d="M99.1382 220.862C98.8543 220.862 98.6203 221.076 98.5883 221.351L98.5846 221.416V232.488C98.5846 232.794 98.8325 233.042 99.1382 233.042C99.4221 233.042 99.6561 232.828 99.6881 232.553L99.6918 232.488V221.416C99.6918 221.11 99.444 220.862 99.1382 220.862Z" fill="#ABAAA8"/>
<path d="M100.803 223.566C100.835 223.29 101.069 223.076 101.353 223.076C101.659 223.076 101.906 223.324 101.906 223.63V230.274L101.903 230.338C101.871 230.614 101.637 230.827 101.353 230.827C101.047 230.827 100.799 230.579 100.799 230.274V223.63L100.803 223.566Z" fill="#ABAAA8"/>
<path d="M104.675 220.862C104.391 220.862 104.157 221.076 104.125 221.351L104.121 221.416V232.488C104.121 232.794 104.369 233.042 104.675 233.042C104.958 233.042 105.192 232.828 105.224 232.553L105.228 232.488V221.416C105.228 221.11 104.98 220.862 104.675 220.862Z" fill="#ABAAA8"/>
<path d="M106.339 223.566C106.371 223.29 106.605 223.076 106.889 223.076C107.195 223.076 107.443 223.324 107.443 223.63V234.703C107.443 234.725 107.441 234.746 107.439 234.767C107.409 235.022 107.208 235.223 106.954 235.253C106.932 235.255 106.911 235.256 106.889 235.256H82.5292C82.2235 235.256 81.9756 235.009 81.9756 234.703C81.9756 234.419 82.1893 234.185 82.4647 234.153L82.5292 234.149H106.335V223.63L106.339 223.566Z" fill="#ABAAA8"/>
<path d="M109.104 213.111C109.388 213.111 109.622 213.325 109.654 213.6L109.657 213.665V234.703C109.657 235.009 109.409 235.256 109.104 235.256C108.82 235.256 108.586 235.043 108.554 234.767L108.55 234.703V213.665C108.55 213.359 108.798 213.111 109.104 213.111Z" fill="#ABAAA8"/>
</svg>
