<svg width="282" height="421" viewBox="0 0 282 421" fill="none" xmlns="http://www.w3.org/2000/svg">
<path d="M0 15.6254C0 6.99575 6.99574 0 15.6254 0H266.375C275.004 0 282 6.99574 282 15.6254V405.375C282 414.004 275.004 421 266.375 421H15.6254C6.99575 421 0 414.004 0 405.375V15.6254Z" fill="white"/>
<path fill-rule="evenodd" clip-rule="evenodd" d="M187.583 225.899C207.458 240.77 220.321 264.498 220.321 291.23C220.321 336.266 183.812 372.775 138.776 372.775C93.7395 372.775 57.2305 336.266 57.2305 291.23C57.2305 264.27 70.3137 240.366 90.4775 225.52L90.3162 225.559C94.3744 223.157 102.633 212.88 96.9663 202.774C96.7543 202.396 96.5698 202.053 96.4119 201.742C90.0466 192.751 86.3059 181.77 86.3059 169.916C86.3059 139.461 110.994 114.772 141.449 114.772C171.904 114.772 196.592 139.461 196.592 169.916C196.592 182.44 192.417 193.989 185.383 203.247L185.422 203.228C185.381 203.27 185.34 203.313 185.299 203.357C184.935 203.834 184.563 204.304 184.183 204.769C181.281 209.055 178.965 217.634 186.176 224.461C186.78 225.033 187.246 225.509 187.583 225.899Z" fill="url(#paint0_radial_2802_25193)"/>
<path d="M116.232 276.772H117.64V272.124C118.009 271.522 118.556 270.934 119.499 270.934C120.484 270.934 121.085 271.591 121.085 272.684V276.772H122.507V272.63C122.507 270.634 121.359 269.608 119.828 269.608C118.843 269.608 118.159 270.005 117.64 270.552V266.518H116.232V276.772ZM127.896 269.608C125.667 269.608 124.15 271.29 124.15 273.327C124.15 275.364 125.667 277.046 127.896 277.046C130.138 277.046 131.642 275.364 131.642 273.327C131.642 271.29 130.138 269.608 127.896 269.608ZM127.91 275.72C126.584 275.72 125.626 274.653 125.626 273.327C125.626 272.001 126.584 270.934 127.91 270.934C129.209 270.934 130.166 271.987 130.166 273.327C130.166 274.64 129.209 275.72 127.91 275.72ZM133.402 276.772H134.81V272.124C135.138 271.536 135.658 270.934 136.533 270.934C137.435 270.934 137.982 271.536 137.982 272.548V276.772H139.404V272.493C139.404 272.356 139.404 272.233 139.391 272.11C139.76 271.454 140.293 270.934 141.113 270.934C142.002 270.934 142.563 271.536 142.563 272.548V276.772H143.984V272.493C143.984 270.593 142.877 269.608 141.441 269.608C140.252 269.608 139.568 270.169 139.035 270.852C138.598 270.032 137.805 269.608 136.861 269.608C135.945 269.608 135.303 269.991 134.81 270.524V269.882H133.402V276.772ZM146.166 276.772H147.575V272.124C147.903 271.536 148.422 270.934 149.297 270.934C150.2 270.934 150.747 271.536 150.747 272.548V276.772H152.169V272.493C152.169 272.356 152.169 272.233 152.155 272.11C152.524 271.454 153.057 270.934 153.878 270.934C154.766 270.934 155.327 271.536 155.327 272.548V276.772H156.749V272.493C156.749 270.593 155.641 269.608 154.206 269.608C153.016 269.608 152.333 270.169 151.799 270.852C151.362 270.032 150.569 269.608 149.626 269.608C148.709 269.608 148.067 269.991 147.575 270.524V269.882H146.166V276.772ZM165.152 275.651L164.126 274.831C163.702 275.405 163.005 275.774 162.171 275.774C160.845 275.774 159.929 274.995 159.833 273.491H164.919C164.974 273.286 165.015 272.972 165.015 272.657C165.015 270.907 163.784 269.608 161.884 269.608C159.696 269.608 158.384 271.263 158.384 273.327C158.384 275.337 159.792 277.046 162.171 277.046C163.456 277.046 164.509 276.513 165.152 275.651ZM161.857 270.784C162.964 270.784 163.579 271.577 163.607 272.438H159.901C160.12 271.372 160.831 270.784 161.857 270.784ZM118.816 298.755H120.732V286.45H118.851L114.896 288.682L115.88 290.053L118.816 288.419V298.755ZM123.184 295.345H129.126V298.772H131.042V295.345H132.396V293.604H131.042V286.467H128.757L123.184 293.604V295.345ZM125.206 293.604L129.126 288.594V293.604H125.206ZM138.433 286.116C135.287 286.116 133.757 288.946 133.757 292.62C133.757 296.294 135.287 299.124 138.433 299.124C141.58 299.124 143.092 296.294 143.092 292.62C143.092 288.946 141.58 286.116 138.433 286.116ZM138.433 287.909C140.209 287.909 141.105 289.86 141.105 292.62C141.105 295.362 140.209 297.331 138.433 297.331C136.64 297.331 135.744 295.38 135.744 292.62C135.744 289.878 136.64 287.909 138.433 287.909ZM149.111 286.116C145.964 286.116 144.435 288.946 144.435 292.62C144.435 296.294 145.964 299.124 149.111 299.124C152.257 299.124 153.769 296.294 153.769 292.62C153.769 288.946 152.257 286.116 149.111 286.116ZM149.111 287.909C150.886 287.909 151.783 289.86 151.783 292.62C151.783 295.362 150.886 297.331 149.111 297.331C147.318 297.331 146.421 295.38 146.421 292.62C146.421 289.878 147.318 287.909 149.111 287.909ZM154.747 294.8H156.346C156.821 297.7 158.385 299.124 160.794 299.124C162.446 299.124 163.641 298.421 164.45 297.331L162.991 296.224C162.516 296.909 161.831 297.419 160.829 297.419C159.563 297.419 158.667 296.751 158.315 294.8H162.938V293.27H158.157C158.139 293.059 158.139 292.831 158.139 292.602C158.139 292.391 158.139 292.198 158.157 292.005H162.938V290.458H158.298C158.649 288.489 159.546 287.803 160.829 287.803C161.848 287.803 162.499 288.296 162.991 289.016L164.45 287.891C163.624 286.819 162.446 286.098 160.794 286.098C158.368 286.098 156.803 287.522 156.329 290.458H154.747V292.005H156.188C156.171 292.198 156.171 292.391 156.171 292.602C156.171 292.831 156.171 293.059 156.188 293.27H154.747V294.8ZM114.897 319.136H116.305V315.062C116.893 315.69 117.631 316.046 118.629 316.046C120.789 316.046 122.143 314.337 122.143 312.327C122.143 310.317 120.789 308.608 118.629 308.608C117.631 308.608 116.893 308.964 116.305 309.593V308.882H114.897V319.136ZM118.451 309.934C119.778 309.934 120.666 310.974 120.666 312.327C120.666 313.681 119.778 314.72 118.451 314.72C117.563 314.72 116.811 314.31 116.305 313.544V311.11C116.797 310.358 117.549 309.934 118.451 309.934ZM125.649 315.978C126.497 315.978 127.358 315.595 127.85 314.993V315.772H129.259V311.22C129.259 309.702 128.233 308.608 126.374 308.608C125.143 308.608 124.159 309.128 123.544 309.948L124.596 310.755C124.993 310.194 125.581 309.852 126.333 309.852C127.222 309.852 127.85 310.372 127.85 311.22V311.575L125.622 311.944C124.159 312.19 123.352 312.942 123.352 313.981C123.352 315.198 124.282 315.978 125.649 315.978ZM124.774 313.927C124.774 313.407 125.13 313.038 125.991 312.888L127.85 312.573V313.763C127.44 314.419 126.77 314.829 125.909 314.829C125.198 314.829 124.774 314.46 124.774 313.927ZM131.466 315.772H132.874V311.179C133.23 310.591 133.804 310.126 134.679 310.126C134.966 310.126 135.185 310.167 135.404 310.222V308.841C135.226 308.786 135.021 308.745 134.802 308.745C133.954 308.745 133.353 309.128 132.874 309.661V308.882H131.466V315.772ZM140.639 315.772H142.047V311.124C142.375 310.536 142.895 309.934 143.77 309.934C144.672 309.934 145.219 310.536 145.219 311.548V315.772H146.641V311.493C146.641 311.356 146.641 311.233 146.627 311.11C146.996 310.454 147.53 309.934 148.35 309.934C149.239 309.934 149.799 310.536 149.799 311.548V315.772H151.221V311.493C151.221 309.593 150.114 308.608 148.678 308.608C147.489 308.608 146.805 309.169 146.272 309.852C145.834 309.032 145.041 308.608 144.098 308.608C143.182 308.608 142.539 308.991 142.047 309.524V308.882H140.639V315.772ZM156.602 308.608C154.374 308.608 152.856 310.29 152.856 312.327C152.856 314.364 154.374 316.046 156.602 316.046C158.845 316.046 160.349 314.364 160.349 312.327C160.349 310.29 158.845 308.608 156.602 308.608ZM156.616 314.72C155.29 314.72 154.333 313.653 154.333 312.327C154.333 311.001 155.29 309.934 156.616 309.934C157.915 309.934 158.872 310.987 158.872 312.327C158.872 313.64 157.915 314.72 156.616 314.72ZM162.819 307.35C163.339 307.35 163.777 306.913 163.777 306.393C163.777 305.874 163.339 305.436 162.819 305.436C162.3 305.436 161.862 305.874 161.862 306.393C161.862 306.913 162.3 307.35 162.819 307.35ZM162.108 315.772H163.517V308.882H162.108V315.772ZM165.057 314.802C165.699 315.581 166.561 316.046 167.723 316.046C169.008 316.046 170.102 315.239 170.115 313.886C170.115 311.52 166.738 311.985 166.738 310.604C166.738 310.139 167.066 309.757 167.723 309.757C168.297 309.757 168.775 310.098 169.145 310.591L170.102 309.757C169.609 309.1 168.721 308.608 167.709 308.608C166.328 308.608 165.371 309.511 165.371 310.645C165.371 313.079 168.748 312.573 168.748 313.968C168.748 314.487 168.379 314.897 167.709 314.897C167.025 314.897 166.478 314.528 166.027 313.954L165.057 314.802Z" fill="white"/>
<path d="M117.426 149.882V151.153H118.725V156.772H120.147V151.153H122.43V149.882H120.147V149.048C120.147 148.268 120.612 147.79 121.309 147.79C121.692 147.79 121.992 147.913 122.225 148.091L122.826 146.901C122.43 146.682 121.91 146.518 121.281 146.518C119.682 146.518 118.725 147.626 118.725 149.089V149.882H117.426ZM129.609 155.651L128.584 154.831C128.16 155.405 127.463 155.774 126.629 155.774C125.302 155.774 124.386 154.995 124.291 153.491H129.377C129.431 153.286 129.472 152.972 129.472 152.657C129.472 150.907 128.242 149.608 126.341 149.608C124.154 149.608 122.841 151.263 122.841 153.327C122.841 155.337 124.25 157.046 126.629 157.046C127.914 157.046 128.967 156.513 129.609 155.651ZM126.314 150.784C127.422 150.784 128.037 151.577 128.064 152.438H124.359C124.578 151.372 125.289 150.784 126.314 150.784ZM131.319 156.772H132.727V152.124C133.056 151.536 133.575 150.934 134.45 150.934C135.353 150.934 135.899 151.536 135.899 152.548V156.772H137.321V152.493C137.321 152.356 137.321 152.233 137.308 152.11C137.677 151.454 138.21 150.934 139.03 150.934C139.919 150.934 140.48 151.536 140.48 152.548V156.772H141.902V152.493C141.902 150.593 140.794 149.608 139.359 149.608C138.169 149.608 137.485 150.169 136.952 150.852C136.515 150.032 135.722 149.608 134.778 149.608C133.862 149.608 133.22 149.991 132.727 150.524V149.882H131.319V156.772ZM144.084 156.772H145.492V152.124C145.82 151.536 146.339 150.934 147.215 150.934C148.117 150.934 148.664 151.536 148.664 152.548V156.772H150.086V152.493C150.086 152.356 150.086 152.233 150.072 152.11C150.441 151.454 150.974 150.934 151.795 150.934C152.683 150.934 153.244 151.536 153.244 152.548V156.772H154.666V152.493C154.666 150.593 153.558 149.608 152.123 149.608C150.933 149.608 150.25 150.169 149.717 150.852C149.279 150.032 148.486 149.608 147.543 149.608C146.627 149.608 145.984 149.991 145.492 150.524V149.882H144.084V156.772ZM163.069 155.651L162.043 154.831C161.619 155.405 160.922 155.774 160.088 155.774C158.762 155.774 157.846 154.995 157.75 153.491H162.836C162.891 153.286 162.932 152.972 162.932 152.657C162.932 150.907 161.702 149.608 159.801 149.608C157.614 149.608 156.301 151.263 156.301 153.327C156.301 155.337 157.709 157.046 160.088 157.046C161.373 157.046 162.426 156.513 163.069 155.651ZM159.774 150.784C160.881 150.784 161.496 151.577 161.524 152.438H157.819C158.037 151.372 158.748 150.784 159.774 150.784ZM120.953 178.755H122.869V166.45H120.988L117.033 168.682L118.018 170.053L120.953 168.419V178.755ZM130.356 166.116C127.21 166.116 125.68 168.946 125.68 172.62C125.68 176.294 127.21 179.124 130.356 179.124C133.503 179.124 135.015 176.294 135.015 172.62C135.015 168.946 133.503 166.116 130.356 166.116ZM130.356 167.909C132.132 167.909 133.028 169.86 133.028 172.62C133.028 175.362 132.132 177.331 130.356 177.331C128.563 177.331 127.667 175.38 127.667 172.62C127.667 169.878 128.563 167.909 130.356 167.909ZM141.034 166.116C137.887 166.116 136.358 168.946 136.358 172.62C136.358 176.294 137.887 179.124 141.034 179.124C144.181 179.124 145.692 176.294 145.692 172.62C145.692 168.946 144.181 166.116 141.034 166.116ZM141.034 167.909C142.809 167.909 143.706 169.86 143.706 172.62C143.706 175.362 142.809 177.331 141.034 177.331C139.241 177.331 138.344 175.38 138.344 172.62C138.344 169.878 139.241 167.909 141.034 167.909ZM151.712 166.116C148.565 166.116 147.036 168.946 147.036 172.62C147.036 176.294 148.565 179.124 151.712 179.124C154.858 179.124 156.37 176.294 156.37 172.62C156.37 168.946 154.858 166.116 151.712 166.116ZM151.712 167.909C153.487 167.909 154.384 169.86 154.384 172.62C154.384 175.362 153.487 177.331 151.712 177.331C149.919 177.331 149.022 175.38 149.022 172.62C149.022 169.878 149.919 167.909 151.712 167.909ZM157.347 174.8H158.947C159.422 177.7 160.986 179.124 163.395 179.124C165.047 179.124 166.242 178.421 167.051 177.331L165.592 176.224C165.117 176.909 164.432 177.419 163.43 177.419C162.164 177.419 161.267 176.751 160.916 174.8H165.539V173.27H160.758C160.74 173.059 160.74 172.831 160.74 172.602C160.74 172.391 160.74 172.198 160.758 172.005H165.539V170.458H160.898C161.25 168.489 162.146 167.803 163.43 167.803C164.449 167.803 165.1 168.296 165.592 169.016L167.051 167.891C166.225 166.819 165.047 166.098 163.395 166.098C160.969 166.098 159.404 167.522 158.93 170.458H157.347V172.005H158.789C158.771 172.198 158.771 172.391 158.771 172.602C158.771 172.831 158.771 173.059 158.789 173.27H157.347V174.8ZM114.897 199.136H116.305V195.062C116.893 195.69 117.631 196.046 118.629 196.046C120.789 196.046 122.143 194.337 122.143 192.327C122.143 190.317 120.789 188.608 118.629 188.608C117.631 188.608 116.893 188.964 116.305 189.593V188.882H114.897V199.136ZM118.451 189.934C119.778 189.934 120.666 190.974 120.666 192.327C120.666 193.681 119.778 194.72 118.451 194.72C117.563 194.72 116.811 194.31 116.305 193.544V191.11C116.797 190.358 117.549 189.934 118.451 189.934ZM125.649 195.978C126.497 195.978 127.358 195.595 127.85 194.993V195.772H129.259V191.22C129.259 189.702 128.233 188.608 126.374 188.608C125.143 188.608 124.159 189.128 123.544 189.948L124.596 190.755C124.993 190.194 125.581 189.852 126.333 189.852C127.222 189.852 127.85 190.372 127.85 191.22V191.575L125.622 191.944C124.159 192.19 123.352 192.942 123.352 193.981C123.352 195.198 124.282 195.978 125.649 195.978ZM124.774 193.927C124.774 193.407 125.13 193.038 125.991 192.888L127.85 192.573V193.763C127.44 194.419 126.77 194.829 125.909 194.829C125.198 194.829 124.774 194.46 124.774 193.927ZM131.466 195.772H132.874V191.179C133.23 190.591 133.804 190.126 134.679 190.126C134.966 190.126 135.185 190.167 135.404 190.222V188.841C135.226 188.786 135.021 188.745 134.802 188.745C133.954 188.745 133.353 189.128 132.874 189.661V188.882H131.466V195.772ZM140.639 195.772H142.047V191.124C142.375 190.536 142.895 189.934 143.77 189.934C144.672 189.934 145.219 190.536 145.219 191.548V195.772H146.641V191.493C146.641 191.356 146.641 191.233 146.627 191.11C146.996 190.454 147.53 189.934 148.35 189.934C149.239 189.934 149.799 190.536 149.799 191.548V195.772H151.221V191.493C151.221 189.593 150.114 188.608 148.678 188.608C147.489 188.608 146.805 189.169 146.272 189.852C145.834 189.032 145.041 188.608 144.098 188.608C143.182 188.608 142.539 188.991 142.047 189.524V188.882H140.639V195.772ZM156.602 188.608C154.374 188.608 152.856 190.29 152.856 192.327C152.856 194.364 154.374 196.046 156.602 196.046C158.845 196.046 160.349 194.364 160.349 192.327C160.349 190.29 158.845 188.608 156.602 188.608ZM156.616 194.72C155.29 194.72 154.333 193.653 154.333 192.327C154.333 191.001 155.29 189.934 156.616 189.934C157.915 189.934 158.872 190.987 158.872 192.327C158.872 193.64 157.915 194.72 156.616 194.72ZM162.819 187.35C163.339 187.35 163.777 186.913 163.777 186.393C163.777 185.874 163.339 185.436 162.819 185.436C162.3 185.436 161.862 185.874 161.862 186.393C161.862 186.913 162.3 187.35 162.819 187.35ZM162.108 195.772H163.517V188.882H162.108V195.772ZM165.057 194.802C165.699 195.581 166.561 196.046 167.723 196.046C169.008 196.046 170.102 195.239 170.115 193.886C170.115 191.52 166.738 191.985 166.738 190.604C166.738 190.139 167.066 189.757 167.723 189.757C168.297 189.757 168.775 190.098 169.145 190.591L170.102 189.757C169.609 189.1 168.721 188.608 167.709 188.608C166.328 188.608 165.371 189.511 165.371 190.645C165.371 193.079 168.748 192.573 168.748 193.968C168.748 194.487 168.379 194.897 167.709 194.897C167.025 194.897 166.478 194.528 166.027 193.954L165.057 194.802Z" fill="black"/>
<path d="M54.9819 48.84C54.9819 50.6 53.9739 51.592 52.4059 51.592C50.8059 51.592 49.7979 50.6 49.7979 48.84V41.8H47.9739V48.712C47.9739 51.608 49.7019 53.32 52.4059 53.32C55.1099 53.32 56.8219 51.608 56.8219 48.712V41.8H54.9819V48.84ZM59.4568 53H61.1048V47.56C61.5208 46.856 62.1768 46.168 63.2808 46.168C64.4328 46.168 65.1368 46.936 65.1368 48.216V53H66.8008V48.152C66.8008 45.816 65.4408 44.616 63.6648 44.616C62.5128 44.616 61.7128 45.08 61.1048 45.72V44.936H59.4568V53ZM76.6431 51.688L75.4431 50.728C74.9471 51.4 74.1311 51.832 73.1551 51.832C71.6031 51.832 70.5311 50.92 70.4191 49.16H76.3711C76.4351 48.92 76.4831 48.552 76.4831 48.184C76.4831 46.136 75.0431 44.616 72.8191 44.616C70.2591 44.616 68.7231 46.552 68.7231 48.968C68.7231 51.32 70.3711 53.32 73.1551 53.32C74.6591 53.32 75.8911 52.696 76.6431 51.688ZM72.7871 45.992C74.0831 45.992 74.8031 46.92 74.8351 47.928H70.4991C70.7551 46.68 71.5871 45.992 72.7871 45.992ZM83.7888 43.144C84.3968 43.144 84.9088 42.632 84.9088 42.024C84.9088 41.416 84.3968 40.904 83.7888 40.904C83.1808 40.904 82.6688 41.416 82.6688 42.024C82.6688 42.632 83.1808 43.144 83.7888 43.144ZM82.9568 53H84.6048V44.936H82.9568V53ZM87.3006 53H88.9486V47.56C89.3646 46.856 90.0206 46.168 91.1246 46.168C92.2766 46.168 92.9806 46.936 92.9806 48.216V53H94.6446V48.152C94.6446 45.816 93.2846 44.616 91.5086 44.616C90.3566 44.616 89.5566 45.08 88.9486 45.72V44.936H87.3006V53ZM101.559 43.656L103.447 41H101.623L99.9588 43.656H101.559ZM104.487 51.688L103.287 50.728C102.791 51.4 101.975 51.832 100.999 51.832C99.4468 51.832 98.3748 50.92 98.2628 49.16H104.215C104.279 48.92 104.327 48.552 104.327 48.184C104.327 46.136 102.887 44.616 100.663 44.616C98.1028 44.616 96.5668 46.552 96.5668 48.968C96.5668 51.32 98.2148 53.32 100.999 53.32C102.503 53.32 103.735 52.696 104.487 51.688ZM100.631 45.992C101.927 45.992 102.647 46.92 102.679 47.928H98.3428C98.5988 46.68 99.4308 45.992 100.631 45.992ZM105.577 54.44C105.577 56.088 107.113 57 109.593 57C112.041 57 113.737 55.688 113.737 53.944C113.737 52.488 112.697 51.416 110.617 51.416H108.425C107.993 51.416 107.817 51.224 107.817 50.888C107.817 50.648 107.961 50.408 108.217 50.2C108.521 50.264 108.841 50.312 109.193 50.312C111.193 50.312 112.393 49.016 112.393 47.448C112.393 47.064 112.313 46.68 112.169 46.344H113.753V44.936H110.777C110.329 44.728 109.801 44.616 109.193 44.616C107.225 44.616 106.025 45.896 106.025 47.448C106.025 48.344 106.425 49.16 107.129 49.688C106.505 50.12 106.201 50.632 106.201 51.272C106.201 51.688 106.377 52.12 106.729 52.424C105.977 52.984 105.577 53.624 105.577 54.44ZM109.209 49.048C108.169 49.048 107.561 48.36 107.561 47.448C107.561 46.552 108.169 45.88 109.209 45.88C110.249 45.88 110.857 46.552 110.857 47.448C110.857 48.36 110.249 49.048 109.209 49.048ZM107.145 54.216C107.145 53.64 107.449 53.208 107.897 52.856H110.457C111.689 52.856 112.089 53.4 112.089 54.088C112.089 55.032 111.161 55.656 109.561 55.656C108.041 55.656 107.145 55.112 107.145 54.216ZM117.212 53.24C118.204 53.24 119.212 52.792 119.788 52.088V53H121.436V47.672C121.436 45.896 120.236 44.616 118.06 44.616C116.62 44.616 115.468 45.224 114.748 46.184L115.98 47.128C116.444 46.472 117.132 46.072 118.012 46.072C119.052 46.072 119.788 46.68 119.788 47.672V48.088L117.18 48.52C115.468 48.808 114.524 49.688 114.524 50.904C114.524 52.328 115.612 53.24 117.212 53.24ZM116.188 50.84C116.188 50.232 116.604 49.8 117.612 49.624L119.788 49.256V50.648C119.308 51.416 118.524 51.896 117.516 51.896C116.684 51.896 116.188 51.464 116.188 50.84ZM124.019 53H125.667V41H124.019V53ZM129.195 43.144C129.803 43.144 130.315 42.632 130.315 42.024C130.315 41.416 129.803 40.904 129.195 40.904C128.587 40.904 128.075 41.416 128.075 42.024C128.075 42.632 128.587 43.144 129.195 43.144ZM128.363 53H130.011V44.936H128.363V53ZM133.187 50.2C133.187 52.168 134.179 53.16 136.067 53.16C136.691 53.16 137.139 53.08 137.523 52.92V51.464C137.235 51.576 136.867 51.64 136.323 51.64C135.427 51.64 134.851 51.288 134.851 50.2V46.424H137.523V44.936H134.851V42.92H133.187V44.936H131.667V46.424H133.187V50.2ZM143.684 43.656L145.572 41H143.748L142.084 43.656H143.684ZM146.612 51.688L145.412 50.728C144.916 51.4 144.1 51.832 143.124 51.832C141.572 51.832 140.5 50.92 140.388 49.16H146.34C146.404 48.92 146.452 48.552 146.452 48.184C146.452 46.136 145.012 44.616 142.788 44.616C140.228 44.616 138.692 46.552 138.692 48.968C138.692 51.32 140.34 53.32 143.124 53.32C144.628 53.32 145.86 52.696 146.612 51.688ZM142.756 45.992C144.052 45.992 144.772 46.92 144.804 47.928H140.468C140.724 46.68 141.556 45.992 142.756 45.992ZM152.286 48.968C152.286 51.32 153.87 53.32 156.414 53.32C157.566 53.32 158.43 52.904 159.102 52.184V53H160.782V41H159.102V45.752C158.43 45.032 157.566 44.616 156.414 44.616C153.87 44.616 152.286 46.616 152.286 48.968ZM154.03 48.968C154.03 47.384 155.07 46.168 156.622 46.168C157.63 46.168 158.51 46.632 159.102 47.512V50.424C158.558 51.272 157.662 51.768 156.622 51.768C155.07 51.768 154.03 50.552 154.03 48.968ZM170.721 51.688L169.521 50.728C169.025 51.4 168.209 51.832 167.233 51.832C165.681 51.832 164.609 50.92 164.497 49.16H170.449C170.513 48.92 170.561 48.552 170.561 48.184C170.561 46.136 169.121 44.616 166.897 44.616C164.337 44.616 162.801 46.552 162.801 48.968C162.801 51.32 164.449 53.32 167.233 53.32C168.737 53.32 169.969 52.696 170.721 51.688ZM166.865 45.992C168.161 45.992 168.881 46.92 168.913 47.928H164.577C164.833 46.68 165.665 45.992 166.865 45.992ZM177.035 53H178.683V47.624C179.099 46.936 179.771 46.392 180.795 46.392C181.131 46.392 181.387 46.44 181.643 46.504V44.888C181.435 44.824 181.195 44.776 180.939 44.776C179.947 44.776 179.243 45.224 178.683 45.848V44.936H177.035V53ZM190.315 51.688L189.115 50.728C188.619 51.4 187.803 51.832 186.827 51.832C185.275 51.832 184.203 50.92 184.091 49.16H190.043C190.107 48.92 190.155 48.552 190.155 48.184C190.155 46.136 188.715 44.616 186.491 44.616C183.931 44.616 182.395 46.552 182.395 48.968C182.395 51.32 184.043 53.32 186.827 53.32C188.331 53.32 189.563 52.696 190.315 51.688ZM186.459 45.992C187.755 45.992 188.475 46.92 188.507 47.928H184.171C184.427 46.68 185.259 45.992 186.459 45.992ZM191.085 44.936L194.125 53H196.317L199.373 44.936H197.581L195.229 51.208L192.861 44.936H191.085ZM208.034 51.688L206.834 50.728C206.338 51.4 205.522 51.832 204.546 51.832C202.994 51.832 201.922 50.92 201.81 49.16H207.762C207.826 48.92 207.874 48.552 207.874 48.184C207.874 46.136 206.434 44.616 204.21 44.616C201.65 44.616 200.114 46.552 200.114 48.968C200.114 51.32 201.762 53.32 204.546 53.32C206.05 53.32 207.282 52.696 208.034 51.688ZM204.178 45.992C205.474 45.992 206.194 46.92 206.226 47.928H201.89C202.146 46.68 202.978 45.992 204.178 45.992ZM210.035 53H211.683V47.56C212.099 46.856 212.755 46.168 213.859 46.168C215.011 46.168 215.715 46.936 215.715 48.216V53H217.379V48.152C217.379 45.816 216.019 44.616 214.243 44.616C213.091 44.616 212.291 45.08 211.683 45.72V44.936H210.035V53ZM225.413 49.544C225.413 50.936 224.661 51.768 223.429 51.768C222.165 51.768 221.429 50.936 221.429 49.544V44.936H219.765V49.464C219.765 51.88 221.157 53.32 223.429 53.32C225.685 53.32 227.077 51.88 227.077 49.464V44.936H225.413V49.544ZM228.735 51.864C229.487 52.776 230.495 53.32 231.855 53.32C233.359 53.32 234.639 52.376 234.655 50.792C234.655 48.024 230.703 48.568 230.703 46.952C230.703 46.408 231.087 45.96 231.855 45.96C232.527 45.96 233.087 46.36 233.519 46.936L234.639 45.96C234.063 45.192 233.023 44.616 231.839 44.616C230.223 44.616 229.103 45.672 229.103 47C229.103 49.848 233.055 49.256 233.055 50.888C233.055 51.496 232.623 51.976 231.839 51.976C231.039 51.976 230.399 51.544 229.871 50.872L228.735 51.864ZM39.3578 72.768C37.7898 72.768 36.6698 71.568 36.6698 69.968C36.6698 68.384 37.7898 67.168 39.3418 67.168C40.2698 67.168 41.0058 67.616 41.4538 68.24L42.7498 67.248C42.0138 66.256 40.8138 65.616 39.3418 65.616C36.6378 65.616 34.9418 67.616 34.9418 69.968C34.9418 72.32 36.6378 74.32 39.3418 74.32C40.8298 74.32 42.0138 73.68 42.7498 72.688L41.4538 71.696C41.0058 72.32 40.2698 72.768 39.3578 72.768ZM47.9039 65.616C45.2959 65.616 43.5199 67.584 43.5199 69.968C43.5199 72.352 45.2959 74.32 47.9039 74.32C50.5279 74.32 52.2879 72.352 52.2879 69.968C52.2879 67.584 50.5279 65.616 47.9039 65.616ZM47.9199 72.768C46.3679 72.768 45.2479 71.52 45.2479 69.968C45.2479 68.416 46.3679 67.168 47.9199 67.168C49.4399 67.168 50.5599 68.4 50.5599 69.968C50.5599 71.504 49.4399 72.768 47.9199 72.768ZM54.3474 74H55.9954V68.56C56.4114 67.856 57.0674 67.168 58.1714 67.168C59.3234 67.168 60.0274 67.936 60.0274 69.216V74H61.6914V69.152C61.6914 66.816 60.3314 65.616 58.5554 65.616C57.4034 65.616 56.6034 66.08 55.9954 66.72V65.936H54.3474V74ZM63.4537 72.864C64.2057 73.776 65.2137 74.32 66.5737 74.32C68.0777 74.32 69.3577 73.376 69.3737 71.792C69.3737 69.024 65.4217 69.568 65.4217 67.952C65.4217 67.408 65.8057 66.96 66.5737 66.96C67.2457 66.96 67.8057 67.36 68.2377 67.936L69.3577 66.96C68.7817 66.192 67.7417 65.616 66.5577 65.616C64.9417 65.616 63.8217 66.672 63.8217 68C63.8217 70.848 67.7737 70.256 67.7737 71.888C67.7737 72.496 67.3417 72.976 66.5577 72.976C65.7577 72.976 65.1177 72.544 64.5897 71.872L63.4537 72.864ZM72.0149 71.2C72.0149 73.168 73.0069 74.16 74.8949 74.16C75.5189 74.16 75.9669 74.08 76.3509 73.92V72.464C76.0629 72.576 75.6949 72.64 75.1509 72.64C74.2549 72.64 73.6789 72.288 73.6789 71.2V67.424H76.3509V65.936H73.6789V63.92H72.0149V65.936H70.4949V67.424H72.0149V71.2ZM80.5402 74.24C81.5322 74.24 82.5402 73.792 83.1162 73.088V74H84.7642V68.672C84.7642 66.896 83.5642 65.616 81.3882 65.616C79.9482 65.616 78.7962 66.224 78.0762 67.184L79.3082 68.128C79.7722 67.472 80.4602 67.072 81.3402 67.072C82.3802 67.072 83.1162 67.68 83.1162 68.672V69.088L80.5082 69.52C78.7962 69.808 77.8522 70.688 77.8522 71.904C77.8522 73.328 78.9402 74.24 80.5402 74.24ZM79.5162 71.84C79.5162 71.232 79.9322 70.8 80.9402 70.624L83.1162 70.256V71.648C82.6362 72.416 81.8522 72.896 80.8442 72.896C80.0122 72.896 79.5162 72.464 79.5162 71.84ZM87.8274 71.2C87.8274 73.168 88.8194 74.16 90.7074 74.16C91.3314 74.16 91.7794 74.08 92.1634 73.92V72.464C91.8754 72.576 91.5074 72.64 90.9634 72.64C90.0674 72.64 89.4914 72.288 89.4914 71.2V67.424H92.1634V65.936H89.4914V63.92H87.8274V65.936H86.3074V67.424H87.8274V71.2ZM98.3244 64.656L100.212 62H98.3884L96.7244 64.656H98.3244ZM101.252 72.688L100.052 71.728C99.5564 72.4 98.7404 72.832 97.7644 72.832C96.2124 72.832 95.1404 71.92 95.0284 70.16H100.98C101.044 69.92 101.092 69.552 101.092 69.184C101.092 67.136 99.6524 65.616 97.4284 65.616C94.8684 65.616 93.3324 67.552 93.3324 69.968C93.3324 72.32 94.9804 74.32 97.7644 74.32C99.2684 74.32 100.5 73.696 101.252 72.688ZM97.3964 66.992C98.6924 66.992 99.4124 67.92 99.4444 68.928H95.1084C95.3644 67.68 96.1964 66.992 97.3964 66.992ZM110.487 72.688L109.287 71.728C108.791 72.4 107.975 72.832 106.999 72.832C105.447 72.832 104.375 71.92 104.263 70.16H110.215C110.279 69.92 110.327 69.552 110.327 69.184C110.327 67.136 108.887 65.616 106.663 65.616C104.103 65.616 102.567 67.552 102.567 69.968C102.567 72.32 104.215 74.32 106.999 74.32C108.503 74.32 109.735 73.696 110.487 72.688ZM106.631 66.992C107.927 66.992 108.647 67.92 108.679 68.928H104.343C104.599 67.68 105.431 66.992 106.631 66.992ZM124.081 72.688L122.881 71.728C122.385 72.4 121.569 72.832 120.593 72.832C119.041 72.832 117.969 71.92 117.857 70.16H123.809C123.873 69.92 123.921 69.552 123.921 69.184C123.921 67.136 122.481 65.616 120.257 65.616C117.697 65.616 116.161 67.552 116.161 69.968C116.161 72.32 117.809 74.32 120.593 74.32C122.097 74.32 123.329 73.696 124.081 72.688ZM120.225 66.992C121.521 66.992 122.241 67.92 122.273 68.928H117.937C118.193 67.68 119.025 66.992 120.225 66.992ZM126.082 74H127.73V68.56C128.146 67.856 128.802 67.168 129.906 67.168C131.058 67.168 131.762 67.936 131.762 69.216V74H133.426V69.152C133.426 66.816 132.066 65.616 130.29 65.616C129.138 65.616 128.338 66.08 127.73 66.72V65.936H126.082V74ZM136.468 71.2C136.468 73.168 137.46 74.16 139.348 74.16C139.972 74.16 140.42 74.08 140.804 73.92V72.464C140.516 72.576 140.148 72.64 139.604 72.64C138.708 72.64 138.132 72.288 138.132 71.2V67.424H140.804V65.936H138.132V63.92H136.468V65.936H134.948V67.424H136.468V71.2ZM142.769 74H144.417V68.624C144.833 67.936 145.505 67.392 146.529 67.392C146.865 67.392 147.121 67.44 147.377 67.504V65.888C147.169 65.824 146.929 65.776 146.673 65.776C145.681 65.776 144.977 66.224 144.417 66.848V65.936H142.769V74ZM156.049 72.688L154.849 71.728C154.353 72.4 153.537 72.832 152.561 72.832C151.009 72.832 149.937 71.92 149.825 70.16H155.777C155.841 69.92 155.889 69.552 155.889 69.184C155.889 67.136 154.449 65.616 152.225 65.616C149.665 65.616 148.129 67.552 148.129 69.968C148.129 72.32 149.777 74.32 152.561 74.32C154.065 74.32 155.297 73.696 156.049 72.688ZM152.193 66.992C153.489 66.992 154.209 67.92 154.241 68.928H149.905C150.161 67.68 150.993 66.992 152.193 66.992ZM162.363 74H164.011V68.56C164.443 67.856 165.083 67.168 166.187 67.168C167.339 67.168 168.043 67.936 168.043 69.216V74H169.707V69.152C169.707 66.816 168.363 65.616 166.571 65.616C165.419 65.616 164.619 66.08 164.011 66.72V62H162.363V74ZM176.013 65.616C173.405 65.616 171.629 67.584 171.629 69.968C171.629 72.352 173.405 74.32 176.013 74.32C178.637 74.32 180.397 72.352 180.397 69.968C180.397 67.584 178.637 65.616 176.013 65.616ZM176.029 72.768C174.477 72.768 173.357 71.52 173.357 69.968C173.357 68.416 174.477 67.168 176.029 67.168C177.549 67.168 178.669 68.4 178.669 69.968C178.669 71.504 177.549 72.768 176.029 72.768ZM182.457 74H184.105V68.56C184.489 67.872 185.097 67.168 186.121 67.168C187.177 67.168 187.817 67.872 187.817 69.056V74H189.481V68.992C189.481 68.832 189.481 68.688 189.465 68.544C189.897 67.776 190.521 67.168 191.481 67.168C192.521 67.168 193.177 67.872 193.177 69.056V74H194.841V68.992C194.841 66.768 193.545 65.616 191.865 65.616C190.473 65.616 189.673 66.272 189.049 67.072C188.537 66.112 187.609 65.616 186.505 65.616C185.433 65.616 184.681 66.064 184.105 66.688V65.936H182.457V74ZM197.394 74H199.042V68.56C199.426 67.872 200.034 67.168 201.058 67.168C202.114 67.168 202.754 67.872 202.754 69.056V74H204.418V68.992C204.418 68.832 204.418 68.688 204.402 68.544C204.834 67.776 205.458 67.168 206.418 67.168C207.458 67.168 208.114 67.872 208.114 69.056V74H209.778V68.992C209.778 66.768 208.482 65.616 206.802 65.616C205.41 65.616 204.61 66.272 203.986 67.072C203.474 66.112 202.546 65.616 201.442 65.616C200.37 65.616 199.618 66.064 199.042 66.688V65.936H197.394V74ZM219.612 72.688L218.412 71.728C217.916 72.4 217.1 72.832 216.124 72.832C214.572 72.832 213.5 71.92 213.388 70.16H219.34C219.404 69.92 219.452 69.552 219.452 69.184C219.452 67.136 218.012 65.616 215.788 65.616C213.228 65.616 211.692 67.552 211.692 69.968C211.692 72.32 213.34 74.32 216.124 74.32C217.628 74.32 218.86 73.696 219.612 72.688ZM215.756 66.992C217.052 66.992 217.772 67.92 217.804 68.928H213.468C213.724 67.68 214.556 66.992 215.756 66.992ZM220.719 72.864C221.471 73.776 222.479 74.32 223.839 74.32C225.343 74.32 226.623 73.376 226.639 71.792C226.639 69.024 222.687 69.568 222.687 67.952C222.687 67.408 223.071 66.96 223.839 66.96C224.511 66.96 225.071 67.36 225.503 67.936L226.623 66.96C226.047 66.192 225.007 65.616 223.823 65.616C222.207 65.616 221.087 66.672 221.087 68C221.087 70.848 225.039 70.256 225.039 71.888C225.039 72.496 224.607 72.976 223.823 72.976C223.023 72.976 222.383 72.544 221.855 71.872L220.719 72.864ZM240.299 72.688L239.099 71.728C238.603 72.4 237.787 72.832 236.811 72.832C235.259 72.832 234.187 71.92 234.075 70.16H240.027C240.091 69.92 240.139 69.552 240.139 69.184C240.139 67.136 238.699 65.616 236.475 65.616C233.915 65.616 232.379 67.552 232.379 69.968C232.379 72.32 234.027 74.32 236.811 74.32C238.315 74.32 239.547 73.696 240.299 72.688ZM236.443 66.992C237.739 66.992 238.459 67.92 238.491 68.928H234.155C234.411 67.68 235.243 66.992 236.443 66.992ZM242.749 71.2C242.749 73.168 243.741 74.16 245.629 74.16C246.253 74.16 246.701 74.08 247.085 73.92V72.464C246.797 72.576 246.429 72.64 245.885 72.64C244.989 72.64 244.413 72.288 244.413 71.2V67.424H247.085V65.936H244.413V63.92H242.749V65.936H241.229V67.424H242.749V71.2ZM54.3699 86.936V88.424H55.8899V95H57.5539V88.424H60.2259V86.936H57.5539V85.96C57.5539 85.048 58.0979 84.488 58.9139 84.488C59.3619 84.488 59.7139 84.632 59.9859 84.84L60.6899 83.448C60.2259 83.192 59.6179 83 58.8819 83C57.0099 83 55.8899 84.296 55.8899 86.008V86.936H54.3699ZM68.6274 93.688L67.4274 92.728C66.9314 93.4 66.1154 93.832 65.1394 93.832C63.5874 93.832 62.5154 92.92 62.4034 91.16H68.3554C68.4194 90.92 68.4674 90.552 68.4674 90.184C68.4674 88.136 67.0274 86.616 64.8034 86.616C62.2434 86.616 60.7074 88.552 60.7074 90.968C60.7074 93.32 62.3554 95.32 65.1394 95.32C66.6434 95.32 67.8754 94.696 68.6274 93.688ZM64.7714 87.992C66.0674 87.992 66.7874 88.92 66.8194 89.928H62.4834C62.7394 88.68 63.5714 87.992 64.7714 87.992ZM70.6287 95H72.2767V89.56C72.6607 88.872 73.2687 88.168 74.2927 88.168C75.3487 88.168 75.9887 88.872 75.9887 90.056V95H77.6527V89.992C77.6527 89.832 77.6527 89.688 77.6367 89.544C78.0687 88.776 78.6927 88.168 79.6527 88.168C80.6927 88.168 81.3487 88.872 81.3487 90.056V95H83.0127V89.992C83.0127 87.768 81.7167 86.616 80.0367 86.616C78.6447 86.616 77.8447 87.272 77.2207 88.072C76.7087 87.112 75.7807 86.616 74.6767 86.616C73.6047 86.616 72.8527 87.064 72.2767 87.688V86.936H70.6287V95ZM85.5662 95H87.2142V89.56C87.5982 88.872 88.2062 88.168 89.2302 88.168C90.2862 88.168 90.9262 88.872 90.9262 90.056V95H92.5902V89.992C92.5902 89.832 92.5902 89.688 92.5742 89.544C93.0062 88.776 93.6302 88.168 94.5902 88.168C95.6302 88.168 96.2862 88.872 96.2862 90.056V95H97.9502V89.992C97.9502 87.768 96.6542 86.616 94.9742 86.616C93.5822 86.616 92.7822 87.272 92.1582 88.072C91.6462 87.112 90.7182 86.616 89.6142 86.616C88.5422 86.616 87.7902 87.064 87.2142 87.688V86.936H85.5662V95ZM107.784 93.688L106.584 92.728C106.088 93.4 105.272 93.832 104.296 93.832C102.744 93.832 101.672 92.92 101.56 91.16H107.512C107.576 90.92 107.624 90.552 107.624 90.184C107.624 88.136 106.184 86.616 103.96 86.616C101.4 86.616 99.8637 88.552 99.8637 90.968C99.8637 93.32 101.512 95.32 104.296 95.32C105.8 95.32 107.032 94.696 107.784 93.688ZM103.928 87.992C105.224 87.992 105.944 88.92 105.976 89.928H101.64C101.896 88.68 102.728 87.992 103.928 87.992ZM108.891 93.864C109.643 94.776 110.651 95.32 112.011 95.32C113.515 95.32 114.795 94.376 114.811 92.792C114.811 90.024 110.859 90.568 110.859 88.952C110.859 88.408 111.243 87.96 112.011 87.96C112.683 87.96 113.243 88.36 113.675 88.936L114.795 87.96C114.219 87.192 113.179 86.616 111.995 86.616C110.379 86.616 109.259 87.672 109.259 89C109.259 91.848 113.211 91.256 113.211 92.888C113.211 93.496 112.779 93.976 111.995 93.976C111.195 93.976 110.555 93.544 110.027 92.872L108.891 93.864ZM121.191 98.936H122.839V94.168C123.527 94.904 124.391 95.32 125.559 95.32C128.087 95.32 129.671 93.32 129.671 90.968C129.671 88.616 128.087 86.616 125.559 86.616C124.391 86.616 123.527 87.032 122.839 87.768V86.936H121.191V98.936ZM125.351 88.168C126.903 88.168 127.943 89.384 127.943 90.968C127.943 92.552 126.903 93.768 125.351 93.768C124.311 93.768 123.431 93.288 122.839 92.392V89.544C123.415 88.664 124.295 88.168 125.351 88.168ZM131.722 95H133.37V89.56C133.802 88.856 134.442 88.168 135.546 88.168C136.698 88.168 137.402 88.936 137.402 90.216V95H139.066V90.152C139.066 87.816 137.722 86.616 135.93 86.616C134.778 86.616 133.978 87.08 133.37 87.72V83H131.722V95ZM145.373 86.616C142.765 86.616 140.989 88.584 140.989 90.968C140.989 93.352 142.765 95.32 145.373 95.32C147.997 95.32 149.757 93.352 149.757 90.968C149.757 88.584 147.997 86.616 145.373 86.616ZM145.389 93.768C143.837 93.768 142.717 92.52 142.717 90.968C142.717 89.416 143.837 88.168 145.389 88.168C146.909 88.168 148.029 89.4 148.029 90.968C148.029 92.504 146.909 93.768 145.389 93.768ZM152.187 92.2C152.187 94.168 153.179 95.16 155.067 95.16C155.691 95.16 156.139 95.08 156.523 94.92V93.464C156.235 93.576 155.867 93.64 155.323 93.64C154.427 93.64 153.851 93.288 153.851 92.2V88.424H156.523V86.936H153.851V84.92H152.187V86.936H150.667V88.424H152.187V92.2ZM162.076 86.616C159.468 86.616 157.692 88.584 157.692 90.968C157.692 93.352 159.468 95.32 162.076 95.32C164.7 95.32 166.46 93.352 166.46 90.968C166.46 88.584 164.7 86.616 162.076 86.616ZM162.092 93.768C160.54 93.768 159.42 92.52 159.42 90.968C159.42 89.416 160.54 88.168 162.092 88.168C163.612 88.168 164.732 89.4 164.732 90.968C164.732 92.504 163.612 93.768 162.092 93.768ZM167.562 96.44C167.562 98.088 169.098 99 171.578 99C174.026 99 175.722 97.688 175.722 95.944C175.722 94.488 174.682 93.416 172.602 93.416H170.41C169.978 93.416 169.802 93.224 169.802 92.888C169.802 92.648 169.946 92.408 170.202 92.2C170.506 92.264 170.826 92.312 171.178 92.312C173.178 92.312 174.378 91.016 174.378 89.448C174.378 89.064 174.298 88.68 174.154 88.344H175.738V86.936H172.762C172.314 86.728 171.786 86.616 171.178 86.616C169.21 86.616 168.01 87.896 168.01 89.448C168.01 90.344 168.41 91.16 169.114 91.688C168.49 92.12 168.186 92.632 168.186 93.272C168.186 93.688 168.362 94.12 168.714 94.424C167.962 94.984 167.562 95.624 167.562 96.44ZM171.194 91.048C170.154 91.048 169.546 90.36 169.546 89.448C169.546 88.552 170.154 87.88 171.194 87.88C172.234 87.88 172.842 88.552 172.842 89.448C172.842 90.36 172.234 91.048 171.194 91.048ZM169.13 96.216C169.13 95.64 169.434 95.208 169.882 94.856H172.442C173.674 94.856 174.074 95.4 174.074 96.088C174.074 97.032 173.146 97.656 171.546 97.656C170.026 97.656 169.13 97.112 169.13 96.216ZM177.332 95H178.98V89.624C179.396 88.936 180.068 88.392 181.092 88.392C181.428 88.392 181.684 88.44 181.94 88.504V86.888C181.732 86.824 181.492 86.776 181.236 86.776C180.244 86.776 179.54 87.224 178.98 87.848V86.936H177.332V95ZM185.603 95.24C186.595 95.24 187.603 94.792 188.179 94.088V95H189.827V89.672C189.827 87.896 188.627 86.616 186.451 86.616C185.011 86.616 183.859 87.224 183.139 88.184L184.371 89.128C184.835 88.472 185.523 88.072 186.403 88.072C187.443 88.072 188.179 88.68 188.179 89.672V90.088L185.571 90.52C183.859 90.808 182.915 91.688 182.915 92.904C182.915 94.328 184.003 95.24 185.603 95.24ZM184.579 92.84C184.579 92.232 184.995 91.8 186.003 91.624L188.179 91.256V92.648C187.699 93.416 186.915 93.896 185.907 93.896C185.075 93.896 184.579 93.464 184.579 92.84ZM192.41 98.936H194.058V94.168C194.746 94.904 195.61 95.32 196.778 95.32C199.306 95.32 200.89 93.32 200.89 90.968C200.89 88.616 199.306 86.616 196.778 86.616C195.61 86.616 194.746 87.032 194.058 87.768V86.936H192.41V98.936ZM196.57 88.168C198.122 88.168 199.162 89.384 199.162 90.968C199.162 92.552 198.122 93.768 196.57 93.768C195.53 93.768 194.65 93.288 194.058 92.392V89.544C194.634 88.664 195.514 88.168 196.57 88.168ZM202.941 95H204.589V89.56C205.021 88.856 205.661 88.168 206.765 88.168C207.917 88.168 208.621 88.936 208.621 90.216V95H210.285V90.152C210.285 87.816 208.941 86.616 207.149 86.616C205.997 86.616 205.197 87.08 204.589 87.72V83H202.941V95ZM220.127 93.688L218.927 92.728C218.431 93.4 217.615 93.832 216.639 93.832C215.087 93.832 214.015 92.92 213.903 91.16H219.855C219.919 90.92 219.967 90.552 219.967 90.184C219.967 88.136 218.527 86.616 216.303 86.616C213.743 86.616 212.207 88.552 212.207 90.968C212.207 93.32 213.855 95.32 216.639 95.32C218.143 95.32 219.375 94.696 220.127 93.688ZM216.271 87.992C217.567 87.992 218.287 88.92 218.319 89.928H213.983C214.239 88.68 215.071 87.992 216.271 87.992ZM221.235 93.864C221.987 94.776 222.995 95.32 224.355 95.32C225.859 95.32 227.139 94.376 227.155 92.792C227.155 90.024 223.203 90.568 223.203 88.952C223.203 88.408 223.587 87.96 224.355 87.96C225.027 87.96 225.587 88.36 226.019 88.936L227.139 87.96C226.563 87.192 225.523 86.616 224.339 86.616C222.723 86.616 221.603 87.672 221.603 89C221.603 91.848 225.555 91.256 225.555 92.888C225.555 93.496 225.123 93.976 224.339 93.976C223.539 93.976 222.899 93.544 222.371 92.872L221.235 93.864Z" fill="black"/>
<defs>
<radialGradient id="paint0_radial_2802_25193" cx="0" cy="0" r="1" gradientUnits="userSpaceOnUse" gradientTransform="translate(147.759 122.374) rotate(90) scale(167.927 256.365)">
<stop offset="0.572917" stop-color="#D1D1D1"/>
<stop offset="1" stop-color="#110701"/>
</radialGradient>
</defs>
</svg>
