<svg width="282" height="421" viewBox="0 0 282 421" fill="none" xmlns="http://www.w3.org/2000/svg">
<rect width="282" height="421" rx="15.6254" fill="white"/>
<path d="M85.6499 71H91.8899V69.32H87.4739V59.8H85.6499V71ZM101.015 69.688L99.8146 68.728C99.3186 69.4 98.5026 69.832 97.5266 69.832C95.9746 69.832 94.9026 68.92 94.7906 67.16H100.743C100.807 66.92 100.855 66.552 100.855 66.184C100.855 64.136 99.4146 62.616 97.1906 62.616C94.6306 62.616 93.0946 64.552 93.0946 66.968C93.0946 69.32 94.7426 71.32 97.5266 71.32C99.0306 71.32 100.263 70.696 101.015 69.688ZM97.1586 63.992C98.4546 63.992 99.1746 64.92 99.2066 65.928H94.8706C95.1266 64.68 95.9586 63.992 97.1586 63.992ZM102.122 69.864C102.874 70.776 103.882 71.32 105.242 71.32C106.746 71.32 108.026 70.376 108.042 68.792C108.042 66.024 104.09 66.568 104.09 64.952C104.09 64.408 104.474 63.96 105.242 63.96C105.914 63.96 106.474 64.36 106.906 64.936L108.026 63.96C107.45 63.192 106.41 62.616 105.226 62.616C103.61 62.616 102.49 63.672 102.49 65C102.49 67.848 106.442 67.256 106.442 68.888C106.442 69.496 106.01 69.976 105.226 69.976C104.426 69.976 103.786 69.544 103.258 68.872L102.122 69.864ZM118.198 69.768C116.63 69.768 115.51 68.568 115.51 66.968C115.51 65.384 116.63 64.168 118.182 64.168C119.11 64.168 119.846 64.616 120.294 65.24L121.59 64.248C120.854 63.256 119.654 62.616 118.182 62.616C115.478 62.616 113.782 64.616 113.782 66.968C113.782 69.32 115.478 71.32 118.182 71.32C119.67 71.32 120.854 70.68 121.59 69.688L120.294 68.696C119.846 69.32 119.11 69.768 118.198 69.768ZM126.744 62.616C124.136 62.616 122.36 64.584 122.36 66.968C122.36 69.352 124.136 71.32 126.744 71.32C129.368 71.32 131.128 69.352 131.128 66.968C131.128 64.584 129.368 62.616 126.744 62.616ZM126.76 69.768C125.208 69.768 124.088 68.52 124.088 66.968C124.088 65.416 125.208 64.168 126.76 64.168C128.28 64.168 129.4 65.4 129.4 66.968C129.4 68.504 128.28 69.768 126.76 69.768ZM133.188 71H134.836V59H133.188V71ZM137.532 71H139.18V59H137.532V71ZM149.155 69.688L147.955 68.728C147.459 69.4 146.643 69.832 145.667 69.832C144.115 69.832 143.043 68.92 142.931 67.16H148.883C148.947 66.92 148.995 66.552 148.995 66.184C148.995 64.136 147.555 62.616 145.331 62.616C142.771 62.616 141.235 64.552 141.235 66.968C141.235 69.32 142.883 71.32 145.667 71.32C147.171 71.32 148.403 70.696 149.155 69.688ZM145.299 63.992C146.595 63.992 147.315 64.92 147.347 65.928H143.011C143.267 64.68 144.099 63.992 145.299 63.992ZM154.886 69.768C153.318 69.768 152.198 68.568 152.198 66.968C152.198 65.384 153.318 64.168 154.87 64.168C155.798 64.168 156.534 64.616 156.982 65.24L158.278 64.248C157.542 63.256 156.342 62.616 154.87 62.616C152.166 62.616 150.47 64.616 150.47 66.968C150.47 69.32 152.166 71.32 154.87 71.32C156.358 71.32 157.542 70.68 158.278 69.688L156.982 68.696C156.534 69.32 155.798 69.768 154.886 69.768ZM160.496 68.2C160.496 70.168 161.488 71.16 163.376 71.16C164 71.16 164.448 71.08 164.832 70.92V69.464C164.544 69.576 164.176 69.64 163.632 69.64C162.736 69.64 162.16 69.288 162.16 68.2V64.424H164.832V62.936H162.16V60.92H160.496V62.936H158.976V64.424H160.496V68.2ZM167.629 61.144C168.237 61.144 168.749 60.632 168.749 60.024C168.749 59.416 168.237 58.904 167.629 58.904C167.021 58.904 166.509 59.416 166.509 60.024C166.509 60.632 167.021 61.144 167.629 61.144ZM166.797 71H168.445V62.936H166.797V71ZM174.885 62.616C172.277 62.616 170.501 64.584 170.501 66.968C170.501 69.352 172.277 71.32 174.885 71.32C177.509 71.32 179.269 69.352 179.269 66.968C179.269 64.584 177.509 62.616 174.885 62.616ZM174.901 69.768C173.349 69.768 172.229 68.52 172.229 66.968C172.229 65.416 173.349 64.168 174.901 64.168C176.421 64.168 177.541 65.4 177.541 66.968C177.541 68.504 176.421 69.768 174.901 69.768ZM181.328 71H182.976V65.56C183.392 64.856 184.048 64.168 185.152 64.168C186.304 64.168 187.008 64.936 187.008 66.216V71H188.672V66.152C188.672 63.816 187.312 62.616 185.536 62.616C184.384 62.616 183.584 63.08 182.976 63.72V62.936H181.328V71ZM190.435 69.864C191.187 70.776 192.195 71.32 193.555 71.32C195.059 71.32 196.339 70.376 196.355 68.792C196.355 66.024 192.403 66.568 192.403 64.952C192.403 64.408 192.787 63.96 193.555 63.96C194.227 63.96 194.787 64.36 195.219 64.936L196.339 63.96C195.763 63.192 194.723 62.616 193.539 62.616C191.923 62.616 190.803 63.672 190.803 65C190.803 67.848 194.755 67.256 194.755 68.888C194.755 69.496 194.323 69.976 193.539 69.976C192.739 69.976 192.099 69.544 191.571 68.872L190.435 69.864ZM56.4143 96.936H58.0623V92.168C58.7503 92.904 59.6143 93.32 60.7823 93.32C63.3103 93.32 64.8943 91.32 64.8943 88.968C64.8943 86.616 63.3103 84.616 60.7823 84.616C59.6143 84.616 58.7503 85.032 58.0623 85.768V84.936H56.4143V96.936ZM60.5743 86.168C62.1263 86.168 63.1663 87.384 63.1663 88.968C63.1663 90.552 62.1263 91.768 60.5743 91.768C59.5343 91.768 58.6543 91.288 58.0623 90.392V87.544C58.6383 86.664 59.5183 86.168 60.5743 86.168ZM66.9456 93H68.5936V87.56C69.0256 86.856 69.6656 86.168 70.7696 86.168C71.9216 86.168 72.6256 86.936 72.6256 88.216V93H74.2896V88.152C74.2896 85.816 72.9456 84.616 71.1536 84.616C70.0016 84.616 69.2016 85.08 68.5936 85.72V81H66.9456V93ZM80.5958 84.616C77.9878 84.616 76.2118 86.584 76.2118 88.968C76.2118 91.352 77.9878 93.32 80.5958 93.32C83.2198 93.32 84.9798 91.352 84.9798 88.968C84.9798 86.584 83.2198 84.616 80.5958 84.616ZM80.6118 91.768C79.0598 91.768 77.9398 90.52 77.9398 88.968C77.9398 87.416 79.0598 86.168 80.6118 86.168C82.1318 86.168 83.2518 87.4 83.2518 88.968C83.2518 90.504 82.1318 91.768 80.6118 91.768ZM87.4099 90.2C87.4099 92.168 88.4019 93.16 90.2899 93.16C90.9139 93.16 91.3619 93.08 91.7459 92.92V91.464C91.4579 91.576 91.0899 91.64 90.5459 91.64C89.6499 91.64 89.0739 91.288 89.0739 90.2V86.424H91.7459V84.936H89.0739V82.92H87.4099V84.936H85.8899V86.424H87.4099V90.2ZM97.2989 84.616C94.6909 84.616 92.9149 86.584 92.9149 88.968C92.9149 91.352 94.6909 93.32 97.2989 93.32C99.9229 93.32 101.683 91.352 101.683 88.968C101.683 86.584 99.9229 84.616 97.2989 84.616ZM97.3149 91.768C95.7629 91.768 94.6429 90.52 94.6429 88.968C94.6429 87.416 95.7629 86.168 97.3149 86.168C98.8349 86.168 99.9549 87.4 99.9549 88.968C99.9549 90.504 98.8349 91.768 97.3149 91.768ZM102.785 94.44C102.785 96.088 104.321 97 106.801 97C109.249 97 110.945 95.688 110.945 93.944C110.945 92.488 109.905 91.416 107.825 91.416H105.633C105.201 91.416 105.025 91.224 105.025 90.888C105.025 90.648 105.169 90.408 105.425 90.2C105.729 90.264 106.049 90.312 106.401 90.312C108.401 90.312 109.601 89.016 109.601 87.448C109.601 87.064 109.521 86.68 109.377 86.344H110.961V84.936H107.985C107.537 84.728 107.009 84.616 106.401 84.616C104.433 84.616 103.233 85.896 103.233 87.448C103.233 88.344 103.633 89.16 104.337 89.688C103.713 90.12 103.409 90.632 103.409 91.272C103.409 91.688 103.585 92.12 103.937 92.424C103.185 92.984 102.785 93.624 102.785 94.44ZM106.417 89.048C105.377 89.048 104.769 88.36 104.769 87.448C104.769 86.552 105.377 85.88 106.417 85.88C107.457 85.88 108.065 86.552 108.065 87.448C108.065 88.36 107.457 89.048 106.417 89.048ZM104.353 94.216C104.353 93.64 104.657 93.208 105.105 92.856H107.665C108.897 92.856 109.297 93.4 109.297 94.088C109.297 95.032 108.369 95.656 106.769 95.656C105.249 95.656 104.353 95.112 104.353 94.216ZM112.555 93H114.203V87.624C114.619 86.936 115.291 86.392 116.315 86.392C116.651 86.392 116.907 86.44 117.163 86.504V84.888C116.955 84.824 116.715 84.776 116.459 84.776C115.467 84.776 114.763 85.224 114.203 85.848V84.936H112.555V93ZM120.826 93.24C121.818 93.24 122.826 92.792 123.402 92.088V93H125.05V87.672C125.05 85.896 123.85 84.616 121.674 84.616C120.234 84.616 119.082 85.224 118.362 86.184L119.594 87.128C120.058 86.472 120.746 86.072 121.626 86.072C122.666 86.072 123.402 86.68 123.402 87.672V88.088L120.794 88.52C119.082 88.808 118.138 89.688 118.138 90.904C118.138 92.328 119.226 93.24 120.826 93.24ZM119.802 90.84C119.802 90.232 120.218 89.8 121.226 89.624L123.402 89.256V90.648C122.922 91.416 122.138 91.896 121.13 91.896C120.298 91.896 119.802 91.464 119.802 90.84ZM127.633 96.936H129.281V92.168C129.969 92.904 130.833 93.32 132.001 93.32C134.529 93.32 136.113 91.32 136.113 88.968C136.113 86.616 134.529 84.616 132.001 84.616C130.833 84.616 129.969 85.032 129.281 85.768V84.936H127.633V96.936ZM131.793 86.168C133.345 86.168 134.385 87.384 134.385 88.968C134.385 90.552 133.345 91.768 131.793 91.768C130.753 91.768 129.873 91.288 129.281 90.392V87.544C129.857 86.664 130.737 86.168 131.793 86.168ZM138.164 93H139.812V87.56C140.244 86.856 140.884 86.168 141.988 86.168C143.14 86.168 143.844 86.936 143.844 88.216V93H145.508V88.152C145.508 85.816 144.164 84.616 142.372 84.616C141.22 84.616 140.42 85.08 139.812 85.72V81H138.164V93ZM148.903 83.144C149.511 83.144 150.023 82.632 150.023 82.024C150.023 81.416 149.511 80.904 148.903 80.904C148.295 80.904 147.783 81.416 147.783 82.024C147.783 82.632 148.295 83.144 148.903 83.144ZM148.071 93H149.719V84.936H148.071V93ZM151.774 88.968C151.774 91.32 153.358 93.32 155.886 93.32C157.054 93.32 157.918 92.904 158.59 92.168V96.936H160.27V84.936H158.59V85.768C157.918 85.032 157.054 84.616 155.886 84.616C153.358 84.616 151.774 86.616 151.774 88.968ZM153.502 88.968C153.502 87.384 154.542 86.168 156.094 86.168C157.118 86.168 157.998 86.632 158.59 87.512V90.424C158.046 91.272 157.15 91.768 156.094 91.768C154.542 91.768 153.502 90.552 153.502 88.968ZM168.418 89.544C168.418 90.936 167.666 91.768 166.434 91.768C165.17 91.768 164.434 90.936 164.434 89.544V84.936H162.77V89.464C162.77 91.88 164.162 93.32 166.434 93.32C168.69 93.32 170.082 91.88 170.082 89.464V84.936H168.418V89.544ZM179.866 91.688L178.666 90.728C178.17 91.4 177.354 91.832 176.378 91.832C174.826 91.832 173.754 90.92 173.642 89.16H179.594C179.658 88.92 179.706 88.552 179.706 88.184C179.706 86.136 178.266 84.616 176.042 84.616C173.482 84.616 171.946 86.552 171.946 88.968C171.946 91.32 173.594 93.32 176.378 93.32C177.882 93.32 179.114 92.696 179.866 91.688ZM176.01 85.992C177.306 85.992 178.026 86.92 178.058 87.928H173.722C173.978 86.68 174.81 85.992 176.01 85.992ZM180.974 91.864C181.726 92.776 182.734 93.32 184.094 93.32C185.598 93.32 186.878 92.376 186.894 90.792C186.894 88.024 182.942 88.568 182.942 86.952C182.942 86.408 183.326 85.96 184.094 85.96C184.766 85.96 185.326 86.36 185.758 86.936L186.878 85.96C186.302 85.192 185.262 84.616 184.078 84.616C182.462 84.616 181.342 85.672 181.342 87C181.342 89.848 185.294 89.256 185.294 90.888C185.294 91.496 184.862 91.976 184.078 91.976C183.278 91.976 182.638 91.544 182.11 90.872L180.974 91.864ZM192.474 91.864C193.226 92.776 194.234 93.32 195.594 93.32C197.098 93.32 198.378 92.376 198.394 90.792C198.394 88.024 194.442 88.568 194.442 86.952C194.442 86.408 194.826 85.96 195.594 85.96C196.266 85.96 196.826 86.36 197.258 86.936L198.378 85.96C197.802 85.192 196.762 84.616 195.578 84.616C193.962 84.616 192.842 85.672 192.842 87C192.842 89.848 196.794 89.256 196.794 90.888C196.794 91.496 196.362 91.976 195.578 91.976C194.778 91.976 194.138 91.544 193.61 90.872L192.474 91.864ZM204.143 84.616C201.535 84.616 199.759 86.584 199.759 88.968C199.759 91.352 201.535 93.32 204.143 93.32C206.767 93.32 208.527 91.352 208.527 88.968C208.527 86.584 206.767 84.616 204.143 84.616ZM204.159 91.768C202.607 91.768 201.487 90.52 201.487 88.968C201.487 87.416 202.607 86.168 204.159 86.168C205.679 86.168 206.799 87.4 206.799 88.968C206.799 90.504 205.679 91.768 204.159 91.768ZM210.586 93H212.234V87.56C212.65 86.856 213.306 86.168 214.41 86.168C215.562 86.168 216.266 86.936 216.266 88.216V93H217.93V88.152C217.93 85.816 216.57 84.616 214.794 84.616C213.642 84.616 212.842 85.08 212.234 85.72V84.936H210.586V93ZM220.972 90.2C220.972 92.168 221.964 93.16 223.852 93.16C224.476 93.16 224.924 93.08 225.308 92.92V91.464C225.02 91.576 224.652 91.64 224.108 91.64C223.212 91.64 222.636 91.288 222.636 90.2V86.424H225.308V84.936H222.636V82.92H220.972V84.936H219.452V86.424H220.972V90.2ZM81.1709 113.688L79.9709 112.728C79.4749 113.4 78.6589 113.832 77.6829 113.832C76.1309 113.832 75.0589 112.92 74.9469 111.16H80.8989C80.9629 110.92 81.0109 110.552 81.0109 110.184C81.0109 108.136 79.5709 106.616 77.3469 106.616C74.7869 106.616 73.2509 108.552 73.2509 110.968C73.2509 113.32 74.8989 115.32 77.6829 115.32C79.1869 115.32 80.4189 114.696 81.1709 113.688ZM77.3149 107.992C78.6109 107.992 79.3309 108.92 79.3629 109.928H75.0269C75.2829 108.68 76.1149 107.992 77.3149 107.992ZM83.1721 115H84.8201V109.56C85.2361 108.856 85.8921 108.168 86.9961 108.168C88.1481 108.168 88.8521 108.936 88.8521 110.216V115H90.5161V110.152C90.5161 107.816 89.1561 106.616 87.3801 106.616C86.2281 106.616 85.4281 107.08 84.8201 107.72V106.936H83.1721V115ZM96.8544 113.768C95.2864 113.768 94.1664 112.568 94.1664 110.968C94.1664 109.384 95.2864 108.168 96.8384 108.168C97.7664 108.168 98.5024 108.616 98.9504 109.24L100.246 108.248C99.5104 107.256 98.3104 106.616 96.8384 106.616C94.1344 106.616 92.4384 108.616 92.4384 110.968C92.4384 113.32 94.1344 115.32 96.8384 115.32C98.3264 115.32 99.5104 114.68 100.246 113.688L98.9504 112.696C98.5024 113.32 97.7664 113.768 96.8544 113.768ZM105.401 106.616C102.793 106.616 101.017 108.584 101.017 110.968C101.017 113.352 102.793 115.32 105.401 115.32C108.025 115.32 109.785 113.352 109.785 110.968C109.785 108.584 108.025 106.616 105.401 106.616ZM105.417 113.768C103.865 113.768 102.745 112.52 102.745 110.968C102.745 109.416 103.865 108.168 105.417 108.168C106.937 108.168 108.057 109.4 108.057 110.968C108.057 112.504 106.937 113.768 105.417 113.768ZM111.844 115H113.492V109.624C113.908 108.936 114.58 108.392 115.604 108.392C115.94 108.392 116.196 108.44 116.452 108.504V106.888C116.244 106.824 116.004 106.776 115.748 106.776C114.756 106.776 114.052 107.224 113.492 107.848V106.936H111.844V115ZM125.124 113.688L123.924 112.728C123.428 113.4 122.612 113.832 121.636 113.832C120.084 113.832 119.012 112.92 118.9 111.16H124.852C124.916 110.92 124.964 110.552 124.964 110.184C124.964 108.136 123.524 106.616 121.3 106.616C118.74 106.616 117.204 108.552 117.204 110.968C117.204 113.32 118.852 115.32 121.636 115.32C123.14 115.32 124.372 114.696 125.124 113.688ZM121.268 107.992C122.564 107.992 123.284 108.92 123.316 109.928H118.98C119.236 108.68 120.068 107.992 121.268 107.992ZM131.438 115H133.086V103H131.438V115ZM138.006 115.24C138.998 115.24 140.006 114.792 140.582 114.088V115H142.23V109.672C142.23 107.896 141.03 106.616 138.854 106.616C137.414 106.616 136.262 107.224 135.542 108.184L136.774 109.128C137.238 108.472 137.926 108.072 138.806 108.072C139.846 108.072 140.582 108.68 140.582 109.672V110.088L137.974 110.52C136.262 110.808 135.318 111.688 135.318 112.904C135.318 114.328 136.406 115.24 138.006 115.24ZM136.982 112.84C136.982 112.232 137.398 111.8 138.406 111.624L140.582 111.256V112.648C140.102 113.416 139.318 113.896 138.31 113.896C137.478 113.896 136.982 113.464 136.982 112.84ZM144.813 115H146.461V109.624C146.877 108.936 147.549 108.392 148.573 108.392C148.909 108.392 149.165 108.44 149.421 108.504V106.888C149.213 106.824 148.973 106.776 148.717 106.776C147.725 106.776 147.021 107.224 146.461 107.848V106.936H144.813V115ZM150.214 116.44C150.214 118.088 151.75 119 154.23 119C156.678 119 158.374 117.688 158.374 115.944C158.374 114.488 157.334 113.416 155.254 113.416H153.062C152.63 113.416 152.454 113.224 152.454 112.888C152.454 112.648 152.598 112.408 152.854 112.2C153.158 112.264 153.478 112.312 153.83 112.312C155.83 112.312 157.03 111.016 157.03 109.448C157.03 109.064 156.95 108.68 156.806 108.344H158.39V106.936H155.414C154.966 106.728 154.438 106.616 153.83 106.616C151.862 106.616 150.662 107.896 150.662 109.448C150.662 110.344 151.062 111.16 151.766 111.688C151.142 112.12 150.838 112.632 150.838 113.272C150.838 113.688 151.014 114.12 151.366 114.424C150.614 114.984 150.214 115.624 150.214 116.44ZM153.846 111.048C152.806 111.048 152.198 110.36 152.198 109.448C152.198 108.552 152.806 107.88 153.846 107.88C154.886 107.88 155.494 108.552 155.494 109.448C155.494 110.36 154.886 111.048 153.846 111.048ZM151.782 116.216C151.782 115.64 152.086 115.208 152.534 114.856H155.094C156.326 114.856 156.726 115.4 156.726 116.088C156.726 117.032 155.798 117.656 154.198 117.656C152.678 117.656 151.782 117.112 151.782 116.216ZM166.89 113.688L165.69 112.728C165.194 113.4 164.378 113.832 163.402 113.832C161.85 113.832 160.778 112.92 160.666 111.16H166.618C166.682 110.92 166.73 110.552 166.73 110.184C166.73 108.136 165.29 106.616 163.066 106.616C160.506 106.616 158.97 108.552 158.97 110.968C158.97 113.32 160.618 115.32 163.402 115.32C164.906 115.32 166.138 114.696 166.89 113.688ZM163.034 107.992C164.33 107.992 165.05 108.92 165.082 109.928H160.746C161.002 108.68 161.834 107.992 163.034 107.992ZM168.891 115H170.539V109.56C170.923 108.872 171.531 108.168 172.555 108.168C173.611 108.168 174.251 108.872 174.251 110.056V115H175.915V109.992C175.915 109.832 175.915 109.688 175.899 109.544C176.331 108.776 176.955 108.168 177.915 108.168C178.955 108.168 179.611 108.872 179.611 110.056V115H181.275V109.992C181.275 107.768 179.979 106.616 178.299 106.616C176.907 106.616 176.107 107.272 175.483 108.072C174.971 107.112 174.043 106.616 172.939 106.616C171.867 106.616 171.115 107.064 170.539 107.688V106.936H168.891V115ZM191.108 113.688L189.908 112.728C189.412 113.4 188.596 113.832 187.62 113.832C186.068 113.832 184.996 112.92 184.884 111.16H190.836C190.9 110.92 190.948 110.552 190.948 110.184C190.948 108.136 189.508 106.616 187.284 106.616C184.724 106.616 183.188 108.552 183.188 110.968C183.188 113.32 184.836 115.32 187.62 115.32C189.124 115.32 190.356 114.696 191.108 113.688ZM187.252 107.992C188.548 107.992 189.268 108.92 189.3 109.928H184.964C185.22 108.68 186.052 107.992 187.252 107.992ZM193.11 115H194.758V109.56C195.174 108.856 195.83 108.168 196.934 108.168C198.086 108.168 198.79 108.936 198.79 110.216V115H200.454V110.152C200.454 107.816 199.094 106.616 197.318 106.616C196.166 106.616 195.366 107.08 194.758 107.72V106.936H193.11V115ZM203.496 112.2C203.496 114.168 204.488 115.16 206.376 115.16C207 115.16 207.448 115.08 207.832 114.92V113.464C207.544 113.576 207.176 113.64 206.632 113.64C205.736 113.64 205.16 113.288 205.16 112.2V108.424H207.832V106.936H205.16V104.92H203.496V106.936H201.976V108.424H203.496V112.2ZM56.4403 135.768C54.8723 135.768 53.7523 134.568 53.7523 132.968C53.7523 131.384 54.8723 130.168 56.4243 130.168C57.3523 130.168 58.0883 130.616 58.5363 131.24L59.8323 130.248C59.0963 129.256 57.8963 128.616 56.4243 128.616C53.7203 128.616 52.0243 130.616 52.0243 132.968C52.0243 135.32 53.7203 137.32 56.4243 137.32C57.9123 137.32 59.0963 136.68 59.8323 135.688L58.5363 134.696C58.0883 135.32 57.3523 135.768 56.4403 135.768ZM64.9864 128.616C62.3784 128.616 60.6024 130.584 60.6024 132.968C60.6024 135.352 62.3784 137.32 64.9864 137.32C67.6104 137.32 69.3704 135.352 69.3704 132.968C69.3704 130.584 67.6104 128.616 64.9864 128.616ZM65.0024 135.768C63.4504 135.768 62.3304 134.52 62.3304 132.968C62.3304 131.416 63.4504 130.168 65.0024 130.168C66.5224 130.168 67.6424 131.4 67.6424 132.968C67.6424 134.504 66.5224 135.768 65.0024 135.768ZM71.4299 137H73.0779V131.56C73.4939 130.856 74.1499 130.168 75.2539 130.168C76.4059 130.168 77.1099 130.936 77.1099 132.216V137H78.7739V132.152C78.7739 129.816 77.4139 128.616 75.6379 128.616C74.4859 128.616 73.6859 129.08 73.0779 129.72V128.936H71.4299V137ZM80.5362 135.864C81.2882 136.776 82.2962 137.32 83.6562 137.32C85.1602 137.32 86.4402 136.376 86.4562 134.792C86.4562 132.024 82.5042 132.568 82.5042 130.952C82.5042 130.408 82.8882 129.96 83.6562 129.96C84.3282 129.96 84.8882 130.36 85.3202 130.936L86.4402 129.96C85.8642 129.192 84.8242 128.616 83.6402 128.616C82.0242 128.616 80.9042 129.672 80.9042 131C80.9042 133.848 84.8562 133.256 84.8562 134.888C84.8562 135.496 84.4242 135.976 83.6402 135.976C82.8402 135.976 82.2002 135.544 81.6722 134.872L80.5362 135.864ZM90.7008 137.24C91.6928 137.24 92.7008 136.792 93.2768 136.088V137H94.9248V131.672C94.9248 129.896 93.7248 128.616 91.5488 128.616C90.1088 128.616 88.9568 129.224 88.2368 130.184L89.4688 131.128C89.9328 130.472 90.6208 130.072 91.5008 130.072C92.5408 130.072 93.2768 130.68 93.2768 131.672V132.088L90.6688 132.52C88.9568 132.808 88.0128 133.688 88.0128 134.904C88.0128 136.328 89.1008 137.24 90.7008 137.24ZM89.6768 134.84C89.6768 134.232 90.0928 133.8 91.1008 133.624L93.2768 133.256V134.648C92.7968 135.416 92.0128 135.896 91.0048 135.896C90.1728 135.896 89.6768 135.464 89.6768 134.84ZM101.284 135.768C99.7161 135.768 98.5961 134.568 98.5961 132.968C98.5961 131.384 99.7161 130.168 101.268 130.168C102.196 130.168 102.932 130.616 103.38 131.24L104.676 130.248C103.94 129.256 102.74 128.616 101.268 128.616C98.5641 128.616 96.8681 130.616 96.8681 132.968C96.8681 135.32 98.5641 137.32 101.268 137.32C102.756 137.32 103.94 136.68 104.676 135.688L103.38 134.696C102.932 135.32 102.196 135.768 101.284 135.768ZM106.399 137H108.047V131.624C108.463 130.936 109.135 130.392 110.159 130.392C110.495 130.392 110.751 130.44 111.007 130.504V128.888C110.799 128.824 110.559 128.776 110.303 128.776C109.311 128.776 108.607 129.224 108.047 129.848V128.936H106.399V137ZM116.751 127.656L118.639 125H116.815L115.151 127.656H116.751ZM119.679 135.688L118.479 134.728C117.983 135.4 117.167 135.832 116.191 135.832C114.639 135.832 113.567 134.92 113.455 133.16H119.407C119.471 132.92 119.519 132.552 119.519 132.184C119.519 130.136 118.079 128.616 115.855 128.616C113.295 128.616 111.759 130.552 111.759 132.968C111.759 135.32 113.407 137.32 116.191 137.32C117.695 137.32 118.927 136.696 119.679 135.688ZM115.823 129.992C117.119 129.992 117.839 130.92 117.871 131.928H113.535C113.791 130.68 114.623 129.992 115.823 129.992ZM128.913 135.688L127.713 134.728C127.217 135.4 126.401 135.832 125.425 135.832C123.873 135.832 122.801 134.92 122.689 133.16H128.641C128.705 132.92 128.753 132.552 128.753 132.184C128.753 130.136 127.313 128.616 125.089 128.616C122.529 128.616 120.993 130.552 120.993 132.968C120.993 135.32 122.641 137.32 125.425 137.32C126.929 137.32 128.161 136.696 128.913 135.688ZM125.057 129.992C126.353 129.992 127.073 130.92 127.105 131.928H122.769C123.025 130.68 123.857 129.992 125.057 129.992ZM130.021 135.864C130.773 136.776 131.781 137.32 133.141 137.32C134.645 137.32 135.925 136.376 135.941 134.792C135.941 132.024 131.989 132.568 131.989 130.952C131.989 130.408 132.373 129.96 133.141 129.96C133.813 129.96 134.373 130.36 134.805 130.936L135.925 129.96C135.349 129.192 134.309 128.616 133.125 128.616C131.509 128.616 130.389 129.672 130.389 131C130.389 133.848 134.341 133.256 134.341 134.888C134.341 135.496 133.909 135.976 133.125 135.976C132.325 135.976 131.685 135.544 131.157 134.872L130.021 135.864ZM144.545 137.24C145.537 137.24 146.545 136.792 147.121 136.088V137H148.769V131.672C148.769 129.896 147.569 128.616 145.393 128.616C143.953 128.616 142.801 129.224 142.081 130.184L143.313 131.128C143.777 130.472 144.465 130.072 145.345 130.072C146.385 130.072 147.121 130.68 147.121 131.672V132.088L144.513 132.52C142.801 132.808 141.857 133.688 141.857 134.904C141.857 136.328 142.945 137.24 144.545 137.24ZM143.521 134.84C143.521 134.232 143.937 133.8 144.945 133.624L147.121 133.256V134.648C146.641 135.416 145.857 135.896 144.849 135.896C144.017 135.896 143.521 135.464 143.521 134.84ZM156.824 133.544C156.824 134.936 156.072 135.768 154.84 135.768C153.576 135.768 152.84 134.936 152.84 133.544V128.936H151.176V133.464C151.176 135.88 152.568 137.32 154.84 137.32C157.096 137.32 158.488 135.88 158.488 133.464V128.936H156.824V133.544ZM161.749 137L163.829 133.96L165.925 137H167.813L164.901 132.84L167.637 128.936H165.733L163.829 131.704L161.925 128.936H160.021L162.741 132.84L159.829 137H161.749ZM176.045 137.24C177.037 137.24 178.045 136.792 178.621 136.088V137H180.269V131.672C180.269 129.896 179.069 128.616 176.893 128.616C175.453 128.616 174.301 129.224 173.581 130.184L174.813 131.128C175.277 130.472 175.965 130.072 176.845 130.072C177.885 130.072 178.621 130.68 178.621 131.672V132.088L176.013 132.52C174.301 132.808 173.357 133.688 173.357 134.904C173.357 136.328 174.445 137.24 176.045 137.24ZM175.021 134.84C175.021 134.232 175.437 133.8 176.445 133.624L178.621 133.256V134.648C178.141 135.416 177.357 135.896 176.349 135.896C175.517 135.896 175.021 135.464 175.021 134.84ZM182.852 137H184.5V131.624C184.916 130.936 185.588 130.392 186.612 130.392C186.948 130.392 187.204 130.44 187.46 130.504V128.888C187.252 128.824 187.012 128.776 186.756 128.776C185.764 128.776 185.06 129.224 184.5 129.848V128.936H182.852V137ZM190.191 134.2C190.191 136.168 191.183 137.16 193.071 137.16C193.695 137.16 194.143 137.08 194.527 136.92V135.464C194.239 135.576 193.871 135.64 193.327 135.64C192.431 135.64 191.855 135.288 191.855 134.2V130.424H194.527V128.936H191.855V126.92H190.191V128.936H188.671V130.424H190.191V134.2ZM197.324 127.144C197.932 127.144 198.444 126.632 198.444 126.024C198.444 125.416 197.932 124.904 197.324 124.904C196.716 124.904 196.204 125.416 196.204 126.024C196.204 126.632 196.716 127.144 197.324 127.144ZM196.492 137H198.14V128.936H196.492V137ZM199.942 135.864C200.694 136.776 201.702 137.32 203.062 137.32C204.566 137.32 205.846 136.376 205.862 134.792C205.862 132.024 201.91 132.568 201.91 130.952C201.91 130.408 202.294 129.96 203.062 129.96C203.734 129.96 204.294 130.36 204.726 130.936L205.846 129.96C205.27 129.192 204.23 128.616 203.046 128.616C201.43 128.616 200.31 129.672 200.31 131C200.31 133.848 204.262 133.256 204.262 134.888C204.262 135.496 203.83 135.976 203.046 135.976C202.246 135.976 201.606 135.544 201.078 134.872L199.942 135.864ZM208.504 134.2C208.504 136.168 209.496 137.16 211.384 137.16C212.008 137.16 212.456 137.08 212.84 136.92V135.464C212.552 135.576 212.184 135.64 211.64 135.64C210.744 135.64 210.168 135.288 210.168 134.2V130.424H212.84V128.936H210.168V126.92H208.504V128.936H206.984V130.424H208.504V134.2ZM221.929 135.688L220.729 134.728C220.233 135.4 219.417 135.832 218.441 135.832C216.889 135.832 215.817 134.92 215.705 133.16H221.657C221.721 132.92 221.769 132.552 221.769 132.184C221.769 130.136 220.329 128.616 218.105 128.616C215.545 128.616 214.009 130.552 214.009 132.968C214.009 135.32 215.657 137.32 218.441 137.32C219.945 137.32 221.177 136.696 221.929 135.688ZM218.073 129.992C219.369 129.992 220.089 130.92 220.121 131.928H215.785C216.041 130.68 216.873 129.992 218.073 129.992ZM223.036 135.864C223.788 136.776 224.796 137.32 226.156 137.32C227.66 137.32 228.94 136.376 228.956 134.792C228.956 132.024 225.004 132.568 225.004 130.952C225.004 130.408 225.388 129.96 226.156 129.96C226.828 129.96 227.388 130.36 227.82 130.936L228.94 129.96C228.364 129.192 227.324 128.616 226.14 128.616C224.524 128.616 223.404 129.672 223.404 131C223.404 133.848 227.356 133.256 227.356 134.888C227.356 135.496 226.924 135.976 226.14 135.976C225.34 135.976 224.7 135.544 224.172 134.872L223.036 135.864ZM108.672 159H110.32V153.56C110.752 152.856 111.392 152.168 112.496 152.168C113.648 152.168 114.352 152.936 114.352 154.216V159H116.016V154.152C116.016 151.816 114.672 150.616 112.88 150.616C111.728 150.616 110.928 151.08 110.32 151.72V147H108.672V159ZM122.322 150.616C119.714 150.616 117.938 152.584 117.938 154.968C117.938 157.352 119.714 159.32 122.322 159.32C124.946 159.32 126.706 157.352 126.706 154.968C126.706 152.584 124.946 150.616 122.322 150.616ZM122.338 157.768C120.786 157.768 119.666 156.52 119.666 154.968C119.666 153.416 120.786 152.168 122.338 152.168C123.858 152.168 124.978 153.4 124.978 154.968C124.978 156.504 123.858 157.768 122.338 157.768ZM128.766 159H130.414V153.56C130.798 152.872 131.406 152.168 132.43 152.168C133.486 152.168 134.126 152.872 134.126 154.056V159H135.79V153.992C135.79 153.832 135.79 153.688 135.774 153.544C136.206 152.776 136.83 152.168 137.79 152.168C138.83 152.168 139.486 152.872 139.486 154.056V159H141.15V153.992C141.15 151.768 139.854 150.616 138.174 150.616C136.782 150.616 135.982 151.272 135.358 152.072C134.846 151.112 133.918 150.616 132.814 150.616C131.742 150.616 130.99 151.064 130.414 151.688V150.936H128.766V159ZM143.703 159H145.351V153.56C145.735 152.872 146.343 152.168 147.367 152.168C148.423 152.168 149.063 152.872 149.063 154.056V159H150.727V153.992C150.727 153.832 150.727 153.688 150.711 153.544C151.143 152.776 151.767 152.168 152.727 152.168C153.767 152.168 154.423 152.872 154.423 154.056V159H156.087V153.992C156.087 151.768 154.791 150.616 153.111 150.616C151.719 150.616 150.919 151.272 150.295 152.072C149.783 151.112 148.855 150.616 147.751 150.616C146.679 150.616 145.927 151.064 145.351 151.688V150.936H143.703V159ZM165.921 157.688L164.721 156.728C164.225 157.4 163.409 157.832 162.433 157.832C160.881 157.832 159.809 156.92 159.697 155.16H165.649C165.713 154.92 165.761 154.552 165.761 154.184C165.761 152.136 164.321 150.616 162.097 150.616C159.537 150.616 158.001 152.552 158.001 154.968C158.001 157.32 159.649 159.32 162.433 159.32C163.937 159.32 165.169 158.696 165.921 157.688ZM162.065 151.992C163.361 151.992 164.081 152.92 164.113 153.928H159.777C160.033 152.68 160.865 151.992 162.065 151.992ZM167.028 157.864C167.78 158.776 168.788 159.32 170.148 159.32C171.652 159.32 172.932 158.376 172.948 156.792C172.948 154.024 168.996 154.568 168.996 152.952C168.996 152.408 169.38 151.96 170.148 151.96C170.82 151.96 171.38 152.36 171.812 152.936L172.932 151.96C172.356 151.192 171.316 150.616 170.132 150.616C168.516 150.616 167.396 151.672 167.396 153C167.396 155.848 171.348 155.256 171.348 156.888C171.348 157.496 170.916 157.976 170.132 157.976C169.332 157.976 168.692 157.544 168.164 156.872L167.028 157.864Z" fill="black"/>
</svg>
