<svg width="282" height="421" viewBox="0 0 282 421" fill="none" xmlns="http://www.w3.org/2000/svg">
<rect width="282" height="421" rx="15.6254" fill="white"/>
<path d="M40.7436 82H46.9836V80.32H42.5676V70.8H40.7436V82ZM56.1084 80.688L54.9084 79.728C54.4124 80.4 53.5964 80.832 52.6204 80.832C51.0684 80.832 49.9964 79.92 49.8844 78.16H55.8364C55.9004 77.92 55.9484 77.552 55.9484 77.184C55.9484 75.136 54.5084 73.616 52.2844 73.616C49.7244 73.616 48.1884 75.552 48.1884 77.968C48.1884 80.32 49.8364 82.32 52.6204 82.32C54.1244 82.32 55.3564 81.696 56.1084 80.688ZM52.2524 74.992C53.5484 74.992 54.2684 75.92 54.3004 76.928H49.9644C50.2204 75.68 51.0524 74.992 52.2524 74.992ZM57.2159 80.864C57.9679 81.776 58.9759 82.32 60.3359 82.32C61.8399 82.32 63.1199 81.376 63.1359 79.792C63.1359 77.024 59.1839 77.568 59.1839 75.952C59.1839 75.408 59.5679 74.96 60.3359 74.96C61.0079 74.96 61.5679 75.36 61.9999 75.936L63.1199 74.96C62.5439 74.192 61.5039 73.616 60.3199 73.616C58.7039 73.616 57.5839 74.672 57.5839 76C57.5839 78.848 61.5359 78.256 61.5359 79.888C61.5359 80.496 61.1039 80.976 60.3199 80.976C59.5199 80.976 58.8799 80.544 58.3519 79.872L57.2159 80.864ZM68.4759 73.936V75.424H69.9959V82H71.6599V75.424H74.3319V73.936H71.6599V72.96C71.6599 72.048 72.2039 71.488 73.0199 71.488C73.4679 71.488 73.8199 71.632 74.0919 71.84L74.7959 70.448C74.3319 70.192 73.7239 70 72.9879 70C71.1159 70 69.9959 71.296 69.9959 73.008V73.936H68.4759ZM82.7334 80.688L81.5334 79.728C81.0374 80.4 80.2214 80.832 79.2454 80.832C77.6934 80.832 76.6214 79.92 76.5094 78.16H82.4614C82.5254 77.92 82.5734 77.552 82.5734 77.184C82.5734 75.136 81.1334 73.616 78.9094 73.616C76.3494 73.616 74.8134 75.552 74.8134 77.968C74.8134 80.32 76.4614 82.32 79.2454 82.32C80.7494 82.32 81.9814 81.696 82.7334 80.688ZM78.8774 74.992C80.1734 74.992 80.8934 75.92 80.9254 76.928H76.5894C76.8454 75.68 77.6774 74.992 78.8774 74.992ZM84.7346 82H86.3826V76.56C86.7666 75.872 87.3746 75.168 88.3986 75.168C89.4546 75.168 90.0946 75.872 90.0946 77.056V82H91.7586V76.992C91.7586 76.832 91.7586 76.688 91.7426 76.544C92.1746 75.776 92.7986 75.168 93.7586 75.168C94.7986 75.168 95.4546 75.872 95.4546 77.056V82H97.1186V76.992C97.1186 74.768 95.8226 73.616 94.1426 73.616C92.7506 73.616 91.9506 74.272 91.3266 75.072C90.8146 74.112 89.8866 73.616 88.7826 73.616C87.7106 73.616 86.9586 74.064 86.3826 74.688V73.936H84.7346V82ZM99.6721 82H101.32V76.56C101.704 75.872 102.312 75.168 103.336 75.168C104.392 75.168 105.032 75.872 105.032 77.056V82H106.696V76.992C106.696 76.832 106.696 76.688 106.68 76.544C107.112 75.776 107.736 75.168 108.696 75.168C109.736 75.168 110.392 75.872 110.392 77.056V82H112.056V76.992C112.056 74.768 110.76 73.616 109.08 73.616C107.688 73.616 106.888 74.272 106.264 75.072C105.752 74.112 104.824 73.616 103.72 73.616C102.648 73.616 101.896 74.064 101.32 74.688V73.936H99.6721V82ZM121.89 80.688L120.69 79.728C120.194 80.4 119.378 80.832 118.402 80.832C116.85 80.832 115.778 79.92 115.666 78.16H121.618C121.682 77.92 121.73 77.552 121.73 77.184C121.73 75.136 120.29 73.616 118.066 73.616C115.506 73.616 113.97 75.552 113.97 77.968C113.97 80.32 115.618 82.32 118.402 82.32C119.906 82.32 121.138 81.696 121.89 80.688ZM118.034 74.992C119.33 74.992 120.05 75.92 120.082 76.928H115.746C116.002 75.68 116.834 74.992 118.034 74.992ZM122.997 80.864C123.749 81.776 124.757 82.32 126.117 82.32C127.621 82.32 128.901 81.376 128.917 79.792C128.917 77.024 124.965 77.568 124.965 75.952C124.965 75.408 125.349 74.96 126.117 74.96C126.789 74.96 127.349 75.36 127.781 75.936L128.901 74.96C128.325 74.192 127.285 73.616 126.101 73.616C124.485 73.616 123.365 74.672 123.365 76C123.365 78.848 127.317 78.256 127.317 79.888C127.317 80.496 126.885 80.976 126.101 80.976C125.301 80.976 124.661 80.544 124.133 79.872L122.997 80.864ZM135.297 85.936H136.945V81.168C137.633 81.904 138.497 82.32 139.665 82.32C142.193 82.32 143.777 80.32 143.777 77.968C143.777 75.616 142.193 73.616 139.665 73.616C138.497 73.616 137.633 74.032 136.945 74.768V73.936H135.297V85.936ZM139.457 75.168C141.009 75.168 142.049 76.384 142.049 77.968C142.049 79.552 141.009 80.768 139.457 80.768C138.417 80.768 137.537 80.288 136.945 79.392V76.544C137.521 75.664 138.401 75.168 139.457 75.168ZM145.828 82H147.476V76.56C147.908 75.856 148.548 75.168 149.652 75.168C150.804 75.168 151.508 75.936 151.508 77.216V82H153.172V77.152C153.172 74.816 151.828 73.616 150.036 73.616C148.884 73.616 148.084 74.08 147.476 74.72V70H145.828V82ZM159.479 73.616C156.871 73.616 155.095 75.584 155.095 77.968C155.095 80.352 156.871 82.32 159.479 82.32C162.103 82.32 163.863 80.352 163.863 77.968C163.863 75.584 162.103 73.616 159.479 73.616ZM159.495 80.768C157.943 80.768 156.823 79.52 156.823 77.968C156.823 76.416 157.943 75.168 159.495 75.168C161.015 75.168 162.135 76.4 162.135 77.968C162.135 79.504 161.015 80.768 159.495 80.768ZM166.293 79.2C166.293 81.168 167.285 82.16 169.173 82.16C169.797 82.16 170.245 82.08 170.629 81.92V80.464C170.341 80.576 169.973 80.64 169.429 80.64C168.533 80.64 167.957 80.288 167.957 79.2V75.424H170.629V73.936H167.957V71.92H166.293V73.936H164.773V75.424H166.293V79.2ZM176.182 73.616C173.574 73.616 171.798 75.584 171.798 77.968C171.798 80.352 173.574 82.32 176.182 82.32C178.806 82.32 180.566 80.352 180.566 77.968C180.566 75.584 178.806 73.616 176.182 73.616ZM176.198 80.768C174.646 80.768 173.526 79.52 173.526 77.968C173.526 76.416 174.646 75.168 176.198 75.168C177.718 75.168 178.838 76.4 178.838 77.968C178.838 79.504 177.718 80.768 176.198 80.768ZM181.668 83.44C181.668 85.088 183.204 86 185.684 86C188.132 86 189.828 84.688 189.828 82.944C189.828 81.488 188.788 80.416 186.708 80.416H184.516C184.084 80.416 183.908 80.224 183.908 79.888C183.908 79.648 184.052 79.408 184.308 79.2C184.612 79.264 184.932 79.312 185.284 79.312C187.284 79.312 188.484 78.016 188.484 76.448C188.484 76.064 188.404 75.68 188.26 75.344H189.844V73.936H186.868C186.42 73.728 185.891 73.616 185.284 73.616C183.316 73.616 182.116 74.896 182.116 76.448C182.116 77.344 182.516 78.16 183.22 78.688C182.596 79.12 182.292 79.632 182.292 80.272C182.292 80.688 182.468 81.12 182.82 81.424C182.068 81.984 181.668 82.624 181.668 83.44ZM185.299 78.048C184.26 78.048 183.652 77.36 183.652 76.448C183.652 75.552 184.26 74.88 185.299 74.88C186.34 74.88 186.948 75.552 186.948 76.448C186.948 77.36 186.34 78.048 185.299 78.048ZM183.236 83.216C183.236 82.64 183.539 82.208 183.988 81.856H186.548C187.78 81.856 188.18 82.4 188.18 83.088C188.18 84.032 187.252 84.656 185.652 84.656C184.132 84.656 183.236 84.112 183.236 83.216ZM191.438 82H193.086V76.624C193.502 75.936 194.174 75.392 195.198 75.392C195.534 75.392 195.79 75.44 196.046 75.504V73.888C195.838 73.824 195.598 73.776 195.342 73.776C194.35 73.776 193.646 74.224 193.086 74.848V73.936H191.438V82ZM199.709 82.24C200.701 82.24 201.709 81.792 202.285 81.088V82H203.933V76.672C203.933 74.896 202.733 73.616 200.557 73.616C199.117 73.616 197.965 74.224 197.245 75.184L198.477 76.128C198.941 75.472 199.629 75.072 200.509 75.072C201.549 75.072 202.285 75.68 202.285 76.672V77.088L199.677 77.52C197.965 77.808 197.021 78.688 197.021 79.904C197.021 81.328 198.109 82.24 199.709 82.24ZM198.685 79.84C198.685 79.232 199.101 78.8 200.109 78.624L202.285 78.256V79.648C201.805 80.416 201.021 80.896 200.013 80.896C199.181 80.896 198.685 80.464 198.685 79.84ZM206.516 85.936H208.164V81.168C208.852 81.904 209.716 82.32 210.884 82.32C213.412 82.32 214.996 80.32 214.996 77.968C214.996 75.616 213.412 73.616 210.884 73.616C209.716 73.616 208.852 74.032 208.164 74.768V73.936H206.516V85.936ZM210.676 75.168C212.228 75.168 213.268 76.384 213.268 77.968C213.268 79.552 212.228 80.768 210.676 80.768C209.636 80.768 208.756 80.288 208.164 79.392V76.544C208.74 75.664 209.62 75.168 210.676 75.168ZM217.047 82H218.695V76.56C219.127 75.856 219.767 75.168 220.871 75.168C222.023 75.168 222.727 75.936 222.727 77.216V82H224.391V77.152C224.391 74.816 223.047 73.616 221.255 73.616C220.103 73.616 219.303 74.08 218.695 74.72V70H217.047V82ZM234.233 80.688L233.033 79.728C232.537 80.4 231.721 80.832 230.745 80.832C229.193 80.832 228.121 79.92 228.009 78.16H233.961C234.025 77.92 234.073 77.552 234.073 77.184C234.073 75.136 232.633 73.616 230.409 73.616C227.849 73.616 226.313 75.552 226.313 77.968C226.313 80.32 227.961 82.32 230.745 82.32C232.249 82.32 233.481 81.696 234.233 80.688ZM230.377 74.992C231.673 74.992 232.393 75.92 232.425 76.928H228.089C228.345 75.68 229.177 74.992 230.377 74.992ZM235.341 80.864C236.093 81.776 237.101 82.32 238.461 82.32C239.965 82.32 241.245 81.376 241.261 79.792C241.261 77.024 237.309 77.568 237.309 75.952C237.309 75.408 237.693 74.96 238.461 74.96C239.133 74.96 239.693 75.36 240.125 75.936L241.245 74.96C240.669 74.192 239.629 73.616 238.445 73.616C236.829 73.616 235.709 74.672 235.709 76C235.709 78.848 239.661 78.256 239.661 79.888C239.661 80.496 239.229 80.976 238.445 80.976C237.645 80.976 237.005 80.544 236.477 79.872L235.341 80.864ZM32.1143 102.864C32.8663 103.776 33.8743 104.32 35.2343 104.32C36.7383 104.32 38.0183 103.376 38.0343 101.792C38.0343 99.024 34.0823 99.568 34.0823 97.952C34.0823 97.408 34.4663 96.96 35.2343 96.96C35.9063 96.96 36.4663 97.36 36.8983 97.936L38.0183 96.96C37.4423 96.192 36.4023 95.616 35.2183 95.616C33.6023 95.616 32.4823 96.672 32.4823 98C32.4823 100.848 36.4343 100.256 36.4343 101.888C36.4343 102.496 36.0023 102.976 35.2183 102.976C34.4183 102.976 33.7783 102.544 33.2503 101.872L32.1143 102.864ZM43.7833 95.616C41.1753 95.616 39.3993 97.584 39.3993 99.968C39.3993 102.352 41.1753 104.32 43.7833 104.32C46.4073 104.32 48.1673 102.352 48.1673 99.968C48.1673 97.584 46.4073 95.616 43.7833 95.616ZM43.7993 102.768C42.2473 102.768 41.1273 101.52 41.1273 99.968C41.1273 98.416 42.2473 97.168 43.7993 97.168C45.3193 97.168 46.4393 98.4 46.4393 99.968C46.4393 101.504 45.3193 102.768 43.7993 102.768ZM50.2268 104H51.8748V98.56C52.2908 97.856 52.9468 97.168 54.0508 97.168C55.2028 97.168 55.9068 97.936 55.9068 99.216V104H57.5708V99.152C57.5708 96.816 56.2108 95.616 54.4348 95.616C53.2828 95.616 52.4828 96.08 51.8748 96.72V95.936H50.2268V104ZM60.6131 101.2C60.6131 103.168 61.6051 104.16 63.4931 104.16C64.1171 104.16 64.5651 104.08 64.9491 103.92V102.464C64.6611 102.576 64.2931 102.64 63.7491 102.64C62.8531 102.64 62.2771 102.288 62.2771 101.2V97.424H64.9491V95.936H62.2771V93.92H60.6131V95.936H59.0931V97.424H60.6131V101.2ZM70.4268 102.864C71.1788 103.776 72.1868 104.32 73.5468 104.32C75.0508 104.32 76.3308 103.376 76.3468 101.792C76.3468 99.024 72.3948 99.568 72.3948 97.952C72.3948 97.408 72.7788 96.96 73.5468 96.96C74.2188 96.96 74.7788 97.36 75.2108 97.936L76.3308 96.96C75.7548 96.192 74.7148 95.616 73.5308 95.616C71.9148 95.616 70.7948 96.672 70.7948 98C70.7948 100.848 74.7468 100.256 74.7468 101.888C74.7468 102.496 74.3148 102.976 73.5308 102.976C72.7308 102.976 72.0908 102.544 71.5628 101.872L70.4268 102.864ZM82.0958 95.616C79.4878 95.616 77.7118 97.584 77.7118 99.968C77.7118 102.352 79.4878 104.32 82.0958 104.32C84.7198 104.32 86.4798 102.352 86.4798 99.968C86.4798 97.584 84.7198 95.616 82.0958 95.616ZM82.1118 102.768C80.5598 102.768 79.4398 101.52 79.4398 99.968C79.4398 98.416 80.5598 97.168 82.1118 97.168C83.6318 97.168 84.7518 98.4 84.7518 99.968C84.7518 101.504 83.6318 102.768 82.1118 102.768ZM94.0113 100.544C94.0113 101.936 93.2593 102.768 92.0273 102.768C90.7633 102.768 90.0273 101.936 90.0273 100.544V95.936H88.3633V100.464C88.3633 102.88 89.7553 104.32 92.0273 104.32C94.2833 104.32 95.6753 102.88 95.6753 100.464V95.936H94.0113V100.544ZM97.3331 102.864C98.0851 103.776 99.0931 104.32 100.453 104.32C101.957 104.32 103.237 103.376 103.253 101.792C103.253 99.024 99.3011 99.568 99.3011 97.952C99.3011 97.408 99.6851 96.96 100.453 96.96C101.125 96.96 101.685 97.36 102.117 97.936L103.237 96.96C102.661 96.192 101.621 95.616 100.437 95.616C98.8211 95.616 97.7011 96.672 97.7011 98C97.7011 100.848 101.653 100.256 101.653 101.888C101.653 102.496 101.221 102.976 100.437 102.976C99.6371 102.976 98.9971 102.544 98.4691 101.872L97.3331 102.864ZM104.297 99.104V100.704H108.617V99.104H104.297ZM110.274 104H111.922V98.624C112.338 97.936 113.01 97.392 114.034 97.392C114.37 97.392 114.626 97.44 114.882 97.504V95.888C114.674 95.824 114.434 95.776 114.178 95.776C113.186 95.776 112.482 96.224 111.922 96.848V95.936H110.274V104ZM123.554 102.688L122.354 101.728C121.858 102.4 121.042 102.832 120.066 102.832C118.514 102.832 117.442 101.92 117.33 100.16H123.282C123.346 99.92 123.394 99.552 123.394 99.184C123.394 97.136 121.954 95.616 119.73 95.616C117.17 95.616 115.634 97.552 115.634 99.968C115.634 102.32 117.282 104.32 120.066 104.32C121.57 104.32 122.802 103.696 123.554 102.688ZM119.698 96.992C120.994 96.992 121.714 97.92 121.746 98.928H117.41C117.666 97.68 118.498 96.992 119.698 96.992ZM125.555 107.936H127.203V103.168C127.891 103.904 128.755 104.32 129.923 104.32C132.451 104.32 134.035 102.32 134.035 99.968C134.035 97.616 132.451 95.616 129.923 95.616C128.755 95.616 127.891 96.032 127.203 96.768V95.936H125.555V107.936ZM129.715 97.168C131.267 97.168 132.307 98.384 132.307 99.968C132.307 101.552 131.267 102.768 129.715 102.768C128.675 102.768 127.795 102.288 127.203 101.392V98.544C127.779 97.664 128.659 97.168 129.715 97.168ZM136.086 104H137.734V98.624C138.15 97.936 138.822 97.392 139.846 97.392C140.182 97.392 140.438 97.44 140.694 97.504V95.888C140.486 95.824 140.246 95.776 139.99 95.776C138.998 95.776 138.294 96.224 137.734 96.848V95.936H136.086V104ZM146.438 94.656L148.326 92H146.502L144.838 94.656H146.438ZM149.366 102.688L148.166 101.728C147.67 102.4 146.854 102.832 145.878 102.832C144.326 102.832 143.254 101.92 143.142 100.16H149.094C149.158 99.92 149.206 99.552 149.206 99.184C149.206 97.136 147.766 95.616 145.542 95.616C142.982 95.616 141.446 97.552 141.446 99.968C141.446 102.32 143.094 104.32 145.878 104.32C147.382 104.32 148.614 103.696 149.366 102.688ZM145.51 96.992C146.806 96.992 147.526 97.92 147.558 98.928H143.222C143.478 97.68 144.31 96.992 145.51 96.992ZM150.474 102.864C151.226 103.776 152.234 104.32 153.594 104.32C155.098 104.32 156.378 103.376 156.394 101.792C156.394 99.024 152.442 99.568 152.442 97.952C152.442 97.408 152.826 96.96 153.594 96.96C154.266 96.96 154.826 97.36 155.258 97.936L156.378 96.96C155.802 96.192 154.762 95.616 153.578 95.616C151.962 95.616 150.842 96.672 150.842 98C150.842 100.848 154.794 100.256 154.794 101.888C154.794 102.496 154.362 102.976 153.578 102.976C152.778 102.976 152.138 102.544 151.61 101.872L150.474 102.864ZM165.679 102.688L164.479 101.728C163.983 102.4 163.167 102.832 162.191 102.832C160.639 102.832 159.567 101.92 159.455 100.16H165.407C165.471 99.92 165.519 99.552 165.519 99.184C165.519 97.136 164.079 95.616 161.855 95.616C159.295 95.616 157.759 97.552 157.759 99.968C157.759 102.32 159.407 104.32 162.191 104.32C163.695 104.32 164.927 103.696 165.679 102.688ZM161.823 96.992C163.119 96.992 163.839 97.92 163.871 98.928H159.535C159.791 97.68 160.623 96.992 161.823 96.992ZM167.68 104H169.328V98.56C169.744 97.856 170.4 97.168 171.504 97.168C172.656 97.168 173.36 97.936 173.36 99.216V104H175.024V99.152C175.024 96.816 173.664 95.616 171.888 95.616C170.736 95.616 169.936 96.08 169.328 96.72V95.936H167.68V104ZM178.066 101.2C178.066 103.168 179.058 104.16 180.946 104.16C181.57 104.16 182.018 104.08 182.402 103.92V102.464C182.114 102.576 181.746 102.64 181.202 102.64C180.306 102.64 179.73 102.288 179.73 101.2V97.424H182.402V95.936H179.73V93.92H178.066V95.936H176.546V97.424H178.066V101.2ZM188.563 94.656L190.451 92H188.627L186.963 94.656H188.563ZM191.491 102.688L190.291 101.728C189.795 102.4 188.979 102.832 188.003 102.832C186.451 102.832 185.379 101.92 185.267 100.16H191.219C191.283 99.92 191.331 99.552 191.331 99.184C191.331 97.136 189.891 95.616 187.667 95.616C185.107 95.616 183.571 97.552 183.571 99.968C183.571 102.32 185.219 104.32 188.003 104.32C189.507 104.32 190.739 103.696 191.491 102.688ZM187.635 96.992C188.931 96.992 189.651 97.92 189.683 98.928H185.347C185.603 97.68 186.435 96.992 187.635 96.992ZM200.726 102.688L199.526 101.728C199.03 102.4 198.214 102.832 197.238 102.832C195.686 102.832 194.614 101.92 194.502 100.16H200.454C200.518 99.92 200.566 99.552 200.566 99.184C200.566 97.136 199.126 95.616 196.902 95.616C194.342 95.616 192.806 97.552 192.806 99.968C192.806 102.32 194.454 104.32 197.238 104.32C198.742 104.32 199.974 103.696 200.726 102.688ZM196.87 96.992C198.166 96.992 198.886 97.92 198.918 98.928H194.582C194.838 97.68 195.67 96.992 196.87 96.992ZM201.833 102.864C202.585 103.776 203.593 104.32 204.953 104.32C206.457 104.32 207.737 103.376 207.753 101.792C207.753 99.024 203.801 99.568 203.801 97.952C203.801 97.408 204.185 96.96 204.953 96.96C205.625 96.96 206.185 97.36 206.617 97.936L207.737 96.96C207.161 96.192 206.121 95.616 204.937 95.616C203.321 95.616 202.201 96.672 202.201 98C202.201 100.848 206.153 100.256 206.153 101.888C206.153 102.496 205.721 102.976 204.937 102.976C204.137 102.976 203.497 102.544 202.969 101.872L201.833 102.864ZM213.493 99.968C213.493 102.32 215.077 104.32 217.621 104.32C218.773 104.32 219.637 103.904 220.309 103.184V104H221.989V92H220.309V96.752C219.637 96.032 218.773 95.616 217.621 95.616C215.077 95.616 213.493 97.616 213.493 99.968ZM215.237 99.968C215.237 98.384 216.277 97.168 217.829 97.168C218.837 97.168 219.717 97.632 220.309 98.512V101.424C219.765 102.272 218.869 102.768 217.829 102.768C216.277 102.768 215.237 101.552 215.237 99.968ZM226.873 104.24C227.865 104.24 228.873 103.792 229.449 103.088V104H231.097V98.672C231.097 96.896 229.897 95.616 227.721 95.616C226.281 95.616 225.129 96.224 224.409 97.184L225.641 98.128C226.105 97.472 226.793 97.072 227.673 97.072C228.713 97.072 229.449 97.68 229.449 98.672V99.088L226.841 99.52C225.129 99.808 224.185 100.688 224.185 101.904C224.185 103.328 225.273 104.24 226.873 104.24ZM225.849 101.84C225.849 101.232 226.265 100.8 227.273 100.624L229.449 100.256V101.648C228.969 102.416 228.185 102.896 227.177 102.896C226.345 102.896 225.849 102.464 225.849 101.84ZM233.68 104H235.328V98.56C235.744 97.856 236.4 97.168 237.504 97.168C238.656 97.168 239.36 97.936 239.36 99.216V104H241.024V99.152C241.024 96.816 239.664 95.616 237.888 95.616C236.736 95.616 235.936 96.08 235.328 96.72V95.936H233.68V104ZM242.786 102.864C243.538 103.776 244.546 104.32 245.906 104.32C247.41 104.32 248.69 103.376 248.706 101.792C248.706 99.024 244.754 99.568 244.754 97.952C244.754 97.408 245.138 96.96 245.906 96.96C246.578 96.96 247.138 97.36 247.57 97.936L248.69 96.96C248.114 96.192 247.074 95.616 245.89 95.616C244.274 95.616 243.154 96.672 243.154 98C243.154 100.848 247.106 100.256 247.106 101.888C247.106 102.496 246.674 102.976 245.89 102.976C245.09 102.976 244.45 102.544 243.922 101.872L242.786 102.864ZM35.8518 126H37.4998V114H35.8518V126ZM47.4756 124.688L46.2756 123.728C45.7796 124.4 44.9636 124.832 43.9876 124.832C42.4356 124.832 41.3636 123.92 41.2516 122.16H47.2036C47.2676 121.92 47.3156 121.552 47.3156 121.184C47.3156 119.136 45.8756 117.616 43.6516 117.616C41.0916 117.616 39.5556 119.552 39.5556 121.968C39.5556 124.32 41.2036 126.32 43.9876 126.32C45.4916 126.32 46.7236 125.696 47.4756 124.688ZM43.6196 118.992C44.9156 118.992 45.6356 119.92 45.6676 120.928H41.3316C41.5876 119.68 42.4196 118.992 43.6196 118.992ZM48.5831 124.864C49.3351 125.776 50.3431 126.32 51.7031 126.32C53.2071 126.32 54.4871 125.376 54.5031 123.792C54.5031 121.024 50.5511 121.568 50.5511 119.952C50.5511 119.408 50.9351 118.96 51.7031 118.96C52.3751 118.96 52.9351 119.36 53.3671 119.936L54.4871 118.96C53.9111 118.192 52.8711 117.616 51.6871 117.616C50.0711 117.616 48.9511 118.672 48.9511 120C48.9511 122.848 52.9031 122.256 52.9031 123.888C52.9031 124.496 52.4711 124.976 51.6871 124.976C50.8871 124.976 50.2471 124.544 49.7191 123.872L48.5831 124.864ZM60.8831 129.936H62.5311V125.168C63.2191 125.904 64.0831 126.32 65.2511 126.32C67.7791 126.32 69.3631 124.32 69.3631 121.968C69.3631 119.616 67.7791 117.616 65.2511 117.616C64.0831 117.616 63.2191 118.032 62.5311 118.768V117.936H60.8831V129.936ZM65.0431 119.168C66.5951 119.168 67.6351 120.384 67.6351 121.968C67.6351 123.552 66.5951 124.768 65.0431 124.768C64.0031 124.768 63.1231 124.288 62.5311 123.392V120.544C63.1071 119.664 63.9871 119.168 65.0431 119.168ZM75.2364 117.616C72.6284 117.616 70.8524 119.584 70.8524 121.968C70.8524 124.352 72.6284 126.32 75.2364 126.32C77.8604 126.32 79.6204 124.352 79.6204 121.968C79.6204 119.584 77.8604 117.616 75.2364 117.616ZM75.2524 124.768C73.7004 124.768 72.5804 123.52 72.5804 121.968C72.5804 120.416 73.7004 119.168 75.2524 119.168C76.7724 119.168 77.8924 120.4 77.8924 121.968C77.8924 123.504 76.7724 124.768 75.2524 124.768ZM80.6299 124.864C81.3819 125.776 82.3899 126.32 83.7499 126.32C85.2539 126.32 86.5339 125.376 86.5499 123.792C86.5499 121.024 82.5979 121.568 82.5979 119.952C82.5979 119.408 82.9819 118.96 83.7499 118.96C84.4219 118.96 84.9819 119.36 85.4139 119.936L86.5339 118.96C85.9579 118.192 84.9179 117.616 83.7339 117.616C82.1179 117.616 80.9979 118.672 80.9979 120C80.9979 122.848 84.9499 122.256 84.9499 123.888C84.9499 124.496 84.5179 124.976 83.7339 124.976C82.9339 124.976 82.2939 124.544 81.7659 123.872L80.6299 124.864ZM89.1912 123.2C89.1912 125.168 90.1832 126.16 92.0712 126.16C92.6952 126.16 93.1432 126.08 93.5272 125.92V124.464C93.2392 124.576 92.8712 124.64 92.3272 124.64C91.4312 124.64 90.8552 124.288 90.8552 123.2V119.424H93.5272V117.936H90.8552V115.92H89.1912V117.936H87.6712V119.424H89.1912V123.2ZM102.616 124.688L101.416 123.728C100.92 124.4 100.104 124.832 99.1282 124.832C97.5762 124.832 96.5042 123.92 96.3922 122.16H102.344C102.408 121.92 102.456 121.552 102.456 121.184C102.456 119.136 101.016 117.616 98.7922 117.616C96.2322 117.616 94.6962 119.552 94.6962 121.968C94.6962 124.32 96.3442 126.32 99.1282 126.32C100.632 126.32 101.864 125.696 102.616 124.688ZM98.7602 118.992C100.056 118.992 100.776 119.92 100.808 120.928H96.4722C96.7282 119.68 97.5602 118.992 98.7602 118.992ZM103.724 124.864C104.476 125.776 105.484 126.32 106.844 126.32C108.348 126.32 109.628 125.376 109.644 123.792C109.644 121.024 105.692 121.568 105.692 119.952C105.692 119.408 106.076 118.96 106.844 118.96C107.516 118.96 108.076 119.36 108.508 119.936L109.628 118.96C109.052 118.192 108.012 117.616 106.828 117.616C105.212 117.616 104.092 118.672 104.092 120C104.092 122.848 108.044 122.256 108.044 123.888C108.044 124.496 107.612 124.976 106.828 124.976C106.028 124.976 105.388 124.544 104.86 123.872L103.724 124.864ZM115.384 121.968C115.384 124.32 116.968 126.32 119.512 126.32C120.664 126.32 121.528 125.904 122.2 125.184V126H123.88V114H122.2V118.752C121.528 118.032 120.664 117.616 119.512 117.616C116.968 117.616 115.384 119.616 115.384 121.968ZM117.128 121.968C117.128 120.384 118.168 119.168 119.72 119.168C120.728 119.168 121.608 119.632 122.2 120.512V123.424C121.656 124.272 120.76 124.768 119.72 124.768C118.168 124.768 117.128 123.552 117.128 121.968ZM133.819 124.688L132.619 123.728C132.123 124.4 131.307 124.832 130.331 124.832C128.779 124.832 127.707 123.92 127.595 122.16H133.547C133.611 121.92 133.659 121.552 133.659 121.184C133.659 119.136 132.219 117.616 129.995 117.616C127.435 117.616 125.899 119.552 125.899 121.968C125.899 124.32 127.547 126.32 130.331 126.32C131.835 126.32 133.067 125.696 133.819 124.688ZM129.963 118.992C131.259 118.992 131.979 119.92 132.011 120.928H127.675C127.931 119.68 128.763 118.992 129.963 118.992ZM139.493 121.968C139.493 124.32 141.077 126.32 143.621 126.32C144.773 126.32 145.637 125.904 146.309 125.184V126H147.989V114H146.309V118.752C145.637 118.032 144.773 117.616 143.621 117.616C141.077 117.616 139.493 119.616 139.493 121.968ZM141.237 121.968C141.237 120.384 142.277 119.168 143.829 119.168C144.837 119.168 145.717 119.632 146.309 120.512V123.424C145.765 124.272 144.869 124.768 143.829 124.768C142.277 124.768 141.237 123.552 141.237 121.968ZM151.481 116.144C152.089 116.144 152.601 115.632 152.601 115.024C152.601 114.416 152.089 113.904 151.481 113.904C150.873 113.904 150.361 114.416 150.361 115.024C150.361 115.632 150.873 116.144 151.481 116.144ZM150.649 126H152.297V117.936H150.649V126ZM154.992 126H156.64V120.624C157.056 119.936 157.728 119.392 158.752 119.392C159.088 119.392 159.344 119.44 159.6 119.504V117.888C159.392 117.824 159.152 117.776 158.896 117.776C157.904 117.776 157.2 118.224 156.64 118.848V117.936H154.992V126ZM168.272 124.688L167.072 123.728C166.576 124.4 165.76 124.832 164.784 124.832C163.232 124.832 162.16 123.92 162.048 122.16H168C168.064 121.92 168.112 121.552 168.112 121.184C168.112 119.136 166.672 117.616 164.448 117.616C161.888 117.616 160.352 119.552 160.352 121.968C160.352 124.32 162 126.32 164.784 126.32C166.288 126.32 167.52 125.696 168.272 124.688ZM164.416 118.992C165.712 118.992 166.432 119.92 166.464 120.928H162.128C162.384 119.68 163.216 118.992 164.416 118.992ZM174.003 124.768C172.435 124.768 171.315 123.568 171.315 121.968C171.315 120.384 172.435 119.168 173.987 119.168C174.915 119.168 175.651 119.616 176.099 120.24L177.395 119.248C176.659 118.256 175.459 117.616 173.987 117.616C171.283 117.616 169.587 119.616 169.587 121.968C169.587 124.32 171.283 126.32 173.987 126.32C175.475 126.32 176.659 125.68 177.395 124.688L176.099 123.696C175.651 124.32 174.915 124.768 174.003 124.768ZM179.613 123.2C179.613 125.168 180.605 126.16 182.493 126.16C183.117 126.16 183.565 126.08 183.949 125.92V124.464C183.661 124.576 183.293 124.64 182.749 124.64C181.853 124.64 181.277 124.288 181.277 123.2V119.424H183.949V117.936H181.277V115.92H179.613V117.936H178.093V119.424H179.613V123.2ZM186.746 116.144C187.354 116.144 187.866 115.632 187.866 115.024C187.866 114.416 187.354 113.904 186.746 113.904C186.138 113.904 185.626 114.416 185.626 115.024C185.626 115.632 186.138 116.144 186.746 116.144ZM185.914 126H187.562V117.936H185.914V126ZM194.002 117.616C191.394 117.616 189.618 119.584 189.618 121.968C189.618 124.352 191.394 126.32 194.002 126.32C196.626 126.32 198.386 124.352 198.386 121.968C198.386 119.584 196.626 117.616 194.002 117.616ZM194.018 124.768C192.466 124.768 191.346 123.52 191.346 121.968C191.346 120.416 192.466 119.168 194.018 119.168C195.538 119.168 196.658 120.4 196.658 121.968C196.658 123.504 195.538 124.768 194.018 124.768ZM200.446 126H202.094V120.56C202.51 119.856 203.166 119.168 204.27 119.168C205.422 119.168 206.126 119.936 206.126 121.216V126H207.79V121.152C207.79 118.816 206.43 117.616 204.654 117.616C203.502 117.616 202.702 118.08 202.094 118.72V117.936H200.446V126ZM218.408 117.616C215.8 117.616 214.024 119.584 214.024 121.968C214.024 124.352 215.8 126.32 218.408 126.32C221.032 126.32 222.792 124.352 222.792 121.968C222.792 119.584 221.032 117.616 218.408 117.616ZM218.424 124.768C216.872 124.768 215.752 123.52 215.752 121.968C215.752 120.416 216.872 119.168 218.424 119.168C219.944 119.168 221.064 120.4 221.064 121.968C221.064 123.504 219.944 124.768 218.424 124.768ZM230.324 122.544C230.324 123.936 229.572 124.768 228.34 124.768C227.076 124.768 226.34 123.936 226.34 122.544V117.936H224.676V122.464C224.676 124.88 226.068 126.32 228.34 126.32C230.596 126.32 231.988 124.88 231.988 122.464V117.936H230.324V122.544ZM241.093 116.656H242.693L241.029 114H239.205L241.093 116.656ZM241.029 126.24C242.021 126.24 243.029 125.792 243.605 125.088V126H245.253V120.672C245.253 118.896 244.053 117.616 241.877 117.616C240.437 117.616 239.285 118.224 238.565 119.184L239.797 120.128C240.261 119.472 240.949 119.072 241.829 119.072C242.869 119.072 243.605 119.68 243.605 120.672V121.088L240.997 121.52C239.285 121.808 238.341 122.688 238.341 123.904C238.341 125.328 239.429 126.24 241.029 126.24ZM240.005 123.84C240.005 123.232 240.421 122.8 241.429 122.624L243.605 122.256V123.648C243.125 124.416 242.341 124.896 241.333 124.896C240.501 124.896 240.005 124.464 240.005 123.84ZM87.4768 148H89.1248V142.624C89.5408 141.936 90.2128 141.392 91.2368 141.392C91.5728 141.392 91.8288 141.44 92.0848 141.504V139.888C91.8768 139.824 91.6368 139.776 91.3808 139.776C90.3888 139.776 89.6848 140.224 89.1248 140.848V139.936H87.4768V148ZM100.757 146.688L99.5568 145.728C99.0608 146.4 98.2448 146.832 97.2688 146.832C95.7168 146.832 94.6448 145.92 94.5328 144.16H100.485C100.549 143.92 100.597 143.552 100.597 143.184C100.597 141.136 99.1568 139.616 96.9328 139.616C94.3728 139.616 92.8368 141.552 92.8368 143.968C92.8368 146.32 94.4848 148.32 97.2688 148.32C98.7728 148.32 100.005 147.696 100.757 146.688ZM96.9008 140.992C98.1968 140.992 98.9168 141.92 98.9488 142.928H94.6128C94.8688 141.68 95.7008 140.992 96.9008 140.992ZM101.864 146.864C102.616 147.776 103.624 148.32 104.984 148.32C106.488 148.32 107.768 147.376 107.784 145.792C107.784 143.024 103.832 143.568 103.832 141.952C103.832 141.408 104.216 140.96 104.984 140.96C105.656 140.96 106.216 141.36 106.648 141.936L107.768 140.96C107.192 140.192 106.152 139.616 104.968 139.616C103.352 139.616 102.232 140.672 102.232 142C102.232 144.848 106.184 144.256 106.184 145.888C106.184 146.496 105.752 146.976 104.968 146.976C104.168 146.976 103.528 146.544 103 145.872L101.864 146.864ZM109.852 151.936H111.5V147.168C112.188 147.904 113.052 148.32 114.22 148.32C116.748 148.32 118.332 146.32 118.332 143.968C118.332 141.616 116.748 139.616 114.22 139.616C113.052 139.616 112.188 140.032 111.5 140.768V139.936H109.852V151.936ZM114.012 141.168C115.564 141.168 116.604 142.384 116.604 143.968C116.604 145.552 115.564 146.768 114.012 146.768C112.972 146.768 112.092 146.288 111.5 145.392V142.544C112.076 141.664 112.956 141.168 114.012 141.168ZM124.205 139.616C121.597 139.616 119.821 141.584 119.821 143.968C119.821 146.352 121.597 148.32 124.205 148.32C126.829 148.32 128.589 146.352 128.589 143.968C128.589 141.584 126.829 139.616 124.205 139.616ZM124.221 146.768C122.669 146.768 121.549 145.52 121.549 143.968C121.549 142.416 122.669 141.168 124.221 141.168C125.741 141.168 126.861 142.4 126.861 143.968C126.861 145.504 125.741 146.768 124.221 146.768ZM130.649 148H132.297V142.56C132.713 141.856 133.369 141.168 134.473 141.168C135.625 141.168 136.329 141.936 136.329 143.216V148H137.993V143.152C137.993 140.816 136.633 139.616 134.857 139.616C133.705 139.616 132.905 140.08 132.297 140.72V139.936H130.649V148ZM139.755 146.864C140.507 147.776 141.515 148.32 142.875 148.32C144.379 148.32 145.659 147.376 145.675 145.792C145.675 143.024 141.723 143.568 141.723 141.952C141.723 141.408 142.107 140.96 142.875 140.96C143.547 140.96 144.107 141.36 144.539 141.936L145.659 140.96C145.083 140.192 144.043 139.616 142.859 139.616C141.243 139.616 140.123 140.672 140.123 142C140.123 144.848 144.075 144.256 144.075 145.888C144.075 146.496 143.643 146.976 142.859 146.976C142.059 146.976 141.419 146.544 140.891 145.872L139.755 146.864ZM149.92 148.24C150.912 148.24 151.92 147.792 152.496 147.088V148H154.144V142.672C154.144 140.896 152.944 139.616 150.768 139.616C149.328 139.616 148.176 140.224 147.456 141.184L148.688 142.128C149.152 141.472 149.84 141.072 150.72 141.072C151.76 141.072 152.496 141.68 152.496 142.672V143.088L149.888 143.52C148.176 143.808 147.232 144.688 147.232 145.904C147.232 147.328 148.32 148.24 149.92 148.24ZM148.896 145.84C148.896 145.232 149.312 144.8 150.32 144.624L152.496 144.256V145.648C152.016 146.416 151.232 146.896 150.224 146.896C149.392 146.896 148.896 146.464 148.896 145.84ZM165.207 143.968C165.207 141.616 163.623 139.616 161.095 139.616C159.927 139.616 159.063 140.032 158.375 140.768V136H156.727V148H158.375V147.168C159.063 147.904 159.927 148.32 161.095 148.32C163.623 148.32 165.207 146.32 165.207 143.968ZM160.887 141.168C162.439 141.168 163.479 142.384 163.479 143.968C163.479 145.552 162.439 146.768 160.887 146.768C159.847 146.768 158.967 146.288 158.375 145.408V142.528C158.935 141.664 159.831 141.168 160.887 141.168ZM168.106 138.144C168.714 138.144 169.226 137.632 169.226 137.024C169.226 136.416 168.714 135.904 168.106 135.904C167.498 135.904 166.986 136.416 166.986 137.024C166.986 137.632 167.498 138.144 168.106 138.144ZM167.274 148H168.922V139.936H167.274V148ZM171.617 148H173.265V136H171.617V148ZM176.793 138.144C177.401 138.144 177.913 137.632 177.913 137.024C177.913 136.416 177.401 135.904 176.793 135.904C176.185 135.904 175.673 136.416 175.673 137.024C175.673 137.632 176.185 138.144 176.793 138.144ZM175.961 148H177.609V139.936H175.961V148ZM180.785 145.2C180.785 147.168 181.777 148.16 183.665 148.16C184.289 148.16 184.737 148.08 185.121 147.92V146.464C184.833 146.576 184.465 146.64 183.921 146.64C183.025 146.64 182.449 146.288 182.449 145.2V141.424H185.121V139.936H182.449V137.92H180.785V139.936H179.265V141.424H180.785V145.2ZM191.282 138.656L193.17 136H191.346L189.682 138.656H191.282ZM194.21 146.688L193.01 145.728C192.514 146.4 191.698 146.832 190.722 146.832C189.17 146.832 188.098 145.92 187.986 144.16H193.938C194.002 143.92 194.05 143.552 194.05 143.184C194.05 141.136 192.61 139.616 190.386 139.616C187.826 139.616 186.29 141.552 186.29 143.968C186.29 146.32 187.938 148.32 190.722 148.32C192.226 148.32 193.458 147.696 194.21 146.688ZM190.354 140.992C191.65 140.992 192.37 141.92 192.402 142.928H188.066C188.322 141.68 189.154 140.992 190.354 140.992Z" fill="black"/>
<path d="M44.4566 272H49.4699V270.933H45.7099V267.773H48.9366V266.72H45.7099V263.733H49.4699V262.667H44.4566V272ZM51.6115 272H52.7448V267.347C53.1715 266.64 53.7848 266.08 54.7581 266.08C55.7981 266.08 56.4781 266.773 56.4781 267.973V272H57.6115V267.933C57.6115 266.027 56.4915 265.013 54.9848 265.013C53.9848 265.013 53.2915 265.44 52.7448 266.04V265.28H51.6115V272ZM63.1931 272H69.4331V270.92H64.6731L67.2331 268.32C68.3531 267.147 69.1798 266.2 69.1798 264.933C69.1798 263.413 67.9398 262.4 66.3798 262.4C64.9265 262.4 63.8865 263.093 63.1265 264.28L64.1131 264.88C64.6598 263.973 65.2998 263.48 66.2865 263.48C67.2331 263.48 67.9398 264.04 67.9398 265.013C67.9398 266 67.4465 266.52 66.3531 267.667L63.1931 270.92V272ZM74.2679 262.4C71.9479 262.4 70.7879 264.56 70.7879 267.333C70.7879 270.107 71.9479 272.267 74.2679 272.267C76.6146 272.267 77.7613 270.107 77.7613 267.333C77.7613 264.56 76.6146 262.4 74.2679 262.4ZM74.2813 263.52C75.7613 263.52 76.5213 265.147 76.5213 267.333C76.5213 269.52 75.7613 271.147 74.2813 271.147C72.7879 271.147 72.0146 269.52 72.0146 267.333C72.0146 265.147 72.7879 263.52 74.2813 263.52ZM79.1046 272H85.3446V270.92H80.5846L83.1446 268.32C84.2646 267.147 85.0913 266.2 85.0913 264.933C85.0913 263.413 83.8513 262.4 82.2913 262.4C80.8379 262.4 79.7979 263.093 79.0379 264.28L80.0246 264.88C80.5713 263.973 81.2113 263.48 82.1979 263.48C83.1446 263.48 83.8513 264.04 83.8513 265.013C83.8513 266 83.3579 266.52 82.2646 267.667L79.1046 270.92V272ZM89.2485 272H90.4352V262.667H89.2352L86.1685 264.36L86.7819 265.213L89.2485 263.88V272ZM93.3405 274.133L94.7139 270.6H93.4205L92.2872 274.133H93.3405ZM99.368 271.08C99.9814 271.84 100.821 272.267 101.888 272.267C103.141 272.267 104.141 271.48 104.155 270.227C104.155 267.933 100.781 268.413 100.781 266.907C100.781 266.387 101.168 265.96 101.888 265.96C102.475 265.96 102.981 266.28 103.341 266.787L104.128 266.12C103.661 265.467 102.835 265.013 101.875 265.013C100.581 265.013 99.688 265.88 99.688 266.933C99.688 269.307 103.048 268.773 103.048 270.28C103.048 270.867 102.621 271.32 101.875 271.32C101.195 271.32 100.635 270.987 100.168 270.4L99.368 271.08ZM110.679 269.12C110.679 270.44 109.959 271.2 108.839 271.2C107.693 271.2 106.986 270.44 106.986 269.12V265.28H105.853V269.08C105.853 271.093 107.013 272.267 108.826 272.267C110.653 272.267 111.813 271.093 111.813 269.08V265.28H110.679V269.12ZM114.046 272H115.18V267.387C115.593 266.707 116.166 266.253 117.046 266.253C117.313 266.253 117.513 266.28 117.713 266.333V265.227C117.553 265.173 117.353 265.147 117.14 265.147C116.286 265.147 115.673 265.533 115.18 266.12V265.28H114.046V272ZM124.9 272H126.086V262.667H124.886L121.82 264.36L122.433 265.213L124.9 263.88V272ZM131.432 272.267C134.085 272.267 135.285 270.213 135.285 267.187C135.285 263.947 133.912 262.4 131.725 262.4C129.698 262.4 128.512 263.84 128.512 265.533C128.512 267.173 129.712 268.493 131.458 268.493C132.498 268.493 133.378 268.12 134.045 267.44C133.992 269.76 133.138 271.173 131.432 271.173C130.565 271.173 129.925 270.76 129.392 269.947L128.432 270.68C129.072 271.627 129.992 272.267 131.432 272.267ZM129.752 265.493C129.752 264.373 130.498 263.493 131.738 263.493C132.912 263.493 133.792 264.24 133.992 266.2C133.445 267.013 132.592 267.413 131.645 267.413C130.552 267.413 129.752 266.573 129.752 265.493ZM139.914 273.213C139.914 274.56 141.22 275.333 143.207 275.333C145.22 275.333 146.634 274.28 146.634 272.867C146.634 271.667 145.807 270.8 144.034 270.8H142.114C141.7 270.8 141.554 270.6 141.554 270.32C141.554 270.067 141.714 269.827 141.994 269.627C142.274 269.707 142.594 269.76 142.927 269.76C144.54 269.76 145.54 268.667 145.54 267.387C145.54 266.987 145.447 266.6 145.26 266.267H146.714V265.28H144.22C143.86 265.107 143.42 265 142.927 265C141.327 265 140.314 266.093 140.314 267.387C140.314 268.133 140.66 268.813 141.247 269.253C140.727 269.587 140.447 270.027 140.447 270.56C140.447 270.92 140.607 271.28 140.914 271.52C140.247 271.987 139.914 272.533 139.914 273.213ZM142.94 268.867C141.94 268.867 141.394 268.213 141.394 267.387C141.394 266.56 141.94 265.893 142.94 265.893C143.914 265.893 144.474 266.56 144.474 267.387C144.474 268.2 143.914 268.867 142.94 268.867ZM141.02 273.08C141.02 272.547 141.3 272.147 141.767 271.8H143.94C145.14 271.8 145.5 272.307 145.5 272.947C145.5 273.827 144.607 274.387 143.194 274.387C141.86 274.387 141.02 273.893 141.02 273.08ZM148.096 272H149.229V267.387C149.642 266.707 150.216 266.253 151.096 266.253C151.362 266.253 151.562 266.28 151.762 266.333V265.227C151.602 265.173 151.402 265.147 151.189 265.147C150.336 265.147 149.722 265.533 149.229 266.12V265.28H148.096V272ZM154.922 272.187C155.789 272.187 156.669 271.8 157.176 271.147V272H158.309V267.493C158.309 266.013 157.296 265.013 155.589 265.013C154.416 265.013 153.469 265.507 152.882 266.307L153.736 266.96C154.149 266.387 154.776 266.027 155.549 266.027C156.509 266.027 157.176 266.56 157.176 267.493V267.96L154.909 268.333C153.482 268.573 152.709 269.293 152.709 270.307C152.709 271.453 153.602 272.187 154.922 272.187ZM153.856 270.267C153.856 269.693 154.269 269.28 155.189 269.12L157.176 268.787V270.107C156.736 270.827 156.002 271.253 155.109 271.253C154.322 271.253 153.856 270.84 153.856 270.267ZM160.583 272H161.716V267.347C162.143 266.64 162.756 266.08 163.729 266.08C164.769 266.08 165.449 266.773 165.449 267.973V272H166.583V267.933C166.583 266.027 165.463 265.013 163.956 265.013C162.956 265.013 162.263 265.44 161.716 266.04V265.28H160.583V272ZM168.291 268.64C168.291 270.6 169.637 272.267 171.744 272.267C172.744 272.267 173.531 271.88 174.131 271.2V272H175.264V262H174.131V266.08C173.531 265.4 172.744 265.013 171.744 265.013C169.637 265.013 168.291 266.68 168.291 268.64ZM169.491 268.64C169.491 267.213 170.451 266.08 171.877 266.08C172.797 266.08 173.611 266.52 174.131 267.32V269.96C173.637 270.747 172.811 271.2 171.877 271.2C170.451 271.2 169.491 270.067 169.491 268.64ZM176.881 271.08C177.494 271.84 178.334 272.267 179.401 272.267C180.654 272.267 181.654 271.48 181.668 270.227C181.668 267.933 178.294 268.413 178.294 266.907C178.294 266.387 178.681 265.96 179.401 265.96C179.988 265.96 180.494 266.28 180.854 266.787L181.641 266.12C181.174 265.467 180.348 265.013 179.388 265.013C178.094 265.013 177.201 265.88 177.201 266.933C177.201 269.307 180.561 268.773 180.561 270.28C180.561 270.867 180.134 271.32 179.388 271.32C178.708 271.32 178.148 270.987 177.681 270.4L176.881 271.08ZM186.226 265.28V266.307H187.493V272H188.64V266.307H190.973V265.28H188.64V264.427C188.64 263.547 189.146 263.027 189.906 263.027C190.293 263.027 190.6 263.147 190.853 263.333L191.36 262.387C190.986 262.173 190.493 262 189.88 262C188.413 262 187.493 263.027 187.493 264.453V265.28H186.226ZM197.949 270.893L197.109 270.24C196.669 270.84 195.936 271.24 195.069 271.24C193.629 271.24 192.603 270.267 192.563 268.653H197.723C197.763 268.467 197.803 268.213 197.803 267.947C197.803 266.293 196.616 265.013 194.789 265.013C192.709 265.013 191.403 266.6 191.403 268.64C191.403 270.6 192.803 272.267 195.069 272.267C196.323 272.267 197.323 271.733 197.949 270.893ZM194.763 265.973C195.949 265.973 196.629 266.8 196.669 267.787H192.643C192.883 266.627 193.656 265.973 194.763 265.973ZM198.951 271.08C199.565 271.84 200.405 272.267 201.471 272.267C202.725 272.267 203.725 271.48 203.738 270.227C203.738 267.933 200.365 268.413 200.365 266.907C200.365 266.387 200.751 265.96 201.471 265.96C202.058 265.96 202.565 266.28 202.925 266.787L203.711 266.12C203.245 265.467 202.418 265.013 201.458 265.013C200.165 265.013 199.271 265.88 199.271 266.933C199.271 269.307 202.631 268.773 202.631 270.28C202.631 270.867 202.205 271.32 201.458 271.32C200.778 271.32 200.218 270.987 199.751 270.4L198.951 271.08ZM206.022 269.747C206.022 271.387 206.862 272.133 208.355 272.133C208.835 272.133 209.195 272.08 209.515 271.947V270.933C209.262 271.04 208.955 271.093 208.515 271.093C207.702 271.093 207.168 270.8 207.168 269.747V266.307H209.502V265.28H207.168V263.6H206.022V265.28H204.755V266.307H206.022V269.747ZM211.807 263.533C212.247 263.533 212.594 263.173 212.594 262.733C212.594 262.307 212.247 261.947 211.807 261.947C211.367 261.947 211.007 262.307 211.007 262.733C211.007 263.173 211.367 263.533 211.807 263.533ZM211.234 272H212.367V265.28H211.234V272ZM213.749 265.28L216.376 272H217.869L220.496 265.28H219.269L217.122 270.813L214.976 265.28H213.749ZM223.581 272.187C224.448 272.187 225.328 271.8 225.835 271.147V272H226.968V267.493C226.968 266.013 225.955 265.013 224.248 265.013C223.075 265.013 222.128 265.507 221.541 266.307L222.395 266.96C222.808 266.387 223.435 266.027 224.208 266.027C225.168 266.027 225.835 266.56 225.835 267.493V267.96L223.568 268.333C222.141 268.573 221.368 269.293 221.368 270.307C221.368 271.453 222.261 272.187 223.581 272.187ZM222.515 270.267C222.515 269.693 222.928 269.28 223.848 269.12L225.835 268.787V270.107C225.395 270.827 224.661 271.253 223.768 271.253C222.981 271.253 222.515 270.84 222.515 270.267ZM229.242 272H230.375V262H229.242V272ZM231.998 271.08C232.612 271.84 233.452 272.267 234.518 272.267C235.772 272.267 236.772 271.48 236.785 270.227C236.785 267.933 233.412 268.413 233.412 266.907C233.412 266.387 233.798 265.96 234.518 265.96C235.105 265.96 235.612 266.28 235.972 266.787L236.758 266.12C236.292 265.467 235.465 265.013 234.505 265.013C233.212 265.013 232.318 265.88 232.318 266.933C232.318 269.307 235.678 268.773 235.678 270.28C235.678 270.867 235.252 271.32 234.505 271.32C233.825 271.32 233.265 270.987 232.798 270.4L231.998 271.08ZM85.1137 286.64C85.1137 288.6 86.4603 290.267 88.567 290.267C89.567 290.267 90.3537 289.88 90.9537 289.2V290H92.087V280H90.9537V284.08C90.3537 283.4 89.567 283.013 88.567 283.013C86.4603 283.013 85.1137 284.68 85.1137 286.64ZM86.3137 286.64C86.3137 285.213 87.2737 284.08 88.7003 284.08C89.6203 284.08 90.4337 284.52 90.9537 285.32V287.96C90.4603 288.747 89.6337 289.2 88.7003 289.2C87.2737 289.2 86.3137 288.067 86.3137 286.64ZM100.449 288.893L99.6094 288.24C99.1694 288.84 98.436 289.24 97.5694 289.24C96.1294 289.24 95.1027 288.267 95.0627 286.653H100.223C100.263 286.467 100.303 286.213 100.303 285.947C100.303 284.293 99.116 283.013 97.2894 283.013C95.2094 283.013 93.9027 284.6 93.9027 286.64C93.9027 288.6 95.3027 290.267 97.5694 290.267C98.8227 290.267 99.8227 289.733 100.449 288.893ZM97.2627 283.973C98.4494 283.973 99.1294 284.8 99.1694 285.787H95.1427C95.3827 284.627 96.156 283.973 97.2627 283.973ZM105.817 293.28H106.951V289.2C107.551 289.88 108.337 290.267 109.337 290.267C111.444 290.267 112.791 288.6 112.791 286.64C112.791 284.68 111.444 283.013 109.337 283.013C108.337 283.013 107.551 283.4 106.951 284.08V283.28H105.817V293.28ZM109.204 284.08C110.631 284.08 111.604 285.213 111.604 286.64C111.604 288.067 110.631 289.2 109.204 289.2C108.284 289.2 107.471 288.76 106.951 287.947V285.333C107.457 284.533 108.271 284.08 109.204 284.08ZM114.619 290H115.753V285.347C116.179 284.653 116.779 284.08 117.766 284.08C118.819 284.08 119.486 284.773 119.486 285.973V290H120.619V285.933C120.619 284.027 119.499 283.013 117.993 283.013C116.993 283.013 116.299 283.44 115.753 284.04V280H114.619V290ZM125.967 283.013C123.794 283.013 122.327 284.68 122.327 286.64C122.327 288.6 123.794 290.267 125.967 290.267C128.127 290.267 129.607 288.6 129.607 286.64C129.607 284.68 128.127 283.013 125.967 283.013ZM125.981 289.2C124.541 289.2 123.514 288.04 123.514 286.64C123.514 285.24 124.541 284.08 125.981 284.08C127.381 284.08 128.407 285.24 128.407 286.64C128.407 288.027 127.381 289.2 125.981 289.2ZM131.712 287.747C131.712 289.387 132.552 290.133 134.045 290.133C134.525 290.133 134.885 290.08 135.205 289.947V288.933C134.952 289.04 134.645 289.093 134.205 289.093C133.392 289.093 132.858 288.8 132.858 287.747V284.307H135.192V283.28H132.858V281.6H131.712V283.28H130.445V284.307H131.712V287.747ZM139.86 283.013C137.687 283.013 136.22 284.68 136.22 286.64C136.22 288.6 137.687 290.267 139.86 290.267C142.02 290.267 143.5 288.6 143.5 286.64C143.5 284.68 142.02 283.013 139.86 283.013ZM139.874 289.2C138.434 289.2 137.407 288.04 137.407 286.64C137.407 285.24 138.434 284.08 139.874 284.08C141.274 284.08 142.3 285.24 142.3 286.64C142.3 288.027 141.274 289.2 139.874 289.2ZM144.497 291.213C144.497 292.56 145.804 293.333 147.79 293.333C149.804 293.333 151.217 292.28 151.217 290.867C151.217 289.667 150.39 288.8 148.617 288.8H146.697C146.284 288.8 146.137 288.6 146.137 288.32C146.137 288.067 146.297 287.827 146.577 287.627C146.857 287.707 147.177 287.76 147.51 287.76C149.124 287.76 150.124 286.667 150.124 285.387C150.124 284.987 150.03 284.6 149.844 284.267H151.297V283.28H148.804C148.444 283.107 148.004 283 147.51 283C145.91 283 144.897 284.093 144.897 285.387C144.897 286.133 145.244 286.813 145.83 287.253C145.31 287.587 145.03 288.027 145.03 288.56C145.03 288.92 145.19 289.28 145.497 289.52C144.83 289.987 144.497 290.533 144.497 291.213ZM147.524 286.867C146.524 286.867 145.977 286.213 145.977 285.387C145.977 284.56 146.524 283.893 147.524 283.893C148.497 283.893 149.057 284.56 149.057 285.387C149.057 286.2 148.497 286.867 147.524 286.867ZM145.604 291.08C145.604 290.547 145.884 290.147 146.35 289.8H148.524C149.724 289.8 150.084 290.307 150.084 290.947C150.084 291.827 149.19 292.387 147.777 292.387C146.444 292.387 145.604 291.893 145.604 291.08ZM152.679 290H153.812V285.387C154.226 284.707 154.799 284.253 155.679 284.253C155.946 284.253 156.146 284.28 156.346 284.333V283.227C156.186 283.173 155.986 283.147 155.772 283.147C154.919 283.147 154.306 283.533 153.812 284.12V283.28H152.679V290ZM159.506 290.187C160.372 290.187 161.252 289.8 161.759 289.147V290H162.892V285.493C162.892 284.013 161.879 283.013 160.172 283.013C158.999 283.013 158.052 283.507 157.466 284.307L158.319 284.96C158.732 284.387 159.359 284.027 160.132 284.027C161.092 284.027 161.759 284.56 161.759 285.493V285.96L159.492 286.333C158.066 286.573 157.292 287.293 157.292 288.307C157.292 289.453 158.186 290.187 159.506 290.187ZM158.439 288.267C158.439 287.693 158.852 287.28 159.772 287.12L161.759 286.787V288.107C161.319 288.827 160.586 289.253 159.692 289.253C158.906 289.253 158.439 288.84 158.439 288.267ZM165.166 293.28H166.299V289.2C166.899 289.88 167.686 290.267 168.686 290.267C170.793 290.267 172.139 288.6 172.139 286.64C172.139 284.68 170.793 283.013 168.686 283.013C167.686 283.013 166.899 283.4 166.299 284.08V283.28H165.166V293.28ZM168.553 284.08C169.979 284.08 170.953 285.213 170.953 286.64C170.953 288.067 169.979 289.2 168.553 289.2C167.633 289.2 166.819 288.76 166.299 287.947V285.333C166.806 284.533 167.619 284.08 168.553 284.08ZM173.968 290H175.102V285.347C175.528 284.653 176.128 284.08 177.115 284.08C178.168 284.08 178.835 284.773 178.835 285.973V290H179.968V285.933C179.968 284.027 178.848 283.013 177.342 283.013C176.342 283.013 175.648 283.44 175.102 284.04V280H173.968V290ZM182.823 281.533C183.263 281.533 183.609 281.173 183.609 280.733C183.609 280.307 183.263 279.947 182.823 279.947C182.383 279.947 182.023 280.307 182.023 280.733C182.023 281.173 182.383 281.533 182.823 281.533ZM182.249 290H183.383V283.28H182.249V290ZM191.751 288.893L190.911 288.24C190.471 288.84 189.738 289.24 188.871 289.24C187.431 289.24 186.405 288.267 186.365 286.653H191.525C191.565 286.467 191.605 286.213 191.605 285.947C191.605 284.293 190.418 283.013 188.591 283.013C186.511 283.013 185.205 284.6 185.205 286.64C185.205 288.6 186.605 290.267 188.871 290.267C190.125 290.267 191.125 289.733 191.751 288.893ZM188.565 283.973C189.751 283.973 190.431 284.8 190.471 285.787H186.445C186.685 284.627 187.458 283.973 188.565 283.973ZM197.733 284.827C198.213 284.827 198.586 284.44 198.586 283.973C198.586 283.507 198.213 283.133 197.733 283.133C197.253 283.133 196.866 283.507 196.866 283.973C196.866 284.44 197.253 284.827 197.733 284.827ZM197.733 290.147C198.213 290.147 198.586 289.773 198.586 289.307C198.586 288.84 198.213 288.453 197.733 288.453C197.253 288.453 196.866 288.84 196.866 289.307C196.866 289.773 197.253 290.147 197.733 290.147ZM34.7629 308H35.9495V298.667H34.7495L31.6829 300.36L32.2962 301.213L34.7629 299.88V308ZM40.6874 308H41.874V298.667H40.674L37.6074 300.36L38.2207 301.213L40.6874 299.88V308ZM51.8933 300.213L53.4533 298H52.1733L50.7866 300.213H51.8933ZM54.4533 306.893L53.6133 306.24C53.1733 306.84 52.44 307.24 51.5733 307.24C50.1333 307.24 49.1066 306.267 49.0666 304.653H54.2266C54.2666 304.467 54.3066 304.213 54.3066 303.947C54.3066 302.293 53.12 301.013 51.2933 301.013C49.2133 301.013 47.9066 302.6 47.9066 304.64C47.9066 306.6 49.3066 308.267 51.5733 308.267C52.8266 308.267 53.8266 307.733 54.4533 306.893ZM51.2666 301.973C52.4533 301.973 53.1333 302.8 53.1733 303.787H49.1466C49.3866 302.627 50.16 301.973 51.2666 301.973ZM56.575 305.747C56.575 307.387 57.415 308.133 58.9083 308.133C59.3883 308.133 59.7483 308.08 60.0683 307.947V306.933C59.815 307.04 59.5083 307.093 59.0683 307.093C58.255 307.093 57.7216 306.8 57.7216 305.747V302.307H60.055V301.28H57.7216V299.6H56.575V301.28H55.3083V302.307H56.575V305.747ZM63.6139 308.187C64.4806 308.187 65.3606 307.8 65.8672 307.147V308H67.0006V303.493C67.0006 302.013 65.9872 301.013 64.2806 301.013C63.1072 301.013 62.1606 301.507 61.5739 302.307L62.4272 302.96C62.8406 302.387 63.4672 302.027 64.2406 302.027C65.2006 302.027 65.8672 302.56 65.8672 303.493V303.96L63.6006 304.333C62.1739 304.573 61.4006 305.293 61.4006 306.307C61.4006 307.453 62.2939 308.187 63.6139 308.187ZM62.5472 306.267C62.5472 305.693 62.9606 305.28 63.8806 305.12L65.8672 304.787V306.107C65.4272 306.827 64.6939 307.253 63.8006 307.253C63.0139 307.253 62.5472 306.84 62.5472 306.267ZM69.8476 299.533C70.2876 299.533 70.6342 299.173 70.6342 298.733C70.6342 298.307 70.2876 297.947 69.8476 297.947C69.4076 297.947 69.0476 298.307 69.0476 298.733C69.0476 299.173 69.4076 299.533 69.8476 299.533ZM69.2742 308H70.4076V301.28H69.2742V308ZM78.7762 306.893L77.9362 306.24C77.4962 306.84 76.7629 307.24 75.8962 307.24C74.4562 307.24 73.4295 306.267 73.3895 304.653H78.5495C78.5895 304.467 78.6295 304.213 78.6295 303.947C78.6295 302.293 77.4429 301.013 75.6162 301.013C73.5362 301.013 72.2295 302.6 72.2295 304.64C72.2295 306.6 73.6295 308.267 75.8962 308.267C77.1495 308.267 78.1495 307.733 78.7762 306.893ZM75.5895 301.973C76.7762 301.973 77.4562 302.8 77.4962 303.787H73.4695C73.7095 302.627 74.4829 301.973 75.5895 301.973ZM80.5503 308H81.6836V303.347C82.1103 302.64 82.7236 302.08 83.6969 302.08C84.7369 302.08 85.4169 302.773 85.4169 303.973V308H86.5503V303.933C86.5503 302.027 85.4303 301.013 83.9236 301.013C82.9236 301.013 82.2303 301.44 81.6836 302.04V301.28H80.5503V308ZM89.2182 305.747C89.2182 307.387 90.0582 308.133 91.5515 308.133C92.0315 308.133 92.3915 308.08 92.7115 307.947V306.933C92.4582 307.04 92.1515 307.093 91.7115 307.093C90.8982 307.093 90.3648 306.8 90.3648 305.747V302.307H92.6982V301.28H90.3648V299.6H89.2182V301.28H87.9515V302.307H89.2182V305.747ZM97.4509 304.64C97.4509 306.6 98.7976 308.267 100.904 308.267C101.904 308.267 102.691 307.88 103.291 307.2V308H104.424V298H103.291V302.08C102.691 301.4 101.904 301.013 100.904 301.013C98.7976 301.013 97.4509 302.68 97.4509 304.64ZM98.6509 304.64C98.6509 303.213 99.6109 302.08 101.038 302.08C101.958 302.08 102.771 302.52 103.291 303.32V305.96C102.798 306.747 101.971 307.2 101.038 307.2C99.6109 307.2 98.6509 306.067 98.6509 304.64ZM107.387 299.533C107.827 299.533 108.173 299.173 108.173 298.733C108.173 298.307 107.827 297.947 107.387 297.947C106.947 297.947 106.587 298.307 106.587 298.733C106.587 299.173 106.947 299.533 107.387 299.533ZM106.813 308H107.947V301.28H106.813V308ZM110.342 308H111.475V303.387C111.889 302.707 112.462 302.253 113.342 302.253C113.609 302.253 113.809 302.28 114.009 302.333V301.227C113.849 301.173 113.649 301.147 113.435 301.147C112.582 301.147 111.969 301.533 111.475 302.12V301.28H110.342V308ZM116.215 299.533C116.655 299.533 117.001 299.173 117.001 298.733C117.001 298.307 116.655 297.947 116.215 297.947C115.775 297.947 115.415 298.307 115.415 298.733C115.415 299.173 115.775 299.533 116.215 299.533ZM115.641 308H116.775V301.28H115.641V308ZM118.397 309.213C118.397 310.56 119.703 311.333 121.69 311.333C123.703 311.333 125.117 310.28 125.117 308.867C125.117 307.667 124.29 306.8 122.517 306.8H120.597C120.183 306.8 120.037 306.6 120.037 306.32C120.037 306.067 120.197 305.827 120.477 305.627C120.757 305.707 121.077 305.76 121.41 305.76C123.023 305.76 124.023 304.667 124.023 303.387C124.023 302.987 123.93 302.6 123.743 302.267H125.197V301.28H122.703C122.343 301.107 121.903 301 121.41 301C119.81 301 118.797 302.093 118.797 303.387C118.797 304.133 119.143 304.813 119.73 305.253C119.21 305.587 118.93 306.027 118.93 306.56C118.93 306.92 119.09 307.28 119.397 307.52C118.73 307.987 118.397 308.533 118.397 309.213ZM121.423 304.867C120.423 304.867 119.877 304.213 119.877 303.387C119.877 302.56 120.423 301.893 121.423 301.893C122.397 301.893 122.957 302.56 122.957 303.387C122.957 304.2 122.397 304.867 121.423 304.867ZM119.503 309.08C119.503 308.547 119.783 308.147 120.25 307.8H122.423C123.623 307.8 123.983 308.307 123.983 308.947C123.983 309.827 123.09 310.387 121.677 310.387C120.343 310.387 119.503 309.893 119.503 309.08ZM129.693 300.213L131.253 298H129.973L128.586 300.213H129.693ZM132.253 306.893L131.413 306.24C130.973 306.84 130.239 307.24 129.373 307.24C127.933 307.24 126.906 306.267 126.866 304.653H132.026C132.066 304.467 132.106 304.213 132.106 303.947C132.106 302.293 130.919 301.013 129.093 301.013C127.013 301.013 125.706 302.6 125.706 304.64C125.706 306.6 127.106 308.267 129.373 308.267C130.626 308.267 131.626 307.733 132.253 306.893ZM129.066 301.973C130.253 301.973 130.933 302.8 130.973 303.787H126.946C127.186 302.627 127.959 301.973 129.066 301.973ZM133.255 307.08C133.868 307.84 134.708 308.267 135.775 308.267C137.028 308.267 138.028 307.48 138.041 306.227C138.041 303.933 134.668 304.413 134.668 302.907C134.668 302.387 135.055 301.96 135.775 301.96C136.361 301.96 136.868 302.28 137.228 302.787L138.015 302.12C137.548 301.467 136.721 301.013 135.761 301.013C134.468 301.013 133.575 301.88 133.575 302.933C133.575 305.307 136.935 304.773 136.935 306.28C136.935 306.867 136.508 307.32 135.761 307.32C135.081 307.32 134.521 306.987 134.055 306.4L133.255 307.08ZM143.48 311.28H144.613V307.2C145.213 307.88 146 308.267 147 308.267C149.107 308.267 150.453 306.6 150.453 304.64C150.453 302.68 149.107 301.013 147 301.013C146 301.013 145.213 301.4 144.613 302.08V301.28H143.48V311.28ZM146.867 302.08C148.293 302.08 149.267 303.213 149.267 304.64C149.267 306.067 148.293 307.2 146.867 307.2C145.947 307.2 145.133 306.76 144.613 305.947V303.333C145.12 302.533 145.933 302.08 146.867 302.08ZM153.992 308.187C154.858 308.187 155.738 307.8 156.245 307.147V308H157.378V303.493C157.378 302.013 156.365 301.013 154.658 301.013C153.485 301.013 152.538 301.507 151.952 302.307L152.805 302.96C153.218 302.387 153.845 302.027 154.618 302.027C155.578 302.027 156.245 302.56 156.245 303.493V303.96L153.978 304.333C152.552 304.573 151.778 305.293 151.778 306.307C151.778 307.453 152.672 308.187 153.992 308.187ZM152.925 306.267C152.925 305.693 153.338 305.28 154.258 305.12L156.245 304.787V306.107C155.805 306.827 155.072 307.253 154.178 307.253C153.392 307.253 152.925 306.84 152.925 306.267ZM159.652 308H160.785V303.387C161.198 302.707 161.772 302.253 162.652 302.253C162.918 302.253 163.118 302.28 163.318 302.333V301.227C163.158 301.173 162.958 301.147 162.745 301.147C161.892 301.147 161.278 301.533 160.785 302.12V301.28H159.652V308ZM167.972 304.64C167.972 306.6 169.318 308.267 171.425 308.267C172.425 308.267 173.212 307.88 173.812 307.2V308H174.945V298H173.812V302.08C173.212 301.4 172.425 301.013 171.425 301.013C169.318 301.013 167.972 302.68 167.972 304.64ZM169.172 304.64C169.172 303.213 170.132 302.08 171.558 302.08C172.478 302.08 173.292 302.52 173.812 303.32V305.96C173.318 306.747 172.492 307.2 171.558 307.2C170.132 307.2 169.172 306.067 169.172 304.64ZM183.307 306.893L182.467 306.24C182.027 306.84 181.294 307.24 180.427 307.24C178.987 307.24 177.961 306.267 177.921 304.653H183.081C183.121 304.467 183.161 304.213 183.161 303.947C183.161 302.293 181.974 301.013 180.147 301.013C178.067 301.013 176.761 302.6 176.761 304.64C176.761 306.6 178.161 308.267 180.427 308.267C181.681 308.267 182.681 307.733 183.307 306.893ZM180.121 301.973C181.307 301.973 181.987 302.8 182.027 303.787H178.001C178.241 302.627 179.014 301.973 180.121 301.973ZM184.309 307.08C184.923 307.84 185.763 308.267 186.829 308.267C188.083 308.267 189.083 307.48 189.096 306.227C189.096 303.933 185.723 304.413 185.723 302.907C185.723 302.387 186.109 301.96 186.829 301.96C187.416 301.96 187.923 302.28 188.283 302.787L189.069 302.12C188.603 301.467 187.776 301.013 186.816 301.013C185.523 301.013 184.629 301.88 184.629 302.933C184.629 305.307 187.989 304.773 187.989 306.28C187.989 306.867 187.563 307.32 186.816 307.32C186.136 307.32 185.576 306.987 185.109 306.4L184.309 307.08ZM194.535 308H195.668V303.347C196.095 302.653 196.695 302.08 197.681 302.08C198.735 302.08 199.401 302.773 199.401 303.973V308H200.535V303.933C200.535 302.027 199.415 301.013 197.908 301.013C196.908 301.013 196.215 301.44 195.668 302.04V298H194.535V308ZM205.883 301.013C203.709 301.013 202.243 302.68 202.243 304.64C202.243 306.6 203.709 308.267 205.883 308.267C208.043 308.267 209.523 306.6 209.523 304.64C209.523 302.68 208.043 301.013 205.883 301.013ZM205.896 307.2C204.456 307.2 203.429 306.04 203.429 304.64C203.429 303.24 204.456 302.08 205.896 302.08C207.296 302.08 208.323 303.24 208.323 304.64C208.323 306.027 207.296 307.2 205.896 307.2ZM211.345 308H212.478V303.347C212.865 302.653 213.438 302.08 214.358 302.08C215.331 302.08 215.945 302.72 215.945 303.84V308H217.078V303.8C217.078 303.64 217.065 303.493 217.051 303.347C217.491 302.56 218.091 302.08 218.945 302.08C219.905 302.08 220.531 302.72 220.531 303.84V308H221.665V303.8C221.665 301.973 220.611 301.013 219.171 301.013C218.011 301.013 217.305 301.573 216.771 302.307C216.358 301.453 215.558 301.013 214.585 301.013C213.651 301.013 212.985 301.427 212.478 302.013V301.28H211.345V308ZM223.949 308H225.082V303.347C225.469 302.653 226.042 302.08 226.962 302.08C227.935 302.08 228.549 302.72 228.549 303.84V308H229.682V303.8C229.682 303.64 229.669 303.493 229.655 303.347C230.095 302.56 230.695 302.08 231.549 302.08C232.509 302.08 233.135 302.72 233.135 303.84V308H234.269V303.8C234.269 301.973 233.215 301.013 231.775 301.013C230.615 301.013 229.909 301.573 229.375 302.307C228.962 301.453 228.162 301.013 227.189 301.013C226.255 301.013 225.589 301.427 225.082 302.013V301.28H223.949V308ZM242.526 306.893L241.686 306.24C241.246 306.84 240.513 307.24 239.646 307.24C238.206 307.24 237.18 306.267 237.14 304.653H242.3C242.34 304.467 242.38 304.213 242.38 303.947C242.38 302.293 241.193 301.013 239.366 301.013C237.286 301.013 235.98 302.6 235.98 304.64C235.98 306.6 237.38 308.267 239.646 308.267C240.9 308.267 241.9 307.733 242.526 306.893ZM239.34 301.973C240.526 301.973 241.206 302.8 241.246 303.787H237.22C237.46 302.627 238.233 301.973 239.34 301.973ZM243.528 307.08C244.142 307.84 244.982 308.267 246.048 308.267C247.302 308.267 248.302 307.48 248.315 306.227C248.315 303.933 244.942 304.413 244.942 302.907C244.942 302.387 245.328 301.96 246.048 301.96C246.635 301.96 247.142 302.28 247.502 302.787L248.288 302.12C247.822 301.467 246.995 301.013 246.035 301.013C244.742 301.013 243.848 301.88 243.848 302.933C243.848 305.307 247.208 304.773 247.208 306.28C247.208 306.867 246.782 307.32 246.035 307.32C245.355 307.32 244.795 306.987 244.328 306.4L243.528 307.08ZM250.443 310.133L251.817 306.6H250.523L249.39 310.133H250.443ZM82.82 321.573H85.38C86.6866 321.573 87.4466 322.293 87.4466 323.373C87.4466 324.507 86.58 325.187 85.4066 325.187C84.3933 325.187 83.62 324.76 83.0466 323.72L81.9933 324.373C82.74 325.613 83.82 326.267 85.42 326.267C87.2866 326.267 88.6733 325.12 88.6733 323.333C88.6733 321.68 87.6333 320.48 85.4333 320.48H84.0866L84.2466 317.747H88.2333V316.667H83.1L82.82 321.573ZM94.2352 329.28H95.3685V325.2C95.9685 325.88 96.7552 326.267 97.7552 326.267C99.8618 326.267 101.208 324.6 101.208 322.64C101.208 320.68 99.8618 319.013 97.7552 319.013C96.7552 319.013 95.9685 319.4 95.3685 320.08V319.28H94.2352V329.28ZM97.6218 320.08C99.0485 320.08 100.022 321.213 100.022 322.64C100.022 324.067 99.0485 325.2 97.6218 325.2C96.7018 325.2 95.8885 324.76 95.3685 323.947V321.333C95.8752 320.533 96.6885 320.08 97.6218 320.08ZM104.747 326.187C105.613 326.187 106.493 325.8 107 325.147V326H108.133V321.493C108.133 320.013 107.12 319.013 105.413 319.013C104.24 319.013 103.293 319.507 102.707 320.307L103.56 320.96C103.973 320.387 104.6 320.027 105.373 320.027C106.333 320.027 107 320.56 107 321.493V321.96L104.733 322.333C103.307 322.573 102.533 323.293 102.533 324.307C102.533 325.453 103.427 326.187 104.747 326.187ZM103.68 324.267C103.68 323.693 104.093 323.28 105.013 323.12L107 322.787V324.107C106.56 324.827 105.827 325.253 104.933 325.253C104.147 325.253 103.68 324.84 103.68 324.267ZM110.407 326H111.54V321.387C111.954 320.707 112.527 320.253 113.407 320.253C113.674 320.253 113.874 320.28 114.074 320.333V319.227C113.914 319.173 113.714 319.147 113.5 319.147C112.647 319.147 112.034 319.533 111.54 320.12V319.28H110.407V326ZM118.727 322.64C118.727 324.6 120.074 326.267 122.18 326.267C123.18 326.267 123.967 325.88 124.567 325.2V326H125.7V316H124.567V320.08C123.967 319.4 123.18 319.013 122.18 319.013C120.074 319.013 118.727 320.68 118.727 322.64ZM119.927 322.64C119.927 321.213 120.887 320.08 122.314 320.08C123.234 320.08 124.047 320.52 124.567 321.32V323.96C124.074 324.747 123.247 325.2 122.314 325.2C120.887 325.2 119.927 324.067 119.927 322.64ZM134.063 324.893L133.223 324.24C132.783 324.84 132.049 325.24 131.183 325.24C129.743 325.24 128.716 324.267 128.676 322.653H133.836C133.876 322.467 133.916 322.213 133.916 321.947C133.916 320.293 132.729 319.013 130.903 319.013C128.823 319.013 127.516 320.6 127.516 322.64C127.516 324.6 128.916 326.267 131.183 326.267C132.436 326.267 133.436 325.733 134.063 324.893ZM130.876 319.973C132.063 319.973 132.743 320.8 132.783 321.787H128.756C128.996 320.627 129.769 319.973 130.876 319.973ZM135.065 325.08C135.678 325.84 136.518 326.267 137.585 326.267C138.838 326.267 139.838 325.48 139.851 324.227C139.851 321.933 136.478 322.413 136.478 320.907C136.478 320.387 136.865 319.96 137.585 319.96C138.171 319.96 138.678 320.28 139.038 320.787L139.825 320.12C139.358 319.467 138.531 319.013 137.571 319.013C136.278 319.013 135.385 319.88 135.385 320.933C135.385 323.307 138.745 322.773 138.745 324.28C138.745 324.867 138.318 325.32 137.571 325.32C136.891 325.32 136.331 324.987 135.865 324.4L135.065 325.08ZM144.41 319.28V320.307H145.677V326H146.823V320.307H149.157V319.28H146.823V318.427C146.823 317.547 147.33 317.027 148.09 317.027C148.477 317.027 148.783 317.147 149.037 317.333L149.543 316.387C149.17 316.173 148.677 316 148.063 316C146.597 316 145.677 317.027 145.677 318.453V319.28H144.41ZM156.133 324.893L155.293 324.24C154.853 324.84 154.12 325.24 153.253 325.24C151.813 325.24 150.786 324.267 150.746 322.653H155.906C155.946 322.467 155.986 322.213 155.986 321.947C155.986 320.293 154.8 319.013 152.973 319.013C150.893 319.013 149.586 320.6 149.586 322.64C149.586 324.6 150.986 326.267 153.253 326.267C154.506 326.267 155.506 325.733 156.133 324.893ZM152.946 319.973C154.133 319.973 154.813 320.8 154.853 321.787H150.826C151.066 320.627 151.84 319.973 152.946 319.973ZM157.907 326H159.04V321.347C159.427 320.653 160 320.08 160.92 320.08C161.894 320.08 162.507 320.72 162.507 321.84V326H163.64V321.8C163.64 321.64 163.627 321.493 163.614 321.347C164.054 320.56 164.654 320.08 165.507 320.08C166.467 320.08 167.094 320.72 167.094 321.84V326H168.227V321.8C168.227 319.973 167.174 319.013 165.734 319.013C164.574 319.013 163.867 319.573 163.334 320.307C162.92 319.453 162.12 319.013 161.147 319.013C160.214 319.013 159.547 319.427 159.04 320.013V319.28H157.907V326ZM170.511 326H171.645V321.347C172.031 320.653 172.605 320.08 173.525 320.08C174.498 320.08 175.111 320.72 175.111 321.84V326H176.245V321.8C176.245 321.64 176.231 321.493 176.218 321.347C176.658 320.56 177.258 320.08 178.111 320.08C179.071 320.08 179.698 320.72 179.698 321.84V326H180.831V321.8C180.831 319.973 179.778 319.013 178.338 319.013C177.178 319.013 176.471 319.573 175.938 320.307C175.525 319.453 174.725 319.013 173.751 319.013C172.818 319.013 172.151 319.427 171.645 320.013V319.28H170.511V326ZM189.089 324.893L188.249 324.24C187.809 324.84 187.075 325.24 186.209 325.24C184.769 325.24 183.742 324.267 183.702 322.653H188.862C188.902 322.467 188.942 322.213 188.942 321.947C188.942 320.293 187.755 319.013 185.929 319.013C183.849 319.013 182.542 320.6 182.542 322.64C182.542 324.6 183.942 326.267 186.209 326.267C187.462 326.267 188.462 325.733 189.089 324.893ZM185.902 319.973C187.089 319.973 187.769 320.8 187.809 321.787H183.782C184.022 320.627 184.795 319.973 185.902 319.973ZM190.091 325.08C190.704 325.84 191.544 326.267 192.611 326.267C193.864 326.267 194.864 325.48 194.877 324.227C194.877 321.933 191.504 322.413 191.504 320.907C191.504 320.387 191.891 319.96 192.611 319.96C193.197 319.96 193.704 320.28 194.064 320.787L194.851 320.12C194.384 319.467 193.557 319.013 192.597 319.013C191.304 319.013 190.411 319.88 190.411 320.933C190.411 323.307 193.771 322.773 193.771 324.28C193.771 324.867 193.344 325.32 192.597 325.32C191.917 325.32 191.357 324.987 190.891 324.4L190.091 325.08ZM197.006 328.133L198.379 324.6H197.086L195.953 328.133H197.006ZM74.728 341.427C74.728 340.347 74.1546 339.413 73.0746 338.973C73.8746 338.533 74.3013 337.76 74.3013 336.853C74.3013 335.373 73.1013 334.4 71.488 334.4C70.128 334.4 69.1413 335.013 68.4746 336.107L69.4746 336.72C69.9146 335.907 70.568 335.48 71.408 335.48C72.368 335.48 73.0746 336.013 73.0746 336.96C73.0746 337.867 72.3946 338.507 71.328 338.507H69.928V339.587H71.5146C72.7413 339.587 73.488 340.32 73.488 341.373C73.488 342.507 72.6213 343.187 71.4613 343.187C70.4213 343.187 69.6746 342.747 69.1013 341.72L68.048 342.373C68.7946 343.613 69.8613 344.267 71.4746 344.267C73.3546 344.267 74.728 343.12 74.728 341.427ZM80.2899 347.28H81.4232V343.2C82.0232 343.88 82.8099 344.267 83.8099 344.267C85.9165 344.267 87.2632 342.6 87.2632 340.64C87.2632 338.68 85.9165 337.013 83.8099 337.013C82.8099 337.013 82.0232 337.4 81.4232 338.08V337.28H80.2899V347.28ZM83.6765 338.08C85.1032 338.08 86.0765 339.213 86.0765 340.64C86.0765 342.067 85.1032 343.2 83.6765 343.2C82.7565 343.2 81.9432 342.76 81.4232 341.947V339.333C81.9299 338.533 82.7432 338.08 83.6765 338.08ZM90.8014 344.187C91.6681 344.187 92.5481 343.8 93.0547 343.147V344H94.1881V339.493C94.1881 338.013 93.1747 337.013 91.4681 337.013C90.2947 337.013 89.3481 337.507 88.7614 338.307L89.6147 338.96C90.0281 338.387 90.6547 338.027 91.4281 338.027C92.3881 338.027 93.0547 338.56 93.0547 339.493V339.96L90.7881 340.333C89.3614 340.573 88.5881 341.293 88.5881 342.307C88.5881 343.453 89.4814 344.187 90.8014 344.187ZM89.7347 342.267C89.7347 341.693 90.1481 341.28 91.0681 341.12L93.0547 340.787V342.107C92.6147 342.827 91.8814 343.253 90.9881 343.253C90.2014 343.253 89.7347 342.84 89.7347 342.267ZM96.4617 344H97.5951V339.387C98.0084 338.707 98.5817 338.253 99.4617 338.253C99.7284 338.253 99.9284 338.28 100.128 338.333V337.227C99.9684 337.173 99.7684 337.147 99.5551 337.147C98.7017 337.147 98.0884 337.533 97.5951 338.12V337.28H96.4617V344ZM110.035 341.12C110.035 342.44 109.315 343.2 108.195 343.2C107.048 343.2 106.342 342.44 106.342 341.12V337.28H105.208V341.08C105.208 343.093 106.368 344.267 108.182 344.267C110.008 344.267 111.168 343.093 111.168 341.08V337.28H110.035V341.12ZM113.402 344H114.535V339.347C114.962 338.64 115.575 338.08 116.548 338.08C117.588 338.08 118.268 338.773 118.268 339.973V344H119.402V339.933C119.402 338.027 118.282 337.013 116.775 337.013C115.775 337.013 115.082 337.44 114.535 338.04V337.28H113.402V344ZM127.656 342.893L126.816 342.24C126.376 342.84 125.643 343.24 124.776 343.24C123.336 343.24 122.31 342.267 122.27 340.653H127.43C127.47 340.467 127.51 340.213 127.51 339.947C127.51 338.293 126.323 337.013 124.496 337.013C122.416 337.013 121.11 338.6 121.11 340.64C121.11 342.6 122.51 344.267 124.776 344.267C126.03 344.267 127.03 343.733 127.656 342.893ZM124.47 337.973C125.656 337.973 126.336 338.8 126.376 339.787H122.35C122.59 338.627 123.363 337.973 124.47 337.973ZM136.438 336.213L137.998 334H136.718L135.331 336.213H136.438ZM138.998 342.893L138.158 342.24C137.718 342.84 136.984 343.24 136.118 343.24C134.678 343.24 133.651 342.267 133.611 340.653H138.771C138.811 340.467 138.851 340.213 138.851 339.947C138.851 338.293 137.664 337.013 135.838 337.013C133.758 337.013 132.451 338.6 132.451 340.64C132.451 342.6 133.851 344.267 136.118 344.267C137.371 344.267 138.371 343.733 138.998 342.893ZM135.811 337.973C136.998 337.973 137.678 338.8 137.718 339.787H133.691C133.931 338.627 134.704 337.973 135.811 337.973ZM140.172 340.64C140.172 342.6 141.519 344.267 143.626 344.267C144.626 344.267 145.412 343.88 146.012 343.187V347.28H147.146V337.28H146.012V338.093C145.412 337.4 144.626 337.013 143.626 337.013C141.519 337.013 140.172 338.68 140.172 340.64ZM141.359 340.64C141.359 339.213 142.332 338.08 143.746 338.08C144.679 338.08 145.492 338.52 146.012 339.333V341.947C145.506 342.747 144.692 343.2 143.746 343.2C142.332 343.2 141.359 342.067 141.359 340.64ZM154.228 341.12C154.228 342.44 153.508 343.2 152.388 343.2C151.241 343.2 150.534 342.44 150.534 341.12V337.28H149.401V341.08C149.401 343.093 150.561 344.267 152.374 344.267C154.201 344.267 155.361 343.093 155.361 341.08V337.28H154.228V341.12ZM158.168 335.533C158.608 335.533 158.955 335.173 158.955 334.733C158.955 334.307 158.608 333.947 158.168 333.947C157.728 333.947 157.368 334.307 157.368 334.733C157.368 335.173 157.728 335.533 158.168 335.533ZM157.595 344H158.728V337.28H157.595V344ZM161.123 347.28H162.257V343.2C162.857 343.88 163.643 344.267 164.643 344.267C166.75 344.267 168.097 342.6 168.097 340.64C168.097 338.68 166.75 337.013 164.643 337.013C163.643 337.013 162.857 337.4 162.257 338.08V337.28H161.123V347.28ZM164.51 338.08C165.937 338.08 166.91 339.213 166.91 340.64C166.91 342.067 165.937 343.2 164.51 343.2C163.59 343.2 162.777 342.76 162.257 341.947V339.333C162.763 338.533 163.577 338.08 164.51 338.08ZM175.964 342.893L175.124 342.24C174.684 342.84 173.95 343.24 173.084 343.24C171.644 343.24 170.617 342.267 170.577 340.653H175.737C175.777 340.467 175.817 340.213 175.817 339.947C175.817 338.293 174.63 337.013 172.804 337.013C170.724 337.013 169.417 338.6 169.417 340.64C169.417 342.6 170.817 344.267 173.084 344.267C174.337 344.267 175.337 343.733 175.964 342.893ZM172.777 337.973C173.964 337.973 174.644 338.8 174.684 339.787H170.657C170.897 338.627 171.67 337.973 172.777 337.973ZM181.332 344H182.465V339.347C182.852 338.653 183.425 338.08 184.345 338.08C185.318 338.08 185.932 338.72 185.932 339.84V344H187.065V339.8C187.065 339.64 187.052 339.493 187.038 339.347C187.478 338.56 188.078 338.08 188.931 338.08C189.892 338.08 190.518 338.72 190.518 339.84V344H191.651V339.8C191.651 337.973 190.598 337.013 189.158 337.013C187.998 337.013 187.291 337.573 186.758 338.307C186.345 337.453 185.545 337.013 184.571 337.013C183.638 337.013 182.972 337.427 182.465 338.013V337.28H181.332V344ZM194.509 335.533C194.949 335.533 195.296 335.173 195.296 334.733C195.296 334.307 194.949 333.947 194.509 333.947C194.069 333.947 193.709 334.307 193.709 334.733C193.709 335.173 194.069 335.533 194.509 335.533ZM193.936 344H195.069V337.28H193.936V344ZM197.891 344L199.811 341.28L201.731 344H203.024L200.544 340.52L202.851 337.28H201.544L199.798 339.76L198.051 337.28H196.758L199.051 340.52L196.571 344H197.891ZM204.869 341.747C204.869 343.387 205.709 344.133 207.203 344.133C207.683 344.133 208.043 344.08 208.363 343.947V342.933C208.109 343.04 207.803 343.093 207.363 343.093C206.549 343.093 206.016 342.8 206.016 341.747V338.307H208.349V337.28H206.016V335.6H204.869V337.28H203.603V338.307H204.869V341.747ZM215.925 342.893L215.085 342.24C214.645 342.84 213.911 343.24 213.045 343.24C211.605 343.24 210.578 342.267 210.538 340.653H215.698C215.738 340.467 215.778 340.213 215.778 339.947C215.778 338.293 214.591 337.013 212.765 337.013C210.685 337.013 209.378 338.6 209.378 340.64C209.378 342.6 210.778 344.267 213.045 344.267C214.298 344.267 215.298 343.733 215.925 342.893ZM212.738 337.973C213.925 337.973 214.605 338.8 214.645 339.787H210.618C210.858 338.627 211.631 337.973 212.738 337.973Z" fill="black"/>
<rect x="81.2847" y="182" width="185.715" height="37" rx="18.5" fill="#D1D1D1"/>
<rect x="33.6401" y="182" width="89.4545" height="37" rx="18.5" fill="#5B5B5B"/>
<rect x="21" y="182" width="45.6996" height="37" rx="18.5" fill="black"/>
<path d="M73.0176 198.456V199.479H74.0626V204H75.2066V199.479H77.0436V198.456H75.2066V197.785C75.2066 197.158 75.5806 196.773 76.1416 196.773C76.4496 196.773 76.6916 196.872 76.8786 197.015L77.3626 196.058C77.0436 195.882 76.6256 195.75 76.1196 195.75C74.8326 195.75 74.0626 196.641 74.0626 197.818V198.456H73.0176ZM82.8196 203.098L81.9946 202.438C81.6536 202.9 81.0926 203.197 80.4216 203.197C79.3546 203.197 78.6176 202.57 78.5406 201.36H82.6326C82.6766 201.195 82.7096 200.942 82.7096 200.689C82.7096 199.281 81.7196 198.236 80.1906 198.236C78.4306 198.236 77.3746 199.567 77.3746 201.228C77.3746 202.845 78.5076 204.22 80.4216 204.22C81.4556 204.22 82.3026 203.791 82.8196 203.098ZM80.1686 199.182C81.0596 199.182 81.5546 199.82 81.5766 200.513H78.5956C78.7716 199.655 79.3436 199.182 80.1686 199.182ZM84.1955 204H85.3285V200.26C85.5925 199.787 86.0105 199.303 86.7145 199.303C87.4405 199.303 87.8805 199.787 87.8805 200.601V204H89.0245V200.557C89.0245 200.447 89.0245 200.348 89.0135 200.249C89.3105 199.721 89.7395 199.303 90.3995 199.303C91.1145 199.303 91.5655 199.787 91.5655 200.601V204H92.7095V200.557C92.7095 199.028 91.8185 198.236 90.6635 198.236C89.7065 198.236 89.1565 198.687 88.7275 199.237C88.3755 198.577 87.7375 198.236 86.9785 198.236C86.2415 198.236 85.7245 198.544 85.3285 198.973V198.456H84.1955V204ZM94.465 204H95.598V200.26C95.862 199.787 96.28 199.303 96.984 199.303C97.71 199.303 98.15 199.787 98.15 200.601V204H99.294V200.557C99.294 200.447 99.294 200.348 99.283 200.249C99.58 199.721 100.009 199.303 100.669 199.303C101.384 199.303 101.835 199.787 101.835 200.601V204H102.979V200.557C102.979 199.028 102.088 198.236 100.933 198.236C99.976 198.236 99.426 198.687 98.997 199.237C98.645 198.577 98.007 198.236 97.248 198.236C96.511 198.236 95.994 198.544 95.598 198.973V198.456H94.465V204ZM109.74 203.098L108.915 202.438C108.574 202.9 108.013 203.197 107.342 203.197C106.275 203.197 105.538 202.57 105.461 201.36H109.553C109.597 201.195 109.63 200.942 109.63 200.689C109.63 199.281 108.64 198.236 107.111 198.236C105.351 198.236 104.295 199.567 104.295 201.228C104.295 202.845 105.428 204.22 107.342 204.22C108.376 204.22 109.223 203.791 109.74 203.098ZM107.089 199.182C107.98 199.182 108.475 199.82 108.497 200.513H105.516C105.692 199.655 106.264 199.182 107.089 199.182Z" fill="white"/>
<path d="M29.1296 204H30.2626V200.26C30.5266 199.787 30.9446 199.303 31.6486 199.303C32.3746 199.303 32.8146 199.787 32.8146 200.601V204H33.9586V200.557C33.9586 200.447 33.9586 200.348 33.9476 200.249C34.2446 199.721 34.6736 199.303 35.3336 199.303C36.0486 199.303 36.4996 199.787 36.4996 200.601V204H37.6436V200.557C37.6436 199.028 36.7526 198.236 35.5976 198.236C34.6406 198.236 34.0906 198.687 33.6616 199.237C33.3096 198.577 32.6716 198.236 31.9126 198.236C31.1756 198.236 30.6586 198.544 30.2626 198.973V198.456H29.1296V204ZM39.9712 197.224C40.3892 197.224 40.7412 196.872 40.7412 196.454C40.7412 196.036 40.3892 195.684 39.9712 195.684C39.5532 195.684 39.2012 196.036 39.2012 196.454C39.2012 196.872 39.5532 197.224 39.9712 197.224ZM39.3992 204H40.5322V198.456H39.3992V204ZM43.0235 204L44.4535 201.91L45.8945 204H47.1925L45.1905 201.14L47.0715 198.456H45.7625L44.4535 200.359L43.1445 198.456H41.8355L43.7055 201.14L41.7035 204H43.0235ZM48.6237 202.075C48.6237 203.428 49.3057 204.11 50.6037 204.11C51.0327 204.11 51.3407 204.055 51.6047 203.945V202.944C51.4067 203.021 51.1537 203.065 50.7797 203.065C50.1637 203.065 49.7677 202.823 49.7677 202.075V199.479H51.6047V198.456H49.7677V197.07H48.6237V198.456H47.5787V199.479H48.6237V202.075ZM57.8534 203.098L57.0284 202.438C56.6874 202.9 56.1264 203.197 55.4554 203.197C54.3884 203.197 53.6514 202.57 53.5744 201.36H57.6664C57.7104 201.195 57.7434 200.942 57.7434 200.689C57.7434 199.281 56.7534 198.236 55.2244 198.236C53.4644 198.236 52.4084 199.567 52.4084 201.228C52.4084 202.845 53.5414 204.22 55.4554 204.22C56.4894 204.22 57.3364 203.791 57.8534 203.098ZM55.2024 199.182C56.0934 199.182 56.5884 199.82 56.6104 200.513H53.6294C53.8054 199.655 54.3774 199.182 55.2024 199.182Z" fill="white"/>
<path d="M161.343 205H162.476V201.26C162.773 200.776 163.213 200.303 163.972 200.303C164.764 200.303 165.248 200.831 165.248 201.711V205H166.392V201.667C166.392 200.061 165.468 199.236 164.236 199.236C163.444 199.236 162.894 199.555 162.476 199.995V196.75H161.343V205ZM170.728 199.236C168.935 199.236 167.714 200.589 167.714 202.228C167.714 203.867 168.935 205.22 170.728 205.22C172.532 205.22 173.742 203.867 173.742 202.228C173.742 200.589 172.532 199.236 170.728 199.236ZM170.739 204.153C169.672 204.153 168.902 203.295 168.902 202.228C168.902 201.161 169.672 200.303 170.739 200.303C171.784 200.303 172.554 201.15 172.554 202.228C172.554 203.284 171.784 204.153 170.739 204.153ZM175.158 205H176.291V201.26C176.555 200.787 176.973 200.303 177.677 200.303C178.403 200.303 178.843 200.787 178.843 201.601V205H179.987V201.557C179.987 201.447 179.987 201.348 179.976 201.249C180.273 200.721 180.702 200.303 181.362 200.303C182.077 200.303 182.528 200.787 182.528 201.601V205H183.672V201.557C183.672 200.028 182.781 199.236 181.626 199.236C180.669 199.236 180.119 199.687 179.69 200.237C179.338 199.577 178.7 199.236 177.941 199.236C177.204 199.236 176.687 199.544 176.291 199.973V199.456H175.158V205ZM185.427 205H186.56V201.26C186.824 200.787 187.242 200.303 187.946 200.303C188.672 200.303 189.112 200.787 189.112 201.601V205H190.256V201.557C190.256 201.447 190.256 201.348 190.245 201.249C190.542 200.721 190.971 200.303 191.631 200.303C192.346 200.303 192.797 200.787 192.797 201.601V205H193.941V201.557C193.941 200.028 193.05 199.236 191.895 199.236C190.938 199.236 190.388 199.687 189.959 200.237C189.607 199.577 188.969 199.236 188.21 199.236C187.473 199.236 186.956 199.544 186.56 199.973V199.456H185.427V205ZM200.702 204.098L199.877 203.438C199.536 203.9 198.975 204.197 198.304 204.197C197.237 204.197 196.5 203.57 196.423 202.36H200.515C200.559 202.195 200.592 201.942 200.592 201.689C200.592 200.281 199.602 199.236 198.073 199.236C196.313 199.236 195.257 200.567 195.257 202.228C195.257 203.845 196.39 205.22 198.304 205.22C199.338 205.22 200.185 204.791 200.702 204.098ZM198.051 200.182C198.942 200.182 199.437 200.82 199.459 201.513H196.478C196.654 200.655 197.226 200.182 198.051 200.182Z" fill="black"/>
</svg>
