<svg width="282" height="421" viewBox="0 0 282 421" fill="none" xmlns="http://www.w3.org/2000/svg">
<rect width="282" height="421" rx="15.6254" fill="white"/>
<path d="M40.7436 63H46.9836V61.32H42.5676V51.8H40.7436V63ZM56.1084 61.688L54.9084 60.728C54.4124 61.4 53.5964 61.832 52.6204 61.832C51.0684 61.832 49.9964 60.92 49.8844 59.16H55.8364C55.9004 58.92 55.9484 58.552 55.9484 58.184C55.9484 56.136 54.5084 54.616 52.2844 54.616C49.7244 54.616 48.1884 56.552 48.1884 58.968C48.1884 61.32 49.8364 63.32 52.6204 63.32C54.1244 63.32 55.3564 62.696 56.1084 61.688ZM52.2524 55.992C53.5484 55.992 54.2684 56.92 54.3004 57.928H49.9644C50.2204 56.68 51.0524 55.992 52.2524 55.992ZM57.2159 61.864C57.9679 62.776 58.9759 63.32 60.3359 63.32C61.8399 63.32 63.1199 62.376 63.1359 60.792C63.1359 58.024 59.1839 58.568 59.1839 56.952C59.1839 56.408 59.5679 55.96 60.3359 55.96C61.0079 55.96 61.5679 56.36 61.9999 56.936L63.1199 55.96C62.5439 55.192 61.5039 54.616 60.3199 54.616C58.7039 54.616 57.5839 55.672 57.5839 57C57.5839 59.848 61.5359 59.256 61.5359 60.888C61.5359 61.496 61.1039 61.976 60.3199 61.976C59.5199 61.976 58.8799 61.544 58.3519 60.872L57.2159 61.864ZM68.4759 54.936V56.424H69.9959V63H71.6599V56.424H74.3319V54.936H71.6599V53.96C71.6599 53.048 72.2039 52.488 73.0199 52.488C73.4679 52.488 73.8199 52.632 74.0919 52.84L74.7959 51.448C74.3319 51.192 73.7239 51 72.9879 51C71.1159 51 69.9959 52.296 69.9959 54.008V54.936H68.4759ZM82.7334 61.688L81.5334 60.728C81.0374 61.4 80.2214 61.832 79.2454 61.832C77.6934 61.832 76.6214 60.92 76.5094 59.16H82.4614C82.5254 58.92 82.5734 58.552 82.5734 58.184C82.5734 56.136 81.1334 54.616 78.9094 54.616C76.3494 54.616 74.8134 56.552 74.8134 58.968C74.8134 61.32 76.4614 63.32 79.2454 63.32C80.7494 63.32 81.9814 62.696 82.7334 61.688ZM78.8774 55.992C80.1734 55.992 80.8934 56.92 80.9254 57.928H76.5894C76.8454 56.68 77.6774 55.992 78.8774 55.992ZM84.7346 63H86.3826V57.56C86.7666 56.872 87.3746 56.168 88.3986 56.168C89.4546 56.168 90.0946 56.872 90.0946 58.056V63H91.7586V57.992C91.7586 57.832 91.7586 57.688 91.7426 57.544C92.1746 56.776 92.7986 56.168 93.7586 56.168C94.7986 56.168 95.4546 56.872 95.4546 58.056V63H97.1186V57.992C97.1186 55.768 95.8226 54.616 94.1426 54.616C92.7506 54.616 91.9506 55.272 91.3266 56.072C90.8146 55.112 89.8866 54.616 88.7826 54.616C87.7106 54.616 86.9586 55.064 86.3826 55.688V54.936H84.7346V63ZM99.6721 63H101.32V57.56C101.704 56.872 102.312 56.168 103.336 56.168C104.392 56.168 105.032 56.872 105.032 58.056V63H106.696V57.992C106.696 57.832 106.696 57.688 106.68 57.544C107.112 56.776 107.736 56.168 108.696 56.168C109.736 56.168 110.392 56.872 110.392 58.056V63H112.056V57.992C112.056 55.768 110.76 54.616 109.08 54.616C107.688 54.616 106.888 55.272 106.264 56.072C105.752 55.112 104.824 54.616 103.72 54.616C102.648 54.616 101.896 55.064 101.32 55.688V54.936H99.6721V63ZM121.89 61.688L120.69 60.728C120.194 61.4 119.378 61.832 118.402 61.832C116.85 61.832 115.778 60.92 115.666 59.16H121.618C121.682 58.92 121.73 58.552 121.73 58.184C121.73 56.136 120.29 54.616 118.066 54.616C115.506 54.616 113.97 56.552 113.97 58.968C113.97 61.32 115.618 63.32 118.402 63.32C119.906 63.32 121.138 62.696 121.89 61.688ZM118.034 55.992C119.33 55.992 120.05 56.92 120.082 57.928H115.746C116.002 56.68 116.834 55.992 118.034 55.992ZM122.997 61.864C123.749 62.776 124.757 63.32 126.117 63.32C127.621 63.32 128.901 62.376 128.917 60.792C128.917 58.024 124.965 58.568 124.965 56.952C124.965 56.408 125.349 55.96 126.117 55.96C126.789 55.96 127.349 56.36 127.781 56.936L128.901 55.96C128.325 55.192 127.285 54.616 126.101 54.616C124.485 54.616 123.365 55.672 123.365 57C123.365 59.848 127.317 59.256 127.317 60.888C127.317 61.496 126.885 61.976 126.101 61.976C125.301 61.976 124.661 61.544 124.133 60.872L122.997 61.864ZM135.297 66.936H136.945V62.168C137.633 62.904 138.497 63.32 139.665 63.32C142.193 63.32 143.777 61.32 143.777 58.968C143.777 56.616 142.193 54.616 139.665 54.616C138.497 54.616 137.633 55.032 136.945 55.768V54.936H135.297V66.936ZM139.457 56.168C141.009 56.168 142.049 57.384 142.049 58.968C142.049 60.552 141.009 61.768 139.457 61.768C138.417 61.768 137.537 61.288 136.945 60.392V57.544C137.521 56.664 138.401 56.168 139.457 56.168ZM145.828 63H147.476V57.56C147.908 56.856 148.548 56.168 149.652 56.168C150.804 56.168 151.508 56.936 151.508 58.216V63H153.172V58.152C153.172 55.816 151.828 54.616 150.036 54.616C148.884 54.616 148.084 55.08 147.476 55.72V51H145.828V63ZM159.479 54.616C156.871 54.616 155.095 56.584 155.095 58.968C155.095 61.352 156.871 63.32 159.479 63.32C162.103 63.32 163.863 61.352 163.863 58.968C163.863 56.584 162.103 54.616 159.479 54.616ZM159.495 61.768C157.943 61.768 156.823 60.52 156.823 58.968C156.823 57.416 157.943 56.168 159.495 56.168C161.015 56.168 162.135 57.4 162.135 58.968C162.135 60.504 161.015 61.768 159.495 61.768ZM166.293 60.2C166.293 62.168 167.285 63.16 169.173 63.16C169.797 63.16 170.245 63.08 170.629 62.92V61.464C170.341 61.576 169.973 61.64 169.429 61.64C168.533 61.64 167.957 61.288 167.957 60.2V56.424H170.629V54.936H167.957V52.92H166.293V54.936H164.773V56.424H166.293V60.2ZM176.182 54.616C173.574 54.616 171.798 56.584 171.798 58.968C171.798 61.352 173.574 63.32 176.182 63.32C178.806 63.32 180.566 61.352 180.566 58.968C180.566 56.584 178.806 54.616 176.182 54.616ZM176.198 61.768C174.646 61.768 173.526 60.52 173.526 58.968C173.526 57.416 174.646 56.168 176.198 56.168C177.718 56.168 178.838 57.4 178.838 58.968C178.838 60.504 177.718 61.768 176.198 61.768ZM181.668 64.44C181.668 66.088 183.204 67 185.684 67C188.132 67 189.828 65.688 189.828 63.944C189.828 62.488 188.788 61.416 186.708 61.416H184.516C184.084 61.416 183.908 61.224 183.908 60.888C183.908 60.648 184.052 60.408 184.308 60.2C184.612 60.264 184.932 60.312 185.284 60.312C187.284 60.312 188.484 59.016 188.484 57.448C188.484 57.064 188.404 56.68 188.26 56.344H189.844V54.936H186.868C186.42 54.728 185.891 54.616 185.284 54.616C183.316 54.616 182.116 55.896 182.116 57.448C182.116 58.344 182.516 59.16 183.22 59.688C182.596 60.12 182.292 60.632 182.292 61.272C182.292 61.688 182.468 62.12 182.82 62.424C182.068 62.984 181.668 63.624 181.668 64.44ZM185.299 59.048C184.26 59.048 183.652 58.36 183.652 57.448C183.652 56.552 184.26 55.88 185.299 55.88C186.34 55.88 186.948 56.552 186.948 57.448C186.948 58.36 186.34 59.048 185.299 59.048ZM183.236 64.216C183.236 63.64 183.539 63.208 183.988 62.856H186.548C187.78 62.856 188.18 63.4 188.18 64.088C188.18 65.032 187.252 65.656 185.652 65.656C184.132 65.656 183.236 65.112 183.236 64.216ZM191.438 63H193.086V57.624C193.502 56.936 194.174 56.392 195.198 56.392C195.534 56.392 195.79 56.44 196.046 56.504V54.888C195.838 54.824 195.598 54.776 195.342 54.776C194.35 54.776 193.646 55.224 193.086 55.848V54.936H191.438V63ZM199.709 63.24C200.701 63.24 201.709 62.792 202.285 62.088V63H203.933V57.672C203.933 55.896 202.733 54.616 200.557 54.616C199.117 54.616 197.965 55.224 197.245 56.184L198.477 57.128C198.941 56.472 199.629 56.072 200.509 56.072C201.549 56.072 202.285 56.68 202.285 57.672V58.088L199.677 58.52C197.965 58.808 197.021 59.688 197.021 60.904C197.021 62.328 198.109 63.24 199.709 63.24ZM198.685 60.84C198.685 60.232 199.101 59.8 200.109 59.624L202.285 59.256V60.648C201.805 61.416 201.021 61.896 200.013 61.896C199.181 61.896 198.685 61.464 198.685 60.84ZM206.516 66.936H208.164V62.168C208.852 62.904 209.716 63.32 210.884 63.32C213.412 63.32 214.996 61.32 214.996 58.968C214.996 56.616 213.412 54.616 210.884 54.616C209.716 54.616 208.852 55.032 208.164 55.768V54.936H206.516V66.936ZM210.676 56.168C212.228 56.168 213.268 57.384 213.268 58.968C213.268 60.552 212.228 61.768 210.676 61.768C209.636 61.768 208.756 61.288 208.164 60.392V57.544C208.74 56.664 209.62 56.168 210.676 56.168ZM217.047 63H218.695V57.56C219.127 56.856 219.767 56.168 220.871 56.168C222.023 56.168 222.727 56.936 222.727 58.216V63H224.391V58.152C224.391 55.816 223.047 54.616 221.255 54.616C220.103 54.616 219.303 55.08 218.695 55.72V51H217.047V63ZM234.233 61.688L233.033 60.728C232.537 61.4 231.721 61.832 230.745 61.832C229.193 61.832 228.121 60.92 228.009 59.16H233.961C234.025 58.92 234.073 58.552 234.073 58.184C234.073 56.136 232.633 54.616 230.409 54.616C227.849 54.616 226.313 56.552 226.313 58.968C226.313 61.32 227.961 63.32 230.745 63.32C232.249 63.32 233.481 62.696 234.233 61.688ZM230.377 55.992C231.673 55.992 232.393 56.92 232.425 57.928H228.089C228.345 56.68 229.177 55.992 230.377 55.992ZM235.341 61.864C236.093 62.776 237.101 63.32 238.461 63.32C239.965 63.32 241.245 62.376 241.261 60.792C241.261 58.024 237.309 58.568 237.309 56.952C237.309 56.408 237.693 55.96 238.461 55.96C239.133 55.96 239.693 56.36 240.125 56.936L241.245 55.96C240.669 55.192 239.629 54.616 238.445 54.616C236.829 54.616 235.709 55.672 235.709 57C235.709 59.848 239.661 59.256 239.661 60.888C239.661 61.496 239.229 61.976 238.445 61.976C237.645 61.976 237.005 61.544 236.477 60.872L235.341 61.864ZM33.6956 85H35.3436V79.624C35.7596 78.936 36.4316 78.392 37.4556 78.392C37.7916 78.392 38.0476 78.44 38.3036 78.504V76.888C38.0956 76.824 37.8556 76.776 37.5996 76.776C36.6076 76.776 35.9036 77.224 35.3436 77.848V76.936H33.6956V85ZM46.9756 83.688L45.7756 82.728C45.2796 83.4 44.4636 83.832 43.4876 83.832C41.9356 83.832 40.8636 82.92 40.7516 81.16H46.7036C46.7676 80.92 46.8156 80.552 46.8156 80.184C46.8156 78.136 45.3756 76.616 43.1516 76.616C40.5916 76.616 39.0556 78.552 39.0556 80.968C39.0556 83.32 40.7036 85.32 43.4876 85.32C44.9916 85.32 46.2236 84.696 46.9756 83.688ZM43.1196 77.992C44.4156 77.992 45.1356 78.92 45.1676 79.928H40.8316C41.0876 78.68 41.9196 77.992 43.1196 77.992ZM52.7059 83.768C51.1379 83.768 50.0179 82.568 50.0179 80.968C50.0179 79.384 51.1379 78.168 52.6899 78.168C53.6179 78.168 54.3539 78.616 54.8019 79.24L56.0979 78.248C55.3619 77.256 54.1619 76.616 52.6899 76.616C49.9859 76.616 48.2899 78.616 48.2899 80.968C48.2899 83.048 49.6019 84.84 51.7779 85.24L50.3379 87.56H52.0019L53.4099 85.272C54.5619 85.096 55.4899 84.52 56.0979 83.688L54.8019 82.696C54.3539 83.32 53.6179 83.768 52.7059 83.768ZM61.2521 76.616C58.6441 76.616 56.8681 78.584 56.8681 80.968C56.8681 83.352 58.6441 85.32 61.2521 85.32C63.8761 85.32 65.6361 83.352 65.6361 80.968C65.6361 78.584 63.8761 76.616 61.2521 76.616ZM61.2681 83.768C59.7161 83.768 58.5961 82.52 58.5961 80.968C58.5961 79.416 59.7161 78.168 61.2681 78.168C62.7881 78.168 63.9081 79.4 63.9081 80.968C63.9081 82.504 62.7881 83.768 61.2681 83.768ZM68.5276 75.144C69.1356 75.144 69.6476 74.632 69.6476 74.024C69.6476 73.416 69.1356 72.904 68.5276 72.904C67.9196 72.904 67.4076 73.416 67.4076 74.024C67.4076 74.632 67.9196 75.144 68.5276 75.144ZM67.6956 85H69.3436V76.936H67.6956V85ZM70.8553 76.936L73.8953 85H76.0873L79.1433 76.936H77.3513L74.9993 83.208L72.6313 76.936H70.8553ZM87.8037 83.688L86.6037 82.728C86.1077 83.4 85.2917 83.832 84.3157 83.832C82.7637 83.832 81.6917 82.92 81.5797 81.16H87.5317C87.5957 80.92 87.6437 80.552 87.6437 80.184C87.6437 78.136 86.2037 76.616 83.9797 76.616C81.4197 76.616 79.8837 78.552 79.8837 80.968C79.8837 83.32 81.5317 85.32 84.3157 85.32C85.8197 85.32 87.0517 84.696 87.8037 83.688ZM83.9477 77.992C85.2437 77.992 85.9637 78.92 85.9957 79.928H81.6597C81.9157 78.68 82.7477 77.992 83.9477 77.992ZM89.8049 85H91.4529V79.56C91.8689 78.856 92.5249 78.168 93.6289 78.168C94.7809 78.168 95.4849 78.936 95.4849 80.216V85H97.1489V80.152C97.1489 77.816 95.7889 76.616 94.0129 76.616C92.8609 76.616 92.0609 77.08 91.4529 77.72V76.936H89.8049V85ZM100.191 82.2C100.191 84.168 101.183 85.16 103.071 85.16C103.695 85.16 104.143 85.08 104.527 84.92V83.464C104.239 83.576 103.871 83.64 103.327 83.64C102.431 83.64 101.855 83.288 101.855 82.2V78.424H104.527V76.936H101.855V74.92H100.191V76.936H98.6712V78.424H100.191V82.2ZM110.805 85H112.453V79.56C112.837 78.872 113.445 78.168 114.469 78.168C115.525 78.168 116.165 78.872 116.165 80.056V85H117.829V79.992C117.829 79.832 117.829 79.688 117.813 79.544C118.245 78.776 118.869 78.168 119.829 78.168C120.869 78.168 121.525 78.872 121.525 80.056V85H123.189V79.992C123.189 77.768 121.893 76.616 120.213 76.616C118.821 76.616 118.021 77.272 117.397 78.072C116.885 77.112 115.957 76.616 114.853 76.616C113.781 76.616 113.029 77.064 112.453 77.688V76.936H110.805V85ZM129.486 76.616C126.878 76.616 125.102 78.584 125.102 80.968C125.102 83.352 126.878 85.32 129.486 85.32C132.11 85.32 133.87 83.352 133.87 80.968C133.87 78.584 132.11 76.616 129.486 76.616ZM129.502 83.768C127.95 83.768 126.83 82.52 126.83 80.968C126.83 79.416 127.95 78.168 129.502 78.168C131.022 78.168 132.142 79.4 132.142 80.968C132.142 82.504 131.022 83.768 129.502 83.768ZM136.762 75.144C137.37 75.144 137.882 74.632 137.882 74.024C137.882 73.416 137.37 72.904 136.762 72.904C136.154 72.904 135.642 73.416 135.642 74.024C135.642 74.632 136.154 75.144 136.762 75.144ZM135.93 85H137.578V76.936H135.93V85ZM140.274 85H141.922V79.56C142.338 78.856 142.994 78.168 144.098 78.168C145.25 78.168 145.954 78.936 145.954 80.216V85H147.618V80.152C147.618 77.816 146.258 76.616 144.482 76.616C143.33 76.616 142.53 77.08 141.922 77.72V76.936H140.274V85ZM149.38 83.864C150.132 84.776 151.14 85.32 152.5 85.32C154.004 85.32 155.284 84.376 155.3 82.792C155.3 80.024 151.348 80.568 151.348 78.952C151.348 78.408 151.732 77.96 152.5 77.96C153.172 77.96 153.732 78.36 154.164 78.936L155.284 77.96C154.708 77.192 153.668 76.616 152.484 76.616C150.868 76.616 149.748 77.672 149.748 79C149.748 81.848 153.7 81.256 153.7 82.888C153.7 83.496 153.268 83.976 152.484 83.976C151.684 83.976 151.044 83.544 150.516 82.872L149.38 83.864ZM161.04 80.968C161.04 83.32 162.624 85.32 165.168 85.32C166.32 85.32 167.184 84.904 167.856 84.184V85H169.536V73H167.856V77.752C167.184 77.032 166.32 76.616 165.168 76.616C162.624 76.616 161.04 78.616 161.04 80.968ZM162.784 80.968C162.784 79.384 163.824 78.168 165.376 78.168C166.384 78.168 167.264 78.632 167.856 79.512V82.424C167.312 83.272 166.416 83.768 165.376 83.768C163.824 83.768 162.784 82.552 162.784 80.968ZM172.993 78.232L174.737 73.8H172.865L171.473 78.232H172.993ZM178.185 85.24C179.177 85.24 180.185 84.792 180.761 84.088V85H182.409V79.672C182.409 77.896 181.209 76.616 179.033 76.616C177.593 76.616 176.441 77.224 175.721 78.184L176.953 79.128C177.417 78.472 178.105 78.072 178.985 78.072C180.025 78.072 180.761 78.68 180.761 79.672V80.088L178.153 80.52C176.441 80.808 175.497 81.688 175.497 82.904C175.497 84.328 176.585 85.24 178.185 85.24ZM177.161 82.84C177.161 82.232 177.577 81.8 178.585 81.624L180.761 81.256V82.648C180.281 83.416 179.497 83.896 178.489 83.896C177.657 83.896 177.161 83.464 177.161 82.84ZM185.824 75.144C186.432 75.144 186.944 74.632 186.944 74.024C186.944 73.416 186.432 72.904 185.824 72.904C185.216 72.904 184.704 73.416 184.704 74.024C184.704 74.632 185.216 75.144 185.824 75.144ZM184.992 85H186.64V76.936H184.992V85ZM188.696 80.968C188.696 83.32 190.28 85.32 192.824 85.32C193.976 85.32 194.84 84.904 195.512 84.184V85H197.192V73H195.512V77.752C194.84 77.032 193.976 76.616 192.824 76.616C190.28 76.616 188.696 78.616 188.696 80.968ZM190.44 80.968C190.44 79.384 191.48 78.168 193.032 78.168C194.04 78.168 194.92 78.632 195.512 79.512V82.424C194.968 83.272 194.072 83.768 193.032 83.768C191.48 83.768 190.44 82.552 190.44 80.968ZM207.132 83.688L205.932 82.728C205.436 83.4 204.62 83.832 203.644 83.832C202.092 83.832 201.02 82.92 200.908 81.16H206.86C206.924 80.92 206.972 80.552 206.972 80.184C206.972 78.136 205.532 76.616 203.308 76.616C200.748 76.616 199.212 78.552 199.212 80.968C199.212 83.32 200.86 85.32 203.644 85.32C205.148 85.32 206.38 84.696 207.132 83.688ZM203.276 77.992C204.572 77.992 205.292 78.92 205.324 79.928H200.988C201.244 78.68 202.076 77.992 203.276 77.992ZM208.239 83.864C208.991 84.776 209.999 85.32 211.359 85.32C212.863 85.32 214.143 84.376 214.159 82.792C214.159 80.024 210.207 80.568 210.207 78.952C210.207 78.408 210.591 77.96 211.359 77.96C212.031 77.96 212.591 78.36 213.023 78.936L214.143 77.96C213.567 77.192 212.527 76.616 211.343 76.616C209.727 76.616 208.607 77.672 208.607 79C208.607 81.848 212.559 81.256 212.559 82.888C212.559 83.496 212.127 83.976 211.343 83.976C210.543 83.976 209.903 83.544 209.375 82.872L208.239 83.864ZM219.899 80.968C219.899 83.32 221.483 85.32 224.011 85.32C225.179 85.32 226.043 84.904 226.715 84.168V88.936H228.395V76.936H226.715V77.768C226.043 77.032 225.179 76.616 224.011 76.616C221.483 76.616 219.899 78.616 219.899 80.968ZM221.627 80.968C221.627 79.384 222.667 78.168 224.219 78.168C225.243 78.168 226.123 78.632 226.715 79.512V82.424C226.171 83.272 225.275 83.768 224.219 83.768C222.667 83.768 221.627 82.552 221.627 80.968ZM236.543 81.544C236.543 82.936 235.791 83.768 234.559 83.768C233.295 83.768 232.559 82.936 232.559 81.544V76.936H230.895V81.464C230.895 83.88 232.287 85.32 234.559 85.32C236.815 85.32 238.207 83.88 238.207 81.464V76.936H236.543V81.544ZM247.991 83.688L246.791 82.728C246.295 83.4 245.479 83.832 244.503 83.832C242.951 83.832 241.879 82.92 241.767 81.16H247.719C247.783 80.92 247.831 80.552 247.831 80.184C247.831 78.136 246.391 76.616 244.167 76.616C241.607 76.616 240.071 78.552 240.071 80.968C240.071 83.32 241.719 85.32 244.503 85.32C246.007 85.32 247.239 84.696 247.991 83.688ZM244.135 77.992C245.431 77.992 246.151 78.92 246.183 79.928H241.847C242.103 78.68 242.935 77.992 244.135 77.992ZM96.1565 107H97.8045V95H96.1565V107ZM107.78 105.688L106.58 104.728C106.084 105.4 105.268 105.832 104.292 105.832C102.74 105.832 101.668 104.92 101.556 103.16H107.508C107.572 102.92 107.62 102.552 107.62 102.184C107.62 100.136 106.18 98.616 103.956 98.616C101.396 98.616 99.8603 100.552 99.8603 102.968C99.8603 105.32 101.508 107.32 104.292 107.32C105.796 107.32 107.028 106.696 107.78 105.688ZM103.924 99.992C105.22 99.992 105.94 100.92 105.972 101.928H101.636C101.892 100.68 102.724 99.992 103.924 99.992ZM108.888 105.864C109.64 106.776 110.648 107.32 112.008 107.32C113.512 107.32 114.792 106.376 114.808 104.792C114.808 102.024 110.856 102.568 110.856 100.952C110.856 100.408 111.24 99.96 112.008 99.96C112.68 99.96 113.24 100.36 113.672 100.936L114.792 99.96C114.216 99.192 113.176 98.616 111.992 98.616C110.376 98.616 109.256 99.672 109.256 101C109.256 103.848 113.208 103.256 113.208 104.888C113.208 105.496 112.776 105.976 111.992 105.976C111.192 105.976 110.552 105.544 110.024 104.872L108.888 105.864ZM121.188 107H122.836V101.56C123.268 100.856 123.908 100.168 125.012 100.168C126.164 100.168 126.868 100.936 126.868 102.216V107H128.532V102.152C128.532 99.816 127.188 98.616 125.396 98.616C124.244 98.616 123.444 99.08 122.836 99.72V95H121.188V107ZM134.838 98.616C132.23 98.616 130.454 100.584 130.454 102.968C130.454 105.352 132.23 107.32 134.838 107.32C137.462 107.32 139.222 105.352 139.222 102.968C139.222 100.584 137.462 98.616 134.838 98.616ZM134.854 105.768C133.302 105.768 132.182 104.52 132.182 102.968C132.182 101.416 133.302 100.168 134.854 100.168C136.374 100.168 137.494 101.4 137.494 102.968C137.494 104.504 136.374 105.768 134.854 105.768ZM141.282 107H142.93V101.56C143.314 100.872 143.922 100.168 144.946 100.168C146.002 100.168 146.642 100.872 146.642 102.056V107H148.306V101.992C148.306 101.832 148.306 101.688 148.29 101.544C148.722 100.776 149.345 100.168 150.306 100.168C151.346 100.168 152.002 100.872 152.002 102.056V107H153.666V101.992C153.666 99.768 152.37 98.616 150.69 98.616C149.298 98.616 148.498 99.272 147.874 100.072C147.362 99.112 146.434 98.616 145.33 98.616C144.258 98.616 143.506 99.064 142.93 99.688V98.936H141.282V107ZM156.219 107H157.867V101.56C158.251 100.872 158.859 100.168 159.883 100.168C160.939 100.168 161.579 100.872 161.579 102.056V107H163.243V101.992C163.243 101.832 163.243 101.688 163.227 101.544C163.659 100.776 164.283 100.168 165.243 100.168C166.283 100.168 166.939 100.872 166.939 102.056V107H168.603V101.992C168.603 99.768 167.307 98.616 165.627 98.616C164.235 98.616 163.435 99.272 162.811 100.072C162.299 99.112 161.371 98.616 160.267 98.616C159.195 98.616 158.443 99.064 157.867 99.688V98.936H156.219V107ZM178.437 105.688L177.237 104.728C176.741 105.4 175.925 105.832 174.949 105.832C173.397 105.832 172.325 104.92 172.213 103.16H178.165C178.229 102.92 178.277 102.552 178.277 102.184C178.277 100.136 176.837 98.616 174.613 98.616C172.053 98.616 170.517 100.552 170.517 102.968C170.517 105.32 172.164 107.32 174.949 107.32C176.453 107.32 177.685 106.696 178.437 105.688ZM174.581 99.992C175.877 99.992 176.597 100.92 176.629 101.928H172.293C172.549 100.68 173.381 99.992 174.581 99.992ZM179.544 105.864C180.296 106.776 181.304 107.32 182.664 107.32C184.168 107.32 185.448 106.376 185.464 104.792C185.464 102.024 181.512 102.568 181.512 100.952C181.512 100.408 181.896 99.96 182.664 99.96C183.336 99.96 183.896 100.36 184.328 100.936L185.448 99.96C184.872 99.192 183.832 98.616 182.648 98.616C181.032 98.616 179.912 99.672 179.912 101C179.912 103.848 183.864 103.256 183.864 104.888C183.864 105.496 183.432 105.976 182.648 105.976C181.848 105.976 181.208 105.544 180.68 104.872L179.544 105.864Z" fill="black"/>
</svg>
