<svg width="39" height="39" viewBox="0 0 39 39" fill="none" xmlns="http://www.w3.org/2000/svg">
<path fill-rule="evenodd" clip-rule="evenodd" d="M7.80078 14.625C7.80078 13.5493 8.6751 12.675 9.75078 12.675C10.8265 12.675 11.7008 13.5493 11.7008 14.625C11.7008 15.7006 10.8264 16.575 9.75078 16.575C8.67512 16.575 7.80078 15.7006 7.80078 14.625ZM10.7258 14.625C10.7258 14.0878 10.288 13.65 9.75078 13.65C9.21357 13.65 8.77578 14.0878 8.77578 14.625C8.77578 15.1622 9.2136 15.6 9.75078 15.6C10.288 15.6 10.7258 15.1622 10.7258 14.625Z" fill="#6B48F4"/>
<path fill-rule="evenodd" clip-rule="evenodd" d="M12.6758 12.675C12.6758 11.5993 13.5501 10.725 14.6258 10.725C15.7015 10.725 16.5758 11.5993 16.5758 12.675C16.5758 13.7506 15.7014 14.625 14.6258 14.625C13.5501 14.625 12.6758 13.7506 12.6758 12.675ZM15.6008 12.675C15.6008 12.1378 15.163 11.7 14.6258 11.7C14.0886 11.7 13.6508 12.1378 13.6508 12.675C13.6508 13.2122 14.0886 13.65 14.6258 13.65C15.163 13.65 15.6008 13.2122 15.6008 12.675Z" fill="#6B48F4"/>
<path d="M12.9453 12.7264C13.1861 12.606 13.4789 12.7036 13.5993 12.9445C13.7111 13.1681 13.6349 13.4365 13.4307 13.5702L13.3813 13.5985L11.4313 14.5735C11.1905 14.6939 10.8977 14.5963 10.7772 14.3555C10.6654 14.1319 10.7416 13.8634 10.9459 13.7298L10.9953 13.7014L12.9453 12.7264Z" fill="#6B48F4"/>
<path d="M15.7436 13.3053C15.9193 13.1295 16.1958 13.116 16.3871 13.2647L16.433 13.3053L18.383 15.2553C18.5734 15.4456 18.5734 15.7543 18.383 15.9447C18.2073 16.1204 17.9307 16.1339 17.7395 15.9852L17.6936 15.9447L15.7436 13.9947C15.5532 13.8043 15.5532 13.4956 15.7436 13.3053Z" fill="#6B48F4"/>
<path fill-rule="evenodd" clip-rule="evenodd" d="M24.3758 16.575C24.3758 13.8863 26.5622 11.7 29.2508 11.7C31.9394 11.7 34.1258 13.8863 34.1258 16.575C34.1258 19.2635 31.9393 21.45 29.2508 21.45C26.5623 21.45 24.3758 19.2635 24.3758 16.575ZM33.1508 16.575C33.1508 14.4248 31.4009 12.675 29.2508 12.675C27.1007 12.675 25.3508 14.4248 25.3508 16.575C25.3508 18.725 27.1008 20.475 29.2508 20.475C31.4008 20.475 33.1508 18.725 33.1508 16.575Z" fill="#6B48F4"/>
<path d="M29.2686 14.0067C29.3409 13.7473 29.6097 13.5956 29.8691 13.6678C31.0096 13.9854 31.8839 14.88 32.1154 15.9891C32.1704 16.2527 32.0014 16.5109 31.7378 16.5659C31.4742 16.6209 31.216 16.4519 31.161 16.1883C31.0057 15.4442 30.4044 14.829 29.6075 14.6071C29.3481 14.5349 29.1964 14.2661 29.2686 14.0067Z" fill="#6B48F4"/>
<path d="M32.1583 19.5653C32.3748 19.4403 32.6473 19.5002 32.793 19.6961L32.8242 19.7437L35.7492 24.81C36.1531 25.5095 35.9134 26.4039 35.2139 26.8078C34.5394 27.1972 33.6836 26.9883 33.2612 26.3457L33.2161 26.2725L30.2911 21.2062C30.1565 20.9731 30.2364 20.6749 30.4695 20.5403C30.686 20.4153 30.9586 20.4752 31.1042 20.6711L31.1355 20.7187L34.0605 25.785C34.1951 26.0181 34.4932 26.098 34.7264 25.9634C34.9429 25.8384 35.0273 25.5724 34.9304 25.3483L34.9048 25.2975L31.9798 20.2312C31.8452 19.9981 31.9251 19.6999 32.1583 19.5653Z" fill="#6B48F4"/>
<path d="M21.7203 14.6764C21.9611 14.556 22.2539 14.6536 22.3743 14.8945C22.4861 15.1181 22.4099 15.3865 22.2057 15.5202L22.1563 15.5485L21.1813 16.036C20.9405 16.1564 20.6477 16.0588 20.5272 15.818C20.4154 15.5944 20.4916 15.3259 20.6959 15.1923L20.7453 15.1639L21.7203 14.6764Z" fill="#6B48F4"/>
<path fill-rule="evenodd" clip-rule="evenodd" d="M17.5508 15.6C17.5508 14.5243 18.4251 13.65 19.5008 13.65C20.5765 13.65 21.4508 14.5243 21.4508 15.6C21.4508 16.6756 20.5764 17.55 19.5008 17.55C18.4251 17.55 17.5508 16.6756 17.5508 15.6ZM20.4758 15.6C20.4758 15.0628 20.038 14.625 19.5008 14.625C18.9636 14.625 18.5258 15.0628 18.5258 15.6C18.5258 16.1372 18.9636 16.575 19.5008 16.575C20.038 16.575 20.4758 16.1372 20.4758 15.6Z" fill="#6B48F4"/>
<path d="M28.7625 7.79998C29.0125 7.79998 29.2186 7.98817 29.2467 8.23062L29.25 8.28748V9.26248C29.25 9.53171 29.0317 9.74998 28.7625 9.74998C28.5125 9.74998 28.3064 9.56178 28.2783 9.31933L28.275 9.26248V8.77498H5.85V26.325H28.275V23.8875C28.275 23.6375 28.4632 23.4314 28.7056 23.4033L28.7625 23.4C29.0125 23.4 29.2186 23.5882 29.2467 23.8306L29.25 23.8875V26.8125C29.25 27.0625 29.0618 27.2685 28.8194 27.2967L28.7625 27.3H5.3625C5.11249 27.3 4.90644 27.1118 4.87828 26.8693L4.875 26.8125V8.28748C4.875 8.03747 5.06319 7.83142 5.30565 7.80326L5.3625 7.79998H28.7625Z" fill="black"/>
<path d="M19.0125 8.77498C19.2625 8.77498 19.4686 8.58678 19.4967 8.34433L19.5 8.28748V7.31248C19.5 6.53361 18.8912 5.89694 18.1234 5.85246L18.0375 5.84998H16.0875C15.3086 5.84998 14.672 6.45882 14.6275 7.22654L14.625 7.31248V8.28748C14.625 8.55671 14.8433 8.77498 15.1125 8.77498C15.3625 8.77498 15.5686 8.58678 15.5967 8.34433L15.6 8.28748V7.31248C15.6 7.06247 15.7882 6.85642 16.0306 6.82826L16.0875 6.82498H18.0375C18.2875 6.82498 18.4936 7.01317 18.5217 7.25562L18.525 7.31248V8.28748C18.525 8.55671 18.7433 8.77498 19.0125 8.77498Z" fill="black"/>
<path d="M24.8625 26.325C25.1125 26.325 25.3186 26.5132 25.3467 26.7556L25.35 26.8125V27.7875C25.35 28.5663 24.7412 29.203 23.9734 29.2475L23.8875 29.25H10.2375C9.45863 29.25 8.82197 28.6411 8.77748 27.8734L8.775 27.7875V26.8125C8.775 26.5432 8.99326 26.325 9.2625 26.325C9.51251 26.325 9.71856 26.5132 9.74672 26.7556L9.75 26.8125V27.7875C9.75 28.0375 9.93819 28.2435 10.1806 28.2717L10.2375 28.275H23.8875C24.1375 28.275 24.3436 28.0868 24.3717 27.8443L24.375 27.7875V26.8125C24.375 26.5432 24.5933 26.325 24.8625 26.325Z" fill="black"/>
<path d="M18.4275 28.47C18.266 28.2546 17.9604 28.2109 17.745 28.3725C17.5462 28.5216 17.4937 28.7934 17.6138 29.0038L17.6475 29.055L20.5725 32.955C20.734 33.1704 21.0396 33.214 21.255 33.0525C21.4538 32.9034 21.5063 32.6315 21.3862 32.4212L21.3525 32.37L18.4275 28.47Z" fill="black"/>
<path d="M11.2125 18.525C11.4625 18.525 11.6686 18.7132 11.6967 18.9556L11.7 19.0125V19.9875C11.7 20.2567 11.4817 20.475 11.2125 20.475C10.9625 20.475 10.7564 20.2868 10.7283 20.0443L10.725 19.9875V19.5H8.775V23.4H10.725V21.9375C10.725 21.6875 10.9132 21.4814 11.1556 21.4533L11.2125 21.45C11.4625 21.45 11.6686 21.6382 11.6967 21.8806L11.7 21.9375V23.8875C11.7 24.1375 11.5118 24.3435 11.2694 24.3717L11.2125 24.375H8.2875C8.03749 24.375 7.83144 24.1868 7.80328 23.9443L7.8 23.8875V19.0125C7.8 18.7625 7.98819 18.5564 8.23065 18.5283L8.2875 18.525H11.2125Z" fill="black"/>
<path d="M14.1375 16.575C14.4067 16.575 14.625 16.7932 14.625 17.0625C14.625 17.3125 14.4368 17.5185 14.1944 17.5467L14.1375 17.55H13.65V23.4H15.6V18.0375C15.6 17.7875 15.7882 17.5814 16.0306 17.5533L16.0875 17.55C16.3375 17.55 16.5436 17.7382 16.5717 17.9806L16.575 18.0375V23.8875C16.575 24.1375 16.3868 24.3435 16.1444 24.3717L16.0875 24.375H13.1625C12.9125 24.375 12.7064 24.1868 12.6783 23.9443L12.675 23.8875V17.0625C12.675 16.8125 12.8632 16.6064 13.1056 16.5783L13.1625 16.575H14.1375Z" fill="black"/>
<path d="M19.0125 20.475C19.2817 20.475 19.5 20.6932 19.5 20.9625C19.5 21.2125 19.3118 21.4185 19.0694 21.4467L19.0125 21.45H18.525V23.4H20.475V20.9625C20.475 20.7125 20.6632 20.5064 20.9056 20.4783L20.9625 20.475C21.2125 20.475 21.4186 20.6632 21.4467 20.9056L21.45 20.9625V23.8875C21.45 24.1375 21.2618 24.3435 21.0194 24.3717L20.9625 24.375H18.0375C17.7875 24.375 17.5814 24.1868 17.5533 23.9443L17.55 23.8875V20.9625C17.55 20.7125 17.7382 20.5064 17.9806 20.4783L18.0375 20.475H19.0125Z" fill="black"/>
<path d="M22.9125 19.5C23.1625 19.5 23.3686 19.6882 23.3967 19.9306L23.4 19.9875V23.4H25.35V22.9125C25.35 22.6625 25.5382 22.4564 25.7806 22.4283L25.8375 22.425C26.0875 22.425 26.2936 22.6132 26.3217 22.8556L26.325 22.9125V23.8875C26.325 24.1375 26.1368 24.3435 25.8944 24.3717L25.8375 24.375H22.9125C22.6625 24.375 22.4564 24.1868 22.4283 23.9443L22.425 23.8875V19.9875C22.425 19.7182 22.6433 19.5 22.9125 19.5Z" fill="black"/>
<path d="M15.6975 28.47C15.859 28.2546 16.1646 28.2109 16.38 28.3725C16.5788 28.5216 16.6313 28.7934 16.5112 29.0038L16.4775 29.055L13.5525 32.955C13.391 33.1704 13.0854 33.214 12.87 33.0525C12.6712 32.9034 12.6187 32.6315 12.7388 32.4212L12.7725 32.37L15.6975 28.47Z" fill="black"/>
</svg>
