<svg width="46" height="46" viewBox="0 0 46 46" fill="none" xmlns="http://www.w3.org/2000/svg">
<path fill-rule="evenodd" clip-rule="evenodd" d="M9.19922 17.25C9.19922 15.9812 10.2305 14.95 11.4992 14.95C12.768 14.95 13.7992 15.9812 13.7992 17.25C13.7992 18.5188 12.7679 19.55 11.4992 19.55C10.2305 19.55 9.19922 18.5188 9.19922 17.25ZM12.6492 17.25C12.6492 16.6164 12.1329 16.1 11.4992 16.1C10.8656 16.1 10.3492 16.6164 10.3492 17.25C10.3492 17.8836 10.8656 18.4 11.4992 18.4C12.1328 18.4 12.6492 17.8836 12.6492 17.25Z" fill="#AD99FF"/>
<path fill-rule="evenodd" clip-rule="evenodd" d="M14.9492 14.95C14.9492 13.6812 15.9805 12.65 17.2492 12.65C18.518 12.65 19.5492 13.6812 19.5492 14.95C19.5492 16.2188 18.5179 17.25 17.2492 17.25C15.9805 17.25 14.9492 16.2188 14.9492 14.95ZM18.3992 14.95C18.3992 14.3164 17.8829 13.8 17.2492 13.8C16.6156 13.8 16.0992 14.3164 16.0992 14.95C16.0992 15.5836 16.6156 16.1 17.2492 16.1C17.8828 16.1 18.3992 15.5836 18.3992 14.95Z" fill="#AD99FF"/>
<path d="M15.2671 15.0107C15.5511 14.8687 15.8965 14.9838 16.0385 15.2679C16.1704 15.5316 16.0805 15.8483 15.8396 16.0059L15.7814 16.0393L13.4814 17.1893C13.1973 17.3313 12.8519 17.2162 12.7099 16.9322C12.578 16.6684 12.6679 16.3518 12.9088 16.1942L12.9671 16.1607L15.2671 15.0107Z" fill="#AD99FF"/>
<path d="M18.5676 15.6934C18.7749 15.4862 19.1011 15.4702 19.3266 15.6456L19.3808 15.6934L21.6808 17.9934C21.9054 18.218 21.9054 18.5821 21.6808 18.8066C21.4735 19.0139 21.1474 19.0298 20.9218 18.8544L20.8676 18.8066L18.5676 16.5066C18.3431 16.2821 18.3431 15.918 18.5676 15.6934Z" fill="#AD99FF"/>
<path fill-rule="evenodd" clip-rule="evenodd" d="M28.7492 19.55C28.7492 16.3788 31.3281 13.8 34.4992 13.8C37.6704 13.8 40.2492 16.3788 40.2492 19.55C40.2492 22.7211 37.6703 25.3 34.4992 25.3C31.3282 25.3 28.7492 22.7211 28.7492 19.55ZM39.0992 19.55C39.0992 17.0139 37.0352 14.95 34.4992 14.95C31.9632 14.95 29.8992 17.0139 29.8992 19.55C29.8992 22.086 31.9633 24.15 34.4992 24.15C37.0352 24.15 39.0992 22.086 39.0992 19.55Z" fill="#AD99FF"/>
<path d="M34.5203 16.5208C34.6055 16.2149 34.9225 16.0359 35.2285 16.1211C36.5737 16.4957 37.605 17.5508 37.878 18.859C37.9429 19.1699 37.7435 19.4745 37.4326 19.5394C37.1218 19.6042 36.8172 19.4048 36.7523 19.094C36.5691 18.2162 35.8599 17.4907 34.92 17.229C34.614 17.1438 34.4351 16.8267 34.5203 16.5208Z" fill="#AD99FF"/>
<path d="M37.9286 23.0771C38.184 22.9296 38.5054 23.0003 38.6772 23.2314L38.714 23.2875L42.164 29.2631C42.6404 30.0882 42.3577 31.1431 41.5326 31.6195C40.7371 32.0788 39.7277 31.8324 39.2295 31.0744L39.1763 30.9881L35.7263 25.0125C35.5675 24.7375 35.6617 24.3858 35.9367 24.2271C36.1921 24.0796 36.5136 24.1503 36.6853 24.3814L36.7222 24.4375L40.1722 30.4131C40.331 30.6881 40.6826 30.7823 40.9576 30.6236C41.213 30.4761 41.3125 30.1624 41.1983 29.8981L41.1681 29.8381L37.7181 23.8625C37.5593 23.5875 37.6536 23.2358 37.9286 23.0771Z" fill="#AD99FF"/>
<path d="M25.6171 17.3107C25.9011 17.1687 26.2465 17.2838 26.3885 17.5679C26.5204 17.8316 26.4305 18.1483 26.1896 18.3059L26.1314 18.3393L24.9814 18.9143C24.6973 19.0563 24.3519 18.9412 24.2099 18.6572C24.078 18.3934 24.1679 18.0768 24.4088 17.9192L24.4671 17.8857L25.6171 17.3107Z" fill="#AD99FF"/>
<path fill-rule="evenodd" clip-rule="evenodd" d="M20.6992 18.4C20.6992 17.1312 21.7305 16.1 22.9992 16.1C24.268 16.1 25.2992 17.1312 25.2992 18.4C25.2992 19.6688 24.2679 20.7 22.9992 20.7C21.7305 20.7 20.6992 19.6688 20.6992 18.4ZM24.1492 18.4C24.1492 17.7664 23.6329 17.25 22.9992 17.25C22.3656 17.25 21.8492 17.7664 21.8492 18.4C21.8492 19.0336 22.3656 19.55 22.9992 19.55C23.6328 19.55 24.1492 19.0336 24.1492 18.4Z" fill="#AD99FF"/>
<path d="M33.925 9.20002C34.2199 9.20002 34.4629 9.422 34.4961 9.70797L34.5 9.77502V10.925C34.5 11.2426 34.2426 11.5 33.925 11.5C33.6301 11.5 33.3871 11.2781 33.3539 10.9921L33.35 10.925V10.35H6.9V31.05H33.35V28.175C33.35 27.8801 33.572 27.6371 33.8579 27.6039L33.925 27.6C34.2199 27.6 34.4629 27.822 34.4961 28.108L34.5 28.175V31.625C34.5 31.9199 34.278 32.1629 33.9921 32.1962L33.925 32.2H6.325C6.03012 32.2 5.78708 31.9781 5.75387 31.6921L5.75 31.625V9.77502C5.75 9.48014 5.97197 9.23711 6.25794 9.20389L6.325 9.20002H33.925Z" fill="white"/>
<path d="M22.425 10.35C22.7199 10.35 22.9629 10.1281 22.9961 9.84208L23 9.77502V8.62502C23 7.70636 22.2819 6.95542 21.3764 6.90295L21.275 6.90002H18.975C18.0563 6.90002 17.3054 7.61815 17.2529 8.52367L17.25 8.62502V9.77502C17.25 10.0926 17.5074 10.35 17.825 10.35C18.1199 10.35 18.3629 10.1281 18.3961 9.84208L18.4 9.77502V8.62502C18.4 8.33014 18.622 8.08711 18.9079 8.05389L18.975 8.05002H21.275C21.5699 8.05002 21.8129 8.272 21.8461 8.55797L21.85 8.62502V9.77502C21.85 10.0926 22.1074 10.35 22.425 10.35Z" fill="white"/>
<path d="M29.325 31.05C29.6199 31.05 29.8629 31.272 29.8961 31.558L29.9 31.625V32.775C29.9 33.6937 29.1819 34.4446 28.2764 34.4971L28.175 34.5H12.075C11.1563 34.5 10.4054 33.7819 10.3529 32.8764L10.35 32.775V31.625C10.35 31.3075 10.6074 31.05 10.925 31.05C11.2199 31.05 11.4629 31.272 11.4961 31.558L11.5 31.625V32.775C11.5 33.0699 11.722 33.3129 12.0079 33.3462L12.075 33.35H28.175C28.4699 33.35 28.7129 33.1281 28.7461 32.8421L28.75 32.775V31.625C28.75 31.3075 29.0074 31.05 29.325 31.05Z" fill="white"/>
<path d="M21.735 33.58C21.5445 33.326 21.184 33.2745 20.93 33.465C20.6955 33.6409 20.6336 33.9615 20.7753 34.2096L20.815 34.27L24.265 38.87C24.4555 39.1241 24.8159 39.1756 25.07 38.985C25.3045 38.8091 25.3664 38.4885 25.2247 38.2404L25.185 38.18L21.735 33.58Z" fill="white"/>
<path d="M13.225 21.85C13.5199 21.85 13.7629 22.072 13.7961 22.358L13.8 22.425V23.575C13.8 23.8926 13.5426 24.15 13.225 24.15C12.9301 24.15 12.6871 23.9281 12.6539 23.6421L12.65 23.575V23H10.35V27.6H12.65V25.875C12.65 25.5801 12.872 25.3371 13.1579 25.3039L13.225 25.3C13.5199 25.3 13.7629 25.522 13.7961 25.808L13.8 25.875V28.175C13.8 28.4699 13.578 28.7129 13.2921 28.7462L13.225 28.75H9.775C9.48012 28.75 9.23708 28.5281 9.20387 28.2421L9.2 28.175V22.425C9.2 22.1301 9.42197 21.8871 9.70794 21.8539L9.775 21.85H13.225Z" fill="white"/>
<path d="M16.675 19.55C16.9926 19.55 17.25 19.8075 17.25 20.125C17.25 20.4199 17.028 20.6629 16.7421 20.6962L16.675 20.7H16.1V27.6H18.4V21.275C18.4 20.9801 18.622 20.7371 18.9079 20.7039L18.975 20.7C19.2699 20.7 19.5129 20.922 19.5461 21.208L19.55 21.275V28.175C19.55 28.4699 19.328 28.7129 19.0421 28.7462L18.975 28.75H15.525C15.2301 28.75 14.9871 28.5281 14.9539 28.2421L14.95 28.175V20.125C14.95 19.8301 15.172 19.5871 15.4579 19.5539L15.525 19.55H16.675Z" fill="white"/>
<path d="M22.425 24.15C22.7426 24.15 23 24.4075 23 24.725C23 25.0199 22.778 25.2629 22.4921 25.2962L22.425 25.3H21.85V27.6H24.15V24.725C24.15 24.4301 24.372 24.1871 24.6579 24.1539L24.725 24.15C25.0199 24.15 25.2629 24.372 25.2961 24.658L25.3 24.725V28.175C25.3 28.4699 25.078 28.7129 24.7921 28.7462L24.725 28.75H21.275C20.9801 28.75 20.7371 28.5281 20.7039 28.2421L20.7 28.175V24.725C20.7 24.4301 20.922 24.1871 21.2079 24.1539L21.275 24.15H22.425Z" fill="white"/>
<path d="M27.025 23C27.3199 23 27.5629 23.222 27.5961 23.508L27.6 23.575V27.6H29.9V27.025C29.9 26.7301 30.122 26.4871 30.4079 26.4539L30.475 26.45C30.7699 26.45 31.0129 26.672 31.0461 26.958L31.05 27.025V28.175C31.05 28.4699 30.828 28.7129 30.5421 28.7462L30.475 28.75H27.025C26.7301 28.75 26.4871 28.5281 26.4539 28.2421L26.45 28.175V23.575C26.45 23.2575 26.7074 23 27.025 23Z" fill="white"/>
<path d="M18.515 33.58C18.7055 33.326 19.0659 33.2745 19.32 33.465C19.5545 33.6409 19.6164 33.9615 19.4747 34.2096L19.435 34.27L15.985 38.87C15.7945 39.1241 15.4341 39.1756 15.18 38.985C14.9455 38.8091 14.8836 38.4885 15.0253 38.2404L15.065 38.18L18.515 33.58Z" fill="white"/>
</svg>
