<svg width="46" height="46" viewBox="0 0 46 46" fill="none" xmlns="http://www.w3.org/2000/svg">
<path fill-rule="evenodd" clip-rule="evenodd" d="M16.118 26.8845C16.1956 26.5766 16.5081 26.3899 16.816 26.4675C17.124 26.5451 17.3107 26.8576 17.2331 27.1655C16.6579 29.4481 14.5597 31.05 12.0755 31.05C9.65561 31.05 7.59956 29.4556 6.92447 27.1892C6.83381 26.8848 7.00704 26.5646 7.31139 26.474C7.61574 26.3833 7.93596 26.5565 8.02661 26.8609C8.55896 28.648 10.1734 29.9 12.0755 29.9C14.0374 29.9 15.6727 28.6516 16.118 26.8845ZM37.968 26.8845C38.0456 26.5766 38.3581 26.3899 38.666 26.4675C38.974 26.5451 39.1607 26.8576 39.0831 27.1655C38.5079 29.4481 36.4097 31.05 33.9255 31.05C31.5056 31.05 29.4496 29.4556 28.7745 27.1892C28.6838 26.8848 28.857 26.5646 29.1614 26.474C29.4657 26.3833 29.786 26.5565 29.8766 26.8609C30.409 28.648 32.0234 29.9 33.9255 29.9C35.8874 29.9 37.5227 28.6516 37.968 26.8845ZM33.9255 18.4C34.2204 18.4 34.4635 18.622 34.4967 18.908L34.5005 18.975V21.0364L37.7821 24.3184C38.0067 24.543 38.0067 24.9071 37.7821 25.1316C37.5749 25.3389 37.2487 25.3548 37.0231 25.1794L36.969 25.1316L33.9255 22.0886L30.8821 25.1316C30.6576 25.3562 30.2935 25.3562 30.069 25.1316C29.8617 24.9243 29.8457 24.5982 30.0211 24.3726L30.069 24.3184L33.3505 21.0358V18.975C33.3505 18.6575 33.608 18.4 33.9255 18.4ZM12.0755 18.4C12.3704 18.4 12.6135 18.622 12.6467 18.908L12.6505 18.975V21.0364L14.8048 23.1911C15.0293 23.4156 15.0293 23.7797 14.8048 24.0042C14.5975 24.2115 14.2713 24.2275 14.0457 24.0521L13.9916 24.0042L12.0755 22.0881L9.03213 25.1316C8.80758 25.3562 8.44351 25.3562 8.21896 25.1316C8.01168 24.9243 7.99573 24.5982 8.17112 24.3726L8.21896 24.3184L11.5005 21.0358V18.975C11.5005 18.6575 11.758 18.4 12.0755 18.4ZM15.9321 24.3184C16.1567 24.543 16.1567 24.9071 15.9321 25.1316C15.7076 25.3562 15.3435 25.3562 15.119 25.1316C14.8944 24.9071 14.8944 24.543 15.119 24.3184C15.3435 24.0939 15.7076 24.0939 15.9321 24.3184Z" fill="#FFB648"/>
<path fill-rule="evenodd" clip-rule="evenodd" d="M23.0004 6.90002C21.7301 6.90002 20.7004 7.92977 20.7004 9.20002C20.7004 10.2536 21.4088 11.1418 22.3754 11.4141C22.0614 12.9189 20.2813 14.0802 17.3708 14.8835L16.9525 14.9946L16.5193 15.1008C16.0789 15.2047 15.6165 15.3014 15.1332 15.3909C13.4606 15.7006 11.6635 15.9003 9.86575 16.0113C9.65583 16.0242 9.45093 16.0356 9.25161 16.0456L8.67099 16.0713C8.48341 16.0785 8.30198 16.0844 8.12727 16.089L7.86865 16.095L7.50168 16.1L7.40833 16.1039C7.12236 16.1371 6.90039 16.3801 6.90039 16.675C6.90039 16.9926 7.15783 17.25 7.47539 17.25L8.02028 17.242L8.43126 17.2305L9.00716 17.2084L9.6186 17.1778L9.9366 17.1591C11.7775 17.0455 13.6191 16.8408 15.3426 16.5217C15.6724 16.4606 15.9939 16.3962 16.3068 16.3285L16.7697 16.2244C19.3395 15.6235 21.2857 14.7774 22.4254 13.6223V23.575L22.4293 23.6421C22.4625 23.928 22.7055 24.15 23.0004 24.15C23.318 24.15 23.5754 23.8926 23.5754 23.575V13.6223C24.7151 14.7774 26.6613 15.6235 29.2311 16.2244L29.694 16.3285C30.0069 16.3962 30.3284 16.4606 30.6582 16.5217C32.3817 16.8408 34.2233 17.0455 36.0642 17.1591L36.3822 17.1778L36.9936 17.2084L37.5695 17.2305L37.9805 17.242L38.5254 17.25C38.843 17.25 39.1004 16.9926 39.1004 16.675C39.1004 16.3801 38.8784 16.1371 38.5924 16.1039L38.4991 16.1L38.1321 16.095L37.8735 16.089C37.6988 16.0844 37.5174 16.0785 37.3298 16.0713L36.7492 16.0456C36.5499 16.0356 36.345 16.0242 36.135 16.0113C34.3372 15.9003 32.5402 15.7006 30.8676 15.3909C30.3843 15.3014 29.9219 15.2047 29.4814 15.1008L29.0483 14.9946L28.63 14.8835C25.7195 14.0802 23.9394 12.9189 23.6254 11.4141C24.5919 11.1418 25.3004 10.2536 25.3004 9.20002C25.3004 7.92977 24.2706 6.90002 23.0004 6.90002ZM24.1504 9.20002C24.1504 8.5649 23.6355 8.05002 23.0004 8.05002C22.3653 8.05002 21.8504 8.5649 21.8504 9.20002C21.8504 9.83515 22.3653 10.35 23.0004 10.35C23.6355 10.35 24.1504 9.83515 24.1504 9.20002Z" fill="white"/>
<path d="M23.0004 29.9C23.2953 29.9 23.5383 30.122 23.5715 30.408L23.5754 30.475V33.35H29.3254C29.643 33.35 29.9004 33.6075 29.9004 33.925C29.9004 34.2199 29.6784 34.4629 29.3925 34.4962L29.3254 34.5H17.7731C17.5107 34.5 17.2849 34.717 17.254 35.0069L17.2504 35.075V35.65H35.0754C35.9941 35.65 36.745 36.3682 36.7975 37.2737L36.8004 37.375V37.95H38.5254C38.843 37.95 39.1004 38.2075 39.1004 38.525C39.1004 38.8199 38.8784 39.0629 38.5925 39.0961L38.5254 39.1H28.1754C27.8578 39.1 27.6004 38.8426 27.6004 38.525C27.6004 38.2301 27.8224 37.9871 28.1083 37.9539L28.1754 37.95H35.6504V37.375C35.6504 37.0801 35.4284 36.8371 35.1425 36.8039L35.0754 36.8H10.9254C10.6305 36.8 10.3875 37.022 10.3543 37.308L10.3504 37.375V37.95H14.3754C14.693 37.95 14.9504 38.2075 14.9504 38.525C14.9504 38.8199 14.7284 39.0629 14.4425 39.0961L14.3754 39.1H7.47539C7.15783 39.1 6.90039 38.8426 6.90039 38.525C6.90039 38.2301 7.12237 37.9871 7.40834 37.9539L7.47539 37.95H9.20039V37.375C9.20039 36.4564 9.91852 35.7054 10.824 35.6529L10.9254 35.65H16.1004V35.075C16.1004 34.162 16.7911 33.4058 17.6742 33.353L17.7731 33.35H22.4254V30.475C22.4254 30.1575 22.6828 29.9 23.0004 29.9Z" fill="white"/>
<path d="M23.0004 28.75C23.318 28.75 23.5754 28.4926 23.5754 28.175C23.5754 27.8575 23.318 27.6 23.0004 27.6C22.6828 27.6 22.4254 27.8575 22.4254 28.175C22.4254 28.4926 22.6828 28.75 23.0004 28.75Z" fill="white"/>
</svg>
