<svg width="194" height="60" viewBox="0 0 194 60" fill="none" xmlns="http://www.w3.org/2000/svg">
<path fill-rule="evenodd" clip-rule="evenodd" d="M189.939 34.6729C190.593 34.6729 191.123 35.2029 191.123 35.8568V52.4322C191.123 53.086 190.593 53.6161 189.939 53.6161H172.719L167.444 57.76V35.8568C167.444 35.2029 167.974 34.6729 168.628 34.6729H189.939ZM183.47 40.4494L178.447 45.4717L175.517 42.5414L173.842 44.2167L178.447 48.8211L185.144 42.1235L183.47 40.4494Z" fill="#FFB648"/>
<path fill-rule="evenodd" clip-rule="evenodd" d="M148.67 3.55176C149.324 3.55176 149.854 4.08183 149.854 4.73571V21.3111C149.854 21.965 149.324 22.495 148.67 22.495H131.45L126.175 26.6389V4.73571C126.175 4.08183 126.705 3.55176 127.359 3.55176H148.67ZM135.085 8.41781L133.41 10.0931L136.341 13.0234L133.409 15.9537L135.083 17.6278L138.015 14.6975L140.945 17.6278L142.619 15.9537L139.689 13.0234H139.69L142.619 10.0931L140.945 8.41899L138.015 11.3493L135.085 8.41781Z" fill="#F45800"/>
<path fill-rule="evenodd" clip-rule="evenodd" d="M189.939 3.55176C190.593 3.55176 191.123 4.08183 191.123 4.73571V21.3111C191.123 21.965 190.593 22.495 189.939 22.495H172.719L167.444 26.6389V4.73571C167.444 4.08183 167.974 3.55176 168.628 3.55176H189.939ZM176.354 8.41781L174.679 10.0931L177.61 13.0234L174.678 15.9537L176.352 17.6278L179.284 14.6975L182.214 17.6278L183.888 15.9537L180.958 13.0234H180.959L183.888 10.0931L182.214 8.41899L179.284 11.3493L176.354 8.41781Z" fill="#F45800"/>
<path fill-rule="evenodd" clip-rule="evenodd" d="M107.401 3.55176C108.055 3.55176 108.585 4.08183 108.585 4.73571V21.3111C108.585 21.965 108.055 22.495 107.401 22.495H90.1803L84.9058 26.6389V4.73571C84.9058 4.08183 85.4358 3.55176 86.0897 3.55176H107.401ZM93.815 8.41781L92.1409 10.0931L95.0712 13.0234L92.1397 15.9537L93.8138 17.6278L96.7453 14.6975L99.6756 17.6278L101.35 15.9537L98.4194 13.0234H98.4206L101.35 10.0931L99.6756 8.41899L96.7453 11.3493L93.815 8.41781Z" fill="#F45800"/>
<path fill-rule="evenodd" clip-rule="evenodd" d="M66.1318 3.55176C66.7857 3.55176 67.3158 4.08183 67.3158 4.73571V21.3111C67.3158 21.965 66.7857 22.495 66.1318 22.495H48.9112L43.6367 26.6389V4.73571C43.6367 4.08183 44.1668 3.55176 44.8207 3.55176H66.1318ZM52.546 8.41781L50.8719 10.0931L53.8022 13.0234L50.8707 15.9537L52.5448 17.6278L55.4763 14.6975L58.4065 17.6278L60.0807 15.9537L57.1504 13.0234H57.1516L60.0807 10.0931L58.4065 8.41899L55.4763 11.3493L52.546 8.41781Z" fill="#F45800"/>
<path fill-rule="evenodd" clip-rule="evenodd" d="M24.8628 3.55176C25.5167 3.55176 26.0468 4.08183 26.0468 4.73571V21.3111C26.0468 21.965 25.5167 22.495 24.8628 22.495H7.64219L2.36768 26.6389V4.73571C2.36768 4.08183 2.89775 3.55176 3.55163 3.55176H24.8628ZM11.2769 8.41781L9.60282 10.0931L12.5331 13.0234L9.60164 15.9537L11.2757 17.6278L14.2072 14.6975L17.1375 17.6278L18.8116 15.9537L15.8813 13.0234H15.8825L18.8116 10.0931L17.1375 8.41899L14.2072 11.3493L11.2769 8.41781Z" fill="#F45800"/>
<path fill-rule="evenodd" clip-rule="evenodd" d="M148.67 34.6729C149.324 34.6729 149.854 35.2029 149.854 35.8568V52.4322C149.854 53.086 149.324 53.6161 148.67 53.6161H131.45L126.175 57.76V35.8568C126.175 35.2029 126.705 34.6729 127.359 34.6729H148.67ZM135.085 39.5389L133.41 41.2142L136.341 44.1445L133.409 47.0748L135.083 48.7489L138.015 45.8186L140.945 48.7489L142.619 47.0748L139.689 44.1445H139.69L142.619 41.2142L140.945 39.5401L138.015 42.4704L135.085 39.5389Z" fill="#F45800"/>
<path fill-rule="evenodd" clip-rule="evenodd" d="M107.401 34.6729C108.055 34.6729 108.585 35.2029 108.585 35.8568V52.4322C108.585 53.086 108.055 53.6161 107.401 53.6161H90.1803L84.9058 57.76V35.8568C84.9058 35.2029 85.4358 34.6729 86.0897 34.6729H107.401ZM93.815 39.5389L92.1409 41.2142L95.0712 44.1445L92.1397 47.0748L93.8138 48.7489L96.7453 45.8186L99.6756 48.7489L101.35 47.0748L98.4194 44.1445H98.4206L101.35 41.2142L99.6756 39.5401L96.7453 42.4704L93.815 39.5389Z" fill="#F45800"/>
<path fill-rule="evenodd" clip-rule="evenodd" d="M66.1318 34.6729C66.7857 34.6729 67.3158 35.2029 67.3158 35.8568V52.4322C67.3158 53.086 66.7857 53.6161 66.1318 53.6161H48.9112L43.6367 57.76V35.8568C43.6367 35.2029 44.1668 34.6729 44.8207 34.6729H66.1318ZM52.546 39.5389L50.8719 41.2142L53.8022 44.1445L50.8707 47.0748L52.5448 48.7489L55.4763 45.8186L58.4065 48.7489L60.0807 47.0748L57.1504 44.1445H57.1516L60.0807 41.2142L58.4065 39.5401L55.4763 42.4704L52.546 39.5389Z" fill="#F45800"/>
<path fill-rule="evenodd" clip-rule="evenodd" d="M24.8628 34.6729C25.5167 34.6729 26.0468 35.2029 26.0468 35.8568V52.4322C26.0468 53.086 25.5167 53.6161 24.8628 53.6161H7.64219L2.36768 57.76V35.8568C2.36768 35.2029 2.89775 34.6729 3.55163 34.6729H24.8628ZM11.2769 39.5389L9.60282 41.2142L12.5331 44.1445L9.60164 47.0748L11.2757 48.7489L14.2072 45.8186L17.1375 48.7489L18.8116 47.0748L15.8813 44.1445H15.8825L18.8116 41.2142L17.1375 39.5401L14.2072 42.4704L11.2769 39.5389Z" fill="#F45800"/>
</svg>
