<svg width="194" height="60" viewBox="0 0 194 60" fill="none" xmlns="http://www.w3.org/2000/svg">
<path fill-rule="evenodd" clip-rule="evenodd" d="M189.94 3.552C190.594 3.552 191.124 4.08208 191.124 4.73596V21.3113C191.124 21.9652 190.594 22.4953 189.94 22.4953H172.719L167.445 26.6391V4.73596C167.445 4.08208 167.975 3.552 168.629 3.552H189.94ZM183.471 9.32852L178.447 14.3508L175.517 11.4206L173.843 13.0959L178.447 17.7003L185.145 11.0026L183.471 9.32852Z" fill="#BCABFF"/>
<path fill-rule="evenodd" clip-rule="evenodd" d="M189.94 34.6731C190.594 34.6731 191.124 35.2032 191.124 35.857V52.4324C191.124 53.0863 190.594 53.6164 189.94 53.6164H172.719L167.445 57.7602V35.857C167.445 35.2032 167.975 34.6731 168.629 34.6731H189.94ZM183.471 40.4496L178.447 45.4719L175.517 42.5417L173.843 44.217L178.447 48.8213L185.145 42.1237L183.471 40.4496Z" fill="#BCABFF"/>
<path fill-rule="evenodd" clip-rule="evenodd" d="M148.67 3.552C149.324 3.552 149.854 4.08208 149.854 4.73596V21.3113C149.854 21.9652 149.324 22.4953 148.67 22.4953H131.45L126.175 26.6391V4.73596C126.175 4.08208 126.705 3.552 127.359 3.552H148.67ZM135.085 8.41805L133.41 10.0933L136.341 13.0236L133.409 15.9539L135.083 17.628L138.015 14.6977L140.945 17.628L142.619 15.9539L139.689 13.0236H139.69L142.619 10.0933L140.945 8.41924L138.015 11.3495L135.085 8.41805Z" fill="#6B48F4"/>
<path fill-rule="evenodd" clip-rule="evenodd" d="M107.402 3.552C108.056 3.552 108.586 4.08208 108.586 4.73596V21.3113C108.586 21.9652 108.056 22.4953 107.402 22.4953H90.1813L84.9067 26.6391V4.73596C84.9067 4.08208 85.4368 3.552 86.0907 3.552H107.402ZM93.816 8.41805L92.1419 10.0933L95.0722 13.0236L92.1407 15.9539L93.8148 17.628L96.7463 14.6977L99.6766 17.628L101.351 15.9539L98.4204 13.0236H98.4216L101.351 10.0933L99.6766 8.41924L96.7463 11.3495L93.816 8.41805Z" fill="#6B48F4"/>
<path fill-rule="evenodd" clip-rule="evenodd" d="M66.1323 3.552C66.7862 3.552 67.3163 4.08208 67.3163 4.73596V21.3113C67.3163 21.9652 66.7862 22.4953 66.1323 22.4953H48.9117L43.6372 26.6391V4.73596C43.6372 4.08208 44.1673 3.552 44.8212 3.552H66.1323ZM52.5465 8.41805L50.8724 10.0933L53.8026 13.0236L50.8712 15.9539L52.5453 17.628L55.4767 14.6977L58.407 17.628L60.0811 15.9539L57.1509 13.0236H57.152L60.0811 10.0933L58.407 8.41924L55.4767 11.3495L52.5465 8.41805Z" fill="#6B48F4"/>
<path fill-rule="evenodd" clip-rule="evenodd" d="M24.8628 3.55176C25.5167 3.55176 26.0468 4.08183 26.0468 4.73571V21.3111C26.0468 21.965 25.5167 22.495 24.8628 22.495H7.64219L2.36768 26.6389V4.73571C2.36768 4.08183 2.89775 3.55176 3.55163 3.55176H24.8628ZM11.2769 8.41781L9.60282 10.0931L12.5331 13.0234L9.60164 15.9537L11.2757 17.6278L14.2072 14.6975L17.1375 17.6278L18.8116 15.9537L15.8813 13.0234H15.8825L18.8116 10.0931L17.1375 8.41899L14.2072 11.3493L11.2769 8.41781Z" fill="#6B48F4"/>
<path fill-rule="evenodd" clip-rule="evenodd" d="M148.67 34.6731C149.324 34.6731 149.854 35.2032 149.854 35.857V52.4324C149.854 53.0863 149.324 53.6164 148.67 53.6164H131.45L126.175 57.7602V35.857C126.175 35.2032 126.705 34.6731 127.359 34.6731H148.67ZM135.085 39.5391L133.41 41.2144L136.341 44.1447L133.409 47.075L135.083 48.7491L138.015 45.8188L140.945 48.7491L142.619 47.075L139.689 44.1447H139.69L142.619 41.2144L140.945 39.5403L138.015 42.4706L135.085 39.5391Z" fill="#6B48F4"/>
<path fill-rule="evenodd" clip-rule="evenodd" d="M107.402 34.6731C108.056 34.6731 108.586 35.2032 108.586 35.857V52.4324C108.586 53.0863 108.056 53.6164 107.402 53.6164H90.1813L84.9067 57.7602V35.857C84.9067 35.2032 85.4368 34.6731 86.0907 34.6731H107.402ZM93.816 39.5391L92.1419 41.2144L95.0722 44.1447L92.1407 47.075L93.8148 48.7491L96.7463 45.8188L99.6766 48.7491L101.351 47.075L98.4204 44.1447H98.4216L101.351 41.2144L99.6766 39.5403L96.7463 42.4706L93.816 39.5391Z" fill="#6B48F4"/>
<path fill-rule="evenodd" clip-rule="evenodd" d="M66.1323 34.6731C66.7862 34.6731 67.3163 35.2032 67.3163 35.857V52.4324C67.3163 53.0863 66.7862 53.6164 66.1323 53.6164H48.9117L43.6372 57.7602V35.857C43.6372 35.2032 44.1673 34.6731 44.8212 34.6731H66.1323ZM52.5465 39.5391L50.8724 41.2144L53.8026 44.1447L50.8712 47.075L52.5453 48.7491L55.4767 45.8188L58.407 48.7491L60.0811 47.075L57.1509 44.1447H57.152L60.0811 41.2144L58.407 39.5403L55.4767 42.4706L52.5465 39.5391Z" fill="#6B48F4"/>
<path fill-rule="evenodd" clip-rule="evenodd" d="M24.8628 34.6731C25.5167 34.6731 26.0468 35.2032 26.0468 35.857V52.4324C26.0468 53.0863 25.5167 53.6164 24.8628 53.6164H7.64219L2.36768 57.7602V35.857C2.36768 35.2032 2.89775 34.6731 3.55163 34.6731H24.8628ZM11.2769 39.5391L9.60282 41.2144L12.5331 44.1447L9.60164 47.075L11.2757 48.7491L14.2072 45.8188L17.1375 48.7491L18.8116 47.075L15.8813 44.1447H15.8825L18.8116 41.2144L17.1375 39.5403L14.2072 42.4706L11.2769 39.5391Z" fill="#6B48F4"/>
</svg>
