<svg width="148" height="48" viewBox="0 0 148 48" fill="none" xmlns="http://www.w3.org/2000/svg">
<path fill-rule="evenodd" clip-rule="evenodd" d="M23.7303 3.95508C34.6462 3.95508 43.5055 12.8144 43.5055 23.7303C43.5055 34.6462 34.6462 43.5055 23.7303 43.5055C12.8144 43.5055 3.95508 34.6462 3.95508 23.7303C3.95508 12.8144 12.8144 3.95508 23.7303 3.95508ZM11.9107 30.4855C14.8137 34.8163 19.1721 37.573 24.0467 37.573C28.9193 37.573 33.2798 34.8183 36.1808 30.4855C32.8897 27.4097 28.5514 25.7015 24.0467 25.7078C19.5413 25.701 15.2023 27.4092 11.9107 30.4855ZM23.7303 21.7528C27.0068 21.7528 29.6629 19.0967 29.6629 15.8202C29.6629 12.5438 27.0068 9.88765 23.7303 9.88765C20.4538 9.88765 17.7977 12.5438 17.7977 15.8202C17.7977 19.0967 20.4538 21.7528 23.7303 21.7528Z" fill="#F45800"/>
<path fill-rule="evenodd" clip-rule="evenodd" d="M73.597 3.95508C84.3548 3.95508 93.0857 12.8144 93.0857 23.7303C93.0857 34.6462 84.3548 43.5055 73.597 43.5055C62.8393 43.5055 54.1084 34.6462 54.1084 23.7303C54.1084 12.8144 62.8393 3.95508 73.597 3.95508ZM61.9487 30.4855C64.8096 34.8163 69.1049 37.573 73.9088 37.573C78.7108 37.573 83.0081 34.8183 85.8671 30.4855C82.6237 27.4097 78.3483 25.7015 73.9088 25.7078C69.4688 25.701 65.1926 27.4092 61.9487 30.4855ZM73.597 21.7528C76.826 21.7528 79.4436 19.0967 79.4436 15.8202C79.4436 12.5438 76.826 9.88765 73.597 9.88765C70.368 9.88765 67.7504 12.5438 67.7504 15.8202C67.7504 19.0967 70.368 21.7528 73.597 21.7528Z" fill="#F45800"/>
<path fill-rule="evenodd" clip-rule="evenodd" d="M123.467 3.95508C134.383 3.95508 143.242 12.8144 143.242 23.7303C143.242 34.6462 134.383 43.5055 123.467 43.5055C112.551 43.5055 103.691 34.6462 103.691 23.7303C103.691 12.8144 112.551 3.95508 123.467 3.95508ZM111.647 30.4855C114.55 34.8163 118.908 37.573 123.783 37.573C128.656 37.573 133.016 34.8183 135.917 30.4855C132.626 27.4097 128.288 25.7015 123.783 25.7078C119.278 25.701 114.939 27.4092 111.647 30.4855ZM123.467 21.7528C126.743 21.7528 129.399 19.0967 129.399 15.8202C129.399 12.5438 126.743 9.88765 123.467 9.88765C120.19 9.88765 117.534 12.5438 117.534 15.8202C117.534 19.0967 120.19 21.7528 123.467 21.7528Z" fill="#FFB648"/>
</svg>
