<svg width="308" height="98" viewBox="0 0 308 98" fill="none" xmlns="http://www.w3.org/2000/svg">
<circle cx="53.5378" cy="13.8053" r="13.8053" fill="#6B48F4"/>
<circle cx="53.5378" cy="48.8239" r="13.8053" fill="#6B48F4"/>
<circle cx="93.943" cy="13.8053" r="13.8053" fill="#6B48F4"/>
<circle cx="93.2702" cy="48.8239" r="13.8053" fill="#6B48F4"/>
<circle cx="133.675" cy="13.8053" r="13.8053" fill="#6B48F4"/>
<circle cx="133.003" cy="48.8239" r="13.8053" fill="#6B48F4"/>
<ellipse cx="173.746" cy="13.8053" rx="14.1421" ry="13.8053" fill="#6B48F4"/>
<ellipse cx="173.072" cy="48.8239" rx="14.1421" ry="13.8053" fill="#6B48F4"/>
<circle cx="213.814" cy="13.8053" r="13.8053" fill="#6B48F4"/>
<circle cx="213.14" cy="48.8239" r="13.8053" fill="#6B48F4"/>
<circle cx="53.5378" cy="83.8422" r="13.8053" fill="#6B48F4"/>
<circle cx="293.28" cy="13.8053" r="13.8053" transform="rotate(90 293.28 13.8053)" fill="#6B48F4"/>
<circle cx="93.2702" cy="83.8422" r="13.8053" fill="#6B48F4"/>
<circle cx="293.28" cy="48.8239" r="13.8053" transform="rotate(90 293.28 48.8239)" fill="#6B48F4"/>
<circle cx="133.003" cy="83.8422" r="13.8053" fill="#6B48F4"/>
<circle cx="252.873" cy="83.8422" r="13.8053" fill="#6B48F4"/>
<ellipse cx="173.072" cy="83.8422" rx="14.1421" ry="13.8053" fill="#6B48F4"/>
<ellipse cx="253.209" cy="48.8239" rx="14.1421" ry="13.8053" fill="#6B48F4"/>
<circle cx="213.14" cy="83.8422" r="13.8053" fill="#6B48F4"/>
<circle cx="253.548" cy="13.8053" r="13.8053" fill="#6B48F4"/>
<ellipse cx="14.1421" cy="13.8053" rx="14.1421" ry="13.8053" fill="#BCABFF"/>
<circle cx="13.8053" cy="83.8422" r="13.8053" fill="#BCABFF"/>
<circle cx="13.8053" cy="48.8239" r="13.8053" fill="#BCABFF"/>
<path d="M52.1989 18.0608H53.2737V15.157H55.4987V14.2424H53.2737V12.3757H55.8758V11.4612H52.1989V18.0608Z" fill="white"/>
<path d="M91.9313 18.0608H93.0061V15.157H95.2311V14.2424H93.0061V12.3757H95.6082V11.4612H91.9313V18.0608Z" fill="white"/>
<path d="M131.664 18.0608H132.739V15.157H134.964V14.2424H132.739V12.3757H135.341V11.4612H131.664V18.0608Z" fill="white"/>
<path d="M172.069 18.0608H173.144V15.157H175.369V14.2424H173.144V12.3757H175.746V11.4612H172.069V18.0608Z" fill="white"/>
<path d="M211.802 18.0608H212.877V15.157H215.102V14.2424H212.877V12.3757H215.479V11.4612H211.802V18.0608Z" fill="white"/>
<path d="M251.534 18.0608H252.609V15.157H254.834V14.2424H252.609V12.3757H255.211V11.4612H251.534V18.0608Z" fill="white"/>
<path d="M291.94 18.0608H293.015V15.157H295.24V14.2424H293.015V12.3757H295.617V11.4612H291.94V18.0608Z" fill="white"/>
<path d="M52.1989 53.0793H53.2737V50.1755H55.4987V49.261H53.2737V47.3942H55.8758V46.4797H52.1989V53.0793Z" fill="white"/>
<path d="M91.9313 53.0793H93.0061V50.1755H95.2311V49.261H93.0061V47.3942H95.6082V46.4797H91.9313V53.0793Z" fill="white"/>
<path d="M131.664 53.0793H132.739V50.1755H134.964V49.261H132.739V47.3942H135.341V46.4797H131.664V53.0793Z" fill="white"/>
<path d="M172.069 53.0793H173.144V50.1755H175.369V49.261H173.144V47.3942H175.746V46.4797H172.069V53.0793Z" fill="white"/>
<path d="M211.802 53.0793H212.877V50.1755H215.102V49.261H212.877V47.3942H215.479V46.4797H211.802V53.0793Z" fill="white"/>
<path d="M251.534 53.0793H252.609V50.1755H254.834V49.261H252.609V47.3942H255.211V46.4797H251.534V53.0793Z" fill="white"/>
<path d="M291.267 53.0793H292.342V50.1755H294.567V49.261H292.342V47.3942H294.944V46.4797H291.267V53.0793Z" fill="white"/>
<path d="M52.1989 87.4241H53.2737V84.5202H55.4987V83.6057H53.2737V81.739H55.8758V80.8244H52.1989V87.4241Z" fill="white"/>
<path d="M91.9313 87.4241H93.0061V84.5202H95.2311V83.6057H93.0061V81.739H95.6082V80.8244H91.9313V87.4241Z" fill="white"/>
<path d="M131.664 87.4241H132.739V84.5202H134.964V83.6057H132.739V81.739H135.341V80.8244H131.664V87.4241Z" fill="white"/>
<path d="M172.069 87.4241H173.144V84.5202H175.369V83.6057H173.144V81.739H175.746V80.8244H172.069V87.4241Z" fill="white"/>
<path d="M211.802 87.4241H212.877V84.5202H215.102V83.6057H212.877V81.739H215.479V80.8244H211.802V87.4241Z" fill="white"/>
<path d="M250.861 87.4241H251.936V84.5202H254.161V83.6057H251.936V81.739H254.538V80.8244H250.861V87.4241Z" fill="white"/>
<path d="M11.1188 18.0608H12.1936V15.1947L15.9083 15.1947V18.0608H16.9925V11.4612H15.9083V14.2047L12.1936 14.2047L12.1936 11.4612H11.1188L11.1188 18.0608Z" fill="black"/>
<path d="M11.1188 53.0793H12.1936V50.2132H15.9083V53.0793H16.9925V46.4797H15.9083V49.2233H12.1936L12.1936 46.4797H11.1188L11.1188 53.0793Z" fill="black"/>
<path d="M11.1188 88.0977H12.1936V85.2315H15.9083V88.0977H16.9925V81.498H15.9083V84.2416H12.1936L12.1936 81.498H11.1188L11.1188 88.0977Z" fill="black"/>
</svg>
