<svg width="265" height="167" viewBox="0 0 265 167" fill="none" xmlns="http://www.w3.org/2000/svg">
<path fill-rule="evenodd" clip-rule="evenodd" d="M114.447 33.5223C129.675 13.1715 153.972 5.13423e-05 181.345 5.37354e-05C227.461 5.77669e-05 264.845 37.3843 264.845 83.5C264.845 129.616 227.461 167 181.345 167C153.739 167 129.261 153.603 114.06 132.956L114.1 133.121C111.64 128.966 101.116 120.509 90.7683 126.312C90.3808 126.529 90.0287 126.718 89.7104 126.88C80.5038 133.397 69.26 137.228 57.1216 137.228C25.9367 137.228 0.656438 111.947 0.656441 80.7624C0.656443 49.5775 25.9367 24.2972 57.1216 24.2972C69.9461 24.2972 81.772 28.5726 91.2518 35.7759L91.2324 35.7352C91.2753 35.7772 91.3193 35.8193 91.3643 35.8616C91.8527 36.2346 92.3349 36.6155 92.8106 37.0039C97.1994 39.9762 105.984 42.3476 112.975 34.963C113.56 34.3448 114.048 33.868 114.447 33.5223Z" fill="url(#paint0_radial_2562_23993)"/>
<path d="M160.867 66H162.309V61.24C162.687 60.624 163.247 60.022 164.213 60.022C165.221 60.022 165.837 60.694 165.837 61.814V66H167.293V61.758C167.293 59.714 166.117 58.664 164.549 58.664C163.541 58.664 162.841 59.07 162.309 59.63V55.5H160.867V66ZM172.811 58.664C170.529 58.664 168.975 60.386 168.975 62.472C168.975 64.558 170.529 66.28 172.811 66.28C175.107 66.28 176.647 64.558 176.647 62.472C176.647 60.386 175.107 58.664 172.811 58.664ZM172.825 64.922C171.467 64.922 170.487 63.83 170.487 62.472C170.487 61.114 171.467 60.022 172.825 60.022C174.155 60.022 175.135 61.1 175.135 62.472C175.135 63.816 174.155 64.922 172.825 64.922ZM178.449 66H179.891V61.24C180.227 60.638 180.759 60.022 181.655 60.022C182.579 60.022 183.139 60.638 183.139 61.674V66H184.595V61.618C184.595 61.478 184.595 61.352 184.581 61.226C184.959 60.554 185.505 60.022 186.345 60.022C187.255 60.022 187.829 60.638 187.829 61.674V66H189.285V61.618C189.285 59.672 188.151 58.664 186.681 58.664C185.463 58.664 184.763 59.238 184.217 59.938C183.769 59.098 182.957 58.664 181.991 58.664C181.053 58.664 180.395 59.056 179.891 59.602V58.944H178.449V66ZM191.52 66H192.962V61.24C193.298 60.638 193.83 60.022 194.726 60.022C195.65 60.022 196.21 60.638 196.21 61.674V66H197.666V61.618C197.666 61.478 197.666 61.352 197.652 61.226C198.03 60.554 198.576 60.022 199.416 60.022C200.326 60.022 200.9 60.638 200.9 61.674V66H202.356V61.618C202.356 59.672 201.222 58.664 199.752 58.664C198.534 58.664 197.834 59.238 197.288 59.938C196.84 59.098 196.028 58.664 195.062 58.664C194.124 58.664 193.466 59.056 192.962 59.602V58.944H191.52V66ZM210.96 64.852L209.91 64.012C209.476 64.6 208.762 64.978 207.908 64.978C206.55 64.978 205.612 64.18 205.514 62.64H210.722C210.778 62.43 210.82 62.108 210.82 61.786C210.82 59.994 209.56 58.664 207.614 58.664C205.374 58.664 204.03 60.358 204.03 62.472C204.03 64.53 205.472 66.28 207.908 66.28C209.224 66.28 210.302 65.734 210.96 64.852ZM207.586 59.868C208.72 59.868 209.35 60.68 209.378 61.562H205.584C205.808 60.47 206.536 59.868 207.586 59.868ZM163.514 88.982H165.476V76.382H163.55L159.5 78.668L160.508 80.072L163.514 78.398V88.982ZM167.987 85.49H174.071V89H176.033V85.49H177.419V83.708H176.033V76.4H173.693L167.987 83.708V85.49ZM170.057 83.708L174.071 78.578V83.708H170.057ZM183.601 76.04C180.379 76.04 178.813 78.938 178.813 82.7C178.813 86.462 180.379 89.36 183.601 89.36C186.823 89.36 188.371 86.462 188.371 82.7C188.371 78.938 186.823 76.04 183.601 76.04ZM183.601 77.876C185.419 77.876 186.337 79.874 186.337 82.7C186.337 85.508 185.419 87.524 183.601 87.524C181.765 87.524 180.847 85.526 180.847 82.7C180.847 79.892 181.765 77.876 183.601 77.876ZM194.535 76.04C191.313 76.04 189.747 78.938 189.747 82.7C189.747 86.462 191.313 89.36 194.535 89.36C197.757 89.36 199.305 86.462 199.305 82.7C199.305 78.938 197.757 76.04 194.535 76.04ZM194.535 77.876C196.353 77.876 197.271 79.874 197.271 82.7C197.271 85.508 196.353 87.524 194.535 87.524C192.699 87.524 191.781 85.526 191.781 82.7C191.781 79.892 192.699 77.876 194.535 77.876ZM200.306 84.932H201.944C202.43 87.902 204.032 89.36 206.498 89.36C208.19 89.36 209.414 88.64 210.242 87.524L208.748 86.39C208.262 87.092 207.56 87.614 206.534 87.614C205.238 87.614 204.32 86.93 203.96 84.932H208.694V83.366H203.798C203.78 83.15 203.78 82.916 203.78 82.682C203.78 82.466 203.78 82.268 203.798 82.07H208.694V80.486H203.942C204.302 78.47 205.22 77.768 206.534 77.768C207.578 77.768 208.244 78.272 208.748 79.01L210.242 77.858C209.396 76.76 208.19 76.022 206.498 76.022C204.014 76.022 202.412 77.48 201.926 80.486H200.306V82.07H201.782C201.764 82.268 201.764 82.466 201.764 82.682C201.764 82.916 201.764 83.15 201.782 83.366H200.306V84.932ZM159.5 110.444H160.942V106.272C161.544 106.916 162.3 107.28 163.322 107.28C165.534 107.28 166.92 105.53 166.92 103.472C166.92 101.414 165.534 99.664 163.322 99.664C162.3 99.664 161.544 100.028 160.942 100.672V99.944H159.5V110.444ZM163.14 101.022C164.498 101.022 165.408 102.086 165.408 103.472C165.408 104.858 164.498 105.922 163.14 105.922C162.23 105.922 161.46 105.502 160.942 104.718V102.226C161.446 101.456 162.216 101.022 163.14 101.022ZM170.511 107.21C171.379 107.21 172.261 106.818 172.765 106.202V107H174.207V102.338C174.207 100.784 173.157 99.664 171.253 99.664C169.993 99.664 168.985 100.196 168.355 101.036L169.433 101.862C169.839 101.288 170.441 100.938 171.211 100.938C172.121 100.938 172.765 101.47 172.765 102.338V102.702L170.483 103.08C168.985 103.332 168.159 104.102 168.159 105.166C168.159 106.412 169.111 107.21 170.511 107.21ZM169.615 105.11C169.615 104.578 169.979 104.2 170.861 104.046L172.765 103.724V104.942C172.345 105.614 171.659 106.034 170.777 106.034C170.049 106.034 169.615 105.656 169.615 105.11ZM176.467 107H177.909V102.296C178.273 101.694 178.861 101.218 179.757 101.218C180.051 101.218 180.275 101.26 180.499 101.316V99.902C180.317 99.846 180.107 99.804 179.883 99.804C179.015 99.804 178.399 100.196 177.909 100.742V99.944H176.467V107ZM185.86 107H187.302V102.24C187.638 101.638 188.17 101.022 189.066 101.022C189.99 101.022 190.55 101.638 190.55 102.674V107H192.006V102.618C192.006 102.478 192.006 102.352 191.992 102.226C192.37 101.554 192.916 101.022 193.756 101.022C194.666 101.022 195.24 101.638 195.24 102.674V107H196.696V102.618C196.696 100.672 195.562 99.664 194.092 99.664C192.874 99.664 192.174 100.238 191.628 100.938C191.18 100.098 190.368 99.664 189.402 99.664C188.464 99.664 187.806 100.056 187.302 100.602V99.944H185.86V107ZM202.206 99.664C199.924 99.664 198.37 101.386 198.37 103.472C198.37 105.558 199.924 107.28 202.206 107.28C204.502 107.28 206.042 105.558 206.042 103.472C206.042 101.386 204.502 99.664 202.206 99.664ZM202.22 105.922C200.862 105.922 199.882 104.83 199.882 103.472C199.882 102.114 200.862 101.022 202.22 101.022C203.55 101.022 204.53 102.1 204.53 103.472C204.53 104.816 203.55 105.922 202.22 105.922ZM208.572 98.376C209.104 98.376 209.552 97.928 209.552 97.396C209.552 96.864 209.104 96.416 208.572 96.416C208.04 96.416 207.592 96.864 207.592 97.396C207.592 97.928 208.04 98.376 208.572 98.376ZM207.844 107H209.286V99.944H207.844V107ZM210.863 106.006C211.521 106.804 212.403 107.28 213.593 107.28C214.909 107.28 216.029 106.454 216.043 105.068C216.043 102.646 212.585 103.122 212.585 101.708C212.585 101.232 212.921 100.84 213.593 100.84C214.181 100.84 214.671 101.19 215.049 101.694L216.029 100.84C215.525 100.168 214.615 99.664 213.579 99.664C212.165 99.664 211.185 100.588 211.185 101.75C211.185 104.242 214.643 103.724 214.643 105.152C214.643 105.684 214.265 106.104 213.579 106.104C212.879 106.104 212.319 105.726 211.857 105.138L210.863 106.006Z" fill="white"/>
<path d="M29.0902 56.944V58.246H30.4202V64H31.8762V58.246H34.2142V56.944H31.8762V56.09C31.8762 55.292 32.3522 54.802 33.0662 54.802C33.4582 54.802 33.7662 54.928 34.0042 55.11L34.6202 53.892C34.2142 53.668 33.6822 53.5 33.0382 53.5C31.4002 53.5 30.4202 54.634 30.4202 56.132V56.944H29.0902ZM41.5655 62.852L40.5155 62.012C40.0815 62.6 39.3675 62.978 38.5135 62.978C37.1555 62.978 36.2175 62.18 36.1195 60.64H41.3275C41.3835 60.43 41.4255 60.108 41.4255 59.786C41.4255 57.994 40.1655 56.664 38.2195 56.664C35.9795 56.664 34.6355 58.358 34.6355 60.472C34.6355 62.53 36.0775 64.28 38.5135 64.28C39.8295 64.28 40.9075 63.734 41.5655 62.852ZM38.1915 57.868C39.3255 57.868 39.9555 58.68 39.9835 59.562H36.1895C36.4135 58.47 37.1415 57.868 38.1915 57.868ZM43.3166 64H44.7586V59.24C45.0946 58.638 45.6266 58.022 46.5226 58.022C47.4466 58.022 48.0066 58.638 48.0066 59.674V64H49.4626V59.618C49.4626 59.478 49.4626 59.352 49.4486 59.226C49.8266 58.554 50.3726 58.022 51.2126 58.022C52.1226 58.022 52.6966 58.638 52.6966 59.674V64H54.1526V59.618C54.1526 57.672 53.0186 56.664 51.5486 56.664C50.3306 56.664 49.6306 57.238 49.0846 57.938C48.6366 57.098 47.8246 56.664 46.8586 56.664C45.9206 56.664 45.2626 57.056 44.7586 57.602V56.944H43.3166V64ZM56.3869 64H57.8289V59.24C58.1649 58.638 58.6969 58.022 59.5929 58.022C60.5169 58.022 61.0769 58.638 61.0769 59.674V64H62.5329V59.618C62.5329 59.478 62.5329 59.352 62.5189 59.226C62.8969 58.554 63.4429 58.022 64.2829 58.022C65.1929 58.022 65.7669 58.638 65.7669 59.674V64H67.2229V59.618C67.2229 57.672 66.0889 56.664 64.6189 56.664C63.4009 56.664 62.7009 57.238 62.1549 57.938C61.7069 57.098 60.8949 56.664 59.9289 56.664C58.9909 56.664 58.3329 57.056 57.8289 57.602V56.944H56.3869V64ZM75.8273 62.852L74.7773 62.012C74.3433 62.6 73.6293 62.978 72.7753 62.978C71.4173 62.978 70.4793 62.18 70.3813 60.64H75.5893C75.6453 60.43 75.6873 60.108 75.6873 59.786C75.6873 57.994 74.4273 56.664 72.4813 56.664C70.2413 56.664 68.8973 58.358 68.8973 60.472C68.8973 62.53 70.3392 64.28 72.7753 64.28C74.0913 64.28 75.1693 63.734 75.8273 62.852ZM72.4533 57.868C73.5873 57.868 74.2173 58.68 74.2453 59.562H70.4513C70.6753 58.47 71.4033 57.868 72.4533 57.868ZM32.7022 86.982H34.6642V74.382H32.7382L28.6882 76.668L29.6962 78.072L32.7022 76.398V86.982ZM42.3307 74.04C39.1087 74.04 37.5427 76.938 37.5427 80.7C37.5427 84.462 39.1087 87.36 42.3307 87.36C45.5527 87.36 47.1007 84.462 47.1007 80.7C47.1007 76.938 45.5527 74.04 42.3307 74.04ZM42.3307 75.876C44.1487 75.876 45.0667 77.874 45.0667 80.7C45.0667 83.508 44.1487 85.524 42.3307 85.524C40.4947 85.524 39.5767 83.526 39.5767 80.7C39.5767 77.892 40.4947 75.876 42.3307 75.876ZM53.2643 74.04C50.0423 74.04 48.4763 76.938 48.4763 80.7C48.4763 84.462 50.0423 87.36 53.2643 87.36C56.4863 87.36 58.0343 84.462 58.0343 80.7C58.0343 76.938 56.4863 74.04 53.2643 74.04ZM53.2643 75.876C55.0823 75.876 56.0003 77.874 56.0003 80.7C56.0003 83.508 55.0823 85.524 53.2643 85.524C51.4283 85.524 50.5103 83.526 50.5103 80.7C50.5103 77.892 51.4283 75.876 53.2643 75.876ZM64.1979 74.04C60.9759 74.04 59.4099 76.938 59.4099 80.7C59.4099 84.462 60.9759 87.36 64.1979 87.36C67.4199 87.36 68.9679 84.462 68.9679 80.7C68.9679 76.938 67.4199 74.04 64.1979 74.04ZM64.1979 75.876C66.0159 75.876 66.9339 77.874 66.9339 80.7C66.9339 83.508 66.0159 85.524 64.1979 85.524C62.3619 85.524 61.4439 83.526 61.4439 80.7C61.4439 77.892 62.3619 75.876 64.1979 75.876ZM69.9688 82.932H71.6068C72.0928 85.902 73.6948 87.36 76.1608 87.36C77.8528 87.36 79.0768 86.64 79.9048 85.524L78.4108 84.39C77.9248 85.092 77.2228 85.614 76.1968 85.614C74.9008 85.614 73.9828 84.93 73.6228 82.932H78.3568V81.366H73.4608C73.4428 81.15 73.4428 80.916 73.4428 80.682C73.4428 80.466 73.4428 80.268 73.4608 80.07H78.3568V78.486H73.6048C73.9648 76.47 74.8828 75.768 76.1968 75.768C77.2408 75.768 77.9068 76.272 78.4108 77.01L79.9048 75.858C79.0588 74.76 77.8528 74.022 76.1608 74.022C73.6768 74.022 72.0748 75.48 71.5888 78.486H69.9688V80.07H71.4448C71.4268 80.268 71.4268 80.466 71.4268 80.682C71.4268 80.916 71.4268 81.15 71.4448 81.366H69.9688V82.932ZM26.5002 108.444H27.9422V104.272C28.5442 104.916 29.3002 105.28 30.3222 105.28C32.5342 105.28 33.9202 103.53 33.9202 101.472C33.9202 99.414 32.5342 97.664 30.3222 97.664C29.3002 97.664 28.5442 98.028 27.9422 98.672V97.944H26.5002V108.444ZM30.1402 99.022C31.4982 99.022 32.4082 100.086 32.4082 101.472C32.4082 102.858 31.4982 103.922 30.1402 103.922C29.2302 103.922 28.4602 103.502 27.9422 102.718V100.226C28.4462 99.456 29.2162 99.022 30.1402 99.022ZM37.5107 105.21C38.3787 105.21 39.2607 104.818 39.7647 104.202V105H41.2067V100.338C41.2067 98.784 40.1567 97.664 38.2527 97.664C36.9927 97.664 35.9847 98.196 35.3547 99.036L36.4327 99.862C36.8387 99.288 37.4407 98.938 38.2107 98.938C39.1207 98.938 39.7647 99.47 39.7647 100.338V100.702L37.4827 101.08C35.9847 101.332 35.1587 102.102 35.1587 103.166C35.1587 104.412 36.1107 105.21 37.5107 105.21ZM36.6147 103.11C36.6147 102.578 36.9787 102.2 37.8607 102.046L39.7647 101.724V102.942C39.3447 103.614 38.6587 104.034 37.7767 104.034C37.0487 104.034 36.6147 103.656 36.6147 103.11ZM43.467 105H44.909V100.296C45.273 99.694 45.861 99.218 46.757 99.218C47.051 99.218 47.275 99.26 47.499 99.316V97.902C47.317 97.846 47.107 97.804 46.883 97.804C46.015 97.804 45.399 98.196 44.909 98.742V97.944H43.467V105ZM52.8596 105H54.3016V100.24C54.6376 99.638 55.1696 99.022 56.0656 99.022C56.9896 99.022 57.5496 99.638 57.5496 100.674V105H59.0056V100.618C59.0056 100.478 59.0056 100.352 58.9916 100.226C59.3696 99.554 59.9156 99.022 60.7556 99.022C61.6656 99.022 62.2396 99.638 62.2396 100.674V105H63.6956V100.618C63.6956 98.672 62.5616 97.664 61.0916 97.664C59.8736 97.664 59.1736 98.238 58.6276 98.938C58.1796 98.098 57.3676 97.664 56.4016 97.664C55.4636 97.664 54.8056 98.056 54.3016 98.602V97.944H52.8596V105ZM69.2059 97.664C66.9239 97.664 65.3699 99.386 65.3699 101.472C65.3699 103.558 66.9239 105.28 69.2059 105.28C71.5019 105.28 73.0419 103.558 73.0419 101.472C73.0419 99.386 71.5019 97.664 69.2059 97.664ZM69.2199 103.922C67.8619 103.922 66.8819 102.83 66.8819 101.472C66.8819 100.114 67.8619 99.022 69.2199 99.022C70.5499 99.022 71.5299 100.1 71.5299 101.472C71.5299 102.816 70.5499 103.922 69.2199 103.922ZM75.572 96.376C76.104 96.376 76.552 95.928 76.552 95.396C76.552 94.864 76.104 94.416 75.572 94.416C75.04 94.416 74.592 94.864 74.592 95.396C74.592 95.928 75.04 96.376 75.572 96.376ZM74.844 105H76.286V97.944H74.844V105ZM77.8627 104.006C78.5207 104.804 79.4027 105.28 80.5927 105.28C81.9087 105.28 83.0287 104.454 83.0427 103.068C83.0427 100.646 79.5847 101.122 79.5847 99.708C79.5847 99.232 79.9207 98.84 80.5927 98.84C81.1807 98.84 81.6707 99.19 82.0487 99.694L83.0287 98.84C82.5247 98.168 81.6147 97.664 80.5787 97.664C79.1647 97.664 78.1847 98.588 78.1847 99.75C78.1847 102.242 81.6427 101.724 81.6427 103.152C81.6427 103.684 81.2647 104.104 80.5787 104.104C79.8787 104.104 79.3187 103.726 78.8567 103.138L77.8627 104.006Z" fill="black"/>
<defs>
<radialGradient id="paint0_radial_2562_23993" cx="0" cy="0" r="1" gradientUnits="userSpaceOnUse" gradientTransform="translate(8.44032 74.3009) scale(171.953 262.511)">
<stop stop-color="#FFB648"/>
<stop offset="1" stop-color="#F45800"/>
</radialGradient>
</defs>
</svg>
