<svg width="263" height="248" viewBox="0 0 263 248" fill="none" xmlns="http://www.w3.org/2000/svg">
<path fill-rule="evenodd" clip-rule="evenodd" d="M121.698 6.00313C121.798 6.00104 121.898 6 122 6L122.152 6.00078C122.202 6.0013 122.252 6.00208 122.302 6.00313L122.597 6.0125L122.885 6.0281C123.027 6.03747 123.166 6.04916 123.301 6.06319L123.568 6.09436C125.007 6.28289 126 6.75328 126 7.5V10.5C126 10.7761 125.776 11 125.5 11C125.244 11 125.032 10.807 125.003 10.5583L125 10.5V8.56305C124.609 8.71878 124.122 8.83308 123.568 8.90564L123.301 8.93681C123.166 8.95084 123.027 8.96253 122.885 8.9719L122.597 8.9875L122.302 8.99688C122.202 8.99896 122.102 9 122 9C121.898 9 121.798 8.99896 121.698 8.99688L121.403 8.9875L121.115 8.9719C120.973 8.96253 120.834 8.95084 120.699 8.93681L120.432 8.90564C118.993 8.71711 118 8.24672 118 7.5C118 6.75328 118.993 6.28289 120.432 6.09436L120.699 6.06319C120.834 6.04916 120.973 6.03747 121.115 6.0281L121.403 6.0125L121.698 6.00313ZM125 7.5L124.989 7.49301C124.876 7.42867 124.715 7.36351 124.517 7.30331L124.414 7.27366C123.791 7.10107 122.927 7 122 7C121.074 7 120.21 7.10107 119.586 7.27366C119.375 7.33204 119.201 7.39634 119.072 7.46079L119 7.5L119.085 7.54565C119.191 7.5972 119.325 7.64853 119.484 7.69669L119.586 7.72634C120.21 7.89893 121.074 8 122 8C122.927 8 123.791 7.89893 124.414 7.72634C124.625 7.66796 124.8 7.60366 124.928 7.53921L125 7.5Z" fill="#BCABFF"/>
<path d="M141.866 24.902C141.336 24.3296 140.611 24 139.838 24C138.6 24 137.551 24.8361 137.162 26H136.5L136.442 26.0034C136.193 26.0322 136 26.2436 136 26.5C136 26.7761 136.224 27 136.5 27H137C137 27.1703 137.013 27.3374 137.039 27.5H136.5L136.442 27.5034C136.193 27.5322 136 27.7436 136 28C136 28.2761 136.224 28.5 136.5 28.5H137.38C137.87 29.3959 138.786 30 139.838 30C140.544 30 141.21 29.7258 141.726 29.2396C141.923 29.0535 141.937 28.7372 141.757 28.5332C141.577 28.3292 141.271 28.3148 141.073 28.5009C140.734 28.8211 140.299 29 139.838 29C139.364 29 138.931 28.8114 138.601 28.5H139.5L139.558 28.4966C139.807 28.4678 140 28.2564 140 28C140 27.7239 139.776 27.5 139.5 27.5H138.027C137.988 27.3403 137.968 27.1728 137.968 27H139.5L139.558 26.9966C139.807 26.9678 140 26.7564 140 26.5C140 26.2239 139.776 26 139.5 26H138.218C138.542 25.4014 139.147 25 139.838 25C140.343 25 140.817 25.2153 141.166 25.5931C141.351 25.7927 141.657 25.7998 141.851 25.6089C142.044 25.418 142.051 25.1015 141.866 24.902Z" fill="#BCABFF"/>
<path d="M118.5 10C118.756 10 118.968 10.1755 118.997 10.4015L119 10.4545V19.5455C119 19.7965 118.776 20 118.5 20C118.244 20 118.032 19.8245 118.003 19.5985L118 19.5455V10.4545C118 10.2035 118.224 10 118.5 10Z" fill="#BCABFF"/>
<path d="M118.5 22C118.776 22 119 21.7761 119 21.5C119 21.2239 118.776 21 118.5 21C118.224 21 118 21.2239 118 21.5C118 21.7761 118.224 22 118.5 22Z" fill="#BCABFF"/>
<path fill-rule="evenodd" clip-rule="evenodd" d="M142 14C141.898 14 141.798 14.001 141.698 14.0031L141.403 14.0125L141.115 14.0281C140.973 14.0375 140.834 14.0492 140.699 14.0632L140.432 14.0944C138.993 14.2829 138 14.7533 138 15.5C138 16.2467 138.993 16.7171 140.432 16.9056L140.699 16.9368C140.834 16.9508 140.973 16.9625 141.115 16.9719L141.403 16.9875L141.698 16.9969C141.798 16.999 141.898 17 142 17C142.102 17 142.202 16.999 142.302 16.9969L142.597 16.9875L142.885 16.9719C143.027 16.9625 143.166 16.9508 143.301 16.9368L143.568 16.9056C144.122 16.8331 144.609 16.7188 145 16.563V18.5L145.003 18.5583C145.032 18.807 145.244 19 145.5 19C145.776 19 146 18.7761 146 18.5V15.5C146 14.7533 145.007 14.2829 143.568 14.0944L143.301 14.0632C143.166 14.0492 143.027 14.0375 142.885 14.0281L142.597 14.0125L142.302 14.0031C142.252 14.0021 142.202 14.0013 142.152 14.0008L142 14ZM144.928 15.5392L145 15.5L144.989 15.493C144.876 15.4287 144.715 15.3635 144.517 15.3033L144.414 15.2737C143.791 15.1011 142.927 15 142 15C141.074 15 140.21 15.1011 139.586 15.2737C139.375 15.332 139.201 15.3963 139.072 15.4608L139 15.5L139.085 15.5456C139.191 15.5972 139.325 15.6485 139.484 15.6967L139.586 15.7263C140.21 15.8989 141.074 16 142 16C142.927 16 143.791 15.8989 144.414 15.7263C144.625 15.668 144.8 15.6037 144.928 15.5392Z" fill="#BCABFF"/>
<path d="M138.997 17.4417C138.968 17.193 138.756 17 138.5 17C138.224 17 138 17.2239 138 17.5V19.5L138.003 19.5583C138.032 19.807 138.244 20 138.5 20C138.776 20 139 19.7761 139 19.5V17.5L138.997 17.4417Z" fill="#BCABFF"/>
<path fill-rule="evenodd" clip-rule="evenodd" d="M130.331 11L129.997 11.006C129.942 11.0075 129.887 11.0093 129.832 11.0112L129.507 11.0262L129.189 11.0469C129.031 11.0588 128.877 11.0728 128.725 11.0889L128.426 11.1241C128.377 11.1304 128.328 11.1369 128.279 11.1437L127.993 11.1873C126.211 11.481 125 12.1085 125 12.9996V15.2858L125.002 15.3599C125.004 15.3781 125.005 15.3961 125.007 15.4141C125.003 15.442 125 15.4707 125 15.5V17.7858L125.002 17.8599C125.004 17.8781 125.005 17.8961 125.007 17.9141C125.003 17.942 125 17.9707 125 18V20.2858L125.002 20.3599C125.004 20.378 125.005 20.396 125.007 20.4138C125.003 20.4417 125 20.4703 125 20.4996V22.7854L125.002 22.8595C125.007 22.9296 125.018 22.9982 125.036 23.0654C124.962 23.0588 124.887 23.0526 124.811 23.0469L124.493 23.0262L124.168 23.0112C124.113 23.0093 124.058 23.0075 124.003 23.006L123.669 23H123.331L122.997 23.006C122.942 23.0075 122.887 23.0093 122.832 23.0112L122.507 23.0262L122.189 23.0469C122.031 23.0588 121.877 23.0728 121.725 23.0889L121.426 23.1241C121.377 23.1304 121.328 23.1369 121.279 23.1437L120.993 23.1873C119.211 23.481 118 24.1085 118 24.9996V27.2855L118.002 27.3596C118.004 27.3778 118.005 27.3959 118.007 27.4139C118.003 27.4418 118 27.4705 118 27.4998V29.7856L118.002 29.8597C118.067 30.8409 119.419 31.5428 121.326 31.8408L121.616 31.8825C121.714 31.8954 121.813 31.9072 121.913 31.918L122.219 31.9473C122.63 31.9821 123.059 32 123.5 32C123.941 32 124.37 31.9821 124.781 31.9473L125.087 31.918C125.187 31.9072 125.286 31.8954 125.384 31.8825L125.674 31.8408C127.543 31.5487 128.879 30.8685 128.992 29.9176C129.469 29.972 129.967 30 130.475 30C131.72 30 133.245 29.8408 134.092 29.6018C135.061 31.6125 137.119 33 139.5 33C142.814 33 145.5 30.3136 145.5 26.9998C145.5 23.686 142.814 20.9996 139.5 20.9996C138.194 20.9996 136.985 21.417 136 22.1257V20.4996L135.997 20.4413C135.996 20.4366 135.995 20.432 135.995 20.4274C135.994 20.4228 135.993 20.4183 135.993 20.4138C135.998 20.3717 136 20.329 136 20.2858V18L135.997 17.9417C135.996 17.9324 135.994 17.9232 135.993 17.9141C135.998 17.8719 136 17.8291 136 17.7858V15.5L135.997 15.4417C135.996 15.4324 135.994 15.4232 135.993 15.4141C135.998 15.3719 136 15.3291 136 15.2858V13C136 12.1323 134.852 11.5142 133.146 11.2112L132.865 11.1648C132.769 11.1503 132.673 11.1367 132.574 11.1241L132.275 11.0889C132.123 11.0728 131.969 11.0588 131.811 11.0469L131.493 11.0262L131.168 11.0112C131.113 11.0093 131.058 11.0075 131.003 11.006L130.669 11H130.331ZM134.03 24.5304C133.624 24.6594 133.168 24.7635 132.674 24.8406L132.384 24.8823C132.286 24.8951 132.187 24.907 132.087 24.9178L131.781 24.947C131.37 24.9818 130.941 24.9997 130.5 24.9997C130.059 24.9997 129.63 24.9818 129.219 24.947L128.997 24.9258C128.999 24.9502 129 24.9748 129 24.9996V26.2965C129.477 26.3558 129.98 26.3866 130.495 26.3866C131.513 26.3866 132.726 26.2698 133.568 26.0902C133.652 25.5424 133.809 25.019 134.03 24.5304ZM133.504 27.2338C132.618 27.3989 131.475 27.5 130.495 27.5C129.98 27.5 129.476 27.4713 128.993 27.4154L128.994 27.4251L128.996 27.4347L128.997 27.4415L129 27.4998V28.8026C129.471 28.8604 129.967 28.8904 130.475 28.8904C131.576 28.8904 132.924 28.7563 133.706 28.5634C133.591 28.1371 133.522 27.692 133.504 27.2338ZM126 15.2858V14.2228C126.482 14.4667 127.116 14.6569 127.854 14.788L128.135 14.8344C128.231 14.8489 128.327 14.8625 128.426 14.8752L128.725 14.9103C128.877 14.9265 129.031 14.9405 129.189 14.9523L129.507 14.9731L129.832 14.988C129.887 14.99 129.942 14.9917 129.997 14.9932L130.331 14.9992C130.387 14.9997 130.443 15 130.5 15L130.669 14.9992L131.003 14.9932C131.058 14.9917 131.113 14.99 131.168 14.988L131.493 14.9731L131.811 14.9523C131.969 14.9405 132.123 14.9265 132.275 14.9103L132.574 14.8752C132.623 14.8689 132.672 14.8623 132.721 14.8555L133.007 14.8119C133.805 14.6804 134.488 14.4819 135 14.2228V15.2858L134.997 15.3164C134.957 15.4959 134.581 15.7825 133.873 16.025C132.998 16.3253 131.792 16.5001 130.5 16.5001C129.208 16.5001 128.002 16.3253 127.127 16.025C126.378 15.7683 126 15.4621 126 15.2858ZM126.386 13.336C126.138 13.219 126 13.1021 126 13.0002C126 12.8982 126.138 12.7814 126.386 12.6644L126.519 12.606C126.567 12.5865 126.617 12.5671 126.67 12.5479L126.837 12.4906C126.896 12.4717 126.957 12.453 127.021 12.4345L127.219 12.3801C127.254 12.3711 127.289 12.3623 127.324 12.3535L127.544 12.3022C127.619 12.2855 127.697 12.2693 127.777 12.2535L128.022 12.2079L128.28 12.1657C128.323 12.159 128.368 12.1524 128.412 12.146L128.685 12.1097L128.968 12.0779L129.26 12.0509C129.359 12.0428 129.459 12.0356 129.56 12.0293L129.867 12.0133L130.181 12.0034C130.233 12.0023 130.286 12.0014 130.34 12.0009L130.5 12C130.607 12 130.714 12.0012 130.819 12.0034L131.133 12.0133L131.44 12.0293C131.541 12.0356 131.641 12.0428 131.74 12.0509L132.032 12.0779L132.315 12.1097L132.588 12.146L132.85 12.1863C132.893 12.1934 132.936 12.2006 132.978 12.2079L133.223 12.2535C133.263 12.2614 133.302 12.2694 133.341 12.2775L133.568 12.3276C133.641 12.3447 133.712 12.3622 133.781 12.3801L133.979 12.4345C134.011 12.4438 134.042 12.453 134.073 12.4624L134.248 12.5191C134.332 12.5478 134.41 12.5768 134.481 12.606L134.614 12.6644C134.862 12.7814 135 12.8982 135 13.0002C135 13.1021 134.862 13.219 134.614 13.336L134.481 13.3944C134.433 13.4139 134.383 13.4332 134.33 13.4525L134.163 13.5098C134.104 13.5287 134.043 13.5474 133.979 13.5658L133.781 13.6203C133.746 13.6293 133.711 13.6381 133.676 13.6468L133.456 13.6981C133.381 13.7148 133.303 13.7311 133.223 13.7468L132.978 13.7925L132.72 13.8347C132.677 13.8414 132.632 13.848 132.588 13.8544L132.315 13.8907L132.032 13.9225L131.74 13.9494C131.641 13.9576 131.541 13.9648 131.44 13.9711L131.133 13.9871L130.819 13.997C130.714 13.9992 130.607 14.0004 130.5 14.0004C130.393 14.0004 130.286 13.9992 130.181 13.997L129.867 13.9871L129.56 13.9711C129.459 13.9648 129.359 13.9576 129.26 13.9494L128.968 13.9225L128.685 13.8907L128.412 13.8544L128.15 13.814C128.107 13.807 128.064 13.7998 128.022 13.7925L127.777 13.7468C127.737 13.739 127.698 13.731 127.659 13.7228L127.432 13.6728C127.359 13.6557 127.288 13.6382 127.219 13.6203L127.021 13.5658C126.989 13.5566 126.958 13.5473 126.927 13.538L126.752 13.4812C126.668 13.4526 126.59 13.4236 126.519 13.3944L126.386 13.336ZM126 17.7858V16.6218C126.582 16.9496 127.387 17.1943 128.326 17.341L128.616 17.3827C128.714 17.3956 128.813 17.4074 128.913 17.4182L129.219 17.4475C129.63 17.4823 130.059 17.5002 130.5 17.5002C130.941 17.5002 131.37 17.4823 131.781 17.4475L132.087 17.4182C132.187 17.4074 132.286 17.3956 132.384 17.3827L132.674 17.341C133.613 17.1943 134.418 16.9496 135 16.6218V17.7858L134.997 17.8164C134.957 17.9959 134.581 18.2825 133.873 18.525C132.998 18.8253 131.792 19.0001 130.5 19.0001C129.208 19.0001 128.002 18.8253 127.127 18.525C126.378 18.2683 126 17.9621 126 17.7858ZM128 28.6215C127.418 28.9493 126.613 29.194 125.674 29.3408L125.384 29.3824C125.286 29.3953 125.187 29.4071 125.087 29.4179L124.781 29.4472C124.37 29.482 123.941 29.4999 123.5 29.4999C123.059 29.4999 122.63 29.482 122.219 29.4472L121.913 29.4179C121.813 29.4071 121.714 29.3953 121.616 29.3824L121.326 29.3408C120.387 29.194 119.582 28.9493 119 28.6215V29.7856C119 29.9619 119.378 30.2681 120.127 30.5248C121.002 30.8251 122.208 30.9999 123.5 30.9999C124.792 30.9999 125.998 30.8251 126.873 30.5248C127.581 30.2823 127.957 29.9957 127.997 29.8162L128 29.7856V28.6215ZM126 19.1218C126.582 19.4496 127.387 19.6943 128.326 19.841L128.616 19.8827C128.714 19.8956 128.813 19.9074 128.913 19.9182L129.219 19.9475C129.63 19.9823 130.059 20.0002 130.5 20.0002C130.941 20.0002 131.37 19.9823 131.781 19.9475L132.087 19.9182C132.187 19.9074 132.286 19.8956 132.384 19.8827L132.674 19.841C133.613 19.6943 134.418 19.4496 135 19.1218V20.2858L134.997 20.3164C134.957 20.4959 134.581 20.7825 133.873 21.025C132.998 21.3253 131.792 21.5001 130.5 21.5001C129.208 21.5001 128.002 21.3253 127.127 21.025C126.378 20.7683 126 20.4621 126 20.2858V19.1218ZM135 22.7854V21.6218C134.418 21.9496 133.613 22.1943 132.674 22.341L132.384 22.3827C132.286 22.3956 132.187 22.4074 132.087 22.4182L131.781 22.4475C131.37 22.4823 130.941 22.5002 130.5 22.5002C130.059 22.5002 129.63 22.4823 129.219 22.4475L128.913 22.4182C128.813 22.4074 128.714 22.3956 128.616 22.3827L128.326 22.341C127.387 22.1943 126.582 21.9496 126 21.6218V22.7854C126 22.9114 126.193 23.1038 126.577 23.297C127.105 23.4146 127.567 23.5657 127.943 23.748C128.691 23.9097 129.573 23.9997 130.5 23.9997C131.792 23.9997 132.998 23.8248 133.873 23.5246C134.581 23.2821 134.957 22.9955 134.997 22.8159L135 22.7854ZM127.749 24.7346C127.19 24.6153 126.693 24.4575 126.281 24.2651C126.262 24.2612 126.242 24.2574 126.223 24.2535L125.978 24.2079C125.936 24.2006 125.893 24.1934 125.85 24.1863L125.588 24.146L125.315 24.1097L125.032 24.0779L124.74 24.0509C124.641 24.0428 124.541 24.0356 124.44 24.0293L124.133 24.0133L123.819 24.0034C123.714 24.0012 123.607 24 123.5 24L123.34 24.0009C123.286 24.0014 123.233 24.0023 123.181 24.0034L122.867 24.0133L122.56 24.0293C122.459 24.0356 122.359 24.0428 122.26 24.0509L121.968 24.0779L121.685 24.1097L121.412 24.146C121.368 24.1524 121.323 24.159 121.28 24.1657L121.022 24.2079L120.777 24.2535C120.697 24.2693 120.619 24.2855 120.544 24.3022L120.324 24.3535C120.289 24.3623 120.254 24.3711 120.219 24.3801L120.021 24.4345C119.957 24.453 119.896 24.4717 119.837 24.4906L119.67 24.5479C119.617 24.5671 119.567 24.5865 119.519 24.606L119.386 24.6644C119.138 24.7814 119 24.8982 119 25.0002C119 25.1021 119.138 25.219 119.386 25.336L119.519 25.3944C119.59 25.4236 119.668 25.4526 119.752 25.4812L119.927 25.538C119.958 25.5473 119.989 25.5566 120.021 25.5658L120.219 25.6203C120.288 25.6382 120.359 25.6557 120.432 25.6728L120.659 25.7228C120.698 25.731 120.737 25.739 120.777 25.7468L121.022 25.7925C121.064 25.7998 121.107 25.807 121.15 25.814L121.412 25.8544L121.685 25.8907L121.968 25.9225L122.26 25.9494C122.359 25.9576 122.459 25.9648 122.56 25.9711L122.867 25.9871L123.181 25.997C123.286 25.9992 123.393 26.0004 123.5 26.0004C123.607 26.0004 123.714 25.9992 123.819 25.997L124.133 25.9871L124.44 25.9711C124.541 25.9648 124.641 25.9576 124.74 25.9494L125.032 25.9225L125.315 25.8907L125.588 25.8544C125.632 25.848 125.677 25.8414 125.72 25.8347L125.978 25.7925L126.223 25.7468C126.303 25.7311 126.381 25.7148 126.456 25.6981L126.676 25.6468C126.711 25.6381 126.746 25.6293 126.781 25.6203L126.979 25.5658C127.043 25.5474 127.104 25.5287 127.163 25.5098L127.33 25.4525C127.383 25.4332 127.433 25.4139 127.481 25.3944L127.614 25.336C127.862 25.219 128 25.1021 128 25.0002C128 24.9187 127.912 24.8276 127.749 24.7346ZM128 27.2855V26.2228C127.488 26.4819 126.805 26.6804 126.007 26.8119L125.721 26.8555C125.672 26.8623 125.623 26.8689 125.574 26.8752L125.275 26.9103C125.123 26.9265 124.969 26.9405 124.811 26.9523L124.493 26.9731L124.168 26.988C124.113 26.99 124.058 26.9917 124.003 26.9932L123.669 26.9992L123.5 27C123.443 27 123.387 26.9997 123.331 26.9992L122.997 26.9932C122.942 26.9917 122.887 26.99 122.832 26.988L122.507 26.9731L122.189 26.9523C122.031 26.9405 121.877 26.9265 121.725 26.9103L121.426 26.8752C121.327 26.8625 121.231 26.8489 121.135 26.8344L120.854 26.788C120.116 26.6569 119.482 26.4667 119 26.2228V27.2855C119 27.4618 119.378 27.768 120.127 28.0248C121.002 28.325 122.208 28.4998 123.5 28.4998C124.792 28.4998 125.998 28.325 126.873 28.0248C127.581 27.7822 127.957 27.4956 127.997 27.3161L128 27.2855ZM139.5 21.9996C142.261 21.9996 144.5 24.2383 144.5 26.9998C144.5 29.7613 142.261 32 139.5 32C136.739 32 134.5 29.7613 134.5 26.9998C134.5 24.2383 136.739 21.9996 139.5 21.9996Z" fill="#BCABFF"/>
<path d="M142.711 20.0466C142.46 19.9303 142.163 20.0391 142.047 20.2895C141.93 20.54 142.039 20.8373 142.29 20.9536C144.532 21.9949 146 24.1775 146 26.5003C146 26.7765 146.224 27.0004 146.5 27.0004C146.776 27.0004 147 26.7765 147 26.5003C147 23.7785 145.298 21.248 142.711 20.0466Z" fill="#BCABFF"/>
<rect x="57" y="183" width="149" height="30" rx="15" fill="#6B48F4"/>
<rect y="76" width="263" height="30" rx="15" fill="#BCABFF"/>
<rect x="81" y="218" width="101" height="30" rx="15" fill="#BCABFF"/>
<path d="M127.657 142.579C127.072 142.386 126.467 142.547 125.868 143.011L125.837 143.036L125.746 143.03C124.901 142.991 124.222 143.178 123.732 143.613L123.648 143.693C123.109 144.228 123.047 144.98 123.393 145.886L123.447 146.021L123.187 146.537L123.108 146.542C121.809 146.645 121.048 147.281 121.002 148.406L121 148.517C121 149.637 121.674 150.299 122.863 150.465L123 150.482V151C123 151.256 123.193 151.468 123.442 151.497L123.5 151.5C123.756 151.5 123.968 151.307 123.997 151.058L124 151V150.007C124 149.731 123.776 149.507 123.5 149.507C122.416 149.507 122 149.197 122 148.517C122 147.837 122.416 147.527 123.5 147.527C123.668 147.527 123.823 147.443 123.915 147.306L123.947 147.252L124.447 146.259C124.516 146.121 124.518 145.958 124.451 145.819C124.104 145.091 124.104 144.649 124.352 144.402C124.66 144.097 125.18 143.968 125.948 144.048C126.088 144.063 126.227 144.018 126.332 143.925C126.754 143.55 127.08 143.442 127.343 143.529C127.655 143.632 127.881 143.856 128.038 144.238C128.143 144.493 128.435 144.615 128.69 144.51C128.946 144.405 129.067 144.113 128.962 143.857C128.699 143.216 128.258 142.778 127.657 142.579Z" fill="#6B48F4"/>
<path d="M122.003 166.801C122.043 166.339 122.455 166 122.929 166H124.5L124.558 166.003C124.807 166.032 125 166.244 125 166.5L124.997 166.558C124.968 166.807 124.757 167 124.5 167H123V169H124.5L124.558 169.003C124.807 169.032 125 169.244 125 169.5C125 169.776 124.776 170 124.5 170H122.929L122.854 169.997C122.388 169.962 122 169.599 122 169.125V166.875L122.003 166.801Z" fill="#6B48F4"/>
<path d="M130.997 166.801C130.957 166.339 130.546 166 130.072 166H128.5L128.442 166.003C128.193 166.032 128 166.244 128 166.5L128.003 166.558C128.032 166.807 128.244 167 128.5 167H130V169H128.5L128.442 169.003C128.193 169.032 128 169.244 128 169.5C128 169.776 128.224 170 128.5 170H130.072L130.146 169.997C130.613 169.962 131 169.599 131 169.125V166.875L130.997 166.801Z" fill="#6B48F4"/>
<path d="M133.589 143.462C133.822 142.823 134.505 142.5 135.5 142.5L135.615 142.502C136.631 142.538 137.275 143.055 137.451 143.959L137.458 144H138L138.145 144.001C139.962 144.034 141 144.69 141 146L140.998 146.102C140.949 147.243 140.075 147.862 138.561 147.979L138.428 147.988L138.412 148.038C138.178 148.677 137.495 149 136.5 149L136.375 148.999C135.879 148.993 135.473 148.946 135.163 148.84L135.107 148.929C134.64 149.631 133.925 150 133 150L132.875 149.998C132.093 149.969 131.469 149.666 131.026 149.11L130.992 149.161C130.612 149.707 130.114 150 129.5 150L129.354 149.998C128.97 149.984 128.626 149.919 128.327 149.798L128.318 149.794L127.985 151.121L127.968 151.177C127.88 151.411 127.628 151.547 127.379 151.485C127.111 151.418 126.948 151.147 127.015 150.879L127.515 148.879L127.533 148.821C127.658 148.489 128.093 148.386 128.354 148.646L128.409 148.698C128.641 148.894 128.998 149 129.5 149C129.913 149 130.253 148.66 130.526 147.842C130.678 147.386 131.323 147.386 131.475 147.842C131.741 148.641 132.219 149 133 149C133.781 149 134.259 148.641 134.526 147.842L134.547 147.787C134.737 147.366 135.342 147.43 135.475 147.833L135.488 147.884L135.517 147.895L135.594 147.919C135.789 147.971 136.094 148 136.5 148C137.257 148 137.5 147.838 137.5 147.5C137.5 147.224 137.724 147 138 147C139.427 147 140 146.656 140 146C140 145.344 139.427 145 138 145H137L136.942 144.997C136.693 144.968 136.5 144.756 136.5 144.5C136.5 143.776 136.224 143.5 135.5 143.5C134.744 143.5 134.5 143.662 134.5 144L134.497 144.058C134.468 144.307 134.257 144.5 134 144.5C133.244 144.5 133 144.662 133 145L132.997 145.058C132.968 145.307 132.757 145.5 132.5 145.5C132.224 145.5 132 145.276 132 145L132.003 144.902C132.045 144.1 132.605 143.639 133.529 143.527L133.569 143.523L133.589 143.462Z" fill="#6B48F4"/>
<path fill-rule="evenodd" clip-rule="evenodd" d="M128.5 150.5H122.5C122.224 150.5 122 150.724 122 151V152.5C122 153.051 122.446 153.498 122.997 153.5L122.052 162H119C118.473 162 118.041 162.408 118.003 162.925L118 163V164C118 164.527 118.408 164.959 118.925 164.997L119 165V173H117.5L117.442 173.003C117.193 173.032 117 173.244 117 173.5C117 173.776 117.224 174 117.5 174H136.5L136.558 173.997C136.807 173.968 137 173.756 137 173.5C137 173.224 136.776 173 136.5 173H134V160H143V162H138.5L138.442 162.003C138.193 162.032 138 162.244 138 162.5C138 162.776 138.224 163 138.5 163H143V164.5L143.003 164.558C143.032 164.807 143.244 165 143.5 165C143.776 165 144 164.776 144 164.5V160H145C145.552 160 146 159.552 146 159V158C146 157.448 145.552 157 145 157H143.95C143.725 155.893 142.769 155.052 141.608 155.002L141.5 155H135.5C134.291 155 133.282 155.859 133.05 157H132C131.448 157 131 157.448 131 158V159C131 159.552 131.448 160 132 160H133V162H123.059L123.997 153.555L124 153.5H127C127 153.518 127.001 153.537 127.003 153.555L127.164 155H125.5L125.442 155.003C125.193 155.032 125 155.244 125 155.5C125 155.776 125.224 156 125.5 156H127.275L127.386 157H126.5L126.442 157.003C126.193 157.032 126 157.244 126 157.5C126 157.776 126.224 158 126.5 158H127.497L127.78 160.551L127.79 160.608C127.846 160.852 128.078 161.021 128.333 160.993C128.607 160.962 128.805 160.715 128.774 160.44L128.003 153.5C128.554 153.498 129 153.051 129 152.5V151C129 150.724 128.776 150.5 128.5 150.5ZM141.5 156C142.153 156 142.709 156.417 142.915 157H134.085C134.282 156.444 134.797 156.038 135.412 156.003L135.5 156H141.5ZM132 158V159H145V158H132ZM122.494 163C122.498 163 122.503 163 122.507 163H133V171H132.5L132.442 171.003C132.193 171.032 132 171.244 132 171.5C132 171.776 132.224 172 132.5 172H133V173H120V172H130.5L130.558 171.997C130.807 171.968 131 171.756 131 171.5C131 171.224 130.776 171 130.5 171H120V165H130.5C130.776 165 131 164.776 131 164.5C131 164.244 130.807 164.032 130.558 164.003L130.5 164H119V163H122.494ZM128 151.5H123V152.5H128V151.5Z" fill="#6B48F4"/>
<path d="M147 173.5C147 173.224 146.776 173 146.5 173H144V166.5L143.997 166.442C143.968 166.193 143.756 166 143.5 166C143.224 166 143 166.224 143 166.5V168H138.5L138.442 168.003C138.193 168.032 138 168.244 138 168.5C138 168.776 138.224 169 138.5 169H143V173H139.5L139.442 173.003C139.193 173.032 139 173.244 139 173.5C139 173.776 139.224 174 139.5 174H146.5L146.558 173.997C146.807 173.968 147 173.756 147 173.5Z" fill="#6B48F4"/>
<path d="M141.5 175C141.776 175 142 175.224 142 175.5C142 175.756 141.807 175.968 141.558 175.997L141.5 176H121.5C121.224 176 121 175.776 121 175.5C121 175.244 121.193 175.032 121.442 175.003L121.5 175H141.5Z" fill="#6B48F4"/>
<path d="M139 164.5C139 164.224 138.776 164 138.5 164H135.5L135.442 164.003C135.193 164.032 135 164.244 135 164.5C135 164.776 135.224 165 135.5 165H138.5L138.558 164.997C138.807 164.968 139 164.756 139 164.5Z" fill="#6B48F4"/>
<rect x="37" y="41" width="190" height="30" rx="15" fill="#6B48F4"/>
<path d="M83.2445 86.36C81.4805 86.36 80.5085 87.392 80.5085 88.592C80.5085 89.396 80.9165 90.056 81.6965 90.416C80.6765 90.812 80.1245 91.616 80.1245 92.66C80.1245 94.124 81.2645 95.24 83.2445 95.24C85.2365 95.24 86.3645 94.124 86.3645 92.66C86.3645 91.616 85.8125 90.812 84.8045 90.416C85.5725 90.056 85.9805 89.396 85.9805 88.592C85.9805 87.392 85.0205 86.36 83.2445 86.36ZM83.2685 89.924C82.4165 89.924 81.8645 89.444 81.8645 88.712C81.8645 87.992 82.4045 87.5 83.2685 87.5C84.0725 87.5 84.6245 87.992 84.6245 88.712C84.6245 89.444 84.0725 89.924 83.2685 89.924ZM83.2565 94.088C82.1765 94.088 81.4805 93.5 81.4805 92.6C81.4805 91.688 82.1765 91.052 83.2565 91.052C84.3125 91.052 85.0085 91.688 85.0085 92.6C85.0085 93.488 84.3125 94.088 83.2565 94.088ZM89.0892 95L93.3252 87.788V86.6L87.3972 86.6V87.788H91.9212L87.5772 95H89.0892ZM99.5069 86.336C98.2829 86.336 97.4669 87.236 97.4669 88.34C97.4669 89.444 98.2829 90.344 99.5069 90.344C100.707 90.344 101.535 89.444 101.535 88.34C101.535 87.236 100.707 86.336 99.5069 86.336ZM98.2709 94.988H99.5549L105.711 86.588H104.427L98.2709 94.988ZM99.5069 89.492C98.8709 89.492 98.4149 89 98.4149 88.34C98.4149 87.68 98.8709 87.188 99.5069 87.188C100.131 87.188 100.587 87.68 100.587 88.34C100.587 88.988 100.131 89.492 99.5069 89.492ZM104.499 91.22C103.275 91.22 102.459 92.12 102.459 93.224C102.459 94.328 103.275 95.228 104.499 95.228C105.699 95.228 106.527 94.328 106.527 93.224C106.527 92.12 105.699 91.22 104.499 91.22ZM104.499 94.376C103.863 94.376 103.407 93.884 103.407 93.224C103.407 92.564 103.863 92.072 104.499 92.072C105.123 92.072 105.579 92.564 105.579 93.224C105.579 93.872 105.123 94.376 104.499 94.376ZM110.723 91.976C110.723 93.74 111.911 95.24 113.819 95.24C114.683 95.24 115.331 94.928 115.835 94.388V95H117.095V86H115.835V89.564C115.331 89.024 114.683 88.712 113.819 88.712C111.911 88.712 110.723 90.212 110.723 91.976ZM112.031 91.976C112.031 90.788 112.811 89.876 113.975 89.876C114.731 89.876 115.391 90.224 115.835 90.884V93.068C115.427 93.704 114.755 94.076 113.975 94.076C112.811 94.076 112.031 93.164 112.031 91.976ZM124.55 94.016L123.65 93.296C123.278 93.8 122.666 94.124 121.934 94.124C120.77 94.124 119.966 93.44 119.882 92.12H124.346C124.394 91.94 124.43 91.664 124.43 91.388C124.43 89.852 123.35 88.712 121.682 88.712C119.762 88.712 118.61 90.164 118.61 91.976C118.61 93.74 119.846 95.24 121.934 95.24C123.062 95.24 123.986 94.772 124.55 94.016ZM121.658 89.744C122.63 89.744 123.17 90.44 123.194 91.196H119.942C120.134 90.26 120.758 89.744 121.658 89.744ZM125.381 94.148C125.945 94.832 126.701 95.24 127.721 95.24C128.849 95.24 129.809 94.532 129.821 93.344C129.821 91.268 126.857 91.676 126.857 90.464C126.857 90.056 127.145 89.72 127.721 89.72C128.225 89.72 128.645 90.02 128.969 90.452L129.809 89.72C129.377 89.144 128.597 88.712 127.709 88.712C126.497 88.712 125.657 89.504 125.657 90.5C125.657 92.636 128.621 92.192 128.621 93.416C128.621 93.872 128.297 94.232 127.709 94.232C127.109 94.232 126.629 93.908 126.233 93.404L125.381 94.148ZM134.606 95H135.842V90.92C136.166 90.392 136.646 89.876 137.474 89.876C138.338 89.876 138.866 90.452 138.866 91.412V95H140.114V91.364C140.114 89.612 139.106 88.712 137.762 88.712C136.898 88.712 136.298 89.06 135.842 89.54V86H134.606V95ZM144.843 88.712C142.887 88.712 141.555 90.188 141.555 91.976C141.555 93.764 142.887 95.24 144.843 95.24C146.811 95.24 148.131 93.764 148.131 91.976C148.131 90.188 146.811 88.712 144.843 88.712ZM144.855 94.076C143.691 94.076 142.851 93.14 142.851 91.976C142.851 90.812 143.691 89.876 144.855 89.876C145.995 89.876 146.835 90.8 146.835 91.976C146.835 93.128 145.995 94.076 144.855 94.076ZM149.676 95H150.912V90.92C151.2 90.404 151.656 89.876 152.424 89.876C153.216 89.876 153.696 90.404 153.696 91.292V95H154.944V91.244C154.944 91.124 154.944 91.016 154.932 90.908C155.256 90.332 155.724 89.876 156.444 89.876C157.224 89.876 157.716 90.404 157.716 91.292V95H158.964V91.244C158.964 89.576 157.992 88.712 156.732 88.712C155.688 88.712 155.088 89.204 154.62 89.804C154.236 89.084 153.54 88.712 152.712 88.712C151.908 88.712 151.344 89.048 150.912 89.516V88.952H149.676V95ZM160.879 95H162.115V90.92C162.403 90.404 162.859 89.876 163.627 89.876C164.419 89.876 164.899 90.404 164.899 91.292V95H166.147V91.244C166.147 91.124 166.147 91.016 166.135 90.908C166.459 90.332 166.927 89.876 167.647 89.876C168.427 89.876 168.919 90.404 168.919 91.292V95H170.167V91.244C170.167 89.576 169.195 88.712 167.935 88.712C166.891 88.712 166.291 89.204 165.823 89.804C165.439 89.084 164.743 88.712 163.915 88.712C163.111 88.712 162.547 89.048 162.115 89.516V88.952H160.879V95ZM177.542 94.016L176.642 93.296C176.27 93.8 175.658 94.124 174.926 94.124C173.762 94.124 172.958 93.44 172.874 92.12H177.338C177.386 91.94 177.422 91.664 177.422 91.388C177.422 89.852 176.342 88.712 174.674 88.712C172.754 88.712 171.602 90.164 171.602 91.976C171.602 93.74 172.838 95.24 174.926 95.24C176.054 95.24 176.978 94.772 177.542 94.016ZM174.65 89.744C175.622 89.744 176.162 90.44 176.186 91.196H172.934C173.126 90.26 173.75 89.744 174.65 89.744ZM178.373 94.148C178.937 94.832 179.693 95.24 180.713 95.24C181.841 95.24 182.801 94.532 182.813 93.344C182.813 91.268 179.849 91.676 179.849 90.464C179.849 90.056 180.137 89.72 180.713 89.72C181.217 89.72 181.637 90.02 181.961 90.452L182.801 89.72C182.369 89.144 181.589 88.712 180.701 88.712C179.489 88.712 178.649 89.504 178.649 90.5C178.649 92.636 181.613 92.192 181.613 93.416C181.613 93.872 181.289 94.232 180.701 94.232C180.101 94.232 179.621 93.908 179.225 93.404L178.373 94.148Z" fill="black"/>
<path d="M100.452 237H106.152V235.812H102.048L104.244 233.64C105.18 232.692 105.924 231.828 105.924 230.688C105.924 229.284 104.784 228.36 103.356 228.36C101.976 228.36 100.992 229.032 100.296 230.124L101.376 230.784C101.844 230.004 102.384 229.536 103.236 229.536C104.004 229.536 104.58 229.992 104.58 230.796C104.58 231.588 104.148 232.056 103.308 232.92L100.452 235.812V237ZM106.737 234.66H110.793V237H112.101V234.66H113.025V233.472H112.101V228.6H110.541L106.737 233.472V234.66ZM108.117 233.472L110.793 230.052V233.472H108.117ZM119.171 228.336C117.947 228.336 117.131 229.236 117.131 230.34C117.131 231.444 117.947 232.344 119.171 232.344C120.371 232.344 121.199 231.444 121.199 230.34C121.199 229.236 120.371 228.336 119.171 228.336ZM117.935 236.988H119.219L125.375 228.588H124.091L117.935 236.988ZM119.171 231.492C118.535 231.492 118.079 231 118.079 230.34C118.079 229.68 118.535 229.188 119.171 229.188C119.795 229.188 120.251 229.68 120.251 230.34C120.251 230.988 119.795 231.492 119.171 231.492ZM124.163 233.22C122.939 233.22 122.123 234.12 122.123 235.224C122.123 236.328 122.939 237.228 124.163 237.228C125.363 237.228 126.191 236.328 126.191 235.224C126.191 234.12 125.363 233.22 124.163 233.22ZM124.163 236.376C123.527 236.376 123.071 235.884 123.071 235.224C123.071 234.564 123.527 234.072 124.163 234.072C124.787 234.072 125.243 234.564 125.243 235.224C125.243 235.872 124.787 236.376 124.163 236.376ZM130.387 233.976C130.387 235.74 131.575 237.24 133.483 237.24C134.347 237.24 134.995 236.928 135.499 236.388V237H136.759V228L135.499 228V231.564C134.995 231.024 134.347 230.712 133.483 230.712C131.575 230.712 130.387 232.212 130.387 233.976ZM131.695 233.976C131.695 232.788 132.475 231.876 133.639 231.876C134.395 231.876 135.055 232.224 135.499 232.884V235.068C135.091 235.704 134.419 236.076 133.639 236.076C132.475 236.076 131.695 235.164 131.695 233.976ZM144.214 236.016L143.314 235.296C142.942 235.8 142.33 236.124 141.598 236.124C140.434 236.124 139.63 235.44 139.546 234.12H144.01C144.058 233.94 144.094 233.664 144.094 233.388C144.094 231.852 143.014 230.712 141.346 230.712C139.426 230.712 138.274 232.164 138.274 233.976C138.274 235.74 139.51 237.24 141.598 237.24C142.726 237.24 143.65 236.772 144.214 236.016ZM141.322 231.744C142.294 231.744 142.834 232.44 142.858 233.196H139.606C139.798 232.26 140.422 231.744 141.322 231.744ZM145.045 236.148C145.609 236.832 146.365 237.24 147.385 237.24C148.513 237.24 149.473 236.532 149.485 235.344C149.485 233.268 146.521 233.676 146.521 232.464C146.521 232.056 146.809 231.72 147.385 231.72C147.889 231.72 148.309 232.02 148.633 232.452L149.473 231.72C149.041 231.144 148.261 230.712 147.373 230.712C146.161 230.712 145.321 231.504 145.321 232.5C145.321 234.636 148.285 234.192 148.285 235.416C148.285 235.872 147.961 236.232 147.373 236.232C146.773 236.232 146.293 235.908 145.897 235.404L145.045 236.148ZM154.558 237H155.926V233.352H160.654V237H162.034V228.6H160.654V232.092H155.926V228.6H154.558V237Z" fill="black"/>
<path d="M85.9165 51.36C83.4445 51.36 82.3645 53.22 82.3645 55.896C82.3645 58.752 83.5885 60.24 85.6525 60.24C87.5125 60.24 88.6165 58.932 88.6165 57.384C88.6165 55.884 87.5485 54.696 85.9285 54.696C85.0405 54.696 84.2965 54.996 83.7325 55.548C83.8045 53.652 84.5245 52.56 85.9045 52.56C86.6365 52.56 87.1645 52.92 87.6325 53.58L88.6645 52.764C88.1005 51.96 87.2485 51.36 85.9165 51.36ZM85.7125 55.872C86.6125 55.872 87.2605 56.544 87.2605 57.432C87.2605 58.344 86.6485 59.04 85.6285 59.04C84.6685 59.04 83.9605 58.44 83.7685 56.856C84.2365 56.196 84.9325 55.872 85.7125 55.872ZM93.0415 51.36C90.5695 51.36 89.4895 53.22 89.4895 55.896C89.4895 58.752 90.7135 60.24 92.7775 60.24C94.6375 60.24 95.7415 58.932 95.7415 57.384C95.7415 55.884 94.6735 54.696 93.0535 54.696C92.1655 54.696 91.4215 54.996 90.8575 55.548C90.9295 53.652 91.6495 52.56 93.0295 52.56C93.7615 52.56 94.2895 52.92 94.7575 53.58L95.7895 52.764C95.2255 51.96 94.3735 51.36 93.0415 51.36ZM92.8375 55.872C93.7375 55.872 94.3855 56.544 94.3855 57.432C94.3855 58.344 93.7735 59.04 92.7535 59.04C91.7935 59.04 91.0855 58.44 90.8935 56.856C91.3615 56.196 92.0575 55.872 92.8375 55.872ZM101.911 51.336C100.687 51.336 99.8712 52.236 99.8712 53.34C99.8712 54.444 100.687 55.344 101.911 55.344C103.111 55.344 103.939 54.444 103.939 53.34C103.939 52.236 103.111 51.336 101.911 51.336ZM100.675 59.988H101.959L108.115 51.588H106.831L100.675 59.988ZM101.911 54.492C101.275 54.492 100.819 54 100.819 53.34C100.819 52.68 101.275 52.188 101.911 52.188C102.535 52.188 102.991 52.68 102.991 53.34C102.991 53.988 102.535 54.492 101.911 54.492ZM106.903 56.22C105.679 56.22 104.863 57.12 104.863 58.224C104.863 59.328 105.679 60.228 106.903 60.228C108.103 60.228 108.931 59.328 108.931 58.224C108.931 57.12 108.103 56.22 106.903 56.22ZM106.903 59.376C106.267 59.376 105.811 58.884 105.811 58.224C105.811 57.564 106.267 57.072 106.903 57.072C107.527 57.072 107.983 57.564 107.983 58.224C107.983 58.872 107.527 59.376 106.903 59.376ZM113.128 56.976C113.128 58.74 114.316 60.24 116.224 60.24C117.088 60.24 117.736 59.928 118.24 59.388V60H119.5V51H118.24V54.564C117.736 54.024 117.088 53.712 116.224 53.712C114.316 53.712 113.128 55.212 113.128 56.976ZM114.436 56.976C114.436 55.788 115.216 54.876 116.38 54.876C117.136 54.876 117.796 55.224 118.24 55.884V58.068C117.832 58.704 117.16 59.076 116.38 59.076C115.216 59.076 114.436 58.164 114.436 56.976ZM126.954 59.016L126.054 58.296C125.682 58.8 125.07 59.124 124.338 59.124C123.174 59.124 122.37 58.44 122.286 57.12H126.75C126.798 56.94 126.834 56.664 126.834 56.388C126.834 54.852 125.754 53.712 124.086 53.712C122.166 53.712 121.014 55.164 121.014 56.976C121.014 58.74 122.25 60.24 124.338 60.24C125.466 60.24 126.39 59.772 126.954 59.016ZM124.062 54.744C125.034 54.744 125.574 55.44 125.598 56.196H122.346C122.538 55.26 123.162 54.744 124.062 54.744ZM127.785 59.148C128.349 59.832 129.105 60.24 130.125 60.24C131.253 60.24 132.213 59.532 132.225 58.344C132.225 56.268 129.261 56.676 129.261 55.464C129.261 55.056 129.549 54.72 130.125 54.72C130.629 54.72 131.049 55.02 131.373 55.452L132.213 54.72C131.781 54.144 131.001 53.712 130.113 53.712C128.901 53.712 128.061 54.504 128.061 55.5C128.061 57.636 131.025 57.192 131.025 58.416C131.025 58.872 130.701 59.232 130.113 59.232C129.513 59.232 129.033 58.908 128.637 58.404L127.785 59.148ZM136.23 53.952V55.068H137.37V60H138.618V55.068H140.622V53.952H138.618V53.22C138.618 52.536 139.026 52.116 139.638 52.116C139.974 52.116 140.238 52.224 140.442 52.38L140.97 51.336C140.622 51.144 140.166 51 139.614 51C138.21 51 137.37 51.972 137.37 53.256V53.952H136.23ZM146.923 59.016L146.023 58.296C145.651 58.8 145.039 59.124 144.307 59.124C143.143 59.124 142.339 58.44 142.255 57.12H146.719C146.767 56.94 146.803 56.664 146.803 56.388C146.803 54.852 145.723 53.712 144.055 53.712C142.135 53.712 140.983 55.164 140.983 56.976C140.983 58.74 142.219 60.24 144.307 60.24C145.435 60.24 146.359 59.772 146.923 59.016ZM144.031 54.744C145.003 54.744 145.543 55.44 145.567 56.196H142.315C142.507 55.26 143.131 54.744 144.031 54.744ZM148.424 60H149.66V55.92C149.948 55.404 150.404 54.876 151.172 54.876C151.964 54.876 152.444 55.404 152.444 56.292V60H153.692V56.244C153.692 56.124 153.692 56.016 153.68 55.908C154.004 55.332 154.472 54.876 155.192 54.876C155.972 54.876 156.464 55.404 156.464 56.292V60H157.712V56.244C157.712 54.576 156.74 53.712 155.48 53.712C154.436 53.712 153.836 54.204 153.368 54.804C152.984 54.084 152.288 53.712 151.46 53.712C150.656 53.712 150.092 54.048 149.66 54.516V53.952H148.424V60ZM159.627 60H160.863V55.92C161.151 55.404 161.607 54.876 162.375 54.876C163.167 54.876 163.647 55.404 163.647 56.292V60H164.895V56.244C164.895 56.124 164.895 56.016 164.883 55.908C165.207 55.332 165.675 54.876 166.395 54.876C167.175 54.876 167.667 55.404 167.667 56.292V60H168.915V56.244C168.915 54.576 167.943 53.712 166.683 53.712C165.639 53.712 165.039 54.204 164.571 54.804C164.187 54.084 163.491 53.712 162.663 53.712C161.859 53.712 161.295 54.048 160.863 54.516V53.952H159.627V60ZM176.29 59.016L175.39 58.296C175.018 58.8 174.406 59.124 173.674 59.124C172.51 59.124 171.706 58.44 171.622 57.12H176.086C176.134 56.94 176.17 56.664 176.17 56.388C176.17 54.852 175.09 53.712 173.422 53.712C171.502 53.712 170.35 55.164 170.35 56.976C170.35 58.74 171.586 60.24 173.674 60.24C174.802 60.24 175.726 59.772 176.29 59.016ZM173.398 54.744C174.37 54.744 174.91 55.44 174.934 56.196H171.682C171.874 55.26 172.498 54.744 173.398 54.744ZM177.121 59.148C177.685 59.832 178.441 60.24 179.461 60.24C180.589 60.24 181.549 59.532 181.561 58.344C181.561 56.268 178.597 56.676 178.597 55.464C178.597 55.056 178.885 54.72 179.461 54.72C179.965 54.72 180.385 55.02 180.709 55.452L181.549 54.72C181.117 54.144 180.337 53.712 179.449 53.712C178.237 53.712 177.397 54.504 177.397 55.5C177.397 57.636 180.361 57.192 180.361 58.416C180.361 58.872 180.037 59.232 179.449 59.232C178.849 59.232 178.369 58.908 177.973 58.404L177.121 59.148Z" fill="white"/>
<path d="M102.14 199.66H106.196V202H107.504V199.66H108.428V198.472H107.504V193.6H105.944L102.14 198.472V199.66ZM103.52 198.472L106.196 195.052V198.472H103.52ZM112.549 193.36C110.401 193.36 109.357 195.292 109.357 197.8C109.357 200.308 110.401 202.24 112.549 202.24C114.697 202.24 115.729 200.308 115.729 197.8C115.729 195.292 114.697 193.36 112.549 193.36ZM112.549 194.584C113.761 194.584 114.373 195.916 114.373 197.8C114.373 199.672 113.761 201.016 112.549 201.016C111.325 201.016 110.713 199.684 110.713 197.8C110.713 195.928 111.325 194.584 112.549 194.584ZM121.839 193.336C120.615 193.336 119.799 194.236 119.799 195.34C119.799 196.444 120.615 197.344 121.839 197.344C123.039 197.344 123.867 196.444 123.867 195.34C123.867 194.236 123.039 193.336 121.839 193.336ZM120.603 201.988H121.887L128.043 193.588H126.759L120.603 201.988ZM121.839 196.492C121.203 196.492 120.747 196 120.747 195.34C120.747 194.68 121.203 194.188 121.839 194.188C122.463 194.188 122.919 194.68 122.919 195.34C122.919 195.988 122.463 196.492 121.839 196.492ZM126.831 198.22C125.607 198.22 124.791 199.12 124.791 200.224C124.791 201.328 125.607 202.228 126.831 202.228C128.031 202.228 128.859 201.328 128.859 200.224C128.859 199.12 128.031 198.22 126.831 198.22ZM126.831 201.376C126.195 201.376 125.739 200.884 125.739 200.224C125.739 199.564 126.195 199.072 126.831 199.072C127.455 199.072 127.911 199.564 127.911 200.224C127.911 200.872 127.455 201.376 126.831 201.376ZM133.055 198.976C133.055 200.74 134.243 202.24 136.151 202.24C137.015 202.24 137.663 201.928 138.167 201.388V202H139.427V193H138.167V196.564C137.663 196.024 137.015 195.712 136.151 195.712C134.243 195.712 133.055 197.212 133.055 198.976ZM134.363 198.976C134.363 197.788 135.143 196.876 136.307 196.876C137.063 196.876 137.723 197.224 138.167 197.884V200.068C137.759 200.704 137.087 201.076 136.307 201.076C135.143 201.076 134.363 200.164 134.363 198.976ZM146.882 201.016L145.982 200.296C145.61 200.8 144.998 201.124 144.266 201.124C143.102 201.124 142.298 200.44 142.214 199.12H146.678C146.726 198.94 146.762 198.664 146.762 198.388C146.762 196.852 145.682 195.712 144.014 195.712C142.094 195.712 140.942 197.164 140.942 198.976C140.942 200.74 142.178 202.24 144.266 202.24C145.394 202.24 146.318 201.772 146.882 201.016ZM143.99 196.744C144.962 196.744 145.502 197.44 145.526 198.196H142.274C142.466 197.26 143.09 196.744 143.99 196.744ZM147.713 201.148C148.277 201.832 149.033 202.24 150.053 202.24C151.181 202.24 152.141 201.532 152.153 200.344C152.153 198.268 149.189 198.676 149.189 197.464C149.189 197.056 149.477 196.72 150.053 196.72C150.557 196.72 150.977 197.02 151.301 197.452L152.141 196.72C151.709 196.144 150.929 195.712 150.041 195.712C148.829 195.712 147.989 196.504 147.989 197.5C147.989 199.636 150.953 199.192 150.953 200.416C150.953 200.872 150.629 201.232 150.041 201.232C149.441 201.232 148.961 200.908 148.565 200.404L147.713 201.148ZM157.226 202H158.594V198.304H161.426V197.14H158.594V194.764H161.906V193.6H157.226V202Z" fill="white"/>
</svg>
