<svg width="288" height="273" viewBox="0 0 288 273" fill="none" xmlns="http://www.w3.org/2000/svg">
<path fill-rule="evenodd" clip-rule="evenodd" d="M133.698 6.00313C133.798 6.00104 133.898 6 134 6L134.152 6.00078C134.202 6.0013 134.252 6.00208 134.302 6.00313L134.597 6.0125L134.885 6.0281C135.027 6.03747 135.166 6.04916 135.301 6.06319L135.568 6.09436C137.007 6.28289 138 6.75328 138 7.5V10.5C138 10.7761 137.776 11 137.5 11C137.244 11 137.032 10.807 137.003 10.5583L137 10.5V8.56305C136.609 8.71878 136.122 8.83308 135.568 8.90564L135.301 8.93681C135.166 8.95084 135.027 8.96253 134.885 8.9719L134.597 8.9875L134.302 8.99688C134.202 8.99896 134.102 9 134 9C133.898 9 133.798 8.99896 133.698 8.99688L133.403 8.9875L133.115 8.9719C132.973 8.96253 132.834 8.95084 132.699 8.93681L132.432 8.90564C130.993 8.71711 130 8.24672 130 7.5C130 6.75328 130.993 6.28289 132.432 6.09436L132.699 6.06319C132.834 6.04916 132.973 6.03747 133.115 6.0281L133.403 6.0125L133.698 6.00313ZM137 7.5L136.989 7.49301C136.876 7.42867 136.715 7.36351 136.517 7.30331L136.414 7.27366C135.791 7.10107 134.927 7 134 7C133.074 7 132.21 7.10107 131.586 7.27366C131.375 7.33204 131.201 7.39634 131.072 7.46079L131 7.5L131.085 7.54565C131.191 7.5972 131.325 7.64853 131.484 7.69669L131.586 7.72634C132.21 7.89893 133.074 8 134 8C134.927 8 135.791 7.89893 136.414 7.72634C136.625 7.66796 136.8 7.60366 136.928 7.53921L137 7.5Z" fill="#BCABFF"/>
<path d="M153.866 24.902C153.336 24.3296 152.611 24 151.838 24C150.6 24 149.551 24.8361 149.162 26H148.5L148.442 26.0034C148.193 26.0322 148 26.2436 148 26.5C148 26.7761 148.224 27 148.5 27H149C149 27.1703 149.013 27.3374 149.039 27.5H148.5L148.442 27.5034C148.193 27.5322 148 27.7436 148 28C148 28.2761 148.224 28.5 148.5 28.5H149.38C149.87 29.3959 150.786 30 151.838 30C152.544 30 153.21 29.7258 153.726 29.2396C153.923 29.0535 153.937 28.7372 153.757 28.5332C153.577 28.3292 153.271 28.3148 153.073 28.5009C152.734 28.8211 152.299 29 151.838 29C151.364 29 150.931 28.8114 150.601 28.5H151.5L151.558 28.4966C151.807 28.4678 152 28.2564 152 28C152 27.7239 151.776 27.5 151.5 27.5H150.027C149.988 27.3403 149.968 27.1728 149.968 27H151.5L151.558 26.9966C151.807 26.9678 152 26.7564 152 26.5C152 26.2239 151.776 26 151.5 26H150.218C150.542 25.4014 151.147 25 151.838 25C152.343 25 152.817 25.2153 153.166 25.5931C153.351 25.7927 153.657 25.7998 153.851 25.6089C154.044 25.418 154.051 25.1015 153.866 24.902Z" fill="#BCABFF"/>
<path d="M130.5 10C130.756 10 130.968 10.1755 130.997 10.4015L131 10.4545V19.5455C131 19.7965 130.776 20 130.5 20C130.244 20 130.032 19.8245 130.003 19.5985L130 19.5455V10.4545C130 10.2035 130.224 10 130.5 10Z" fill="#BCABFF"/>
<path d="M130.5 22C130.776 22 131 21.7761 131 21.5C131 21.2239 130.776 21 130.5 21C130.224 21 130 21.2239 130 21.5C130 21.7761 130.224 22 130.5 22Z" fill="#BCABFF"/>
<path fill-rule="evenodd" clip-rule="evenodd" d="M154 14C153.898 14 153.798 14.001 153.698 14.0031L153.403 14.0125L153.115 14.0281C152.973 14.0375 152.834 14.0492 152.699 14.0632L152.432 14.0944C150.993 14.2829 150 14.7533 150 15.5C150 16.2467 150.993 16.7171 152.432 16.9056L152.699 16.9368C152.834 16.9508 152.973 16.9625 153.115 16.9719L153.403 16.9875L153.698 16.9969C153.798 16.999 153.898 17 154 17C154.102 17 154.202 16.999 154.302 16.9969L154.597 16.9875L154.885 16.9719C155.027 16.9625 155.166 16.9508 155.301 16.9368L155.568 16.9056C156.122 16.8331 156.609 16.7188 157 16.563V18.5L157.003 18.5583C157.032 18.807 157.244 19 157.5 19C157.776 19 158 18.7761 158 18.5V15.5C158 14.7533 157.007 14.2829 155.568 14.0944L155.301 14.0632C155.166 14.0492 155.027 14.0375 154.885 14.0281L154.597 14.0125L154.302 14.0031C154.252 14.0021 154.202 14.0013 154.152 14.0008L154 14ZM156.928 15.5392L157 15.5L156.989 15.493C156.876 15.4287 156.715 15.3635 156.517 15.3033L156.414 15.2737C155.791 15.1011 154.927 15 154 15C153.074 15 152.21 15.1011 151.586 15.2737C151.375 15.332 151.201 15.3963 151.072 15.4608L151 15.5L151.085 15.5456C151.191 15.5972 151.325 15.6485 151.484 15.6967L151.586 15.7263C152.21 15.8989 153.074 16 154 16C154.927 16 155.791 15.8989 156.414 15.7263C156.625 15.668 156.8 15.6037 156.928 15.5392Z" fill="#BCABFF"/>
<path d="M150.997 17.4417C150.968 17.193 150.756 17 150.5 17C150.224 17 150 17.2239 150 17.5V19.5L150.003 19.5583C150.032 19.807 150.244 20 150.5 20C150.776 20 151 19.7761 151 19.5V17.5L150.997 17.4417Z" fill="#BCABFF"/>
<path fill-rule="evenodd" clip-rule="evenodd" d="M142.331 11L141.997 11.006C141.942 11.0075 141.887 11.0093 141.832 11.0112L141.507 11.0262L141.189 11.0469C141.031 11.0588 140.877 11.0728 140.725 11.0889L140.426 11.1241C140.377 11.1304 140.328 11.1369 140.279 11.1437L139.993 11.1873C138.211 11.481 137 12.1085 137 12.9996V15.2858L137.002 15.3599C137.004 15.3781 137.005 15.3961 137.007 15.4141C137.003 15.442 137 15.4707 137 15.5V17.7858L137.002 17.8599C137.004 17.8781 137.005 17.8961 137.007 17.9141C137.003 17.942 137 17.9707 137 18V20.2858L137.002 20.3599C137.004 20.378 137.005 20.396 137.007 20.4138C137.003 20.4417 137 20.4703 137 20.4996V22.7854L137.002 22.8595C137.007 22.9296 137.018 22.9982 137.036 23.0654C136.962 23.0588 136.887 23.0526 136.811 23.0469L136.493 23.0262L136.168 23.0112C136.113 23.0093 136.058 23.0075 136.003 23.006L135.669 23H135.331L134.997 23.006C134.942 23.0075 134.887 23.0093 134.832 23.0112L134.507 23.0262L134.189 23.0469C134.031 23.0588 133.877 23.0728 133.725 23.0889L133.426 23.1241C133.377 23.1304 133.328 23.1369 133.279 23.1437L132.993 23.1873C131.211 23.481 130 24.1085 130 24.9996V27.2855L130.002 27.3596C130.004 27.3778 130.005 27.3959 130.007 27.4139C130.003 27.4418 130 27.4705 130 27.4998V29.7856L130.002 29.8597C130.067 30.8409 131.419 31.5428 133.326 31.8408L133.616 31.8825C133.714 31.8954 133.813 31.9072 133.913 31.918L134.219 31.9473C134.63 31.9821 135.059 32 135.5 32C135.941 32 136.37 31.9821 136.781 31.9473L137.087 31.918C137.187 31.9072 137.286 31.8954 137.384 31.8825L137.674 31.8408C139.543 31.5487 140.879 30.8685 140.992 29.9176C141.469 29.972 141.967 30 142.475 30C143.72 30 145.245 29.8408 146.092 29.6018C147.061 31.6125 149.119 33 151.5 33C154.814 33 157.5 30.3136 157.5 26.9998C157.5 23.686 154.814 20.9996 151.5 20.9996C150.194 20.9996 148.985 21.417 148 22.1257V20.4996L147.997 20.4413C147.996 20.4366 147.995 20.432 147.995 20.4274C147.994 20.4228 147.993 20.4183 147.993 20.4138C147.998 20.3717 148 20.329 148 20.2858V18L147.997 17.9417C147.996 17.9324 147.994 17.9232 147.993 17.9141C147.998 17.8719 148 17.8291 148 17.7858V15.5L147.997 15.4417C147.996 15.4324 147.994 15.4232 147.993 15.4141C147.998 15.3719 148 15.3291 148 15.2858V13C148 12.1323 146.852 11.5142 145.146 11.2112L144.865 11.1648C144.769 11.1503 144.673 11.1367 144.574 11.1241L144.275 11.0889C144.123 11.0728 143.969 11.0588 143.811 11.0469L143.493 11.0262L143.168 11.0112C143.113 11.0093 143.058 11.0075 143.003 11.006L142.669 11H142.331ZM146.03 24.5304C145.624 24.6594 145.168 24.7635 144.674 24.8406L144.384 24.8823C144.286 24.8951 144.187 24.907 144.087 24.9178L143.781 24.947C143.37 24.9818 142.941 24.9997 142.5 24.9997C142.059 24.9997 141.63 24.9818 141.219 24.947L140.997 24.9258C140.999 24.9502 141 24.9748 141 24.9996V26.2965C141.477 26.3558 141.98 26.3866 142.495 26.3866C143.513 26.3866 144.726 26.2698 145.568 26.0902C145.652 25.5424 145.809 25.019 146.03 24.5304ZM145.504 27.2338C144.618 27.3989 143.475 27.5 142.495 27.5C141.98 27.5 141.476 27.4713 140.993 27.4154L140.994 27.4251L140.996 27.4347L140.997 27.4415L141 27.4998V28.8026C141.471 28.8604 141.967 28.8904 142.475 28.8904C143.576 28.8904 144.924 28.7563 145.706 28.5634C145.591 28.1371 145.522 27.692 145.504 27.2338ZM138 15.2858V14.2228C138.482 14.4667 139.116 14.6569 139.854 14.788L140.135 14.8344C140.231 14.8489 140.327 14.8625 140.426 14.8752L140.725 14.9103C140.877 14.9265 141.031 14.9405 141.189 14.9523L141.507 14.9731L141.832 14.988C141.887 14.99 141.942 14.9917 141.997 14.9932L142.331 14.9992C142.387 14.9997 142.443 15 142.5 15L142.669 14.9992L143.003 14.9932C143.058 14.9917 143.113 14.99 143.168 14.988L143.493 14.9731L143.811 14.9523C143.969 14.9405 144.123 14.9265 144.275 14.9103L144.574 14.8752C144.623 14.8689 144.672 14.8623 144.721 14.8555L145.007 14.8119C145.805 14.6804 146.488 14.4819 147 14.2228V15.2858L146.997 15.3164C146.957 15.4959 146.581 15.7825 145.873 16.025C144.998 16.3253 143.792 16.5001 142.5 16.5001C141.208 16.5001 140.002 16.3253 139.127 16.025C138.378 15.7683 138 15.4621 138 15.2858ZM138.386 13.336C138.138 13.219 138 13.1021 138 13.0002C138 12.8982 138.138 12.7814 138.386 12.6644L138.519 12.606C138.567 12.5865 138.617 12.5671 138.67 12.5479L138.837 12.4906C138.896 12.4717 138.957 12.453 139.021 12.4345L139.219 12.3801C139.254 12.3711 139.289 12.3623 139.324 12.3535L139.544 12.3022C139.619 12.2855 139.697 12.2693 139.777 12.2535L140.022 12.2079L140.28 12.1657C140.323 12.159 140.368 12.1524 140.412 12.146L140.685 12.1097L140.968 12.0779L141.26 12.0509C141.359 12.0428 141.459 12.0356 141.56 12.0293L141.867 12.0133L142.181 12.0034C142.233 12.0023 142.286 12.0014 142.34 12.0009L142.5 12C142.607 12 142.714 12.0012 142.819 12.0034L143.133 12.0133L143.44 12.0293C143.541 12.0356 143.641 12.0428 143.74 12.0509L144.032 12.0779L144.315 12.1097L144.588 12.146L144.85 12.1863C144.893 12.1934 144.936 12.2006 144.978 12.2079L145.223 12.2535C145.263 12.2614 145.302 12.2694 145.341 12.2775L145.568 12.3276C145.641 12.3447 145.712 12.3622 145.781 12.3801L145.979 12.4345C146.011 12.4438 146.042 12.453 146.073 12.4624L146.248 12.5191C146.332 12.5478 146.41 12.5768 146.481 12.606L146.614 12.6644C146.862 12.7814 147 12.8982 147 13.0002C147 13.1021 146.862 13.219 146.614 13.336L146.481 13.3944C146.433 13.4139 146.383 13.4332 146.33 13.4525L146.163 13.5098C146.104 13.5287 146.043 13.5474 145.979 13.5658L145.781 13.6203C145.746 13.6293 145.711 13.6381 145.676 13.6468L145.456 13.6981C145.381 13.7148 145.303 13.7311 145.223 13.7468L144.978 13.7925L144.72 13.8347C144.677 13.8414 144.632 13.848 144.588 13.8544L144.315 13.8907L144.032 13.9225L143.74 13.9494C143.641 13.9576 143.541 13.9648 143.44 13.9711L143.133 13.9871L142.819 13.997C142.714 13.9992 142.607 14.0004 142.5 14.0004C142.393 14.0004 142.286 13.9992 142.181 13.997L141.867 13.9871L141.56 13.9711C141.459 13.9648 141.359 13.9576 141.26 13.9494L140.968 13.9225L140.685 13.8907L140.412 13.8544L140.15 13.814C140.107 13.807 140.064 13.7998 140.022 13.7925L139.777 13.7468C139.737 13.739 139.698 13.731 139.659 13.7228L139.432 13.6728C139.359 13.6557 139.288 13.6382 139.219 13.6203L139.021 13.5658C138.989 13.5566 138.958 13.5473 138.927 13.538L138.752 13.4812C138.668 13.4526 138.59 13.4236 138.519 13.3944L138.386 13.336ZM138 17.7858V16.6218C138.582 16.9496 139.387 17.1943 140.326 17.341L140.616 17.3827C140.714 17.3956 140.813 17.4074 140.913 17.4182L141.219 17.4475C141.63 17.4823 142.059 17.5002 142.5 17.5002C142.941 17.5002 143.37 17.4823 143.781 17.4475L144.087 17.4182C144.187 17.4074 144.286 17.3956 144.384 17.3827L144.674 17.341C145.613 17.1943 146.418 16.9496 147 16.6218V17.7858L146.997 17.8164C146.957 17.9959 146.581 18.2825 145.873 18.525C144.998 18.8253 143.792 19.0001 142.5 19.0001C141.208 19.0001 140.002 18.8253 139.127 18.525C138.378 18.2683 138 17.9621 138 17.7858ZM140 28.6215C139.418 28.9493 138.613 29.194 137.674 29.3408L137.384 29.3824C137.286 29.3953 137.187 29.4071 137.087 29.4179L136.781 29.4472C136.37 29.482 135.941 29.4999 135.5 29.4999C135.059 29.4999 134.63 29.482 134.219 29.4472L133.913 29.4179C133.813 29.4071 133.714 29.3953 133.616 29.3824L133.326 29.3408C132.387 29.194 131.582 28.9493 131 28.6215V29.7856C131 29.9619 131.378 30.2681 132.127 30.5248C133.002 30.8251 134.208 30.9999 135.5 30.9999C136.792 30.9999 137.998 30.8251 138.873 30.5248C139.581 30.2823 139.957 29.9957 139.997 29.8162L140 29.7856V28.6215ZM138 19.1218C138.582 19.4496 139.387 19.6943 140.326 19.841L140.616 19.8827C140.714 19.8956 140.813 19.9074 140.913 19.9182L141.219 19.9475C141.63 19.9823 142.059 20.0002 142.5 20.0002C142.941 20.0002 143.37 19.9823 143.781 19.9475L144.087 19.9182C144.187 19.9074 144.286 19.8956 144.384 19.8827L144.674 19.841C145.613 19.6943 146.418 19.4496 147 19.1218V20.2858L146.997 20.3164C146.957 20.4959 146.581 20.7825 145.873 21.025C144.998 21.3253 143.792 21.5001 142.5 21.5001C141.208 21.5001 140.002 21.3253 139.127 21.025C138.378 20.7683 138 20.4621 138 20.2858V19.1218ZM147 22.7854V21.6218C146.418 21.9496 145.613 22.1943 144.674 22.341L144.384 22.3827C144.286 22.3956 144.187 22.4074 144.087 22.4182L143.781 22.4475C143.37 22.4823 142.941 22.5002 142.5 22.5002C142.059 22.5002 141.63 22.4823 141.219 22.4475L140.913 22.4182C140.813 22.4074 140.714 22.3956 140.616 22.3827L140.326 22.341C139.387 22.1943 138.582 21.9496 138 21.6218V22.7854C138 22.9114 138.193 23.1038 138.577 23.297C139.105 23.4146 139.567 23.5657 139.943 23.748C140.691 23.9097 141.573 23.9997 142.5 23.9997C143.792 23.9997 144.998 23.8248 145.873 23.5246C146.581 23.2821 146.957 22.9955 146.997 22.8159L147 22.7854ZM139.749 24.7346C139.19 24.6153 138.693 24.4575 138.281 24.2651C138.262 24.2612 138.242 24.2574 138.223 24.2535L137.978 24.2079C137.936 24.2006 137.893 24.1934 137.85 24.1863L137.588 24.146L137.315 24.1097L137.032 24.0779L136.74 24.0509C136.641 24.0428 136.541 24.0356 136.44 24.0293L136.133 24.0133L135.819 24.0034C135.714 24.0012 135.607 24 135.5 24L135.34 24.0009C135.286 24.0014 135.233 24.0023 135.181 24.0034L134.867 24.0133L134.56 24.0293C134.459 24.0356 134.359 24.0428 134.26 24.0509L133.968 24.0779L133.685 24.1097L133.412 24.146C133.368 24.1524 133.323 24.159 133.28 24.1657L133.022 24.2079L132.777 24.2535C132.697 24.2693 132.619 24.2855 132.544 24.3022L132.324 24.3535C132.289 24.3623 132.254 24.3711 132.219 24.3801L132.021 24.4345C131.957 24.453 131.896 24.4717 131.837 24.4906L131.67 24.5479C131.617 24.5671 131.567 24.5865 131.519 24.606L131.386 24.6644C131.138 24.7814 131 24.8982 131 25.0002C131 25.1021 131.138 25.219 131.386 25.336L131.519 25.3944C131.59 25.4236 131.668 25.4526 131.752 25.4812L131.927 25.538C131.958 25.5473 131.989 25.5566 132.021 25.5658L132.219 25.6203C132.288 25.6382 132.359 25.6557 132.432 25.6728L132.659 25.7228C132.698 25.731 132.737 25.739 132.777 25.7468L133.022 25.7925C133.064 25.7998 133.107 25.807 133.15 25.814L133.412 25.8544L133.685 25.8907L133.968 25.9225L134.26 25.9494C134.359 25.9576 134.459 25.9648 134.56 25.9711L134.867 25.9871L135.181 25.997C135.286 25.9992 135.393 26.0004 135.5 26.0004C135.607 26.0004 135.714 25.9992 135.819 25.997L136.133 25.9871L136.44 25.9711C136.541 25.9648 136.641 25.9576 136.74 25.9494L137.032 25.9225L137.315 25.8907L137.588 25.8544C137.632 25.848 137.677 25.8414 137.72 25.8347L137.978 25.7925L138.223 25.7468C138.303 25.7311 138.381 25.7148 138.456 25.6981L138.676 25.6468C138.711 25.6381 138.746 25.6293 138.781 25.6203L138.979 25.5658C139.043 25.5474 139.104 25.5287 139.163 25.5098L139.33 25.4525C139.383 25.4332 139.433 25.4139 139.481 25.3944L139.614 25.336C139.862 25.219 140 25.1021 140 25.0002C140 24.9187 139.912 24.8276 139.749 24.7346ZM140 27.2855V26.2228C139.488 26.4819 138.805 26.6804 138.007 26.8119L137.721 26.8555C137.672 26.8623 137.623 26.8689 137.574 26.8752L137.275 26.9103C137.123 26.9265 136.969 26.9405 136.811 26.9523L136.493 26.9731L136.168 26.988C136.113 26.99 136.058 26.9917 136.003 26.9932L135.669 26.9992L135.5 27C135.443 27 135.387 26.9997 135.331 26.9992L134.997 26.9932C134.942 26.9917 134.887 26.99 134.832 26.988L134.507 26.9731L134.189 26.9523C134.031 26.9405 133.877 26.9265 133.725 26.9103L133.426 26.8752C133.327 26.8625 133.231 26.8489 133.135 26.8344L132.854 26.788C132.116 26.6569 131.482 26.4667 131 26.2228V27.2855C131 27.4618 131.378 27.768 132.127 28.0248C133.002 28.325 134.208 28.4998 135.5 28.4998C136.792 28.4998 137.998 28.325 138.873 28.0248C139.581 27.7822 139.957 27.4956 139.997 27.3161L140 27.2855ZM151.5 21.9996C154.261 21.9996 156.5 24.2383 156.5 26.9998C156.5 29.7613 154.261 32 151.5 32C148.739 32 146.5 29.7613 146.5 26.9998C146.5 24.2383 148.739 21.9996 151.5 21.9996Z" fill="#BCABFF"/>
<path d="M154.711 20.0466C154.46 19.9303 154.163 20.0391 154.047 20.2895C153.93 20.54 154.039 20.8373 154.29 20.9536C156.532 21.9949 158 24.1775 158 26.5003C158 26.7765 158.224 27.0004 158.5 27.0004C158.776 27.0004 159 26.7765 159 26.5003C159 23.7785 157.298 21.248 154.711 20.0466Z" fill="#BCABFF"/>
<rect x="69" y="183" width="149" height="30" rx="15" fill="#6B48F4"/>
<rect x="12" y="76" width="263" height="30" rx="15" fill="#BCABFF"/>
<rect x="93" y="218" width="101" height="30" rx="15" fill="#BCABFF"/>
<path d="M56.691 123.976C56.691 125.74 57.903 127.24 59.799 127.24C60.699 127.24 61.407 126.892 61.947 126.28V127H62.967V118H61.947V121.672C61.407 121.06 60.699 120.712 59.799 120.712C57.903 120.712 56.691 122.212 56.691 123.976ZM57.771 123.976C57.771 122.692 58.635 121.672 59.919 121.672C60.747 121.672 61.479 122.068 61.947 122.788V125.164C61.503 125.872 60.759 126.28 59.919 126.28C58.635 126.28 57.771 125.26 57.771 123.976ZM68.1891 119.992L69.5931 118H68.4411L67.1931 119.992H68.1891ZM70.4931 126.004L69.7371 125.416C69.3411 125.956 68.6811 126.316 67.9011 126.316C66.6051 126.316 65.6811 125.44 65.6451 123.988H70.2891C70.3251 123.82 70.3611 123.592 70.3611 123.352C70.3611 121.864 69.2931 120.712 67.6491 120.712C65.7771 120.712 64.6011 122.14 64.6011 123.976C64.6011 125.74 65.8611 127.24 67.9011 127.24C69.0291 127.24 69.9291 126.76 70.4931 126.004ZM67.6251 121.576C68.6931 121.576 69.3051 122.32 69.3411 123.208H65.7171C65.9331 122.164 66.6291 121.576 67.6251 121.576ZM74.8503 126.28C73.5423 126.28 72.6183 125.272 72.6183 123.976C72.6183 122.692 73.5423 121.672 74.8383 121.672C75.5943 121.672 76.2063 122.032 76.5783 122.56L77.3823 121.948C76.8183 121.204 75.9303 120.712 74.8383 120.712C72.8343 120.712 71.5503 122.212 71.5503 123.976C71.5503 125.74 72.8343 127.24 74.8383 127.24C75.9423 127.24 76.8183 126.76 77.3823 126.004L76.5783 125.392C76.2063 125.92 75.5943 126.28 74.8503 126.28ZM78.7812 127H79.8012V118H78.7812V127ZM83.601 127.168C84.381 127.168 85.173 126.82 85.629 126.232V127H86.649V122.944C86.649 121.612 85.737 120.712 84.201 120.712C83.145 120.712 82.293 121.156 81.765 121.876L82.533 122.464C82.905 121.948 83.469 121.624 84.165 121.624C85.029 121.624 85.629 122.104 85.629 122.944V123.364L83.589 123.7C82.305 123.916 81.609 124.564 81.609 125.476C81.609 126.508 82.413 127.168 83.601 127.168ZM82.641 125.44C82.641 124.924 83.013 124.552 83.841 124.408L85.629 124.108V125.296C85.233 125.944 84.573 126.328 83.769 126.328C83.061 126.328 82.641 125.956 82.641 125.44ZM88.6952 127H89.7152V122.848C90.0872 122.236 90.6032 121.828 91.3952 121.828C91.6352 121.828 91.8152 121.852 91.9952 121.9V120.904C91.8512 120.856 91.6712 120.832 91.4792 120.832C90.7112 120.832 90.1592 121.18 89.7152 121.708V120.952H88.6952V127ZM98.4775 126.004L97.7215 125.416C97.3255 125.956 96.6655 126.316 95.8855 126.316C94.5895 126.316 93.6655 125.44 93.6295 123.988H98.2735C98.3095 123.82 98.3455 123.592 98.3455 123.352C98.3455 121.864 97.2775 120.712 95.6335 120.712C93.7615 120.712 92.5855 122.14 92.5855 123.976C92.5855 125.74 93.8455 127.24 95.8855 127.24C97.0135 127.24 97.9135 126.76 98.4775 126.004ZM95.6095 121.576C96.6775 121.576 97.2895 122.32 97.3255 123.208H93.7015C93.9175 122.164 94.6135 121.576 95.6095 121.576ZM100.074 127H101.094V122.812C101.478 122.176 102.03 121.672 102.906 121.672C103.842 121.672 104.454 122.296 104.454 123.376V127H105.474V123.34C105.474 121.624 104.466 120.712 103.11 120.712C102.21 120.712 101.586 121.096 101.094 121.636V120.952H100.074V127ZM107.875 124.972C107.875 126.448 108.631 127.12 109.975 127.12C110.407 127.12 110.731 127.072 111.019 126.952V126.04C110.791 126.136 110.515 126.184 110.119 126.184C109.387 126.184 108.907 125.92 108.907 124.972V121.876H111.007V120.952H108.907V119.44H107.875V120.952H106.735V121.876H107.875V124.972ZM114.889 120.952L117.253 127H118.597L120.961 120.952H119.857L117.925 125.932L115.993 120.952H114.889ZM122.727 119.38C123.123 119.38 123.435 119.056 123.435 118.66C123.435 118.276 123.123 117.952 122.727 117.952C122.331 117.952 122.007 118.276 122.007 118.66C122.007 119.056 122.331 119.38 122.727 119.38ZM122.211 127H123.231V120.952H122.211V127ZM124.475 120.952L126.839 127H128.183L130.547 120.952H129.443L127.511 125.932L125.579 120.952H124.475ZM131.797 127H132.817V122.848C133.189 122.236 133.705 121.828 134.497 121.828C134.737 121.828 134.917 121.852 135.097 121.9V120.904C134.953 120.856 134.773 120.832 134.581 120.832C133.813 120.832 133.261 121.18 132.817 121.708V120.952H131.797V127ZM141.579 126.004L140.823 125.416C140.427 125.956 139.767 126.316 138.987 126.316C137.691 126.316 136.767 125.44 136.731 123.988H141.375C141.411 123.82 141.447 123.592 141.447 123.352C141.447 121.864 140.379 120.712 138.735 120.712C136.863 120.712 135.687 122.14 135.687 123.976C135.687 125.74 136.947 127.24 138.987 127.24C140.115 127.24 141.015 126.76 141.579 126.004ZM138.711 121.576C139.779 121.576 140.391 122.32 140.427 123.208H136.803C137.019 122.164 137.715 121.576 138.711 121.576ZM145.894 123.976C145.894 125.74 147.106 127.24 149.002 127.24C149.902 127.24 150.61 126.892 151.15 126.28V127H152.17V118H151.15V121.672C150.61 121.06 149.902 120.712 149.002 120.712C147.106 120.712 145.894 122.212 145.894 123.976ZM146.974 123.976C146.974 122.692 147.838 121.672 149.122 121.672C149.95 121.672 150.682 122.068 151.15 122.788V125.164C150.706 125.872 149.962 126.28 149.122 126.28C147.838 126.28 146.974 125.26 146.974 123.976ZM159.696 126.004L158.94 125.416C158.544 125.956 157.884 126.316 157.104 126.316C155.808 126.316 154.884 125.44 154.848 123.988H159.492C159.528 123.82 159.564 123.592 159.564 123.352C159.564 121.864 158.496 120.712 156.852 120.712C154.98 120.712 153.804 122.14 153.804 123.976C153.804 125.74 155.064 127.24 157.104 127.24C158.232 127.24 159.132 126.76 159.696 126.004ZM156.828 121.576C157.896 121.576 158.508 122.32 158.544 123.208H154.92C155.136 122.164 155.832 121.576 156.828 121.576ZM164.527 127H165.547V118H164.527V127ZM173.079 126.004L172.323 125.416C171.927 125.956 171.267 126.316 170.487 126.316C169.191 126.316 168.267 125.44 168.231 123.988H172.875C172.911 123.82 172.947 123.592 172.947 123.352C172.947 121.864 171.879 120.712 170.235 120.712C168.363 120.712 167.187 122.14 167.187 123.976C167.187 125.74 168.447 127.24 170.487 127.24C171.615 127.24 172.515 126.76 173.079 126.004ZM170.211 121.576C171.279 121.576 171.891 122.32 171.927 123.208H168.303C168.519 122.164 169.215 121.576 170.211 121.576ZM178.794 124.408C178.794 125.596 178.146 126.28 177.138 126.28C176.106 126.28 175.47 125.596 175.47 124.408V120.952H174.45V124.372C174.45 126.184 175.494 127.24 177.126 127.24C178.77 127.24 179.814 126.184 179.814 124.372V120.952H178.794V124.408ZM181.824 127H182.844V122.848C183.216 122.236 183.732 121.828 184.524 121.828C184.764 121.828 184.944 121.852 185.124 121.9V120.904C184.98 120.856 184.8 120.832 184.608 120.832C183.84 120.832 183.288 121.18 182.844 121.708V120.952H181.824V127ZM191.472 127.168C192.252 127.168 193.044 126.82 193.5 126.232V127H194.52V122.944C194.52 121.612 193.608 120.712 192.072 120.712C191.016 120.712 190.164 121.156 189.636 121.876L190.404 122.464C190.776 121.948 191.34 121.624 192.036 121.624C192.9 121.624 193.5 122.104 193.5 122.944V123.364L191.46 123.7C190.176 123.916 189.48 124.564 189.48 125.476C189.48 126.508 190.284 127.168 191.472 127.168ZM190.512 125.44C190.512 124.924 190.884 124.552 191.712 124.408L193.5 124.108V125.296C193.104 125.944 192.444 126.328 191.64 126.328C190.932 126.328 190.512 125.956 190.512 125.44ZM199.35 126.28C198.042 126.28 197.118 125.272 197.118 123.976C197.118 122.692 198.042 121.672 199.338 121.672C200.094 121.672 200.706 122.032 201.078 122.56L201.882 121.948C201.318 121.204 200.43 120.712 199.338 120.712C197.334 120.712 196.05 122.212 196.05 123.976C196.05 125.74 197.334 127.24 199.338 127.24C200.442 127.24 201.318 126.76 201.882 126.004L201.078 125.392C200.706 125.92 200.094 126.28 199.35 126.28ZM203.606 124.972C203.606 126.448 204.362 127.12 205.706 127.12C206.138 127.12 206.462 127.072 206.75 126.952V126.04C206.522 126.136 206.246 126.184 205.85 126.184C205.118 126.184 204.638 125.92 204.638 124.972V121.876H206.738V120.952H204.638V119.44H203.606V120.952H202.466V121.876H203.606V124.972ZM208.813 119.38C209.209 119.38 209.521 119.056 209.521 118.66C209.521 118.276 209.209 117.952 208.813 117.952C208.417 117.952 208.093 118.276 208.093 118.66C208.093 119.056 208.417 119.38 208.813 119.38ZM208.297 127H209.317V120.952H208.297V127ZM210.561 120.952L212.925 127H214.269L216.633 120.952H215.529L213.597 125.932L211.665 120.952H210.561ZM218.399 119.38C218.795 119.38 219.107 119.056 219.107 118.66C219.107 118.276 218.795 117.952 218.399 117.952C218.003 117.952 217.679 118.276 217.679 118.66C217.679 119.056 218.003 119.38 218.399 119.38ZM217.883 127H218.903V120.952H217.883V127ZM221.407 124.972C221.407 126.448 222.163 127.12 223.507 127.12C223.939 127.12 224.263 127.072 224.551 126.952V126.04C224.323 126.136 224.047 126.184 223.651 126.184C222.919 126.184 222.439 125.92 222.439 124.972V121.876H224.539V120.952H222.439V119.44H221.407V120.952H220.267V121.876H221.407V124.972ZM229.052 119.992L230.456 118H229.304L228.056 119.992H229.052ZM231.356 126.004L230.6 125.416C230.204 125.956 229.544 126.316 228.764 126.316C227.468 126.316 226.544 125.44 226.508 123.988H231.152C231.188 123.82 231.224 123.592 231.224 123.352C231.224 121.864 230.156 120.712 228.512 120.712C226.64 120.712 225.464 122.14 225.464 123.976C225.464 125.74 226.724 127.24 228.764 127.24C229.892 127.24 230.792 126.76 231.356 126.004ZM228.488 121.576C229.556 121.576 230.168 122.32 230.204 123.208H226.58C226.796 122.164 227.492 121.576 228.488 121.576Z" fill="black"/>
<path d="M91.215 263.712C89.259 263.712 87.939 265.212 87.939 266.976C87.939 268.74 89.259 270.24 91.215 270.24C93.159 270.24 94.491 268.74 94.491 266.976C94.491 265.212 93.159 263.712 91.215 263.712ZM91.227 269.28C89.931 269.28 89.007 268.236 89.007 266.976C89.007 265.716 89.931 264.672 91.227 264.672C92.487 264.672 93.411 265.716 93.411 266.976C93.411 268.224 92.487 269.28 91.227 269.28ZM96.1308 270H97.1508V265.812C97.5348 265.176 98.0868 264.672 98.9628 264.672C99.8988 264.672 100.511 265.296 100.511 266.376V270H101.531V266.34C101.531 264.624 100.523 263.712 99.1668 263.712C98.2668 263.712 97.6428 264.096 97.1508 264.636V263.952H96.1308V270ZM103.932 267.972C103.932 269.448 104.688 270.12 106.032 270.12C106.464 270.12 106.788 270.072 107.076 269.952V269.04C106.848 269.136 106.572 269.184 106.176 269.184C105.444 269.184 104.964 268.92 104.964 267.972V264.876H107.064V263.952H104.964V262.44H103.932V263.952H102.792V264.876H103.932V267.972ZM116.069 267.408C116.069 268.596 115.421 269.28 114.413 269.28C113.381 269.28 112.745 268.596 112.745 267.408V263.952H111.725V267.372C111.725 269.184 112.769 270.24 114.401 270.24C116.045 270.24 117.089 269.184 117.089 267.372V263.952H116.069V267.408ZM119.1 270H120.12V265.812C120.504 265.176 121.056 264.672 121.932 264.672C122.868 264.672 123.48 265.296 123.48 266.376V270H124.5V266.34C124.5 264.624 123.492 263.712 122.136 263.712C121.236 263.712 120.612 264.096 120.12 264.636V263.952H119.1V270ZM131.431 270.168C132.211 270.168 133.003 269.82 133.459 269.232V270H134.479V265.944C134.479 264.612 133.567 263.712 132.031 263.712C130.975 263.712 130.123 264.156 129.595 264.876L130.363 265.464C130.735 264.948 131.299 264.624 131.995 264.624C132.859 264.624 133.459 265.104 133.459 265.944V266.364L131.419 266.7C130.135 266.916 129.439 267.564 129.439 268.476C129.439 269.508 130.243 270.168 131.431 270.168ZM130.471 268.44C130.471 267.924 130.843 267.552 131.671 267.408L133.459 267.108V268.296C133.063 268.944 132.403 269.328 131.599 269.328C130.891 269.328 130.471 268.956 130.471 268.44ZM140.737 267.408C140.737 268.596 140.089 269.28 139.081 269.28C138.049 269.28 137.413 268.596 137.413 267.408V263.952H136.393V267.372C136.393 269.184 137.437 270.24 139.069 270.24C140.713 270.24 141.757 269.184 141.757 267.372V263.952H140.737V267.408ZM144.162 267.972C144.162 269.448 144.918 270.12 146.262 270.12C146.694 270.12 147.018 270.072 147.306 269.952V269.04C147.078 269.136 146.802 269.184 146.406 269.184C145.674 269.184 145.194 268.92 145.194 267.972V264.876H147.294V263.952H145.194V262.44H144.162V263.952H143.022V264.876H144.162V267.972ZM148.853 270H149.873V265.848C150.245 265.236 150.761 264.828 151.553 264.828C151.793 264.828 151.973 264.852 152.153 264.9V263.904C152.009 263.856 151.829 263.832 151.637 263.832C150.869 263.832 150.317 264.18 149.873 264.708V263.952H148.853V270ZM158.636 269.004L157.88 268.416C157.484 268.956 156.824 269.316 156.044 269.316C154.748 269.316 153.824 268.44 153.788 266.988H158.432C158.468 266.82 158.504 266.592 158.504 266.352C158.504 264.864 157.436 263.712 155.792 263.712C153.92 263.712 152.744 265.14 152.744 266.976C152.744 268.74 154.004 270.24 156.044 270.24C157.172 270.24 158.072 269.76 158.636 269.004ZM155.768 264.576C156.836 264.576 157.448 265.32 157.484 266.208H153.86C154.076 265.164 154.772 264.576 155.768 264.576ZM163.467 270H164.487V265.812C164.835 265.188 165.351 264.672 166.179 264.672C167.055 264.672 167.607 265.248 167.607 266.256V270H168.627V266.22C168.627 266.076 168.615 265.944 168.603 265.812C168.999 265.104 169.539 264.672 170.307 264.672C171.171 264.672 171.735 265.248 171.735 266.256V270H172.755V266.22C172.755 264.576 171.807 263.712 170.511 263.712C169.467 263.712 168.831 264.216 168.351 264.876C167.979 264.108 167.259 263.712 166.383 263.712C165.543 263.712 164.943 264.084 164.487 264.612V263.952H163.467V270ZM177.882 262.992L179.286 261H178.134L176.886 262.992H177.882ZM180.186 269.004L179.43 268.416C179.034 268.956 178.374 269.316 177.594 269.316C176.298 269.316 175.374 268.44 175.338 266.988H179.982C180.018 266.82 180.054 266.592 180.054 266.352C180.054 264.864 178.986 263.712 177.342 263.712C175.47 263.712 174.294 265.14 174.294 266.976C174.294 268.74 175.554 270.24 177.594 270.24C178.722 270.24 179.622 269.76 180.186 269.004ZM177.318 264.576C178.386 264.576 178.998 265.32 179.034 266.208H175.41C175.626 265.164 176.322 264.576 177.318 264.576ZM182.096 267.972C182.096 269.448 182.852 270.12 184.196 270.12C184.628 270.12 184.952 270.072 185.24 269.952V269.04C185.012 269.136 184.736 269.184 184.34 269.184C183.608 269.184 183.128 268.92 183.128 267.972V264.876H185.228V263.952H183.128V262.44H182.096V263.952H180.956V264.876H182.096V267.972ZM187.303 262.38C187.699 262.38 188.011 262.056 188.011 261.66C188.011 261.276 187.699 260.952 187.303 260.952C186.907 260.952 186.583 261.276 186.583 261.66C186.583 262.056 186.907 262.38 187.303 262.38ZM186.787 270H187.807V263.952H186.787V270ZM195.339 269.004L194.583 268.416C194.187 268.956 193.527 269.316 192.747 269.316C191.451 269.316 190.527 268.44 190.491 266.988H195.135C195.171 266.82 195.207 266.592 195.207 266.352C195.207 264.864 194.139 263.712 192.495 263.712C190.623 263.712 189.447 265.14 189.447 266.976C189.447 268.74 190.707 270.24 192.747 270.24C193.875 270.24 194.775 269.76 195.339 269.004ZM192.471 264.576C193.539 264.576 194.151 265.32 194.187 266.208H190.563C190.779 265.164 191.475 264.576 192.471 264.576ZM196.935 270H197.955V265.848C198.327 265.236 198.843 264.828 199.635 264.828C199.875 264.828 200.055 264.852 200.235 264.9V263.904C200.091 263.856 199.911 263.832 199.719 263.832C198.951 263.832 198.399 264.18 197.955 264.708V263.952H196.935V270Z" fill="black"/>
<path d="M139.657 142.579C139.072 142.386 138.467 142.547 137.868 143.011L137.837 143.036L137.746 143.03C136.901 142.991 136.222 143.178 135.732 143.613L135.648 143.693C135.109 144.228 135.047 144.98 135.393 145.886L135.447 146.021L135.187 146.537L135.108 146.542C133.809 146.645 133.048 147.281 133.002 148.406L133 148.517C133 149.637 133.674 150.299 134.863 150.465L135 150.482V151C135 151.256 135.193 151.468 135.442 151.497L135.5 151.5C135.756 151.5 135.968 151.307 135.997 151.058L136 151V150.007C136 149.731 135.776 149.507 135.5 149.507C134.416 149.507 134 149.197 134 148.517C134 147.837 134.416 147.527 135.5 147.527C135.668 147.527 135.823 147.443 135.915 147.306L135.947 147.252L136.447 146.259C136.516 146.121 136.518 145.958 136.451 145.819C136.104 145.091 136.104 144.649 136.352 144.402C136.66 144.097 137.18 143.968 137.948 144.048C138.088 144.063 138.227 144.018 138.332 143.925C138.754 143.55 139.08 143.442 139.343 143.529C139.655 143.632 139.881 143.856 140.038 144.238C140.143 144.493 140.435 144.615 140.69 144.51C140.946 144.405 141.067 144.113 140.962 143.857C140.699 143.216 140.258 142.778 139.657 142.579Z" fill="#6B48F4"/>
<path d="M134.003 166.801C134.043 166.339 134.455 166 134.929 166H136.5L136.558 166.003C136.807 166.032 137 166.244 137 166.5L136.997 166.558C136.968 166.807 136.757 167 136.5 167H135V169H136.5L136.558 169.003C136.807 169.032 137 169.244 137 169.5C137 169.776 136.776 170 136.5 170H134.929L134.854 169.997C134.388 169.962 134 169.599 134 169.125V166.875L134.003 166.801Z" fill="#6B48F4"/>
<path d="M142.997 166.801C142.957 166.339 142.546 166 142.072 166H140.5L140.442 166.003C140.193 166.032 140 166.244 140 166.5L140.003 166.558C140.032 166.807 140.244 167 140.5 167H142V169H140.5L140.442 169.003C140.193 169.032 140 169.244 140 169.5C140 169.776 140.224 170 140.5 170H142.072L142.146 169.997C142.613 169.962 143 169.599 143 169.125V166.875L142.997 166.801Z" fill="#6B48F4"/>
<path d="M145.589 143.462C145.822 142.823 146.505 142.5 147.5 142.5L147.615 142.502C148.631 142.538 149.275 143.055 149.451 143.959L149.458 144H150L150.145 144.001C151.962 144.034 153 144.69 153 146L152.998 146.102C152.949 147.243 152.075 147.862 150.561 147.979L150.428 147.988L150.412 148.038C150.178 148.677 149.495 149 148.5 149L148.375 148.999C147.879 148.993 147.473 148.946 147.163 148.84L147.107 148.929C146.64 149.631 145.925 150 145 150L144.875 149.998C144.093 149.969 143.469 149.666 143.026 149.11L142.992 149.161C142.612 149.707 142.114 150 141.5 150L141.354 149.998C140.97 149.984 140.626 149.919 140.327 149.798L140.318 149.794L139.985 151.121L139.968 151.177C139.88 151.411 139.628 151.547 139.379 151.485C139.111 151.418 138.948 151.147 139.015 150.879L139.515 148.879L139.533 148.821C139.658 148.489 140.093 148.386 140.354 148.646L140.409 148.698C140.641 148.894 140.998 149 141.5 149C141.913 149 142.253 148.66 142.526 147.842C142.678 147.386 143.323 147.386 143.475 147.842C143.741 148.641 144.219 149 145 149C145.781 149 146.259 148.641 146.526 147.842L146.547 147.787C146.737 147.366 147.342 147.43 147.475 147.833L147.488 147.884L147.517 147.895L147.594 147.919C147.789 147.971 148.094 148 148.5 148C149.257 148 149.5 147.838 149.5 147.5C149.5 147.224 149.724 147 150 147C151.427 147 152 146.656 152 146C152 145.344 151.427 145 150 145H149L148.942 144.997C148.693 144.968 148.5 144.756 148.5 144.5C148.5 143.776 148.224 143.5 147.5 143.5C146.744 143.5 146.5 143.662 146.5 144L146.497 144.058C146.468 144.307 146.257 144.5 146 144.5C145.244 144.5 145 144.662 145 145L144.997 145.058C144.968 145.307 144.757 145.5 144.5 145.5C144.224 145.5 144 145.276 144 145L144.003 144.902C144.045 144.1 144.605 143.639 145.529 143.527L145.569 143.523L145.589 143.462Z" fill="#6B48F4"/>
<path fill-rule="evenodd" clip-rule="evenodd" d="M140.5 150.5H134.5C134.224 150.5 134 150.724 134 151V152.5C134 153.051 134.446 153.498 134.997 153.5L134.052 162H131C130.473 162 130.041 162.408 130.003 162.925L130 163V164C130 164.527 130.408 164.959 130.925 164.997L131 165V173H129.5L129.442 173.003C129.193 173.032 129 173.244 129 173.5C129 173.776 129.224 174 129.5 174H148.5L148.558 173.997C148.807 173.968 149 173.756 149 173.5C149 173.224 148.776 173 148.5 173H146V160H155V162H150.5L150.442 162.003C150.193 162.032 150 162.244 150 162.5C150 162.776 150.224 163 150.5 163H155V164.5L155.003 164.558C155.032 164.807 155.244 165 155.5 165C155.776 165 156 164.776 156 164.5V160H157C157.552 160 158 159.552 158 159V158C158 157.448 157.552 157 157 157H155.95C155.725 155.893 154.769 155.052 153.608 155.002L153.5 155H147.5C146.291 155 145.282 155.859 145.05 157H144C143.448 157 143 157.448 143 158V159C143 159.552 143.448 160 144 160H145V162H135.059L135.997 153.555L136 153.5H139C139 153.518 139.001 153.537 139.003 153.555L139.164 155H137.5L137.442 155.003C137.193 155.032 137 155.244 137 155.5C137 155.776 137.224 156 137.5 156H139.275L139.386 157H138.5L138.442 157.003C138.193 157.032 138 157.244 138 157.5C138 157.776 138.224 158 138.5 158H139.497L139.78 160.551L139.79 160.608C139.846 160.852 140.078 161.021 140.333 160.993C140.607 160.962 140.805 160.715 140.774 160.44L140.003 153.5C140.554 153.498 141 153.051 141 152.5V151C141 150.724 140.776 150.5 140.5 150.5ZM153.5 156C154.153 156 154.709 156.417 154.915 157H146.085C146.282 156.444 146.797 156.038 147.412 156.003L147.5 156H153.5ZM144 158V159H157V158H144ZM134.494 163C134.498 163 134.503 163 134.507 163H145V171H144.5L144.442 171.003C144.193 171.032 144 171.244 144 171.5C144 171.776 144.224 172 144.5 172H145V173H132V172H142.5L142.558 171.997C142.807 171.968 143 171.756 143 171.5C143 171.224 142.776 171 142.5 171H132V165H142.5C142.776 165 143 164.776 143 164.5C143 164.244 142.807 164.032 142.558 164.003L142.5 164H131V163H134.494ZM140 151.5H135V152.5H140V151.5Z" fill="#6B48F4"/>
<path d="M159 173.5C159 173.224 158.776 173 158.5 173H156V166.5L155.997 166.442C155.968 166.193 155.756 166 155.5 166C155.224 166 155 166.224 155 166.5V168H150.5L150.442 168.003C150.193 168.032 150 168.244 150 168.5C150 168.776 150.224 169 150.5 169H155V173H151.5L151.442 173.003C151.193 173.032 151 173.244 151 173.5C151 173.776 151.224 174 151.5 174H158.5L158.558 173.997C158.807 173.968 159 173.756 159 173.5Z" fill="#6B48F4"/>
<path d="M153.5 175C153.776 175 154 175.224 154 175.5C154 175.756 153.807 175.968 153.558 175.997L153.5 176H133.5C133.224 176 133 175.776 133 175.5C133 175.244 133.193 175.032 133.442 175.003L133.5 175H153.5Z" fill="#6B48F4"/>
<path d="M151 164.5C151 164.224 150.776 164 150.5 164H147.5L147.442 164.003C147.193 164.032 147 164.244 147 164.5C147 164.776 147.224 165 147.5 165H150.5L150.558 164.997C150.807 164.968 151 164.756 151 164.5Z" fill="#6B48F4"/>
<rect x="49" y="41" width="190" height="30" rx="15" fill="#6B48F4"/>
<path d="M95.2445 86.36C93.4805 86.36 92.5085 87.392 92.5085 88.592C92.5085 89.396 92.9165 90.056 93.6965 90.416C92.6765 90.812 92.1245 91.616 92.1245 92.66C92.1245 94.124 93.2645 95.24 95.2445 95.24C97.2365 95.24 98.3645 94.124 98.3645 92.66C98.3645 91.616 97.8125 90.812 96.8045 90.416C97.5725 90.056 97.9805 89.396 97.9805 88.592C97.9805 87.392 97.0205 86.36 95.2445 86.36ZM95.2685 89.924C94.4165 89.924 93.8645 89.444 93.8645 88.712C93.8645 87.992 94.4045 87.5 95.2685 87.5C96.0725 87.5 96.6245 87.992 96.6245 88.712C96.6245 89.444 96.0725 89.924 95.2685 89.924ZM95.2565 94.088C94.1765 94.088 93.4805 93.5 93.4805 92.6C93.4805 91.688 94.1765 91.052 95.2565 91.052C96.3125 91.052 97.0085 91.688 97.0085 92.6C97.0085 93.488 96.3125 94.088 95.2565 94.088ZM101.089 95L105.325 87.788V86.6H99.3972V87.788H103.921L99.5772 95H101.089ZM111.507 86.336C110.283 86.336 109.467 87.236 109.467 88.34C109.467 89.444 110.283 90.344 111.507 90.344C112.707 90.344 113.535 89.444 113.535 88.34C113.535 87.236 112.707 86.336 111.507 86.336ZM110.271 94.988H111.555L117.711 86.588H116.427L110.271 94.988ZM111.507 89.492C110.871 89.492 110.415 89 110.415 88.34C110.415 87.68 110.871 87.188 111.507 87.188C112.131 87.188 112.587 87.68 112.587 88.34C112.587 88.988 112.131 89.492 111.507 89.492ZM116.499 91.22C115.275 91.22 114.459 92.12 114.459 93.224C114.459 94.328 115.275 95.228 116.499 95.228C117.699 95.228 118.527 94.328 118.527 93.224C118.527 92.12 117.699 91.22 116.499 91.22ZM116.499 94.376C115.863 94.376 115.407 93.884 115.407 93.224C115.407 92.564 115.863 92.072 116.499 92.072C117.123 92.072 117.579 92.564 117.579 93.224C117.579 93.872 117.123 94.376 116.499 94.376ZM122.723 91.976C122.723 93.74 123.911 95.24 125.819 95.24C126.683 95.24 127.331 94.928 127.835 94.388V95H129.095V86H127.835V89.564C127.331 89.024 126.683 88.712 125.819 88.712C123.911 88.712 122.723 90.212 122.723 91.976ZM124.031 91.976C124.031 90.788 124.811 89.876 125.975 89.876C126.731 89.876 127.391 90.224 127.835 90.884V93.068C127.427 93.704 126.755 94.076 125.975 94.076C124.811 94.076 124.031 93.164 124.031 91.976ZM136.55 94.016L135.65 93.296C135.278 93.8 134.666 94.124 133.934 94.124C132.77 94.124 131.966 93.44 131.882 92.12H136.346C136.394 91.94 136.43 91.664 136.43 91.388C136.43 89.852 135.35 88.712 133.682 88.712C131.762 88.712 130.61 90.164 130.61 91.976C130.61 93.74 131.846 95.24 133.934 95.24C135.062 95.24 135.986 94.772 136.55 94.016ZM133.658 89.744C134.63 89.744 135.17 90.44 135.194 91.196H131.942C132.134 90.26 132.758 89.744 133.658 89.744ZM137.381 94.148C137.945 94.832 138.701 95.24 139.721 95.24C140.849 95.24 141.809 94.532 141.821 93.344C141.821 91.268 138.857 91.676 138.857 90.464C138.857 90.056 139.145 89.72 139.721 89.72C140.225 89.72 140.645 90.02 140.969 90.452L141.809 89.72C141.377 89.144 140.597 88.712 139.709 88.712C138.497 88.712 137.657 89.504 137.657 90.5C137.657 92.636 140.621 92.192 140.621 93.416C140.621 93.872 140.297 94.232 139.709 94.232C139.109 94.232 138.629 93.908 138.233 93.404L137.381 94.148ZM146.606 95H147.842V90.92C148.166 90.392 148.646 89.876 149.474 89.876C150.338 89.876 150.866 90.452 150.866 91.412V95H152.114V91.364C152.114 89.612 151.106 88.712 149.762 88.712C148.898 88.712 148.298 89.06 147.842 89.54V86H146.606V95ZM156.843 88.712C154.887 88.712 153.555 90.188 153.555 91.976C153.555 93.764 154.887 95.24 156.843 95.24C158.811 95.24 160.131 93.764 160.131 91.976C160.131 90.188 158.811 88.712 156.843 88.712ZM156.855 94.076C155.691 94.076 154.851 93.14 154.851 91.976C154.851 90.812 155.691 89.876 156.855 89.876C157.995 89.876 158.835 90.8 158.835 91.976C158.835 93.128 157.995 94.076 156.855 94.076ZM161.676 95H162.912V90.92C163.2 90.404 163.656 89.876 164.424 89.876C165.216 89.876 165.696 90.404 165.696 91.292V95H166.944V91.244C166.944 91.124 166.944 91.016 166.932 90.908C167.256 90.332 167.724 89.876 168.444 89.876C169.224 89.876 169.716 90.404 169.716 91.292V95H170.964V91.244C170.964 89.576 169.992 88.712 168.732 88.712C167.688 88.712 167.088 89.204 166.62 89.804C166.236 89.084 165.54 88.712 164.712 88.712C163.908 88.712 163.344 89.048 162.912 89.516V88.952H161.676V95ZM172.879 95H174.115V90.92C174.403 90.404 174.859 89.876 175.627 89.876C176.419 89.876 176.899 90.404 176.899 91.292V95H178.147V91.244C178.147 91.124 178.147 91.016 178.135 90.908C178.459 90.332 178.927 89.876 179.647 89.876C180.427 89.876 180.919 90.404 180.919 91.292V95H182.167V91.244C182.167 89.576 181.195 88.712 179.935 88.712C178.891 88.712 178.291 89.204 177.823 89.804C177.439 89.084 176.743 88.712 175.915 88.712C175.111 88.712 174.547 89.048 174.115 89.516V88.952H172.879V95ZM189.542 94.016L188.642 93.296C188.27 93.8 187.658 94.124 186.926 94.124C185.762 94.124 184.958 93.44 184.874 92.12H189.338C189.386 91.94 189.422 91.664 189.422 91.388C189.422 89.852 188.342 88.712 186.674 88.712C184.754 88.712 183.602 90.164 183.602 91.976C183.602 93.74 184.838 95.24 186.926 95.24C188.054 95.24 188.978 94.772 189.542 94.016ZM186.65 89.744C187.622 89.744 188.162 90.44 188.186 91.196H184.934C185.126 90.26 185.75 89.744 186.65 89.744ZM190.373 94.148C190.937 94.832 191.693 95.24 192.713 95.24C193.841 95.24 194.801 94.532 194.813 93.344C194.813 91.268 191.849 91.676 191.849 90.464C191.849 90.056 192.137 89.72 192.713 89.72C193.217 89.72 193.637 90.02 193.961 90.452L194.801 89.72C194.369 89.144 193.589 88.712 192.701 88.712C191.489 88.712 190.649 89.504 190.649 90.5C190.649 92.636 193.613 92.192 193.613 93.416C193.613 93.872 193.289 94.232 192.701 94.232C192.101 94.232 191.621 93.908 191.225 93.404L190.373 94.148Z" fill="black"/>
<path d="M112.452 237H118.152V235.812H114.048L116.244 233.64C117.18 232.692 117.924 231.828 117.924 230.688C117.924 229.284 116.784 228.36 115.356 228.36C113.976 228.36 112.992 229.032 112.296 230.124L113.376 230.784C113.844 230.004 114.384 229.536 115.236 229.536C116.004 229.536 116.58 229.992 116.58 230.796C116.58 231.588 116.148 232.056 115.308 232.92L112.452 235.812V237ZM118.737 234.66H122.793V237H124.101V234.66H125.025V233.472H124.101V228.6H122.541L118.737 233.472V234.66ZM120.117 233.472L122.793 230.052V233.472H120.117ZM131.171 228.336C129.947 228.336 129.131 229.236 129.131 230.34C129.131 231.444 129.947 232.344 131.171 232.344C132.371 232.344 133.199 231.444 133.199 230.34C133.199 229.236 132.371 228.336 131.171 228.336ZM129.935 236.988H131.219L137.375 228.588H136.091L129.935 236.988ZM131.171 231.492C130.535 231.492 130.079 231 130.079 230.34C130.079 229.68 130.535 229.188 131.171 229.188C131.795 229.188 132.251 229.68 132.251 230.34C132.251 230.988 131.795 231.492 131.171 231.492ZM136.163 233.22C134.939 233.22 134.123 234.12 134.123 235.224C134.123 236.328 134.939 237.228 136.163 237.228C137.363 237.228 138.191 236.328 138.191 235.224C138.191 234.12 137.363 233.22 136.163 233.22ZM136.163 236.376C135.527 236.376 135.071 235.884 135.071 235.224C135.071 234.564 135.527 234.072 136.163 234.072C136.787 234.072 137.243 234.564 137.243 235.224C137.243 235.872 136.787 236.376 136.163 236.376ZM142.387 233.976C142.387 235.74 143.575 237.24 145.483 237.24C146.347 237.24 146.995 236.928 147.499 236.388V237H148.759V228H147.499V231.564C146.995 231.024 146.347 230.712 145.483 230.712C143.575 230.712 142.387 232.212 142.387 233.976ZM143.695 233.976C143.695 232.788 144.475 231.876 145.639 231.876C146.395 231.876 147.055 232.224 147.499 232.884V235.068C147.091 235.704 146.419 236.076 145.639 236.076C144.475 236.076 143.695 235.164 143.695 233.976ZM156.214 236.016L155.314 235.296C154.942 235.8 154.33 236.124 153.598 236.124C152.434 236.124 151.63 235.44 151.546 234.12H156.01C156.058 233.94 156.094 233.664 156.094 233.388C156.094 231.852 155.014 230.712 153.346 230.712C151.426 230.712 150.274 232.164 150.274 233.976C150.274 235.74 151.51 237.24 153.598 237.24C154.726 237.24 155.65 236.772 156.214 236.016ZM153.322 231.744C154.294 231.744 154.834 232.44 154.858 233.196H151.606C151.798 232.26 152.422 231.744 153.322 231.744ZM157.045 236.148C157.609 236.832 158.365 237.24 159.385 237.24C160.513 237.24 161.473 236.532 161.485 235.344C161.485 233.268 158.521 233.676 158.521 232.464C158.521 232.056 158.809 231.72 159.385 231.72C159.889 231.72 160.309 232.02 160.633 232.452L161.473 231.72C161.041 231.144 160.261 230.712 159.373 230.712C158.161 230.712 157.321 231.504 157.321 232.5C157.321 234.636 160.285 234.192 160.285 235.416C160.285 235.872 159.961 236.232 159.373 236.232C158.773 236.232 158.293 235.908 157.897 235.404L157.045 236.148ZM166.558 237L167.926 237V233.352H172.654V237H174.034V228.6H172.654V232.092H167.926V228.6H166.558V237Z" fill="black"/>
<path d="M97.9165 51.36C95.4445 51.36 94.3645 53.22 94.3645 55.896C94.3645 58.752 95.5885 60.24 97.6525 60.24C99.5125 60.24 100.616 58.932 100.616 57.384C100.616 55.884 99.5485 54.696 97.9285 54.696C97.0405 54.696 96.2965 54.996 95.7325 55.548C95.8045 53.652 96.5245 52.56 97.9045 52.56C98.6365 52.56 99.1645 52.92 99.6325 53.58L100.664 52.764C100.1 51.96 99.2485 51.36 97.9165 51.36ZM97.7125 55.872C98.6125 55.872 99.2605 56.544 99.2605 57.432C99.2605 58.344 98.6485 59.04 97.6285 59.04C96.6685 59.04 95.9605 58.44 95.7685 56.856C96.2365 56.196 96.9325 55.872 97.7125 55.872ZM105.041 51.36C102.569 51.36 101.489 53.22 101.489 55.896C101.489 58.752 102.713 60.24 104.777 60.24C106.637 60.24 107.741 58.932 107.741 57.384C107.741 55.884 106.673 54.696 105.053 54.696C104.165 54.696 103.421 54.996 102.857 55.548C102.929 53.652 103.649 52.56 105.029 52.56C105.761 52.56 106.289 52.92 106.757 53.58L107.789 52.764C107.225 51.96 106.373 51.36 105.041 51.36ZM104.837 55.872C105.737 55.872 106.385 56.544 106.385 57.432C106.385 58.344 105.773 59.04 104.753 59.04C103.793 59.04 103.085 58.44 102.893 56.856C103.361 56.196 104.057 55.872 104.837 55.872ZM113.911 51.336C112.687 51.336 111.871 52.236 111.871 53.34C111.871 54.444 112.687 55.344 113.911 55.344C115.111 55.344 115.939 54.444 115.939 53.34C115.939 52.236 115.111 51.336 113.911 51.336ZM112.675 59.988H113.959L120.115 51.588H118.831L112.675 59.988ZM113.911 54.492C113.275 54.492 112.819 54 112.819 53.34C112.819 52.68 113.275 52.188 113.911 52.188C114.535 52.188 114.991 52.68 114.991 53.34C114.991 53.988 114.535 54.492 113.911 54.492ZM118.903 56.22C117.679 56.22 116.863 57.12 116.863 58.224C116.863 59.328 117.679 60.228 118.903 60.228C120.103 60.228 120.931 59.328 120.931 58.224C120.931 57.12 120.103 56.22 118.903 56.22ZM118.903 59.376C118.267 59.376 117.811 58.884 117.811 58.224C117.811 57.564 118.267 57.072 118.903 57.072C119.527 57.072 119.983 57.564 119.983 58.224C119.983 58.872 119.527 59.376 118.903 59.376ZM125.128 56.976C125.128 58.74 126.316 60.24 128.224 60.24C129.088 60.24 129.736 59.928 130.24 59.388V60H131.5V51H130.24V54.564C129.736 54.024 129.088 53.712 128.224 53.712C126.316 53.712 125.128 55.212 125.128 56.976ZM126.436 56.976C126.436 55.788 127.216 54.876 128.38 54.876C129.136 54.876 129.796 55.224 130.24 55.884V58.068C129.832 58.704 129.16 59.076 128.38 59.076C127.216 59.076 126.436 58.164 126.436 56.976ZM138.954 59.016L138.054 58.296C137.682 58.8 137.07 59.124 136.338 59.124C135.174 59.124 134.37 58.44 134.286 57.12H138.75C138.798 56.94 138.834 56.664 138.834 56.388C138.834 54.852 137.754 53.712 136.086 53.712C134.166 53.712 133.014 55.164 133.014 56.976C133.014 58.74 134.25 60.24 136.338 60.24C137.466 60.24 138.39 59.772 138.954 59.016ZM136.062 54.744C137.034 54.744 137.574 55.44 137.598 56.196H134.346C134.538 55.26 135.162 54.744 136.062 54.744ZM139.785 59.148C140.349 59.832 141.105 60.24 142.125 60.24C143.253 60.24 144.213 59.532 144.225 58.344C144.225 56.268 141.261 56.676 141.261 55.464C141.261 55.056 141.549 54.72 142.125 54.72C142.629 54.72 143.049 55.02 143.373 55.452L144.213 54.72C143.781 54.144 143.001 53.712 142.113 53.712C140.901 53.712 140.061 54.504 140.061 55.5C140.061 57.636 143.025 57.192 143.025 58.416C143.025 58.872 142.701 59.232 142.113 59.232C141.513 59.232 141.033 58.908 140.637 58.404L139.785 59.148ZM148.23 53.952V55.068H149.37V60H150.618V55.068H152.622V53.952H150.618V53.22C150.618 52.536 151.026 52.116 151.638 52.116C151.974 52.116 152.238 52.224 152.442 52.38L152.97 51.336C152.622 51.144 152.166 51 151.614 51C150.21 51 149.37 51.972 149.37 53.256V53.952H148.23ZM158.923 59.016L158.023 58.296C157.651 58.8 157.039 59.124 156.307 59.124C155.143 59.124 154.339 58.44 154.255 57.12H158.719C158.767 56.94 158.803 56.664 158.803 56.388C158.803 54.852 157.723 53.712 156.055 53.712C154.135 53.712 152.983 55.164 152.983 56.976C152.983 58.74 154.219 60.24 156.307 60.24C157.435 60.24 158.359 59.772 158.923 59.016ZM156.031 54.744C157.003 54.744 157.543 55.44 157.567 56.196H154.315C154.507 55.26 155.131 54.744 156.031 54.744ZM160.424 60H161.66V55.92C161.948 55.404 162.404 54.876 163.172 54.876C163.964 54.876 164.444 55.404 164.444 56.292V60H165.692V56.244C165.692 56.124 165.692 56.016 165.68 55.908C166.004 55.332 166.472 54.876 167.192 54.876C167.972 54.876 168.464 55.404 168.464 56.292V60H169.712V56.244C169.712 54.576 168.74 53.712 167.48 53.712C166.436 53.712 165.836 54.204 165.368 54.804C164.984 54.084 164.288 53.712 163.46 53.712C162.656 53.712 162.092 54.048 161.66 54.516V53.952H160.424V60ZM171.627 60H172.863V55.92C173.151 55.404 173.607 54.876 174.375 54.876C175.167 54.876 175.647 55.404 175.647 56.292V60H176.895V56.244C176.895 56.124 176.895 56.016 176.883 55.908C177.207 55.332 177.675 54.876 178.395 54.876C179.175 54.876 179.667 55.404 179.667 56.292V60H180.915V56.244C180.915 54.576 179.943 53.712 178.683 53.712C177.639 53.712 177.039 54.204 176.571 54.804C176.187 54.084 175.491 53.712 174.663 53.712C173.859 53.712 173.295 54.048 172.863 54.516V53.952H171.627V60ZM188.29 59.016L187.39 58.296C187.018 58.8 186.406 59.124 185.674 59.124C184.51 59.124 183.706 58.44 183.622 57.12H188.086C188.134 56.94 188.17 56.664 188.17 56.388C188.17 54.852 187.09 53.712 185.422 53.712C183.502 53.712 182.35 55.164 182.35 56.976C182.35 58.74 183.586 60.24 185.674 60.24C186.802 60.24 187.726 59.772 188.29 59.016ZM185.398 54.744C186.37 54.744 186.91 55.44 186.934 56.196H183.682C183.874 55.26 184.498 54.744 185.398 54.744ZM189.121 59.148C189.685 59.832 190.441 60.24 191.461 60.24C192.589 60.24 193.549 59.532 193.561 58.344C193.561 56.268 190.597 56.676 190.597 55.464C190.597 55.056 190.885 54.72 191.461 54.72C191.965 54.72 192.385 55.02 192.709 55.452L193.549 54.72C193.117 54.144 192.337 53.712 191.449 53.712C190.237 53.712 189.397 54.504 189.397 55.5C189.397 57.636 192.361 57.192 192.361 58.416C192.361 58.872 192.037 59.232 191.449 59.232C190.849 59.232 190.369 58.908 189.973 58.404L189.121 59.148Z" fill="white"/>
<path d="M114.14 199.66H118.196V202H119.504V199.66H120.428V198.472H119.504V193.6H117.944L114.14 198.472V199.66ZM115.52 198.472L118.196 195.052V198.472H115.52ZM124.549 193.36C122.401 193.36 121.357 195.292 121.357 197.8C121.357 200.308 122.401 202.24 124.549 202.24C126.697 202.24 127.729 200.308 127.729 197.8C127.729 195.292 126.697 193.36 124.549 193.36ZM124.549 194.584C125.761 194.584 126.373 195.916 126.373 197.8C126.373 199.672 125.761 201.016 124.549 201.016C123.325 201.016 122.713 199.684 122.713 197.8C122.713 195.928 123.325 194.584 124.549 194.584ZM133.839 193.336C132.615 193.336 131.799 194.236 131.799 195.34C131.799 196.444 132.615 197.344 133.839 197.344C135.039 197.344 135.867 196.444 135.867 195.34C135.867 194.236 135.039 193.336 133.839 193.336ZM132.603 201.988H133.887L140.043 193.588H138.759L132.603 201.988ZM133.839 196.492C133.203 196.492 132.747 196 132.747 195.34C132.747 194.68 133.203 194.188 133.839 194.188C134.463 194.188 134.919 194.68 134.919 195.34C134.919 195.988 134.463 196.492 133.839 196.492ZM138.831 198.22C137.607 198.22 136.791 199.12 136.791 200.224C136.791 201.328 137.607 202.228 138.831 202.228C140.031 202.228 140.859 201.328 140.859 200.224C140.859 199.12 140.031 198.22 138.831 198.22ZM138.831 201.376C138.195 201.376 137.739 200.884 137.739 200.224C137.739 199.564 138.195 199.072 138.831 199.072C139.455 199.072 139.911 199.564 139.911 200.224C139.911 200.872 139.455 201.376 138.831 201.376ZM145.055 198.976C145.055 200.74 146.243 202.24 148.151 202.24C149.015 202.24 149.663 201.928 150.167 201.388V202H151.427V193H150.167V196.564C149.663 196.024 149.015 195.712 148.151 195.712C146.243 195.712 145.055 197.212 145.055 198.976ZM146.363 198.976C146.363 197.788 147.143 196.876 148.307 196.876C149.063 196.876 149.723 197.224 150.167 197.884V200.068C149.759 200.704 149.087 201.076 148.307 201.076C147.143 201.076 146.363 200.164 146.363 198.976ZM158.882 201.016L157.982 200.296C157.61 200.8 156.998 201.124 156.266 201.124C155.102 201.124 154.298 200.44 154.214 199.12H158.678C158.726 198.94 158.762 198.664 158.762 198.388C158.762 196.852 157.682 195.712 156.014 195.712C154.094 195.712 152.942 197.164 152.942 198.976C152.942 200.74 154.178 202.24 156.266 202.24C157.394 202.24 158.318 201.772 158.882 201.016ZM155.99 196.744C156.962 196.744 157.502 197.44 157.526 198.196H154.274C154.466 197.26 155.09 196.744 155.99 196.744ZM159.713 201.148C160.277 201.832 161.033 202.24 162.053 202.24C163.181 202.24 164.141 201.532 164.153 200.344C164.153 198.268 161.189 198.676 161.189 197.464C161.189 197.056 161.477 196.72 162.053 196.72C162.557 196.72 162.977 197.02 163.301 197.452L164.141 196.72C163.709 196.144 162.929 195.712 162.041 195.712C160.829 195.712 159.989 196.504 159.989 197.5C159.989 199.636 162.953 199.192 162.953 200.416C162.953 200.872 162.629 201.232 162.041 201.232C161.441 201.232 160.961 200.908 160.565 200.404L159.713 201.148ZM169.226 202H170.594V198.304H173.426V197.14H170.594V194.764H173.906V193.6H169.226V202Z" fill="white"/>
</svg>
