<svg width="250" height="136" viewBox="0 0 250 136" fill="none" xmlns="http://www.w3.org/2000/svg">
<circle cx="231.565" cy="117.097" r="18.4352" transform="rotate(-180 231.565 117.097)" fill="#FFB648"/>
<circle cx="231.565" cy="68.536" r="18.4352" transform="rotate(-180 231.565 68.536)" fill="#F45800"/>
<circle cx="178.508" cy="117.097" r="18.4352" transform="rotate(-180 178.508 117.097)" fill="#FFB648"/>
<circle cx="178.508" cy="68.536" r="18.4352" transform="rotate(-180 178.508 68.536)" fill="#F45800"/>
<circle cx="125.45" cy="117.097" r="18.4352" transform="rotate(-180 125.45 117.097)" fill="#FFB648"/>
<circle cx="125.45" cy="68.536" r="18.4352" transform="rotate(-180 125.45 68.536)" fill="#F45800"/>
<ellipse cx="71.9428" cy="117.097" rx="18.8849" ry="18.4352" transform="rotate(-180 71.9428 117.097)" fill="#FFB648"/>
<ellipse cx="71.9428" cy="68.536" rx="18.8849" ry="18.4352" transform="rotate(-180 71.9428 68.536)" fill="#FFB648"/>
<circle cx="18.4354" cy="117.097" r="18.4352" transform="rotate(-180 18.4354 117.097)" fill="#FFB648"/>
<circle cx="18.4354" cy="68.536" r="18.4352" transform="rotate(-180 18.4354 68.536)" fill="#FFB648"/>
<path fill-rule="evenodd" clip-rule="evenodd" d="M114.698 6.00313C114.798 6.00104 114.898 6 115 6L115.152 6.00078C115.202 6.0013 115.252 6.00208 115.302 6.00313L115.597 6.0125L115.885 6.0281C116.027 6.03747 116.166 6.04916 116.301 6.06319L116.568 6.09436C118.007 6.28289 119 6.75328 119 7.5V10.5C119 10.7761 118.776 11 118.5 11C118.244 11 118.032 10.807 118.003 10.5583L118 10.5V8.56305C117.609 8.71878 117.122 8.83308 116.568 8.90564L116.301 8.93681C116.166 8.95084 116.027 8.96253 115.885 8.9719L115.597 8.9875L115.302 8.99688C115.202 8.99896 115.102 9 115 9C114.898 9 114.798 8.99896 114.698 8.99688L114.403 8.9875L114.115 8.9719C113.973 8.96253 113.834 8.95084 113.699 8.93681L113.432 8.90564C111.993 8.71711 111 8.24672 111 7.5C111 6.75328 111.993 6.28289 113.432 6.09436L113.699 6.06319C113.834 6.04916 113.973 6.03747 114.115 6.0281L114.403 6.0125L114.698 6.00313ZM118 7.5L117.989 7.49301C117.876 7.42867 117.715 7.36351 117.517 7.30331L117.414 7.27366C116.791 7.10107 115.927 7 115 7C114.074 7 113.21 7.10107 112.586 7.27366C112.375 7.33204 112.201 7.39634 112.072 7.46079L112 7.5L112.085 7.54565C112.191 7.5972 112.325 7.64853 112.484 7.69669L112.586 7.72634C113.21 7.89893 114.074 8 115 8C115.927 8 116.791 7.89893 117.414 7.72634C117.625 7.66796 117.8 7.60366 117.928 7.53921L118 7.5Z" fill="#FFB648"/>
<path d="M134.866 24.902C134.336 24.3296 133.611 24 132.838 24C131.6 24 130.551 24.8361 130.162 26H129.5L129.442 26.0034C129.193 26.0322 129 26.2436 129 26.5C129 26.7761 129.224 27 129.5 27H130C130 27.1703 130.013 27.3374 130.039 27.5H129.5L129.442 27.5034C129.193 27.5322 129 27.7436 129 28C129 28.2761 129.224 28.5 129.5 28.5H130.38C130.87 29.3959 131.786 30 132.838 30C133.544 30 134.21 29.7258 134.726 29.2396C134.923 29.0535 134.937 28.7372 134.757 28.5332C134.577 28.3292 134.271 28.3148 134.073 28.5009C133.734 28.8211 133.299 29 132.838 29C132.364 29 131.931 28.8114 131.601 28.5H132.5L132.558 28.4966C132.807 28.4678 133 28.2564 133 28C133 27.7239 132.776 27.5 132.5 27.5H131.027C130.988 27.3403 130.968 27.1728 130.968 27H132.5L132.558 26.9966C132.807 26.9678 133 26.7564 133 26.5C133 26.2239 132.776 26 132.5 26H131.218C131.542 25.4014 132.147 25 132.838 25C133.343 25 133.817 25.2153 134.166 25.5931C134.351 25.7927 134.657 25.7998 134.851 25.6089C135.044 25.418 135.051 25.1015 134.866 24.902Z" fill="#FFB648"/>
<path d="M111.5 10C111.756 10 111.968 10.1755 111.997 10.4015L112 10.4545V19.5455C112 19.7965 111.776 20 111.5 20C111.244 20 111.032 19.8245 111.003 19.5985L111 19.5455V10.4545C111 10.2035 111.224 10 111.5 10Z" fill="#FFB648"/>
<path d="M111.5 22C111.776 22 112 21.7761 112 21.5C112 21.2239 111.776 21 111.5 21C111.224 21 111 21.2239 111 21.5C111 21.7761 111.224 22 111.5 22Z" fill="#FFB648"/>
<path fill-rule="evenodd" clip-rule="evenodd" d="M135 14C134.898 14 134.798 14.001 134.698 14.0031L134.403 14.0125L134.115 14.0281C133.973 14.0375 133.834 14.0492 133.699 14.0632L133.432 14.0944C131.993 14.2829 131 14.7533 131 15.5C131 16.2467 131.993 16.7171 133.432 16.9056L133.699 16.9368C133.834 16.9508 133.973 16.9625 134.115 16.9719L134.403 16.9875L134.698 16.9969C134.798 16.999 134.898 17 135 17C135.102 17 135.202 16.999 135.302 16.9969L135.597 16.9875L135.885 16.9719C136.027 16.9625 136.166 16.9508 136.301 16.9368L136.568 16.9056C137.122 16.8331 137.609 16.7188 138 16.563V18.5L138.003 18.5583C138.032 18.807 138.244 19 138.5 19C138.776 19 139 18.7761 139 18.5V15.5C139 14.7533 138.007 14.2829 136.568 14.0944L136.301 14.0632C136.166 14.0492 136.027 14.0375 135.885 14.0281L135.597 14.0125L135.302 14.0031C135.252 14.0021 135.202 14.0013 135.152 14.0008L135 14ZM137.928 15.5392L138 15.5L137.989 15.493C137.876 15.4287 137.715 15.3635 137.517 15.3033L137.414 15.2737C136.791 15.1011 135.927 15 135 15C134.074 15 133.21 15.1011 132.586 15.2737C132.375 15.332 132.201 15.3963 132.072 15.4608L132 15.5L132.085 15.5456C132.191 15.5972 132.325 15.6485 132.484 15.6967L132.586 15.7263C133.21 15.8989 134.074 16 135 16C135.927 16 136.791 15.8989 137.414 15.7263C137.625 15.668 137.8 15.6037 137.928 15.5392Z" fill="#FFB648"/>
<path d="M131.997 17.4417C131.968 17.193 131.756 17 131.5 17C131.224 17 131 17.2239 131 17.5V19.5L131.003 19.5583C131.032 19.807 131.244 20 131.5 20C131.776 20 132 19.7761 132 19.5V17.5L131.997 17.4417Z" fill="#FFB648"/>
<path fill-rule="evenodd" clip-rule="evenodd" d="M123.331 11L122.997 11.006C122.942 11.0075 122.887 11.0093 122.832 11.0112L122.507 11.0262L122.189 11.0469C122.031 11.0588 121.877 11.0728 121.725 11.0889L121.426 11.1241C121.377 11.1304 121.328 11.1369 121.279 11.1437L120.993 11.1873C119.211 11.481 118 12.1085 118 12.9996V15.2858L118.002 15.3599C118.004 15.3781 118.005 15.3961 118.007 15.4141C118.003 15.442 118 15.4707 118 15.5V17.7858L118.002 17.8599C118.004 17.8781 118.005 17.8961 118.007 17.9141C118.003 17.942 118 17.9707 118 18V20.2858L118.002 20.3599C118.004 20.378 118.005 20.396 118.007 20.4138C118.003 20.4417 118 20.4703 118 20.4996V22.7854L118.002 22.8595C118.007 22.9296 118.018 22.9982 118.036 23.0654C117.962 23.0588 117.887 23.0526 117.811 23.0469L117.493 23.0262L117.168 23.0112C117.113 23.0093 117.058 23.0075 117.003 23.006L116.669 23H116.331L115.997 23.006C115.942 23.0075 115.887 23.0093 115.832 23.0112L115.507 23.0262L115.189 23.0469C115.031 23.0588 114.877 23.0728 114.725 23.0889L114.426 23.1241C114.377 23.1304 114.328 23.1369 114.279 23.1437L113.993 23.1873C112.211 23.481 111 24.1085 111 24.9996V27.2855L111.002 27.3596C111.004 27.3778 111.005 27.3959 111.007 27.4139C111.003 27.4418 111 27.4705 111 27.4998V29.7856L111.002 29.8597C111.067 30.8409 112.419 31.5428 114.326 31.8408L114.616 31.8825C114.714 31.8954 114.813 31.9072 114.913 31.918L115.219 31.9473C115.63 31.9821 116.059 32 116.5 32C116.941 32 117.37 31.9821 117.781 31.9473L118.087 31.918C118.187 31.9072 118.286 31.8954 118.384 31.8825L118.674 31.8408C120.543 31.5487 121.879 30.8685 121.992 29.9176C122.469 29.972 122.967 30 123.475 30C124.72 30 126.245 29.8408 127.092 29.6018C128.061 31.6125 130.119 33 132.5 33C135.814 33 138.5 30.3136 138.5 26.9998C138.5 23.686 135.814 20.9996 132.5 20.9996C131.194 20.9996 129.985 21.417 129 22.1257V20.4996L128.997 20.4413C128.996 20.4366 128.995 20.432 128.995 20.4274C128.994 20.4228 128.993 20.4183 128.993 20.4138C128.998 20.3717 129 20.329 129 20.2858V18L128.997 17.9417C128.996 17.9324 128.994 17.9232 128.993 17.9141C128.998 17.8719 129 17.8291 129 17.7858V15.5L128.997 15.4417C128.996 15.4324 128.994 15.4232 128.993 15.4141C128.998 15.3719 129 15.3291 129 15.2858V13C129 12.1323 127.852 11.5142 126.146 11.2112L125.865 11.1648C125.769 11.1503 125.673 11.1367 125.574 11.1241L125.275 11.0889C125.123 11.0728 124.969 11.0588 124.811 11.0469L124.493 11.0262L124.168 11.0112C124.113 11.0093 124.058 11.0075 124.003 11.006L123.669 11H123.331ZM127.03 24.5304C126.624 24.6594 126.168 24.7635 125.674 24.8406L125.384 24.8823C125.286 24.8951 125.187 24.907 125.087 24.9178L124.781 24.947C124.37 24.9818 123.941 24.9997 123.5 24.9997C123.059 24.9997 122.63 24.9818 122.219 24.947L121.997 24.9258C121.999 24.9502 122 24.9748 122 24.9996V26.2965C122.477 26.3558 122.98 26.3866 123.495 26.3866C124.513 26.3866 125.726 26.2698 126.568 26.0902C126.652 25.5424 126.809 25.019 127.03 24.5304ZM126.504 27.2338C125.618 27.3989 124.475 27.5 123.495 27.5C122.98 27.5 122.476 27.4713 121.993 27.4154L121.994 27.4251L121.996 27.4347L121.997 27.4415L122 27.4998V28.8026C122.471 28.8604 122.967 28.8904 123.475 28.8904C124.576 28.8904 125.924 28.7563 126.706 28.5634C126.591 28.1371 126.522 27.692 126.504 27.2338ZM119 15.2858V14.2228C119.482 14.4667 120.116 14.6569 120.854 14.788L121.135 14.8344C121.231 14.8489 121.327 14.8625 121.426 14.8752L121.725 14.9103C121.877 14.9265 122.031 14.9405 122.189 14.9523L122.507 14.9731L122.832 14.988C122.887 14.99 122.942 14.9917 122.997 14.9932L123.331 14.9992C123.387 14.9997 123.443 15 123.5 15L123.669 14.9992L124.003 14.9932C124.058 14.9917 124.113 14.99 124.168 14.988L124.493 14.9731L124.811 14.9523C124.969 14.9405 125.123 14.9265 125.275 14.9103L125.574 14.8752C125.623 14.8689 125.672 14.8623 125.721 14.8555L126.007 14.8119C126.805 14.6804 127.488 14.4819 128 14.2228V15.2858L127.997 15.3164C127.957 15.4959 127.581 15.7825 126.873 16.025C125.998 16.3253 124.792 16.5001 123.5 16.5001C122.208 16.5001 121.002 16.3253 120.127 16.025C119.378 15.7683 119 15.4621 119 15.2858ZM119.386 13.336C119.138 13.219 119 13.1021 119 13.0002C119 12.8982 119.138 12.7814 119.386 12.6644L119.519 12.606C119.567 12.5865 119.617 12.5671 119.67 12.5479L119.837 12.4906C119.896 12.4717 119.957 12.453 120.021 12.4345L120.219 12.3801C120.254 12.3711 120.289 12.3623 120.324 12.3535L120.544 12.3022C120.619 12.2855 120.697 12.2693 120.777 12.2535L121.022 12.2079L121.28 12.1657C121.323 12.159 121.368 12.1524 121.412 12.146L121.685 12.1097L121.968 12.0779L122.26 12.0509C122.359 12.0428 122.459 12.0356 122.56 12.0293L122.867 12.0133L123.181 12.0034C123.233 12.0023 123.286 12.0014 123.34 12.0009L123.5 12C123.607 12 123.714 12.0012 123.819 12.0034L124.133 12.0133L124.44 12.0293C124.541 12.0356 124.641 12.0428 124.74 12.0509L125.032 12.0779L125.315 12.1097L125.588 12.146L125.85 12.1863C125.893 12.1934 125.936 12.2006 125.978 12.2079L126.223 12.2535C126.263 12.2614 126.302 12.2694 126.341 12.2775L126.568 12.3276C126.641 12.3447 126.712 12.3622 126.781 12.3801L126.979 12.4345C127.011 12.4438 127.042 12.453 127.073 12.4624L127.248 12.5191C127.332 12.5478 127.41 12.5768 127.481 12.606L127.614 12.6644C127.862 12.7814 128 12.8982 128 13.0002C128 13.1021 127.862 13.219 127.614 13.336L127.481 13.3944C127.433 13.4139 127.383 13.4332 127.33 13.4525L127.163 13.5098C127.104 13.5287 127.043 13.5474 126.979 13.5658L126.781 13.6203C126.746 13.6293 126.711 13.6381 126.676 13.6468L126.456 13.6981C126.381 13.7148 126.303 13.7311 126.223 13.7468L125.978 13.7925L125.72 13.8347C125.677 13.8414 125.632 13.848 125.588 13.8544L125.315 13.8907L125.032 13.9225L124.74 13.9494C124.641 13.9576 124.541 13.9648 124.44 13.9711L124.133 13.9871L123.819 13.997C123.714 13.9992 123.607 14.0004 123.5 14.0004C123.393 14.0004 123.286 13.9992 123.181 13.997L122.867 13.9871L122.56 13.9711C122.459 13.9648 122.359 13.9576 122.26 13.9494L121.968 13.9225L121.685 13.8907L121.412 13.8544L121.15 13.814C121.107 13.807 121.064 13.7998 121.022 13.7925L120.777 13.7468C120.737 13.739 120.698 13.731 120.659 13.7228L120.432 13.6728C120.359 13.6557 120.288 13.6382 120.219 13.6203L120.021 13.5658C119.989 13.5566 119.958 13.5473 119.927 13.538L119.752 13.4812C119.668 13.4526 119.59 13.4236 119.519 13.3944L119.386 13.336ZM119 17.7858V16.6218C119.582 16.9496 120.387 17.1943 121.326 17.341L121.616 17.3827C121.714 17.3956 121.813 17.4074 121.913 17.4182L122.219 17.4475C122.63 17.4823 123.059 17.5002 123.5 17.5002C123.941 17.5002 124.37 17.4823 124.781 17.4475L125.087 17.4182C125.187 17.4074 125.286 17.3956 125.384 17.3827L125.674 17.341C126.613 17.1943 127.418 16.9496 128 16.6218V17.7858L127.997 17.8164C127.957 17.9959 127.581 18.2825 126.873 18.525C125.998 18.8253 124.792 19.0001 123.5 19.0001C122.208 19.0001 121.002 18.8253 120.127 18.525C119.378 18.2683 119 17.9621 119 17.7858ZM121 28.6215C120.418 28.9493 119.613 29.194 118.674 29.3408L118.384 29.3824C118.286 29.3953 118.187 29.4071 118.087 29.4179L117.781 29.4472C117.37 29.482 116.941 29.4999 116.5 29.4999C116.059 29.4999 115.63 29.482 115.219 29.4472L114.913 29.4179C114.813 29.4071 114.714 29.3953 114.616 29.3824L114.326 29.3408C113.387 29.194 112.582 28.9493 112 28.6215V29.7856C112 29.9619 112.378 30.2681 113.127 30.5248C114.002 30.8251 115.208 30.9999 116.5 30.9999C117.792 30.9999 118.998 30.8251 119.873 30.5248C120.581 30.2823 120.957 29.9957 120.997 29.8162L121 29.7856V28.6215ZM119 19.1218C119.582 19.4496 120.387 19.6943 121.326 19.841L121.616 19.8827C121.714 19.8956 121.813 19.9074 121.913 19.9182L122.219 19.9475C122.63 19.9823 123.059 20.0002 123.5 20.0002C123.941 20.0002 124.37 19.9823 124.781 19.9475L125.087 19.9182C125.187 19.9074 125.286 19.8956 125.384 19.8827L125.674 19.841C126.613 19.6943 127.418 19.4496 128 19.1218V20.2858L127.997 20.3164C127.957 20.4959 127.581 20.7825 126.873 21.025C125.998 21.3253 124.792 21.5001 123.5 21.5001C122.208 21.5001 121.002 21.3253 120.127 21.025C119.378 20.7683 119 20.4621 119 20.2858V19.1218ZM128 22.7854V21.6218C127.418 21.9496 126.613 22.1943 125.674 22.341L125.384 22.3827C125.286 22.3956 125.187 22.4074 125.087 22.4182L124.781 22.4475C124.37 22.4823 123.941 22.5002 123.5 22.5002C123.059 22.5002 122.63 22.4823 122.219 22.4475L121.913 22.4182C121.813 22.4074 121.714 22.3956 121.616 22.3827L121.326 22.341C120.387 22.1943 119.582 21.9496 119 21.6218V22.7854C119 22.9114 119.193 23.1038 119.577 23.297C120.105 23.4146 120.567 23.5657 120.943 23.748C121.691 23.9097 122.573 23.9997 123.5 23.9997C124.792 23.9997 125.998 23.8248 126.873 23.5246C127.581 23.2821 127.957 22.9955 127.997 22.8159L128 22.7854ZM120.749 24.7346C120.19 24.6153 119.693 24.4575 119.281 24.2651C119.262 24.2612 119.242 24.2574 119.223 24.2535L118.978 24.2079C118.936 24.2006 118.893 24.1934 118.85 24.1863L118.588 24.146L118.315 24.1097L118.032 24.0779L117.74 24.0509C117.641 24.0428 117.541 24.0356 117.44 24.0293L117.133 24.0133L116.819 24.0034C116.714 24.0012 116.607 24 116.5 24L116.34 24.0009C116.286 24.0014 116.233 24.0023 116.181 24.0034L115.867 24.0133L115.56 24.0293C115.459 24.0356 115.359 24.0428 115.26 24.0509L114.968 24.0779L114.685 24.1097L114.412 24.146C114.368 24.1524 114.323 24.159 114.28 24.1657L114.022 24.2079L113.777 24.2535C113.697 24.2693 113.619 24.2855 113.544 24.3022L113.324 24.3535C113.289 24.3623 113.254 24.3711 113.219 24.3801L113.021 24.4345C112.957 24.453 112.896 24.4717 112.837 24.4906L112.67 24.5479C112.617 24.5671 112.567 24.5865 112.519 24.606L112.386 24.6644C112.138 24.7814 112 24.8982 112 25.0002C112 25.1021 112.138 25.219 112.386 25.336L112.519 25.3944C112.59 25.4236 112.668 25.4526 112.752 25.4812L112.927 25.538C112.958 25.5473 112.989 25.5566 113.021 25.5658L113.219 25.6203C113.288 25.6382 113.359 25.6557 113.432 25.6728L113.659 25.7228C113.698 25.731 113.737 25.739 113.777 25.7468L114.022 25.7925C114.064 25.7998 114.107 25.807 114.15 25.814L114.412 25.8544L114.685 25.8907L114.968 25.9225L115.26 25.9494C115.359 25.9576 115.459 25.9648 115.56 25.9711L115.867 25.9871L116.181 25.997C116.286 25.9992 116.393 26.0004 116.5 26.0004C116.607 26.0004 116.714 25.9992 116.819 25.997L117.133 25.9871L117.44 25.9711C117.541 25.9648 117.641 25.9576 117.74 25.9494L118.032 25.9225L118.315 25.8907L118.588 25.8544C118.632 25.848 118.677 25.8414 118.72 25.8347L118.978 25.7925L119.223 25.7468C119.303 25.7311 119.381 25.7148 119.456 25.6981L119.676 25.6468C119.711 25.6381 119.746 25.6293 119.781 25.6203L119.979 25.5658C120.043 25.5474 120.104 25.5287 120.163 25.5098L120.33 25.4525C120.383 25.4332 120.433 25.4139 120.481 25.3944L120.614 25.336C120.862 25.219 121 25.1021 121 25.0002C121 24.9187 120.912 24.8276 120.749 24.7346ZM121 27.2855V26.2228C120.488 26.4819 119.805 26.6804 119.007 26.8119L118.721 26.8555C118.672 26.8623 118.623 26.8689 118.574 26.8752L118.275 26.9103C118.123 26.9265 117.969 26.9405 117.811 26.9523L117.493 26.9731L117.168 26.988C117.113 26.99 117.058 26.9917 117.003 26.9932L116.669 26.9992L116.5 27C116.443 27 116.387 26.9997 116.331 26.9992L115.997 26.9932C115.942 26.9917 115.887 26.99 115.832 26.988L115.507 26.9731L115.189 26.9523C115.031 26.9405 114.877 26.9265 114.725 26.9103L114.426 26.8752C114.327 26.8625 114.231 26.8489 114.135 26.8344L113.854 26.788C113.116 26.6569 112.482 26.4667 112 26.2228V27.2855C112 27.4618 112.378 27.768 113.127 28.0248C114.002 28.325 115.208 28.4998 116.5 28.4998C117.792 28.4998 118.998 28.325 119.873 28.0248C120.581 27.7822 120.957 27.4956 120.997 27.3161L121 27.2855ZM132.5 21.9996C135.261 21.9996 137.5 24.2383 137.5 26.9998C137.5 29.7613 135.261 32 132.5 32C129.739 32 127.5 29.7613 127.5 26.9998C127.5 24.2383 129.739 21.9996 132.5 21.9996Z" fill="#FFB648"/>
<path d="M135.711 20.0466C135.46 19.9303 135.163 20.0391 135.047 20.2895C134.93 20.54 135.039 20.8373 135.29 20.9536C137.532 21.9949 139 24.1775 139 26.5003C139 26.7765 139.224 27.0004 139.5 27.0004C139.776 27.0004 140 26.7765 140 26.5003C140 23.7785 138.298 21.248 135.711 20.0466Z" fill="#FFB648"/>
</svg>
