<svg width="250" height="83" viewBox="0 0 250 83" fill="none" xmlns="http://www.w3.org/2000/svg">
<circle cx="231.565" cy="64.2989" r="18.4353" transform="rotate(-180 231.565 64.2989)" fill="#6B48F4"/>
<circle cx="231.565" cy="18.4353" r="18.4353" transform="rotate(-180 231.565 18.4353)" fill="#6B48F4"/>
<circle cx="178.507" cy="64.2989" r="18.4353" transform="rotate(-180 178.507 64.2989)" fill="#6B48F4"/>
<circle cx="178.507" cy="18.4353" r="18.4353" transform="rotate(-180 178.507 18.4353)" fill="#6B48F4"/>
<circle cx="125.449" cy="64.2989" r="18.4353" transform="rotate(-180 125.449 64.2989)" fill="#BCABFF"/>
<circle cx="125.449" cy="18.4353" r="18.4353" transform="rotate(-180 125.449 18.4353)" fill="#BCABFF"/>
<ellipse cx="71.9422" cy="64.2989" rx="18.8849" ry="18.4353" transform="rotate(-180 71.9422 64.2989)" fill="#BCABFF"/>
<ellipse cx="71.9422" cy="18.4353" rx="18.8849" ry="18.4353" transform="rotate(-180 71.9422 18.4353)" fill="#BCABFF"/>
<circle cx="18.4353" cy="64.2989" r="18.4353" transform="rotate(-180 18.4353 64.2989)" fill="#BCABFF"/>
<circle cx="18.4353" cy="18.4353" r="18.4353" transform="rotate(-180 18.4353 18.4353)" fill="#BCABFF"/>
</svg>
