<svg width="69" height="68" viewBox="0 0 69 68" fill="none" xmlns="http://www.w3.org/2000/svg">
<path d="M34.2861 34.2857V0C43.3793 0 52.1 3.61224 58.5298 10.0421C64.9596 16.4719 68.5718 25.1926 68.5718 34.2857H34.2861Z" fill="#F45800"/>
<path d="M34.7136 33.8571V0C28.0173 0 21.4713 1.98569 15.9036 5.70596C10.3358 9.42623 5.99624 14.714 3.43368 20.9006C0.871109 27.0872 0.200633 33.8947 1.50702 40.4623C2.8134 47.03 6.03798 53.0627 10.773 57.7977C15.508 62.5327 21.5407 65.7573 28.1084 67.0637C34.676 68.3701 41.4836 67.6996 47.6702 65.1371C53.8567 62.5745 59.1445 58.2349 62.8648 52.6672C66.585 47.0994 68.5707 40.5534 68.5707 33.8571H34.7136Z" fill="#FFB648"/>
<path d="M46.7247 25H48.0927L48.0927 21.304H50.9247V20.14H48.0927V17.764H51.4047V16.6H46.7247L46.7247 25Z" fill="white"/>
</svg>
