<svg width="329" height="41" viewBox="0 0 329 41" fill="none" xmlns="http://www.w3.org/2000/svg">
<rect x="89.9805" width="238.82" height="40.5927" rx="20.2964" fill="#BCABFF"/>
<rect x="22.3262" width="108.924" height="40.5927" rx="20.2964" fill="#6B48F4"/>
<rect width="61.5656" height="40.5927" rx="20.2964" fill="#383838"/>
<path d="M73.7288 18.55V19.4309H74.6286V23.3237H75.6136V19.4309H77.1954V18.55H75.6136V17.9723C75.6136 17.4324 75.9357 17.1009 76.4187 17.1009C76.6839 17.1009 76.8923 17.1861 77.0533 17.3092L77.4701 16.4852C77.1954 16.3337 76.8355 16.22 76.3998 16.22C75.2916 16.22 74.6286 16.9872 74.6286 18.0007V18.55H73.7288ZM82.1689 22.5471L81.4585 21.9788C81.1649 22.3766 80.6819 22.6323 80.1041 22.6323C79.1853 22.6323 78.5507 22.0924 78.4844 21.0505H82.0079C82.0458 20.9085 82.0742 20.6906 82.0742 20.4728C82.0742 19.2604 81.2217 18.3606 79.9052 18.3606C78.3897 18.3606 77.4804 19.5067 77.4804 20.9369C77.4804 22.3292 78.456 23.5132 80.1041 23.5132C80.9944 23.5132 81.7237 23.1438 82.1689 22.5471ZM79.8862 19.1752C80.6534 19.1752 81.0797 19.7245 81.0986 20.3212H78.5318C78.6833 19.5824 79.1759 19.1752 79.8862 19.1752ZM83.3536 23.3237H84.3292V20.1034C84.5565 19.6961 84.9164 19.2793 85.5226 19.2793C86.1477 19.2793 86.5266 19.6961 86.5266 20.397V23.3237H87.5116V20.3591C87.5116 20.2644 87.5116 20.1791 87.5022 20.0939C87.7579 19.6393 88.1273 19.2793 88.6956 19.2793C89.3113 19.2793 89.6996 19.6961 89.6996 20.397V23.3237H90.6846V20.3591C90.6846 19.0426 89.9174 18.3606 88.9229 18.3606C88.0989 18.3606 87.6253 18.7489 87.2559 19.2225C86.9528 18.6542 86.4035 18.3606 85.7499 18.3606C85.1153 18.3606 84.6702 18.6258 84.3292 18.9952V18.55H83.3536V23.3237ZM92.1963 23.3237H93.1718V20.1034C93.3992 19.6961 93.7591 19.2793 94.3653 19.2793C94.9904 19.2793 95.3693 19.6961 95.3693 20.397V23.3237H96.3543V20.3591C96.3543 20.2644 96.3543 20.1791 96.3448 20.0939C96.6006 19.6393 96.97 19.2793 97.5383 19.2793C98.1539 19.2793 98.5423 19.6961 98.5423 20.397V23.3237H99.5273V20.3591C99.5273 19.0426 98.7601 18.3606 97.7656 18.3606C96.9415 18.3606 96.468 18.7489 96.0986 19.2225C95.7955 18.6542 95.2461 18.3606 94.5926 18.3606C93.958 18.3606 93.5128 18.6258 93.1718 18.9952V18.55H92.1963V23.3237ZM105.349 22.5471L104.638 21.9788C104.345 22.3766 103.861 22.6323 103.284 22.6323C102.365 22.6323 101.73 22.0924 101.664 21.0505H105.187C105.225 20.9085 105.254 20.6906 105.254 20.4728C105.254 19.2604 104.401 18.3606 103.085 18.3606C101.569 18.3606 100.66 19.5067 100.66 20.9369C100.66 22.3292 101.636 23.5132 103.284 23.5132C104.174 23.5132 104.903 23.1438 105.349 22.5471ZM103.066 19.1752C103.833 19.1752 104.259 19.7245 104.278 20.3212H101.711C101.863 19.5824 102.355 19.1752 103.066 19.1752Z" fill="white"/>
<path d="M17.9439 23.3237H18.9195V20.1034C19.1468 19.6961 19.5068 19.2793 20.1129 19.2793C20.7381 19.2793 21.1169 19.6961 21.1169 20.397V23.3237H22.102V20.3591C22.102 20.2644 22.102 20.1791 22.0925 20.0939C22.3483 19.6393 22.7176 19.2793 23.2859 19.2793C23.9016 19.2793 24.2899 19.6961 24.2899 20.397V23.3237H25.275V20.3591C25.275 19.0426 24.5078 18.3606 23.5133 18.3606C22.6892 18.3606 22.2157 18.7489 21.8463 19.2225C21.5432 18.6542 20.9938 18.3606 20.3403 18.3606C19.7057 18.3606 19.2605 18.6258 18.9195 18.9952V18.55H17.9439V23.3237ZM27.2791 17.4892C27.6391 17.4892 27.9421 17.1861 27.9421 16.8262C27.9421 16.4663 27.6391 16.1632 27.2791 16.1632C26.9192 16.1632 26.6161 16.4663 26.6161 16.8262C26.6161 17.1861 26.9192 17.4892 27.2791 17.4892ZM26.7866 23.3237H27.7622V18.55H26.7866V23.3237ZM29.9074 23.3237L31.1387 21.5241L32.3795 23.3237H33.4971L31.7733 20.8611L33.3929 18.55H32.2658L31.1387 20.1886L30.0115 18.55H28.8844L30.4946 20.8611L28.7708 23.3237H29.9074ZM34.7295 21.6662C34.7295 22.8312 35.3167 23.4184 36.4343 23.4184C36.8037 23.4184 37.0689 23.3711 37.2963 23.2764V22.4145C37.1258 22.4808 36.9079 22.5186 36.5859 22.5186C36.0555 22.5186 35.7145 22.3103 35.7145 21.6662V19.4309H37.2963V18.55H35.7145V17.3566H34.7295V18.55H33.8296V19.4309H34.7295V21.6662ZM42.6767 22.5471L41.9664 21.9788C41.6728 22.3766 41.1897 22.6323 40.6119 22.6323C39.6932 22.6323 39.0586 22.0924 38.9923 21.0505H42.5157C42.5536 20.9085 42.582 20.6906 42.582 20.4728C42.582 19.2604 41.7296 18.3606 40.413 18.3606C38.8976 18.3606 37.9883 19.5067 37.9883 20.9369C37.9883 22.3292 38.9639 23.5132 40.6119 23.5132C41.5023 23.5132 42.2316 23.1438 42.6767 22.5471ZM40.3941 19.1752C41.1613 19.1752 41.5875 19.7245 41.6065 20.3212H39.0396C39.1912 19.5824 39.6837 19.1752 40.3941 19.1752Z" fill="white"/>
<path d="M197.385 23.3237H198.36V20.1034C198.616 19.6866 198.995 19.2793 199.649 19.2793C200.331 19.2793 200.747 19.734 200.747 20.4917V23.3237H201.732V20.4538C201.732 19.071 200.937 18.3606 199.876 18.3606C199.194 18.3606 198.72 18.6353 198.36 19.0141V16.22H197.385V23.3237ZM205.466 18.3606C203.922 18.3606 202.87 19.5256 202.87 20.9369C202.87 22.3482 203.922 23.5132 205.466 23.5132C207.019 23.5132 208.061 22.3482 208.061 20.9369C208.061 19.5256 207.019 18.3606 205.466 18.3606ZM205.475 22.5944C204.556 22.5944 203.893 21.8556 203.893 20.9369C203.893 20.0181 204.556 19.2793 205.475 19.2793C206.375 19.2793 207.038 20.0087 207.038 20.9369C207.038 21.8462 206.375 22.5944 205.475 22.5944ZM209.28 23.3237H210.256V20.1034C210.483 19.6961 210.843 19.2793 211.449 19.2793C212.074 19.2793 212.453 19.6961 212.453 20.397V23.3237H213.438V20.3591C213.438 20.2644 213.438 20.1791 213.429 20.0939C213.684 19.6393 214.054 19.2793 214.622 19.2793C215.238 19.2793 215.626 19.6961 215.626 20.397V23.3237H216.611V20.3591C216.611 19.0426 215.844 18.3606 214.849 18.3606C214.025 18.3606 213.552 18.7489 213.182 19.2225C212.879 18.6542 212.33 18.3606 211.676 18.3606C211.042 18.3606 210.596 18.6258 210.256 18.9952V18.55H209.28V23.3237ZM218.123 23.3237H219.098V20.1034C219.325 19.6961 219.685 19.2793 220.292 19.2793C220.917 19.2793 221.296 19.6961 221.296 20.397V23.3237H222.281V20.3591C222.281 20.2644 222.281 20.1791 222.271 20.0939C222.527 19.6393 222.896 19.2793 223.465 19.2793C224.08 19.2793 224.469 19.6961 224.469 20.397V23.3237H225.454V20.3591C225.454 19.0426 224.686 18.3606 223.692 18.3606C222.868 18.3606 222.394 18.7489 222.025 19.2225C221.722 18.6542 221.172 18.3606 220.519 18.3606C219.884 18.3606 219.439 18.6258 219.098 18.9952V18.55H218.123V23.3237ZM231.275 22.5471L230.564 21.9788C230.271 22.3766 229.788 22.6323 229.21 22.6323C228.291 22.6323 227.657 22.0924 227.59 21.0505H231.114C231.152 20.9085 231.18 20.6906 231.18 20.4728C231.18 19.2604 230.328 18.3606 229.011 18.3606C227.496 18.3606 226.586 19.5067 226.586 20.9369C226.586 22.3292 227.562 23.5132 229.21 23.5132C230.1 23.5132 230.83 23.1438 231.275 22.5471ZM228.992 19.1752C229.759 19.1752 230.186 19.7245 230.205 20.3212H227.638C227.789 19.5824 228.282 19.1752 228.992 19.1752Z" fill="black"/>
</svg>
