<svg width="128" height="64" viewBox="0 0 128 64" fill="none" xmlns="http://www.w3.org/2000/svg">
<path d="M31.5818 11.673C31.5413 11.3239 31.2446 11.053 30.8846 11.053C30.497 11.053 30.1827 11.3672 30.1827 11.7549V14.5626L30.1874 14.6444C30.228 14.9935 30.5247 15.2645 30.8846 15.2645C31.2723 15.2645 31.5866 14.9502 31.5866 14.5626V11.7549L31.5818 11.673Z" fill="#FFB648"/>
<path d="M14.0387 29.3028C14.0387 28.9151 13.7244 28.6009 13.3368 28.6009H9.12526L9.0434 28.6056C8.69431 28.6461 8.42334 28.9428 8.42334 29.3028C8.42334 29.6904 8.7376 30.0047 9.12526 30.0047H13.3368L13.4186 30C13.7677 29.9594 14.0387 29.6628 14.0387 29.3028Z" fill="#FFB648"/>
<path fill-rule="evenodd" clip-rule="evenodd" d="M28.077 28.6009C26.914 28.6009 25.9712 29.5436 25.9712 30.7066C25.9712 31.8696 26.914 32.8124 28.077 32.8124C29.24 32.8124 30.1827 31.8696 30.1827 30.7066C30.1827 29.5436 29.24 28.6009 28.077 28.6009ZM28.077 30.0047C28.4646 30.0047 28.7789 30.319 28.7789 30.7066C28.7789 31.0943 28.4646 31.4085 28.077 31.4085C27.6893 31.4085 27.3751 31.0943 27.3751 30.7066C27.3751 30.319 27.6893 30.0047 28.077 30.0047Z" fill="#FFB648"/>
<path d="M13.3368 31.4085C13.7244 31.4085 14.0387 31.7228 14.0387 32.1104C14.0387 32.4704 13.7677 32.7671 13.4186 32.8076L13.3368 32.8124H9.12526C8.7376 32.8124 8.42334 32.4981 8.42334 32.1104C8.42334 31.7505 8.69431 31.4538 9.0434 31.4133L9.12526 31.4085H13.3368Z" fill="#FFB648"/>
<path d="M22.4617 29.3028C22.4617 28.9151 22.1474 28.6009 21.7597 28.6009H17.5482L17.4664 28.6056C17.1173 28.6461 16.8463 28.9428 16.8463 29.3028C16.8463 29.6904 17.1606 30.0047 17.5482 30.0047H21.7597L21.8416 30C22.1907 29.9594 22.4617 29.6628 22.4617 29.3028Z" fill="#FFB648"/>
<path d="M21.7597 31.4085C22.1474 31.4085 22.4617 31.7228 22.4617 32.1104C22.4617 32.4704 22.1907 32.7671 21.8416 32.8076L21.7597 32.8124H17.5482C17.1606 32.8124 16.8463 32.4981 16.8463 32.1104C16.8463 31.7505 17.1173 31.4538 17.4664 31.4133L17.5482 31.4085H21.7597Z" fill="#FFB648"/>
<path d="M39.3076 29.3028C39.3076 28.9151 38.9934 28.6009 38.6057 28.6009H34.3942L34.3124 28.6056C33.9633 28.6461 33.6923 28.9428 33.6923 29.3028C33.6923 29.6904 34.0066 30.0047 34.3942 30.0047H38.6057L38.6876 30C39.0367 29.9594 39.3076 29.6628 39.3076 29.3028Z" fill="#FFB648"/>
<path d="M38.6057 31.4085C38.9934 31.4085 39.3076 31.7228 39.3076 32.1104C39.3076 32.4704 39.0367 32.7671 38.6876 32.8076L38.6057 32.8124H34.3942C34.0066 32.8124 33.6923 32.4981 33.6923 32.1104C33.6923 31.7505 33.9633 31.4538 34.3124 31.4133L34.3942 31.4085H38.6057Z" fill="#FFB648"/>
<path d="M47.7306 29.3028C47.7306 28.9151 47.4164 28.6009 47.0287 28.6009H42.8172L42.7354 28.6056C42.3863 28.6461 42.1153 28.9428 42.1153 29.3028C42.1153 29.6904 42.4296 30.0047 42.8172 30.0047H47.0287L47.1106 30C47.4597 29.9594 47.7306 29.6628 47.7306 29.3028Z" fill="#FFB648"/>
<path d="M47.0287 31.4085C47.4164 31.4085 47.7306 31.7228 47.7306 32.1104C47.7306 32.4704 47.4597 32.7671 47.1106 32.8076L47.0287 32.8124H42.8172C42.4296 32.8124 42.1153 32.4981 42.1153 32.1104C42.1153 31.7505 42.3863 31.4538 42.7354 31.4133L42.8172 31.4085H47.0287Z" fill="#FFB648"/>
<path d="M28.7738 11.673C28.7333 11.3239 28.4366 11.053 28.0766 11.053C27.6889 11.053 27.3747 11.3672 27.3747 11.7549V14.5626L27.3794 14.6444C27.42 14.9935 27.7166 15.2645 28.0766 15.2645C28.4643 15.2645 28.7785 14.9502 28.7785 14.5626V11.7549L28.7738 11.673Z" fill="#FFB648"/>
<path d="M28.7738 16.5864C28.7333 16.2374 28.4366 15.9664 28.0766 15.9664C27.6889 15.9664 27.3747 16.2806 27.3747 16.6683V18.7741H11.9325L11.8507 18.7788C11.5016 18.8193 11.2306 19.116 11.2306 19.476V22.9855H2.10572L2.02387 22.9903C1.67478 23.0308 1.40381 23.3275 1.40381 23.6875C1.40381 24.0751 1.71807 24.3894 2.10572 24.3894H54.0475L54.1293 24.3847C54.4784 24.3441 54.7494 24.0474 54.7494 23.6875C54.7494 23.2998 54.4351 22.9855 54.0475 22.9855H44.9226V19.476L44.9179 19.3941C44.8773 19.045 44.5806 18.7741 44.2207 18.7741C43.833 18.7741 43.5188 19.0883 43.5188 19.476V22.9855H12.6345V20.1779H37.2015L37.2834 20.1732C37.6325 20.1326 37.9034 19.8359 37.9034 19.476C37.9034 19.0883 37.5892 18.7741 37.2015 18.7741H28.7785V16.6683L28.7738 16.5864Z" fill="#FFB648"/>
<path d="M17.5479 35.62C17.9078 35.62 18.2045 35.891 18.2451 36.2401L18.2498 36.3219V50.3603C18.2498 50.7479 17.9355 51.0622 17.5479 51.0622C17.1879 51.0622 16.8912 50.7912 16.8507 50.4421L16.846 50.3603V36.3219C16.846 35.9343 17.1602 35.62 17.5479 35.62Z" fill="#FFB648"/>
<path d="M15.4374 39.0477C15.3969 38.6987 15.1002 38.4277 14.7402 38.4277C14.3526 38.4277 14.0383 38.7419 14.0383 39.1296V52.466H8.42297V39.1296L8.41824 39.0477C8.3777 38.6987 8.08102 38.4277 7.72105 38.4277C7.33339 38.4277 7.01913 38.7419 7.01913 39.1296V52.466H4.91339L4.83153 52.4707C4.48244 52.5113 4.21147 52.808 4.21147 53.1679C4.21147 53.5556 4.52573 53.8698 4.91339 53.8698H14.7402C14.7887 53.8698 14.836 53.8649 14.8817 53.8556C15.2015 53.7901 15.4421 53.5071 15.4421 53.1679V39.1296L15.4374 39.0477Z" fill="#FFB648"/>
<path d="M10.5287 35.62C10.8887 35.62 11.1854 35.891 11.2259 36.2401L11.2306 36.3219V47.5526C11.2306 47.9403 10.9164 48.2545 10.5287 48.2545C10.1687 48.2545 9.87207 47.9835 9.83152 47.6345L9.8268 47.5526V36.3219C9.8268 35.9343 10.1411 35.62 10.5287 35.62Z" fill="#FFB648"/>
<path d="M41.413 18.7741C41.8007 18.7741 42.1149 19.0883 42.1149 19.476C42.1149 19.8359 41.844 20.1326 41.4949 20.1732L41.413 20.1779H40.0092C39.6215 20.1779 39.3073 19.8636 39.3073 19.476C39.3073 19.116 39.5782 18.8193 39.9273 18.7788L40.0092 18.7741H41.413Z" fill="#FFB648"/>
<path d="M4.91339 25.7932C5.27335 25.7932 5.57003 26.0642 5.61058 26.4133L5.6153 26.4951V50.3603C5.6153 50.7479 5.30104 51.0622 4.91339 51.0622C4.55342 51.0622 4.25674 50.7912 4.21619 50.4421L4.21147 50.3603V26.4951C4.21147 26.1075 4.52573 25.7932 4.91339 25.7932Z" fill="#FFB648"/>
<path fill-rule="evenodd" clip-rule="evenodd" d="M33.6872 39.0477C33.6467 38.6987 33.35 38.4277 32.99 38.4277H23.1632L23.0813 38.4324C22.7322 38.473 22.4613 38.7696 22.4613 39.1296V49.6583H20.3555L20.2737 49.6631C19.9246 49.7036 19.6536 50.0003 19.6536 50.3603C19.6536 50.7479 19.9679 51.0622 20.3555 51.0622H35.7977L35.8795 51.0574C36.2286 51.0169 36.4996 50.7202 36.4996 50.3603C36.4996 49.9726 36.1853 49.6583 35.7977 49.6583H33.6919V39.1296L33.6872 39.0477ZM27.3747 49.6583H23.8651V39.8308H32.2881V49.6583H28.7785V43.3411L28.7738 43.2592C28.7333 42.9102 28.4366 42.6392 28.0766 42.6392C27.6889 42.6392 27.3747 42.9534 27.3747 43.3411V49.6583Z" fill="#FFB648"/>
<path d="M31.5862 35.62C31.9738 35.62 32.2881 35.9343 32.2881 36.3219C32.2881 36.6819 32.0171 36.9786 31.668 37.0191L31.5862 37.0239H24.567C24.1794 37.0239 23.8651 36.7096 23.8651 36.3219C23.8651 35.962 24.1361 35.6653 24.4852 35.6248L24.567 35.62H31.5862Z" fill="#FFB648"/>
<path d="M38.6053 35.62C38.2454 35.62 37.9487 35.891 37.9082 36.2401L37.9034 36.3219V50.3603C37.9034 50.7479 38.2177 51.0622 38.6053 51.0622C38.9653 51.0622 39.262 50.7912 39.3025 50.4421L39.3073 50.3603V36.3219C39.3073 35.9343 38.993 35.62 38.6053 35.62Z" fill="#FFB648"/>
<path d="M40.7158 39.0477C40.7564 38.6987 41.053 38.4277 41.413 38.4277C41.8007 38.4277 42.1149 38.7419 42.1149 39.1296V47.5526L42.1102 47.6345C42.0697 47.9835 41.773 48.2545 41.413 48.2545C41.0253 48.2545 40.7111 47.9403 40.7111 47.5526V39.1296L40.7158 39.0477Z" fill="#FFB648"/>
<path d="M45.6245 35.62C45.2645 35.62 44.9679 35.891 44.9273 36.2401L44.9226 36.3219V50.3603C44.9226 50.7479 45.2368 51.0622 45.6245 51.0622C45.9845 51.0622 46.2811 50.7912 46.3217 50.4421L46.3264 50.3603V36.3219C46.3264 35.9343 46.0122 35.62 45.6245 35.62Z" fill="#FFB648"/>
<path d="M47.735 39.0477C47.7755 38.6987 48.0722 38.4277 48.4322 38.4277C48.8198 38.4277 49.1341 38.7419 49.1341 39.1296V53.1679C49.1341 53.1956 49.1325 53.2229 49.1294 53.2498C49.0919 53.572 48.8363 53.8277 48.5141 53.8651C48.4872 53.8682 48.4599 53.8698 48.4322 53.8698H17.5479C17.1602 53.8698 16.846 53.5556 16.846 53.1679C16.846 52.808 17.1169 52.5113 17.466 52.4707L17.5479 52.466H47.7302V39.1296L47.735 39.0477Z" fill="#FFB648"/>
<path d="M51.2398 25.7932C51.5998 25.7932 51.8965 26.0642 51.937 26.4133L51.9417 26.4951V53.1679C51.9417 53.5556 51.6275 53.8698 51.2398 53.8698C50.8799 53.8698 50.5832 53.5989 50.5426 53.2498L50.5379 53.1679V26.4951C50.5379 26.1075 50.8522 25.7932 51.2398 25.7932Z" fill="#FFB648"/>
<path d="M96.0693 33.8274V3.38281C104.323 3.38281 112.239 6.59036 118.075 12.2998C123.912 18.0093 127.19 25.753 127.19 33.8274H96.0693Z" fill="#F45800"/>
<path d="M97.0838 33.4891V3.38281C91.1294 3.38281 85.3086 5.14852 80.3577 8.45663C75.4067 11.7648 71.5479 16.4667 69.2692 21.9679C66.9906 27.4691 66.3944 33.5225 67.556 39.3625C68.7177 45.2026 71.585 50.567 75.7955 54.7774C80.0059 58.9878 85.3703 61.8552 91.2104 63.0168C97.0504 64.1785 103.104 63.5823 108.605 61.3036C114.106 59.025 118.808 55.1662 122.116 50.2152C125.424 45.2643 127.19 39.4435 127.19 33.4891H97.0838Z" fill="#FFB648"/>
<path d="M109.023 24H110.103V21.0827H112.338V20.164H110.103V18.2886H112.717V17.3699H109.023V24Z" fill="white"/>
</svg>
