<svg width="261" height="63" viewBox="0 0 261 63" fill="none" xmlns="http://www.w3.org/2000/svg">
<path d="M31.5818 6.9372C31.5413 6.58811 31.2446 6.31714 30.8846 6.31714C30.497 6.31714 30.1827 6.6314 30.1827 7.01905V9.82672L30.1875 9.90858C30.228 10.2577 30.5247 10.5286 30.8846 10.5286C31.2723 10.5286 31.5866 10.2144 31.5866 9.82672V7.01905L31.5818 6.9372Z" fill="#BCABFF"/>
<path d="M14.0387 24.5669C14.0387 24.1793 13.7244 23.865 13.3368 23.865H9.12526L9.0434 23.8698C8.69431 23.9103 8.42334 24.207 8.42334 24.5669C8.42334 24.9546 8.7376 25.2689 9.12526 25.2689H13.3368L13.4186 25.2641C13.7677 25.2236 14.0387 24.9269 14.0387 24.5669Z" fill="#BCABFF"/>
<path fill-rule="evenodd" clip-rule="evenodd" d="M28.077 23.865C26.914 23.865 25.9712 24.8078 25.9712 25.9708C25.9712 27.1338 26.914 28.0765 28.077 28.0765C29.24 28.0765 30.1827 27.1338 30.1827 25.9708C30.1827 24.8078 29.24 23.865 28.077 23.865ZM28.077 25.2689C28.4646 25.2689 28.7789 25.5831 28.7789 25.9708C28.7789 26.3584 28.4646 26.6727 28.077 26.6727C27.6893 26.6727 27.3751 26.3584 27.3751 25.9708C27.3751 25.5831 27.6893 25.2689 28.077 25.2689Z" fill="#BCABFF"/>
<path d="M13.3368 26.6727C13.7244 26.6727 14.0387 26.987 14.0387 27.3746C14.0387 27.7346 13.7677 28.0313 13.4186 28.0718L13.3368 28.0765H9.12526C8.7376 28.0765 8.42334 27.7623 8.42334 27.3746C8.42334 27.0146 8.69431 26.718 9.0434 26.6774L9.12526 26.6727H13.3368Z" fill="#BCABFF"/>
<path d="M22.4617 24.5669C22.4617 24.1793 22.1474 23.865 21.7597 23.865H17.5482L17.4664 23.8698C17.1173 23.9103 16.8463 24.207 16.8463 24.5669C16.8463 24.9546 17.1606 25.2689 17.5482 25.2689H21.7597L21.8416 25.2641C22.1907 25.2236 22.4617 24.9269 22.4617 24.5669Z" fill="#BCABFF"/>
<path d="M21.7597 26.6727C22.1474 26.6727 22.4617 26.987 22.4617 27.3746C22.4617 27.7346 22.1907 28.0313 21.8416 28.0718L21.7597 28.0765H17.5482C17.1606 28.0765 16.8463 27.7623 16.8463 27.3746C16.8463 27.0146 17.1173 26.718 17.4664 26.6774L17.5482 26.6727H21.7597Z" fill="#BCABFF"/>
<path d="M39.3076 24.5669C39.3076 24.1793 38.9934 23.865 38.6057 23.865H34.3942L34.3124 23.8698C33.9633 23.9103 33.6923 24.207 33.6923 24.5669C33.6923 24.9546 34.0066 25.2689 34.3942 25.2689H38.6057L38.6876 25.2641C39.0367 25.2236 39.3076 24.9269 39.3076 24.5669Z" fill="#BCABFF"/>
<path d="M38.6057 26.6727C38.9934 26.6727 39.3076 26.987 39.3076 27.3746C39.3076 27.7346 39.0367 28.0313 38.6876 28.0718L38.6057 28.0765H34.3942C34.0066 28.0765 33.6923 27.7623 33.6923 27.3746C33.6923 27.0146 33.9633 26.718 34.3124 26.6774L34.3942 26.6727H38.6057Z" fill="#BCABFF"/>
<path d="M47.7306 24.5669C47.7306 24.1793 47.4164 23.865 47.0287 23.865H42.8172L42.7354 23.8698C42.3863 23.9103 42.1153 24.207 42.1153 24.5669C42.1153 24.9546 42.4296 25.2689 42.8172 25.2689H47.0287L47.1106 25.2641C47.4597 25.2236 47.7306 24.9269 47.7306 24.5669Z" fill="#BCABFF"/>
<path d="M47.0287 26.6727C47.4164 26.6727 47.7306 26.987 47.7306 27.3746C47.7306 27.7346 47.4597 28.0313 47.1106 28.0718L47.0287 28.0765H42.8172C42.4296 28.0765 42.1153 27.7623 42.1153 27.3746C42.1153 27.0146 42.3863 26.718 42.7354 26.6774L42.8172 26.6727H47.0287Z" fill="#BCABFF"/>
<path d="M28.7738 6.9372C28.7333 6.58811 28.4366 6.31714 28.0766 6.31714C27.6889 6.31714 27.3747 6.6314 27.3747 7.01905V9.82672L27.3794 9.90858C27.42 10.2577 27.7166 10.5286 28.0766 10.5286C28.4643 10.5286 28.7785 10.2144 28.7785 9.82672V7.01905L28.7738 6.9372Z" fill="#BCABFF"/>
<path d="M28.7738 11.8506C28.7333 11.5015 28.4366 11.2305 28.0766 11.2305C27.6889 11.2305 27.3747 11.5448 27.3747 11.9325V14.0382H11.9325L11.8507 14.0429C11.5016 14.0835 11.2306 14.3802 11.2306 14.7401V18.2497H2.10572L2.02387 18.2544C1.67478 18.295 1.40381 18.5917 1.40381 18.9516C1.40381 19.3393 1.71807 19.6535 2.10572 19.6535H54.0475L54.1293 19.6488C54.4784 19.6083 54.7494 19.3116 54.7494 18.9516C54.7494 18.564 54.4351 18.2497 54.0475 18.2497H44.9226V14.7401L44.9179 14.6583C44.8773 14.3092 44.5806 14.0382 44.2207 14.0382C43.833 14.0382 43.5188 14.3525 43.5188 14.7401V18.2497H12.6345V15.442H37.2015L37.2834 15.4373C37.6325 15.3968 37.9034 15.1001 37.9034 14.7401C37.9034 14.3525 37.5892 14.0382 37.2015 14.0382H28.7785V11.9325L28.7738 11.8506Z" fill="#BCABFF"/>
<path d="M17.5479 30.8842C17.9078 30.8842 18.2045 31.1552 18.2451 31.5042L18.2498 31.5861V45.6244C18.2498 46.0121 17.9355 46.3263 17.5479 46.3263C17.1879 46.3263 16.8912 46.0554 16.8507 45.7063L16.846 45.6244V31.5861C16.846 31.1984 17.1602 30.8842 17.5479 30.8842Z" fill="#BCABFF"/>
<path d="M15.4374 34.3119C15.3969 33.9628 15.1002 33.6919 14.7402 33.6919C14.3526 33.6919 14.0383 34.0061 14.0383 34.3938V47.7302H8.42297V34.3938L8.41824 34.3119C8.3777 33.9628 8.08102 33.6919 7.72105 33.6919C7.33339 33.6919 7.01913 34.0061 7.01913 34.3938V47.7302H4.91339L4.83153 47.7349C4.48244 47.7754 4.21147 48.0721 4.21147 48.4321C4.21147 48.8197 4.52573 49.134 4.91339 49.134H14.7402C14.7887 49.134 14.836 49.1291 14.8817 49.1197C15.2015 49.0543 15.4421 48.7713 15.4421 48.4321V34.3938L15.4374 34.3119Z" fill="#BCABFF"/>
<path d="M10.5287 30.8842C10.8887 30.8842 11.1854 31.1552 11.2259 31.5042L11.2306 31.5861V42.8168C11.2306 43.2044 10.9164 43.5187 10.5287 43.5187C10.1687 43.5187 9.87207 43.2477 9.83152 42.8986L9.8268 42.8168V31.5861C9.8268 31.1984 10.1411 30.8842 10.5287 30.8842Z" fill="#BCABFF"/>
<path d="M41.413 14.0382C41.8007 14.0382 42.1149 14.3525 42.1149 14.7401C42.1149 15.1001 41.844 15.3968 41.4949 15.4373L41.413 15.442H40.0092C39.6215 15.442 39.3073 15.1278 39.3073 14.7401C39.3073 14.3802 39.5782 14.0835 39.9273 14.0429L40.0092 14.0382H41.413Z" fill="#BCABFF"/>
<path d="M4.91339 21.0574C5.27336 21.0574 5.57003 21.3283 5.61058 21.6774L5.6153 21.7593V45.6244C5.6153 46.0121 5.30104 46.3263 4.91339 46.3263C4.55342 46.3263 4.25674 46.0554 4.21619 45.7063L4.21147 45.6244V21.7593C4.21147 21.3716 4.52573 21.0574 4.91339 21.0574Z" fill="#BCABFF"/>
<path fill-rule="evenodd" clip-rule="evenodd" d="M33.6872 34.3119C33.6467 33.9628 33.35 33.6919 32.99 33.6919H23.1632L23.0813 33.6966C22.7322 33.7371 22.4613 34.0338 22.4613 34.3938V44.9225H20.3555L20.2737 44.9272C19.9246 44.9678 19.6536 45.2645 19.6536 45.6244C19.6536 46.0121 19.9679 46.3263 20.3555 46.3263H35.7977L35.8795 46.3216C36.2286 46.2811 36.4996 45.9844 36.4996 45.6244C36.4996 45.2368 36.1853 44.9225 35.7977 44.9225H33.6919V34.3938L33.6872 34.3119ZM27.3747 44.9225H23.8651V35.095H32.2881V44.9225H28.7785V38.6053L28.7738 38.5234C28.7333 38.1743 28.4366 37.9033 28.0766 37.9033C27.6889 37.9033 27.3747 38.2176 27.3747 38.6053V44.9225Z" fill="#BCABFF"/>
<path d="M31.5862 30.8842C31.9738 30.8842 32.2881 31.1984 32.2881 31.5861C32.2881 31.9461 32.0171 32.2428 31.668 32.2833L31.5862 32.288H24.567C24.1794 32.288 23.8651 31.9738 23.8651 31.5861C23.8651 31.2261 24.1361 30.9295 24.4852 30.8889L24.567 30.8842H31.5862Z" fill="#BCABFF"/>
<path d="M38.6053 30.8842C38.2454 30.8842 37.9487 31.1552 37.9081 31.5042L37.9034 31.5861V45.6244C37.9034 46.0121 38.2177 46.3263 38.6053 46.3263C38.9653 46.3263 39.262 46.0554 39.3025 45.7063L39.3073 45.6244V31.5861C39.3073 31.1984 38.993 30.8842 38.6053 30.8842Z" fill="#BCABFF"/>
<path d="M40.7158 34.3119C40.7564 33.9628 41.053 33.6919 41.413 33.6919C41.8007 33.6919 42.1149 34.0061 42.1149 34.3938V42.8168L42.1102 42.8986C42.0697 43.2477 41.773 43.5187 41.413 43.5187C41.0253 43.5187 40.7111 43.2044 40.7111 42.8168V34.3938L40.7158 34.3119Z" fill="#BCABFF"/>
<path d="M45.6245 30.8842C45.2645 30.8842 44.9679 31.1552 44.9273 31.5042L44.9226 31.5861V45.6244C44.9226 46.0121 45.2368 46.3263 45.6245 46.3263C45.9845 46.3263 46.2811 46.0554 46.3217 45.7063L46.3264 45.6244V31.5861C46.3264 31.1984 46.0122 30.8842 45.6245 30.8842Z" fill="#BCABFF"/>
<path d="M47.735 34.3119C47.7755 33.9628 48.0722 33.6919 48.4322 33.6919C48.8198 33.6919 49.1341 34.0061 49.1341 34.3938V48.4321C49.1341 48.4598 49.1325 48.4871 49.1294 48.5139C49.0919 48.8362 48.8363 49.0918 48.5141 49.1293C48.4872 49.1324 48.4599 49.134 48.4322 49.134H17.5479C17.1602 49.134 16.846 48.8197 16.846 48.4321C16.846 48.0721 17.1169 47.7754 17.466 47.7349L17.5479 47.7302H47.7302V34.3938L47.735 34.3119Z" fill="#BCABFF"/>
<path d="M51.2398 21.0574C51.5998 21.0574 51.8965 21.3283 51.937 21.6774L51.9417 21.7593V48.4321C51.9417 48.8197 51.6275 49.134 51.2398 49.134C50.8799 49.134 50.5832 48.863 50.5426 48.5139L50.5379 48.4321V21.7593C50.5379 21.3716 50.8522 21.0574 51.2398 21.0574Z" fill="#BCABFF"/>
<circle cx="246.631" cy="48.3855" r="13.8692" transform="rotate(-180 246.631 48.3855)" fill="#6B48F4"/>
<circle cx="246.631" cy="13.8816" r="13.8692" transform="rotate(-180 246.631 13.8816)" fill="#6B48F4"/>
<circle cx="206.715" cy="48.3855" r="13.8692" transform="rotate(-180 206.715 48.3855)" fill="#6B48F4"/>
<circle cx="206.715" cy="13.8816" r="13.8692" transform="rotate(-180 206.715 13.8816)" fill="#BCABFF"/>
<circle cx="166.799" cy="48.3855" r="13.8692" transform="rotate(-180 166.799 48.3855)" fill="#BCABFF"/>
<circle cx="166.799" cy="13.8816" r="13.8692" transform="rotate(-180 166.799 13.8816)" fill="#BCABFF"/>
<ellipse cx="126.544" cy="48.3855" rx="14.2075" ry="13.8692" transform="rotate(-180 126.544 48.3855)" fill="#BCABFF"/>
<ellipse cx="126.544" cy="13.8816" rx="14.2075" ry="13.8692" transform="rotate(-180 126.544 13.8816)" fill="#BCABFF"/>
<circle cx="86.2895" cy="48.3855" r="13.8692" transform="rotate(-180 86.2895 48.3855)" fill="#BCABFF"/>
<circle cx="86.2895" cy="13.8816" r="13.8692" transform="rotate(-180 86.2895 13.8816)" fill="#BCABFF"/>
</svg>
