<svg width="282" height="421" viewBox="0 0 282 421" fill="none" xmlns="http://www.w3.org/2000/svg">
<rect width="282" height="421" rx="15.6254" fill="white"/>
<path d="M40.7436 63H46.9836V61.32H42.5676V51.8H40.7436V63ZM56.1084 61.688L54.9084 60.728C54.4124 61.4 53.5964 61.832 52.6204 61.832C51.0684 61.832 49.9964 60.92 49.8844 59.16H55.8364C55.9004 58.92 55.9484 58.552 55.9484 58.184C55.9484 56.136 54.5084 54.616 52.2844 54.616C49.7244 54.616 48.1884 56.552 48.1884 58.968C48.1884 61.32 49.8364 63.32 52.6204 63.32C54.1244 63.32 55.3564 62.696 56.1084 61.688ZM52.2524 55.992C53.5484 55.992 54.2684 56.92 54.3004 57.928H49.9644C50.2204 56.68 51.0524 55.992 52.2524 55.992ZM57.2159 61.864C57.9679 62.776 58.9759 63.32 60.3359 63.32C61.8399 63.32 63.1199 62.376 63.1359 60.792C63.1359 58.024 59.1839 58.568 59.1839 56.952C59.1839 56.408 59.5679 55.96 60.3359 55.96C61.0079 55.96 61.5679 56.36 61.9999 56.936L63.1199 55.96C62.5439 55.192 61.5039 54.616 60.3199 54.616C58.7039 54.616 57.5839 55.672 57.5839 57C57.5839 59.848 61.5359 59.256 61.5359 60.888C61.5359 61.496 61.1039 61.976 60.3199 61.976C59.5199 61.976 58.8799 61.544 58.3519 60.872L57.2159 61.864ZM68.4759 54.936V56.424H69.9959V63H71.6599V56.424H74.3319V54.936H71.6599V53.96C71.6599 53.048 72.2039 52.488 73.0199 52.488C73.4679 52.488 73.8199 52.632 74.0919 52.84L74.7959 51.448C74.3319 51.192 73.7239 51 72.9879 51C71.1159 51 69.9959 52.296 69.9959 54.008V54.936H68.4759ZM82.7334 61.688L81.5334 60.728C81.0374 61.4 80.2214 61.832 79.2454 61.832C77.6934 61.832 76.6214 60.92 76.5094 59.16H82.4614C82.5254 58.92 82.5734 58.552 82.5734 58.184C82.5734 56.136 81.1334 54.616 78.9094 54.616C76.3494 54.616 74.8134 56.552 74.8134 58.968C74.8134 61.32 76.4614 63.32 79.2454 63.32C80.7494 63.32 81.9814 62.696 82.7334 61.688ZM78.8774 55.992C80.1734 55.992 80.8934 56.92 80.9254 57.928H76.5894C76.8454 56.68 77.6774 55.992 78.8774 55.992ZM84.7346 63H86.3826V57.56C86.7666 56.872 87.3746 56.168 88.3986 56.168C89.4546 56.168 90.0946 56.872 90.0946 58.056V63H91.7586V57.992C91.7586 57.832 91.7586 57.688 91.7426 57.544C92.1746 56.776 92.7986 56.168 93.7586 56.168C94.7986 56.168 95.4546 56.872 95.4546 58.056V63H97.1186V57.992C97.1186 55.768 95.8226 54.616 94.1426 54.616C92.7506 54.616 91.9506 55.272 91.3266 56.072C90.8146 55.112 89.8866 54.616 88.7826 54.616C87.7106 54.616 86.9586 55.064 86.3826 55.688V54.936H84.7346V63ZM99.6721 63H101.32V57.56C101.704 56.872 102.312 56.168 103.336 56.168C104.392 56.168 105.032 56.872 105.032 58.056V63H106.696V57.992C106.696 57.832 106.696 57.688 106.68 57.544C107.112 56.776 107.736 56.168 108.696 56.168C109.736 56.168 110.392 56.872 110.392 58.056V63H112.056V57.992C112.056 55.768 110.76 54.616 109.08 54.616C107.688 54.616 106.888 55.272 106.264 56.072C105.752 55.112 104.824 54.616 103.72 54.616C102.648 54.616 101.896 55.064 101.32 55.688V54.936H99.6721V63ZM121.89 61.688L120.69 60.728C120.194 61.4 119.378 61.832 118.402 61.832C116.85 61.832 115.778 60.92 115.666 59.16H121.618C121.682 58.92 121.73 58.552 121.73 58.184C121.73 56.136 120.29 54.616 118.066 54.616C115.506 54.616 113.97 56.552 113.97 58.968C113.97 61.32 115.618 63.32 118.402 63.32C119.906 63.32 121.138 62.696 121.89 61.688ZM118.034 55.992C119.33 55.992 120.05 56.92 120.082 57.928H115.746C116.002 56.68 116.834 55.992 118.034 55.992ZM122.997 61.864C123.749 62.776 124.757 63.32 126.117 63.32C127.621 63.32 128.901 62.376 128.917 60.792C128.917 58.024 124.965 58.568 124.965 56.952C124.965 56.408 125.349 55.96 126.117 55.96C126.789 55.96 127.349 56.36 127.781 56.936L128.901 55.96C128.325 55.192 127.285 54.616 126.101 54.616C124.485 54.616 123.365 55.672 123.365 57C123.365 59.848 127.317 59.256 127.317 60.888C127.317 61.496 126.885 61.976 126.101 61.976C125.301 61.976 124.661 61.544 124.133 60.872L122.997 61.864ZM135.297 66.936H136.945V62.168C137.633 62.904 138.497 63.32 139.665 63.32C142.193 63.32 143.777 61.32 143.777 58.968C143.777 56.616 142.193 54.616 139.665 54.616C138.497 54.616 137.633 55.032 136.945 55.768V54.936H135.297V66.936ZM139.457 56.168C141.009 56.168 142.049 57.384 142.049 58.968C142.049 60.552 141.009 61.768 139.457 61.768C138.417 61.768 137.537 61.288 136.945 60.392V57.544C137.521 56.664 138.401 56.168 139.457 56.168ZM145.828 63H147.476V57.56C147.908 56.856 148.548 56.168 149.652 56.168C150.804 56.168 151.508 56.936 151.508 58.216V63H153.172V58.152C153.172 55.816 151.828 54.616 150.036 54.616C148.884 54.616 148.084 55.08 147.476 55.72V51H145.828V63ZM159.479 54.616C156.871 54.616 155.095 56.584 155.095 58.968C155.095 61.352 156.871 63.32 159.479 63.32C162.103 63.32 163.863 61.352 163.863 58.968C163.863 56.584 162.103 54.616 159.479 54.616ZM159.495 61.768C157.943 61.768 156.823 60.52 156.823 58.968C156.823 57.416 157.943 56.168 159.495 56.168C161.015 56.168 162.135 57.4 162.135 58.968C162.135 60.504 161.015 61.768 159.495 61.768ZM166.293 60.2C166.293 62.168 167.285 63.16 169.173 63.16C169.797 63.16 170.245 63.08 170.629 62.92V61.464C170.341 61.576 169.973 61.64 169.429 61.64C168.533 61.64 167.957 61.288 167.957 60.2V56.424H170.629V54.936H167.957V52.92H166.293V54.936H164.773V56.424H166.293V60.2ZM176.182 54.616C173.574 54.616 171.798 56.584 171.798 58.968C171.798 61.352 173.574 63.32 176.182 63.32C178.806 63.32 180.566 61.352 180.566 58.968C180.566 56.584 178.806 54.616 176.182 54.616ZM176.198 61.768C174.646 61.768 173.526 60.52 173.526 58.968C173.526 57.416 174.646 56.168 176.198 56.168C177.718 56.168 178.838 57.4 178.838 58.968C178.838 60.504 177.718 61.768 176.198 61.768ZM181.668 64.44C181.668 66.088 183.204 67 185.684 67C188.132 67 189.828 65.688 189.828 63.944C189.828 62.488 188.788 61.416 186.708 61.416H184.516C184.084 61.416 183.908 61.224 183.908 60.888C183.908 60.648 184.052 60.408 184.308 60.2C184.612 60.264 184.932 60.312 185.284 60.312C187.284 60.312 188.484 59.016 188.484 57.448C188.484 57.064 188.404 56.68 188.26 56.344H189.844V54.936H186.868C186.42 54.728 185.891 54.616 185.284 54.616C183.316 54.616 182.116 55.896 182.116 57.448C182.116 58.344 182.516 59.16 183.22 59.688C182.596 60.12 182.292 60.632 182.292 61.272C182.292 61.688 182.468 62.12 182.82 62.424C182.068 62.984 181.668 63.624 181.668 64.44ZM185.299 59.048C184.26 59.048 183.652 58.36 183.652 57.448C183.652 56.552 184.26 55.88 185.299 55.88C186.34 55.88 186.948 56.552 186.948 57.448C186.948 58.36 186.34 59.048 185.299 59.048ZM183.236 64.216C183.236 63.64 183.539 63.208 183.988 62.856H186.548C187.78 62.856 188.18 63.4 188.18 64.088C188.18 65.032 187.252 65.656 185.652 65.656C184.132 65.656 183.236 65.112 183.236 64.216ZM191.438 63H193.086V57.624C193.502 56.936 194.174 56.392 195.198 56.392C195.534 56.392 195.79 56.44 196.046 56.504V54.888C195.838 54.824 195.598 54.776 195.342 54.776C194.35 54.776 193.646 55.224 193.086 55.848V54.936H191.438V63ZM199.709 63.24C200.701 63.24 201.709 62.792 202.285 62.088V63H203.933V57.672C203.933 55.896 202.733 54.616 200.557 54.616C199.117 54.616 197.965 55.224 197.245 56.184L198.477 57.128C198.941 56.472 199.629 56.072 200.509 56.072C201.549 56.072 202.285 56.68 202.285 57.672V58.088L199.677 58.52C197.965 58.808 197.021 59.688 197.021 60.904C197.021 62.328 198.109 63.24 199.709 63.24ZM198.685 60.84C198.685 60.232 199.101 59.8 200.109 59.624L202.285 59.256V60.648C201.805 61.416 201.021 61.896 200.013 61.896C199.181 61.896 198.685 61.464 198.685 60.84ZM206.516 66.936H208.164V62.168C208.852 62.904 209.716 63.32 210.884 63.32C213.412 63.32 214.996 61.32 214.996 58.968C214.996 56.616 213.412 54.616 210.884 54.616C209.716 54.616 208.852 55.032 208.164 55.768V54.936H206.516V66.936ZM210.676 56.168C212.228 56.168 213.268 57.384 213.268 58.968C213.268 60.552 212.228 61.768 210.676 61.768C209.636 61.768 208.756 61.288 208.164 60.392V57.544C208.74 56.664 209.62 56.168 210.676 56.168ZM217.047 63H218.695V57.56C219.127 56.856 219.767 56.168 220.871 56.168C222.023 56.168 222.727 56.936 222.727 58.216V63H224.391V58.152C224.391 55.816 223.047 54.616 221.255 54.616C220.103 54.616 219.303 55.08 218.695 55.72V51H217.047V63ZM234.233 61.688L233.033 60.728C232.537 61.4 231.721 61.832 230.745 61.832C229.193 61.832 228.121 60.92 228.009 59.16H233.961C234.025 58.92 234.073 58.552 234.073 58.184C234.073 56.136 232.633 54.616 230.409 54.616C227.849 54.616 226.313 56.552 226.313 58.968C226.313 61.32 227.961 63.32 230.745 63.32C232.249 63.32 233.481 62.696 234.233 61.688ZM230.377 55.992C231.673 55.992 232.393 56.92 232.425 57.928H228.089C228.345 56.68 229.177 55.992 230.377 55.992ZM235.341 61.864C236.093 62.776 237.101 63.32 238.461 63.32C239.965 63.32 241.245 62.376 241.261 60.792C241.261 58.024 237.309 58.568 237.309 56.952C237.309 56.408 237.693 55.96 238.461 55.96C239.133 55.96 239.693 56.36 240.125 56.936L241.245 55.96C240.669 55.192 239.629 54.616 238.445 54.616C236.829 54.616 235.709 55.672 235.709 57C235.709 59.848 239.661 59.256 239.661 60.888C239.661 61.496 239.229 61.976 238.445 61.976C237.645 61.976 237.005 61.544 236.477 60.872L235.341 61.864ZM33.6956 85H35.3436V79.624C35.7596 78.936 36.4316 78.392 37.4556 78.392C37.7916 78.392 38.0476 78.44 38.3036 78.504V76.888C38.0956 76.824 37.8556 76.776 37.5996 76.776C36.6076 76.776 35.9036 77.224 35.3436 77.848V76.936H33.6956V85ZM46.9756 83.688L45.7756 82.728C45.2796 83.4 44.4636 83.832 43.4876 83.832C41.9356 83.832 40.8636 82.92 40.7516 81.16H46.7036C46.7676 80.92 46.8156 80.552 46.8156 80.184C46.8156 78.136 45.3756 76.616 43.1516 76.616C40.5916 76.616 39.0556 78.552 39.0556 80.968C39.0556 83.32 40.7036 85.32 43.4876 85.32C44.9916 85.32 46.2236 84.696 46.9756 83.688ZM43.1196 77.992C44.4156 77.992 45.1356 78.92 45.1676 79.928H40.8316C41.0876 78.68 41.9196 77.992 43.1196 77.992ZM52.7059 83.768C51.1379 83.768 50.0179 82.568 50.0179 80.968C50.0179 79.384 51.1379 78.168 52.6899 78.168C53.6179 78.168 54.3539 78.616 54.8019 79.24L56.0979 78.248C55.3619 77.256 54.1619 76.616 52.6899 76.616C49.9859 76.616 48.2899 78.616 48.2899 80.968C48.2899 83.048 49.6019 84.84 51.7779 85.24L50.3379 87.56H52.0019L53.4099 85.272C54.5619 85.096 55.4899 84.52 56.0979 83.688L54.8019 82.696C54.3539 83.32 53.6179 83.768 52.7059 83.768ZM61.2521 76.616C58.6441 76.616 56.8681 78.584 56.8681 80.968C56.8681 83.352 58.6441 85.32 61.2521 85.32C63.8761 85.32 65.6361 83.352 65.6361 80.968C65.6361 78.584 63.8761 76.616 61.2521 76.616ZM61.2681 83.768C59.7161 83.768 58.5961 82.52 58.5961 80.968C58.5961 79.416 59.7161 78.168 61.2681 78.168C62.7881 78.168 63.9081 79.4 63.9081 80.968C63.9081 82.504 62.7881 83.768 61.2681 83.768ZM68.5276 75.144C69.1356 75.144 69.6476 74.632 69.6476 74.024C69.6476 73.416 69.1356 72.904 68.5276 72.904C67.9196 72.904 67.4076 73.416 67.4076 74.024C67.4076 74.632 67.9196 75.144 68.5276 75.144ZM67.6956 85H69.3436V76.936H67.6956V85ZM70.8553 76.936L73.8953 85H76.0873L79.1433 76.936H77.3513L74.9993 83.208L72.6313 76.936H70.8553ZM87.8037 83.688L86.6037 82.728C86.1077 83.4 85.2917 83.832 84.3157 83.832C82.7637 83.832 81.6917 82.92 81.5797 81.16H87.5317C87.5957 80.92 87.6437 80.552 87.6437 80.184C87.6437 78.136 86.2037 76.616 83.9797 76.616C81.4197 76.616 79.8837 78.552 79.8837 80.968C79.8837 83.32 81.5317 85.32 84.3157 85.32C85.8197 85.32 87.0517 84.696 87.8037 83.688ZM83.9477 77.992C85.2437 77.992 85.9637 78.92 85.9957 79.928H81.6597C81.9157 78.68 82.7477 77.992 83.9477 77.992ZM89.8049 85H91.4529V79.56C91.8689 78.856 92.5249 78.168 93.6289 78.168C94.7809 78.168 95.4849 78.936 95.4849 80.216V85H97.1489V80.152C97.1489 77.816 95.7889 76.616 94.0129 76.616C92.8609 76.616 92.0609 77.08 91.4529 77.72V76.936H89.8049V85ZM100.191 82.2C100.191 84.168 101.183 85.16 103.071 85.16C103.695 85.16 104.143 85.08 104.527 84.92V83.464C104.239 83.576 103.871 83.64 103.327 83.64C102.431 83.64 101.855 83.288 101.855 82.2V78.424H104.527V76.936H101.855V74.92H100.191V76.936H98.6712V78.424H100.191V82.2ZM110.805 85H112.453V79.56C112.837 78.872 113.445 78.168 114.469 78.168C115.525 78.168 116.165 78.872 116.165 80.056V85H117.829V79.992C117.829 79.832 117.829 79.688 117.813 79.544C118.245 78.776 118.869 78.168 119.829 78.168C120.869 78.168 121.525 78.872 121.525 80.056V85H123.189V79.992C123.189 77.768 121.893 76.616 120.213 76.616C118.821 76.616 118.021 77.272 117.397 78.072C116.885 77.112 115.957 76.616 114.853 76.616C113.781 76.616 113.029 77.064 112.453 77.688V76.936H110.805V85ZM129.486 76.616C126.878 76.616 125.102 78.584 125.102 80.968C125.102 83.352 126.878 85.32 129.486 85.32C132.11 85.32 133.87 83.352 133.87 80.968C133.87 78.584 132.11 76.616 129.486 76.616ZM129.502 83.768C127.95 83.768 126.83 82.52 126.83 80.968C126.83 79.416 127.95 78.168 129.502 78.168C131.022 78.168 132.142 79.4 132.142 80.968C132.142 82.504 131.022 83.768 129.502 83.768ZM136.762 75.144C137.37 75.144 137.882 74.632 137.882 74.024C137.882 73.416 137.37 72.904 136.762 72.904C136.154 72.904 135.642 73.416 135.642 74.024C135.642 74.632 136.154 75.144 136.762 75.144ZM135.93 85H137.578V76.936H135.93V85ZM140.274 85H141.922V79.56C142.338 78.856 142.994 78.168 144.098 78.168C145.25 78.168 145.954 78.936 145.954 80.216V85H147.618V80.152C147.618 77.816 146.258 76.616 144.482 76.616C143.33 76.616 142.53 77.08 141.922 77.72V76.936H140.274V85ZM149.38 83.864C150.132 84.776 151.14 85.32 152.5 85.32C154.004 85.32 155.284 84.376 155.3 82.792C155.3 80.024 151.348 80.568 151.348 78.952C151.348 78.408 151.732 77.96 152.5 77.96C153.172 77.96 153.732 78.36 154.164 78.936L155.284 77.96C154.708 77.192 153.668 76.616 152.484 76.616C150.868 76.616 149.748 77.672 149.748 79C149.748 81.848 153.7 81.256 153.7 82.888C153.7 83.496 153.268 83.976 152.484 83.976C151.684 83.976 151.044 83.544 150.516 82.872L149.38 83.864ZM161.04 80.968C161.04 83.32 162.624 85.32 165.168 85.32C166.32 85.32 167.184 84.904 167.856 84.184V85H169.536V73H167.856V77.752C167.184 77.032 166.32 76.616 165.168 76.616C162.624 76.616 161.04 78.616 161.04 80.968ZM162.784 80.968C162.784 79.384 163.824 78.168 165.376 78.168C166.384 78.168 167.264 78.632 167.856 79.512V82.424C167.312 83.272 166.416 83.768 165.376 83.768C163.824 83.768 162.784 82.552 162.784 80.968ZM172.993 78.232L174.737 73.8H172.865L171.473 78.232H172.993ZM178.185 85.24C179.177 85.24 180.185 84.792 180.761 84.088V85H182.409V79.672C182.409 77.896 181.209 76.616 179.033 76.616C177.593 76.616 176.441 77.224 175.721 78.184L176.953 79.128C177.417 78.472 178.105 78.072 178.985 78.072C180.025 78.072 180.761 78.68 180.761 79.672V80.088L178.153 80.52C176.441 80.808 175.497 81.688 175.497 82.904C175.497 84.328 176.585 85.24 178.185 85.24ZM177.161 82.84C177.161 82.232 177.577 81.8 178.585 81.624L180.761 81.256V82.648C180.281 83.416 179.497 83.896 178.489 83.896C177.657 83.896 177.161 83.464 177.161 82.84ZM185.824 75.144C186.432 75.144 186.944 74.632 186.944 74.024C186.944 73.416 186.432 72.904 185.824 72.904C185.216 72.904 184.704 73.416 184.704 74.024C184.704 74.632 185.216 75.144 185.824 75.144ZM184.992 85H186.64V76.936H184.992V85ZM188.696 80.968C188.696 83.32 190.28 85.32 192.824 85.32C193.976 85.32 194.84 84.904 195.512 84.184V85H197.192V73H195.512V77.752C194.84 77.032 193.976 76.616 192.824 76.616C190.28 76.616 188.696 78.616 188.696 80.968ZM190.44 80.968C190.44 79.384 191.48 78.168 193.032 78.168C194.04 78.168 194.92 78.632 195.512 79.512V82.424C194.968 83.272 194.072 83.768 193.032 83.768C191.48 83.768 190.44 82.552 190.44 80.968ZM207.132 83.688L205.932 82.728C205.436 83.4 204.62 83.832 203.644 83.832C202.092 83.832 201.02 82.92 200.908 81.16H206.86C206.924 80.92 206.972 80.552 206.972 80.184C206.972 78.136 205.532 76.616 203.308 76.616C200.748 76.616 199.212 78.552 199.212 80.968C199.212 83.32 200.86 85.32 203.644 85.32C205.148 85.32 206.38 84.696 207.132 83.688ZM203.276 77.992C204.572 77.992 205.292 78.92 205.324 79.928H200.988C201.244 78.68 202.076 77.992 203.276 77.992ZM208.239 83.864C208.991 84.776 209.999 85.32 211.359 85.32C212.863 85.32 214.143 84.376 214.159 82.792C214.159 80.024 210.207 80.568 210.207 78.952C210.207 78.408 210.591 77.96 211.359 77.96C212.031 77.96 212.591 78.36 213.023 78.936L214.143 77.96C213.567 77.192 212.527 76.616 211.343 76.616C209.727 76.616 208.607 77.672 208.607 79C208.607 81.848 212.559 81.256 212.559 82.888C212.559 83.496 212.127 83.976 211.343 83.976C210.543 83.976 209.903 83.544 209.375 82.872L208.239 83.864ZM219.899 80.968C219.899 83.32 221.483 85.32 224.011 85.32C225.179 85.32 226.043 84.904 226.715 84.168V88.936H228.395V76.936H226.715V77.768C226.043 77.032 225.179 76.616 224.011 76.616C221.483 76.616 219.899 78.616 219.899 80.968ZM221.627 80.968C221.627 79.384 222.667 78.168 224.219 78.168C225.243 78.168 226.123 78.632 226.715 79.512V82.424C226.171 83.272 225.275 83.768 224.219 83.768C222.667 83.768 221.627 82.552 221.627 80.968ZM236.543 81.544C236.543 82.936 235.791 83.768 234.559 83.768C233.295 83.768 232.559 82.936 232.559 81.544V76.936H230.895V81.464C230.895 83.88 232.287 85.32 234.559 85.32C236.815 85.32 238.207 83.88 238.207 81.464V76.936H236.543V81.544ZM247.991 83.688L246.791 82.728C246.295 83.4 245.479 83.832 244.503 83.832C242.951 83.832 241.879 82.92 241.767 81.16H247.719C247.783 80.92 247.831 80.552 247.831 80.184C247.831 78.136 246.391 76.616 244.167 76.616C241.607 76.616 240.071 78.552 240.071 80.968C240.071 83.32 241.719 85.32 244.503 85.32C246.007 85.32 247.239 84.696 247.991 83.688ZM244.135 77.992C245.431 77.992 246.151 78.92 246.183 79.928H241.847C242.103 78.68 242.935 77.992 244.135 77.992ZM96.1565 107H97.8045V95H96.1565V107ZM107.78 105.688L106.58 104.728C106.084 105.4 105.268 105.832 104.292 105.832C102.74 105.832 101.668 104.92 101.556 103.16H107.508C107.572 102.92 107.62 102.552 107.62 102.184C107.62 100.136 106.18 98.616 103.956 98.616C101.396 98.616 99.8603 100.552 99.8603 102.968C99.8603 105.32 101.508 107.32 104.292 107.32C105.796 107.32 107.028 106.696 107.78 105.688ZM103.924 99.992C105.22 99.992 105.94 100.92 105.972 101.928H101.636C101.892 100.68 102.724 99.992 103.924 99.992ZM108.888 105.864C109.64 106.776 110.648 107.32 112.008 107.32C113.512 107.32 114.792 106.376 114.808 104.792C114.808 102.024 110.856 102.568 110.856 100.952C110.856 100.408 111.24 99.96 112.008 99.96C112.68 99.96 113.24 100.36 113.672 100.936L114.792 99.96C114.216 99.192 113.176 98.616 111.992 98.616C110.376 98.616 109.256 99.672 109.256 101C109.256 103.848 113.208 103.256 113.208 104.888C113.208 105.496 112.776 105.976 111.992 105.976C111.192 105.976 110.552 105.544 110.024 104.872L108.888 105.864ZM121.188 107H122.836V101.56C123.268 100.856 123.908 100.168 125.012 100.168C126.164 100.168 126.868 100.936 126.868 102.216V107H128.532V102.152C128.532 99.816 127.188 98.616 125.396 98.616C124.244 98.616 123.444 99.08 122.836 99.72V95H121.188V107ZM134.838 98.616C132.23 98.616 130.454 100.584 130.454 102.968C130.454 105.352 132.23 107.32 134.838 107.32C137.462 107.32 139.222 105.352 139.222 102.968C139.222 100.584 137.462 98.616 134.838 98.616ZM134.854 105.768C133.302 105.768 132.182 104.52 132.182 102.968C132.182 101.416 133.302 100.168 134.854 100.168C136.374 100.168 137.494 101.4 137.494 102.968C137.494 104.504 136.374 105.768 134.854 105.768ZM141.282 107H142.93V101.56C143.314 100.872 143.922 100.168 144.946 100.168C146.002 100.168 146.642 100.872 146.642 102.056V107H148.306V101.992C148.306 101.832 148.306 101.688 148.29 101.544C148.722 100.776 149.345 100.168 150.306 100.168C151.346 100.168 152.002 100.872 152.002 102.056V107H153.666V101.992C153.666 99.768 152.37 98.616 150.69 98.616C149.298 98.616 148.498 99.272 147.874 100.072C147.362 99.112 146.434 98.616 145.33 98.616C144.258 98.616 143.506 99.064 142.93 99.688V98.936H141.282V107ZM156.219 107H157.867V101.56C158.251 100.872 158.859 100.168 159.883 100.168C160.939 100.168 161.579 100.872 161.579 102.056V107H163.243V101.992C163.243 101.832 163.243 101.688 163.227 101.544C163.659 100.776 164.283 100.168 165.243 100.168C166.283 100.168 166.939 100.872 166.939 102.056V107H168.603V101.992C168.603 99.768 167.307 98.616 165.627 98.616C164.235 98.616 163.435 99.272 162.811 100.072C162.299 99.112 161.371 98.616 160.267 98.616C159.195 98.616 158.443 99.064 157.867 99.688V98.936H156.219V107ZM178.437 105.688L177.237 104.728C176.741 105.4 175.925 105.832 174.949 105.832C173.397 105.832 172.325 104.92 172.213 103.16H178.165C178.229 102.92 178.277 102.552 178.277 102.184C178.277 100.136 176.837 98.616 174.613 98.616C172.053 98.616 170.517 100.552 170.517 102.968C170.517 105.32 172.164 107.32 174.949 107.32C176.453 107.32 177.685 106.696 178.437 105.688ZM174.581 99.992C175.877 99.992 176.597 100.92 176.629 101.928H172.293C172.549 100.68 173.381 99.992 174.581 99.992ZM179.544 105.864C180.296 106.776 181.304 107.32 182.664 107.32C184.168 107.32 185.448 106.376 185.464 104.792C185.464 102.024 181.512 102.568 181.512 100.952C181.512 100.408 181.896 99.96 182.664 99.96C183.336 99.96 183.896 100.36 184.328 100.936L185.448 99.96C184.872 99.192 183.832 98.616 182.648 98.616C181.032 98.616 179.912 99.672 179.912 101C179.912 103.848 183.864 103.256 183.864 104.888C183.864 105.496 183.432 105.976 182.648 105.976C181.848 105.976 181.208 105.544 180.68 104.872L179.544 105.864Z" fill="#6B48F4"/>
<circle cx="240.751" cy="246.246" r="17.249" transform="rotate(-180 240.751 246.246)" fill="#BCABFF"/>
<circle cx="240.751" cy="200.809" r="17.249" transform="rotate(-180 240.751 200.809)" fill="#6B48F4"/>
<circle cx="191.107" cy="246.246" r="17.249" transform="rotate(-180 191.107 246.246)" fill="#BCABFF"/>
<circle cx="191.107" cy="200.809" r="17.249" transform="rotate(-180 191.107 200.809)" fill="#6B48F4"/>
<circle cx="141.464" cy="246.246" r="17.249" transform="rotate(-180 141.464 246.246)" fill="#BCABFF"/>
<circle cx="141.464" cy="200.809" r="17.249" transform="rotate(-180 141.464 200.809)" fill="#6B48F4"/>
<ellipse cx="91.3999" cy="246.246" rx="17.6697" ry="17.249" transform="rotate(-180 91.3999 246.246)" fill="#BCABFF"/>
<ellipse cx="91.3999" cy="200.809" rx="17.6697" ry="17.249" transform="rotate(-180 91.3999 200.809)" fill="#BCABFF"/>
<circle cx="41.3355" cy="246.246" r="17.249" transform="rotate(-180 41.3355 246.246)" fill="#BCABFF"/>
<circle cx="41.3355" cy="200.809" r="17.249" transform="rotate(-180 41.3355 200.809)" fill="#BCABFF"/>
<path fill-rule="evenodd" clip-rule="evenodd" d="M130.128 143.178C130.231 143.176 130.334 143.175 130.439 143.175L130.595 143.176C130.647 143.176 130.698 143.177 130.749 143.178L131.053 143.188L131.349 143.204C131.496 143.213 131.639 143.225 131.778 143.24L132.052 143.272C133.534 143.466 134.555 143.95 134.555 144.719V147.806C134.555 148.09 134.325 148.321 134.041 148.321C133.777 148.321 133.559 148.122 133.53 147.866L133.526 147.806V145.813C133.124 145.973 132.622 146.091 132.052 146.165L131.778 146.197C131.639 146.212 131.496 146.224 131.349 146.233L131.053 146.249L130.749 146.259C130.647 146.261 130.543 146.262 130.439 146.262C130.334 146.262 130.231 146.261 130.128 146.259L129.825 146.249L129.528 146.233C129.382 146.224 129.239 146.212 129.1 146.197L128.825 146.165C127.344 145.971 126.322 145.487 126.322 144.719C126.322 143.95 127.344 143.466 128.825 143.272L129.1 143.24C129.239 143.225 129.382 143.213 129.528 143.204L129.825 143.188L130.128 143.178ZM133.526 144.719L133.515 144.711C133.398 144.645 133.233 144.578 133.029 144.516L132.924 144.486C132.282 144.308 131.393 144.204 130.439 144.204C129.486 144.204 128.597 144.308 127.955 144.486C127.737 144.546 127.558 144.612 127.426 144.678L127.351 144.719L127.439 144.766C127.548 144.819 127.686 144.871 127.849 144.921L127.955 144.952C128.597 145.129 129.486 145.233 130.439 145.233C131.393 145.233 132.282 145.129 132.924 144.952C133.141 144.891 133.32 144.825 133.453 144.759L133.526 144.719Z" fill="#6B48F4"/>
<path d="M150.884 162.628C150.339 162.039 149.593 161.7 148.796 161.7C147.523 161.7 146.443 162.56 146.042 163.758H145.362L145.301 163.761C145.046 163.791 144.847 164.009 144.847 164.272C144.847 164.557 145.077 164.787 145.362 164.787H145.876C145.876 164.962 145.89 165.134 145.916 165.302H145.362L145.301 165.305C145.046 165.335 144.847 165.552 144.847 165.816C144.847 166.1 145.077 166.331 145.362 166.331H146.267C146.771 167.253 147.714 167.874 148.796 167.874C149.523 167.874 150.209 167.592 150.739 167.092C150.943 166.9 150.957 166.575 150.772 166.365C150.586 166.155 150.271 166.14 150.068 166.332C149.719 166.661 149.271 166.845 148.796 166.845C148.309 166.845 147.863 166.651 147.524 166.331H148.449L148.509 166.327C148.765 166.298 148.964 166.08 148.964 165.816C148.964 165.532 148.733 165.302 148.449 165.302H146.933C146.893 165.137 146.872 164.965 146.872 164.787H148.449L148.509 164.784C148.765 164.754 148.964 164.536 148.964 164.272C148.964 163.988 148.733 163.758 148.449 163.758H147.129C147.463 163.142 148.086 162.729 148.796 162.729C149.317 162.729 149.804 162.95 150.164 163.339C150.354 163.544 150.669 163.552 150.868 163.355C151.067 163.159 151.074 162.833 150.884 162.628Z" fill="#6B48F4"/>
<path d="M126.837 147.291C127.101 147.291 127.318 147.472 127.348 147.705L127.351 147.759V157.115C127.351 157.374 127.121 157.583 126.837 157.583C126.573 157.583 126.355 157.402 126.326 157.17L126.322 157.115V147.759C126.322 147.501 126.553 147.291 126.837 147.291Z" fill="#6B48F4"/>
<path d="M126.837 159.641C127.121 159.641 127.351 159.411 127.351 159.127C127.351 158.842 127.121 158.612 126.837 158.612C126.553 158.612 126.322 158.842 126.322 159.127C126.322 159.411 126.553 159.641 126.837 159.641Z" fill="#6B48F4"/>
<path fill-rule="evenodd" clip-rule="evenodd" d="M151.022 151.408C150.917 151.408 150.814 151.409 150.711 151.411L150.408 151.421L150.111 151.437C149.965 151.447 149.822 151.459 149.683 151.473L149.408 151.505C147.927 151.699 146.905 152.183 146.905 152.952C146.905 153.72 147.927 154.204 149.408 154.398L149.683 154.43C149.822 154.445 149.965 154.457 150.111 154.467L150.408 154.483L150.711 154.492C150.814 154.494 150.917 154.496 151.022 154.496C151.126 154.496 151.23 154.494 151.332 154.492L151.636 154.483L151.932 154.467C152.078 154.457 152.222 154.445 152.361 154.43L152.635 154.398C153.205 154.324 153.707 154.206 154.109 154.046V156.039L154.113 156.099C154.142 156.355 154.36 156.554 154.624 156.554C154.908 156.554 155.138 156.323 155.138 156.039V152.952C155.138 152.183 154.116 151.699 152.635 151.505L152.361 151.473C152.222 151.459 152.078 151.447 151.932 151.437L151.636 151.421L151.332 151.411C151.281 151.41 151.23 151.409 151.178 151.409L151.022 151.408ZM154.036 152.992L154.109 152.952L154.098 152.945C153.981 152.878 153.816 152.811 153.612 152.749L153.507 152.719C152.865 152.541 151.976 152.437 151.022 152.437C150.069 152.437 149.18 152.541 148.538 152.719C148.32 152.779 148.141 152.845 148.009 152.911L147.934 152.952L148.022 152.999C148.131 153.052 148.269 153.105 148.432 153.154L148.538 153.185C149.18 153.362 150.069 153.466 151.022 153.466C151.976 153.466 152.865 153.362 153.507 153.185C153.724 153.125 153.903 153.058 154.036 152.992Z" fill="#6B48F4"/>
<path d="M147.931 154.95C147.901 154.694 147.684 154.496 147.42 154.496C147.136 154.496 146.905 154.726 146.905 155.01V157.068L146.909 157.128C146.938 157.384 147.156 157.583 147.42 157.583C147.704 157.583 147.934 157.353 147.934 157.068V155.01L147.931 154.95Z" fill="#6B48F4"/>
<path fill-rule="evenodd" clip-rule="evenodd" d="M139.013 148.321L138.669 148.327C138.612 148.328 138.556 148.33 138.499 148.332L138.165 148.348L137.837 148.369C137.675 148.381 137.516 148.396 137.36 148.412L137.052 148.448C137.001 148.455 136.951 148.462 136.901 148.469L136.607 148.513C134.773 148.816 133.526 149.461 133.526 150.379V152.731L133.529 152.808C133.53 152.826 133.532 152.845 133.534 152.863C133.529 152.892 133.526 152.922 133.526 152.952V155.304L133.529 155.381C133.53 155.399 133.532 155.418 133.534 155.436C133.529 155.465 133.526 155.495 133.526 155.525V157.877L133.529 157.953C133.53 157.972 133.532 157.99 133.534 158.009C133.529 158.038 133.526 158.067 133.526 158.097V160.45L133.529 160.526C133.534 160.598 133.545 160.669 133.563 160.738C133.487 160.731 133.41 160.725 133.332 160.719L133.004 160.697L132.67 160.682C132.614 160.68 132.557 160.678 132.5 160.677L132.157 160.67H131.809L131.465 160.677C131.408 160.678 131.352 160.68 131.295 160.682L130.961 160.697L130.633 160.719C130.471 160.731 130.312 160.745 130.156 160.762L129.848 160.798C129.797 160.805 129.747 160.811 129.697 160.818L129.403 160.863C127.569 161.165 126.322 161.811 126.322 162.728V165.081L126.325 165.157C126.326 165.176 126.328 165.194 126.33 165.213C126.325 165.242 126.322 165.271 126.322 165.301V167.654L126.325 167.73C126.391 168.74 127.783 169.462 129.745 169.769L130.043 169.812C130.144 169.825 130.246 169.837 130.35 169.848L130.664 169.878C131.087 169.914 131.529 169.933 131.983 169.933C132.436 169.933 132.878 169.914 133.301 169.878L133.615 169.848C133.719 169.837 133.821 169.825 133.922 169.812L134.22 169.769C136.144 169.468 137.518 168.768 137.635 167.79C138.126 167.846 138.638 167.874 139.161 167.874C140.442 167.874 142.012 167.711 142.883 167.465C143.881 169.534 145.998 170.962 148.449 170.962C151.859 170.962 154.624 168.197 154.624 164.787C154.624 161.376 151.859 158.612 148.449 158.612C147.105 158.612 145.861 159.041 144.847 159.771V158.097L144.843 158.037C144.843 158.032 144.842 158.028 144.842 158.023C144.841 158.018 144.84 158.013 144.839 158.009C144.844 157.965 144.847 157.922 144.847 157.877V155.525L144.843 155.465C144.842 155.455 144.841 155.446 144.839 155.436C144.844 155.393 144.847 155.349 144.847 155.304V152.952L144.843 152.892C144.842 152.882 144.841 152.873 144.839 152.863C144.844 152.82 144.847 152.776 144.847 152.731V150.379C144.847 149.486 143.665 148.85 141.91 148.538L141.62 148.49C141.522 148.475 141.422 148.461 141.321 148.448L141.013 148.412C140.857 148.396 140.698 148.381 140.536 148.369L140.208 148.348L139.874 148.332C139.818 148.33 139.761 148.328 139.704 148.327L139.361 148.321H139.013ZM142.82 162.245C142.401 162.378 141.932 162.485 141.424 162.565L141.126 162.608C141.025 162.621 140.923 162.633 140.819 162.644L140.505 162.674C140.082 162.71 139.641 162.728 139.187 162.728C138.733 162.728 138.291 162.71 137.868 162.674L137.64 162.652C137.642 162.677 137.643 162.703 137.643 162.728V164.063C138.134 164.124 138.651 164.156 139.181 164.156C140.229 164.156 141.477 164.036 142.345 163.851C142.43 163.287 142.592 162.748 142.82 162.245ZM142.279 165.028C141.366 165.198 140.19 165.302 139.181 165.302C138.652 165.302 138.133 165.272 137.636 165.215L137.637 165.224L137.639 165.234L137.639 165.241L137.643 165.301V166.642C138.128 166.702 138.638 166.732 139.161 166.732C140.294 166.732 141.681 166.594 142.486 166.396C142.368 165.957 142.297 165.499 142.279 165.028ZM134.555 152.731V151.637C135.051 151.888 135.704 152.084 136.463 152.219L136.753 152.267C136.851 152.282 136.951 152.296 137.052 152.309L137.36 152.345C137.516 152.362 137.675 152.376 137.837 152.388L138.165 152.41L138.499 152.425C138.556 152.427 138.612 152.429 138.669 152.43L139.013 152.436C139.07 152.437 139.128 152.437 139.187 152.437L139.361 152.436L139.704 152.43C139.761 152.429 139.818 152.427 139.874 152.425L140.208 152.41L140.536 152.388C140.698 152.376 140.857 152.362 141.013 152.345L141.321 152.309C141.372 152.302 141.422 152.296 141.472 152.289L141.766 152.244C142.588 152.108 143.291 151.904 143.818 151.637V152.731L143.814 152.763C143.773 152.948 143.386 153.243 142.658 153.492C141.757 153.801 140.516 153.981 139.187 153.981C137.857 153.981 136.616 153.801 135.715 153.492C134.944 153.228 134.555 152.913 134.555 152.731ZM134.953 150.725C134.698 150.604 134.555 150.484 134.555 150.379C134.555 150.274 134.698 150.154 134.953 150.034L135.09 149.973C135.139 149.953 135.19 149.933 135.245 149.914L135.417 149.855C135.478 149.835 135.54 149.816 135.606 149.797L135.81 149.741C135.846 149.732 135.882 149.723 135.918 149.714L136.144 149.661C136.222 149.644 136.302 149.627 136.384 149.611L136.637 149.564L136.901 149.52C136.947 149.513 136.992 149.507 137.038 149.5L137.319 149.463L137.61 149.43L137.91 149.402C138.012 149.394 138.115 149.386 138.219 149.38L138.535 149.363L138.858 149.353C138.912 149.352 138.967 149.351 139.022 149.351L139.187 149.35C139.297 149.35 139.407 149.351 139.515 149.353L139.838 149.363L140.154 149.38C140.258 149.386 140.361 149.394 140.463 149.402L140.763 149.43L141.054 149.463L141.335 149.5L141.606 149.542C141.65 149.549 141.693 149.556 141.736 149.564L141.989 149.611C142.03 149.619 142.071 149.627 142.111 149.635L142.344 149.687C142.419 149.705 142.492 149.723 142.563 149.741L142.767 149.797C142.8 149.806 142.832 149.816 142.864 149.826L143.044 149.884C143.13 149.914 143.21 149.943 143.283 149.973L143.42 150.034C143.676 150.154 143.818 150.274 143.818 150.379C143.818 150.484 143.676 150.604 143.42 150.725L143.283 150.785C143.234 150.805 143.183 150.825 143.128 150.845L142.956 150.904C142.896 150.923 142.833 150.942 142.767 150.961L142.563 151.017C142.528 151.027 142.492 151.036 142.455 151.045L142.229 151.097C142.151 151.115 142.071 151.131 141.989 151.148L141.736 151.195L141.472 151.238C141.427 151.245 141.381 151.252 141.335 151.258L141.054 151.296L140.763 151.328L140.463 151.356C140.361 151.364 140.258 151.372 140.154 151.378L139.838 151.395L139.515 151.405C139.407 151.407 139.297 151.408 139.187 151.408C139.076 151.408 138.967 151.407 138.858 151.405L138.535 151.395L138.219 151.378C138.115 151.372 138.012 151.364 137.91 151.356L137.61 151.328L137.319 151.296L137.038 151.258L136.768 151.217C136.724 151.209 136.68 151.202 136.637 151.195L136.384 151.148C136.343 151.139 136.303 151.131 136.263 151.123L136.029 151.071C135.954 151.054 135.881 151.036 135.81 151.017L135.606 150.961C135.573 150.952 135.541 150.942 135.51 150.933L135.329 150.874C135.243 150.845 135.163 150.815 135.09 150.785L134.953 150.725ZM134.555 155.304V154.106C135.155 154.444 135.983 154.695 136.949 154.847L137.247 154.889C137.348 154.903 137.45 154.915 137.554 154.926L137.868 154.956C138.291 154.992 138.733 155.01 139.187 155.01C139.641 155.01 140.082 154.992 140.505 154.956L140.819 154.926C140.923 154.915 141.025 154.903 141.126 154.889L141.424 154.847C142.391 154.695 143.218 154.444 143.818 154.106V155.304L143.814 155.336C143.773 155.52 143.386 155.815 142.658 156.065C141.757 156.374 140.516 156.554 139.187 156.554C137.857 156.554 136.616 156.374 135.715 156.065C134.944 155.801 134.555 155.486 134.555 155.304ZM136.614 166.456C136.014 166.793 135.187 167.045 134.22 167.196L133.922 167.239C133.821 167.252 133.719 167.264 133.615 167.275L133.301 167.306C132.878 167.341 132.436 167.36 131.983 167.36C131.529 167.36 131.087 167.341 130.664 167.306L130.35 167.275C130.246 167.264 130.144 167.252 130.043 167.239L129.745 167.196C128.779 167.045 127.951 166.793 127.351 166.456V167.654C127.351 167.835 127.74 168.15 128.511 168.415C129.412 168.724 130.653 168.904 131.983 168.904C133.312 168.904 134.553 168.724 135.454 168.415C136.182 168.165 136.569 167.87 136.61 167.685L136.614 167.654V166.456ZM134.555 156.679C135.155 157.017 135.983 157.268 136.949 157.419L137.247 157.462C137.348 157.475 137.45 157.488 137.554 157.499L137.868 157.529C138.291 157.565 138.733 157.583 139.187 157.583C139.641 157.583 140.082 157.565 140.505 157.529L140.819 157.499C140.923 157.488 141.025 157.475 141.126 157.462L141.424 157.419C142.391 157.268 143.218 157.017 143.818 156.679V157.877L143.814 157.909C143.773 158.093 143.386 158.388 142.658 158.638C141.757 158.947 140.516 159.127 139.187 159.127C137.857 159.127 136.616 158.947 135.715 158.638C134.944 158.374 134.555 158.059 134.555 157.877V156.679ZM143.818 160.45V159.252C143.218 159.589 142.391 159.841 141.424 159.992L141.126 160.035C141.025 160.048 140.923 160.061 140.819 160.072L140.505 160.102C140.082 160.138 139.641 160.156 139.187 160.156C138.733 160.156 138.291 160.138 137.868 160.102L137.554 160.072C137.45 160.061 137.348 160.048 137.247 160.035L136.949 159.992C135.983 159.841 135.155 159.589 134.555 159.252V160.45C134.555 160.579 134.754 160.777 135.149 160.976C135.693 161.097 136.168 161.253 136.555 161.44C137.324 161.607 138.233 161.699 139.187 161.699C140.516 161.699 141.757 161.519 142.658 161.21C143.386 160.961 143.773 160.666 143.814 160.481L143.818 160.45ZM136.356 162.456C135.78 162.333 135.269 162.17 134.844 161.972C134.825 161.968 134.805 161.964 134.785 161.96L134.532 161.914C134.489 161.906 134.446 161.899 134.401 161.891L134.131 161.85L133.85 161.812L133.559 161.78L133.259 161.752C133.157 161.744 133.054 161.736 132.95 161.73L132.634 161.713L132.311 161.703C132.203 161.701 132.093 161.7 131.983 161.7L131.818 161.7C131.763 161.701 131.708 161.702 131.654 161.703L131.331 161.713L131.015 161.73C130.911 161.736 130.808 161.744 130.706 161.752L130.406 161.78L130.115 161.812L129.834 161.85C129.788 161.856 129.742 161.863 129.697 161.87L129.433 161.914L129.18 161.96C129.098 161.977 129.018 161.993 128.94 162.011L128.714 162.063C128.678 162.072 128.642 162.082 128.606 162.091L128.402 162.147C128.336 162.166 128.274 162.185 128.213 162.204L128.041 162.263C127.986 162.283 127.935 162.303 127.886 162.323L127.749 162.383C127.494 162.504 127.351 162.624 127.351 162.729C127.351 162.834 127.494 162.954 127.749 163.074L127.886 163.135C127.959 163.165 128.039 163.194 128.125 163.224L128.306 163.282C128.337 163.292 128.369 163.302 128.402 163.311L128.606 163.367C128.677 163.385 128.75 163.404 128.825 163.421L129.059 163.473C129.099 163.481 129.139 163.489 129.18 163.497L129.433 163.544C129.476 163.552 129.52 163.559 129.564 163.566L129.834 163.608L130.115 163.645L130.406 163.678L130.706 163.706C130.808 163.714 130.911 163.722 131.015 163.728L131.331 163.745L131.654 163.755C131.762 163.757 131.872 163.758 131.983 163.758C132.093 163.758 132.203 163.757 132.311 163.755L132.634 163.745L132.95 163.728C133.054 163.722 133.157 163.714 133.259 163.706L133.559 163.678L133.85 163.645L134.131 163.608C134.177 163.601 134.223 163.595 134.268 163.588L134.532 163.544L134.785 163.497C134.867 163.481 134.947 163.464 135.025 163.447L135.251 163.394C135.288 163.385 135.324 163.376 135.359 163.367L135.563 163.311C135.629 163.292 135.692 163.273 135.752 163.253L135.924 163.194C135.979 163.175 136.03 163.155 136.079 163.135L136.216 163.074C136.472 162.954 136.614 162.834 136.614 162.729C136.614 162.645 136.523 162.551 136.356 162.456ZM136.614 165.081V163.987C136.087 164.254 135.384 164.458 134.562 164.593L134.268 164.638C134.218 164.645 134.168 164.652 134.117 164.659L133.809 164.695C133.653 164.711 133.494 164.726 133.332 164.738L133.004 164.759L132.67 164.775C132.614 164.777 132.557 164.778 132.5 164.78L132.157 164.786L131.983 164.787C131.924 164.787 131.866 164.787 131.809 164.786L131.465 164.78C131.408 164.778 131.352 164.777 131.295 164.775L130.961 164.759L130.633 164.738C130.471 164.726 130.312 164.711 130.156 164.695L129.848 164.659C129.747 164.646 129.647 164.632 129.549 164.617L129.259 164.569C128.499 164.434 127.847 164.238 127.351 163.987V165.081C127.351 165.262 127.74 165.577 128.511 165.842C129.412 166.151 130.653 166.331 131.983 166.331C133.312 166.331 134.553 166.151 135.454 165.842C136.182 165.592 136.569 165.297 136.61 165.112L136.614 165.081ZM148.449 159.641C151.291 159.641 153.595 161.945 153.595 164.787C153.595 167.629 151.291 169.933 148.449 169.933C145.607 169.933 143.303 167.629 143.303 164.787C143.303 161.945 145.607 159.641 148.449 159.641Z" fill="#6B48F4"/>
<path d="M151.753 157.631C151.495 157.511 151.19 157.623 151.07 157.881C150.95 158.139 151.062 158.445 151.32 158.564C153.627 159.636 155.139 161.882 155.139 164.273C155.139 164.557 155.369 164.787 155.653 164.787C155.937 164.787 156.168 164.557 156.168 164.273C156.168 161.472 154.416 158.867 151.753 157.631Z" fill="#6B48F4"/>
<path d="M45.2592 313.226C44.3686 313.226 43.629 313.113 43.0403 312.887C42.4668 312.66 42.0215 312.404 41.7045 312.117C41.463 311.891 41.2894 311.679 41.1837 311.483C41.0781 311.287 41.0253 311.075 41.0253 310.849C41.0253 310.457 41.0932 310.185 41.229 310.034C41.3649 309.868 41.5385 309.785 41.7498 309.785H42.9271L43.0403 309.943L42.9271 310.691C42.8517 311.174 42.9724 311.581 43.2894 311.913C43.6215 312.23 44.2554 312.389 45.1912 312.389C45.8705 312.389 46.4743 312.223 47.0025 311.891C47.5459 311.559 47.9686 311.121 48.2705 310.577C48.5723 310.019 48.7233 309.4 48.7233 308.721C48.7233 307.83 48.4289 307.113 47.8403 306.57C47.2667 306.026 46.512 305.755 45.5762 305.755H44.195L44.3988 304.759H45.078C45.9384 304.759 46.6856 304.585 47.3195 304.238C47.9535 303.876 48.444 303.415 48.7912 302.857C49.1384 302.283 49.312 301.679 49.312 301.045C49.312 300.381 49.1233 299.823 48.7459 299.37C48.3686 298.902 47.8554 298.668 47.2063 298.668C46.5875 298.668 46.0516 298.827 45.5988 299.144C45.146 299.445 44.8667 299.921 44.7611 300.57L44.6252 301.453L44.4214 301.634H43.5158C43.2743 301.634 43.0932 301.604 42.9724 301.544C42.8517 301.483 42.7913 301.347 42.7913 301.136C42.7913 300.804 42.9347 300.404 43.2215 299.936C43.5082 299.468 43.9611 299.053 44.5799 298.691C45.0177 298.434 45.478 298.23 45.9611 298.079C46.4441 297.913 47.0025 297.83 47.6365 297.83C48.361 297.83 48.9874 297.989 49.5157 298.306C50.044 298.608 50.4516 299.008 50.7384 299.506C51.0402 300.004 51.1912 300.532 51.1912 301.091C51.1912 301.604 51.0327 302.117 50.7157 302.63C50.3987 303.144 49.9535 303.611 49.3799 304.034C48.8214 304.442 48.1799 304.736 47.4554 304.917C48.4214 305.143 49.1912 305.574 49.7648 306.208C50.3384 306.842 50.6252 307.619 50.6252 308.54C50.6252 309.083 50.4818 309.634 50.195 310.192C49.9233 310.736 49.5384 311.242 49.0403 311.709C48.5422 312.162 47.9686 312.532 47.3195 312.819C46.6705 313.091 45.9837 313.226 45.2592 313.226ZM56.5798 313.226C55.6892 313.226 54.9496 313.113 54.361 312.887C53.7874 312.66 53.3421 312.404 53.0251 312.117C52.7836 311.891 52.61 311.679 52.5044 311.483C52.3987 311.287 52.3459 311.075 52.3459 310.849C52.3459 310.457 52.4138 310.185 52.5497 310.034C52.6855 309.868 52.8591 309.785 53.0704 309.785H54.2478L54.361 309.943L54.2478 310.691C54.1723 311.174 54.293 311.581 54.61 311.913C54.9421 312.23 55.576 312.389 56.5119 312.389C57.1911 312.389 57.7949 312.223 58.3232 311.891C58.8666 311.559 59.2892 311.121 59.5911 310.577C59.893 310.019 60.0439 309.4 60.0439 308.721C60.0439 307.83 59.7496 307.113 59.1609 306.57C58.5873 306.026 57.8326 305.755 56.8968 305.755H55.5157L55.7194 304.759H56.3987C57.259 304.759 58.0062 304.585 58.6402 304.238C59.2741 303.876 59.7647 303.415 60.1118 302.857C60.459 302.283 60.6326 301.679 60.6326 301.045C60.6326 300.381 60.4439 299.823 60.0666 299.37C59.6892 298.902 59.176 298.668 58.5269 298.668C57.9081 298.668 57.3722 298.827 56.9194 299.144C56.4666 299.445 56.1874 299.921 56.0817 300.57L55.9458 301.453L55.7421 301.634H54.8364C54.5949 301.634 54.4138 301.604 54.293 301.544C54.1723 301.483 54.1119 301.347 54.1119 301.136C54.1119 300.804 54.2553 300.404 54.5421 299.936C54.8289 299.468 55.2817 299.053 55.9006 298.691C56.3383 298.434 56.7987 298.23 57.2817 298.079C57.7647 297.913 58.3232 297.83 58.9571 297.83C59.6817 297.83 60.3081 297.989 60.8364 298.306C61.3647 298.608 61.7722 299.008 62.059 299.506C62.3609 300.004 62.5118 300.532 62.5118 301.091C62.5118 301.604 62.3533 302.117 62.0363 302.63C61.7194 303.144 61.2741 303.611 60.7005 304.034C60.142 304.442 59.5005 304.736 58.776 304.917C59.742 305.143 60.5118 305.574 61.0854 306.208C61.659 306.842 61.9458 307.619 61.9458 308.54C61.9458 309.083 61.8024 309.634 61.5156 310.192C61.2439 310.736 60.859 311.242 60.3609 311.709C59.8628 312.162 59.2892 312.532 58.6402 312.819C57.9911 313.091 57.3043 313.226 56.5798 313.226ZM67.1306 305.189C66.3608 305.189 65.7722 304.91 65.3646 304.351C64.9571 303.777 64.7533 303 64.7533 302.019C64.7533 300.993 64.9193 300.019 65.2514 299.098C65.5835 298.178 66.0438 297.438 66.6325 296.879C67.2212 296.306 67.9155 296.019 68.7155 296.019C69.5004 296.019 70.0966 296.306 70.5042 296.879C70.9117 297.438 71.1155 298.215 71.1155 299.211C71.1155 300.238 70.9495 301.211 70.6174 302.132C70.2853 303.038 69.8174 303.777 69.2136 304.351C68.625 304.91 67.9306 305.189 67.1306 305.189ZM66.542 302.449C66.542 303.098 66.6023 303.611 66.7231 303.989C66.8589 304.366 67.0853 304.555 67.4023 304.555C67.7193 304.555 67.9985 304.374 68.24 304.011C68.4967 303.649 68.7004 303.181 68.8514 302.608C69.0174 302.019 69.1382 301.385 69.2136 300.706C69.3042 300.027 69.3495 299.37 69.3495 298.736C69.3495 298.087 69.2815 297.581 69.1457 297.219C69.0249 296.842 68.7985 296.653 68.4665 296.653C68.1495 296.653 67.8702 296.834 67.6287 297.196C67.3872 297.559 67.1835 298.027 67.0174 298.6C66.8665 299.174 66.7457 299.8 66.6552 300.479C66.5797 301.159 66.542 301.815 66.542 302.449ZM64.8212 312.66L78.3833 296.019L79.1079 296.585L65.5457 313.226L64.8212 312.66ZM75.2136 313.226C74.4438 313.226 73.8551 312.947 73.4475 312.389C73.04 311.815 72.8362 311.038 72.8362 310.057C72.8362 309.03 73.0023 308.057 73.3343 307.136C73.6664 306.215 74.1268 305.476 74.7154 304.917C75.3041 304.343 75.9985 304.057 76.7984 304.057C77.5833 304.057 78.1796 304.343 78.5871 304.917C78.9946 305.476 79.1984 306.253 79.1984 307.249C79.1984 308.276 79.0324 309.249 78.7003 310.17C78.3682 311.075 77.9003 311.815 77.2966 312.389C76.7079 312.947 76.0135 313.226 75.2136 313.226ZM74.6249 310.487C74.6249 311.136 74.6853 311.649 74.806 312.026C74.9419 312.404 75.1683 312.592 75.4853 312.592C75.8022 312.592 76.0815 312.411 76.323 312.049C76.5796 311.687 76.7834 311.219 76.9343 310.645C77.1003 310.057 77.2211 309.423 77.2966 308.743C77.3871 308.064 77.4324 307.408 77.4324 306.774C77.4324 306.125 77.3645 305.619 77.2286 305.257C77.1079 304.879 76.8815 304.691 76.5494 304.691C76.2324 304.691 75.9532 304.872 75.7117 305.234C75.4702 305.596 75.2664 306.064 75.1004 306.638C74.9494 307.211 74.8287 307.838 74.7381 308.517C74.6626 309.196 74.6249 309.853 74.6249 310.487ZM85.6326 310.185C85.6326 311.827 86.7608 313.223 88.5257 313.223C89.3634 313.223 90.0225 312.899 90.5251 312.33V313H91.4746V304.622H90.5251V308.041C90.0225 307.471 89.3634 307.147 88.5257 307.147C86.7608 307.147 85.6326 308.543 85.6326 310.185ZM86.6379 310.185C86.6379 308.99 87.4422 308.041 88.6374 308.041C89.4081 308.041 90.0895 308.409 90.5251 309.079V311.291C90.1118 311.95 89.4193 312.33 88.6374 312.33C87.4422 312.33 86.6379 311.38 86.6379 310.185ZM98.4801 312.073L97.7764 311.526C97.4078 312.028 96.7935 312.363 96.0674 312.363C94.8611 312.363 94.001 311.548 93.9675 310.196H98.2903C98.3238 310.04 98.3573 309.828 98.3573 309.604C98.3573 308.219 97.3631 307.147 95.8329 307.147C94.0903 307.147 92.9957 308.476 92.9957 310.185C92.9957 311.827 94.1685 313.223 96.0674 313.223C97.1174 313.223 97.9552 312.777 98.4801 312.073ZM95.8105 307.951C96.8046 307.951 97.3743 308.644 97.4078 309.47H94.0345C94.2355 308.498 94.8834 307.951 95.8105 307.951ZM99.3196 312.229C99.8334 312.866 100.537 313.223 101.431 313.223C102.481 313.223 103.318 312.564 103.33 311.514C103.33 309.593 100.504 309.995 100.504 308.733C100.504 308.297 100.828 307.94 101.431 307.94C101.922 307.94 102.347 308.208 102.648 308.633L103.307 308.074C102.916 307.527 102.224 307.147 101.42 307.147C100.336 307.147 99.5876 307.873 99.5876 308.755C99.5876 310.744 102.402 310.297 102.402 311.559C102.402 312.051 102.045 312.43 101.42 312.43C100.85 312.43 100.381 312.151 99.9898 311.66L99.3196 312.229ZM109.416 313.156C110.142 313.156 110.879 312.832 111.304 312.285V313H112.253V309.225C112.253 307.985 111.404 307.147 109.975 307.147C108.992 307.147 108.198 307.56 107.707 308.23L108.422 308.778C108.768 308.297 109.293 307.996 109.941 307.996C110.745 307.996 111.304 308.443 111.304 309.225V309.615L109.405 309.928C108.21 310.129 107.562 310.732 107.562 311.581C107.562 312.542 108.31 313.156 109.416 313.156ZM108.522 311.548C108.522 311.068 108.869 310.721 109.639 310.587L111.304 310.308V311.414C110.935 312.017 110.321 312.374 109.572 312.374C108.913 312.374 108.522 312.028 108.522 311.548ZM114.638 305.907C115.007 305.907 115.297 305.605 115.297 305.237C115.297 304.879 115.007 304.578 114.638 304.578C114.27 304.578 113.968 304.879 113.968 305.237C113.968 305.605 114.27 305.907 114.638 305.907ZM114.158 313H115.107V307.37H114.158V313ZM116.634 310.185C116.634 311.827 117.762 313.223 119.527 313.223C120.365 313.223 121.024 312.899 121.526 312.33V313H122.476V304.622H121.526V308.041C121.024 307.471 120.365 307.147 119.527 307.147C117.762 307.147 116.634 308.543 116.634 310.185ZM117.639 310.185C117.639 308.99 118.443 308.041 119.638 308.041C120.409 308.041 121.091 308.409 121.526 309.079V311.291C121.113 311.95 120.42 312.33 119.638 312.33C118.443 312.33 117.639 311.38 117.639 310.185ZM129.481 312.073L128.778 311.526C128.409 312.028 127.795 312.363 127.069 312.363C125.862 312.363 125.002 311.548 124.969 310.196H129.291C129.325 310.04 129.358 309.828 129.358 309.604C129.358 308.219 128.364 307.147 126.834 307.147C125.091 307.147 123.997 308.476 123.997 310.185C123.997 311.827 125.17 313.223 127.069 313.223C128.119 313.223 128.956 312.777 129.481 312.073ZM126.812 307.951C127.806 307.951 128.375 308.644 128.409 309.47H125.036C125.237 308.498 125.885 307.951 126.812 307.951ZM130.321 312.229C130.834 312.866 131.538 313.223 132.432 313.223C133.482 313.223 134.32 312.564 134.331 311.514C134.331 309.593 131.505 309.995 131.505 308.733C131.505 308.297 131.829 307.94 132.432 307.94C132.923 307.94 133.348 308.208 133.649 308.633L134.308 308.074C133.917 307.527 133.225 307.147 132.421 307.147C131.337 307.147 130.589 307.873 130.589 308.755C130.589 310.744 133.404 310.297 133.404 311.559C133.404 312.051 133.046 312.43 132.421 312.43C131.851 312.43 131.382 312.151 130.991 311.66L130.321 312.229ZM140.529 306.477H141.445L140.283 304.622H139.222L140.529 306.477ZM140.417 313.156C141.143 313.156 141.88 312.832 142.305 312.285V313H143.254V309.225C143.254 307.985 142.405 307.147 140.976 307.147C139.993 307.147 139.2 307.56 138.708 308.23L139.423 308.778C139.769 308.297 140.294 307.996 140.942 307.996C141.746 307.996 142.305 308.443 142.305 309.225V309.615L140.406 309.928C139.211 310.129 138.563 310.732 138.563 311.581C138.563 312.542 139.311 313.156 140.417 313.156ZM139.524 311.548C139.524 311.068 139.87 310.721 140.641 310.587L142.305 310.308V311.414C141.936 312.017 141.322 312.374 140.574 312.374C139.914 312.374 139.524 312.028 139.524 311.548ZM148.17 313H149.119V304.622H148.17V313ZM152.656 313.156C153.382 313.156 154.119 312.832 154.544 312.285V313H155.493V309.225C155.493 307.985 154.644 307.147 153.215 307.147C152.232 307.147 151.439 307.56 150.947 308.23L151.662 308.778C152.008 308.297 152.533 307.996 153.181 307.996C153.985 307.996 154.544 308.443 154.544 309.225V309.615L152.645 309.928C151.45 310.129 150.802 310.732 150.802 311.581C150.802 312.542 151.55 313.156 152.656 313.156ZM151.763 311.548C151.763 311.068 152.109 310.721 152.88 310.587L154.544 310.308V311.414C154.175 312.017 153.561 312.374 152.813 312.374C152.153 312.374 151.763 312.028 151.763 311.548ZM160.409 315.748H161.358V312.33C161.861 312.899 162.52 313.223 163.358 313.223C165.122 313.223 166.251 311.827 166.251 310.185C166.251 308.543 165.122 307.147 163.358 307.147C162.52 307.147 161.861 307.471 161.358 308.041V307.37H160.409V315.748ZM163.246 308.041C164.441 308.041 165.257 308.99 165.257 310.185C165.257 311.38 164.441 312.33 163.246 312.33C162.475 312.33 161.794 311.961 161.358 311.28V309.09C161.783 308.42 162.464 308.041 163.246 308.041ZM167.783 313H168.732V309.102C169.09 308.521 169.592 308.041 170.419 308.041C171.301 308.041 171.86 308.621 171.86 309.627V313H172.809V309.593C172.809 307.996 171.871 307.147 170.609 307.147C169.771 307.147 169.19 307.504 168.732 308.007V304.622H167.783V313ZM177.289 307.147C175.469 307.147 174.24 308.543 174.24 310.185C174.24 311.827 175.469 313.223 177.289 313.223C179.099 313.223 180.339 311.827 180.339 310.185C180.339 308.543 179.099 307.147 177.289 307.147ZM177.301 312.33C176.094 312.33 175.234 311.358 175.234 310.185C175.234 309.012 176.094 308.041 177.301 308.041C178.473 308.041 179.334 309.012 179.334 310.185C179.334 311.347 178.473 312.33 177.301 312.33ZM182.102 311.112C182.102 312.486 182.806 313.112 184.057 313.112C184.459 313.112 184.76 313.067 185.028 312.955V312.106C184.816 312.196 184.559 312.24 184.191 312.24C183.509 312.24 183.062 311.995 183.062 311.112V308.23H185.017V307.37H183.062V305.963H182.102V307.37H181.041V308.23H182.102V311.112ZM188.928 307.147C187.108 307.147 185.879 308.543 185.879 310.185C185.879 311.827 187.108 313.223 188.928 313.223C190.738 313.223 191.978 311.827 191.978 310.185C191.978 308.543 190.738 307.147 188.928 307.147ZM188.94 312.33C187.733 312.33 186.873 311.358 186.873 310.185C186.873 309.012 187.733 308.041 188.94 308.041C190.112 308.041 190.973 309.012 190.973 310.185C190.973 311.347 190.112 312.33 188.94 312.33ZM192.813 314.016C192.813 315.145 193.907 315.793 195.572 315.793C197.258 315.793 198.442 314.91 198.442 313.726C198.442 312.721 197.75 311.995 196.264 311.995H194.656C194.309 311.995 194.187 311.827 194.187 311.593C194.187 311.38 194.321 311.179 194.555 311.012C194.79 311.079 195.058 311.123 195.337 311.123C196.689 311.123 197.526 310.207 197.526 309.135C197.526 308.8 197.448 308.476 197.292 308.197H198.509V307.37H196.421C196.119 307.225 195.75 307.136 195.337 307.136C193.997 307.136 193.148 308.052 193.148 309.135C193.148 309.761 193.438 310.33 193.93 310.699C193.494 310.978 193.26 311.347 193.26 311.794C193.26 312.095 193.394 312.397 193.65 312.598C193.092 312.989 192.813 313.447 192.813 314.016ZM195.348 310.375C194.511 310.375 194.053 309.828 194.053 309.135C194.053 308.443 194.511 307.884 195.348 307.884C196.164 307.884 196.633 308.443 196.633 309.135C196.633 309.817 196.164 310.375 195.348 310.375ZM193.74 313.905C193.74 313.458 193.974 313.123 194.365 312.832H196.186C197.191 312.832 197.493 313.257 197.493 313.793C197.493 314.53 196.745 314.999 195.561 314.999C194.444 314.999 193.74 314.586 193.74 313.905ZM199.667 313H200.617V309.135C200.963 308.566 201.443 308.186 202.181 308.186C202.404 308.186 202.572 308.208 202.739 308.253V307.326C202.605 307.281 202.438 307.259 202.259 307.259C201.544 307.259 201.03 307.583 200.617 308.074V307.37H199.667V313ZM205.386 313.156C206.112 313.156 206.85 312.832 207.274 312.285V313H208.224V309.225C208.224 307.985 207.375 307.147 205.945 307.147C204.962 307.147 204.169 307.56 203.677 308.23L204.392 308.778C204.739 308.297 205.264 307.996 205.911 307.996C206.716 307.996 207.274 308.443 207.274 309.225V309.615L205.375 309.928C204.18 310.129 203.532 310.732 203.532 311.581C203.532 312.542 204.281 313.156 205.386 313.156ZM204.493 311.548C204.493 311.068 204.839 310.721 205.61 310.587L207.274 310.308V311.414C206.906 312.017 206.291 312.374 205.543 312.374C204.884 312.374 204.493 312.028 204.493 311.548ZM210.128 315.748H211.078V312.33C211.58 312.899 212.239 313.223 213.077 313.223C214.842 313.223 215.97 311.827 215.97 310.185C215.97 308.543 214.842 307.147 213.077 307.147C212.239 307.147 211.58 307.471 211.078 308.041V307.37H210.128V315.748ZM212.965 308.041C214.161 308.041 214.976 308.99 214.976 310.185C214.976 311.38 214.161 312.33 212.965 312.33C212.195 312.33 211.513 311.961 211.078 311.28V309.09C211.502 308.42 212.184 308.041 212.965 308.041ZM217.502 313H218.452V309.102C218.809 308.521 219.312 308.041 220.138 308.041C221.021 308.041 221.579 308.621 221.579 309.627V313H222.529V309.593C222.529 307.996 221.59 307.147 220.328 307.147C219.491 307.147 218.91 307.504 218.452 308.007V304.622H217.502V313ZM224.92 305.907C225.289 305.907 225.579 305.605 225.579 305.237C225.579 304.879 225.289 304.578 224.92 304.578C224.552 304.578 224.25 304.879 224.25 305.237C224.25 305.605 224.552 305.907 224.92 305.907ZM224.44 313H225.389V307.37H224.44V313ZM232.4 312.073L231.696 311.526C231.328 312.028 230.713 312.363 229.987 312.363C228.781 312.363 227.921 311.548 227.887 310.196H232.21C232.244 310.04 232.277 309.828 232.277 309.604C232.277 308.219 231.283 307.147 229.753 307.147C228.01 307.147 226.916 308.476 226.916 310.185C226.916 311.827 228.089 313.223 229.987 313.223C231.037 313.223 231.875 312.777 232.4 312.073ZM229.731 307.951C230.725 307.951 231.294 308.644 231.328 309.47H227.955C228.156 308.498 228.803 307.951 229.731 307.951ZM234.19 314.787L235.34 311.827H234.257L233.307 314.787H234.19ZM239.842 313H240.792V304.622H239.842V313ZM244.329 313.156C245.055 313.156 245.792 312.832 246.216 312.285V313H247.166V309.225C247.166 307.985 246.317 307.147 244.887 307.147C243.904 307.147 243.111 307.56 242.62 308.23L243.335 308.778C243.681 308.297 244.206 307.996 244.854 307.996C245.658 307.996 246.216 308.443 246.216 309.225V309.615L244.318 309.928C243.122 310.129 242.474 310.732 242.474 311.581C242.474 312.542 243.223 313.156 244.329 313.156ZM243.435 311.548C243.435 311.068 243.781 310.721 244.552 310.587L246.216 310.308V311.414C245.848 312.017 245.233 312.374 244.485 312.374C243.826 312.374 243.435 312.028 243.435 311.548ZM38.7958 328H39.7453V324.135C40.0915 323.566 40.5718 323.186 41.3091 323.186C41.5325 323.186 41.7 323.208 41.8676 323.253V322.326C41.7335 322.281 41.566 322.259 41.3872 322.259C40.6724 322.259 40.1585 322.583 39.7453 323.074V322.37H38.7958V328ZM47.9014 327.073L47.1977 326.526C46.8291 327.028 46.2148 327.363 45.4887 327.363C44.2824 327.363 43.4223 326.548 43.3888 325.196H47.7116C47.7451 325.04 47.7786 324.828 47.7786 324.604C47.7786 323.219 46.7844 322.147 45.2542 322.147C43.5116 322.147 42.417 323.476 42.417 325.185C42.417 326.827 43.5898 328.223 45.4887 328.223C46.5387 328.223 47.3765 327.777 47.9014 327.073ZM45.2318 322.951C46.2259 322.951 46.7956 323.644 46.8291 324.47H43.4558C43.6568 323.498 44.3047 322.951 45.2318 322.951ZM51.9573 327.33C50.7398 327.33 49.8797 326.392 49.8797 325.185C49.8797 323.99 50.7398 323.041 51.9461 323.041C52.6498 323.041 53.2195 323.376 53.5658 323.867L54.3142 323.297C53.7892 322.605 52.9626 322.147 51.9461 322.147C50.0807 322.147 48.8855 323.543 48.8855 325.185C48.8855 326.827 50.0807 328.223 51.9461 328.223C52.9738 328.223 53.7892 327.777 54.3142 327.073L53.5658 326.503C53.2195 326.995 52.6498 327.33 51.9573 327.33ZM55.6163 328H56.5657V324.102C56.9231 323.521 57.4258 323.041 58.2524 323.041C59.1348 323.041 59.6933 323.621 59.6933 324.627V328H60.6428V324.593C60.6428 322.996 59.7045 322.147 58.4423 322.147C57.6045 322.147 57.0237 322.504 56.5657 323.007V319.622H55.6163V328ZM67.558 327.073L66.8543 326.526C66.4857 327.028 65.8714 327.363 65.1453 327.363C63.9389 327.363 63.0789 326.548 63.0453 325.196H67.3681C67.4016 325.04 67.4352 324.828 67.4352 324.604C67.4352 323.219 66.441 322.147 64.9107 322.147C63.1682 322.147 62.0736 323.476 62.0736 325.185C62.0736 326.827 63.2464 328.223 65.1453 328.223C66.1953 328.223 67.033 327.777 67.558 327.073ZM64.8884 322.951C65.8825 322.951 66.4522 323.644 66.4857 324.47H63.1124C63.3134 323.498 63.9613 322.951 64.8884 322.951ZM69.0443 328H69.9937V324.135C70.34 323.566 70.8203 323.186 71.5575 323.186C71.7809 323.186 71.9485 323.208 72.116 323.253V322.326C71.982 322.281 71.8144 322.259 71.6357 322.259C70.9208 322.259 70.407 322.583 69.9937 323.074V322.37H69.0443V328ZM75.7372 327.33C74.5196 327.33 73.6596 326.392 73.6596 325.185C73.6596 323.99 74.5196 323.041 75.726 323.041C76.4297 323.041 76.9994 323.376 77.3457 323.867L78.094 323.297C77.5691 322.605 76.7425 322.147 75.726 322.147C73.8606 322.147 72.6654 323.543 72.6654 325.185C72.6654 326.827 73.8606 328.223 75.726 328.223C76.7536 328.223 77.5691 327.777 78.094 327.073L77.3457 326.503C76.9994 326.995 76.4297 327.33 75.7372 327.33ZM79.3961 328H80.3456V324.102C80.703 323.521 81.2057 323.041 82.0323 323.041C82.9147 323.041 83.4732 323.621 83.4732 324.627V328H84.4226V324.593C84.4226 322.996 83.4844 322.147 82.2221 322.147C81.3844 322.147 80.8036 322.504 80.3456 323.007V319.622H79.3961V328ZM91.3379 327.073L90.6342 326.526C90.2656 327.028 89.6512 327.363 88.9252 327.363C87.7188 327.363 86.8587 326.548 86.8252 325.196H91.148C91.1815 325.04 91.215 324.828 91.215 324.604C91.215 323.219 90.2209 322.147 88.6906 322.147C86.9481 322.147 85.8534 323.476 85.8534 325.185C85.8534 326.827 87.0263 328.223 88.9252 328.223C89.9752 328.223 90.8129 327.777 91.3379 327.073ZM88.6683 322.951C89.6624 322.951 90.2321 323.644 90.2656 324.47H86.8923C87.0933 323.498 87.7412 322.951 88.6683 322.951ZM100.839 327.073L100.135 326.526C99.7666 327.028 99.1523 327.363 98.4262 327.363C97.2199 327.363 96.3598 326.548 96.3263 325.196H100.649C100.683 325.04 100.716 324.828 100.716 324.604C100.716 323.219 99.722 322.147 98.1917 322.147C96.4491 322.147 95.3545 323.476 95.3545 325.185C95.3545 326.827 96.5273 328.223 98.4262 328.223C99.4762 328.223 100.314 327.777 100.839 327.073ZM98.1693 322.951C99.1635 322.951 99.7331 323.644 99.7666 324.47H96.3933C96.5944 323.498 97.2422 322.951 98.1693 322.951ZM102.616 326.112C102.616 327.486 103.32 328.112 104.571 328.112C104.973 328.112 105.275 328.067 105.543 327.955V327.106C105.331 327.196 105.074 327.24 104.705 327.24C104.024 327.24 103.577 326.995 103.577 326.112V323.23H105.532V322.37H103.577V320.963H102.616V322.37H101.555V323.23H102.616V326.112ZM109.994 328H110.943V319.622H109.994V328ZM114.48 328.156C115.206 328.156 115.943 327.832 116.368 327.285V328H117.317V324.225C117.317 322.985 116.468 322.147 115.039 322.147C114.056 322.147 113.263 322.56 112.771 323.23L113.486 323.778C113.832 323.297 114.357 322.996 115.005 322.996C115.809 322.996 116.368 323.443 116.368 324.225V324.615L114.469 324.928C113.274 325.129 112.626 325.732 112.626 326.581C112.626 327.542 113.374 328.156 114.48 328.156ZM113.586 326.548C113.586 326.068 113.933 325.721 114.703 325.587L116.368 325.308V326.414C115.999 327.017 115.385 327.374 114.636 327.374C113.977 327.374 113.586 327.028 113.586 326.548ZM122.233 330.748H123.182V327.33C123.685 327.899 124.344 328.223 125.182 328.223C126.946 328.223 128.075 326.827 128.075 325.185C128.075 323.543 126.946 322.147 125.182 322.147C124.344 322.147 123.685 322.471 123.182 323.041V322.37H122.233V330.748ZM125.07 323.041C126.265 323.041 127.08 323.99 127.08 325.185C127.08 326.38 126.265 327.33 125.07 327.33C124.299 327.33 123.618 326.961 123.182 326.28V324.09C123.607 323.42 124.288 323.041 125.07 323.041ZM129.607 328H130.556V324.135C130.902 323.566 131.383 323.186 132.12 323.186C132.343 323.186 132.511 323.208 132.678 323.253V322.326C132.544 322.281 132.377 322.259 132.198 322.259C131.483 322.259 130.969 322.583 130.556 323.074V322.37H129.607V328ZM136.277 322.147C134.456 322.147 133.228 323.543 133.228 325.185C133.228 326.827 134.456 328.223 136.277 328.223C138.087 328.223 139.327 326.827 139.327 325.185C139.327 323.543 138.087 322.147 136.277 322.147ZM136.288 327.33C135.082 327.33 134.222 326.358 134.222 325.185C134.222 324.012 135.082 323.041 136.288 323.041C137.461 323.041 138.321 324.012 138.321 325.185C138.321 326.347 137.461 327.33 136.288 327.33ZM140.427 325.185C140.427 326.827 141.555 328.223 143.32 328.223C144.158 328.223 144.817 327.899 145.32 327.33V328H146.269V319.622H145.32V323.041C144.817 322.471 144.158 322.147 143.32 322.147C141.555 322.147 140.427 323.543 140.427 325.185ZM141.432 325.185C141.432 323.99 142.237 323.041 143.432 323.041C144.203 323.041 144.884 323.409 145.32 324.079V326.291C144.906 326.95 144.214 327.33 143.432 327.33C142.237 327.33 141.432 326.38 141.432 325.185ZM152.191 325.587C152.191 326.693 151.588 327.33 150.65 327.33C149.689 327.33 149.097 326.693 149.097 325.587V322.37H148.148V325.554C148.148 327.24 149.119 328.223 150.639 328.223C152.169 328.223 153.141 327.24 153.141 325.554V322.37H152.191V325.587ZM157.603 327.33C156.386 327.33 155.526 326.392 155.526 325.185C155.526 323.99 156.386 323.041 157.592 323.041C158.296 323.041 158.865 323.376 159.212 323.867L159.96 323.297C159.435 322.605 158.609 322.147 157.592 322.147C155.727 322.147 154.531 323.543 154.531 325.185C154.531 326.827 155.727 328.223 157.592 328.223C158.62 328.223 159.435 327.777 159.96 327.073L159.212 326.503C158.865 326.995 158.296 327.33 157.603 327.33ZM161.564 326.112C161.564 327.486 162.268 328.112 163.519 328.112C163.921 328.112 164.223 328.067 164.491 327.955V327.106C164.279 327.196 164.022 327.24 163.653 327.24C162.972 327.24 162.525 326.995 162.525 326.112V323.23H164.48V322.37H162.525V320.963H161.564V322.37H160.503V323.23H161.564V326.112ZM166.411 320.907C166.78 320.907 167.07 320.605 167.07 320.237C167.07 319.879 166.78 319.578 166.411 319.578C166.043 319.578 165.741 319.879 165.741 320.237C165.741 320.605 166.043 320.907 166.411 320.907ZM165.931 328H166.88V322.37H165.931V328ZM171.456 322.147C169.635 322.147 168.407 323.543 168.407 325.185C168.407 326.827 169.635 328.223 171.456 328.223C173.266 328.223 174.506 326.827 174.506 325.185C174.506 323.543 173.266 322.147 171.456 322.147ZM171.467 327.33C170.261 327.33 169.401 326.358 169.401 325.185C169.401 324.012 170.261 323.041 171.467 323.041C172.64 323.041 173.5 324.012 173.5 325.185C173.5 326.347 172.64 327.33 171.467 327.33ZM176.032 328H176.981V324.102C177.339 323.51 177.853 323.041 178.668 323.041C179.539 323.041 180.109 323.621 180.109 324.627V328H181.058V324.593C181.058 322.996 180.12 322.147 178.858 322.147C178.02 322.147 177.439 322.504 176.981 323.007V322.37H176.032V328ZM185.377 327.229C185.891 327.866 186.595 328.223 187.488 328.223C188.538 328.223 189.376 327.564 189.387 326.514C189.387 324.593 186.561 324.995 186.561 323.733C186.561 323.297 186.885 322.94 187.488 322.94C187.98 322.94 188.404 323.208 188.706 323.633L189.365 323.074C188.974 322.527 188.281 322.147 187.477 322.147C186.393 322.147 185.645 322.873 185.645 323.755C185.645 325.744 188.46 325.297 188.46 326.559C188.46 327.051 188.102 327.43 187.477 327.43C186.907 327.43 186.438 327.151 186.047 326.66L185.377 327.229ZM193.436 322.147C191.615 322.147 190.387 323.543 190.387 325.185C190.387 326.827 191.615 328.223 193.436 328.223C195.246 328.223 196.486 326.827 196.486 325.185C196.486 323.543 195.246 322.147 193.436 322.147ZM193.447 327.33C192.241 327.33 191.381 326.358 191.381 325.185C191.381 324.012 192.241 323.041 193.447 323.041C194.62 323.041 195.48 324.012 195.48 325.185C195.48 326.347 194.62 327.33 193.447 327.33ZM198.012 328H198.961V324.102C199.319 323.51 199.833 323.041 200.648 323.041C201.519 323.041 202.089 323.621 202.089 324.627V328H203.038V324.593C203.038 322.996 202.1 322.147 200.838 322.147C200 322.147 199.419 322.504 198.961 323.007V322.37H198.012V328ZM205.273 326.112C205.273 327.486 205.977 328.112 207.228 328.112C207.63 328.112 207.932 328.067 208.2 327.955V327.106C207.988 327.196 207.731 327.24 207.362 327.24C206.681 327.24 206.234 326.995 206.234 326.112V323.23H208.189V322.37H206.234V320.963H205.273V322.37H204.212V323.23H205.273V326.112ZM211.802 322.37L214.002 328H215.253L217.454 322.37H216.426L214.628 327.006L212.829 322.37H211.802ZM223.534 327.073L222.831 326.526C222.462 327.028 221.848 327.363 221.122 327.363C219.915 327.363 219.055 326.548 219.022 325.196H223.345C223.378 325.04 223.412 324.828 223.412 324.604C223.412 323.219 222.417 322.147 220.887 322.147C219.145 322.147 218.05 323.476 218.05 325.185C218.05 326.827 219.223 328.223 221.122 328.223C222.172 328.223 223.009 327.777 223.534 327.073ZM220.865 322.951C221.859 322.951 222.429 323.644 222.462 324.47H219.089C219.29 323.498 219.938 322.951 220.865 322.951ZM225.021 328H225.97V324.135C226.316 323.566 226.797 323.186 227.534 323.186C227.757 323.186 227.925 323.208 228.092 323.253V322.326C227.958 322.281 227.791 322.259 227.612 322.259C226.897 322.259 226.383 322.583 225.97 323.074V322.37H225.021V328ZM228.857 327.229C229.371 327.866 230.075 328.223 230.968 328.223C232.018 328.223 232.856 327.564 232.867 326.514C232.867 324.593 230.041 324.995 230.041 323.733C230.041 323.297 230.365 322.94 230.968 322.94C231.46 322.94 231.884 323.208 232.186 323.633L232.845 323.074C232.454 322.527 231.761 322.147 230.957 322.147C229.874 322.147 229.125 322.873 229.125 323.755C229.125 325.744 231.94 325.297 231.94 326.559C231.94 327.051 231.583 327.43 230.957 327.43C230.387 327.43 229.918 327.151 229.527 326.66L228.857 327.229ZM237.207 321.477L238.514 319.622H237.441L236.28 321.477H237.207ZM239.351 327.073L238.648 326.526C238.279 327.028 237.665 327.363 236.939 327.363C235.732 327.363 234.872 326.548 234.839 325.196H239.161C239.195 325.04 239.228 324.828 239.228 324.604C239.228 323.219 238.234 322.147 236.704 322.147C234.962 322.147 233.867 323.476 233.867 325.185C233.867 326.827 235.04 328.223 236.939 328.223C237.989 328.223 238.826 327.777 239.351 327.073ZM236.682 322.951C237.676 322.951 238.245 323.644 238.279 324.47H234.906C235.107 323.498 235.755 322.951 236.682 322.951ZM245.82 327.073L245.116 326.526C244.748 327.028 244.133 327.363 243.407 327.363C242.201 327.363 241.341 326.548 241.307 325.196H245.63C245.664 325.04 245.697 324.828 245.697 324.604C245.697 323.219 244.703 322.147 243.173 322.147C241.43 322.147 240.335 323.476 240.335 325.185C240.335 326.827 241.508 328.223 243.407 328.223C244.457 328.223 245.295 327.777 245.82 327.073ZM243.15 322.951C244.144 322.951 244.714 323.644 244.748 324.47H241.374C241.575 323.498 242.223 322.951 243.15 322.951ZM246.659 327.229C247.173 327.866 247.877 328.223 248.77 328.223C249.82 328.223 250.658 327.564 250.669 326.514C250.669 324.593 247.843 324.995 247.843 323.733C247.843 323.297 248.167 322.94 248.77 322.94C249.262 322.94 249.686 323.208 249.988 323.633L250.647 323.074C250.256 322.527 249.563 322.147 248.759 322.147C247.676 322.147 246.927 322.873 246.927 323.755C246.927 325.744 249.742 325.297 249.742 326.559C249.742 327.051 249.385 327.43 248.759 327.43C248.19 327.43 247.72 327.151 247.329 326.66L246.659 327.229ZM32.6304 343.156C33.3564 343.156 34.0936 342.832 34.5181 342.285V343H35.4675V339.225C35.4675 337.985 34.6186 337.147 33.1889 337.147C32.2059 337.147 31.4128 337.56 30.9213 338.23L31.6362 338.778C31.9825 338.297 32.5075 337.996 33.1553 337.996C33.9596 337.996 34.5181 338.443 34.5181 339.225V339.615L32.6192 339.928C31.424 340.129 30.7761 340.732 30.7761 341.581C30.7761 342.542 31.5245 343.156 32.6304 343.156ZM31.7368 341.548C31.7368 341.068 32.083 340.721 32.8538 340.587L34.5181 340.308V341.414C34.1495 342.017 33.5351 342.374 32.7867 342.374C32.1277 342.374 31.7368 342.028 31.7368 341.548ZM41.293 340.587C41.293 341.693 40.6898 342.33 39.7515 342.33C38.7909 342.33 38.1989 341.693 38.1989 340.587V337.37H37.2494V340.554C37.2494 342.24 38.2212 343.223 39.7403 343.223C41.2706 343.223 42.2424 342.24 42.2424 340.554V337.37H41.293V340.587ZM44.3837 343L45.9922 340.721L47.6007 343H48.6842L46.6066 340.085L48.539 337.37H47.4443L45.981 339.448L44.5178 337.37H43.4343L45.3555 340.085L43.2779 343H44.3837ZM52.2229 337.37V338.23H53.284V343H54.2447V338.23H56.1994V337.37H54.2447V336.655C54.2447 335.918 54.6691 335.483 55.3058 335.483C55.6297 335.483 55.8866 335.583 56.0989 335.739L56.5233 334.946C56.2106 334.768 55.7973 334.622 55.2835 334.622C54.0548 334.622 53.284 335.483 53.284 336.678V337.37H52.2229ZM62.0439 342.073L61.3402 341.526C60.9716 342.028 60.3573 342.363 59.6312 342.363C58.4249 342.363 57.5648 341.548 57.5313 340.196H61.854C61.8876 340.04 61.9211 339.828 61.9211 339.604C61.9211 338.219 60.9269 337.147 59.3966 337.147C57.6541 337.147 56.5595 338.476 56.5595 340.185C56.5595 341.827 57.7323 343.223 59.6312 343.223C60.6812 343.223 61.5189 342.777 62.0439 342.073ZM59.3743 337.951C60.3684 337.951 60.9381 338.644 60.9716 339.47H57.5983C57.7993 338.498 58.4472 337.951 59.3743 337.951ZM63.5302 343H64.4796V339.102C64.8035 338.521 65.2838 338.041 66.0546 338.041C66.87 338.041 67.3838 338.577 67.3838 339.515V343H68.3333V339.481C68.3333 339.347 68.3221 339.225 68.3109 339.102C68.6795 338.443 69.1822 338.041 69.8971 338.041C70.7013 338.041 71.2263 338.577 71.2263 339.515V343H72.1757V339.481C72.1757 337.951 71.2933 337.147 70.0869 337.147C69.1152 337.147 68.5231 337.616 68.0763 338.23C67.7301 337.516 67.0599 337.147 66.2445 337.147C65.4626 337.147 64.9041 337.493 64.4796 337.985V337.37H63.5302V343ZM74.0893 343H75.0387V339.102C75.3627 338.521 75.843 338.041 76.6137 338.041C77.4291 338.041 77.9429 338.577 77.9429 339.515V343H78.8924V339.481C78.8924 339.347 78.8812 339.225 78.8701 339.102C79.2387 338.443 79.7413 338.041 80.4562 338.041C81.2604 338.041 81.7854 338.577 81.7854 339.515V343H82.7349V339.481C82.7349 337.951 81.8524 337.147 80.6461 337.147C79.6743 337.147 79.0823 337.616 78.6355 338.23C78.2892 337.516 77.619 337.147 76.8036 337.147C76.0217 337.147 75.4632 337.493 75.0387 337.985V337.37H74.0893V343ZM89.6526 342.073L88.9489 341.526C88.5803 342.028 87.9659 342.363 87.2399 342.363C86.0335 342.363 85.1734 341.548 85.1399 340.196H89.4627C89.4962 340.04 89.5297 339.828 89.5297 339.604C89.5297 338.219 88.5356 337.147 87.0053 337.147C85.2628 337.147 84.1681 338.476 84.1681 340.185C84.1681 341.827 85.341 343.223 87.2399 343.223C88.2899 343.223 89.1276 342.777 89.6526 342.073ZM86.983 337.951C87.9771 337.951 88.5468 338.644 88.5803 339.47H85.2069C85.408 338.498 86.0559 337.951 86.983 337.951ZM90.492 342.229C91.0058 342.866 91.7095 343.223 92.6031 343.223C93.6531 343.223 94.4909 342.564 94.502 341.514C94.502 339.593 91.676 339.995 91.676 338.733C91.676 338.297 92 337.94 92.6031 337.94C93.0946 337.94 93.5191 338.208 93.8207 338.633L94.4797 338.074C94.0887 337.527 93.3962 337.147 92.592 337.147C91.5085 337.147 90.7601 337.873 90.7601 338.755C90.7601 340.744 93.5749 340.297 93.5749 341.559C93.5749 342.051 93.2175 342.43 92.592 342.43C92.0223 342.43 91.5532 342.151 91.1622 341.66L90.492 342.229ZM96.2852 344.787L97.4357 341.827H96.3522L95.4028 344.787H96.2852ZM103.468 343.156C104.194 343.156 104.932 342.832 105.356 342.285V343H106.305V339.225C106.305 337.985 105.456 337.147 104.027 337.147C103.044 337.147 102.251 337.56 101.759 338.23L102.474 338.778C102.82 338.297 103.345 337.996 103.993 337.996C104.797 337.996 105.356 338.443 105.356 339.225V339.615L103.457 339.928C102.262 340.129 101.614 340.732 101.614 341.581C101.614 342.542 102.362 343.156 103.468 343.156ZM102.575 341.548C102.575 341.068 102.921 340.721 103.692 340.587L105.356 340.308V341.414C104.987 342.017 104.373 342.374 103.625 342.374C102.966 342.374 102.575 342.028 102.575 341.548ZM108.21 343H109.16V334.622H108.21V343ZM113.735 337.147C111.915 337.147 110.686 338.543 110.686 340.185C110.686 341.827 111.915 343.223 113.735 343.223C115.545 343.223 116.785 341.827 116.785 340.185C116.785 338.543 115.545 337.147 113.735 337.147ZM113.747 342.33C112.54 342.33 111.68 341.358 111.68 340.185C111.68 339.012 112.54 338.041 113.747 338.041C114.919 338.041 115.779 339.012 115.779 340.185C115.779 341.347 114.919 342.33 113.747 342.33ZM118.311 343H119.261V339.135C119.607 338.566 120.087 338.186 120.824 338.186C121.048 338.186 121.215 338.208 121.383 338.253V337.326C121.249 337.281 121.081 337.259 120.903 337.259C120.188 337.259 119.674 337.583 119.261 338.074V337.37H118.311V343ZM122.148 342.229C122.661 342.866 123.365 343.223 124.259 343.223C125.309 343.223 126.146 342.564 126.158 341.514C126.158 339.593 123.332 339.995 123.332 338.733C123.332 338.297 123.656 337.94 124.259 337.94C124.75 337.94 125.175 338.208 125.476 338.633L126.135 338.074C125.744 337.527 125.052 337.147 124.248 337.147C123.164 337.147 122.416 337.873 122.416 338.755C122.416 340.744 125.231 340.297 125.231 341.559C125.231 342.051 124.873 342.43 124.248 342.43C123.678 342.43 123.209 342.151 122.818 341.66L122.148 342.229ZM130.233 340.185C130.233 341.827 131.362 343.223 133.127 343.223C133.964 343.223 134.623 342.899 135.126 342.319V345.748H136.075V337.37H135.126V338.052C134.623 337.471 133.964 337.147 133.127 337.147C131.362 337.147 130.233 338.543 130.233 340.185ZM131.228 340.185C131.228 338.99 132.043 338.041 133.227 338.041C134.009 338.041 134.69 338.409 135.126 339.09V341.28C134.701 341.95 134.02 342.33 133.227 342.33C132.043 342.33 131.228 341.38 131.228 340.185ZM142.008 340.587C142.008 341.693 141.405 342.33 140.467 342.33C139.506 342.33 138.914 341.693 138.914 340.587V337.37H137.965V340.554C137.965 342.24 138.937 343.223 140.456 343.223C141.986 343.223 142.958 342.24 142.958 340.554V337.37H142.008V340.587ZM145.198 338.175L146.348 335.181H145.265L144.315 338.175H145.198ZM152.135 342.073L151.431 341.526C151.062 342.028 150.448 342.363 149.722 342.363C148.516 342.363 147.656 341.548 147.622 340.196H151.945C151.978 340.04 152.012 339.828 152.012 339.604C152.012 338.219 151.018 337.147 149.487 337.147C147.745 337.147 146.65 338.476 146.65 340.185C146.65 341.827 147.823 343.223 149.722 343.223C150.772 343.223 151.61 342.777 152.135 342.073ZM149.465 337.951C150.459 337.951 151.029 338.644 151.062 339.47H147.689C147.89 338.498 148.538 337.951 149.465 337.951ZM153.621 343H154.57V334.622H153.621V343ZM156.577 343H157.527V334.622H156.577V343ZM164.537 342.073L163.834 341.526C163.465 342.028 162.851 342.363 162.125 342.363C160.918 342.363 160.058 341.548 160.025 340.196H164.348C164.381 340.04 164.415 339.828 164.415 339.604C164.415 338.219 163.42 337.147 161.89 337.147C160.148 337.147 159.053 338.476 159.053 340.185C159.053 341.827 160.226 343.223 162.125 343.223C163.175 343.223 164.012 342.777 164.537 342.073ZM161.868 337.951C162.862 337.951 163.432 338.644 163.465 339.47H160.092C160.293 338.498 160.941 337.951 161.868 337.951ZM165.377 342.229C165.891 342.866 166.594 343.223 167.488 343.223C168.538 343.223 169.376 342.564 169.387 341.514C169.387 339.593 166.561 339.995 166.561 338.733C166.561 338.297 166.885 337.94 167.488 337.94C167.979 337.94 168.404 338.208 168.705 338.633L169.365 338.074C168.974 337.527 168.281 337.147 167.477 337.147C166.393 337.147 165.645 337.873 165.645 338.755C165.645 340.744 168.46 340.297 168.46 341.559C168.46 342.051 168.102 342.43 167.477 342.43C166.907 342.43 166.438 342.151 166.047 341.66L165.377 342.229ZM173.943 343H174.892V339.135C175.239 338.566 175.719 338.186 176.456 338.186C176.68 338.186 176.847 338.208 177.015 338.253V337.326C176.881 337.281 176.713 337.259 176.534 337.259C175.82 337.259 175.306 337.583 174.892 338.074V337.37H173.943V343ZM183.049 342.073L182.345 341.526C181.976 342.028 181.362 342.363 180.636 342.363C179.43 342.363 178.569 341.548 178.536 340.196H182.859C182.892 340.04 182.926 339.828 182.926 339.604C182.926 338.219 181.932 337.147 180.401 337.147C178.659 337.147 177.564 338.476 177.564 340.185C177.564 341.827 178.737 343.223 180.636 343.223C181.686 343.223 182.524 342.777 183.049 342.073ZM180.379 337.951C181.373 337.951 181.943 338.644 181.976 339.47H178.603C178.804 338.498 179.452 337.951 180.379 337.951ZM184.535 345.748H185.484V342.33C185.987 342.899 186.646 343.223 187.484 343.223C189.249 343.223 190.377 341.827 190.377 340.185C190.377 338.543 189.249 337.147 187.484 337.147C186.646 337.147 185.987 337.471 185.484 338.041V337.37H184.535V345.748ZM187.372 338.041C188.567 338.041 189.383 338.99 189.383 340.185C189.383 341.38 188.567 342.33 187.372 342.33C186.601 342.33 185.92 341.961 185.484 341.28V339.09C185.909 338.42 186.59 338.041 187.372 338.041ZM191.909 343H192.858V339.135C193.205 338.566 193.685 338.186 194.422 338.186C194.645 338.186 194.813 338.208 194.981 338.253V337.326C194.847 337.281 194.679 337.259 194.5 337.259C193.785 337.259 193.272 337.583 192.858 338.074V337.37H191.909V343ZM198.87 336.477L200.177 334.622H199.104L197.943 336.477H198.87ZM201.014 342.073L200.311 341.526C199.942 342.028 199.328 342.363 198.602 342.363C197.395 342.363 196.535 341.548 196.502 340.196H200.825C200.858 340.04 200.892 339.828 200.892 339.604C200.892 338.219 199.897 337.147 198.367 337.147C196.625 337.147 195.53 338.476 195.53 340.185C195.53 341.827 196.703 343.223 198.602 343.223C199.652 343.223 200.489 342.777 201.014 342.073ZM198.345 337.951C199.339 337.951 199.909 338.644 199.942 339.47H196.569C196.77 338.498 197.418 337.951 198.345 337.951ZM201.854 342.229C202.368 342.866 203.071 343.223 203.965 343.223C205.015 343.223 205.853 342.564 205.864 341.514C205.864 339.593 203.038 339.995 203.038 338.733C203.038 338.297 203.362 337.94 203.965 337.94C204.456 337.94 204.881 338.208 205.183 338.633L205.842 338.074C205.451 337.527 204.758 337.147 203.954 337.147C202.87 337.147 202.122 337.873 202.122 338.755C202.122 340.744 204.937 340.297 204.937 341.559C204.937 342.051 204.579 342.43 203.954 342.43C203.384 342.43 202.915 342.151 202.524 341.66L201.854 342.229ZM212.348 342.073L211.644 341.526C211.276 342.028 210.661 342.363 209.935 342.363C208.729 342.363 207.869 341.548 207.835 340.196H212.158C212.192 340.04 212.225 339.828 212.225 339.604C212.225 338.219 211.231 337.147 209.701 337.147C207.958 337.147 206.864 338.476 206.864 340.185C206.864 341.827 208.036 343.223 209.935 343.223C210.985 343.223 211.823 342.777 212.348 342.073ZM209.678 337.951C210.673 337.951 211.242 338.644 211.276 339.47H207.902C208.103 338.498 208.751 337.951 209.678 337.951ZM213.834 343H214.784V339.102C215.141 338.51 215.655 338.041 216.47 338.041C217.342 338.041 217.911 338.621 217.911 339.627V343H218.861V339.593C218.861 337.996 217.922 337.147 216.66 337.147C215.823 337.147 215.242 337.504 214.784 338.007V337.37H213.834V343ZM221.096 341.112C221.096 342.486 221.8 343.112 223.051 343.112C223.453 343.112 223.754 343.067 224.022 342.955V342.106C223.81 342.196 223.553 342.24 223.185 342.24C222.503 342.24 222.056 341.995 222.056 341.112V338.23H224.011V337.37H222.056V335.963H221.096V337.37H220.035V338.23H221.096V341.112ZM230.358 342.073L229.654 341.526C229.285 342.028 228.671 342.363 227.945 342.363C226.738 342.363 225.878 341.548 225.845 340.196H230.168C230.201 340.04 230.235 339.828 230.235 339.604C230.235 338.219 229.241 337.147 227.71 337.147C225.968 337.147 224.873 338.476 224.873 340.185C224.873 341.827 226.046 343.223 227.945 343.223C228.995 343.223 229.833 342.777 230.358 342.073ZM227.688 337.951C228.682 337.951 229.252 338.644 229.285 339.47H225.912C226.113 338.498 226.761 337.951 227.688 337.951ZM231.844 343H232.793V339.102C233.151 338.51 233.664 338.041 234.48 338.041C235.351 338.041 235.921 338.621 235.921 339.627V343H236.87V339.593C236.87 337.996 235.932 337.147 234.67 337.147C233.832 337.147 233.251 337.504 232.793 338.007V337.37H231.844V343ZM239.105 341.112C239.105 342.486 239.809 343.112 241.06 343.112C241.462 343.112 241.764 343.067 242.032 342.955V342.106C241.82 342.196 241.563 342.24 241.194 342.24C240.513 342.24 240.066 341.995 240.066 341.112V338.23H242.021V337.37H240.066V335.963H239.105V337.37H238.044V338.23H239.105V341.112ZM251.487 342.073L250.783 341.526C250.414 342.028 249.8 342.363 249.074 342.363C247.868 342.363 247.008 341.548 246.974 340.196H251.297C251.33 340.04 251.364 339.828 251.364 339.604C251.364 338.219 250.37 337.147 248.839 337.147C247.097 337.147 246.002 338.476 246.002 340.185C246.002 341.827 247.175 343.223 249.074 343.223C250.124 343.223 250.962 342.777 251.487 342.073ZM248.817 337.951C249.811 337.951 250.381 338.644 250.414 339.47H247.041C247.242 338.498 247.89 337.951 248.817 337.951ZM252.973 343H253.922V339.102C254.28 338.51 254.794 338.041 255.609 338.041C256.48 338.041 257.05 338.621 257.05 339.627V343H257.999V339.593C257.999 337.996 257.061 337.147 255.799 337.147C254.961 337.147 254.38 337.504 253.922 338.007V337.37H252.973V343ZM65.2591 358H66.2085V354.102C66.5325 353.521 67.0128 353.041 67.7835 353.041C68.5989 353.041 69.1127 353.577 69.1127 354.515V358H70.0622V354.481C70.0622 354.347 70.051 354.225 70.0399 354.102C70.4085 353.443 70.9111 353.041 71.626 353.041C72.4302 353.041 72.9552 353.577 72.9552 354.515V358H73.9047V354.481C73.9047 352.951 73.0222 352.147 71.8159 352.147C70.8441 352.147 70.2521 352.616 69.8053 353.23C69.459 352.516 68.7888 352.147 67.9734 352.147C67.1915 352.147 66.633 352.493 66.2085 352.985V352.37H65.2591V358ZM78.3873 352.147C76.5666 352.147 75.3379 353.543 75.3379 355.185C75.3379 356.827 76.5666 358.223 78.3873 358.223C80.1969 358.223 81.4368 356.827 81.4368 355.185C81.4368 353.543 80.1969 352.147 78.3873 352.147ZM78.3985 357.33C77.1922 357.33 76.3321 356.358 76.3321 355.185C76.3321 354.012 77.1922 353.041 78.3985 353.041C79.5714 353.041 80.4315 354.012 80.4315 355.185C80.4315 356.347 79.5714 357.33 78.3985 357.33ZM84.8316 359.363L87.7917 352.37H86.7864L84.921 356.782L83.0333 352.37H81.9833L84.4184 357.989L83.9827 359.016C83.6923 359.709 83.2455 359.921 82.6758 359.921C82.4078 359.921 82.1508 359.865 81.9386 359.765V360.614C82.1844 360.737 82.4636 360.793 82.8434 360.793C83.7928 360.793 84.4407 360.301 84.8316 359.363ZM93.8359 357.073L93.1322 356.526C92.7636 357.028 92.1492 357.363 91.4232 357.363C90.2168 357.363 89.3567 356.548 89.3232 355.196H93.646C93.6795 355.04 93.713 354.828 93.713 354.604C93.713 353.219 92.7189 352.147 91.1886 352.147C89.4461 352.147 88.3514 353.476 88.3514 355.185C88.3514 356.827 89.5243 358.223 91.4232 358.223C92.4731 358.223 93.3109 357.777 93.8359 357.073ZM91.1663 352.951C92.1604 352.951 92.7301 353.644 92.7636 354.47H89.3902C89.5913 353.498 90.2391 352.951 91.1663 352.951ZM95.3221 358H96.2716V354.102C96.629 353.51 97.1428 353.041 97.9582 353.041C98.8295 353.041 99.3992 353.621 99.3992 354.627V358H100.349V354.593C100.349 352.996 99.4103 352.147 98.1481 352.147C97.3104 352.147 96.7295 352.504 96.2716 353.007V352.37H95.3221V358ZM102.26 358H103.209V354.102C103.567 353.51 104.08 353.041 104.896 353.041C105.767 353.041 106.337 353.621 106.337 354.627V358H107.286V354.593C107.286 352.996 106.348 352.147 105.086 352.147C104.248 352.147 103.667 352.504 103.209 353.007V352.37H102.26V358ZM114.202 357.073L113.498 356.526C113.129 357.028 112.515 357.363 111.789 357.363C110.582 357.363 109.722 356.548 109.689 355.196H114.012C114.045 355.04 114.079 354.828 114.079 354.604C114.079 353.219 113.085 352.147 111.554 352.147C109.812 352.147 108.717 353.476 108.717 355.185C108.717 356.827 109.89 358.223 111.789 358.223C112.839 358.223 113.677 357.777 114.202 357.073ZM111.532 352.951C112.526 352.951 113.096 353.644 113.129 354.47H109.756C109.957 353.498 110.605 352.951 111.532 352.951ZM115.041 357.229C115.555 357.866 116.258 358.223 117.152 358.223C118.202 358.223 119.04 357.564 119.051 356.514C119.051 354.593 116.225 354.995 116.225 353.733C116.225 353.297 116.549 352.94 117.152 352.94C117.644 352.94 118.068 353.208 118.37 353.633L119.029 353.074C118.638 352.527 117.945 352.147 117.141 352.147C116.057 352.147 115.309 352.873 115.309 353.755C115.309 355.744 118.124 355.297 118.124 356.559C118.124 357.051 117.766 357.43 117.141 357.43C116.571 357.43 116.102 357.151 115.711 356.66L115.041 357.229ZM123.049 355.744H126.936V358H127.941V355.744H128.846V354.839H127.941V350.181H126.724L123.049 354.839V355.744ZM124.121 354.839L126.936 351.276V354.839H124.121ZM131.859 358H132.854V350.181H131.848L129.279 351.6L129.793 352.314L131.859 351.197V358ZM136.673 349.935C135.545 349.935 134.785 350.784 134.785 351.801C134.785 352.817 135.545 353.666 136.673 353.666C137.79 353.666 138.549 352.817 138.549 351.801C138.549 350.784 137.79 349.935 136.673 349.935ZM135.589 357.989H136.595L142.325 350.17H141.319L135.589 357.989ZM136.673 352.996C136.003 352.996 135.533 352.471 135.533 351.801C135.533 351.13 136.003 350.605 136.673 350.605C137.321 350.605 137.801 351.13 137.801 351.801C137.801 352.46 137.321 352.996 136.673 352.996ZM141.275 354.481C140.147 354.481 139.387 355.33 139.387 356.347C139.387 357.363 140.147 358.212 141.275 358.212C142.392 358.212 143.151 357.363 143.151 356.347C143.151 355.33 142.392 354.481 141.275 354.481ZM141.275 357.542C140.605 357.542 140.135 357.017 140.135 356.347C140.135 355.677 140.605 355.152 141.275 355.152C141.923 355.152 142.403 355.677 142.403 356.347C142.403 357.006 141.923 357.542 141.275 357.542ZM147.114 355.185C147.114 356.827 148.242 358.223 150.007 358.223C150.845 358.223 151.504 357.899 152.006 357.33V358H152.956V349.622H152.006V353.041C151.504 352.471 150.845 352.147 150.007 352.147C148.242 352.147 147.114 353.543 147.114 355.185ZM148.119 355.185C148.119 353.99 148.923 353.041 150.119 353.041C150.889 353.041 151.571 353.409 152.006 354.079V356.291C151.593 356.95 150.901 357.33 150.119 357.33C148.923 357.33 148.119 356.38 148.119 355.185ZM159.961 357.073L159.258 356.526C158.889 357.028 158.275 357.363 157.549 357.363C156.342 357.363 155.482 356.548 155.449 355.196H159.772C159.805 355.04 159.839 354.828 159.839 354.604C159.839 353.219 158.844 352.147 157.314 352.147C155.572 352.147 154.477 353.476 154.477 355.185C154.477 356.827 155.65 358.223 157.549 358.223C158.599 358.223 159.436 357.777 159.961 357.073ZM157.292 352.951C158.286 352.951 158.856 353.644 158.889 354.47H155.516C155.717 353.498 156.365 352.951 157.292 352.951ZM160.801 357.229C161.315 357.866 162.018 358.223 162.912 358.223C163.962 358.223 164.8 357.564 164.811 356.514C164.811 354.593 161.985 354.995 161.985 353.733C161.985 353.297 162.309 352.94 162.912 352.94C163.403 352.94 163.828 353.208 164.129 353.633L164.789 353.074C164.398 352.527 163.705 352.147 162.901 352.147C161.817 352.147 161.069 352.873 161.069 353.755C161.069 355.744 163.884 355.297 163.884 356.559C163.884 357.051 163.526 357.43 162.901 357.43C162.331 357.43 161.862 357.151 161.471 356.66L160.801 357.229ZM168.887 355.185C168.887 356.827 170.015 358.223 171.78 358.223C172.617 358.223 173.276 357.899 173.779 357.33V358H174.729V349.622H173.779V353.041C173.276 352.471 172.617 352.147 171.78 352.147C170.015 352.147 168.887 353.543 168.887 355.185ZM169.892 355.185C169.892 353.99 170.696 353.041 171.891 353.041C172.662 353.041 173.344 353.409 173.779 354.079V356.291C173.366 356.95 172.673 357.33 171.891 357.33C170.696 357.33 169.892 356.38 169.892 355.185ZM181.734 357.073L181.03 356.526C180.662 357.028 180.048 357.363 179.321 357.363C178.115 357.363 177.255 356.548 177.222 355.196H181.544C181.578 355.04 181.611 354.828 181.611 354.604C181.611 353.219 180.617 352.147 179.087 352.147C177.344 352.147 176.25 353.476 176.25 355.185C176.25 356.827 177.423 358.223 179.321 358.223C180.371 358.223 181.209 357.777 181.734 357.073ZM179.065 352.951C180.059 352.951 180.628 353.644 180.662 354.47H177.289C177.49 353.498 178.137 352.951 179.065 352.951ZM183.22 358H184.17V354.102C184.494 353.521 184.974 353.041 185.745 353.041C186.56 353.041 187.074 353.577 187.074 354.515V358H188.024V354.481C188.024 354.347 188.012 354.225 188.001 354.102C188.37 353.443 188.872 353.041 189.587 353.041C190.392 353.041 190.917 353.577 190.917 354.515V358H191.866V354.481C191.866 352.951 190.984 352.147 189.777 352.147C188.805 352.147 188.213 352.616 187.767 353.23C187.42 352.516 186.75 352.147 185.935 352.147C185.153 352.147 184.594 352.493 184.17 352.985V352.37H183.22V358ZM195.31 358.156C196.036 358.156 196.773 357.832 197.198 357.285V358H198.147V354.225C198.147 352.985 197.298 352.147 195.868 352.147C194.885 352.147 194.092 352.56 193.601 353.23L194.316 353.778C194.662 353.297 195.187 352.996 195.835 352.996C196.639 352.996 197.198 353.443 197.198 354.225V354.615L195.299 354.928C194.103 355.129 193.456 355.732 193.456 356.581C193.456 357.542 194.204 358.156 195.31 358.156ZM194.416 356.548C194.416 356.068 194.763 355.721 195.533 355.587L197.198 355.308V356.414C196.829 357.017 196.215 357.374 195.466 357.374C194.807 357.374 194.416 357.028 194.416 356.548ZM200.052 358H201.001V354.102C201.359 353.51 201.872 353.041 202.688 353.041C203.559 353.041 204.129 353.621 204.129 354.627V358H205.078V354.593C205.078 352.996 204.14 352.147 202.878 352.147C202.04 352.147 201.459 352.504 201.001 353.007V352.37H200.052V358ZM206.509 355.185C206.509 356.827 207.637 358.223 209.402 358.223C210.24 358.223 210.899 357.899 211.402 357.33V358H212.351V349.622H211.402V353.041C210.899 352.471 210.24 352.147 209.402 352.147C207.637 352.147 206.509 353.543 206.509 355.185ZM207.514 355.185C207.514 353.99 208.319 353.041 209.514 353.041C210.285 353.041 210.966 353.409 211.402 354.079V356.291C210.988 356.95 210.296 357.33 209.514 357.33C208.319 357.33 207.514 356.38 207.514 355.185ZM219.357 357.073L218.653 356.526C218.284 357.028 217.67 357.363 216.944 357.363C215.738 357.363 214.877 356.548 214.844 355.196H219.167C219.2 355.04 219.234 354.828 219.234 354.604C219.234 353.219 218.24 352.147 216.709 352.147C214.967 352.147 213.872 353.476 213.872 355.185C213.872 356.827 215.045 358.223 216.944 358.223C217.994 358.223 218.832 357.777 219.357 357.073ZM216.687 352.951C217.681 352.951 218.251 353.644 218.284 354.47H214.911C215.112 353.498 215.76 352.951 216.687 352.951ZM220.196 357.229C220.71 357.866 221.414 358.223 222.307 358.223C223.357 358.223 224.195 357.564 224.206 356.514C224.206 354.593 221.38 354.995 221.38 353.733C221.38 353.297 221.704 352.94 222.307 352.94C222.799 352.94 223.223 353.208 223.525 353.633L224.184 353.074C223.793 352.527 223.1 352.147 222.296 352.147C221.212 352.147 220.464 352.873 220.464 353.755C220.464 355.744 223.279 355.297 223.279 356.559C223.279 357.051 222.921 357.43 222.296 357.43C221.726 357.43 221.257 357.151 220.866 356.66L220.196 357.229Z" fill="#6B48F4"/>
</svg>
