<svg width="282" height="421" viewBox="0 0 282 421" fill="none" xmlns="http://www.w3.org/2000/svg">
<rect width="282" height="421" rx="15.6254" fill="white"/>
<path d="M36.7436 71H42.9836V69.32H38.5676V59.8H36.7436V71ZM52.1084 69.688L50.9084 68.728C50.4124 69.4 49.5964 69.832 48.6204 69.832C47.0684 69.832 45.9964 68.92 45.8844 67.16H51.8364C51.9004 66.92 51.9484 66.552 51.9484 66.184C51.9484 64.136 50.5084 62.616 48.2844 62.616C45.7244 62.616 44.1884 64.552 44.1884 66.968C44.1884 69.32 45.8364 71.32 48.6204 71.32C50.1244 71.32 51.3564 70.696 52.1084 69.688ZM48.2524 63.992C49.5484 63.992 50.2684 64.92 50.3004 65.928H45.9644C46.2204 64.68 47.0524 63.992 48.2524 63.992ZM53.2159 69.864C53.9679 70.776 54.9759 71.32 56.3359 71.32C57.8399 71.32 59.1199 70.376 59.1359 68.792C59.1359 66.024 55.1839 66.568 55.1839 64.952C55.1839 64.408 55.5679 63.96 56.3359 63.96C57.0079 63.96 57.5679 64.36 57.9999 64.936L59.1199 63.96C58.5439 63.192 57.5039 62.616 56.3199 62.616C54.7039 62.616 53.5839 63.672 53.5839 65C53.5839 67.848 57.5359 67.256 57.5359 68.888C57.5359 69.496 57.1039 69.976 56.3199 69.976C55.5199 69.976 54.8799 69.544 54.3519 68.872L53.2159 69.864ZM64.4759 62.936V64.424H65.9959V71H67.6599V64.424H70.3319V62.936H67.6599V61.96C67.6599 61.048 68.2039 60.488 69.0199 60.488C69.4679 60.488 69.8199 60.632 70.0919 60.84L70.7959 59.448C70.3319 59.192 69.7239 59 68.9879 59C67.1159 59 65.9959 60.296 65.9959 62.008V62.936H64.4759ZM78.7334 69.688L77.5334 68.728C77.0374 69.4 76.2214 69.832 75.2454 69.832C73.6934 69.832 72.6214 68.92 72.5094 67.16H78.4614C78.5254 66.92 78.5734 66.552 78.5734 66.184C78.5734 64.136 77.1334 62.616 74.9094 62.616C72.3494 62.616 70.8134 64.552 70.8134 66.968C70.8134 69.32 72.4614 71.32 75.2454 71.32C76.7494 71.32 77.9814 70.696 78.7334 69.688ZM74.8774 63.992C76.1734 63.992 76.8934 64.92 76.9254 65.928H72.5894C72.8454 64.68 73.6774 63.992 74.8774 63.992ZM80.7346 71H82.3826V65.56C82.7666 64.872 83.3746 64.168 84.3986 64.168C85.4546 64.168 86.0946 64.872 86.0946 66.056V71H87.7586V65.992C87.7586 65.832 87.7586 65.688 87.7426 65.544C88.1746 64.776 88.7986 64.168 89.7586 64.168C90.7986 64.168 91.4546 64.872 91.4546 66.056V71H93.1186V65.992C93.1186 63.768 91.8226 62.616 90.1426 62.616C88.7506 62.616 87.9506 63.272 87.3266 64.072C86.8146 63.112 85.8866 62.616 84.7826 62.616C83.7106 62.616 82.9586 63.064 82.3826 63.688V62.936H80.7346V71ZM95.6721 71H97.3201V65.56C97.7041 64.872 98.3121 64.168 99.3361 64.168C100.392 64.168 101.032 64.872 101.032 66.056V71H102.696V65.992C102.696 65.832 102.696 65.688 102.68 65.544C103.112 64.776 103.736 64.168 104.696 64.168C105.736 64.168 106.392 64.872 106.392 66.056V71H108.056V65.992C108.056 63.768 106.76 62.616 105.08 62.616C103.688 62.616 102.888 63.272 102.264 64.072C101.752 63.112 100.824 62.616 99.7201 62.616C98.6481 62.616 97.8961 63.064 97.3201 63.688V62.936H95.6721V71ZM117.89 69.688L116.69 68.728C116.194 69.4 115.378 69.832 114.402 69.832C112.85 69.832 111.778 68.92 111.666 67.16H117.618C117.682 66.92 117.73 66.552 117.73 66.184C117.73 64.136 116.29 62.616 114.066 62.616C111.506 62.616 109.97 64.552 109.97 66.968C109.97 69.32 111.618 71.32 114.402 71.32C115.906 71.32 117.138 70.696 117.89 69.688ZM114.034 63.992C115.33 63.992 116.05 64.92 116.082 65.928H111.746C112.002 64.68 112.834 63.992 114.034 63.992ZM118.997 69.864C119.749 70.776 120.757 71.32 122.117 71.32C123.621 71.32 124.901 70.376 124.917 68.792C124.917 66.024 120.965 66.568 120.965 64.952C120.965 64.408 121.349 63.96 122.117 63.96C122.789 63.96 123.349 64.36 123.781 64.936L124.901 63.96C124.325 63.192 123.285 62.616 122.101 62.616C120.485 62.616 119.365 63.672 119.365 65C119.365 67.848 123.317 67.256 123.317 68.888C123.317 69.496 122.885 69.976 122.101 69.976C121.301 69.976 120.661 69.544 120.133 68.872L118.997 69.864ZM131.297 74.936H132.945V70.168C133.633 70.904 134.497 71.32 135.665 71.32C138.193 71.32 139.777 69.32 139.777 66.968C139.777 64.616 138.193 62.616 135.665 62.616C134.497 62.616 133.633 63.032 132.945 63.768V62.936H131.297V74.936ZM135.457 64.168C137.009 64.168 138.049 65.384 138.049 66.968C138.049 68.552 137.009 69.768 135.457 69.768C134.417 69.768 133.537 69.288 132.945 68.392V65.544C133.521 64.664 134.401 64.168 135.457 64.168ZM141.828 71H143.476V65.56C143.908 64.856 144.548 64.168 145.652 64.168C146.804 64.168 147.508 64.936 147.508 66.216V71H149.172V66.152C149.172 63.816 147.828 62.616 146.036 62.616C144.884 62.616 144.084 63.08 143.476 63.72V59H141.828V71ZM155.479 62.616C152.871 62.616 151.095 64.584 151.095 66.968C151.095 69.352 152.871 71.32 155.479 71.32C158.103 71.32 159.863 69.352 159.863 66.968C159.863 64.584 158.103 62.616 155.479 62.616ZM155.495 69.768C153.943 69.768 152.823 68.52 152.823 66.968C152.823 65.416 153.943 64.168 155.495 64.168C157.015 64.168 158.135 65.4 158.135 66.968C158.135 68.504 157.015 69.768 155.495 69.768ZM162.293 68.2C162.293 70.168 163.285 71.16 165.173 71.16C165.797 71.16 166.245 71.08 166.629 70.92V69.464C166.341 69.576 165.973 69.64 165.429 69.64C164.533 69.64 163.957 69.288 163.957 68.2V64.424H166.629V62.936H163.957V60.92H162.293V62.936H160.773V64.424H162.293V68.2ZM172.182 62.616C169.574 62.616 167.798 64.584 167.798 66.968C167.798 69.352 169.574 71.32 172.182 71.32C174.806 71.32 176.566 69.352 176.566 66.968C176.566 64.584 174.806 62.616 172.182 62.616ZM172.198 69.768C170.646 69.768 169.526 68.52 169.526 66.968C169.526 65.416 170.646 64.168 172.198 64.168C173.718 64.168 174.838 65.4 174.838 66.968C174.838 68.504 173.718 69.768 172.198 69.768ZM177.668 72.44C177.668 74.088 179.204 75 181.684 75C184.132 75 185.828 73.688 185.828 71.944C185.828 70.488 184.788 69.416 182.708 69.416H180.516C180.084 69.416 179.908 69.224 179.908 68.888C179.908 68.648 180.052 68.408 180.308 68.2C180.612 68.264 180.932 68.312 181.284 68.312C183.284 68.312 184.484 67.016 184.484 65.448C184.484 65.064 184.404 64.68 184.26 64.344H185.844V62.936H182.868C182.42 62.728 181.891 62.616 181.284 62.616C179.316 62.616 178.116 63.896 178.116 65.448C178.116 66.344 178.516 67.16 179.22 67.688C178.596 68.12 178.292 68.632 178.292 69.272C178.292 69.688 178.468 70.12 178.82 70.424C178.068 70.984 177.668 71.624 177.668 72.44ZM181.299 67.048C180.26 67.048 179.652 66.36 179.652 65.448C179.652 64.552 180.26 63.88 181.299 63.88C182.34 63.88 182.948 64.552 182.948 65.448C182.948 66.36 182.34 67.048 181.299 67.048ZM179.236 72.216C179.236 71.64 179.539 71.208 179.988 70.856H182.548C183.78 70.856 184.18 71.4 184.18 72.088C184.18 73.032 183.252 73.656 181.652 73.656C180.132 73.656 179.236 73.112 179.236 72.216ZM187.438 71H189.086V65.624C189.502 64.936 190.174 64.392 191.198 64.392C191.534 64.392 191.79 64.44 192.046 64.504V62.888C191.838 62.824 191.598 62.776 191.342 62.776C190.35 62.776 189.646 63.224 189.086 63.848V62.936H187.438V71ZM195.709 71.24C196.701 71.24 197.709 70.792 198.285 70.088V71H199.933V65.672C199.933 63.896 198.733 62.616 196.557 62.616C195.117 62.616 193.965 63.224 193.245 64.184L194.477 65.128C194.941 64.472 195.629 64.072 196.509 64.072C197.549 64.072 198.285 64.68 198.285 65.672V66.088L195.677 66.52C193.965 66.808 193.021 67.688 193.021 68.904C193.021 70.328 194.109 71.24 195.709 71.24ZM194.685 68.84C194.685 68.232 195.101 67.8 196.109 67.624L198.285 67.256V68.648C197.805 69.416 197.021 69.896 196.013 69.896C195.181 69.896 194.685 69.464 194.685 68.84ZM202.516 74.936H204.164V70.168C204.852 70.904 205.716 71.32 206.884 71.32C209.412 71.32 210.996 69.32 210.996 66.968C210.996 64.616 209.412 62.616 206.884 62.616C205.716 62.616 204.852 63.032 204.164 63.768V62.936H202.516V74.936ZM206.676 64.168C208.228 64.168 209.268 65.384 209.268 66.968C209.268 68.552 208.228 69.768 206.676 69.768C205.636 69.768 204.756 69.288 204.164 68.392V65.544C204.74 64.664 205.62 64.168 206.676 64.168ZM213.047 71H214.695V65.56C215.127 64.856 215.767 64.168 216.871 64.168C218.023 64.168 218.727 64.936 218.727 66.216V71H220.391V66.152C220.391 63.816 219.047 62.616 217.255 62.616C216.103 62.616 215.303 63.08 214.695 63.72V59H213.047V71ZM230.233 69.688L229.033 68.728C228.537 69.4 227.721 69.832 226.745 69.832C225.193 69.832 224.121 68.92 224.009 67.16H229.961C230.025 66.92 230.073 66.552 230.073 66.184C230.073 64.136 228.633 62.616 226.409 62.616C223.849 62.616 222.313 64.552 222.313 66.968C222.313 69.32 223.961 71.32 226.745 71.32C228.249 71.32 229.481 70.696 230.233 69.688ZM226.377 63.992C227.673 63.992 228.393 64.92 228.425 65.928H224.089C224.345 64.68 225.177 63.992 226.377 63.992ZM231.341 69.864C232.093 70.776 233.101 71.32 234.461 71.32C235.965 71.32 237.245 70.376 237.261 68.792C237.261 66.024 233.309 66.568 233.309 64.952C233.309 64.408 233.693 63.96 234.461 63.96C235.133 63.96 235.693 64.36 236.125 64.936L237.245 63.96C236.669 63.192 235.629 62.616 234.445 62.616C232.829 62.616 231.709 63.672 231.709 65C231.709 67.848 235.661 67.256 235.661 68.888C235.661 69.496 235.229 69.976 234.445 69.976C233.645 69.976 233.005 69.544 232.477 68.872L231.341 69.864ZM33.1768 90.864C33.9288 91.776 34.9368 92.32 36.2968 92.32C37.8008 92.32 39.0808 91.376 39.0968 89.792C39.0968 87.024 35.1448 87.568 35.1448 85.952C35.1448 85.408 35.5288 84.96 36.2968 84.96C36.9688 84.96 37.5288 85.36 37.9608 85.936L39.0808 84.96C38.5048 84.192 37.4648 83.616 36.2808 83.616C34.6648 83.616 33.5448 84.672 33.5448 86C33.5448 88.848 37.4968 88.256 37.4968 89.888C37.4968 90.496 37.0648 90.976 36.2808 90.976C35.4808 90.976 34.8408 90.544 34.3128 89.872L33.1768 90.864ZM44.8458 83.616C42.2378 83.616 40.4618 85.584 40.4618 87.968C40.4618 90.352 42.2378 92.32 44.8458 92.32C47.4698 92.32 49.2298 90.352 49.2298 87.968C49.2298 85.584 47.4698 83.616 44.8458 83.616ZM44.8618 90.768C43.3098 90.768 42.1898 89.52 42.1898 87.968C42.1898 86.416 43.3098 85.168 44.8618 85.168C46.3818 85.168 47.5018 86.4 47.5018 87.968C47.5018 89.504 46.3818 90.768 44.8618 90.768ZM51.2893 92H52.9373V86.56C53.3533 85.856 54.0093 85.168 55.1133 85.168C56.2653 85.168 56.9693 85.936 56.9693 87.216V92H58.6333V87.152C58.6333 84.816 57.2733 83.616 55.4973 83.616C54.3453 83.616 53.5453 84.08 52.9373 84.72V83.936H51.2893V92ZM61.6756 89.2C61.6756 91.168 62.6676 92.16 64.5556 92.16C65.1796 92.16 65.6276 92.08 66.0116 91.92V90.464C65.7236 90.576 65.3556 90.64 64.8116 90.64C63.9156 90.64 63.3396 90.288 63.3396 89.2V85.424H66.0116V83.936H63.3396V81.92H61.6756V83.936H60.1556V85.424H61.6756V89.2ZM71.6493 87.968C71.6493 90.32 73.2333 92.32 75.7773 92.32C76.9293 92.32 77.7933 91.904 78.4653 91.184V92H80.1453V80H78.4653V84.752C77.7933 84.032 76.9293 83.616 75.7773 83.616C73.2333 83.616 71.6493 85.616 71.6493 87.968ZM73.3933 87.968C73.3933 86.384 74.4333 85.168 75.9853 85.168C76.9933 85.168 77.8733 85.632 78.4653 86.512V89.424C77.9213 90.272 77.0253 90.768 75.9853 90.768C74.4333 90.768 73.3933 89.552 73.3933 87.968ZM85.0289 92.24C86.0209 92.24 87.0289 91.792 87.6049 91.088V92H89.2529V86.672C89.2529 84.896 88.0529 83.616 85.8769 83.616C84.4369 83.616 83.2849 84.224 82.5649 85.184L83.7969 86.128C84.2609 85.472 84.9489 85.072 85.8289 85.072C86.8689 85.072 87.6049 85.68 87.6049 86.672V87.088L84.9969 87.52C83.2849 87.808 82.3409 88.688 82.3409 89.904C82.3409 91.328 83.4289 92.24 85.0289 92.24ZM84.0049 89.84C84.0049 89.232 84.4209 88.8 85.4289 88.624L87.6049 88.256V89.648C87.1249 90.416 86.3409 90.896 85.3329 90.896C84.5009 90.896 84.0049 90.464 84.0049 89.84ZM90.5741 83.936L93.6141 92H95.8061L98.8621 83.936H97.0701L94.7181 90.208L92.3501 83.936H90.5741ZM102.42 92.24C103.412 92.24 104.42 91.792 104.996 91.088V92H106.644V86.672C106.644 84.896 105.444 83.616 103.268 83.616C101.828 83.616 100.676 84.224 99.9556 85.184L101.188 86.128C101.652 85.472 102.34 85.072 103.22 85.072C104.26 85.072 104.996 85.68 104.996 86.672V87.088L102.388 87.52C100.676 87.808 99.7316 88.688 99.7316 89.904C99.7316 91.328 100.82 92.24 102.42 92.24ZM101.396 89.84C101.396 89.232 101.812 88.8 102.82 88.624L104.996 88.256V89.648C104.516 90.416 103.732 90.896 102.724 90.896C101.892 90.896 101.396 90.464 101.396 89.84ZM109.227 92H110.875V86.56C111.291 85.856 111.947 85.168 113.051 85.168C114.203 85.168 114.907 85.936 114.907 87.216V92H116.571V87.152C116.571 84.816 115.211 83.616 113.435 83.616C112.283 83.616 111.483 84.08 110.875 84.72V83.936H109.227V92ZM119.613 89.2C119.613 91.168 120.605 92.16 122.493 92.16C123.117 92.16 123.565 92.08 123.949 91.92V90.464C123.661 90.576 123.293 90.64 122.749 90.64C121.853 90.64 121.277 90.288 121.277 89.2V85.424H123.949V83.936H121.277V81.92H119.613V83.936H118.093V85.424H119.613V89.2ZM128.138 92.24C129.13 92.24 130.138 91.792 130.714 91.088V92H132.362V86.672C132.362 84.896 131.162 83.616 128.986 83.616C127.546 83.616 126.394 84.224 125.674 85.184L126.906 86.128C127.37 85.472 128.058 85.072 128.938 85.072C129.978 85.072 130.714 85.68 130.714 86.672V87.088L128.106 87.52C126.394 87.808 125.45 88.688 125.45 89.904C125.45 91.328 126.538 92.24 128.138 92.24ZM127.114 89.84C127.114 89.232 127.53 88.8 128.538 88.624L130.714 88.256V89.648C130.234 90.416 129.45 90.896 128.442 90.896C127.61 90.896 127.114 90.464 127.114 89.84ZM134.082 93.44C134.082 95.088 135.618 96 138.098 96C140.546 96 142.242 94.688 142.242 92.944C142.242 91.488 141.202 90.416 139.122 90.416H136.93C136.498 90.416 136.322 90.224 136.322 89.888C136.322 89.648 136.466 89.408 136.722 89.2C137.026 89.264 137.346 89.312 137.698 89.312C139.698 89.312 140.898 88.016 140.898 86.448C140.898 86.064 140.818 85.68 140.674 85.344H142.258V83.936H139.282C138.834 83.728 138.306 83.616 137.698 83.616C135.73 83.616 134.53 84.896 134.53 86.448C134.53 87.344 134.93 88.16 135.634 88.688C135.01 89.12 134.706 89.632 134.706 90.272C134.706 90.688 134.882 91.12 135.234 91.424C134.482 91.984 134.082 92.624 134.082 93.44ZM137.714 88.048C136.674 88.048 136.066 87.36 136.066 86.448C136.066 85.552 136.674 84.88 137.714 84.88C138.754 84.88 139.362 85.552 139.362 86.448C139.362 87.36 138.754 88.048 137.714 88.048ZM135.65 93.216C135.65 92.64 135.954 92.208 136.402 91.856H138.962C140.194 91.856 140.594 92.4 140.594 93.088C140.594 94.032 139.666 94.656 138.066 94.656C136.546 94.656 135.65 94.112 135.65 93.216ZM150.757 90.688L149.557 89.728C149.061 90.4 148.245 90.832 147.269 90.832C145.717 90.832 144.645 89.92 144.533 88.16H150.485C150.549 87.92 150.597 87.552 150.597 87.184C150.597 85.136 149.157 83.616 146.933 83.616C144.373 83.616 142.837 85.552 142.837 87.968C142.837 90.32 144.485 92.32 147.269 92.32C148.773 92.32 150.005 91.696 150.757 90.688ZM146.901 84.992C148.197 84.992 148.917 85.92 148.949 86.928H144.613C144.869 85.68 145.701 84.992 146.901 84.992ZM156.431 87.968C156.431 90.32 158.015 92.32 160.559 92.32C161.711 92.32 162.575 91.904 163.247 91.184V92H164.927V80H163.247V84.752C162.575 84.032 161.711 83.616 160.559 83.616C158.015 83.616 156.431 85.616 156.431 87.968ZM158.175 87.968C158.175 86.384 159.215 85.168 160.767 85.168C161.775 85.168 162.655 85.632 163.247 86.512V89.424C162.703 90.272 161.807 90.768 160.767 90.768C159.215 90.768 158.175 89.552 158.175 87.968ZM168.418 82.144C169.026 82.144 169.538 81.632 169.538 81.024C169.538 80.416 169.026 79.904 168.418 79.904C167.81 79.904 167.298 80.416 167.298 81.024C167.298 81.632 167.81 82.144 168.418 82.144ZM167.586 92H169.234V83.936H167.586V92ZM171.93 95.936H173.578V91.168C174.266 91.904 175.13 92.32 176.298 92.32C178.826 92.32 180.41 90.32 180.41 87.968C180.41 85.616 178.826 83.616 176.298 83.616C175.13 83.616 174.266 84.032 173.578 84.768V83.936H171.93V95.936ZM176.09 85.168C177.642 85.168 178.682 86.384 178.682 87.968C178.682 89.552 177.642 90.768 176.09 90.768C175.05 90.768 174.17 90.288 173.578 89.392V86.544C174.154 85.664 175.034 85.168 176.09 85.168ZM182.461 92H184.109V80H182.461V92ZM190.549 83.616C187.941 83.616 186.165 85.584 186.165 87.968C186.165 90.352 187.941 92.32 190.549 92.32C193.173 92.32 194.933 90.352 194.933 87.968C194.933 85.584 193.173 83.616 190.549 83.616ZM190.565 90.768C189.013 90.768 187.893 89.52 187.893 87.968C187.893 86.416 189.013 85.168 190.565 85.168C192.085 85.168 193.205 86.4 193.205 87.968C193.205 89.504 192.085 90.768 190.565 90.768ZM196.992 92H198.64V86.56C199.024 85.872 199.632 85.168 200.656 85.168C201.712 85.168 202.352 85.872 202.352 87.056V92H204.016V86.992C204.016 86.832 204.016 86.688 204 86.544C204.432 85.776 205.056 85.168 206.016 85.168C207.056 85.168 207.712 85.872 207.712 87.056V92H209.376V86.992C209.376 84.768 208.08 83.616 206.4 83.616C205.008 83.616 204.208 84.272 203.584 85.072C203.072 84.112 202.144 83.616 201.04 83.616C199.968 83.616 199.216 84.064 198.64 84.688V83.936H196.992V92ZM216.282 82.656L218.17 80H216.346L214.682 82.656H216.282ZM219.21 90.688L218.01 89.728C217.514 90.4 216.698 90.832 215.722 90.832C214.17 90.832 213.098 89.92 212.986 88.16H218.938C219.002 87.92 219.05 87.552 219.05 87.184C219.05 85.136 217.61 83.616 215.386 83.616C212.826 83.616 211.29 85.552 211.29 87.968C211.29 90.32 212.938 92.32 215.722 92.32C217.226 92.32 218.458 91.696 219.21 90.688ZM215.354 84.992C216.65 84.992 217.37 85.92 217.402 86.928H213.066C213.322 85.68 214.154 84.992 215.354 84.992ZM228.444 90.688L227.244 89.728C226.748 90.4 225.932 90.832 224.956 90.832C223.404 90.832 222.332 89.92 222.22 88.16H228.172C228.236 87.92 228.284 87.552 228.284 87.184C228.284 85.136 226.844 83.616 224.62 83.616C222.06 83.616 220.524 85.552 220.524 87.968C220.524 90.32 222.172 92.32 224.956 92.32C226.46 92.32 227.692 91.696 228.444 90.688ZM224.588 84.992C225.884 84.992 226.604 85.92 226.636 86.928H222.3C222.556 85.68 223.388 84.992 224.588 84.992ZM229.552 90.864C230.304 91.776 231.312 92.32 232.672 92.32C234.176 92.32 235.456 91.376 235.472 89.792C235.472 87.024 231.52 87.568 231.52 85.952C231.52 85.408 231.904 84.96 232.672 84.96C233.344 84.96 233.904 85.36 234.336 85.936L235.456 84.96C234.88 84.192 233.84 83.616 232.656 83.616C231.04 83.616 229.92 84.672 229.92 86C229.92 88.848 233.872 88.256 233.872 89.888C233.872 90.496 233.44 90.976 232.656 90.976C231.856 90.976 231.216 90.544 230.688 89.872L229.552 90.864ZM238.119 94.56L239.863 90.08H237.975L236.583 94.56H238.119ZM28.4299 116.936H30.0779V112.168C30.7659 112.904 31.6299 113.32 32.7979 113.32C35.3259 113.32 36.9099 111.32 36.9099 108.968C36.9099 106.616 35.3259 104.616 32.7979 104.616C31.6299 104.616 30.7659 105.032 30.0779 105.768V104.936H28.4299V116.936ZM32.5899 106.168C34.1419 106.168 35.1819 107.384 35.1819 108.968C35.1819 110.552 34.1419 111.768 32.5899 111.768C31.5499 111.768 30.6699 111.288 30.0779 110.392V107.544C30.6539 106.664 31.5339 106.168 32.5899 106.168ZM42.7833 104.616C40.1753 104.616 38.3993 106.584 38.3993 108.968C38.3993 111.352 40.1753 113.32 42.7833 113.32C45.4073 113.32 47.1673 111.352 47.1673 108.968C47.1673 106.584 45.4073 104.616 42.7833 104.616ZM42.7993 111.768C41.2473 111.768 40.1273 110.52 40.1273 108.968C40.1273 107.416 41.2473 106.168 42.7993 106.168C44.3193 106.168 45.4393 107.4 45.4393 108.968C45.4393 110.504 44.3193 111.768 42.7993 111.768ZM54.6988 109.544C54.6988 110.936 53.9468 111.768 52.7148 111.768C51.4508 111.768 50.7148 110.936 50.7148 109.544V104.936H49.0508V109.464C49.0508 111.88 50.4428 113.32 52.7148 113.32C54.9708 113.32 56.3628 111.88 56.3628 109.464V104.936H54.6988V109.544ZM58.8674 113H60.5154V107.624C60.9314 106.936 61.6034 106.392 62.6274 106.392C62.9634 106.392 63.2194 106.44 63.4754 106.504V104.888C63.2674 104.824 63.0274 104.776 62.7714 104.776C61.7794 104.776 61.0754 105.224 60.5154 105.848V104.936H58.8674V113ZM66.2068 110.2C66.2068 112.168 67.1988 113.16 69.0868 113.16C69.7108 113.16 70.1588 113.08 70.5428 112.92V111.464C70.2548 111.576 69.8868 111.64 69.3428 111.64C68.4468 111.64 67.8708 111.288 67.8708 110.2V106.424H70.5428V104.936H67.8708V102.92H66.2068V104.936H64.6868V106.424H66.2068V110.2ZM74.7321 113.24C75.7241 113.24 76.7321 112.792 77.3081 112.088V113H78.9561V107.672C78.9561 105.896 77.7561 104.616 75.5801 104.616C74.1401 104.616 72.9881 105.224 72.2681 106.184L73.5001 107.128C73.9641 106.472 74.6521 106.072 75.5321 106.072C76.5721 106.072 77.3081 106.68 77.3081 107.672V108.088L74.7001 108.52C72.9881 108.808 72.0441 109.688 72.0441 110.904C72.0441 112.328 73.1321 113.24 74.7321 113.24ZM73.7081 110.84C73.7081 110.232 74.1241 109.8 75.1321 109.624L77.3081 109.256V110.648C76.8281 111.416 76.0441 111.896 75.0361 111.896C74.2041 111.896 73.7081 111.464 73.7081 110.84ZM81.5393 113H83.1873V107.56C83.6033 106.856 84.2593 106.168 85.3633 106.168C86.5153 106.168 87.2193 106.936 87.2193 108.216V113H88.8833V108.152C88.8833 105.816 87.5233 104.616 85.7473 104.616C84.5953 104.616 83.7953 105.08 83.1873 105.72V104.936H81.5393V113ZM91.9256 110.2C91.9256 112.168 92.9176 113.16 94.8056 113.16C95.4296 113.16 95.8776 113.08 96.2616 112.92V111.464C95.9736 111.576 95.6056 111.64 95.0616 111.64C94.1656 111.64 93.5896 111.288 93.5896 110.2V106.424H96.2616V104.936H93.5896V102.92H91.9256V104.936H90.4056V106.424H91.9256V110.2ZM102.539 113H104.187V107.56C104.571 106.872 105.179 106.168 106.203 106.168C107.259 106.168 107.899 106.872 107.899 108.056V113H109.563V107.992C109.563 107.832 109.563 107.688 109.547 107.544C109.979 106.776 110.603 106.168 111.563 106.168C112.603 106.168 113.259 106.872 113.259 108.056V113H114.923V107.992C114.923 105.768 113.627 104.616 111.947 104.616C110.555 104.616 109.755 105.272 109.131 106.072C108.619 105.112 107.691 104.616 106.587 104.616C105.515 104.616 104.763 105.064 104.187 105.688V104.936H102.539V113ZM121.221 104.616C118.613 104.616 116.837 106.584 116.837 108.968C116.837 111.352 118.613 113.32 121.221 113.32C123.845 113.32 125.605 111.352 125.605 108.968C125.605 106.584 123.845 104.616 121.221 104.616ZM121.237 111.768C119.685 111.768 118.565 110.52 118.565 108.968C118.565 107.416 119.685 106.168 121.237 106.168C122.757 106.168 123.877 107.4 123.877 108.968C123.877 110.504 122.757 111.768 121.237 111.768ZM128.496 103.144C129.104 103.144 129.616 102.632 129.616 102.024C129.616 101.416 129.104 100.904 128.496 100.904C127.888 100.904 127.376 101.416 127.376 102.024C127.376 102.632 127.888 103.144 128.496 103.144ZM127.664 113H129.312V104.936H127.664V113ZM132.008 113H133.656V107.56C134.072 106.856 134.728 106.168 135.832 106.168C136.984 106.168 137.688 106.936 137.688 108.216V113H139.352V108.152C139.352 105.816 137.992 104.616 136.216 104.616C135.064 104.616 134.264 105.08 133.656 105.72V104.936H132.008V113ZM141.114 111.864C141.866 112.776 142.874 113.32 144.234 113.32C145.738 113.32 147.018 112.376 147.034 110.792C147.034 108.024 143.082 108.568 143.082 106.952C143.082 106.408 143.466 105.96 144.234 105.96C144.906 105.96 145.466 106.36 145.898 106.936L147.018 105.96C146.442 105.192 145.402 104.616 144.218 104.616C142.602 104.616 141.482 105.672 141.482 107C141.482 109.848 145.434 109.256 145.434 110.888C145.434 111.496 145.002 111.976 144.218 111.976C143.418 111.976 142.778 111.544 142.25 110.872L141.114 111.864ZM153.414 113H155.062V107.56C155.478 106.856 156.134 106.168 157.238 106.168C158.39 106.168 159.094 106.936 159.094 108.216V113H160.758V108.152C160.758 105.816 159.398 104.616 157.622 104.616C156.47 104.616 155.67 105.08 155.062 105.72V104.936H153.414V113ZM167.065 104.616C164.457 104.616 162.681 106.584 162.681 108.968C162.681 111.352 164.457 113.32 167.065 113.32C169.689 113.32 171.449 111.352 171.449 108.968C171.449 106.584 169.689 104.616 167.065 104.616ZM167.081 111.768C165.529 111.768 164.409 110.52 164.409 108.968C164.409 107.416 165.529 106.168 167.081 106.168C168.601 106.168 169.721 107.4 169.721 108.968C169.721 110.504 168.601 111.768 167.081 111.768ZM173.508 113H175.156V107.56C175.54 106.872 176.148 106.168 177.172 106.168C178.228 106.168 178.868 106.872 178.868 108.056V113H180.532V107.992C180.532 107.832 180.532 107.688 180.516 107.544C180.948 106.776 181.572 106.168 182.532 106.168C183.572 106.168 184.228 106.872 184.228 108.056V113H185.892V107.992C185.892 105.768 184.596 104.616 182.916 104.616C181.524 104.616 180.724 105.272 180.1 106.072C179.588 105.112 178.66 104.616 177.556 104.616C176.484 104.616 175.732 105.064 175.156 105.688V104.936H173.508V113ZM196.926 108.968C196.926 106.616 195.342 104.616 192.814 104.616C191.646 104.616 190.782 105.032 190.094 105.768V101H188.446V113H190.094V112.168C190.782 112.904 191.646 113.32 192.814 113.32C195.342 113.32 196.926 111.32 196.926 108.968ZM192.606 106.168C194.158 106.168 195.198 107.384 195.198 108.968C195.198 110.552 194.158 111.768 192.606 111.768C191.566 111.768 190.686 111.288 190.094 110.408V107.528C190.654 106.664 191.55 106.168 192.606 106.168ZM198.992 113H200.64V107.624C201.056 106.936 201.728 106.392 202.752 106.392C203.088 106.392 203.344 106.44 203.6 106.504V104.888C203.392 104.824 203.152 104.776 202.896 104.776C201.904 104.776 201.2 105.224 200.64 105.848V104.936H198.992V113ZM212.272 111.688L211.072 110.728C210.576 111.4 209.76 111.832 208.784 111.832C207.232 111.832 206.16 110.92 206.048 109.16H212C212.064 108.92 212.112 108.552 212.112 108.184C212.112 106.136 210.672 104.616 208.448 104.616C205.888 104.616 204.352 106.552 204.352 108.968C204.352 111.32 206 113.32 208.784 113.32C210.288 113.32 211.52 112.696 212.272 111.688ZM208.416 105.992C209.712 105.992 210.432 106.92 210.464 107.928H206.128C206.384 106.68 207.216 105.992 208.416 105.992ZM219.636 109.544C219.636 110.936 218.884 111.768 217.652 111.768C216.388 111.768 215.652 110.936 215.652 109.544V104.936H213.988V109.464C213.988 111.88 215.38 113.32 217.652 113.32C219.908 113.32 221.3 111.88 221.3 109.464V104.936H219.636V109.544ZM222.958 111.864C223.71 112.776 224.718 113.32 226.078 113.32C227.582 113.32 228.862 112.376 228.878 110.792C228.878 108.024 224.926 108.568 224.926 106.952C224.926 106.408 225.31 105.96 226.078 105.96C226.75 105.96 227.31 106.36 227.742 106.936L228.862 105.96C228.286 105.192 227.246 104.616 226.062 104.616C224.446 104.616 223.326 105.672 223.326 107C223.326 109.848 227.278 109.256 227.278 110.888C227.278 111.496 226.846 111.976 226.062 111.976C225.262 111.976 224.622 111.544 224.094 110.872L222.958 111.864ZM238.163 111.688L236.963 110.728C236.467 111.4 235.651 111.832 234.675 111.832C233.123 111.832 232.051 110.92 231.939 109.16H237.891C237.955 108.92 238.003 108.552 238.003 108.184C238.003 106.136 236.563 104.616 234.339 104.616C231.779 104.616 230.243 106.552 230.243 108.968C230.243 111.32 231.891 113.32 234.675 113.32C236.179 113.32 237.411 112.696 238.163 111.688ZM234.307 105.992C235.603 105.992 236.323 106.92 236.355 107.928H232.019C232.275 106.68 233.107 105.992 234.307 105.992ZM239.271 111.864C240.023 112.776 241.031 113.32 242.391 113.32C243.895 113.32 245.175 112.376 245.191 110.792C245.191 108.024 241.239 108.568 241.239 106.952C241.239 106.408 241.623 105.96 242.391 105.96C243.063 105.96 243.623 106.36 244.055 106.936L245.175 105.96C244.599 105.192 243.559 104.616 242.375 104.616C240.759 104.616 239.639 105.672 239.639 107C239.639 109.848 243.591 109.256 243.591 110.888C243.591 111.496 243.159 111.976 242.375 111.976C241.575 111.976 240.935 111.544 240.407 110.872L239.271 111.864ZM66.8742 124.656H68.4742L66.8102 122H64.9862L66.8742 124.656ZM66.8102 134.24C67.8022 134.24 68.8102 133.792 69.3862 133.088V134H71.0342V128.672C71.0342 126.896 69.8342 125.616 67.6582 125.616C66.2182 125.616 65.0662 126.224 64.3462 127.184L65.5782 128.128C66.0422 127.472 66.7302 127.072 67.6102 127.072C68.6502 127.072 69.3862 127.68 69.3862 128.672V129.088L66.7782 129.52C65.0662 129.808 64.1222 130.688 64.1222 131.904C64.1222 133.328 65.2102 134.24 66.8102 134.24ZM65.7862 131.84C65.7862 131.232 66.2022 130.8 67.2102 130.624L69.3862 130.256V131.648C68.9062 132.416 68.1222 132.896 67.1142 132.896C66.2822 132.896 65.7862 132.464 65.7862 131.84ZM85.2099 132.688L84.0099 131.728C83.5139 132.4 82.6979 132.832 81.7219 132.832C80.1699 132.832 79.0979 131.92 78.9859 130.16H84.9379C85.0019 129.92 85.0499 129.552 85.0499 129.184C85.0499 127.136 83.6099 125.616 81.3859 125.616C78.8259 125.616 77.2899 127.552 77.2899 129.968C77.2899 132.32 78.9379 134.32 81.7219 134.32C83.2259 134.32 84.4579 133.696 85.2099 132.688ZM81.3539 126.992C82.6499 126.992 83.3699 127.92 83.4019 128.928H79.0659C79.3219 127.68 80.1539 126.992 81.3539 126.992ZM87.9204 134L90.0004 130.96L92.0964 134H93.9844L91.0724 129.84L93.8084 125.936H91.9044L90.0004 128.704L88.0964 125.936H86.1924L88.9124 129.84L86.0004 134H87.9204ZM102.71 132.688L101.51 131.728C101.014 132.4 100.198 132.832 99.2219 132.832C97.6699 132.832 96.5979 131.92 96.4859 130.16H102.438C102.502 129.92 102.55 129.552 102.55 129.184C102.55 127.136 101.11 125.616 98.8859 125.616C96.3259 125.616 94.7899 127.552 94.7899 129.968C94.7899 132.32 96.4379 134.32 99.2219 134.32C100.726 134.32 101.958 133.696 102.71 132.688ZM98.8539 126.992C100.15 126.992 100.87 127.92 100.902 128.928H96.5659C96.8219 127.68 97.6539 126.992 98.8539 126.992ZM104.711 134H106.359V128.624C106.775 127.936 107.447 127.392 108.471 127.392C108.807 127.392 109.063 127.44 109.319 127.504V125.888C109.111 125.824 108.871 125.776 108.615 125.776C107.623 125.776 106.919 126.224 106.359 126.848V125.936H104.711V134ZM114.487 132.768C112.919 132.768 111.799 131.568 111.799 129.968C111.799 128.384 112.919 127.168 114.471 127.168C115.399 127.168 116.135 127.616 116.583 128.24L117.879 127.248C117.143 126.256 115.943 125.616 114.471 125.616C111.767 125.616 110.071 127.616 110.071 129.968C110.071 132.32 111.767 134.32 114.471 134.32C115.959 134.32 117.143 133.68 117.879 132.688L116.583 131.696C116.135 132.32 115.399 132.768 114.487 132.768ZM126.569 132.688L125.369 131.728C124.873 132.4 124.057 132.832 123.081 132.832C121.529 132.832 120.457 131.92 120.345 130.16H126.297C126.361 129.92 126.409 129.552 126.409 129.184C126.409 127.136 124.969 125.616 122.745 125.616C120.185 125.616 118.649 127.552 118.649 129.968C118.649 132.32 120.297 134.32 123.081 134.32C124.585 134.32 125.817 133.696 126.569 132.688ZM122.713 126.992C124.009 126.992 124.729 127.92 124.761 128.928H120.425C120.681 127.68 121.513 126.992 122.713 126.992ZM128.571 134H130.219V128.624C130.635 127.936 131.307 127.392 132.331 127.392C132.667 127.392 132.923 127.44 133.179 127.504V125.888C132.971 125.824 132.731 125.776 132.475 125.776C131.483 125.776 130.779 126.224 130.219 126.848V125.936H128.571V134ZM139.305 134H140.953V122H139.305V134ZM150.929 132.688L149.729 131.728C149.233 132.4 148.417 132.832 147.441 132.832C145.889 132.832 144.817 131.92 144.705 130.16H150.657C150.721 129.92 150.769 129.552 150.769 129.184C150.769 127.136 149.329 125.616 147.105 125.616C144.545 125.616 143.009 127.552 143.009 129.968C143.009 132.32 144.657 134.32 147.441 134.32C148.945 134.32 150.177 133.696 150.929 132.688ZM147.073 126.992C148.369 126.992 149.089 127.92 149.121 128.928H144.785C145.041 127.68 145.873 126.992 147.073 126.992ZM157.242 134H158.89V128.56C159.274 127.872 159.882 127.168 160.906 127.168C161.962 127.168 162.602 127.872 162.602 129.056V134H164.266V128.992C164.266 128.832 164.266 128.688 164.25 128.544C164.682 127.776 165.306 127.168 166.266 127.168C167.306 127.168 167.962 127.872 167.962 129.056V134H169.626V128.992C169.626 126.768 168.33 125.616 166.65 125.616C165.258 125.616 164.458 126.272 163.834 127.072C163.322 126.112 162.394 125.616 161.29 125.616C160.218 125.616 159.466 126.064 158.89 126.688V125.936H157.242V134ZM176.532 124.656L178.42 122H176.596L174.932 124.656H176.532ZM179.46 132.688L178.26 131.728C177.764 132.4 176.948 132.832 175.972 132.832C174.42 132.832 173.348 131.92 173.236 130.16H179.188C179.252 129.92 179.3 129.552 179.3 129.184C179.3 127.136 177.86 125.616 175.636 125.616C173.076 125.616 171.54 127.552 171.54 129.968C171.54 132.32 173.188 134.32 175.972 134.32C177.476 134.32 178.708 133.696 179.46 132.688ZM175.604 126.992C176.9 126.992 177.62 127.92 177.652 128.928H173.316C173.572 127.68 174.404 126.992 175.604 126.992ZM181.91 131.2C181.91 133.168 182.902 134.16 184.79 134.16C185.414 134.16 185.862 134.08 186.246 133.92V132.464C185.958 132.576 185.59 132.64 185.046 132.64C184.15 132.64 183.574 132.288 183.574 131.2V127.424H186.246V125.936H183.574V123.92H181.91V125.936H180.39V127.424H181.91V131.2ZM189.043 124.144C189.651 124.144 190.163 123.632 190.163 123.024C190.163 122.416 189.651 121.904 189.043 121.904C188.435 121.904 187.923 122.416 187.923 123.024C187.923 123.632 188.435 124.144 189.043 124.144ZM188.211 134H189.859V125.936H188.211V134ZM199.835 132.688L198.635 131.728C198.139 132.4 197.323 132.832 196.347 132.832C194.795 132.832 193.723 131.92 193.611 130.16H199.563C199.627 129.92 199.675 129.552 199.675 129.184C199.675 127.136 198.235 125.616 196.011 125.616C193.451 125.616 191.915 127.552 191.915 129.968C191.915 132.32 193.563 134.32 196.347 134.32C197.851 134.32 199.083 133.696 199.835 132.688ZM195.979 126.992C197.275 126.992 197.995 127.92 198.027 128.928H193.691C193.947 127.68 194.779 126.992 195.979 126.992ZM201.836 134H203.484V128.624C203.9 127.936 204.572 127.392 205.596 127.392C205.932 127.392 206.188 127.44 206.444 127.504V125.888C206.236 125.824 205.996 125.776 205.74 125.776C204.748 125.776 204.044 126.224 203.484 126.848V125.936H201.836V134ZM207.621 134.192C208.277 134.192 208.805 133.664 208.805 133.008C208.805 132.368 208.277 131.824 207.621 131.824C206.949 131.824 206.421 132.368 206.421 133.008C206.421 133.664 206.949 134.192 207.621 134.192Z" fill="#6B48F4"/>
<path d="M43.3287 222.672C43.3896 221.967 44.0168 221.45 44.7399 221.45H47.1363L47.2253 221.455C47.6045 221.499 47.8988 221.821 47.8988 222.212L47.8937 222.301C47.8497 222.681 47.5274 222.975 47.1363 222.975H44.8488V226.025H47.1363L47.2253 226.03C47.6045 226.074 47.8988 226.396 47.8988 226.787C47.8988 227.209 47.5574 227.55 47.1363 227.55H44.7399L44.6266 227.546C43.9149 227.492 43.3238 226.939 43.3238 226.216V222.784L43.3287 222.672Z" fill="#6B48F4"/>
<path d="M53.994 222.672C53.9331 221.967 53.3058 221.45 52.5828 221.45H50.1863L50.0974 221.455C49.7182 221.499 49.4238 221.821 49.4238 222.212L49.429 222.301C49.473 222.681 49.7953 222.975 50.1863 222.975H52.4738V226.025H50.1863L50.0974 226.03C49.7182 226.074 49.4238 226.396 49.4238 226.787C49.4238 227.209 49.7652 227.55 50.1863 227.55H52.5828L52.6961 227.546C53.4077 227.492 53.9988 226.939 53.9988 226.216V222.784L53.994 222.672Z" fill="#6B48F4"/>
<path d="M81.5578 221.45C82.2808 221.45 82.9081 221.967 82.969 222.672L82.9738 222.784V226.216C82.9738 226.939 82.3827 227.492 81.6711 227.546L81.5578 227.55H79.1613C78.7402 227.55 78.3988 227.209 78.3988 226.787C78.3988 226.396 78.6932 226.074 79.0724 226.03L79.1613 226.025H81.4488V222.975H79.1613C78.7703 222.975 78.448 222.681 78.404 222.301L78.3988 222.212C78.3988 221.821 78.6932 221.499 79.0724 221.455L79.1613 221.45H81.5578Z" fill="#6B48F4"/>
<path d="M72.3037 222.672C72.3646 221.967 72.9918 221.45 73.7149 221.45H76.1113L76.2002 221.455C76.5795 221.499 76.8738 221.821 76.8738 222.212L76.8687 222.301C76.8246 222.681 76.5024 222.975 76.1113 222.975H73.8238V226.025H76.1113L76.2002 226.03C76.5795 226.074 76.8738 226.396 76.8738 226.787C76.8738 227.209 76.5324 227.55 76.1113 227.55H73.7149L73.6016 227.546C72.8899 227.492 72.2988 226.939 72.2988 226.216V222.784L72.3037 222.672Z" fill="#6B48F4"/>
<path fill-rule="evenodd" clip-rule="evenodd" d="M43.3238 230.6C42.4816 230.6 41.7988 231.283 41.7988 232.125V236.7C41.7988 237.542 42.4816 238.225 43.3238 238.225H46.3738C47.2161 238.225 47.8988 237.542 47.8988 236.7V232.125C47.8988 231.283 47.2161 230.6 46.3738 230.6H43.3238ZM46.3738 236.7V232.125H43.3238V236.7H46.3738Z" fill="#6B48F4"/>
<path fill-rule="evenodd" clip-rule="evenodd" d="M50.9488 230.6C50.1066 230.6 49.4238 231.283 49.4238 232.125V236.7C49.4238 237.542 50.1066 238.225 50.9488 238.225H53.9988C54.8411 238.225 55.5238 237.542 55.5238 236.7V232.125C55.5238 231.283 54.8411 230.6 53.9988 230.6H50.9488ZM53.9988 236.7V232.125H50.9488V236.7H53.9988Z" fill="#6B48F4"/>
<path fill-rule="evenodd" clip-rule="evenodd" d="M72.2988 230.6C71.4566 230.6 70.7738 231.283 70.7738 232.125V236.7C70.7738 237.542 71.4566 238.225 72.2988 238.225H75.3488C76.1911 238.225 76.8738 237.542 76.8738 236.7V232.125C76.8738 231.283 76.1911 230.6 75.3488 230.6H72.2988ZM75.3488 236.7V232.125H72.2988V236.7H75.3488Z" fill="#6B48F4"/>
<path fill-rule="evenodd" clip-rule="evenodd" d="M79.9238 230.6C79.0816 230.6 78.3988 231.283 78.3988 232.125V236.7C78.3988 237.542 79.0816 238.225 79.9238 238.225H82.9738C83.8161 238.225 84.4988 237.542 84.4988 236.7V232.125C84.4988 231.283 83.8161 230.6 82.9738 230.6H79.9238ZM82.9738 236.7V232.125H79.9238V236.7H82.9738Z" fill="#6B48F4"/>
<path d="M59.8757 203.373C59.5779 203.076 59.0951 203.076 58.7974 203.373L48.1224 214.048L48.0589 214.12C47.8263 214.419 47.8475 214.852 48.1224 215.127C48.4201 215.424 48.9029 215.424 49.2007 215.127L59.8757 204.452L59.9391 204.38C60.1717 204.081 60.1506 203.648 59.8757 203.373Z" fill="#6B48F4"/>
<path d="M63.595 204.819C63.3028 204.608 62.8956 204.629 62.6264 204.882L54.4704 212.559L54.4048 212.628C54.1633 212.92 54.1713 213.353 54.4377 213.636L54.5076 213.702C54.7995 213.944 55.2325 213.935 55.5155 213.669L63.1483 206.484L75.3687 217.986L75.4663 218.07C75.7349 218.283 76.0686 218.4 76.4139 218.4H83.7365L83.8254 218.395C84.2047 218.351 84.499 218.029 84.499 217.638C84.499 217.216 84.1576 216.875 83.7365 216.875H76.4139L63.6716 204.882L63.595 204.819Z" fill="#6B48F4"/>
<path d="M86.7865 216.875C86.3955 216.875 86.0732 217.169 86.0292 217.549L86.024 217.638V242.8H79.1615C78.7705 242.8 78.4482 243.094 78.4042 243.474L78.399 243.563C78.399 243.954 78.6934 244.276 79.0726 244.32L79.1615 244.325H86.7865C87.1776 244.325 87.4998 244.031 87.5439 243.651L87.549 243.563V217.638C87.549 217.216 87.2076 216.875 86.7865 216.875Z" fill="#6B48F4"/>
<path d="M48.6615 242.8C49.0826 242.8 49.424 243.141 49.424 243.563C49.424 243.954 49.1297 244.276 48.7504 244.32L48.6615 244.325H42.5615C42.1404 244.325 41.799 243.984 41.799 243.563C41.799 243.171 42.0934 242.849 42.4726 242.805L42.5615 242.8H48.6615Z" fill="#6B48F4"/>
<path d="M40.274 243.563C40.274 243.984 39.9326 244.325 39.5115 244.325C39.0904 244.325 38.749 243.984 38.749 243.563C38.749 243.141 39.0904 242.8 39.5115 242.8C39.9326 242.8 40.274 243.141 40.274 243.563Z" fill="#6B48F4"/>
<path fill-rule="evenodd" clip-rule="evenodd" d="M72.299 240.513C72.299 240.091 71.9576 239.75 71.5365 239.75H69.249V228.313L69.2439 228.224C69.1998 227.844 68.8776 227.55 68.4865 227.55H57.8115L57.7226 227.555C57.3434 227.599 57.049 227.921 57.049 228.313V239.75H54.7615L54.6726 239.755C54.2934 239.799 53.999 240.121 53.999 240.513C53.999 240.934 54.3404 241.275 54.7615 241.275H71.5365L71.6254 241.27C72.0047 241.226 72.299 240.904 72.299 240.513ZM63.9115 232.888V239.75H67.724V229.074H58.574V239.75H62.3865V232.888C62.3865 232.466 62.7279 232.125 63.149 232.125C63.5401 232.125 63.8623 232.419 63.9064 232.799L63.9115 232.888Z" fill="#6B48F4"/>
<path d="M63.9115 216.875C64.3326 216.875 64.674 217.216 64.674 217.638C64.674 218.029 64.3797 218.351 64.0004 218.395L63.9115 218.4H62.3865C61.9955 218.4 61.6732 218.106 61.6292 217.726C61.6258 217.697 61.624 217.668 61.624 217.638V216.113C61.624 215.691 61.9654 215.35 62.3865 215.35C62.7776 215.35 63.0998 215.644 63.1439 216.024L63.149 216.113V216.875H63.9115Z" fill="#6B48F4"/>
<path fill-rule="evenodd" clip-rule="evenodd" d="M58.574 216.875C58.574 214.348 60.6223 212.3 63.149 212.3C65.6757 212.3 67.724 214.348 67.724 216.875C67.724 219.402 65.6757 221.45 63.149 221.45C60.6223 221.45 58.574 219.402 58.574 216.875ZM63.149 213.825C64.8335 213.825 66.199 215.191 66.199 216.875C66.199 218.559 64.8335 219.925 63.149 219.925C61.4646 219.925 60.099 218.559 60.099 216.875C60.099 215.191 61.4646 213.825 63.149 213.825Z" fill="#6B48F4"/>
<path d="M67.724 225.263C67.724 224.841 67.3826 224.5 66.9615 224.5H59.3365L59.2476 224.505C58.8684 224.549 58.574 224.871 58.574 225.263C58.574 225.684 58.9154 226.025 59.3365 226.025H66.9615L67.0504 226.02C67.4297 225.976 67.724 225.654 67.724 225.263Z" fill="#6B48F4"/>
<path d="M75.349 243.563C75.349 243.141 75.0076 242.8 74.5865 242.8H51.7115L51.6226 242.805C51.2434 242.849 50.949 243.171 50.949 243.563C50.949 243.984 51.2904 244.325 51.7115 244.325H74.5865L74.6754 244.32C75.0547 244.276 75.349 243.954 75.349 243.563Z" fill="#6B48F4"/>
<path d="M51.1724 215.573C51.4701 215.276 51.9529 215.276 52.2507 215.573C52.5256 215.848 52.5467 216.281 52.3141 216.58L52.2507 216.652L50.7257 218.177C50.6065 218.296 50.452 218.371 50.2867 218.393L50.1865 218.4H40.274V240.513C40.274 240.904 39.9797 241.226 39.6004 241.27L39.5115 241.275C39.1205 241.275 38.7982 240.981 38.7542 240.601L38.749 240.513V217.638C38.749 217.246 39.0434 216.924 39.4226 216.88L39.5115 216.875H49.8693L51.1724 215.573Z" fill="#6B48F4"/>
<path d="M83.7365 213.825C84.1576 213.825 84.499 214.166 84.499 214.588C84.499 214.979 84.2047 215.301 83.8254 215.345L83.7365 215.35H77.6365C77.2154 215.35 76.874 215.009 76.874 214.588C76.874 214.196 77.1684 213.874 77.5476 213.83L77.6365 213.825H83.7365Z" fill="#6B48F4"/>
<path d="M86.7865 215.35C87.2076 215.35 87.549 215.009 87.549 214.588C87.549 214.166 87.2076 213.825 86.7865 213.825C86.3654 213.825 86.024 214.166 86.024 214.588C86.024 215.009 86.3654 215.35 86.7865 215.35Z" fill="#6B48F4"/>
<path fill-rule="evenodd" clip-rule="evenodd" d="M73.7092 313.936L76.6486 306.798C76.9689 306.02 77.8546 305.651 78.6268 305.974C78.9956 306.128 79.289 306.423 79.4431 306.794L82.4085 313.933C82.5786 314.343 82.5631 314.807 82.366 315.204L81.2167 317.52C81.1791 317.595 81.1358 317.667 81.0874 317.734V320.526L82.5623 324.984C82.5887 325.064 82.6017 325.147 82.6011 325.231L82.5959 325.314L81.5257 334.464C81.4843 334.819 81.2059 335.092 80.8615 335.132L80.7741 335.138H75.3459C74.9917 335.138 74.6892 334.891 74.6095 334.551L74.5943 334.464L74.2431 331.462C74.1942 331.044 74.4911 330.665 74.9062 330.615C75.2917 330.57 75.6436 330.824 75.7311 331.196L75.7464 331.283L76.0188 333.613H80.1005L81.0723 325.304L79.7849 321.413H76.3344L74.9938 325.466C74.871 325.837 74.4927 326.05 74.1218 325.972L74.0364 325.948C73.6682 325.825 73.4571 325.444 73.5347 325.07L73.5577 324.984L75.0326 320.526V317.734C74.9842 317.667 74.9409 317.595 74.9033 317.52L73.7534 315.203C73.557 314.807 73.5409 314.345 73.7092 313.936ZM76.5463 318.363V319.888H79.5737V318.363H76.5463ZM77.3032 309.188L75.1073 314.521L76.2572 316.838H79.8628L81.0121 314.522L78.8169 309.237V313.025C78.8169 313.446 78.478 313.788 78.06 313.788C77.6719 313.788 77.352 313.493 77.3083 313.114L77.3032 313.025V309.188Z" fill="#6B48F4"/>
<path d="M68.2209 321.413C69.6481 321.413 70.4915 322.262 70.4915 323.7C70.4915 323.762 70.4839 323.824 70.4689 323.885C70.0864 325.426 68.3858 326.428 65.3511 326.98L64.8609 327.064C64.6938 327.09 64.523 327.116 64.3485 327.14L63.8138 327.209C63.7229 327.22 63.631 327.23 63.5382 327.24L62.9702 327.298L62.3801 327.349L61.7676 327.393L61.1329 327.43C61.0253 327.435 60.9167 327.441 60.8072 327.446L60.1391 327.472L59.4487 327.492L58.736 327.505L57.625 327.513C57.207 327.513 56.8682 327.171 56.8682 326.75C56.8682 326.329 57.207 325.988 57.625 325.988L58.344 325.984C58.4619 325.983 58.5789 325.982 58.6948 325.98L59.379 325.967L60.0398 325.948L60.6774 325.922L61.2917 325.89L61.8827 325.852L62.4503 325.808L62.9946 325.758C63.0834 325.749 63.1711 325.74 63.258 325.731L63.7672 325.672C64.016 325.641 64.2559 325.609 64.4872 325.574L64.9379 325.501L65.3651 325.423L65.769 325.34C67.5987 324.938 68.6617 324.366 68.9504 323.667L68.9755 323.597L68.9705 323.507C68.9354 323.097 68.7672 322.956 68.3209 322.939L68.2209 322.938C67.4347 322.938 66.6067 323.355 65.7287 324.239C65.2726 324.699 64.5069 324.407 64.4412 323.787L64.4367 323.7C64.4367 323.104 64.271 322.938 63.6798 322.938C62.8936 322.938 62.0656 323.355 61.1876 324.239C60.892 324.537 60.4128 324.537 60.1172 324.239C59.8217 323.941 59.8217 323.459 60.1172 323.161C61.2575 322.012 62.4478 321.413 63.6798 321.413C64.5463 321.413 65.1976 321.726 65.5756 322.294L65.6053 322.342L65.7533 322.238C66.4929 321.735 67.2514 321.457 68.0268 321.417L68.2209 321.413Z" fill="#6B48F4"/>
<path d="M75.0273 290.061C74.9836 289.682 74.6637 289.387 74.2755 289.387H45.5152L45.4269 289.393C45.0505 289.437 44.7583 289.759 44.7583 290.15V331.325L44.7634 331.414C44.8071 331.793 45.127 332.087 45.5152 332.087H69.7344L69.8227 332.082C70.1991 332.038 70.4913 331.716 70.4913 331.325L70.4862 331.236C70.4425 330.857 70.1226 330.562 69.7344 330.562H46.272V290.912H73.5187V305.4L73.5238 305.489C73.5675 305.868 73.8874 306.162 74.2755 306.162C74.6935 306.162 75.0324 305.821 75.0324 305.4V290.15L75.0273 290.061Z" fill="#6B48F4"/>
<path d="M62.9227 294.725C62.9227 294.304 62.5839 293.962 62.1659 293.962H50.0563L49.968 293.968C49.5916 294.012 49.2994 294.334 49.2994 294.725C49.2994 295.146 49.6383 295.487 50.0563 295.487H62.1659L62.2542 295.482C62.6306 295.438 62.9227 295.116 62.9227 294.725Z" fill="#6B48F4"/>
<path d="M69.7344 298.537C70.1524 298.537 70.4913 298.879 70.4913 299.3C70.4913 299.691 70.1991 300.013 69.8227 300.057L69.7344 300.062H50.0563C49.6383 300.062 49.2994 299.721 49.2994 299.3C49.2994 298.909 49.5916 298.587 49.968 298.543L50.0563 298.537H69.7344Z" fill="#6B48F4"/>
<path d="M65.9502 303.875C65.9502 303.454 65.6113 303.112 65.1933 303.112H50.0563L49.968 303.118C49.5916 303.162 49.2994 303.484 49.2994 303.875C49.2994 304.296 49.6383 304.637 50.0563 304.637H65.1933L65.2816 304.632C65.658 304.588 65.9502 304.266 65.9502 303.875Z" fill="#6B48F4"/>
<path d="M69.7344 307.687C70.1524 307.687 70.4913 308.029 70.4913 308.45C70.4913 308.841 70.1991 309.163 69.8227 309.207L69.7344 309.212H50.0563C49.6383 309.212 49.2994 308.871 49.2994 308.45C49.2994 308.059 49.5916 307.737 49.968 307.693L50.0563 307.687H69.7344Z" fill="#6B48F4"/>
<path d="M78.0547 296.161C78.011 295.782 77.6911 295.487 77.3029 295.487C76.8849 295.487 76.5461 295.829 76.5461 296.25V302.35L76.5512 302.439C76.5949 302.818 76.9148 303.112 77.3029 303.112C77.7209 303.112 78.0598 302.771 78.0598 302.35V296.25L78.0547 296.161Z" fill="#6B48F4"/>
<path d="M71.2481 333.612C71.6661 333.612 72.005 333.954 72.005 334.375C72.005 334.766 71.7128 335.088 71.3364 335.132L71.2481 335.137H51.57C51.152 335.137 50.8131 334.796 50.8131 334.375C50.8131 333.984 51.1053 333.662 51.4817 333.618L51.57 333.612H71.2481Z" fill="#6B48F4"/>
<path d="M65.9502 313.025C65.9502 312.604 65.6113 312.262 65.1933 312.262H50.0563L49.968 312.268C49.5916 312.312 49.2994 312.634 49.2994 313.025C49.2994 313.446 49.6383 313.787 50.0563 313.787H65.1933L65.2816 313.782C65.658 313.738 65.9502 313.416 65.9502 313.025Z" fill="#6B48F4"/>
<path d="M107.425 185.575L107.425 354.306" stroke="#6B48F4" stroke-width="1.5" stroke-linecap="round"/>
<path d="M98.6358 345.862L107.623 354.525L116.703 345.802" stroke="#6B48F4" stroke-width="1.5" stroke-linecap="round"/>
<path d="M135.957 205.758C134.785 205.758 133.808 205.514 133.027 205.025C132.265 204.518 131.699 203.834 131.328 202.975C130.957 202.096 130.771 201.099 130.771 199.986C130.771 198.56 131.035 197.144 131.562 195.738C132.109 194.312 132.929 192.965 134.023 191.695C135.117 190.406 136.474 189.263 138.095 188.267C139.717 187.251 141.611 186.441 143.779 185.835L143.603 186.597C141.631 187.242 139.961 188.091 138.593 189.146C137.226 190.201 136.132 191.402 135.312 192.75C134.492 194.078 133.916 195.474 133.584 196.939C134.189 196.08 134.922 195.396 135.781 194.888C136.64 194.361 137.578 194.097 138.593 194.097C140 194.097 141.054 194.527 141.758 195.386C142.461 196.246 142.812 197.349 142.812 198.697C142.812 199.771 142.607 200.748 142.197 201.627C141.806 202.486 141.269 203.228 140.586 203.853C139.922 204.459 139.189 204.928 138.388 205.26C137.588 205.592 136.777 205.758 135.957 205.758ZM133.232 200.162C133.232 201.705 133.505 202.828 134.052 203.531C134.619 204.215 135.351 204.557 136.25 204.557C137.031 204.557 137.744 204.342 138.388 203.912C139.033 203.482 139.551 202.887 139.941 202.125C140.332 201.344 140.527 200.435 140.527 199.4C140.527 197.076 139.619 195.914 137.802 195.914C136.963 195.914 136.132 196.138 135.312 196.588C134.511 197.037 133.847 197.642 133.32 198.404C133.261 198.99 133.232 199.576 133.232 200.162ZM150.107 205.758C148.955 205.758 147.998 205.611 147.236 205.318C146.494 205.025 145.918 204.693 145.508 204.322C145.195 204.029 144.971 203.756 144.834 203.502C144.697 203.248 144.629 202.975 144.629 202.682C144.629 202.174 144.717 201.822 144.892 201.627C145.068 201.412 145.293 201.305 145.566 201.305H147.09L147.236 201.51L147.09 202.476C146.992 203.101 147.148 203.629 147.559 204.059C147.988 204.469 148.809 204.674 150.02 204.674C150.899 204.674 151.68 204.459 152.363 204.029C153.067 203.6 153.613 203.033 154.004 202.33C154.395 201.607 154.59 200.807 154.59 199.928C154.59 198.775 154.209 197.847 153.447 197.144C152.705 196.441 151.729 196.09 150.518 196.09H148.73L148.994 194.8H149.873C150.986 194.8 151.953 194.576 152.774 194.127C153.594 193.658 154.229 193.062 154.678 192.339C155.127 191.597 155.352 190.816 155.352 189.996C155.352 189.136 155.108 188.414 154.619 187.828C154.131 187.222 153.467 186.919 152.627 186.919C151.826 186.919 151.133 187.125 150.547 187.535C149.961 187.925 149.6 188.541 149.463 189.38L149.287 190.523L149.023 190.757H147.852C147.539 190.757 147.305 190.718 147.148 190.64C146.992 190.562 146.914 190.386 146.914 190.113C146.914 189.683 147.1 189.166 147.471 188.56C147.842 187.955 148.428 187.417 149.229 186.949C149.795 186.617 150.391 186.353 151.016 186.158C151.641 185.943 152.363 185.835 153.184 185.835C154.121 185.835 154.932 186.04 155.615 186.451C156.299 186.841 156.826 187.359 157.198 188.003C157.588 188.648 157.783 189.332 157.783 190.054C157.783 190.718 157.578 191.382 157.168 192.047C156.758 192.711 156.182 193.316 155.44 193.863C154.717 194.39 153.887 194.771 152.949 195.006C154.199 195.299 155.196 195.855 155.938 196.676C156.68 197.496 157.051 198.502 157.051 199.693C157.051 200.396 156.865 201.109 156.494 201.832C156.143 202.535 155.645 203.189 155 203.795C154.356 204.381 153.613 204.859 152.774 205.23C151.934 205.582 151.045 205.758 150.107 205.758ZM163.76 195.357C162.764 195.357 162.002 194.996 161.475 194.273C160.948 193.531 160.684 192.525 160.684 191.255C160.684 189.927 160.899 188.668 161.328 187.476C161.758 186.285 162.354 185.328 163.116 184.605C163.877 183.863 164.776 183.492 165.811 183.492C166.827 183.492 167.598 183.863 168.126 184.605C168.653 185.328 168.917 186.333 168.917 187.623C168.917 188.951 168.702 190.211 168.272 191.402C167.842 192.574 167.237 193.531 166.456 194.273C165.694 194.996 164.795 195.357 163.76 195.357ZM162.998 191.812C162.998 192.652 163.077 193.316 163.233 193.804C163.409 194.293 163.702 194.537 164.112 194.537C164.522 194.537 164.883 194.302 165.196 193.834C165.528 193.365 165.791 192.759 165.987 192.017C166.202 191.255 166.358 190.435 166.456 189.556C166.573 188.677 166.631 187.828 166.631 187.007C166.631 186.167 166.543 185.513 166.368 185.044C166.211 184.556 165.918 184.312 165.489 184.312C165.079 184.312 164.717 184.546 164.405 185.015C164.092 185.484 163.829 186.089 163.614 186.832C163.418 187.574 163.262 188.384 163.145 189.263C163.047 190.142 162.998 190.992 162.998 191.812ZM160.772 205.025L178.321 183.492L179.259 184.224L161.709 205.758L160.772 205.025ZM174.219 205.758C173.223 205.758 172.462 205.396 171.934 204.674C171.407 203.932 171.143 202.926 171.143 201.656C171.143 200.328 171.358 199.068 171.788 197.877C172.217 196.685 172.813 195.728 173.575 195.006C174.337 194.263 175.235 193.892 176.27 193.892C177.286 193.892 178.057 194.263 178.585 195.006C179.112 195.728 179.376 196.734 179.376 198.023C179.376 199.351 179.161 200.611 178.731 201.803C178.302 202.975 177.696 203.932 176.915 204.674C176.153 205.396 175.255 205.758 174.219 205.758ZM173.458 202.213C173.458 203.053 173.536 203.717 173.692 204.205C173.868 204.693 174.161 204.937 174.571 204.937C174.981 204.937 175.343 204.703 175.655 204.234C175.987 203.766 176.251 203.16 176.446 202.418C176.661 201.656 176.817 200.836 176.915 199.957C177.032 199.078 177.091 198.228 177.091 197.408C177.091 196.568 177.003 195.914 176.827 195.445C176.671 194.957 176.378 194.713 175.948 194.713C175.538 194.713 175.177 194.947 174.864 195.416C174.551 195.885 174.288 196.49 174.073 197.232C173.878 197.974 173.721 198.785 173.604 199.664C173.507 200.543 173.458 201.392 173.458 202.213ZM130.414 218.512C130.414 220.234 131.597 221.699 133.449 221.699C134.328 221.699 135.019 221.359 135.547 220.762V221.465H136.543V212.676H135.547V216.262C135.019 215.664 134.328 215.324 133.449 215.324C131.597 215.324 130.414 216.789 130.414 218.512ZM131.468 218.512C131.468 217.258 132.312 216.262 133.566 216.262C134.375 216.262 135.089 216.648 135.547 217.351V219.672C135.113 220.363 134.386 220.762 133.566 220.762C132.312 220.762 131.468 219.766 131.468 218.512ZM143.893 220.492L143.154 219.918C142.768 220.445 142.123 220.797 141.361 220.797C140.096 220.797 139.193 219.941 139.158 218.523H143.693C143.729 218.359 143.764 218.137 143.764 217.902C143.764 216.449 142.721 215.324 141.115 215.324C139.287 215.324 138.139 216.719 138.139 218.512C138.139 220.234 139.369 221.699 141.361 221.699C142.463 221.699 143.342 221.23 143.893 220.492ZM141.092 216.168C142.135 216.168 142.732 216.894 142.768 217.762H139.228C139.439 216.742 140.119 216.168 141.092 216.168ZM144.773 220.656C145.312 221.324 146.051 221.699 146.988 221.699C148.09 221.699 148.969 221.008 148.98 219.906C148.98 217.891 146.016 218.312 146.016 216.988C146.016 216.531 146.355 216.156 146.988 216.156C147.504 216.156 147.949 216.437 148.266 216.883L148.957 216.297C148.547 215.723 147.82 215.324 146.976 215.324C145.84 215.324 145.055 216.086 145.055 217.012C145.055 219.098 148.008 218.629 148.008 219.953C148.008 220.469 147.633 220.867 146.976 220.867C146.379 220.867 145.887 220.574 145.476 220.059L144.773 220.656ZM153.257 218.512C153.257 220.234 154.44 221.699 156.292 221.699C157.171 221.699 157.862 221.359 158.39 220.762V221.465H159.386V212.676H158.39V216.262C157.862 215.664 157.171 215.324 156.292 215.324C154.44 215.324 153.257 216.789 153.257 218.512ZM154.311 218.512C154.311 217.258 155.155 216.262 156.409 216.262C157.218 216.262 157.933 216.648 158.39 217.351V219.672C157.956 220.363 157.229 220.762 156.409 220.762C155.155 220.762 154.311 219.766 154.311 218.512ZM161.989 214.023C162.376 214.023 162.681 213.707 162.681 213.32C162.681 212.945 162.376 212.629 161.989 212.629C161.603 212.629 161.286 212.945 161.286 213.32C161.286 213.707 161.603 214.023 161.989 214.023ZM161.485 221.465H162.482V215.558H161.485V221.465ZM164.587 224.348H165.583V220.762C166.11 221.359 166.802 221.699 167.681 221.699C169.532 221.699 170.716 220.234 170.716 218.512C170.716 216.789 169.532 215.324 167.681 215.324C166.802 215.324 166.11 215.664 165.583 216.262V215.558H164.587V224.348ZM167.564 216.262C168.818 216.262 169.673 217.258 169.673 218.512C169.673 219.766 168.818 220.762 167.564 220.762C166.755 220.762 166.04 220.375 165.583 219.66V217.363C166.028 216.66 166.743 216.262 167.564 216.262ZM172.323 221.465H173.319V212.676H172.323V221.465ZM177.124 214.621L178.132 213.144L179.128 214.621H180.019L178.8 212.676H177.452L176.222 214.621H177.124ZM178.12 215.324C176.21 215.324 174.921 216.789 174.921 218.512C174.921 220.234 176.21 221.699 178.12 221.699C180.019 221.699 181.319 220.234 181.319 218.512C181.319 216.789 180.019 215.324 178.12 215.324ZM178.132 220.762C176.866 220.762 175.964 219.742 175.964 218.512C175.964 217.281 176.866 216.262 178.132 216.262C179.362 216.262 180.265 217.281 180.265 218.512C180.265 219.73 179.362 220.762 178.132 220.762ZM182.921 221.465H183.917V217.375C184.257 216.765 184.761 216.262 185.569 216.262C186.425 216.262 186.964 216.824 186.964 217.808V221.465H187.96V217.773C187.96 217.633 187.948 217.504 187.937 217.375C188.323 216.683 188.851 216.262 189.601 216.262C190.444 216.262 190.995 216.824 190.995 217.808V221.465H191.991V217.773C191.991 216.168 191.066 215.324 189.8 215.324C188.78 215.324 188.159 215.816 187.691 216.461C187.327 215.711 186.624 215.324 185.769 215.324C184.948 215.324 184.362 215.687 183.917 216.203V215.558H182.921V221.465ZM196.999 214.621L198.37 212.676H197.245L196.026 214.621H196.999ZM199.249 220.492L198.511 219.918C198.124 220.445 197.48 220.797 196.718 220.797C195.452 220.797 194.55 219.941 194.515 218.523H199.05C199.085 218.359 199.12 218.137 199.12 217.902C199.12 216.449 198.077 215.324 196.472 215.324C194.644 215.324 193.495 216.719 193.495 218.512C193.495 220.234 194.726 221.699 196.718 221.699C197.819 221.699 198.698 221.23 199.249 220.492ZM196.448 216.168C197.491 216.168 198.089 216.894 198.124 217.762H194.585C194.796 216.742 195.476 216.168 196.448 216.168ZM200.13 220.656C200.669 221.324 201.407 221.699 202.345 221.699C203.446 221.699 204.325 221.008 204.337 219.906C204.337 217.891 201.372 218.312 201.372 216.988C201.372 216.531 201.712 216.156 202.345 216.156C202.86 216.156 203.306 216.437 203.622 216.883L204.314 216.297C203.903 215.723 203.177 215.324 202.333 215.324C201.196 215.324 200.411 216.086 200.411 217.012C200.411 219.098 203.364 218.629 203.364 219.953C203.364 220.469 202.989 220.867 202.333 220.867C201.735 220.867 201.243 220.574 200.833 220.059L200.13 220.656ZM208.613 218.512C208.613 220.234 209.797 221.699 211.648 221.699C212.527 221.699 213.219 221.359 213.746 220.762V221.465H214.742V212.676H213.746V216.262C213.219 215.664 212.527 215.324 211.648 215.324C209.797 215.324 208.613 216.789 208.613 218.512ZM209.668 218.512C209.668 217.258 210.512 216.262 211.766 216.262C212.574 216.262 213.289 216.648 213.746 217.351V219.672C213.313 220.363 212.586 220.762 211.766 220.762C210.512 220.762 209.668 219.766 209.668 218.512ZM217.275 216.402L218.482 213.261H217.345L216.349 216.402H217.275ZM222.303 214.621L223.674 212.676H222.549L221.33 214.621H222.303ZM224.553 220.492L223.814 219.918C223.428 220.445 222.783 220.797 222.021 220.797C220.756 220.797 219.853 219.941 219.818 218.523H224.354C224.389 218.359 224.424 218.137 224.424 217.902C224.424 216.449 223.381 215.324 221.775 215.324C219.947 215.324 218.799 216.719 218.799 218.512C218.799 220.234 220.029 221.699 222.021 221.699C223.123 221.699 224.002 221.23 224.553 220.492ZM221.752 216.168C222.795 216.168 223.393 216.894 223.428 217.762H219.889C220.099 216.742 220.779 216.168 221.752 216.168ZM228.808 220.762C227.531 220.762 226.628 219.777 226.628 218.512C226.628 217.258 227.531 216.262 228.796 216.262C229.535 216.262 230.132 216.613 230.495 217.129L231.281 216.531C230.73 215.805 229.863 215.324 228.796 215.324C226.839 215.324 225.585 216.789 225.585 218.512C225.585 220.234 226.839 221.699 228.796 221.699C229.874 221.699 230.73 221.23 231.281 220.492L230.495 219.894C230.132 220.41 229.535 220.762 228.808 220.762ZM235.113 215.324C233.203 215.324 231.914 216.789 231.914 218.512C231.914 220.234 233.203 221.699 235.113 221.699C237.012 221.699 238.313 220.234 238.313 218.512C238.313 216.789 237.012 215.324 235.113 215.324ZM235.125 220.762C233.859 220.762 232.957 219.742 232.957 218.512C232.957 217.281 233.859 216.262 235.125 216.262C236.355 216.262 237.258 217.281 237.258 218.512C237.258 219.73 236.355 220.762 235.125 220.762ZM239.914 221.465H240.91V212.676H239.914V221.465ZM248.266 220.492L247.527 219.918C247.14 220.445 246.496 220.797 245.734 220.797C244.469 220.797 243.566 219.941 243.531 218.523H248.066C248.101 218.359 248.137 218.137 248.137 217.902C248.137 216.449 247.094 215.324 245.488 215.324C243.66 215.324 242.511 216.719 242.511 218.512C242.511 220.234 243.742 221.699 245.734 221.699C246.836 221.699 247.715 221.23 248.266 220.492ZM245.465 216.168C246.508 216.168 247.105 216.894 247.14 217.762H243.601C243.812 216.742 244.492 216.168 245.465 216.168ZM249.146 220.656C249.685 221.324 250.424 221.699 251.361 221.699C252.463 221.699 253.342 221.008 253.353 219.906C253.353 217.891 250.388 218.312 250.388 216.988C250.388 216.531 250.728 216.156 251.361 216.156C251.877 216.156 252.322 216.437 252.638 216.883L253.33 216.297C252.92 215.723 252.193 215.324 251.349 215.324C250.213 215.324 249.427 216.086 249.427 217.012C249.427 219.098 252.381 218.629 252.381 219.953C252.381 220.469 252.006 220.867 251.349 220.867C250.752 220.867 250.26 220.574 249.849 220.059L249.146 220.656ZM130.414 234.512C130.414 236.234 131.597 237.699 133.449 237.699C134.328 237.699 135.019 237.359 135.547 236.762V237.465H136.543V228.676H135.547V232.262C135.019 231.664 134.328 231.324 133.449 231.324C131.597 231.324 130.414 232.789 130.414 234.512ZM131.468 234.512C131.468 233.258 132.312 232.262 133.566 232.262C134.375 232.262 135.089 232.648 135.547 233.351V235.672C135.113 236.363 134.386 236.762 133.566 236.762C132.312 236.762 131.468 235.766 131.468 234.512ZM143.893 236.492L143.154 235.918C142.768 236.445 142.123 236.797 141.361 236.797C140.096 236.797 139.193 235.941 139.158 234.523H143.693C143.729 234.359 143.764 234.137 143.764 233.902C143.764 232.449 142.721 231.324 141.115 231.324C139.287 231.324 138.139 232.719 138.139 234.512C138.139 236.234 139.369 237.699 141.361 237.699C142.463 237.699 143.342 237.23 143.893 236.492ZM141.092 232.168C142.135 232.168 142.732 232.894 142.768 233.762H139.228C139.439 232.742 140.119 232.168 141.092 232.168ZM148.611 240.348H149.607V236.762C150.134 237.359 150.825 237.699 151.704 237.699C153.556 237.699 154.74 236.234 154.74 234.512C154.74 232.789 153.556 231.324 151.704 231.324C150.825 231.324 150.134 231.664 149.607 232.262V231.558H148.611V240.348ZM151.587 232.262C152.841 232.262 153.697 233.258 153.697 234.512C153.697 235.766 152.841 236.762 151.587 236.762C150.779 236.762 150.064 236.375 149.607 235.66V233.363C150.052 232.66 150.767 232.262 151.587 232.262ZM156.347 237.465H157.343V233.375C157.718 232.765 158.245 232.262 159.113 232.262C160.038 232.262 160.624 232.871 160.624 233.926V237.465H161.621V233.891C161.621 232.215 160.636 231.324 159.312 231.324C158.433 231.324 157.824 231.699 157.343 232.226V228.676H156.347V237.465ZM166.321 231.324C164.411 231.324 163.122 232.789 163.122 234.512C163.122 236.234 164.411 237.699 166.321 237.699C168.219 237.699 169.52 236.234 169.52 234.512C169.52 232.789 168.219 231.324 166.321 231.324ZM166.333 236.762C165.067 236.762 164.165 235.742 164.165 234.512C164.165 233.281 165.067 232.262 166.333 232.262C167.563 232.262 168.466 233.281 168.466 234.512C168.466 235.73 167.563 236.762 166.333 236.762ZM171.37 235.484C171.37 236.926 172.108 237.582 173.421 237.582C173.843 237.582 174.159 237.535 174.44 237.418V236.527C174.218 236.621 173.948 236.668 173.561 236.668C172.847 236.668 172.378 236.41 172.378 235.484V232.461H174.429V231.558H172.378V230.082H171.37V231.558H170.257V232.461H171.37V235.484ZM178.532 231.324C176.622 231.324 175.333 232.789 175.333 234.512C175.333 236.234 176.622 237.699 178.532 237.699C180.431 237.699 181.731 236.234 181.731 234.512C181.731 232.789 180.431 231.324 178.532 231.324ZM178.544 236.762C177.278 236.762 176.376 235.742 176.376 234.512C176.376 233.281 177.278 232.262 178.544 232.262C179.774 232.262 180.677 233.281 180.677 234.512C180.677 235.73 179.774 236.762 178.544 236.762ZM182.607 238.531C182.607 239.715 183.756 240.395 185.502 240.395C187.272 240.395 188.514 239.469 188.514 238.227C188.514 237.172 187.787 236.41 186.229 236.41H184.541C184.178 236.41 184.049 236.234 184.049 235.988C184.049 235.766 184.189 235.555 184.436 235.379C184.682 235.449 184.963 235.496 185.256 235.496C186.674 235.496 187.553 234.535 187.553 233.41C187.553 233.058 187.471 232.719 187.307 232.426H188.584V231.558H186.393C186.076 231.406 185.689 231.312 185.256 231.312C183.85 231.312 182.959 232.273 182.959 233.41C182.959 234.066 183.264 234.664 183.779 235.051C183.322 235.344 183.076 235.73 183.076 236.199C183.076 236.516 183.217 236.832 183.486 237.043C182.9 237.453 182.607 237.934 182.607 238.531ZM185.268 234.711C184.389 234.711 183.908 234.137 183.908 233.41C183.908 232.683 184.389 232.098 185.268 232.098C186.123 232.098 186.615 232.683 186.615 233.41C186.615 234.125 186.123 234.711 185.268 234.711ZM183.58 238.414C183.58 237.945 183.826 237.594 184.236 237.289H186.147C187.201 237.289 187.518 237.734 187.518 238.297C187.518 239.07 186.732 239.563 185.49 239.563C184.318 239.563 183.58 239.129 183.58 238.414ZM189.799 237.465H190.795V233.41C191.158 232.812 191.662 232.414 192.436 232.414C192.67 232.414 192.846 232.437 193.022 232.484V231.512C192.881 231.465 192.705 231.441 192.518 231.441C191.768 231.441 191.229 231.781 190.795 232.297V231.558H189.799V237.465ZM195.799 237.629C196.561 237.629 197.334 237.289 197.78 236.715V237.465H198.776V233.504C198.776 232.203 197.885 231.324 196.385 231.324C195.354 231.324 194.522 231.758 194.006 232.461L194.756 233.035C195.119 232.531 195.67 232.215 196.35 232.215C197.194 232.215 197.78 232.683 197.78 233.504V233.914L195.787 234.242C194.533 234.453 193.854 235.086 193.854 235.977C193.854 236.984 194.639 237.629 195.799 237.629ZM194.862 235.941C194.862 235.437 195.225 235.074 196.033 234.934L197.78 234.641V235.801C197.393 236.434 196.748 236.809 195.963 236.809C195.272 236.809 194.862 236.445 194.862 235.941ZM200.774 240.348H201.77V236.762C202.298 237.359 202.989 237.699 203.868 237.699C205.72 237.699 206.903 236.234 206.903 234.512C206.903 232.789 205.72 231.324 203.868 231.324C202.989 231.324 202.298 231.664 201.77 232.262V231.558H200.774V240.348ZM203.751 232.262C205.005 232.262 205.86 233.258 205.86 234.512C205.86 235.766 205.005 236.762 203.751 236.762C202.942 236.762 202.227 236.375 201.77 235.66V233.363C202.216 232.66 202.93 232.262 203.751 232.262ZM208.511 237.465H209.507V233.375C209.882 232.765 210.409 232.262 211.276 232.262C212.202 232.262 212.788 232.871 212.788 233.926V237.465H213.784V233.891C213.784 232.215 212.8 231.324 211.475 231.324C210.597 231.324 209.987 231.699 209.507 232.226V228.676H208.511V237.465ZM216.293 230.023C216.68 230.023 216.985 229.707 216.985 229.32C216.985 228.945 216.68 228.629 216.293 228.629C215.906 228.629 215.59 228.945 215.59 229.32C215.59 229.707 215.906 230.023 216.293 230.023ZM215.789 237.465H216.785V231.558H215.789V237.465ZM224.141 236.492L223.402 235.918C223.016 236.445 222.371 236.797 221.609 236.797C220.344 236.797 219.441 235.941 219.406 234.523H223.942C223.977 234.359 224.012 234.137 224.012 233.902C224.012 232.449 222.969 231.324 221.363 231.324C219.535 231.324 218.387 232.719 218.387 234.512C218.387 236.234 219.617 237.699 221.609 237.699C222.711 237.699 223.59 237.23 224.141 236.492ZM221.34 232.168C222.383 232.168 222.981 232.894 223.016 233.762H219.477C219.687 232.742 220.367 232.168 221.34 232.168ZM228.226 236.656C228.765 237.324 229.503 237.699 230.441 237.699C231.542 237.699 232.421 237.008 232.433 235.906C232.433 233.891 229.468 234.312 229.468 232.988C229.468 232.531 229.808 232.156 230.441 232.156C230.956 232.156 231.402 232.437 231.718 232.883L232.41 232.297C231.999 231.723 231.273 231.324 230.429 231.324C229.292 231.324 228.507 232.086 228.507 233.012C228.507 235.098 231.46 234.629 231.46 235.953C231.46 236.469 231.085 236.867 230.429 236.867C229.831 236.867 229.339 236.574 228.929 236.059L228.226 236.656ZM236.681 231.324C234.771 231.324 233.482 232.789 233.482 234.512C233.482 236.234 234.771 237.699 236.681 237.699C238.58 237.699 239.88 236.234 239.88 234.512C239.88 232.789 238.58 231.324 236.681 231.324ZM236.693 236.762C235.427 236.762 234.525 235.742 234.525 234.512C234.525 233.281 235.427 232.262 236.693 232.262C237.923 232.262 238.826 233.281 238.826 234.512C238.826 235.73 237.923 236.762 236.693 236.762ZM241.482 237.465H242.478V233.375C242.853 232.754 243.392 232.262 244.248 232.262C245.162 232.262 245.759 232.871 245.759 233.926V237.465H246.755V233.891C246.755 232.215 245.771 231.324 244.447 231.324C243.568 231.324 242.958 231.699 242.478 232.226V231.558H241.482V237.465ZM249.1 235.484C249.1 236.926 249.839 237.582 251.151 237.582C251.573 237.582 251.889 237.535 252.171 237.418V236.527C251.948 236.621 251.679 236.668 251.292 236.668C250.577 236.668 250.108 236.41 250.108 235.484V232.461H252.159V231.558H250.108V230.082H249.1V231.558H247.987V232.461H249.1V235.484ZM130.414 250.512C130.414 252.234 131.597 253.699 133.449 253.699C134.328 253.699 135.019 253.359 135.547 252.762V253.465H136.543V244.676H135.547V248.262C135.019 247.664 134.328 247.324 133.449 247.324C131.597 247.324 130.414 248.789 130.414 250.512ZM131.468 250.512C131.468 249.258 132.312 248.262 133.566 248.262C134.375 248.262 135.089 248.648 135.547 249.351V251.672C135.113 252.363 134.386 252.762 133.566 252.762C132.312 252.762 131.468 251.766 131.468 250.512ZM143.893 252.492L143.154 251.918C142.768 252.445 142.123 252.797 141.361 252.797C140.096 252.797 139.193 251.941 139.158 250.523H143.693C143.729 250.359 143.764 250.137 143.764 249.902C143.764 248.449 142.721 247.324 141.115 247.324C139.287 247.324 138.139 248.719 138.139 250.512C138.139 252.234 139.369 253.699 141.361 253.699C142.463 253.699 143.342 253.23 143.893 252.492ZM141.092 248.168C142.135 248.168 142.732 248.894 142.768 249.762H139.228C139.439 248.742 140.119 248.168 141.092 248.168ZM144.773 252.656C145.312 253.324 146.051 253.699 146.988 253.699C148.09 253.699 148.969 253.008 148.98 251.906C148.98 249.891 146.016 250.312 146.016 248.988C146.016 248.531 146.355 248.156 146.988 248.156C147.504 248.156 147.949 248.437 148.266 248.883L148.957 248.297C148.547 247.723 147.82 247.324 146.976 247.324C145.84 247.324 145.055 248.086 145.055 249.012C145.055 251.098 148.008 250.629 148.008 251.953C148.008 252.469 147.633 252.867 146.976 252.867C146.379 252.867 145.887 252.574 145.476 252.059L144.773 252.656ZM152.987 247.558V248.461H154.1V253.465H155.108V248.461H157.159V247.558H155.108V246.808C155.108 246.035 155.554 245.578 156.222 245.578C156.561 245.578 156.831 245.683 157.054 245.847L157.499 245.015C157.171 244.828 156.737 244.676 156.198 244.676C154.909 244.676 154.1 245.578 154.1 246.832V247.558H152.987ZM163.291 252.492L162.553 251.918C162.166 252.445 161.521 252.797 160.76 252.797C159.494 252.797 158.592 251.941 158.556 250.523H163.092C163.127 250.359 163.162 250.137 163.162 249.902C163.162 248.449 162.119 247.324 160.513 247.324C158.685 247.324 157.537 248.719 157.537 250.512C157.537 252.234 158.767 253.699 160.76 253.699C161.861 253.699 162.74 253.23 163.291 252.492ZM160.49 248.168C161.533 248.168 162.131 248.894 162.166 249.762H158.627C158.838 248.742 159.517 248.168 160.49 248.168ZM164.85 253.465H165.846V249.375C166.186 248.765 166.69 248.262 167.499 248.262C168.354 248.262 168.893 248.824 168.893 249.808V253.465H169.889V249.773C169.889 249.633 169.878 249.504 169.866 249.375C170.253 248.683 170.78 248.262 171.53 248.262C172.374 248.262 172.925 248.824 172.925 249.808V253.465H173.921V249.773C173.921 248.168 172.995 247.324 171.729 247.324C170.71 247.324 170.089 247.816 169.62 248.461C169.257 247.711 168.553 247.324 167.698 247.324C166.878 247.324 166.292 247.687 165.846 248.203V247.558H164.85V253.465ZM175.928 253.465H176.924V249.375C177.264 248.765 177.768 248.262 178.577 248.262C179.432 248.262 179.971 248.824 179.971 249.808V253.465H180.968V249.773C180.968 249.633 180.956 249.504 180.944 249.375C181.331 248.683 181.858 248.262 182.608 248.262C183.452 248.262 184.003 248.824 184.003 249.808V253.465H184.999V249.773C184.999 248.168 184.073 247.324 182.807 247.324C181.788 247.324 181.167 247.816 180.698 248.461C180.335 247.711 179.632 247.324 178.776 247.324C177.956 247.324 177.37 247.687 176.924 248.203V247.558H175.928V253.465ZM192.257 252.492L191.518 251.918C191.132 252.445 190.487 252.797 189.725 252.797C188.46 252.797 187.557 251.941 187.522 250.523H192.057C192.093 250.359 192.128 250.137 192.128 249.902C192.128 248.449 191.085 247.324 189.479 247.324C187.651 247.324 186.503 248.719 186.503 250.512C186.503 252.234 187.733 253.699 189.725 253.699C190.827 253.699 191.706 253.23 192.257 252.492ZM189.456 248.168C190.499 248.168 191.096 248.894 191.132 249.762H187.592C187.803 248.742 188.483 248.168 189.456 248.168ZM193.137 252.656C193.676 253.324 194.415 253.699 195.352 253.699C196.454 253.699 197.333 253.008 197.344 251.906C197.344 249.891 194.38 250.312 194.38 248.988C194.38 248.531 194.719 248.156 195.352 248.156C195.868 248.156 196.313 248.437 196.63 248.883L197.321 248.297C196.911 247.723 196.184 247.324 195.34 247.324C194.204 247.324 193.419 248.086 193.419 249.012C193.419 251.098 196.372 250.629 196.372 251.953C196.372 252.469 195.997 252.867 195.34 252.867C194.743 252.867 194.251 252.574 193.84 252.059L193.137 252.656Z" fill="#6B48F4"/>
<path d="M135.459 305.112C134.306 305.112 133.349 304.966 132.587 304.673C131.845 304.38 131.269 304.048 130.859 303.677C130.546 303.384 130.322 303.11 130.185 302.856C130.048 302.602 129.98 302.329 129.98 302.036C129.98 301.528 130.068 301.177 130.244 300.981C130.419 300.766 130.644 300.659 130.918 300.659H132.441L132.587 300.864L132.441 301.831C132.343 302.456 132.5 302.983 132.91 303.413C133.339 303.823 134.16 304.028 135.371 304.028C136.25 304.028 137.031 303.813 137.715 303.384C138.418 302.954 138.965 302.388 139.355 301.684C139.746 300.962 139.941 300.161 139.941 299.282C139.941 298.13 139.56 297.202 138.799 296.499C138.056 295.796 137.08 295.444 135.869 295.444H134.082L134.345 294.155H135.224C136.338 294.155 137.304 293.93 138.125 293.481C138.945 293.012 139.58 292.417 140.029 291.694C140.478 290.952 140.703 290.171 140.703 289.35C140.703 288.491 140.459 287.768 139.97 287.182C139.482 286.577 138.818 286.274 137.978 286.274C137.177 286.274 136.484 286.479 135.898 286.889C135.312 287.28 134.951 287.895 134.814 288.735L134.638 289.878L134.375 290.112H133.203C132.89 290.112 132.656 290.073 132.5 289.995C132.343 289.917 132.265 289.741 132.265 289.467C132.265 289.038 132.451 288.52 132.822 287.915C133.193 287.309 133.779 286.772 134.58 286.303C135.146 285.971 135.742 285.707 136.367 285.512C136.992 285.297 137.715 285.19 138.535 285.19C139.472 285.19 140.283 285.395 140.967 285.805C141.65 286.196 142.178 286.713 142.549 287.358C142.939 288.002 143.135 288.686 143.135 289.409C143.135 290.073 142.93 290.737 142.519 291.401C142.109 292.065 141.533 292.671 140.791 293.217C140.068 293.745 139.238 294.126 138.301 294.36C139.551 294.653 140.547 295.21 141.289 296.03C142.031 296.85 142.402 297.856 142.402 299.048C142.402 299.751 142.217 300.464 141.846 301.186C141.494 301.89 140.996 302.544 140.351 303.149C139.707 303.735 138.965 304.214 138.125 304.585C137.285 304.937 136.396 305.112 135.459 305.112ZM150.43 305.112C149.453 305.112 148.545 304.946 147.705 304.614C146.885 304.263 146.23 303.774 145.742 303.149C145.254 302.505 145.01 301.763 145.01 300.923C145.01 299.751 145.449 298.686 146.328 297.729C147.227 296.772 148.525 295.854 150.225 294.975C149.17 294.194 148.428 293.481 147.998 292.837C147.568 292.173 147.353 291.411 147.353 290.551C147.353 289.594 147.637 288.706 148.203 287.885C148.77 287.065 149.512 286.411 150.43 285.922C151.367 285.434 152.383 285.19 153.477 285.19C154.395 285.19 155.205 285.385 155.908 285.776C156.631 286.147 157.188 286.655 157.578 287.299C157.989 287.944 158.194 288.657 158.194 289.438C158.194 290.317 157.842 291.167 157.139 291.987C156.455 292.788 155.254 293.637 153.535 294.536C154.453 295.18 155.156 295.786 155.645 296.352C156.133 296.919 156.465 297.485 156.641 298.052C156.836 298.598 156.934 299.184 156.934 299.809C156.934 300.727 156.641 301.587 156.055 302.388C155.488 303.188 154.707 303.843 153.711 304.351C152.734 304.858 151.641 305.112 150.43 305.112ZM149.727 289.643C149.727 290.385 149.912 291.088 150.283 291.753C150.654 292.417 151.426 293.13 152.598 293.891C153.809 293.227 154.658 292.592 155.147 291.987C155.635 291.381 155.879 290.6 155.879 289.643C155.879 288.588 155.625 287.788 155.117 287.241C154.61 286.694 153.877 286.42 152.92 286.42C151.846 286.42 151.045 286.733 150.518 287.358C149.99 287.983 149.727 288.745 149.727 289.643ZM147.383 300.454C147.383 301.567 147.686 302.427 148.291 303.032C148.897 303.618 149.756 303.911 150.869 303.911C152.08 303.911 153.018 303.569 153.682 302.886C154.365 302.183 154.707 301.294 154.707 300.22C154.707 299.184 154.385 298.345 153.74 297.7C153.115 297.036 152.217 296.313 151.045 295.532C150.029 296.196 149.258 296.772 148.73 297.261C148.203 297.749 147.842 298.237 147.646 298.725C147.471 299.214 147.383 299.79 147.383 300.454ZM163.76 294.712C162.764 294.712 162.002 294.35 161.475 293.628C160.948 292.885 160.684 291.88 160.684 290.61C160.684 289.282 160.899 288.022 161.328 286.831C161.758 285.639 162.354 284.682 163.116 283.959C163.877 283.217 164.776 282.846 165.811 282.846C166.827 282.846 167.598 283.217 168.126 283.959C168.653 284.682 168.917 285.688 168.917 286.977C168.917 288.305 168.702 289.565 168.272 290.756C167.842 291.928 167.237 292.885 166.456 293.628C165.694 294.35 164.795 294.712 163.76 294.712ZM162.998 291.167C162.998 292.006 163.077 292.671 163.233 293.159C163.409 293.647 163.702 293.891 164.112 293.891C164.522 293.891 164.883 293.657 165.196 293.188C165.528 292.719 165.791 292.114 165.987 291.372C166.202 290.61 166.358 289.79 166.456 288.911C166.573 288.032 166.631 287.182 166.631 286.362C166.631 285.522 166.543 284.868 166.368 284.399C166.211 283.911 165.918 283.666 165.489 283.666C165.079 283.666 164.717 283.901 164.405 284.37C164.092 284.838 163.829 285.444 163.614 286.186C163.418 286.928 163.262 287.739 163.145 288.618C163.047 289.497 162.998 290.346 162.998 291.167ZM160.772 304.38L178.321 282.846L179.259 283.579L161.709 305.112L160.772 304.38ZM174.219 305.112C173.223 305.112 172.462 304.751 171.934 304.028C171.407 303.286 171.143 302.28 171.143 301.011C171.143 299.682 171.358 298.423 171.788 297.231C172.217 296.04 172.813 295.083 173.575 294.36C174.337 293.618 175.235 293.247 176.27 293.247C177.286 293.247 178.057 293.618 178.585 294.36C179.112 295.083 179.376 296.089 179.376 297.378C179.376 298.706 179.161 299.966 178.731 301.157C178.302 302.329 177.696 303.286 176.915 304.028C176.153 304.751 175.255 305.112 174.219 305.112ZM173.458 301.567C173.458 302.407 173.536 303.071 173.692 303.56C173.868 304.048 174.161 304.292 174.571 304.292C174.981 304.292 175.343 304.058 175.655 303.589C175.987 303.12 176.251 302.515 176.446 301.772C176.661 301.011 176.817 300.19 176.915 299.311C177.032 298.432 177.091 297.583 177.091 296.762C177.091 295.923 177.003 295.268 176.827 294.8C176.671 294.311 176.378 294.067 175.948 294.067C175.538 294.067 175.177 294.301 174.864 294.77C174.551 295.239 174.288 295.844 174.073 296.587C173.878 297.329 173.721 298.139 173.604 299.018C173.507 299.897 173.458 300.747 173.458 301.567ZM130.414 317.866C130.414 319.589 131.597 321.054 133.449 321.054C134.328 321.054 135.019 320.714 135.547 320.116V320.819H136.543V312.03H135.547V315.616C135.019 315.018 134.328 314.679 133.449 314.679C131.597 314.679 130.414 316.143 130.414 317.866ZM131.468 317.866C131.468 316.612 132.312 315.616 133.566 315.616C134.375 315.616 135.089 316.003 135.547 316.706V319.026C135.113 319.718 134.386 320.116 133.566 320.116C132.312 320.116 131.468 319.12 131.468 317.866ZM143.893 319.847L143.154 319.272C142.768 319.8 142.123 320.151 141.361 320.151C140.096 320.151 139.193 319.296 139.158 317.878H143.693C143.729 317.714 143.764 317.491 143.764 317.257C143.764 315.804 142.721 314.679 141.115 314.679C139.287 314.679 138.139 316.073 138.139 317.866C138.139 319.589 139.369 321.054 141.361 321.054C142.463 321.054 143.342 320.585 143.893 319.847ZM141.092 315.522C142.135 315.522 142.732 316.249 142.768 317.116H139.228C139.439 316.097 140.119 315.522 141.092 315.522ZM144.773 320.011C145.312 320.679 146.051 321.054 146.988 321.054C148.09 321.054 148.969 320.362 148.98 319.261C148.98 317.245 146.016 317.667 146.016 316.343C146.016 315.886 146.355 315.511 146.988 315.511C147.504 315.511 147.949 315.792 148.266 316.237L148.957 315.651C148.547 315.077 147.82 314.679 146.976 314.679C145.84 314.679 145.055 315.44 145.055 316.366C145.055 318.452 148.008 317.983 148.008 319.308C148.008 319.823 147.633 320.222 146.976 320.222C146.379 320.222 145.887 319.929 145.476 319.413L144.773 320.011ZM153.761 323.702H154.757V320.116C155.284 320.714 155.975 321.054 156.854 321.054C158.706 321.054 159.89 319.589 159.89 317.866C159.89 316.143 158.706 314.679 156.854 314.679C155.975 314.679 155.284 315.018 154.757 315.616V314.913H153.761V323.702ZM156.737 315.616C157.991 315.616 158.847 316.612 158.847 317.866C158.847 319.12 157.991 320.116 156.737 320.116C155.929 320.116 155.214 319.729 154.757 319.015V316.718C155.202 316.015 155.917 315.616 156.737 315.616ZM161.497 320.819H162.493V316.729C162.868 316.12 163.395 315.616 164.263 315.616C165.188 315.616 165.774 316.225 165.774 317.28V320.819H166.771V317.245C166.771 315.569 165.786 314.679 164.462 314.679C163.583 314.679 162.974 315.054 162.493 315.581V312.03H161.497V320.819ZM171.471 314.679C169.561 314.679 168.272 316.143 168.272 317.866C168.272 319.589 169.561 321.054 171.471 321.054C173.369 321.054 174.67 319.589 174.67 317.866C174.67 316.143 173.369 314.679 171.471 314.679ZM171.483 320.116C170.217 320.116 169.315 319.097 169.315 317.866C169.315 316.636 170.217 315.616 171.483 315.616C172.713 315.616 173.616 316.636 173.616 317.866C173.616 319.085 172.713 320.116 171.483 320.116ZM176.52 318.839C176.52 320.28 177.258 320.937 178.571 320.937C178.993 320.937 179.309 320.89 179.59 320.772V319.882C179.368 319.976 179.098 320.022 178.711 320.022C177.997 320.022 177.528 319.765 177.528 318.839V315.815H179.579V314.913H177.528V313.436H176.52V314.913H175.407V315.815H176.52V318.839ZM183.682 314.679C181.772 314.679 180.483 316.143 180.483 317.866C180.483 319.589 181.772 321.054 183.682 321.054C185.581 321.054 186.881 319.589 186.881 317.866C186.881 316.143 185.581 314.679 183.682 314.679ZM183.694 320.116C182.428 320.116 181.526 319.097 181.526 317.866C181.526 316.636 182.428 315.616 183.694 315.616C184.924 315.616 185.827 316.636 185.827 317.866C185.827 319.085 184.924 320.116 183.694 320.116ZM187.757 321.886C187.757 323.069 188.906 323.749 190.652 323.749C192.422 323.749 193.664 322.823 193.664 321.581C193.664 320.526 192.937 319.765 191.379 319.765H189.691C189.328 319.765 189.199 319.589 189.199 319.343C189.199 319.12 189.339 318.909 189.586 318.733C189.832 318.804 190.113 318.851 190.406 318.851C191.824 318.851 192.703 317.89 192.703 316.765C192.703 316.413 192.621 316.073 192.457 315.78H193.734V314.913H191.543C191.226 314.761 190.839 314.667 190.406 314.667C189 314.667 188.109 315.628 188.109 316.765C188.109 317.421 188.414 318.018 188.929 318.405C188.472 318.698 188.226 319.085 188.226 319.554C188.226 319.87 188.367 320.187 188.636 320.397C188.05 320.808 187.757 321.288 187.757 321.886ZM190.418 318.065C189.539 318.065 189.058 317.491 189.058 316.765C189.058 316.038 189.539 315.452 190.418 315.452C191.273 315.452 191.765 316.038 191.765 316.765C191.765 317.479 191.273 318.065 190.418 318.065ZM188.73 321.769C188.73 321.3 188.976 320.948 189.386 320.644H191.296C192.351 320.644 192.668 321.089 192.668 321.651C192.668 322.425 191.882 322.917 190.64 322.917C189.468 322.917 188.73 322.483 188.73 321.769ZM194.949 320.819H195.945V316.765C196.308 316.167 196.812 315.768 197.586 315.768C197.82 315.768 197.996 315.792 198.172 315.839V314.866C198.031 314.819 197.855 314.796 197.668 314.796C196.918 314.796 196.379 315.136 195.945 315.651V314.913H194.949V320.819ZM200.949 320.983C201.711 320.983 202.484 320.644 202.93 320.069V320.819H203.926V316.858C203.926 315.557 203.035 314.679 201.535 314.679C200.504 314.679 199.672 315.112 199.156 315.815L199.906 316.39C200.269 315.886 200.82 315.569 201.5 315.569C202.344 315.569 202.93 316.038 202.93 316.858V317.268L200.937 317.597C199.683 317.808 199.004 318.44 199.004 319.331C199.004 320.339 199.789 320.983 200.949 320.983ZM200.012 319.296C200.012 318.792 200.375 318.429 201.183 318.288L202.93 317.995V319.155C202.543 319.788 201.898 320.163 201.113 320.163C200.422 320.163 200.012 319.8 200.012 319.296ZM205.924 323.702H206.92V320.116C207.448 320.714 208.139 321.054 209.018 321.054C210.87 321.054 212.053 319.589 212.053 317.866C212.053 316.143 210.87 314.679 209.018 314.679C208.139 314.679 207.448 315.018 206.92 315.616V314.913H205.924V323.702ZM208.901 315.616C210.155 315.616 211.01 316.612 211.01 317.866C211.01 319.12 210.155 320.116 208.901 320.116C208.092 320.116 207.377 319.729 206.92 319.015V316.718C207.366 316.015 208.08 315.616 208.901 315.616ZM213.66 320.819H214.657V316.729C215.032 316.12 215.559 315.616 216.426 315.616C217.352 315.616 217.938 316.225 217.938 317.28V320.819H218.934V317.245C218.934 315.569 217.95 314.679 216.625 314.679C215.746 314.679 215.137 315.054 214.657 315.581V312.03H213.66V320.819ZM226.189 319.847L225.451 319.272C225.064 319.8 224.42 320.151 223.658 320.151C222.392 320.151 221.49 319.296 221.455 317.878H225.99C226.025 317.714 226.06 317.491 226.06 317.257C226.06 315.804 225.017 314.679 223.412 314.679C221.584 314.679 220.435 316.073 220.435 317.866C220.435 319.589 221.666 321.054 223.658 321.054C224.76 321.054 225.638 320.585 226.189 319.847ZM223.388 315.522C224.431 315.522 225.029 316.249 225.064 317.116H221.525C221.736 316.097 222.416 315.522 223.388 315.522ZM227.07 320.011C227.609 320.679 228.347 321.054 229.285 321.054C230.386 321.054 231.265 320.362 231.277 319.261C231.277 317.245 228.312 317.667 228.312 316.343C228.312 315.886 228.652 315.511 229.285 315.511C229.8 315.511 230.246 315.792 230.562 316.237L231.254 315.651C230.843 315.077 230.117 314.679 229.273 314.679C228.136 314.679 227.351 315.44 227.351 316.366C227.351 318.452 230.304 317.983 230.304 319.308C230.304 319.823 229.929 320.222 229.273 320.222C228.675 320.222 228.183 319.929 227.773 319.413L227.07 320.011ZM130.144 330.913V331.815H131.257V336.819H132.265V331.815H134.316V330.913H132.265V330.163C132.265 329.389 132.711 328.932 133.379 328.932C133.718 328.932 133.988 329.038 134.211 329.202L134.656 328.37C134.328 328.182 133.894 328.03 133.355 328.03C132.066 328.03 131.257 328.932 131.257 330.186V330.913H130.144ZM135.278 336.819H136.274V332.765C136.637 332.167 137.141 331.768 137.915 331.768C138.149 331.768 138.325 331.792 138.501 331.839V330.866C138.36 330.819 138.184 330.796 137.997 330.796C137.247 330.796 136.708 331.136 136.274 331.651V330.913H135.278V336.819ZM141.278 336.983C142.04 336.983 142.813 336.644 143.259 336.069V336.819H144.255V332.858C144.255 331.557 143.364 330.679 141.864 330.679C140.833 330.679 140.001 331.112 139.485 331.815L140.235 332.39C140.598 331.886 141.149 331.569 141.829 331.569C142.673 331.569 143.259 332.038 143.259 332.858V333.268L141.266 333.597C140.012 333.808 139.333 334.44 139.333 335.331C139.333 336.339 140.118 336.983 141.278 336.983ZM140.34 335.296C140.34 334.792 140.704 334.429 141.512 334.288L143.259 333.995V335.155C142.872 335.788 142.227 336.163 141.442 336.163C140.751 336.163 140.34 335.8 140.34 335.296ZM146.253 336.819H147.249V332.729C147.624 332.108 148.163 331.616 149.019 331.616C149.933 331.616 150.53 332.225 150.53 333.28V336.819H151.527V333.245C151.527 331.569 150.542 330.679 149.218 330.679C148.339 330.679 147.73 331.054 147.249 331.581V330.913H146.253V336.819ZM156.25 336.116C154.973 336.116 154.071 335.132 154.071 333.866C154.071 332.612 154.973 331.616 156.239 331.616C156.977 331.616 157.575 331.968 157.938 332.483L158.723 331.886C158.172 331.159 157.305 330.679 156.239 330.679C154.282 330.679 153.028 332.143 153.028 333.866C153.028 335.413 154.036 336.749 155.653 337.007L154.586 338.694H155.606L156.649 337.03C157.54 336.925 158.243 336.491 158.723 335.847L157.938 335.249C157.575 335.765 156.977 336.116 156.25 336.116ZM161.615 336.983C162.376 336.983 163.15 336.644 163.595 336.069V336.819H164.591V332.858C164.591 331.557 163.701 330.679 162.201 330.679C161.169 330.679 160.337 331.112 159.822 331.815L160.572 332.39C160.935 331.886 161.486 331.569 162.165 331.569C163.009 331.569 163.595 332.038 163.595 332.858V333.268L161.603 333.597C160.349 333.808 159.669 334.44 159.669 335.331C159.669 336.339 160.454 336.983 161.615 336.983ZM160.677 335.296C160.677 334.792 161.04 334.429 161.849 334.288L163.595 333.995V335.155C163.208 335.788 162.564 336.163 161.779 336.163C161.087 336.163 160.677 335.8 160.677 335.296ZM167.094 329.378C167.48 329.378 167.785 329.061 167.785 328.675C167.785 328.3 167.48 327.983 167.094 327.983C166.707 327.983 166.39 328.3 166.39 328.675C166.39 329.061 166.707 329.378 167.094 329.378ZM166.59 336.819H167.586V330.913H166.59V336.819ZM169.013 336.011C169.552 336.679 170.29 337.054 171.227 337.054C172.329 337.054 173.208 336.362 173.22 335.261C173.22 333.245 170.255 333.667 170.255 332.343C170.255 331.886 170.595 331.511 171.227 331.511C171.743 331.511 172.188 331.792 172.505 332.237L173.196 331.651C172.786 331.077 172.059 330.679 171.216 330.679C170.079 330.679 169.294 331.44 169.294 332.366C169.294 334.452 172.247 333.983 172.247 335.308C172.247 335.823 171.872 336.222 171.216 336.222C170.618 336.222 170.126 335.929 169.716 335.413L169.013 336.011ZM177.367 336.011C177.906 336.679 178.644 337.054 179.582 337.054C180.683 337.054 181.562 336.362 181.574 335.261C181.574 333.245 178.609 333.667 178.609 332.343C178.609 331.886 178.949 331.511 179.582 331.511C180.097 331.511 180.543 331.792 180.859 332.237L181.551 331.651C181.14 331.077 180.414 330.679 179.57 330.679C178.433 330.679 177.648 331.44 177.648 332.366C177.648 334.452 180.601 333.983 180.601 335.308C180.601 335.823 180.226 336.222 179.57 336.222C178.972 336.222 178.48 335.929 178.07 335.413L177.367 336.011ZM185.822 330.679C183.912 330.679 182.623 332.143 182.623 333.866C182.623 335.589 183.912 337.054 185.822 337.054C187.721 337.054 189.022 335.589 189.022 333.866C189.022 332.143 187.721 330.679 185.822 330.679ZM185.834 336.116C184.568 336.116 183.666 335.097 183.666 333.866C183.666 332.636 184.568 331.616 185.834 331.616C187.064 331.616 187.967 332.636 187.967 333.866C187.967 335.085 187.064 336.116 185.834 336.116ZM190.623 336.819H191.619V332.729C191.994 332.108 192.533 331.616 193.389 331.616C194.303 331.616 194.9 332.225 194.9 333.28V336.819H195.897V333.245C195.897 331.569 194.912 330.679 193.588 330.679C192.709 330.679 192.1 331.054 191.619 331.581V330.913H190.623V336.819ZM198.241 334.839C198.241 336.28 198.98 336.937 200.292 336.937C200.714 336.937 201.031 336.89 201.312 336.772V335.882C201.089 335.976 200.82 336.022 200.433 336.022C199.718 336.022 199.249 335.765 199.249 334.839V331.815H201.3V330.913H199.249V329.436H198.241V330.913H197.128V331.815H198.241V334.839ZM130.414 349.866C130.414 351.589 131.597 353.054 133.449 353.054C134.328 353.054 135.019 352.714 135.547 352.116V352.819H136.543V344.03H135.547V347.616C135.019 347.018 134.328 346.679 133.449 346.679C131.597 346.679 130.414 348.143 130.414 349.866ZM131.468 349.866C131.468 348.612 132.312 347.616 133.566 347.616C134.375 347.616 135.089 348.003 135.547 348.706V351.026C135.113 351.718 134.386 352.116 133.566 352.116C132.312 352.116 131.468 351.12 131.468 349.866ZM143.893 351.847L143.154 351.272C142.768 351.8 142.123 352.151 141.361 352.151C140.096 352.151 139.193 351.296 139.158 349.878H143.693C143.729 349.714 143.764 349.491 143.764 349.257C143.764 347.804 142.721 346.679 141.115 346.679C139.287 346.679 138.139 348.073 138.139 349.866C138.139 351.589 139.369 353.054 141.361 353.054C142.463 353.054 143.342 352.585 143.893 351.847ZM141.092 347.522C142.135 347.522 142.732 348.249 142.768 349.116H139.228C139.439 348.097 140.119 347.522 141.092 347.522ZM144.773 352.011C145.312 352.679 146.051 353.054 146.988 353.054C148.09 353.054 148.969 352.362 148.98 351.261C148.98 349.245 146.016 349.667 146.016 348.343C146.016 347.886 146.355 347.511 146.988 347.511C147.504 347.511 147.949 347.792 148.266 348.237L148.957 347.651C148.547 347.077 147.82 346.679 146.976 346.679C145.84 346.679 145.055 347.44 145.055 348.366C145.055 350.452 148.008 349.983 148.008 351.308C148.008 351.823 147.633 352.222 146.976 352.222C146.379 352.222 145.887 351.929 145.476 351.413L144.773 352.011ZM152.987 346.913V347.815H154.1V352.819H155.108V347.815H157.159V346.913H155.108V346.163C155.108 345.389 155.554 344.932 156.222 344.932C156.561 344.932 156.831 345.038 157.054 345.202L157.499 344.37C157.171 344.182 156.737 344.03 156.198 344.03C154.909 344.03 154.1 344.932 154.1 346.186V346.913H152.987ZM163.291 351.847L162.553 351.272C162.166 351.8 161.521 352.151 160.76 352.151C159.494 352.151 158.592 351.296 158.556 349.878H163.092C163.127 349.714 163.162 349.491 163.162 349.257C163.162 347.804 162.119 346.679 160.513 346.679C158.685 346.679 157.537 348.073 157.537 349.866C157.537 351.589 158.767 353.054 160.76 353.054C161.861 353.054 162.74 352.585 163.291 351.847ZM160.49 347.522C161.533 347.522 162.131 348.249 162.166 349.116H158.627C158.838 348.097 159.517 347.522 160.49 347.522ZM164.85 352.819H165.846V348.729C166.186 348.12 166.69 347.616 167.499 347.616C168.354 347.616 168.893 348.179 168.893 349.163V352.819H169.889V349.128C169.889 348.987 169.878 348.858 169.866 348.729C170.253 348.038 170.78 347.616 171.53 347.616C172.374 347.616 172.925 348.179 172.925 349.163V352.819H173.921V349.128C173.921 347.522 172.995 346.679 171.729 346.679C170.71 346.679 170.089 347.171 169.62 347.815C169.257 347.065 168.553 346.679 167.698 346.679C166.878 346.679 166.292 347.042 165.846 347.557V346.913H164.85V352.819ZM175.928 352.819H176.924V348.729C177.264 348.12 177.768 347.616 178.577 347.616C179.432 347.616 179.971 348.179 179.971 349.163V352.819H180.968V349.128C180.968 348.987 180.956 348.858 180.944 348.729C181.331 348.038 181.858 347.616 182.608 347.616C183.452 347.616 184.003 348.179 184.003 349.163V352.819H184.999V349.128C184.999 347.522 184.073 346.679 182.807 346.679C181.788 346.679 181.167 347.171 180.698 347.815C180.335 347.065 179.632 346.679 178.776 346.679C177.956 346.679 177.37 347.042 176.924 347.557V346.913H175.928V352.819ZM192.257 351.847L191.518 351.272C191.132 351.8 190.487 352.151 189.725 352.151C188.46 352.151 187.557 351.296 187.522 349.878H192.057C192.093 349.714 192.128 349.491 192.128 349.257C192.128 347.804 191.085 346.679 189.479 346.679C187.651 346.679 186.503 348.073 186.503 349.866C186.503 351.589 187.733 353.054 189.725 353.054C190.827 353.054 191.706 352.585 192.257 351.847ZM189.456 347.522C190.499 347.522 191.096 348.249 191.132 349.116H187.592C187.803 348.097 188.483 347.522 189.456 347.522ZM193.137 352.011C193.676 352.679 194.415 353.054 195.352 353.054C196.454 353.054 197.333 352.362 197.344 351.261C197.344 349.245 194.38 349.667 194.38 348.343C194.38 347.886 194.719 347.511 195.352 347.511C195.868 347.511 196.313 347.792 196.63 348.237L197.321 347.651C196.911 347.077 196.184 346.679 195.34 346.679C194.204 346.679 193.419 347.44 193.419 348.366C193.419 350.452 196.372 349.983 196.372 351.308C196.372 351.823 195.997 352.222 195.34 352.222C194.743 352.222 194.251 351.929 193.84 351.413L193.137 352.011Z" fill="#6B48F4"/>
</svg>
